<?xml version="1.0" encoding="utf-8"?>
<!-- Generator: Adobe Illustrator 25.2.1, SVG Export Plug-In . SVG Version: 6.00 Build 0)  -->
<svg version="1.1" id="Capa_1" xmlns="http://www.w3.org/2000/svg" xmlns:xlink="http://www.w3.org/1999/xlink" x="0px" y="0px"
	 viewBox="0 0 530 189.9" style="enable-background:new 0 0 530 189.9;" xml:space="preserve">
<style type="text/css">
	.st0{opacity:0.3;}
	.st1{fill:#252525;}
	.st2{fill:#E0E0E0;}
	.st3{fill:#F5F5F5;}
	.st4{fill:#455A64;}
	.st5{fill:#92E3A9;}
	.st6{opacity:0.3;fill:#FFFFFF;enable-background:new    ;}
	.st7{opacity:0.7;}
	.st8{opacity:0.7;fill:#FFFFFF;enable-background:new    ;}
	.st9{opacity:0.3;fill:#252525;enable-background:new    ;}
</style>
<g class="st0">
	<path class="st1" d="M402.7,152.2c-1.5-22.1,15.3-41.2,37.4-42.7c22.1-1.5,41.2,15.3,42.7,37.4c1.5,22.1-15.3,41.2-37.4,42.7
		C423.3,191.1,404.2,174.3,402.7,152.2z"/>
	<path class="st2" d="M442.8,122.9c5.3,0,10.5,1.6,14.8,4.5c4.4,2.9,7.8,7.1,9.8,12c2,4.9,2.5,10.3,1.5,15.4
		c-1,5.2-3.6,9.9-7.3,13.7c-3.7,3.7-8.5,6.3-13.7,7.3c-5.2,1-10.6,0.5-15.4-1.5c-4.9-2-9.1-5.5-12-9.9c-2.9-4.4-4.5-9.6-4.5-14.9
		c0-3.5,0.7-7,2-10.2c1.3-3.2,3.3-6.2,5.8-8.7c2.5-2.5,5.4-4.4,8.7-5.8S439.3,122.9,442.8,122.9z M464.1,149.6
		c0-4.2-1.2-8.4-3.6-11.9c-2.3-3.5-5.7-6.3-9.6-7.9c-3.9-1.6-8.2-2.1-12.4-1.2c-4.2,0.8-8,2.8-11,5.8c-3,3-5,6.8-5.9,10.9
		s-0.4,8.5,1.2,12.4c1.6,3.9,4.3,7.3,7.9,9.6c3.5,2.4,7.7,3.6,11.9,3.6c5.7,0,11.1-2.2,15.1-6.2
		C461.9,160.8,464.1,155.3,464.1,149.6z"/>
	<path class="st3" d="M442.8,128.2c4.2,0,8.4,1.3,11.9,3.6c3.5,2.4,6.3,5.7,7.9,9.6c1.6,3.9,2,8.2,1.2,12.4c-0.8,4.2-2.9,8-5.9,11
		c-3,3-6.8,5-11,5.9c-4.2,0.8-8.5,0.4-12.4-1.2c-3.9-1.6-7.3-4.4-9.6-7.9c-2.3-3.5-3.6-7.7-3.6-11.9c0-5.7,2.3-11.1,6.3-15.1
		S437.1,128.2,442.8,128.2z"/>
	<path class="st1" d="M449.1,149.7c0,1.3-0.4,2.5-1.1,3.5c-0.7,1-1.7,1.8-2.8,2.3c-1.2,0.5-2.4,0.6-3.7,0.4
		c-1.2-0.2-2.4-0.9-3.2-1.7c-0.9-0.9-1.5-2-1.7-3.2c-0.2-1.2-0.1-2.5,0.4-3.7c0.5-1.2,1.3-2.1,2.3-2.8c1-0.7,2.3-1.1,3.5-1.1
		c0.8,0,1.7,0.2,2.4,0.5c0.8,0.3,1.5,0.8,2.1,1.4c0.6,0.6,1.1,1.3,1.4,2.1C448.9,148,449.1,148.9,449.1,149.7z"/>
</g>
<g class="st0">
	<path class="st1" d="M69.1,178.1c-15.6-15.7-15.5-41.1,0.2-56.7c15.7-15.6,41.1-15.5,56.7,0.2c15.6,15.7,15.5,41.1-0.2,56.7
		C110.1,193.9,84.7,193.8,69.1,178.1z"/>
	<path class="st2" d="M97.6,123.1c5.3,0,10.5,1.6,14.8,4.5c4.4,2.9,7.8,7.1,9.8,12c2,4.9,2.5,10.3,1.5,15.4c-1,5.2-3.6,9.9-7.3,13.7
		c-3.7,3.7-8.5,6.3-13.7,7.3c-5.2,1-10.6,0.5-15.4-1.5c-4.9-2-9.1-5.5-12-9.9c-2.9-4.4-4.5-9.6-4.5-14.9c0-7.1,2.8-13.9,7.8-18.9
		C83.7,125.9,90.5,123.1,97.6,123.1z M118.9,149.9c0-4.2-1.2-8.4-3.6-11.9c-2.3-3.5-5.7-6.3-9.6-7.9c-3.9-1.6-8.2-2.1-12.4-1.2
		c-4.2,0.8-8,2.9-11,5.9c-3,3-5,6.8-5.9,11c-0.8,4.2-0.4,8.5,1.2,12.4c1.6,3.9,4.4,7.3,7.9,9.6c3.5,2.3,7.7,3.6,11.9,3.6
		c5.7,0,11.1-2.3,15.1-6.3C116.6,161,118.9,155.5,118.9,149.9z"/>
	<path class="st3" d="M97.6,128.4c4.2,0,8.4,1.3,11.9,3.6s6.3,5.7,7.9,9.6c1.6,3.9,2,8.2,1.2,12.4c-0.8,4.2-2.9,8-5.9,11
		c-3,3-6.8,5-11,5.9c-4.2,0.8-8.5,0.4-12.4-1.2c-3.9-1.6-7.3-4.4-9.6-7.9c-2.4-3.5-3.6-7.7-3.6-11.9c0-5.7,2.3-11.1,6.3-15.1
		C86.5,130.6,91.9,128.4,97.6,128.4z"/>
	<path class="st1" d="M103.9,150c0,1.3-0.4,2.5-1.1,3.5c-0.7,1-1.7,1.8-2.8,2.3c-1.2,0.5-2.4,0.6-3.7,0.4c-1.2-0.2-2.4-0.9-3.2-1.7
		c-0.9-0.9-1.5-2-1.7-3.2c-0.2-1.2-0.1-2.5,0.4-3.7c0.5-1.2,1.3-2.1,2.3-2.8c1-0.7,2.3-1.1,3.5-1.1c1.7,0,3.3,0.7,4.5,1.9
		C103.2,146.7,103.9,148.3,103.9,150z"/>
</g>
<g class="st0">
	<path class="st4" d="M48.1,91.4l-0.1,66.5l10.3,0c-2.6-12.8,1-26.7,11-36.6c15.7-15.6,41.1-15.5,56.7,0.2
		c9.9,9.9,13.5,23.8,10.8,36.5l266.8,0.5c-0.5-2.1-0.8-4.2-0.9-6.4c-1.5-22.1,15.3-41.2,37.4-42.7c22.1-1.5,41.2,15.3,42.7,37.4
		c0.3,4.1-0.1,8-1,11.8l15.7,0l0.1-66.5L48.1,91.4z"/>
	<path class="st5" d="M24.8,42.3c0,0,11.2,1.3,13.2,0c4.5-2.9,103.1-42.2,187.6-42c67.8,0.1,128.8,18.3,188.1,58.2
		c0,0,72.3,8.2,100.5,29.5c6.6,3.9,20,19,14.7,53.3c-3.4,21.9-19.6,22.7-41.9,22.2c0,0,8.5-66.4-50.7-61.6
		c-50.3,4.1-40.9,65.6-40.9,65.6L143.3,167c0,0-1-27.3-2.1-33.9c-2.1-13.2-18.5-35-49.2-31.9c-33.7,3.4-45,34.1-43,60.1
		c0,0-35.6,7.6-40.3-21.1l-8.5-2.7c0,0-3.1-59.3,26.7-84.2l-6.3-4.3L24.8,42.3z"/>
	<path class="st4" d="M41.6,40.4c0,0,2.1,5.7,9.3,5.1c5.9-0.5,39.6-13.1,51.9-17.8c1.8-0.6,3.3-1.7,4.6-3c1.3-1.4,2.2-3,2.7-4.8
		c0.3-0.8,0.3-1.6,0.2-2.3C110.3,17.6,58,30,41.6,40.4z"/>
	<path class="st4" d="M330.6,16.6c0,2.4,0.7,4.8,2,6.8c1.3,2,3.1,3.7,5.3,4.7l71.9,34.6l4.1-4.4c0,0-7.5-5.4-17.3-11.3
		c-9.1-5.4-20.2-11.2-26.9-14.5C357,26.2,343.9,20.9,330.6,16.6z"/>
	<g class="st0">
		<path class="st6" d="M91.5,45.7c-0.5,0.4-0.9,0.9-1.1,1.5c-0.3,0.6-0.4,1.2-0.4,1.9c0,0.6,0.1,1.3,0.4,1.9
			c0.3,0.6,0.7,1.1,1.1,1.5c3.6,3.7,20.5,16.4,28.4,17.2c7.9,0.8,247.7,17.6,261.9,13.6c14.2-4,22.5-11.2,19-15.3l-6.4-2.2
			l-113.1,1.9L91.5,45.7z"/>
	</g>
	<g class="st7">
		<path class="st8" d="M4,96.4c0,0,13.9,4.2,19.9-6.8c6-11,12.6-22.6,12.6-25.1c0-3.2-2.2-13.3-9.7-11.3C26.9,53.2,6.1,69.6,4,96.4z
			"/>
	</g>
	<g class="st7">
		<path class="st8" d="M520.3,109.5c0,0-54-21.8-45.2-29.2C479.7,76.4,524.1,98,520.3,109.5z"/>
	</g>
	<path class="st1" d="M498.1,163.3c0,0,0-0.2,0-0.5c0-0.4,0.1-0.9,0.1-1.6c0-1.4,0.1-3.5,0-6.1c-0.3-7.5-1.4-15-3.4-22.2
		c-1.4-5-3.3-9.9-5.7-14.5c-2.8-5.3-6.5-10.1-10.9-14.1l-1.8-1.6l-1.9-1.4c-1.3-1-2.7-1.9-4.1-2.7c-0.7-0.4-1.5-0.8-2.2-1.2
		c-0.7-0.4-1.5-0.8-2.3-1.1l-2.4-0.9l-1.2-0.5l-1.2-0.4c-1.7-0.5-3.4-1-5.1-1.3l-2.6-0.5c-0.9-0.1-1.8-0.2-2.6-0.4
		c-0.9-0.1-1.8-0.2-2.7-0.3l-2.7-0.1c-1.8-0.2-3.6-0.2-5.4-0.1c-7.1,0-14.2,1.2-20.8,3.8c-6.2,2.4-11.7,6.2-16.3,11
		c-4,4.4-7.4,9.4-9.8,14.9c-2.1,4.7-3.8,9.7-4.9,14.8c-1.7,7.3-2.5,14.8-2.6,22.3c0,2.7,0.1,4.7,0.1,6.1c0,0.7,0.1,1.2,0.1,1.6
		c0,0.4,0.1,0.5,0.1,0.5s0-0.2,0-0.5s0-0.9-0.1-1.6c-0.1-1.4-0.1-3.5,0-6.1c0.2-7.5,1.1-15,2.8-22.3c1.2-5,2.8-9.9,5-14.7
		c2.4-5.4,5.7-10.4,9.8-14.7c4.5-4.8,10-8.5,16.1-10.9c6.6-2.5,13.6-3.8,20.6-3.7c7-0.2,14.1,0.8,20.8,2.8l1.2,0.4l1.2,0.5l2.3,0.9
		c0.8,0.3,1.5,0.7,2.2,1.1c0.7,0.4,1.5,0.7,2.2,1.1c1.4,0.8,2.7,1.7,4,2.6l1.9,1.4l1.8,1.6c4.4,4,8.1,8.7,10.8,14
		c2.4,4.6,4.4,9.4,5.8,14.4c2,7.2,3.2,14.7,3.5,22.2c0.1,2.7,0.1,4.7,0.1,6.1l0,1.6C498.1,163.1,498.1,163.3,498.1,163.3z"/>
	<path class="st1" d="M151.8,166.8c0,0,0-0.2,0.1-0.5s0.1-0.9,0.1-1.6c0.1-1.4,0.2-3.4,0.2-6.1c0-7.4-0.8-14.8-2.4-22.1
		c-1.1-5-2.7-9.9-4.7-14.6c-2.4-5.4-5.6-10.4-9.6-14.8c-4.5-4.8-9.9-8.6-16-11c-6.6-2.5-13.5-3.8-20.6-3.9c-7-0.3-14,0.5-20.8,2.4
		c-0.4,0.1-0.8,0.2-1.2,0.3l-1.2,0.4l-2.4,0.9c-1.5,0.6-3,1.4-4.5,2.1c-1.4,0.8-2.8,1.6-4.1,2.5l-1.9,1.4c-0.3,0.2-0.7,0.5-0.9,0.7
		l-0.9,0.8c-4.5,3.9-8.2,8.5-11,13.7c-2.4,4.5-4.3,9.3-5.7,14.3c-1.9,7.2-3,14.6-3.1,22c-0.1,2.6,0,4.7,0.1,6.1
		c0,0.7,0.1,1.2,0.1,1.6c0,0.4,0.1,0.5,0.1,0.5c0-0.2,0-0.4,0-0.5c0-0.4,0-0.9-0.1-1.6c0-1.4-0.1-3.4,0-6c0.2-7.4,1.3-14.8,3.2-21.9
		c1.4-4.9,3.3-9.7,5.7-14.2c2.8-5.1,6.6-9.7,11-13.6l0.9-0.8c0.3-0.2,0.6-0.5,0.9-0.7l1.9-1.4c1.3-0.9,2.7-1.7,4.1-2.5
		c1.5-0.7,2.9-1.4,4.4-2l2.3-0.9l1.2-0.4c0.4-0.1,0.8-0.2,1.2-0.3c6.7-1.9,13.6-2.7,20.6-2.4c7,0,13.9,1.3,20.3,3.8
		c6,2.4,11.5,6.1,15.9,10.8c4,4.3,7.2,9.2,9.6,14.6c2.1,4.7,3.6,9.5,4.7,14.5c1.6,7.2,2.4,14.6,2.5,22c0,2.6,0,4.7-0.1,6.1
		c0,0.7,0,1.2-0.1,1.6C151.7,166.7,151.8,166.8,151.8,166.8z"/>
	<path class="st4" d="M93.8,45.7c0,0,20.9,18.3,30,18.4c9.1,0,248.5,15.4,259.1,11.1c5.6-2.1,11.1-4.7,16.2-7.8
		c0,0-77.9-56.5-169-54.2C163.4,15,93.8,45.7,93.8,45.7z"/>
	<path class="st1" d="M350.9,40.3l15.7,35.5l8,0l-13-30.4L350.9,40.3z"/>
	<g class="st0">
		<path class="st9" d="M151.2,91.6l28.4,0.1l0-5.7c0-0.3-0.1-0.7-0.4-0.9c-0.2-0.2-0.6-0.4-0.9-0.4l-25.8,0c-0.3,0-0.7,0.1-0.9,0.4
			c-0.2,0.2-0.4,0.6-0.4,0.9L151.2,91.6L151.2,91.6z"/>
	</g>
	<g class="st0">
		<path class="st9" d="M261.8,91.8l28.4,0.1l0-5.6c0-0.3-0.1-0.7-0.4-0.9c-0.2-0.2-0.6-0.4-0.9-0.4l-25.8,0c-0.3,0-0.7,0.1-0.9,0.4
			c-0.2,0.2-0.4,0.6-0.4,0.9L261.8,91.8L261.8,91.8z"/>
	</g>
	<path class="st1" d="M163.8,22.7l-24.9,42l23.1,1.3L159,45.8l15.3-25.5L163.8,22.7z"/>
	<path class="st1" d="M254.2,13.9l3.7,57.6l-8.4-0.4L246,13.3L254.2,13.9z"/>
	<path class="st1" d="M361.8,84.6l-3.6-3.7l5.8-7.3l4.9,4.7c0.7,0.6,1.2,1.5,1.3,2.5C370.8,85.3,365,87.9,361.8,84.6z"/>
	<path class="st5" d="M347.3,83.1c-8.8,0.3-15.6-8.7-11.9-16.6c0.4-1,1-1.8,1.8-2.5c0.8-0.7,1.8-1.1,2.8-1.3
		c9.1-1.6,20.9-2.1,24.1,10.8c0.9,3.8-1.2,6.2-4.7,7.6C356,82.5,351.5,83,347.3,83.1z"/>
	<path class="st1" d="M78.8,74.4c0,1.2,0.4,2.4,1.1,3.5s1.7,1.8,2.8,2.3c1.1,0.5,2.4,0.6,3.6,0.3c1.2-0.3,2.3-0.9,3.2-1.7
		c0.9-0.9,1.4-2,1.7-3.2c0.2-1.2,0.1-2.5-0.4-3.6c-0.5-1.1-1.3-2.1-2.3-2.8c-1-0.7-2.2-1-3.5-1c-1.7,0-3.2,0.7-4.4,1.9
		S78.8,72.7,78.8,74.4z"/>
	<path class="st1" d="M152,152.7l0.6,0l1.8,0l6.8,0.2l25,0.5l82.6,1.3c32.3,0.4,61.5,0.8,82.7,0.9c10.6,0,19.1,0.1,25.1,0
		c5.9-0.1,9.2-0.2,9.1-0.4c-0.8,0.1-1.6,0.2-2.4,0.1c-1.6,0-3.9,0-6.8,0c-5.9,0-14.5-0.1-25.1-0.1l-82.6-1l-82.6-1.2l-25.1-0.3
		l-6.8,0l-1.8,0L152,152.7z"/>
	<path class="st1" d="M254.2,167c0.2,0,0.1-21.3-0.2-47.5c-0.3-26.2-0.6-47.5-0.8-47.5c-0.1,0-0.1,21.3,0.3,47.5
		C253.8,145.7,254.1,167,254.2,167z"/>
	<path class="st3" d="M199,29.9c-0.1,0.1,6.4,6.1,14.6,13.4s14.8,13.1,14.9,13c0.1-0.1-6.4-6.1-14.6-13.4
		C205.8,35.6,199.1,29.8,199,29.9z"/>
	<path class="st3" d="M202.2,41.4c0.3,0.4,0.6,0.7,1,1c0.7,0.6,1.6,1.5,2.9,2.6c2.5,2.2,5.9,5.2,9.8,8.4c3.9,3.2,7.5,6,10.1,8.1
		c1.3,1,2.4,1.8,3.1,2.3c0.4,0.3,0.8,0.6,1.2,0.8c-0.3-0.4-0.7-0.7-1.1-1l-3-2.5c-2.6-2-6.1-4.9-10-8.1c-3.9-3.2-7.3-6.2-9.9-8.3
		l-3-2.5C203,42,202.6,41.7,202.2,41.4z"/>
	<path class="st3" d="M284.7,31.5c-0.1,0.1,9.4,6.8,21.2,14.9c11.8,8.1,21.5,14.6,21.6,14.5c0.1-0.1-9.4-6.8-21.2-14.9
		C294.5,37.8,284.8,31.3,284.7,31.5z"/>
	<path class="st3" d="M275.9,31c0.4,0.4,0.8,0.7,1.2,1l3.4,2.7l11.4,8.8l11.3,8.9l3.4,2.7c0.4,0.4,0.8,0.7,1.3,0.9
		c-0.4-0.4-0.7-0.8-1.2-1.1c-0.8-0.7-1.9-1.6-3.3-2.8c-2.8-2.4-6.7-5.6-11.1-9c-4.4-3.5-8.5-6.5-11.5-8.7c-1.5-1.1-2.7-1.9-3.6-2.5
		C276.8,31.6,276.3,31.3,275.9,31z"/>
	<path class="st3" d="M418.9,60.7c0.1,0,0.2,0.1,0.3,0.1l0.8,0.1l3.1,0.4c2.7,0.4,6.7,1,11.5,1.8c12.6,2.2,25.1,5.2,37.4,9
		c7.2,2.2,13.9,4.6,20,7c5.4,2,10.6,4.4,15.7,7.1c3.4,1.8,6.6,4.1,9.4,6.8c0.5,0.5,0.9,0.9,1.3,1.3c0.4,0.4,0.7,0.7,0.9,1l0.6,0.6
		c0.1,0.1,0.1,0.1,0.2,0.2c0,0,0-0.1-0.2-0.2l-0.5-0.7c-0.2-0.3-0.5-0.6-0.9-1c-0.4-0.4-0.8-0.9-1.3-1.3c-2.8-2.7-5.9-5.1-9.4-6.9
		c-5.1-2.8-10.3-5.2-15.7-7.2c-6.1-2.4-12.8-4.9-20-7.1c-12.3-3.8-24.8-6.8-37.4-8.9c-4.9-0.8-8.8-1.3-11.6-1.6l-3.2-0.3l-0.8-0.1
		C419.1,60.7,419,60.7,418.9,60.7z"/>
	<path class="st3" d="M166.6,7l0.4,0l1.2-0.2l4.7-0.8c4.1-0.7,10-1.6,17.3-2.4c19.1-2.3,38.4-2.7,57.6-1.3
		c22.5,1.8,42.4,6.4,56.7,10c7.2,1.8,12.9,3.4,16.9,4.5L326,18l1.2,0.3c0.1,0,0.3,0.1,0.4,0.1c-0.1-0.1-0.3-0.1-0.4-0.1l-1.2-0.4
		l-4.6-1.4c-4-1.2-9.7-2.8-16.9-4.7c-14.3-3.6-34.3-8.2-56.8-10.1c-19.2-1.5-38.5-1-57.7,1.4c-7.3,0.9-13.2,1.9-17.3,2.6
		c-2,0.4-3.6,0.7-4.7,0.9L167,7C166.8,7,166.7,7,166.6,7z"/>
	<path class="st3" d="M336.6,65.6c0.4,0,0.9,0,1.3-0.1c0.8-0.1,2-0.2,3.6-0.3c3.9-0.2,7.9,0.2,11.7,1.3c2.1,0.6,4,1.6,5.7,2.9
		c1.4,1.1,2.6,2.4,3.4,4c0.8,1.4,1.3,3,1.5,4.6c0,0,0-0.1,0-0.3c0-0.3,0-0.7-0.1-1c-0.2-1.2-0.6-2.4-1.1-3.5c-0.9-1.6-2-3-3.5-4.2
		c-1.8-1.4-3.8-2.4-5.9-3.1c-3.9-1.1-7.9-1.5-11.9-1.2c-1.2,0.1-2.4,0.2-3.6,0.5C337.4,65.3,337,65.4,336.6,65.6z"/>
	<path class="st3" d="M262.2,79.1c0,0.2,14.7,1.2,32.9,2.3c18.2,1.1,33,2,33,1.8c0-0.1-14.7-1.2-32.9-2.3
		C277,79.8,262.2,79,262.2,79.1z"/>
	<path class="st3" d="M428,91.9c0.1,0,0.2,0,0.3,0l0.7-0.2c0.6-0.1,1.6-0.4,2.8-0.6c3.5-0.6,7-1,10.6-1c5.3-0.1,10.5,0.5,15.7,1.6
		c6.3,1.3,12.3,3.8,17.8,7.3c5.3,3.7,9.9,8.3,13.5,13.6c2.9,4.4,5.3,9.1,6.8,14.2c1.1,3.4,1.8,6.9,2.2,10.4c0.2,1.2,0.2,2.2,0.2,2.9
		l0.1,0.8c0,0.1,0,0.2,0,0.3c0-0.1,0-0.2,0-0.3l0-0.8c0-0.7,0-1.7-0.1-2.9c-0.3-3.6-1-7.1-2-10.5c-1.6-5.1-3.8-9.9-6.8-14.3
		c-3.6-5.5-8.2-10.2-13.6-13.9c-5.5-3.5-11.6-6-17.9-7.3c-5.2-1.1-10.5-1.6-15.8-1.5c-3.6,0.1-7.1,0.5-10.6,1.2
		c-1.2,0.2-2.2,0.6-2.8,0.7l-0.7,0.2L428,91.9z"/>
</g>
</svg>
