<svg width="1365" height="595" viewBox="0 0 1365 595" fill="none" xmlns="http://www.w3.org/2000/svg">
<g opacity="0.3">
<path d="M33.7592 182.405H128.247V429.729H33.7592V182.405Z" fill="#ECA69B"/>
<path d="M33.7588 182.405H81.0088V429.729H33.7588V182.405Z" fill="#FFCBC3"/>
<path d="M84.0979 153H117.466V182.393H84.0979V153Z" fill="#ECA69B"/>
<path d="M84.0969 153H92.0469V182.393H84.0969V153Z" fill="#FFCBC3"/>
<path d="M30.9997 180.691H136.124V182.405H30.9997V180.691Z" fill="#FFCBC3"/>
<path d="M101.602 195.218H109.601V212.078H101.602V195.218Z" fill="#FFE3DF"/>
<path d="M81.0092 218.703C81.0092 218.885 91.5849 219.031 104.628 219.031C117.671 219.031 128.247 218.885 128.247 218.703C128.247 218.52 117.671 218.387 104.628 218.387C91.5849 218.387 81.0092 218.545 81.0092 218.703Z" fill="#FFCBC3"/>
<path d="M53.9379 195.218H61.9365V212.078H53.9379V195.218Z" fill="#FFE3DF"/>
<path d="M33.3467 218.703C33.3467 218.885 43.9223 219.031 56.9656 219.031C70.0089 219.031 80.5967 218.885 80.5967 218.703C80.5967 218.52 70.021 218.387 56.9656 218.387C43.9101 218.387 33.3467 218.545 33.3467 218.703Z" fill="#ECA69B"/>
<path d="M53.9379 228.707H61.9365V245.567H53.9379V228.707Z" fill="#FFE3DF"/>
<path d="M33.3467 252.192C33.3467 252.362 43.9223 252.508 56.9656 252.508C70.0089 252.508 80.5967 252.362 80.5967 252.192C80.5967 252.022 70.021 251.864 56.9656 251.864C43.9101 251.864 33.3467 252.01 33.3467 252.192Z" fill="#ECA69B"/>
<path d="M53.9379 263.193H61.9365V280.054H53.9379V263.193Z" fill="#FFE3DF"/>
<path d="M33.3467 286.679C33.3467 286.861 43.9223 287.007 56.9656 287.007C70.0089 287.007 80.5967 286.861 80.5967 286.679C80.5967 286.496 70.021 286.363 56.9656 286.363C43.9101 286.363 33.3467 286.508 33.3467 286.679Z" fill="#ECA69B"/>
<path d="M53.9379 297.692H61.9365V314.552H53.9379V297.692Z" fill="#FFE3DF"/>
<path d="M33.3467 321.177C33.3467 321.359 43.9223 321.493 56.9656 321.493C70.0089 321.493 80.5967 321.359 80.5967 321.177C80.5967 320.994 70.021 320.849 56.9656 320.849C43.9101 320.849 33.3467 320.994 33.3467 321.177Z" fill="#ECA69B"/>
<path d="M53.9379 331.193H61.9365V348.054H53.9379V331.193Z" fill="#FFE3DF"/>
<path d="M33.3467 354.691C33.3467 354.873 43.9223 355.019 56.9656 355.019C70.0089 355.019 80.5967 354.873 80.5967 354.691C80.5967 354.508 70.021 354.375 56.9656 354.375C43.9101 354.375 33.3467 354.508 33.3467 354.691Z" fill="#ECA69B"/>
<path d="M53.9379 364.841H61.9365V381.701H53.9379V364.841Z" fill="#FFE3DF"/>
<path d="M53.9379 398.926H61.9365V415.787H53.9379V398.926Z" fill="#FFE3DF"/>
<path d="M33.3467 388.326C33.3467 388.496 43.9223 388.642 56.9656 388.642C70.0089 388.642 80.5967 388.496 80.5967 388.326C80.5967 388.156 70.021 387.998 56.9656 387.998C43.9101 387.998 33.3467 388.144 33.3467 388.326Z" fill="#ECA69B"/>
<path d="M101.602 229.218H109.601V246.078H101.602V229.218Z" fill="#FFE3DF"/>
<path d="M81.0092 252.703C81.0092 252.873 91.5849 253.019 104.628 253.019C117.671 253.019 128.247 252.873 128.247 252.703C128.247 252.533 117.671 252.375 104.628 252.375C91.5849 252.375 81.0092 252.581 81.0092 252.703Z" fill="#FFCBC3"/>
<path d="M101.602 263.206H109.601V280.066H101.602V263.206Z" fill="#FFE3DF"/>
<path d="M81.0092 286.691C81.0092 286.873 91.5849 287.019 104.628 287.019C117.671 287.019 128.247 286.873 128.247 286.691C128.247 286.508 117.671 286.375 104.628 286.375C91.5849 286.375 81.0092 286.52 81.0092 286.691Z" fill="#FFCBC3"/>
<path d="M101.602 297.206H109.601V314.066H101.602V297.206Z" fill="#FFE3DF"/>
<path d="M81.0092 320.654C81.0092 320.825 91.5849 320.97 104.628 320.97C117.671 320.97 128.247 320.825 128.247 320.654C128.247 320.484 117.671 320.326 104.628 320.326C91.5849 320.326 81.0092 320.508 81.0092 320.654Z" fill="#FFCBC3"/>
<path d="M101.602 331.193H109.601V348.054H101.602V331.193Z" fill="#FFE3DF"/>
<path d="M81.0092 354.691C81.0092 354.873 91.5849 355.019 104.628 355.019C117.671 355.019 128.247 354.873 128.247 354.691C128.247 354.508 117.671 354.375 104.628 354.375C91.5849 354.375 81.0092 354.508 81.0092 354.691Z" fill="#FFCBC3"/>
<path d="M101.602 365.194H109.601V382.054H101.602V365.194Z" fill="#FFE3DF"/>
<path d="M81.0092 388.727C81.0092 388.898 91.5849 389.043 104.628 389.043C117.671 389.043 128.247 388.898 128.247 388.727C128.247 388.557 117.671 388.399 104.628 388.399C91.5849 388.399 81.0092 388.496 81.0092 388.727Z" fill="#FFCBC3"/>
<path d="M101.602 399.182H109.601V416.042H101.602V399.182Z" fill="#FFE3DF"/>
<path d="M118.939 429.513H276.747L277.439 180.098H119.619L118.939 429.513Z" fill="#ECA69B"/>
<path d="M119.631 180.11H198.535V429.513H119.631V180.11Z" fill="#FFCBC3"/>
<path d="M203.689 131H259.412V180.098H203.689V131Z" fill="#ECA69B"/>
<path d="M203.689 131H216.976V180.098H203.689V131Z" fill="#FFCBC3"/>
<path d="M115 177.241H290.58V180.11H115V177.241Z" fill="#FFCBC3"/>
<path d="M232.924 201.517H246.283V229.682H232.924V201.517Z" fill="#FFE3DF"/>
<path d="M198.524 240.744C198.524 241.036 216.186 241.279 237.97 241.279C259.753 241.279 277.428 241.036 277.428 240.744C277.428 240.452 259.765 240.197 237.97 240.197C216.174 240.197 198.524 240.44 198.524 240.744Z" fill="#FFCBC3"/>
<path d="M153.328 201.517H166.688V229.682H153.328V201.517Z" fill="#FFE3DF"/>
<path d="M118.939 240.744C118.939 241.036 136.601 241.279 158.385 241.279C180.168 241.279 197.843 241.036 197.843 240.744C197.843 240.452 180.18 240.197 158.385 240.197C136.589 240.197 118.939 240.44 118.939 240.744Z" fill="#ECA69B"/>
<path d="M153.328 257.434H166.688V285.599H153.328V257.434Z" fill="#FFE3DF"/>
<path d="M118.939 296.661C118.939 296.953 136.601 297.196 158.385 297.196C180.168 297.196 197.843 296.953 197.843 296.661C197.843 296.369 180.18 296.126 158.385 296.126C136.589 296.126 118.939 296.357 118.939 296.661Z" fill="#ECA69B"/>
<path d="M153.328 315.053H166.688V343.218H153.328V315.053Z" fill="#FFE3DF"/>
<path d="M118.939 354.268C118.939 354.56 136.601 354.803 158.385 354.803C180.168 354.803 197.843 354.56 197.843 354.268C197.843 353.976 180.18 353.733 158.385 353.733C136.589 353.733 118.939 353.976 118.939 354.268Z" fill="#ECA69B"/>
<path d="M153.328 372.66H166.688V400.825H153.328V372.66Z" fill="#FFE3DF"/>
<path d="M118.939 411.875C118.939 412.178 136.601 412.409 158.385 412.409C180.168 412.409 197.843 412.178 197.843 411.875C197.843 411.571 180.18 411.315 158.409 411.315C136.638 411.315 118.939 411.583 118.939 411.875Z" fill="#ECA69B"/>
<path d="M232.924 258.297H246.283V286.462H232.924V258.297Z" fill="#FFE3DF"/>
<path d="M198.524 297.512C198.524 297.816 216.186 298.047 237.97 298.047C259.753 298.047 277.428 297.816 277.428 297.512C277.428 297.208 259.765 296.977 237.97 296.977C216.174 296.977 198.524 297.22 198.524 297.512Z" fill="#FFCBC3"/>
<path d="M232.924 315.065H246.283V343.23H232.924V315.065Z" fill="#FFE3DF"/>
<path d="M198.524 354.292C198.524 354.584 216.186 354.827 237.97 354.827C259.753 354.827 277.428 354.584 277.428 354.292C277.428 354 259.765 353.745 237.97 353.745C216.174 353.745 198.524 353.988 198.524 354.292Z" fill="#FFCBC3"/>
<path d="M232.924 371.845H246.283V400.01H232.924V371.845Z" fill="#FFE3DF"/>
<path d="M198.524 411.06C198.524 411.364 216.186 411.595 237.97 411.595C259.753 411.595 277.428 411.364 277.428 411.06C277.428 410.756 259.765 410.525 237.97 410.525C216.174 410.525 198.524 410.769 198.524 411.06Z" fill="#FFCBC3"/>
<path d="M1217.14 90.3679H1324.38V430.247H1217.14V90.3679Z" fill="#FFCBC3"/>
<path d="M1217.14 90.3679H1270.76V429.311H1217.14V90.3679Z" fill="#ECA69B"/>
<path d="M1274.27 57H1312.13V90.368H1274.27V57Z" fill="#FFE3DF"/>
<path d="M1274.26 57H1283.29V90.368H1274.26V57Z" fill="#ECA69B"/>
<path d="M1333.32 90.368V88.4231H1214V90.368" fill="#FFCBC3"/>
<path d="M1294.13 104.918H1303.21V124.064H1294.13V104.918Z" fill="#ECA69B"/>
<path d="M1270.76 131.564C1270.76 131.771 1282.77 131.929 1297.57 131.929C1312.38 131.929 1324.38 131.771 1324.38 131.564C1324.38 131.358 1312.38 131.2 1297.57 131.2C1282.77 131.2 1270.76 131.37 1270.76 131.564Z" fill="#FFCBC3"/>
<path d="M1240.04 104.918H1249.12V124.064H1240.04V104.918Z" fill="#FFCBC3"/>
<path d="M1216.67 131.564C1216.67 131.771 1228.67 131.929 1243.42 131.929C1258.16 131.929 1270.23 131.771 1270.23 131.564C1270.23 131.358 1258.22 131.2 1243.42 131.2C1228.61 131.2 1216.67 131.37 1216.67 131.564Z" fill="#FFCBC3"/>
<path d="M1240.04 142.918H1249.12V162.064H1240.04V142.918Z" fill="#FFCBC3"/>
<path d="M1216.67 169.576C1216.67 169.77 1228.67 169.941 1243.42 169.941C1258.16 169.941 1270.23 169.77 1270.23 169.576C1270.23 169.381 1258.22 169.211 1243.42 169.211C1228.61 169.211 1216.67 169.369 1216.67 169.576Z" fill="#FFCBC3"/>
<path d="M1240.04 182.072H1249.12V201.218H1240.04V182.072Z" fill="#FFCBC3"/>
<path d="M1216.67 208.718C1216.67 208.925 1228.67 209.083 1243.42 209.083C1258.16 209.083 1270.23 208.925 1270.23 208.718C1270.23 208.511 1258.22 208.353 1243.42 208.353C1228.61 208.353 1216.67 208.523 1216.67 208.718Z" fill="#FFCBC3"/>
<path d="M1240.04 221.214H1249.12V240.36H1240.04V221.214Z" fill="#FFCBC3"/>
<path d="M1216.67 247.872C1216.67 248.066 1228.67 248.237 1243.42 248.237C1258.16 248.237 1270.23 248.066 1270.23 247.872C1270.23 247.678 1258.22 247.507 1243.42 247.507C1228.61 247.507 1216.67 247.665 1216.67 247.872Z" fill="#FFCBC3"/>
<path d="M1240.04 259.25H1249.12V278.396H1240.04V259.25Z" fill="#FFCBC3"/>
<path d="M1216.67 285.896C1216.67 286.102 1228.67 286.26 1243.42 286.26C1258.16 286.26 1270.23 286.102 1270.23 285.896C1270.23 285.689 1258.22 285.531 1243.42 285.531C1228.61 285.531 1216.67 285.701 1216.67 285.896Z" fill="#FFCBC3"/>
<path d="M1240.04 297.432H1249.12V316.577H1240.04V297.432Z" fill="#FFCBC3"/>
<path d="M1240.04 336.112H1249.12V355.257H1240.04V336.112Z" fill="#FFCBC3"/>
<path d="M1216.67 324.078C1216.67 324.284 1228.67 324.442 1243.42 324.442C1258.16 324.442 1270.23 324.284 1270.23 324.078C1270.23 323.871 1258.22 323.713 1243.42 323.713C1228.61 323.713 1216.67 323.883 1216.67 324.078Z" fill="#FFCBC3"/>
<path d="M1294.13 143.501H1303.21V162.647H1294.13V143.501Z" fill="#ECA69B"/>
<path d="M1270.76 170.147C1270.76 170.354 1282.77 170.512 1297.57 170.512C1312.38 170.512 1324.38 170.354 1324.38 170.147C1324.38 169.941 1312.38 169.782 1297.57 169.782C1282.77 169.782 1270.76 169.953 1270.76 170.147Z" fill="#FFCBC3"/>
<path d="M1294.13 182.084H1303.21V201.23H1294.13V182.084Z" fill="#ECA69B"/>
<path d="M1270.76 208.73C1270.76 208.937 1282.77 209.095 1297.57 209.095C1312.38 209.095 1324.38 208.937 1324.38 208.73C1324.38 208.524 1312.38 208.365 1297.57 208.365C1282.77 208.365 1270.76 208.536 1270.76 208.73Z" fill="#FFCBC3"/>
<path d="M1294.13 220.667H1303.21V239.813H1294.13V220.667Z" fill="#ECA69B"/>
<path d="M1270.76 247.313C1270.76 247.52 1282.77 247.678 1297.57 247.678C1312.38 247.678 1324.38 247.52 1324.38 247.313C1324.38 247.106 1312.38 246.948 1297.57 246.948C1282.77 246.948 1270.76 247.118 1270.76 247.313Z" fill="#FFCBC3"/>
<path d="M1294.13 259.25H1303.21V278.396H1294.13V259.25Z" fill="#ECA69B"/>
<path d="M1270.76 285.896C1270.76 286.102 1282.77 286.26 1297.57 286.26C1312.38 286.26 1324.38 286.102 1324.38 285.896C1324.38 285.689 1312.38 285.531 1297.57 285.531C1282.77 285.531 1270.76 285.701 1270.76 285.896Z" fill="#FFCBC3"/>
<path d="M1294.13 297.833H1303.21V316.979H1294.13V297.833Z" fill="#ECA69B"/>
<path d="M1270.76 324.455C1270.76 324.661 1282.77 324.819 1297.57 324.819C1312.38 324.819 1324.38 324.661 1324.38 324.455C1324.38 324.248 1312.38 324.09 1297.57 324.09C1282.77 324.09 1270.76 324.272 1270.76 324.455Z" fill="#FFCBC3"/>
<path d="M1294.13 336.404H1303.21V355.549H1294.13V336.404Z" fill="#ECA69B"/>
<path d="M317.137 90.3679H424.376V430.247H317.137V90.3679Z" fill="#FFCBC3"/>
<path d="M317.136 90.3679H370.756V429.311H317.136V90.3679Z" fill="#ECA69B"/>
<path d="M374.269 57H412.135V90.368H374.269V57Z" fill="#FFE3DF"/>
<path d="M374.257 57H383.289V90.368H374.257V57Z" fill="#ECA69B"/>
<path d="M433.322 90.368V88.4231H314V90.368" fill="#FFCBC3"/>
<path d="M394.132 104.918H403.213V124.064H394.132V104.918Z" fill="#ECA69B"/>
<path d="M370.756 131.564C370.756 131.771 382.766 131.929 397.572 131.929C412.378 131.929 424.376 131.771 424.376 131.564C424.376 131.358 412.378 131.2 397.572 131.2C382.766 131.2 370.756 131.37 370.756 131.564Z" fill="#FFCBC3"/>
<path d="M340.039 104.918H349.119V124.064H340.039V104.918Z" fill="#FFCBC3"/>
<path d="M316.674 131.564C316.674 131.771 328.672 131.929 343.417 131.929C358.163 131.929 370.233 131.771 370.233 131.564C370.233 131.358 358.223 131.2 343.417 131.2C328.612 131.2 316.674 131.37 316.674 131.564Z" fill="#FFCBC3"/>
<path d="M340.039 142.918H349.119V162.064H340.039V142.918Z" fill="#FFCBC3"/>
<path d="M316.674 169.576C316.674 169.77 328.672 169.941 343.417 169.941C358.163 169.941 370.233 169.77 370.233 169.576C370.233 169.381 358.223 169.211 343.417 169.211C328.612 169.211 316.674 169.369 316.674 169.576Z" fill="#FFCBC3"/>
<path d="M340.039 182.072H349.119V201.218H340.039V182.072Z" fill="#FFCBC3"/>
<path d="M316.674 208.718C316.674 208.925 328.672 209.083 343.417 209.083C358.163 209.083 370.233 208.925 370.233 208.718C370.233 208.511 358.223 208.353 343.417 208.353C328.612 208.353 316.674 208.523 316.674 208.718Z" fill="#FFCBC3"/>
<path d="M340.039 221.214H349.119V240.36H340.039V221.214Z" fill="#FFCBC3"/>
<path d="M316.674 247.872C316.674 248.066 328.672 248.237 343.417 248.237C358.163 248.237 370.233 248.066 370.233 247.872C370.233 247.678 358.223 247.507 343.417 247.507C328.612 247.507 316.674 247.665 316.674 247.872Z" fill="#FFCBC3"/>
<path d="M340.039 259.25H349.119V278.396H340.039V259.25Z" fill="#FFCBC3"/>
<path d="M316.674 285.896C316.674 286.102 328.672 286.26 343.417 286.26C358.163 286.26 370.233 286.102 370.233 285.896C370.233 285.689 358.223 285.531 343.417 285.531C328.612 285.531 316.674 285.701 316.674 285.896Z" fill="#FFCBC3"/>
<path d="M340.039 297.432H349.119V316.577H340.039V297.432Z" fill="#FFCBC3"/>
<path d="M340.039 336.112H349.119V355.257H340.039V336.112Z" fill="#FFCBC3"/>
<path d="M316.674 324.078C316.674 324.284 328.672 324.442 343.417 324.442C358.163 324.442 370.233 324.284 370.233 324.078C370.233 323.871 358.223 323.713 343.417 323.713C328.612 323.713 316.674 323.883 316.674 324.078Z" fill="#FFCBC3"/>
<path d="M394.132 143.501H403.213V162.647H394.132V143.501Z" fill="#ECA69B"/>
<path d="M370.756 170.147C370.756 170.354 382.766 170.512 397.572 170.512C412.378 170.512 424.376 170.354 424.376 170.147C424.376 169.941 412.378 169.782 397.572 169.782C382.766 169.782 370.756 169.953 370.756 170.147Z" fill="#FFCBC3"/>
<path d="M394.132 182.084H403.213V201.23H394.132V182.084Z" fill="#ECA69B"/>
<path d="M370.756 208.73C370.756 208.937 382.766 209.095 397.572 209.095C412.378 209.095 424.376 208.937 424.376 208.73C424.376 208.524 412.378 208.365 397.572 208.365C382.766 208.365 370.756 208.536 370.756 208.73Z" fill="#FFCBC3"/>
<path d="M394.132 220.667H403.213V239.813H394.132V220.667Z" fill="#ECA69B"/>
<path d="M370.756 247.313C370.756 247.52 382.766 247.678 397.572 247.678C412.378 247.678 424.376 247.52 424.376 247.313C424.376 247.106 412.378 246.948 397.572 246.948C382.766 246.948 370.756 247.118 370.756 247.313Z" fill="#FFCBC3"/>
<path d="M394.132 259.25H403.213V278.396H394.132V259.25Z" fill="#ECA69B"/>
<path d="M370.756 285.896C370.756 286.102 382.766 286.26 397.572 286.26C412.378 286.26 424.376 286.102 424.376 285.896C424.376 285.689 412.378 285.531 397.572 285.531C382.766 285.531 370.756 285.701 370.756 285.896Z" fill="#FFCBC3"/>
<path d="M394.132 297.833H403.213V316.979H394.132V297.833Z" fill="#ECA69B"/>
<path d="M370.756 324.455C370.756 324.661 382.766 324.819 397.572 324.819C412.378 324.819 424.376 324.661 424.376 324.455C424.376 324.248 412.378 324.09 397.572 324.09C382.766 324.09 370.756 324.272 370.756 324.455Z" fill="#FFCBC3"/>
<path d="M394.132 336.404H403.213V355.549H394.132V336.404Z" fill="#ECA69B"/>
<path d="M1081.77 223.418H1238.32V429.923H1081.77V223.418Z" fill="#ECA69B"/>
<path d="M1081.77 223.418H1155.18V429.923H1081.77V223.418Z" fill="#FFCBC3"/>
<path d="M1191.42 251.365H1205.5V285.56H1191.42V251.365Z" fill="#FFE3DF"/>
<path d="M1191.42 385.226H1205.5V419.433H1191.42V385.226Z" fill="#FFE3DF"/>
<path d="M1155.18 298.992C1155.18 299.381 1173.79 299.685 1196.75 299.685C1219.71 299.685 1238.32 299.381 1238.32 298.992C1238.32 298.603 1219.71 298.299 1196.75 298.299C1173.79 298.299 1155.18 298.615 1155.18 298.992Z" fill="#FFE3DF"/>
<path d="M1191.42 318.806H1205.5V353H1191.42V318.806Z" fill="#FFE3DF"/>
<path d="M1155.18 366.433C1155.18 366.81 1173.79 367.126 1196.75 367.126C1219.71 367.126 1238.32 366.81 1238.32 366.433C1238.32 366.056 1219.71 365.728 1196.75 365.728C1173.79 365.728 1155.18 366.044 1155.18 366.433Z" fill="#FFE3DF"/>
<path d="M1125.5 251.365H1139.58V285.56H1125.5V251.365Z" fill="#FFE3DF"/>
<path d="M1094.97 251.365H1109.04V285.56H1094.97V251.365Z" fill="#FFE3DF"/>
<path d="M1125.5 316.265H1139.58V350.46H1125.5V316.265Z" fill="#FFE3DF"/>
<path d="M1094.97 316.265H1109.04V350.46H1094.97V316.265Z" fill="#FFE3DF"/>
<path d="M1125.5 381.166H1139.58V415.36H1125.5V381.166Z" fill="#FFE3DF"/>
<path d="M1094.97 381.166H1109.04V415.36H1094.97V381.166Z" fill="#FFE3DF"/>
<path d="M1070 216.222H1250.1V223.674H1070V216.222Z" fill="#FFCBC3"/>
<path d="M1080.67 224.367C1080.67 224.756 1115.67 225.072 1158.82 225.072C1201.97 225.072 1236.97 224.756 1236.97 224.367C1236.97 223.978 1201.99 223.674 1158.82 223.674C1115.66 223.674 1080.67 223.99 1080.67 224.367Z" fill="#ECA69B"/>
<path d="M801.766 223.196H958.322V429.701H801.766V223.196Z" fill="#ECA69B"/>
<path d="M801.766 223.196H875.176V429.701H801.766V223.196Z" fill="#FFCBC3"/>
<path d="M911.424 251.143H925.501V285.337H911.424V251.143Z" fill="#FFE3DF"/>
<path d="M911.424 385.004H925.501V419.21H911.424V385.004Z" fill="#FFE3DF"/>
<path d="M875.176 298.77C875.176 299.159 893.787 299.462 916.749 299.462C939.712 299.462 958.322 299.159 958.322 298.77C958.322 298.381 939.712 298.077 916.749 298.077C893.787 298.077 875.176 298.393 875.176 298.77Z" fill="#FFE3DF"/>
<path d="M911.424 318.584H925.501V352.778H911.424V318.584Z" fill="#FFE3DF"/>
<path d="M875.176 366.211C875.176 366.588 893.787 366.904 916.749 366.904C939.712 366.904 958.322 366.588 958.322 366.211C958.322 365.834 939.712 365.506 916.749 365.506C893.787 365.506 875.176 365.822 875.176 366.211Z" fill="#FFE3DF"/>
<path d="M845.503 251.143H859.579V285.337H845.503V251.143Z" fill="#FFE3DF"/>
<path d="M814.967 251.143H829.044V285.337H814.967V251.143Z" fill="#FFE3DF"/>
<path d="M845.503 316.043H859.579V350.238H845.503V316.043Z" fill="#FFE3DF"/>
<path d="M814.967 316.043H829.044V350.238H814.967V316.043Z" fill="#FFE3DF"/>
<path d="M845.503 380.944H859.579V415.138H845.503V380.944Z" fill="#FFE3DF"/>
<path d="M814.967 380.944H829.044V415.138H814.967V380.944Z" fill="#FFE3DF"/>
<path d="M790 216H970.102V223.452H790V216Z" fill="#FFCBC3"/>
<path d="M800.671 224.145C800.671 224.534 835.668 224.85 878.821 224.85C921.975 224.85 956.972 224.534 956.972 224.145C956.972 223.756 921.987 223.452 878.821 223.452C835.656 223.452 800.671 223.768 800.671 224.145Z" fill="#ECA69B"/>
<path d="M899.759 182.405H994.247V429.729H899.759V182.405Z" fill="#ECA69B"/>
<path d="M899.759 182.405H947.009V429.729H899.759V182.405Z" fill="#FFCBC3"/>
<path d="M950.098 153H983.466V182.393H950.098V153Z" fill="#ECA69B"/>
<path d="M950.097 153H958.047V182.393H950.097V153Z" fill="#FFCBC3"/>
<path d="M897 180.691H1002.12V182.405H897V180.691Z" fill="#FFCBC3"/>
<path d="M967.602 195.218H975.601V212.078H967.602V195.218Z" fill="#FFE3DF"/>
<path d="M947.009 218.703C947.009 218.885 957.585 219.031 970.628 219.031C983.671 219.031 994.247 218.885 994.247 218.703C994.247 218.52 983.671 218.387 970.628 218.387C957.585 218.387 947.009 218.545 947.009 218.703Z" fill="#FFCBC3"/>
<path d="M919.938 195.218H927.937V212.078H919.938V195.218Z" fill="#FFE3DF"/>
<path d="M899.347 218.703C899.347 218.885 909.922 219.031 922.966 219.031C936.009 219.031 946.597 218.885 946.597 218.703C946.597 218.52 936.021 218.387 922.966 218.387C909.91 218.387 899.347 218.545 899.347 218.703Z" fill="#ECA69B"/>
<path d="M919.938 228.707H927.937V245.567H919.938V228.707Z" fill="#FFE3DF"/>
<path d="M899.347 252.192C899.347 252.362 909.922 252.508 922.966 252.508C936.009 252.508 946.597 252.362 946.597 252.192C946.597 252.022 936.021 251.864 922.966 251.864C909.91 251.864 899.347 252.01 899.347 252.192Z" fill="#ECA69B"/>
<path d="M919.938 263.193H927.937V280.054H919.938V263.193Z" fill="#FFE3DF"/>
<path d="M899.347 286.679C899.347 286.861 909.922 287.007 922.966 287.007C936.009 287.007 946.597 286.861 946.597 286.679C946.597 286.496 936.021 286.363 922.966 286.363C909.91 286.363 899.347 286.508 899.347 286.679Z" fill="#ECA69B"/>
<path d="M919.938 297.692H927.937V314.552H919.938V297.692Z" fill="#FFE3DF"/>
<path d="M899.347 321.177C899.347 321.359 909.922 321.493 922.966 321.493C936.009 321.493 946.597 321.359 946.597 321.177C946.597 320.994 936.021 320.849 922.966 320.849C909.91 320.849 899.347 320.994 899.347 321.177Z" fill="#ECA69B"/>
<path d="M919.938 331.193H927.937V348.054H919.938V331.193Z" fill="#FFE3DF"/>
<path d="M899.347 354.691C899.347 354.873 909.922 355.019 922.966 355.019C936.009 355.019 946.597 354.873 946.597 354.691C946.597 354.508 936.021 354.375 922.966 354.375C909.91 354.375 899.347 354.508 899.347 354.691Z" fill="#ECA69B"/>
<path d="M919.938 364.841H927.937V381.701H919.938V364.841Z" fill="#FFE3DF"/>
<path d="M919.938 398.926H927.937V415.787H919.938V398.926Z" fill="#FFE3DF"/>
<path d="M899.347 388.326C899.347 388.496 909.922 388.642 922.966 388.642C936.009 388.642 946.597 388.496 946.597 388.326C946.597 388.156 936.021 387.998 922.966 387.998C909.91 387.998 899.347 388.144 899.347 388.326Z" fill="#ECA69B"/>
<path d="M967.602 229.218H975.601V246.078H967.602V229.218Z" fill="#FFE3DF"/>
<path d="M947.009 252.703C947.009 252.873 957.585 253.019 970.628 253.019C983.671 253.019 994.247 252.873 994.247 252.703C994.247 252.533 983.671 252.375 970.628 252.375C957.585 252.375 947.009 252.581 947.009 252.703Z" fill="#FFCBC3"/>
<path d="M967.602 263.206H975.601V280.066H967.602V263.206Z" fill="#FFE3DF"/>
<path d="M947.009 286.691C947.009 286.873 957.585 287.019 970.628 287.019C983.671 287.019 994.247 286.873 994.247 286.691C994.247 286.508 983.671 286.375 970.628 286.375C957.585 286.375 947.009 286.52 947.009 286.691Z" fill="#FFCBC3"/>
<path d="M967.602 297.206H975.601V314.066H967.602V297.206Z" fill="#FFE3DF"/>
<path d="M947.009 320.654C947.009 320.825 957.585 320.97 970.628 320.97C983.671 320.97 994.247 320.825 994.247 320.654C994.247 320.484 983.671 320.326 970.628 320.326C957.585 320.326 947.009 320.508 947.009 320.654Z" fill="#FFCBC3"/>
<path d="M967.602 331.193H975.601V348.054H967.602V331.193Z" fill="#FFE3DF"/>
<path d="M947.009 354.691C947.009 354.873 957.585 355.019 970.628 355.019C983.671 355.019 994.247 354.873 994.247 354.691C994.247 354.508 983.671 354.375 970.628 354.375C957.585 354.375 947.009 354.508 947.009 354.691Z" fill="#FFCBC3"/>
<path d="M967.602 365.194H975.601V382.054H967.602V365.194Z" fill="#FFE3DF"/>
<path d="M947.009 388.727C947.009 388.898 957.585 389.043 970.628 389.043C983.671 389.043 994.247 388.898 994.247 388.727C994.247 388.557 983.671 388.399 970.628 388.399C957.585 388.399 947.009 388.496 947.009 388.727Z" fill="#FFCBC3"/>
<path d="M967.602 399.182H975.601V416.042H967.602V399.182Z" fill="#FFE3DF"/>
<path d="M493.305 223.378H649.861V429.882H493.305V223.378Z" fill="#ECA69B"/>
<path d="M493.305 223.378H566.715V429.882H493.305V223.378Z" fill="#FFCBC3"/>
<path d="M602.964 251.324H617.041V285.519H602.964V251.324Z" fill="#FFE3DF"/>
<path d="M602.964 385.185H617.041V419.392H602.964V385.185Z" fill="#FFE3DF"/>
<path d="M566.715 298.951C566.715 299.34 585.326 299.644 608.288 299.644C631.251 299.644 649.861 299.34 649.861 298.951C649.861 298.562 631.251 298.258 608.288 298.258C585.326 298.258 566.715 298.574 566.715 298.951Z" fill="#FFE3DF"/>
<path d="M602.964 318.765H617.041V352.96H602.964V318.765Z" fill="#FFE3DF"/>
<path d="M566.715 366.392C566.715 366.769 585.326 367.085 608.288 367.085C631.251 367.085 649.861 366.769 649.861 366.392C649.861 366.015 631.251 365.687 608.288 365.687C585.326 365.687 566.715 366.003 566.715 366.392Z" fill="#FFE3DF"/>
<path d="M537.042 251.324H551.118V285.519H537.042V251.324Z" fill="#FFE3DF"/>
<path d="M506.506 251.324H520.583V285.519H506.506V251.324Z" fill="#FFE3DF"/>
<path d="M537.042 316.224H551.118V350.419H537.042V316.224Z" fill="#FFE3DF"/>
<path d="M506.506 316.224H520.583V350.419H506.506V316.224Z" fill="#FFE3DF"/>
<path d="M537.042 381.125H551.118V415.319H537.042V381.125Z" fill="#FFE3DF"/>
<path d="M506.506 381.125H520.583V415.319H506.506V381.125Z" fill="#FFE3DF"/>
<path d="M481.54 216.181H661.642V223.633H481.54V216.181Z" fill="#FFCBC3"/>
<path d="M492.212 224.326C492.212 224.715 527.209 225.031 570.362 225.031C613.516 225.031 648.513 224.715 648.513 224.326C648.513 223.937 613.528 223.633 570.362 223.633C527.197 223.633 492.212 223.949 492.212 224.326Z" fill="#ECA69B"/>
<path d="M634.939 429.513H792.747L793.439 180.098H635.619L634.939 429.513Z" fill="#ECA69B"/>
<path d="M635.631 180.11H714.535V429.513H635.631V180.11Z" fill="#FFCBC3"/>
<path d="M719.689 131H775.412V180.098H719.689V131Z" fill="#ECA69B"/>
<path d="M719.689 131H732.976V180.098H719.689V131Z" fill="#FFCBC3"/>
<path d="M631 177.241H806.58V180.11H631V177.241Z" fill="#FFCBC3"/>
<path d="M748.924 201.516H762.283V229.682H748.924V201.516Z" fill="#FFE3DF"/>
<path d="M714.524 240.744C714.524 241.035 732.186 241.278 753.97 241.278C775.753 241.278 793.428 241.035 793.428 240.744C793.428 240.452 775.765 240.197 753.97 240.197C732.174 240.197 714.524 240.44 714.524 240.744Z" fill="#FFCBC3"/>
<path d="M669.328 201.516H682.688V229.682H669.328V201.516Z" fill="#FFE3DF"/>
<path d="M634.939 240.744C634.939 241.035 652.601 241.278 674.385 241.278C696.168 241.278 713.843 241.035 713.843 240.744C713.843 240.452 696.18 240.197 674.385 240.197C652.589 240.197 634.939 240.44 634.939 240.744Z" fill="#ECA69B"/>
<path d="M669.328 257.434H682.688V285.599H669.328V257.434Z" fill="#FFE3DF"/>
<path d="M634.939 296.661C634.939 296.953 652.601 297.196 674.385 297.196C696.168 297.196 713.843 296.953 713.843 296.661C713.843 296.369 696.18 296.126 674.385 296.126C652.589 296.126 634.939 296.357 634.939 296.661Z" fill="#ECA69B"/>
<path d="M669.328 315.053H682.688V343.218H669.328V315.053Z" fill="#FFE3DF"/>
<path d="M634.939 354.268C634.939 354.56 652.601 354.803 674.385 354.803C696.168 354.803 713.843 354.56 713.843 354.268C713.843 353.976 696.18 353.733 674.385 353.733C652.589 353.733 634.939 353.976 634.939 354.268Z" fill="#ECA69B"/>
<path d="M669.328 372.66H682.688V400.825H669.328V372.66Z" fill="#FFE3DF"/>
<path d="M634.939 411.875C634.939 412.178 652.601 412.409 674.385 412.409C696.168 412.409 713.843 412.178 713.843 411.875C713.843 411.571 696.18 411.315 674.409 411.315C652.638 411.315 634.939 411.583 634.939 411.875Z" fill="#ECA69B"/>
<path d="M748.924 258.297H762.283V286.462H748.924V258.297Z" fill="#FFE3DF"/>
<path d="M714.524 297.512C714.524 297.816 732.186 298.047 753.97 298.047C775.753 298.047 793.428 297.816 793.428 297.512C793.428 297.208 775.765 296.977 753.97 296.977C732.174 296.977 714.524 297.22 714.524 297.512Z" fill="#FFCBC3"/>
<path d="M748.924 315.065H762.283V343.23H748.924V315.065Z" fill="#FFE3DF"/>
<path d="M714.524 354.292C714.524 354.584 732.186 354.827 753.97 354.827C775.753 354.827 793.428 354.584 793.428 354.292C793.428 354 775.765 353.745 753.97 353.745C732.174 353.745 714.524 353.988 714.524 354.292Z" fill="#FFCBC3"/>
<path d="M748.924 371.845H762.283V400.01H748.924V371.845Z" fill="#FFE3DF"/>
<path d="M363.759 182.405H458.247V429.729H363.759V182.405Z" fill="#ECA69B"/>
<path d="M363.759 182.405H411.009V429.729H363.759V182.405Z" fill="#FFCBC3"/>
<path d="M414.097 153H447.465V182.393H414.097V153Z" fill="#ECA69B"/>
<path d="M414.097 153H422.047V182.393H414.097V153Z" fill="#FFCBC3"/>
<path d="M361 180.691H466.124V182.405H361V180.691Z" fill="#FFCBC3"/>
<path d="M431.601 195.218H439.6V212.078H431.601V195.218Z" fill="#FFE3DF"/>
<path d="M411.009 218.703C411.009 218.885 421.585 219.031 434.628 219.031C447.671 219.031 458.247 218.885 458.247 218.703C458.247 218.52 447.671 218.387 434.628 218.387C421.585 218.387 411.009 218.545 411.009 218.703Z" fill="#FFCBC3"/>
<path d="M383.938 195.218H391.937V212.078H383.938V195.218Z" fill="#FFE3DF"/>
<path d="M363.347 218.703C363.347 218.885 373.922 219.031 386.966 219.031C400.009 219.031 410.597 218.885 410.597 218.703C410.597 218.52 400.021 218.387 386.966 218.387C373.91 218.387 363.347 218.545 363.347 218.703Z" fill="#ECA69B"/>
<path d="M383.938 228.707H391.937V245.567H383.938V228.707Z" fill="#FFE3DF"/>
<path d="M363.347 252.192C363.347 252.362 373.922 252.508 386.966 252.508C400.009 252.508 410.597 252.362 410.597 252.192C410.597 252.022 400.021 251.864 386.966 251.864C373.91 251.864 363.347 252.01 363.347 252.192Z" fill="#ECA69B"/>
<path d="M383.938 263.193H391.937V280.054H383.938V263.193Z" fill="#FFE3DF"/>
<path d="M363.347 286.679C363.347 286.861 373.922 287.007 386.966 287.007C400.009 287.007 410.597 286.861 410.597 286.679C410.597 286.496 400.021 286.363 386.966 286.363C373.91 286.363 363.347 286.508 363.347 286.679Z" fill="#ECA69B"/>
<path d="M383.938 297.692H391.937V314.552H383.938V297.692Z" fill="#FFE3DF"/>
<path d="M363.347 321.177C363.347 321.359 373.922 321.493 386.966 321.493C400.009 321.493 410.597 321.359 410.597 321.177C410.597 320.995 400.021 320.849 386.966 320.849C373.91 320.849 363.347 320.995 363.347 321.177Z" fill="#ECA69B"/>
<path d="M383.938 331.193H391.937V348.054H383.938V331.193Z" fill="#FFE3DF"/>
<path d="M363.347 354.691C363.347 354.873 373.922 355.019 386.966 355.019C400.009 355.019 410.597 354.873 410.597 354.691C410.597 354.508 400.021 354.375 386.966 354.375C373.91 354.375 363.347 354.508 363.347 354.691Z" fill="#ECA69B"/>
<path d="M383.938 364.841H391.937V381.701H383.938V364.841Z" fill="#FFE3DF"/>
<path d="M383.938 398.926H391.937V415.787H383.938V398.926Z" fill="#FFE3DF"/>
<path d="M363.347 388.326C363.347 388.496 373.922 388.642 386.966 388.642C400.009 388.642 410.597 388.496 410.597 388.326C410.597 388.156 400.021 387.998 386.966 387.998C373.91 387.998 363.347 388.144 363.347 388.326Z" fill="#ECA69B"/>
<path d="M431.601 229.218H439.6V246.078H431.601V229.218Z" fill="#FFE3DF"/>
<path d="M411.009 252.703C411.009 252.873 421.585 253.019 434.628 253.019C447.671 253.019 458.247 252.873 458.247 252.703C458.247 252.533 447.671 252.375 434.628 252.375C421.585 252.375 411.009 252.581 411.009 252.703Z" fill="#FFCBC3"/>
<path d="M431.601 263.206H439.6V280.066H431.601V263.206Z" fill="#FFE3DF"/>
<path d="M411.009 286.691C411.009 286.873 421.585 287.019 434.628 287.019C447.671 287.019 458.247 286.873 458.247 286.691C458.247 286.508 447.671 286.375 434.628 286.375C421.585 286.375 411.009 286.52 411.009 286.691Z" fill="#FFCBC3"/>
<path d="M431.601 297.206H439.6V314.066H431.601V297.206Z" fill="#FFE3DF"/>
<path d="M411.009 320.654C411.009 320.825 421.585 320.97 434.628 320.97C447.671 320.97 458.247 320.825 458.247 320.654C458.247 320.484 447.671 320.326 434.628 320.326C421.585 320.326 411.009 320.508 411.009 320.654Z" fill="#FFCBC3"/>
<path d="M431.601 331.193H439.6V348.054H431.601V331.193Z" fill="#FFE3DF"/>
<path d="M411.009 354.691C411.009 354.873 421.585 355.019 434.628 355.019C447.671 355.019 458.247 354.873 458.247 354.691C458.247 354.508 447.671 354.375 434.628 354.375C421.585 354.375 411.009 354.508 411.009 354.691Z" fill="#FFCBC3"/>
<path d="M431.601 365.194H439.6V382.054H431.601V365.194Z" fill="#FFE3DF"/>
<path d="M411.009 388.727C411.009 388.898 421.585 389.043 434.628 389.043C447.671 389.043 458.247 388.898 458.247 388.727C458.247 388.557 447.671 388.399 434.628 388.399C421.585 388.399 411.009 388.496 411.009 388.727Z" fill="#FFCBC3"/>
<path d="M431.601 399.181H439.6V416.042H431.601V399.181Z" fill="#FFE3DF"/>
<path d="M1091.65 21.5404C1091.08 17.3588 1096.96 13.9308 1101.37 13.5783C1103.49 13.4081 1105.68 13.7241 1107.68 13.0313C1112.01 11.5239 1113.76 5.92005 1117.97 4.14528C1121.13 2.80813 1124.76 3.99941 1127.83 5.54322C1130.89 7.08702 1133.9 9.01981 1137.33 9.18999C1140.31 9.38448 1143.54 8.27829 1146.14 9.72484C1148.09 10.8189 1149.11 13.0556 1150.9 14.3684C1152.76 15.5184 1154.91 16.1014 1157.1 16.0459C1159.27 15.9972 1161.44 16.3516 1163.49 17.0913C1165.47 18.003 1167.14 20.0938 1166.69 22.2211L1091.65 21.5404Z" fill="#ECA69B"/>
<path d="M1065.17 143.634C1064.6 139.465 1070.5 136.037 1074.9 135.672C1077 135.502 1079.19 135.83 1081.19 135.137C1085.52 133.618 1087.27 128.026 1091.48 126.251C1094.64 124.914 1098.27 126.093 1101.34 127.637C1104.4 129.181 1107.42 131.126 1110.86 131.284C1113.82 131.466 1117.05 130.372 1119.66 131.819C1121.6 132.901 1122.62 135.137 1124.41 136.462C1126.27 137.606 1128.42 138.188 1130.61 138.14C1132.79 138.09 1134.95 138.444 1137 139.185C1138.98 140.097 1140.65 142.188 1140.21 144.315L1065.17 143.634Z" fill="#ECA69B"/>
<path d="M622.857 32.4321C622.273 28.2627 628.169 24.8347 632.582 24.47C634.685 24.312 636.885 24.628 638.878 23.9352C643.206 22.4278 644.956 16.824 649.162 15.0492C652.323 13.712 655.957 14.9033 659.021 16.435C662.084 17.9666 665.099 19.9237 668.539 20.0817C671.517 20.2762 674.738 19.17 677.352 20.6166C679.285 21.6985 680.306 23.9352 682.093 25.2602C683.953 26.4089 686.107 26.9917 688.292 26.9377C690.47 26.8878 692.638 27.2423 694.686 27.9831C696.668 28.8948 698.333 30.9856 697.895 33.1129L622.857 32.4321Z" fill="#ECA69B"/>
<path d="M964.388 91.8624C963.33 84.2407 974.112 77.9682 982.172 77.2753C986.025 76.9593 990.024 77.5549 993.683 76.2785C1001.58 73.5191 1004.75 63.296 1012.46 60.0504C1018.24 57.6192 1024.88 59.783 1030.48 62.591C1036.08 65.399 1041.6 68.9485 1047.85 69.3497C1053.28 69.7022 1059.19 67.6843 1063.94 70.3465C1067.48 72.3157 1069.34 76.4244 1072.61 78.8556C1075.88 81.2868 1079.98 81.7122 1083.94 81.9189C1087.9 82.1255 1092.01 82.1742 1095.62 83.8274C1099.23 85.4806 1102.22 89.2975 1101.47 93.1996L964.388 91.8624Z" fill="#ECA69B"/>
<path d="M896.607 1.82331C897.017 1.75445 897.423 1.66109 897.822 1.54373C898.961 1.29836 900.133 1.25311 901.287 1.41001C902.96 1.64578 904.536 2.33524 905.845 3.40358C907.442 4.71576 908.569 6.51214 909.055 8.52122L909.249 9.27489L909.541 8.55768C910.323 6.64723 911.666 5.0194 913.394 3.88982C914.802 2.96963 916.421 2.42174 918.099 2.2974C919.661 2.21248 921.226 2.41013 922.718 2.88087C922.342 2.64766 921.932 2.47536 921.502 2.37033C920.383 2.01662 919.209 1.86836 918.038 1.93271C916.283 2.00804 914.579 2.54928 913.102 3.50083C911.275 4.66142 909.852 6.36023 909.03 8.36319H909.516C909 6.28416 907.818 4.43126 906.149 3.08752C904.982 2.18019 903.62 1.55636 902.171 1.26525C900.722 0.974135 899.225 1.02369 897.798 1.41001C897.381 1.48165 896.979 1.62127 896.607 1.82331Z" fill="#ECA69B"/>
<path d="M849.576 54.3248C849.576 54.3248 850.463 54.0088 852.092 53.6563C854.399 53.1473 856.778 53.0526 859.118 53.3767C862.59 53.8415 865.867 55.2548 868.588 57.4611C871.913 60.1752 874.261 63.9017 875.273 68.0732V68.1947L875.468 68.9484L875.76 68.2677C877.377 64.2893 880.167 60.8974 883.758 58.543C886.67 56.6475 890.017 55.5262 893.483 55.2852C895.828 55.1154 898.186 55.3331 900.46 55.9294C902.077 56.3549 902.892 56.7317 902.892 56.6831C902.704 56.5538 902.5 56.4515 902.284 56.3792C901.688 56.1313 901.08 55.9162 900.46 55.7349C897.614 54.91 894.624 54.7002 891.69 55.1194C888.756 55.5385 885.944 56.5771 883.442 58.1661C879.757 60.5321 876.888 63.9737 875.225 68.0246H875.711V67.903C874.686 63.6214 872.265 59.8025 868.831 57.0478C866.494 55.1896 863.762 53.8941 860.844 53.2617C857.927 52.6294 854.903 52.677 852.007 53.401C851.374 53.5518 850.753 53.7468 850.147 53.9845C849.942 54.0719 849.75 54.1864 849.576 54.3248Z" fill="#ECA69B"/>
<path d="M755.306 24.0568C755.306 24.0568 755.805 23.9109 756.704 23.7285C757.969 23.4712 759.268 23.4342 760.545 23.6191C762.438 23.8785 764.222 24.6568 765.7 25.868C767.511 27.3449 768.791 29.372 769.346 31.642L769.541 32.4079L769.82 31.6907C770.714 29.5385 772.229 27.7017 774.172 26.415C775.767 25.3757 777.598 24.7568 779.497 24.6159C780.782 24.5176 782.074 24.6243 783.326 24.932C784.201 25.1508 784.675 25.3453 784.699 25.3088C784.724 25.2723 784.59 25.2237 784.371 25.1265C784.048 24.9752 783.715 24.8453 783.374 24.7375C782.112 24.3491 780.791 24.1885 779.472 24.2634C777.498 24.3525 775.582 24.9604 773.917 26.026C771.868 27.3343 770.276 29.2453 769.358 31.4962H769.833C769.268 29.1006 767.92 26.9618 766.004 25.4182C764.697 24.3937 763.169 23.6897 761.541 23.3625C759.914 23.0352 758.232 23.094 756.631 23.534C756.282 23.6224 755.94 23.7404 755.61 23.8866C755.416 23.9838 755.294 24.0324 755.306 24.0568Z" fill="#ECA69B"/>
<path d="M825.265 0C825.265 0 825.751 0.559175 826.614 1.53165C827.833 2.92111 828.935 4.40923 829.908 5.98072C833.128 11.1815 834.814 17.1861 834.771 23.3029V23.5217H835.281C835.775 20.2321 836.845 17.0554 838.442 14.1373C840.625 10.1343 843.709 6.69292 847.449 4.08439C848.519 3.34288 849.139 2.96605 849.115 2.92958C848.947 2.98496 848.787 3.06265 848.64 3.16054C848.194 3.38836 847.76 3.63994 847.34 3.91421C845.782 4.91216 844.331 6.06913 843.012 7.36649C838.607 11.7015 835.717 17.3412 834.771 23.4488H835.281V23.2907C835.327 17.0785 833.552 10.9889 830.176 5.77406C829.178 4.21431 828.034 2.75306 826.76 1.41009C826.322 0.923854 825.921 0.595641 825.678 0.352523C825.555 0.21866 825.416 0.100279 825.265 0Z" fill="#ECA69B"/>
</g>
<rect x="-1" y="428" width="1366" height="167" fill="#C7C7C7"/>
<rect x="-1" y="447" width="1366" height="10" fill="white"/>
<rect x="-1" y="565" width="1366" height="10" fill="white"/>
<rect x="14" y="506" width="40" height="10" fill="white"/>
<rect x="94" y="506" width="40" height="10" fill="white"/>
<rect x="174" y="506" width="40" height="10" fill="white"/>
<rect x="253" y="506" width="40" height="10" fill="white"/>
<rect x="331" y="506" width="40" height="10" fill="white"/>
<rect x="411" y="506" width="40" height="10" fill="white"/>
<rect x="491" y="506" width="40" height="10" fill="white"/>
<rect x="571" y="506" width="40" height="10" fill="white"/>
<rect x="651" y="506" width="40" height="10" fill="white"/>
<rect x="731" y="506" width="40" height="10" fill="white"/>
<rect x="811" y="506" width="40" height="10" fill="white"/>
<rect x="891" y="506" width="40" height="10" fill="white"/>
<rect x="971" y="506" width="40" height="10" fill="white"/>
<rect x="1051" y="506" width="40" height="10" fill="white"/>
<rect x="1131" y="506" width="40" height="10" fill="white"/>
<rect x="1211" y="506" width="40" height="10" fill="white"/>
<rect x="1291" y="506" width="40" height="10" fill="white"/>
</svg>
