<svg width="1366" height="655" viewBox="0 0 1366 655" fill="none" xmlns="http://www.w3.org/2000/svg">
<g opacity="0.3">
<path d="M34.7592 242.405H129.247V489.729H34.7592V242.405Z" fill="#A5C08B"/>
<path d="M34.7588 242.405H82.0088V489.729H34.7588V242.405Z" fill="#D1E8BA"/>
<path d="M85.0979 213H118.466V242.393H85.0979V213Z" fill="#A5C08B"/>
<path d="M85.0969 213H93.0469V242.393H85.0969V213Z" fill="#D1E8BA"/>
<path d="M31.9997 240.691H137.124V242.405H31.9997V240.691Z" fill="#D1E8BA"/>
<path d="M102.602 255.218H110.601V272.078H102.602V255.218Z" fill="#FFE3DF"/>
<path d="M82.0092 278.703C82.0092 278.885 92.5848 279.031 105.628 279.031C118.671 279.031 129.247 278.885 129.247 278.703C129.247 278.52 118.671 278.387 105.628 278.387C92.5848 278.387 82.0092 278.545 82.0092 278.703Z" fill="#D1E8BA"/>
<path d="M54.9379 255.218H62.9365V272.078H54.9379V255.218Z" fill="#E6FBE1"/>
<path d="M34.3467 278.703C34.3467 278.885 44.9223 279.031 57.9656 279.031C71.0089 279.031 81.5967 278.885 81.5967 278.703C81.5967 278.52 71.021 278.387 57.9656 278.387C44.9101 278.387 34.3467 278.545 34.3467 278.703Z" fill="#A5C08B"/>
<path d="M54.9379 288.707H62.9365V305.567H54.9379V288.707Z" fill="#E6FBE1"/>
<path d="M34.3467 312.192C34.3467 312.362 44.9223 312.508 57.9656 312.508C71.0089 312.508 81.5967 312.362 81.5967 312.192C81.5967 312.022 71.021 311.864 57.9656 311.864C44.9101 311.864 34.3467 312.01 34.3467 312.192Z" fill="#A5C08B"/>
<path d="M54.9379 323.193H62.9365V340.054H54.9379V323.193Z" fill="#E6FBE1"/>
<path d="M34.3467 346.679C34.3467 346.861 44.9223 347.007 57.9656 347.007C71.0089 347.007 81.5967 346.861 81.5967 346.679C81.5967 346.496 71.021 346.363 57.9656 346.363C44.9101 346.363 34.3467 346.508 34.3467 346.679Z" fill="#A5C08B"/>
<path d="M54.9379 357.692H62.9365V374.552H54.9379V357.692Z" fill="#E6FBE1"/>
<path d="M34.3467 381.177C34.3467 381.359 44.9223 381.493 57.9656 381.493C71.0089 381.493 81.5967 381.359 81.5967 381.177C81.5967 380.995 71.021 380.849 57.9656 380.849C44.9101 380.849 34.3467 380.995 34.3467 381.177Z" fill="#A5C08B"/>
<path d="M54.9379 391.193H62.9365V408.054H54.9379V391.193Z" fill="#E6FBE1"/>
<path d="M34.3467 414.691C34.3467 414.873 44.9223 415.019 57.9656 415.019C71.0089 415.019 81.5967 414.873 81.5967 414.691C81.5967 414.508 71.021 414.375 57.9656 414.375C44.9101 414.375 34.3467 414.508 34.3467 414.691Z" fill="#A5C08B"/>
<path d="M54.9379 424.841H62.9365V441.701H54.9379V424.841Z" fill="#E6FBE1"/>
<path d="M54.9379 458.926H62.9365V475.787H54.9379V458.926Z" fill="#E6FBE1"/>
<path d="M34.3467 448.326C34.3467 448.497 44.9223 448.642 57.9656 448.642C71.0089 448.642 81.5967 448.497 81.5967 448.326C81.5967 448.156 71.021 447.998 57.9656 447.998C44.9101 447.998 34.3467 448.144 34.3467 448.326Z" fill="#A5C08B"/>
<path d="M102.602 289.218H110.601V306.078H102.602V289.218Z" fill="#FFE3DF"/>
<path d="M82.0092 312.703C82.0092 312.873 92.5848 313.019 105.628 313.019C118.671 313.019 129.247 312.873 129.247 312.703C129.247 312.533 118.671 312.375 105.628 312.375C92.5848 312.375 82.0092 312.581 82.0092 312.703Z" fill="#D1E8BA"/>
<path d="M102.602 323.205H110.601V340.066H102.602V323.205Z" fill="#FFE3DF"/>
<path d="M82.0092 346.691C82.0092 346.873 92.5848 347.019 105.628 347.019C118.671 347.019 129.247 346.873 129.247 346.691C129.247 346.508 118.671 346.375 105.628 346.375C92.5848 346.375 82.0092 346.521 82.0092 346.691Z" fill="#D1E8BA"/>
<path d="M102.602 357.206H110.601V374.066H102.602V357.206Z" fill="#FFE3DF"/>
<path d="M82.0092 380.654C82.0092 380.825 92.5848 380.97 105.628 380.97C118.671 380.97 129.247 380.825 129.247 380.654C129.247 380.484 118.671 380.326 105.628 380.326C92.5848 380.326 82.0092 380.508 82.0092 380.654Z" fill="#D1E8BA"/>
<path d="M102.602 391.193H110.601V408.054H102.602V391.193Z" fill="#FFE3DF"/>
<path d="M82.0092 414.691C82.0092 414.873 92.5848 415.019 105.628 415.019C118.671 415.019 129.247 414.873 129.247 414.691C129.247 414.508 118.671 414.375 105.628 414.375C92.5848 414.375 82.0092 414.508 82.0092 414.691Z" fill="#D1E8BA"/>
<path d="M102.602 425.194H110.601V442.054H102.602V425.194Z" fill="#FFE3DF"/>
<path d="M82.0092 448.727C82.0092 448.898 92.5848 449.043 105.628 449.043C118.671 449.043 129.247 448.898 129.247 448.727C129.247 448.557 118.671 448.399 105.628 448.399C92.5848 448.399 82.0092 448.496 82.0092 448.727Z" fill="#D1E8BA"/>
<path d="M102.602 459.182H110.601V476.042H102.602V459.182Z" fill="#FFE3DF"/>
<path d="M119.939 489.513H277.747L278.439 240.098H120.619L119.939 489.513Z" fill="#A5C08B"/>
<path d="M120.631 240.11H199.535V489.513H120.631V240.11Z" fill="#D1E8BA"/>
<path d="M204.689 191H260.412V240.098H204.689V191Z" fill="#A5C08B"/>
<path d="M204.689 191H217.976V240.098H204.689V191Z" fill="#D1E8BA"/>
<path d="M116 237.241H291.58V240.11H116V237.241Z" fill="#D1E8BA"/>
<path d="M233.924 261.516H247.283V289.682H233.924V261.516Z" fill="#E6FBE1"/>
<path d="M199.524 300.744C199.524 301.035 217.186 301.279 238.97 301.279C260.753 301.279 278.428 301.035 278.428 300.744C278.428 300.452 260.765 300.197 238.97 300.197C217.174 300.197 199.524 300.44 199.524 300.744Z" fill="#D1E8BA"/>
<path d="M154.328 261.516H167.688V289.682H154.328V261.516Z" fill="#E6FBE1"/>
<path d="M119.939 300.744C119.939 301.035 137.601 301.279 159.385 301.279C181.168 301.279 198.843 301.035 198.843 300.744C198.843 300.452 181.18 300.197 159.385 300.197C137.589 300.197 119.939 300.44 119.939 300.744Z" fill="#A5C08B"/>
<path d="M154.328 317.434H167.688V345.599H154.328V317.434Z" fill="#E6FBE1"/>
<path d="M119.939 356.661C119.939 356.953 137.601 357.196 159.385 357.196C181.168 357.196 198.843 356.953 198.843 356.661C198.843 356.369 181.18 356.126 159.385 356.126C137.589 356.126 119.939 356.357 119.939 356.661Z" fill="#A5C08B"/>
<path d="M154.328 375.053H167.688V403.218H154.328V375.053Z" fill="#E6FBE1"/>
<path d="M119.939 414.268C119.939 414.559 137.601 414.803 159.385 414.803C181.168 414.803 198.843 414.559 198.843 414.268C198.843 413.976 181.18 413.733 159.385 413.733C137.589 413.733 119.939 413.976 119.939 414.268Z" fill="#A5C08B"/>
<path d="M154.328 432.66H167.688V460.825H154.328V432.66Z" fill="#E6FBE1"/>
<path d="M119.939 471.875C119.939 472.178 137.601 472.409 159.385 472.409C181.168 472.409 198.843 472.178 198.843 471.875C198.843 471.571 181.18 471.315 159.409 471.315C137.638 471.315 119.939 471.583 119.939 471.875Z" fill="#A5C08B"/>
<path d="M233.924 318.297H247.283V346.462H233.924V318.297Z" fill="#E6FBE1"/>
<path d="M199.524 357.512C199.524 357.816 217.186 358.047 238.97 358.047C260.753 358.047 278.428 357.816 278.428 357.512C278.428 357.208 260.765 356.977 238.97 356.977C217.174 356.977 199.524 357.22 199.524 357.512Z" fill="#D1E8BA"/>
<path d="M233.924 375.065H247.283V403.23H233.924V375.065Z" fill="#E6FBE1"/>
<path d="M199.524 414.292C199.524 414.584 217.186 414.827 238.97 414.827C260.753 414.827 278.428 414.584 278.428 414.292C278.428 414 260.765 413.745 238.97 413.745C217.174 413.745 199.524 413.988 199.524 414.292Z" fill="#D1E8BA"/>
<path d="M233.924 431.845H247.283V460.01H233.924V431.845Z" fill="#E6FBE1"/>
<path d="M199.524 471.06C199.524 471.364 217.186 471.595 238.97 471.595C260.753 471.595 278.428 471.364 278.428 471.06C278.428 470.756 260.765 470.525 238.97 470.525C217.174 470.525 199.524 470.769 199.524 471.06Z" fill="#D1E8BA"/>
<path d="M1218.14 150.368H1325.38V490.247H1218.14V150.368Z" fill="#D3E9C7"/>
<path d="M1218.14 150.368H1271.76V489.311H1218.14V150.368Z" fill="#A5C08B"/>
<path d="M1275.27 117H1313.13V150.368H1275.27V117Z" fill="#E6FBE1"/>
<path d="M1275.26 117H1284.29V150.368H1275.26V117Z" fill="#A5C08B"/>
<path d="M1334.32 150.368V148.423H1215V150.368" fill="#D1E8BA"/>
<path d="M1295.13 164.919H1304.21V184.064H1295.13V164.919Z" fill="#A5C08B"/>
<path d="M1271.76 191.564C1271.76 191.771 1283.77 191.929 1298.57 191.929C1313.38 191.929 1325.38 191.771 1325.38 191.564C1325.38 191.358 1313.38 191.2 1298.57 191.2C1283.77 191.2 1271.76 191.37 1271.76 191.564Z" fill="#D1E8BA"/>
<path d="M1241.04 164.919H1250.12V184.064H1241.04V164.919Z" fill="#D1E8BA"/>
<path d="M1217.67 191.564C1217.67 191.771 1229.67 191.929 1244.42 191.929C1259.16 191.929 1271.23 191.771 1271.23 191.564C1271.23 191.358 1259.22 191.2 1244.42 191.2C1229.61 191.2 1217.67 191.37 1217.67 191.564Z" fill="#D1E8BA"/>
<path d="M1241.04 202.918H1250.12V222.064H1241.04V202.918Z" fill="#D1E8BA"/>
<path d="M1217.67 229.576C1217.67 229.77 1229.67 229.941 1244.42 229.941C1259.16 229.941 1271.23 229.77 1271.23 229.576C1271.23 229.381 1259.22 229.211 1244.42 229.211C1229.61 229.211 1217.67 229.369 1217.67 229.576Z" fill="#D1E8BA"/>
<path d="M1241.04 242.072H1250.12V261.218H1241.04V242.072Z" fill="#D1E8BA"/>
<path d="M1217.67 268.718C1217.67 268.924 1229.67 269.082 1244.42 269.082C1259.16 269.082 1271.23 268.924 1271.23 268.718C1271.23 268.511 1259.22 268.353 1244.42 268.353C1229.61 268.353 1217.67 268.523 1217.67 268.718Z" fill="#D1E8BA"/>
<path d="M1241.04 281.214H1250.12V300.36H1241.04V281.214Z" fill="#D1E8BA"/>
<path d="M1217.67 307.872C1217.67 308.067 1229.67 308.237 1244.42 308.237C1259.16 308.237 1271.23 308.067 1271.23 307.872C1271.23 307.678 1259.22 307.507 1244.42 307.507C1229.61 307.507 1217.67 307.665 1217.67 307.872Z" fill="#D1E8BA"/>
<path d="M1241.04 319.25H1250.12V338.396H1241.04V319.25Z" fill="#D1E8BA"/>
<path d="M1217.67 345.896C1217.67 346.102 1229.67 346.26 1244.42 346.26C1259.16 346.26 1271.23 346.102 1271.23 345.896C1271.23 345.689 1259.22 345.531 1244.42 345.531C1229.61 345.531 1217.67 345.701 1217.67 345.896Z" fill="#D1E8BA"/>
<path d="M1241.04 357.432H1250.12V376.577H1241.04V357.432Z" fill="#D1E8BA"/>
<path d="M1241.04 396.112H1250.12V415.257H1241.04V396.112Z" fill="#D1E8BA"/>
<path d="M1217.67 384.078C1217.67 384.284 1229.67 384.442 1244.42 384.442C1259.16 384.442 1271.23 384.284 1271.23 384.078C1271.23 383.871 1259.22 383.713 1244.42 383.713C1229.61 383.713 1217.67 383.883 1217.67 384.078Z" fill="#D1E8BA"/>
<path d="M1295.13 203.501H1304.21V222.647H1295.13V203.501Z" fill="#A5C08B"/>
<path d="M1271.76 230.147C1271.76 230.354 1283.77 230.512 1298.57 230.512C1313.38 230.512 1325.38 230.354 1325.38 230.147C1325.38 229.941 1313.38 229.782 1298.57 229.782C1283.77 229.782 1271.76 229.953 1271.76 230.147Z" fill="#D1E8BA"/>
<path d="M1295.13 242.084H1304.21V261.23H1295.13V242.084Z" fill="#A5C08B"/>
<path d="M1271.76 268.73C1271.76 268.937 1283.77 269.095 1298.57 269.095C1313.38 269.095 1325.38 268.937 1325.38 268.73C1325.38 268.523 1313.38 268.365 1298.57 268.365C1283.77 268.365 1271.76 268.536 1271.76 268.73Z" fill="#D1E8BA"/>
<path d="M1295.13 280.667H1304.21V299.813H1295.13V280.667Z" fill="#A5C08B"/>
<path d="M1271.76 307.313C1271.76 307.52 1283.77 307.678 1298.57 307.678C1313.38 307.678 1325.38 307.52 1325.38 307.313C1325.38 307.106 1313.38 306.948 1298.57 306.948C1283.77 306.948 1271.76 307.118 1271.76 307.313Z" fill="#D1E8BA"/>
<path d="M1295.13 319.25H1304.21V338.396H1295.13V319.25Z" fill="#A5C08B"/>
<path d="M1271.76 345.896C1271.76 346.102 1283.77 346.26 1298.57 346.26C1313.38 346.26 1325.38 346.102 1325.38 345.896C1325.38 345.689 1313.38 345.531 1298.57 345.531C1283.77 345.531 1271.76 345.701 1271.76 345.896Z" fill="#D1E8BA"/>
<path d="M1295.13 357.833H1304.21V376.979H1295.13V357.833Z" fill="#A5C08B"/>
<path d="M1271.76 384.454C1271.76 384.661 1283.77 384.819 1298.57 384.819C1313.38 384.819 1325.38 384.661 1325.38 384.454C1325.38 384.248 1313.38 384.09 1298.57 384.09C1283.77 384.09 1271.76 384.272 1271.76 384.454Z" fill="#D1E8BA"/>
<path d="M1295.13 396.404H1304.21V415.549H1295.13V396.404Z" fill="#A5C08B"/>
<path d="M318.137 150.368H425.376V490.247H318.137V150.368Z" fill="#D3E9C7"/>
<path d="M318.136 150.368H371.756V489.311H318.136V150.368Z" fill="#A5C08B"/>
<path d="M375.269 117H413.135V150.368H375.269V117Z" fill="#E6FBE1"/>
<path d="M375.257 117H384.289V150.368H375.257V117Z" fill="#A5C08B"/>
<path d="M434.322 150.368V148.423H315V150.368" fill="#D1E8BA"/>
<path d="M395.132 164.919H404.213V184.064H395.132V164.919Z" fill="#A5C08B"/>
<path d="M371.756 191.564C371.756 191.771 383.766 191.929 398.572 191.929C413.378 191.929 425.376 191.771 425.376 191.564C425.376 191.358 413.378 191.2 398.572 191.2C383.766 191.2 371.756 191.37 371.756 191.564Z" fill="#D1E8BA"/>
<path d="M341.039 164.919H350.119V184.064H341.039V164.919Z" fill="#D1E8BA"/>
<path d="M317.674 191.564C317.674 191.771 329.672 191.929 344.417 191.929C359.163 191.929 371.233 191.771 371.233 191.564C371.233 191.358 359.223 191.2 344.417 191.2C329.612 191.2 317.674 191.37 317.674 191.564Z" fill="#D1E8BA"/>
<path d="M341.039 202.918H350.119V222.064H341.039V202.918Z" fill="#D1E8BA"/>
<path d="M317.674 229.576C317.674 229.77 329.672 229.941 344.417 229.941C359.163 229.941 371.233 229.77 371.233 229.576C371.233 229.381 359.223 229.211 344.417 229.211C329.612 229.211 317.674 229.369 317.674 229.576Z" fill="#D1E8BA"/>
<path d="M341.039 242.072H350.119V261.218H341.039V242.072Z" fill="#D1E8BA"/>
<path d="M317.674 268.718C317.674 268.924 329.672 269.082 344.417 269.082C359.163 269.082 371.233 268.924 371.233 268.718C371.233 268.511 359.223 268.353 344.417 268.353C329.612 268.353 317.674 268.523 317.674 268.718Z" fill="#D1E8BA"/>
<path d="M341.039 281.214H350.119V300.36H341.039V281.214Z" fill="#D1E8BA"/>
<path d="M317.674 307.872C317.674 308.067 329.672 308.237 344.417 308.237C359.163 308.237 371.233 308.067 371.233 307.872C371.233 307.678 359.223 307.507 344.417 307.507C329.612 307.507 317.674 307.665 317.674 307.872Z" fill="#D1E8BA"/>
<path d="M341.039 319.25H350.119V338.396H341.039V319.25Z" fill="#D1E8BA"/>
<path d="M317.674 345.896C317.674 346.102 329.672 346.26 344.417 346.26C359.163 346.26 371.233 346.102 371.233 345.896C371.233 345.689 359.223 345.531 344.417 345.531C329.612 345.531 317.674 345.701 317.674 345.896Z" fill="#D1E8BA"/>
<path d="M341.039 357.432H350.119V376.577H341.039V357.432Z" fill="#D1E8BA"/>
<path d="M341.039 396.112H350.119V415.257H341.039V396.112Z" fill="#D1E8BA"/>
<path d="M317.674 384.078C317.674 384.284 329.672 384.442 344.417 384.442C359.163 384.442 371.233 384.284 371.233 384.078C371.233 383.871 359.223 383.713 344.417 383.713C329.612 383.713 317.674 383.883 317.674 384.078Z" fill="#D1E8BA"/>
<path d="M395.132 203.501H404.213V222.647H395.132V203.501Z" fill="#A5C08B"/>
<path d="M371.756 230.147C371.756 230.354 383.766 230.512 398.572 230.512C413.378 230.512 425.376 230.354 425.376 230.147C425.376 229.941 413.378 229.782 398.572 229.782C383.766 229.782 371.756 229.953 371.756 230.147Z" fill="#D1E8BA"/>
<path d="M395.132 242.084H404.213V261.23H395.132V242.084Z" fill="#A5C08B"/>
<path d="M371.756 268.73C371.756 268.937 383.766 269.095 398.572 269.095C413.378 269.095 425.376 268.937 425.376 268.73C425.376 268.523 413.378 268.365 398.572 268.365C383.766 268.365 371.756 268.536 371.756 268.73Z" fill="#D1E8BA"/>
<path d="M395.132 280.667H404.213V299.813H395.132V280.667Z" fill="#A5C08B"/>
<path d="M371.756 307.313C371.756 307.52 383.766 307.678 398.572 307.678C413.378 307.678 425.376 307.52 425.376 307.313C425.376 307.106 413.378 306.948 398.572 306.948C383.766 306.948 371.756 307.118 371.756 307.313Z" fill="#D1E8BA"/>
<path d="M395.132 319.25H404.213V338.396H395.132V319.25Z" fill="#A5C08B"/>
<path d="M371.756 345.896C371.756 346.102 383.766 346.26 398.572 346.26C413.378 346.26 425.376 346.102 425.376 345.896C425.376 345.689 413.378 345.531 398.572 345.531C383.766 345.531 371.756 345.701 371.756 345.896Z" fill="#D1E8BA"/>
<path d="M395.132 357.833H404.213V376.979H395.132V357.833Z" fill="#A5C08B"/>
<path d="M371.756 384.454C371.756 384.661 383.766 384.819 398.572 384.819C413.378 384.819 425.376 384.661 425.376 384.454C425.376 384.248 413.378 384.09 398.572 384.09C383.766 384.09 371.756 384.272 371.756 384.454Z" fill="#D1E8BA"/>
<path d="M395.132 396.404H404.213V415.549H395.132V396.404Z" fill="#A5C08B"/>
<path d="M1082.77 283.418H1239.32V489.923H1082.77V283.418Z" fill="#A5C08B"/>
<path d="M1082.77 283.418H1156.18V489.923H1082.77V283.418Z" fill="#D1E8BA"/>
<path d="M1192.42 311.365H1206.5V345.559H1192.42V311.365Z" fill="#E6FBE1"/>
<path d="M1192.42 445.226H1206.5V479.432H1192.42V445.226Z" fill="#E6FBE1"/>
<path d="M1156.18 358.992C1156.18 359.381 1174.79 359.685 1197.75 359.685C1220.71 359.685 1239.32 359.381 1239.32 358.992C1239.32 358.603 1220.71 358.299 1197.75 358.299C1174.79 358.299 1156.18 358.615 1156.18 358.992Z" fill="#E6FBE1"/>
<path d="M1192.42 378.806H1206.5V413H1192.42V378.806Z" fill="#E6FBE1"/>
<path d="M1156.18 426.433C1156.18 426.81 1174.79 427.126 1197.75 427.126C1220.71 427.126 1239.32 426.81 1239.32 426.433C1239.32 426.056 1220.71 425.728 1197.75 425.728C1174.79 425.728 1156.18 426.044 1156.18 426.433Z" fill="#E6FBE1"/>
<path d="M1126.5 311.365H1140.58V345.559H1126.5V311.365Z" fill="#E6FBE1"/>
<path d="M1095.97 311.365H1110.04V345.559H1095.97V311.365Z" fill="#E6FBE1"/>
<path d="M1126.5 376.265H1140.58V410.46H1126.5V376.265Z" fill="#E6FBE1"/>
<path d="M1095.97 376.265H1110.04V410.46H1095.97V376.265Z" fill="#E6FBE1"/>
<path d="M1126.5 441.166H1140.58V475.36H1126.5V441.166Z" fill="#E6FBE1"/>
<path d="M1095.97 441.166H1110.04V475.36H1095.97V441.166Z" fill="#E6FBE1"/>
<path d="M1071 276.222H1251.1V283.674H1071V276.222Z" fill="#D1E8BA"/>
<path d="M1081.67 284.367C1081.67 284.756 1116.67 285.072 1159.82 285.072C1202.97 285.072 1237.97 284.756 1237.97 284.367C1237.97 283.978 1202.99 283.674 1159.82 283.674C1116.66 283.674 1081.67 283.99 1081.67 284.367Z" fill="#A5C08B"/>
<path d="M802.766 283.196H959.322V489.701H802.766V283.196Z" fill="#A5C08B"/>
<path d="M802.766 283.196H876.176V489.701H802.766V283.196Z" fill="#D1E8BA"/>
<path d="M912.424 311.143H926.501V345.337H912.424V311.143Z" fill="#E6FBE1"/>
<path d="M912.424 445.004H926.501V479.21H912.424V445.004Z" fill="#E6FBE1"/>
<path d="M876.176 358.77C876.176 359.159 894.787 359.463 917.749 359.463C940.712 359.463 959.322 359.159 959.322 358.77C959.322 358.381 940.712 358.077 917.749 358.077C894.787 358.077 876.176 358.393 876.176 358.77Z" fill="#E6FBE1"/>
<path d="M912.424 378.584H926.501V412.778H912.424V378.584Z" fill="#E6FBE1"/>
<path d="M876.176 426.211C876.176 426.588 894.787 426.904 917.749 426.904C940.712 426.904 959.322 426.588 959.322 426.211C959.322 425.834 940.712 425.506 917.749 425.506C894.787 425.506 876.176 425.822 876.176 426.211Z" fill="#E6FBE1"/>
<path d="M846.503 311.143H860.579V345.337H846.503V311.143Z" fill="#E6FBE1"/>
<path d="M815.967 311.143H830.044V345.337H815.967V311.143Z" fill="#E6FBE1"/>
<path d="M846.503 376.043H860.579V410.238H846.503V376.043Z" fill="#E6FBE1"/>
<path d="M815.967 376.043H830.044V410.238H815.967V376.043Z" fill="#E6FBE1"/>
<path d="M846.503 440.944H860.579V475.138H846.503V440.944Z" fill="#E6FBE1"/>
<path d="M815.967 440.944H830.044V475.138H815.967V440.944Z" fill="#E6FBE1"/>
<path d="M791 276H971.102V283.452H791V276Z" fill="#D1E8BA"/>
<path d="M801.671 284.145C801.671 284.534 836.668 284.85 879.821 284.85C922.975 284.85 957.972 284.534 957.972 284.145C957.972 283.756 922.987 283.452 879.821 283.452C836.656 283.452 801.671 283.768 801.671 284.145Z" fill="#A5C08B"/>
<path d="M900.759 242.405H995.247V489.729H900.759V242.405Z" fill="#A5C08B"/>
<path d="M900.759 242.405H948.009V489.729H900.759V242.405Z" fill="#D1E8BA"/>
<path d="M951.098 213H984.466V242.393H951.098V213Z" fill="#A5C08B"/>
<path d="M951.097 213H959.047V242.393H951.097V213Z" fill="#D1E8BA"/>
<path d="M898 240.691H1003.12V242.405H898V240.691Z" fill="#D1E8BA"/>
<path d="M968.602 255.218H976.601V272.078H968.602V255.218Z" fill="#FFE3DF"/>
<path d="M948.009 278.703C948.009 278.885 958.585 279.031 971.628 279.031C984.671 279.031 995.247 278.885 995.247 278.703C995.247 278.52 984.671 278.387 971.628 278.387C958.585 278.387 948.009 278.545 948.009 278.703Z" fill="#D1E8BA"/>
<path d="M920.938 255.218H928.937V272.078H920.938V255.218Z" fill="#E6FBE1"/>
<path d="M900.347 278.703C900.347 278.885 910.922 279.031 923.966 279.031C937.009 279.031 947.597 278.885 947.597 278.703C947.597 278.52 937.021 278.387 923.966 278.387C910.91 278.387 900.347 278.545 900.347 278.703Z" fill="#A5C08B"/>
<path d="M920.938 288.707H928.937V305.567H920.938V288.707Z" fill="#E6FBE1"/>
<path d="M900.347 312.192C900.347 312.362 910.922 312.508 923.966 312.508C937.009 312.508 947.597 312.362 947.597 312.192C947.597 312.022 937.021 311.864 923.966 311.864C910.91 311.864 900.347 312.01 900.347 312.192Z" fill="#A5C08B"/>
<path d="M920.938 323.193H928.937V340.054H920.938V323.193Z" fill="#E6FBE1"/>
<path d="M900.347 346.679C900.347 346.861 910.922 347.007 923.966 347.007C937.009 347.007 947.597 346.861 947.597 346.679C947.597 346.496 937.021 346.363 923.966 346.363C910.91 346.363 900.347 346.508 900.347 346.679Z" fill="#A5C08B"/>
<path d="M920.938 357.692H928.937V374.552H920.938V357.692Z" fill="#E6FBE1"/>
<path d="M900.347 381.177C900.347 381.359 910.922 381.493 923.966 381.493C937.009 381.493 947.597 381.359 947.597 381.177C947.597 380.995 937.021 380.849 923.966 380.849C910.91 380.849 900.347 380.995 900.347 381.177Z" fill="#A5C08B"/>
<path d="M920.938 391.193H928.937V408.054H920.938V391.193Z" fill="#E6FBE1"/>
<path d="M900.347 414.691C900.347 414.873 910.922 415.019 923.966 415.019C937.009 415.019 947.597 414.873 947.597 414.691C947.597 414.508 937.021 414.375 923.966 414.375C910.91 414.375 900.347 414.508 900.347 414.691Z" fill="#A5C08B"/>
<path d="M920.938 424.841H928.937V441.701H920.938V424.841Z" fill="#E6FBE1"/>
<path d="M920.938 458.926H928.937V475.787H920.938V458.926Z" fill="#E6FBE1"/>
<path d="M900.347 448.326C900.347 448.497 910.922 448.642 923.966 448.642C937.009 448.642 947.597 448.497 947.597 448.326C947.597 448.156 937.021 447.998 923.966 447.998C910.91 447.998 900.347 448.144 900.347 448.326Z" fill="#A5C08B"/>
<path d="M968.602 289.218H976.601V306.078H968.602V289.218Z" fill="#FFE3DF"/>
<path d="M948.009 312.703C948.009 312.873 958.585 313.019 971.628 313.019C984.671 313.019 995.247 312.873 995.247 312.703C995.247 312.533 984.671 312.375 971.628 312.375C958.585 312.375 948.009 312.581 948.009 312.703Z" fill="#D1E8BA"/>
<path d="M968.602 323.205H976.601V340.066H968.602V323.205Z" fill="#FFE3DF"/>
<path d="M948.009 346.691C948.009 346.873 958.585 347.019 971.628 347.019C984.671 347.019 995.247 346.873 995.247 346.691C995.247 346.508 984.671 346.375 971.628 346.375C958.585 346.375 948.009 346.521 948.009 346.691Z" fill="#D1E8BA"/>
<path d="M968.602 357.206H976.601V374.066H968.602V357.206Z" fill="#FFE3DF"/>
<path d="M948.009 380.654C948.009 380.825 958.585 380.97 971.628 380.97C984.671 380.97 995.247 380.825 995.247 380.654C995.247 380.484 984.671 380.326 971.628 380.326C958.585 380.326 948.009 380.508 948.009 380.654Z" fill="#D1E8BA"/>
<path d="M968.602 391.193H976.601V408.054H968.602V391.193Z" fill="#FFE3DF"/>
<path d="M948.009 414.691C948.009 414.873 958.585 415.019 971.628 415.019C984.671 415.019 995.247 414.873 995.247 414.691C995.247 414.508 984.671 414.375 971.628 414.375C958.585 414.375 948.009 414.508 948.009 414.691Z" fill="#D1E8BA"/>
<path d="M968.602 425.194H976.601V442.054H968.602V425.194Z" fill="#FFE3DF"/>
<path d="M948.009 448.727C948.009 448.898 958.585 449.043 971.628 449.043C984.671 449.043 995.247 448.898 995.247 448.727C995.247 448.557 984.671 448.399 971.628 448.399C958.585 448.399 948.009 448.496 948.009 448.727Z" fill="#D1E8BA"/>
<path d="M968.602 459.182H976.601V476.042H968.602V459.182Z" fill="#FFE3DF"/>
<path d="M494.305 283.378H650.861V489.882H494.305V283.378Z" fill="#A5C08B"/>
<path d="M494.305 283.378H567.715V489.882H494.305V283.378Z" fill="#D1E8BA"/>
<path d="M603.964 311.324H618.041V345.519H603.964V311.324Z" fill="#E6FBE1"/>
<path d="M603.964 445.185H618.041V479.392H603.964V445.185Z" fill="#E6FBE1"/>
<path d="M567.715 358.951C567.715 359.34 586.326 359.644 609.288 359.644C632.251 359.644 650.861 359.34 650.861 358.951C650.861 358.562 632.251 358.258 609.288 358.258C586.326 358.258 567.715 358.574 567.715 358.951Z" fill="#E6FBE1"/>
<path d="M603.964 378.765H618.041V412.96H603.964V378.765Z" fill="#E6FBE1"/>
<path d="M567.715 426.392C567.715 426.769 586.326 427.085 609.288 427.085C632.251 427.085 650.861 426.769 650.861 426.392C650.861 426.015 632.251 425.687 609.288 425.687C586.326 425.687 567.715 426.003 567.715 426.392Z" fill="#E6FBE1"/>
<path d="M538.042 311.324H552.118V345.519H538.042V311.324Z" fill="#E6FBE1"/>
<path d="M507.506 311.324H521.583V345.519H507.506V311.324Z" fill="#E6FBE1"/>
<path d="M538.042 376.224H552.118V410.419H538.042V376.224Z" fill="#E6FBE1"/>
<path d="M507.506 376.224H521.583V410.419H507.506V376.224Z" fill="#E6FBE1"/>
<path d="M538.042 441.125H552.118V475.319H538.042V441.125Z" fill="#E6FBE1"/>
<path d="M507.506 441.125H521.583V475.319H507.506V441.125Z" fill="#E6FBE1"/>
<path d="M482.54 276.181H662.642V283.633H482.54V276.181Z" fill="#D1E8BA"/>
<path d="M493.212 284.326C493.212 284.715 528.209 285.031 571.362 285.031C614.516 285.031 649.513 284.715 649.513 284.326C649.513 283.937 614.528 283.633 571.362 283.633C528.197 283.633 493.212 283.949 493.212 284.326Z" fill="#A5C08B"/>
<path d="M635.939 489.513H793.747L794.439 240.098H636.619L635.939 489.513Z" fill="#A5C08B"/>
<path d="M636.631 240.11H715.535V489.513H636.631V240.11Z" fill="#D1E8BA"/>
<path d="M720.689 191H776.412V240.098H720.689V191Z" fill="#A5C08B"/>
<path d="M720.689 191H733.976V240.098H720.689V191Z" fill="#D1E8BA"/>
<path d="M632 237.241H807.58V240.11H632V237.241Z" fill="#D1E8BA"/>
<path d="M749.924 261.516H763.283V289.682H749.924V261.516Z" fill="#E6FBE1"/>
<path d="M715.524 300.744C715.524 301.035 733.186 301.279 754.97 301.279C776.753 301.279 794.428 301.035 794.428 300.744C794.428 300.452 776.765 300.197 754.97 300.197C733.174 300.197 715.524 300.44 715.524 300.744Z" fill="#D1E8BA"/>
<path d="M670.328 261.516H683.688V289.682H670.328V261.516Z" fill="#E6FBE1"/>
<path d="M635.939 300.744C635.939 301.035 653.601 301.279 675.385 301.279C697.168 301.279 714.843 301.035 714.843 300.744C714.843 300.452 697.18 300.197 675.385 300.197C653.589 300.197 635.939 300.44 635.939 300.744Z" fill="#A5C08B"/>
<path d="M670.328 317.434H683.688V345.599H670.328V317.434Z" fill="#E6FBE1"/>
<path d="M635.939 356.661C635.939 356.953 653.601 357.196 675.385 357.196C697.168 357.196 714.843 356.953 714.843 356.661C714.843 356.369 697.18 356.126 675.385 356.126C653.589 356.126 635.939 356.357 635.939 356.661Z" fill="#A5C08B"/>
<path d="M670.328 375.053H683.688V403.218H670.328V375.053Z" fill="#E6FBE1"/>
<path d="M635.939 414.268C635.939 414.559 653.601 414.803 675.385 414.803C697.168 414.803 714.843 414.559 714.843 414.268C714.843 413.976 697.18 413.733 675.385 413.733C653.589 413.733 635.939 413.976 635.939 414.268Z" fill="#A5C08B"/>
<path d="M670.328 432.66H683.688V460.825H670.328V432.66Z" fill="#E6FBE1"/>
<path d="M635.939 471.874C635.939 472.178 653.601 472.409 675.385 472.409C697.168 472.409 714.843 472.178 714.843 471.874C714.843 471.571 697.18 471.315 675.409 471.315C653.638 471.315 635.939 471.583 635.939 471.874Z" fill="#A5C08B"/>
<path d="M749.924 318.297H763.283V346.462H749.924V318.297Z" fill="#E6FBE1"/>
<path d="M715.524 357.512C715.524 357.816 733.186 358.047 754.97 358.047C776.753 358.047 794.428 357.816 794.428 357.512C794.428 357.208 776.765 356.977 754.97 356.977C733.174 356.977 715.524 357.22 715.524 357.512Z" fill="#D1E8BA"/>
<path d="M749.924 375.065H763.283V403.23H749.924V375.065Z" fill="#E6FBE1"/>
<path d="M715.524 414.292C715.524 414.584 733.186 414.827 754.97 414.827C776.753 414.827 794.428 414.584 794.428 414.292C794.428 414 776.765 413.745 754.97 413.745C733.174 413.745 715.524 413.988 715.524 414.292Z" fill="#D1E8BA"/>
<path d="M749.924 431.845H763.283V460.01H749.924V431.845Z" fill="#E6FBE1"/>
<path d="M364.759 242.405H459.247V489.729H364.759V242.405Z" fill="#A5C08B"/>
<path d="M364.759 242.405H412.009V489.729H364.759V242.405Z" fill="#D1E8BA"/>
<path d="M415.097 213H448.465V242.393H415.097V213Z" fill="#A5C08B"/>
<path d="M415.097 213H423.047V242.393H415.097V213Z" fill="#D1E8BA"/>
<path d="M362 240.691H467.124V242.405H362V240.691Z" fill="#D1E8BA"/>
<path d="M432.601 255.218H440.6V272.078H432.601V255.218Z" fill="#E6FBE1"/>
<path d="M412.009 278.703C412.009 278.885 422.585 279.031 435.628 279.031C448.671 279.031 459.247 278.885 459.247 278.703C459.247 278.52 448.671 278.387 435.628 278.387C422.585 278.387 412.009 278.545 412.009 278.703Z" fill="#D1E8BA"/>
<path d="M384.938 255.218H392.937V272.078H384.938V255.218Z" fill="#E6FBE1"/>
<path d="M364.347 278.703C364.347 278.885 374.922 279.031 387.966 279.031C401.009 279.031 411.597 278.885 411.597 278.703C411.597 278.52 401.021 278.387 387.966 278.387C374.91 278.387 364.347 278.545 364.347 278.703Z" fill="#A5C08B"/>
<path d="M384.938 288.707H392.937V305.567H384.938V288.707Z" fill="#E6FBE1"/>
<path d="M364.347 312.192C364.347 312.362 374.922 312.508 387.966 312.508C401.009 312.508 411.597 312.362 411.597 312.192C411.597 312.022 401.021 311.864 387.966 311.864C374.91 311.864 364.347 312.01 364.347 312.192Z" fill="#A5C08B"/>
<path d="M384.938 323.193H392.937V340.054H384.938V323.193Z" fill="#E6FBE1"/>
<path d="M364.347 346.679C364.347 346.861 374.922 347.007 387.966 347.007C401.009 347.007 411.597 346.861 411.597 346.679C411.597 346.496 401.021 346.363 387.966 346.363C374.91 346.363 364.347 346.508 364.347 346.679Z" fill="#A5C08B"/>
<path d="M384.938 357.692H392.937V374.552H384.938V357.692Z" fill="#E6FBE1"/>
<path d="M364.347 381.177C364.347 381.359 374.922 381.493 387.966 381.493C401.009 381.493 411.597 381.359 411.597 381.177C411.597 380.995 401.021 380.849 387.966 380.849C374.91 380.849 364.347 380.995 364.347 381.177Z" fill="#A5C08B"/>
<path d="M384.938 391.193H392.937V408.054H384.938V391.193Z" fill="#E6FBE1"/>
<path d="M364.347 414.691C364.347 414.873 374.922 415.019 387.966 415.019C401.009 415.019 411.597 414.873 411.597 414.691C411.597 414.508 401.021 414.375 387.966 414.375C374.91 414.375 364.347 414.508 364.347 414.691Z" fill="#A5C08B"/>
<path d="M384.938 424.841H392.937V441.701H384.938V424.841Z" fill="#E6FBE1"/>
<path d="M384.938 458.926H392.937V475.787H384.938V458.926Z" fill="#E6FBE1"/>
<path d="M364.347 448.326C364.347 448.496 374.922 448.642 387.966 448.642C401.009 448.642 411.597 448.496 411.597 448.326C411.597 448.156 401.021 447.998 387.966 447.998C374.91 447.998 364.347 448.144 364.347 448.326Z" fill="#A5C08B"/>
<path d="M432.601 289.218H440.6V306.078H432.601V289.218Z" fill="#E6FBE1"/>
<path d="M412.009 312.703C412.009 312.873 422.585 313.019 435.628 313.019C448.671 313.019 459.247 312.873 459.247 312.703C459.247 312.533 448.671 312.375 435.628 312.375C422.585 312.375 412.009 312.581 412.009 312.703Z" fill="#D1E8BA"/>
<path d="M432.601 323.205H440.6V340.066H432.601V323.205Z" fill="#E6FBE1"/>
<path d="M412.009 346.691C412.009 346.873 422.585 347.019 435.628 347.019C448.671 347.019 459.247 346.873 459.247 346.691C459.247 346.508 448.671 346.375 435.628 346.375C422.585 346.375 412.009 346.521 412.009 346.691Z" fill="#D1E8BA"/>
<path d="M432.601 357.206H440.6V374.066H432.601V357.206Z" fill="#E6FBE1"/>
<path d="M412.009 380.654C412.009 380.825 422.585 380.97 435.628 380.97C448.671 380.97 459.247 380.825 459.247 380.654C459.247 380.484 448.671 380.326 435.628 380.326C422.585 380.326 412.009 380.508 412.009 380.654Z" fill="#D1E8BA"/>
<path d="M432.601 391.193H440.6V408.054H432.601V391.193Z" fill="#E6FBE1"/>
<path d="M412.009 414.691C412.009 414.873 422.585 415.019 435.628 415.019C448.671 415.019 459.247 414.873 459.247 414.691C459.247 414.508 448.671 414.375 435.628 414.375C422.585 414.375 412.009 414.508 412.009 414.691Z" fill="#D1E8BA"/>
<path d="M432.601 425.194H440.6V442.054H432.601V425.194Z" fill="#E6FBE1"/>
<path d="M412.009 448.727C412.009 448.898 422.585 449.043 435.628 449.043C448.671 449.043 459.247 448.898 459.247 448.727C459.247 448.557 448.671 448.399 435.628 448.399C422.585 448.399 412.009 448.496 412.009 448.727Z" fill="#D1E8BA"/>
<path d="M432.601 459.181H440.6V476.042H432.601V459.181Z" fill="#E6FBE1"/>
<path d="M1092.65 81.5403C1092.08 77.3586 1097.96 73.9307 1102.37 73.5782C1104.49 73.408 1106.68 73.724 1108.68 73.0311C1113.01 71.5238 1114.76 65.9199 1118.97 64.1452C1122.13 62.808 1125.76 63.9993 1128.83 65.5431C1131.89 67.0869 1134.9 69.0197 1138.33 69.1899C1141.31 69.3844 1144.54 68.2782 1147.14 69.7247C1149.09 70.8188 1150.11 73.0554 1151.9 74.3683C1153.76 75.5183 1155.91 76.1012 1158.1 76.0458C1160.27 75.997 1162.44 76.3515 1164.49 77.0912C1166.47 78.0029 1168.14 80.0937 1167.69 82.221L1092.65 81.5403Z" fill="#A5C08B"/>
<path d="M1066.17 203.634C1065.6 199.465 1071.5 196.037 1075.9 195.672C1078 195.502 1080.19 195.83 1082.19 195.137C1086.52 193.618 1088.27 188.026 1092.48 186.251C1095.64 184.914 1099.27 186.093 1102.34 187.637C1105.4 189.181 1108.42 191.126 1111.86 191.284C1114.82 191.466 1118.05 190.372 1120.66 191.819C1122.6 192.901 1123.62 195.137 1125.41 196.462C1127.27 197.606 1129.42 198.188 1131.61 198.14C1133.79 198.09 1135.95 198.444 1138 199.185C1139.98 200.097 1141.65 202.188 1141.21 204.315L1066.17 203.634Z" fill="#A5C08B"/>
<path d="M623.857 92.432C623.273 88.2625 629.169 84.8346 633.582 84.4699C635.685 84.3119 637.885 84.6279 639.878 83.935C644.206 82.4277 645.956 76.8238 650.162 75.0491C653.323 73.7119 656.957 74.9032 660.021 76.4348C663.084 77.9665 666.099 79.9236 669.539 80.0816C672.517 80.2761 675.738 79.1699 678.352 80.6165C680.285 81.6984 681.306 83.935 683.093 85.26C684.953 86.4087 687.107 86.9916 689.292 86.9375C691.47 86.8877 693.638 87.2421 695.686 87.983C697.668 88.8947 699.333 90.9855 698.895 93.1128L623.857 92.432Z" fill="#A5C08B"/>
<path d="M965.388 151.862C964.33 144.241 975.112 137.968 983.172 137.275C987.025 136.959 991.024 137.555 994.683 136.278C1002.58 133.519 1005.75 123.296 1013.46 120.05C1019.24 117.619 1025.88 119.783 1031.48 122.591C1037.08 125.399 1042.6 128.948 1048.85 129.35C1054.28 129.702 1060.19 127.684 1064.94 130.346C1068.48 132.316 1070.34 136.424 1073.61 138.855C1076.88 141.287 1080.98 141.712 1084.94 141.919C1088.9 142.125 1093.01 142.174 1096.62 143.827C1100.23 145.48 1103.22 149.297 1102.47 153.199L965.388 151.862Z" fill="#C2DBAA"/>
<path d="M897.607 61.8234C898.017 61.7546 898.423 61.6612 898.822 61.5438C899.961 61.2985 901.133 61.2532 902.287 61.4101C903.96 61.6459 905.536 62.3354 906.845 63.4037C908.442 64.7159 909.569 66.5123 910.055 68.5213V68.5213L910.249 69.275L910.541 68.5578C911.323 66.6474 912.666 65.0195 914.394 63.8899C915.802 62.9698 917.421 62.4219 919.099 62.2975C920.661 62.2126 922.226 62.4103 923.718 62.881C923.342 62.6478 922.932 62.4755 922.502 62.3705C921.383 62.0167 920.209 61.8685 919.038 61.9328C917.283 62.0082 915.579 62.5494 914.102 63.501C912.275 64.6615 910.852 66.3604 910.03 68.3633H910.516C910 66.2843 908.818 64.4314 907.149 63.0876C905.982 62.1803 904.62 61.5565 903.171 61.2654C901.722 60.9743 900.225 61.0238 898.798 61.4101C898.381 61.4818 897.979 61.6214 897.607 61.8234V61.8234Z" fill="#A5C08B"/>
<path d="M850.576 114.325C850.576 114.325 851.463 114.009 853.092 113.656C855.399 113.147 857.778 113.053 860.118 113.377C863.59 113.842 866.867 115.255 869.588 117.461C872.913 120.175 875.261 123.902 876.273 128.073V128.195L876.468 128.948L876.76 128.268C878.377 124.289 881.167 120.897 884.758 118.543C887.67 116.647 891.017 115.526 894.483 115.285C896.828 115.115 899.186 115.333 901.46 115.929C903.077 116.355 903.892 116.732 903.892 116.683C903.704 116.554 903.5 116.452 903.284 116.379C902.688 116.131 902.08 115.916 901.46 115.735C898.614 114.91 895.624 114.7 892.69 115.119C889.756 115.539 886.944 116.577 884.442 118.166C880.757 120.532 877.888 123.974 876.225 128.025H876.711V127.903C875.686 123.621 873.265 119.802 869.831 117.048C867.494 115.19 864.762 113.894 861.844 113.262C858.927 112.629 855.903 112.677 853.007 113.401C852.374 113.552 851.753 113.747 851.147 113.984C850.942 114.072 850.75 114.186 850.576 114.325V114.325Z" fill="#A5C08B"/>
<path d="M756.306 84.0566C756.306 84.0566 756.805 83.9108 757.704 83.7284C758.969 83.4711 760.268 83.4341 761.545 83.619C763.438 83.8783 765.222 84.6567 766.7 85.8679C768.511 87.3448 769.791 89.3719 770.346 91.6419V91.6419L770.541 92.4077L770.82 91.6905C771.714 89.5384 773.229 87.7016 775.172 86.4149C776.767 85.3756 778.598 84.7567 780.497 84.6158C781.782 84.5175 783.074 84.6242 784.326 84.9319C785.201 85.1507 785.675 85.3452 785.699 85.3087C785.724 85.2722 785.59 85.2236 785.371 85.1264C785.048 84.9751 784.715 84.8452 784.374 84.7374C783.112 84.3489 781.791 84.1884 780.472 84.2633C778.498 84.3524 776.582 84.9603 774.917 86.0259C772.868 87.3341 771.276 89.2452 770.358 91.496H770.833C770.268 89.1005 768.92 86.9617 767.004 85.4181C765.697 84.3936 764.169 83.6895 762.541 83.3623C760.914 83.0351 759.232 83.0939 757.631 83.5339C757.282 83.6223 756.94 83.7402 756.61 83.8864C756.416 83.9837 756.294 84.0323 756.306 84.0566Z" fill="#A5C08B"/>
<path d="M826.265 60C826.265 60 826.751 60.5592 827.614 61.5316C828.833 62.9211 829.935 64.4092 830.908 65.9807C834.128 71.1815 835.814 77.1861 835.771 83.3029V83.5217H836.281C836.775 80.2321 837.845 77.0554 839.442 74.1373C841.625 70.1343 844.709 66.6929 848.449 64.0844C849.519 63.3429 850.139 62.966 850.115 62.9296C849.947 62.985 849.787 63.0627 849.64 63.1605C849.194 63.3884 848.76 63.6399 848.34 63.9142C846.782 64.9122 845.331 66.0691 844.012 67.3665C839.607 71.7015 836.717 77.3412 835.771 83.4488H836.281V83.2907C836.327 77.0785 834.552 70.9889 831.176 65.7741C830.178 64.2143 829.034 62.7531 827.76 61.4101C827.322 60.9239 826.921 60.5956 826.678 60.3525C826.555 60.2187 826.416 60.1003 826.265 60V60Z" fill="#A5C08B"/>
</g>
<rect y="488" width="1366" height="167" fill="#C7C7C7"/>
<rect y="507" width="1366" height="10" fill="white"/>
<rect y="625" width="1366" height="10" fill="white"/>
<rect x="15" y="566" width="40" height="10" fill="white"/>
<rect x="95" y="566" width="40" height="10" fill="white"/>
<rect x="175" y="566" width="40" height="10" fill="white"/>
<rect x="254" y="566" width="40" height="10" fill="white"/>
<rect x="332" y="566" width="40" height="10" fill="white"/>
<rect x="412" y="566" width="40" height="10" fill="white"/>
<rect x="492" y="566" width="40" height="10" fill="white"/>
<rect x="572" y="566" width="40" height="10" fill="white"/>
<rect x="652" y="566" width="40" height="10" fill="white"/>
<rect x="732" y="566" width="40" height="10" fill="white"/>
<rect x="812" y="566" width="40" height="10" fill="white"/>
<rect x="892" y="566" width="40" height="10" fill="white"/>
<rect x="972" y="566" width="40" height="10" fill="white"/>
<rect x="1052" y="566" width="40" height="10" fill="white"/>
<rect x="1132" y="566" width="40" height="10" fill="white"/>
<rect x="1212" y="566" width="40" height="10" fill="white"/>
<rect x="1292" y="566" width="40" height="10" fill="white"/>
</svg>
