<svg width="1366" height="595" viewBox="0 0 1366 595" fill="none" xmlns="http://www.w3.org/2000/svg">
<g opacity="0.3">
<path d="M34.7592 182.405H129.247V429.729H34.7592V182.405Z" fill="#A5C08B"/>
<path d="M34.7588 182.405H82.0088V429.729H34.7588V182.405Z" fill="#D1E8BA"/>
<path d="M85.0979 153H118.466V182.393H85.0979V153Z" fill="#A5C08B"/>
<path d="M85.0969 153H93.0469V182.393H85.0969V153Z" fill="#D1E8BA"/>
<path d="M31.9997 180.691H137.124V182.405H31.9997V180.691Z" fill="#D1E8BA"/>
<path d="M102.602 195.218H110.601V212.078H102.602V195.218Z" fill="#FFE3DF"/>
<path d="M82.0092 218.703C82.0092 218.885 92.5849 219.031 105.628 219.031C118.671 219.031 129.247 218.885 129.247 218.703C129.247 218.52 118.671 218.387 105.628 218.387C92.5849 218.387 82.0092 218.545 82.0092 218.703Z" fill="#D1E8BA"/>
<path d="M54.9379 195.218H62.9365V212.078H54.9379V195.218Z" fill="#E6FBE1"/>
<path d="M34.3467 218.703C34.3467 218.885 44.9223 219.031 57.9656 219.031C71.0089 219.031 81.5967 218.885 81.5967 218.703C81.5967 218.52 71.021 218.387 57.9656 218.387C44.9101 218.387 34.3467 218.545 34.3467 218.703Z" fill="#A5C08B"/>
<path d="M54.9379 228.707H62.9365V245.567H54.9379V228.707Z" fill="#E6FBE1"/>
<path d="M34.3467 252.192C34.3467 252.362 44.9223 252.508 57.9656 252.508C71.0089 252.508 81.5967 252.362 81.5967 252.192C81.5967 252.022 71.021 251.864 57.9656 251.864C44.9101 251.864 34.3467 252.01 34.3467 252.192Z" fill="#A5C08B"/>
<path d="M54.9379 263.193H62.9365V280.054H54.9379V263.193Z" fill="#E6FBE1"/>
<path d="M34.3467 286.679C34.3467 286.861 44.9223 287.007 57.9656 287.007C71.0089 287.007 81.5967 286.861 81.5967 286.679C81.5967 286.496 71.021 286.363 57.9656 286.363C44.9101 286.363 34.3467 286.508 34.3467 286.679Z" fill="#A5C08B"/>
<path d="M54.9379 297.692H62.9365V314.552H54.9379V297.692Z" fill="#E6FBE1"/>
<path d="M34.3467 321.177C34.3467 321.359 44.9223 321.493 57.9656 321.493C71.0089 321.493 81.5967 321.359 81.5967 321.177C81.5967 320.995 71.021 320.849 57.9656 320.849C44.9101 320.849 34.3467 320.995 34.3467 321.177Z" fill="#A5C08B"/>
<path d="M54.9379 331.193H62.9365V348.054H54.9379V331.193Z" fill="#E6FBE1"/>
<path d="M34.3467 354.691C34.3467 354.873 44.9223 355.019 57.9656 355.019C71.0089 355.019 81.5967 354.873 81.5967 354.691C81.5967 354.508 71.021 354.375 57.9656 354.375C44.9101 354.375 34.3467 354.508 34.3467 354.691Z" fill="#A5C08B"/>
<path d="M54.9379 364.841H62.9365V381.701H54.9379V364.841Z" fill="#E6FBE1"/>
<path d="M54.9379 398.926H62.9365V415.787H54.9379V398.926Z" fill="#E6FBE1"/>
<path d="M34.3467 388.326C34.3467 388.497 44.9223 388.642 57.9656 388.642C71.0089 388.642 81.5967 388.497 81.5967 388.326C81.5967 388.156 71.021 387.998 57.9656 387.998C44.9101 387.998 34.3467 388.144 34.3467 388.326Z" fill="#A5C08B"/>
<path d="M102.602 229.218H110.601V246.078H102.602V229.218Z" fill="#FFE3DF"/>
<path d="M82.0092 252.703C82.0092 252.873 92.5849 253.019 105.628 253.019C118.671 253.019 129.247 252.873 129.247 252.703C129.247 252.533 118.671 252.375 105.628 252.375C92.5849 252.375 82.0092 252.581 82.0092 252.703Z" fill="#D1E8BA"/>
<path d="M102.602 263.205H110.601V280.066H102.602V263.205Z" fill="#FFE3DF"/>
<path d="M82.0092 286.691C82.0092 286.873 92.5849 287.019 105.628 287.019C118.671 287.019 129.247 286.873 129.247 286.691C129.247 286.508 118.671 286.375 105.628 286.375C92.5849 286.375 82.0092 286.521 82.0092 286.691Z" fill="#D1E8BA"/>
<path d="M102.602 297.206H110.601V314.066H102.602V297.206Z" fill="#FFE3DF"/>
<path d="M82.0092 320.654C82.0092 320.825 92.5849 320.97 105.628 320.97C118.671 320.97 129.247 320.825 129.247 320.654C129.247 320.484 118.671 320.326 105.628 320.326C92.5849 320.326 82.0092 320.508 82.0092 320.654Z" fill="#D1E8BA"/>
<path d="M102.602 331.193H110.601V348.054H102.602V331.193Z" fill="#FFE3DF"/>
<path d="M82.0092 354.691C82.0092 354.873 92.5849 355.019 105.628 355.019C118.671 355.019 129.247 354.873 129.247 354.691C129.247 354.508 118.671 354.375 105.628 354.375C92.5849 354.375 82.0092 354.508 82.0092 354.691Z" fill="#D1E8BA"/>
<path d="M102.602 365.194H110.601V382.054H102.602V365.194Z" fill="#FFE3DF"/>
<path d="M82.0092 388.727C82.0092 388.898 92.5849 389.043 105.628 389.043C118.671 389.043 129.247 388.898 129.247 388.727C129.247 388.557 118.671 388.399 105.628 388.399C92.5849 388.399 82.0092 388.496 82.0092 388.727Z" fill="#D1E8BA"/>
<path d="M102.602 399.182H110.601V416.042H102.602V399.182Z" fill="#FFE3DF"/>
<path d="M119.939 429.513H277.747L278.439 180.098H120.619L119.939 429.513Z" fill="#A5C08B"/>
<path d="M120.631 180.11H199.535V429.513H120.631V180.11Z" fill="#D1E8BA"/>
<path d="M204.689 131H260.412V180.098H204.689V131Z" fill="#A5C08B"/>
<path d="M204.689 131H217.976V180.098H204.689V131Z" fill="#D1E8BA"/>
<path d="M116 177.241H291.58V180.11H116V177.241Z" fill="#D1E8BA"/>
<path d="M233.924 201.516H247.283V229.682H233.924V201.516Z" fill="#E6FBE1"/>
<path d="M199.524 240.744C199.524 241.035 217.186 241.279 238.97 241.279C260.753 241.279 278.428 241.035 278.428 240.744C278.428 240.452 260.765 240.197 238.97 240.197C217.174 240.197 199.524 240.44 199.524 240.744Z" fill="#D1E8BA"/>
<path d="M154.328 201.516H167.688V229.682H154.328V201.516Z" fill="#E6FBE1"/>
<path d="M119.939 240.744C119.939 241.035 137.601 241.279 159.385 241.279C181.168 241.279 198.843 241.035 198.843 240.744C198.843 240.452 181.18 240.197 159.385 240.197C137.589 240.197 119.939 240.44 119.939 240.744Z" fill="#A5C08B"/>
<path d="M154.328 257.434H167.688V285.599H154.328V257.434Z" fill="#E6FBE1"/>
<path d="M119.939 296.661C119.939 296.953 137.601 297.196 159.385 297.196C181.168 297.196 198.843 296.953 198.843 296.661C198.843 296.369 181.18 296.126 159.385 296.126C137.589 296.126 119.939 296.357 119.939 296.661Z" fill="#A5C08B"/>
<path d="M154.328 315.053H167.688V343.218H154.328V315.053Z" fill="#E6FBE1"/>
<path d="M119.939 354.268C119.939 354.559 137.601 354.803 159.385 354.803C181.168 354.803 198.843 354.559 198.843 354.268C198.843 353.976 181.18 353.733 159.385 353.733C137.589 353.733 119.939 353.976 119.939 354.268Z" fill="#A5C08B"/>
<path d="M154.328 372.66H167.688V400.825H154.328V372.66Z" fill="#E6FBE1"/>
<path d="M119.939 411.875C119.939 412.178 137.601 412.409 159.385 412.409C181.168 412.409 198.843 412.178 198.843 411.875C198.843 411.571 181.18 411.315 159.409 411.315C137.638 411.315 119.939 411.583 119.939 411.875Z" fill="#A5C08B"/>
<path d="M233.924 258.297H247.283V286.462H233.924V258.297Z" fill="#E6FBE1"/>
<path d="M199.524 297.512C199.524 297.816 217.186 298.047 238.97 298.047C260.753 298.047 278.428 297.816 278.428 297.512C278.428 297.208 260.765 296.977 238.97 296.977C217.174 296.977 199.524 297.22 199.524 297.512Z" fill="#D1E8BA"/>
<path d="M233.924 315.065H247.283V343.23H233.924V315.065Z" fill="#E6FBE1"/>
<path d="M199.524 354.292C199.524 354.584 217.186 354.827 238.97 354.827C260.753 354.827 278.428 354.584 278.428 354.292C278.428 354 260.765 353.745 238.97 353.745C217.174 353.745 199.524 353.988 199.524 354.292Z" fill="#D1E8BA"/>
<path d="M233.924 371.845H247.283V400.01H233.924V371.845Z" fill="#E6FBE1"/>
<path d="M199.524 411.06C199.524 411.364 217.186 411.595 238.97 411.595C260.753 411.595 278.428 411.364 278.428 411.06C278.428 410.756 260.765 410.525 238.97 410.525C217.174 410.525 199.524 410.769 199.524 411.06Z" fill="#D1E8BA"/>
<path d="M1218.14 90.3679H1325.38V430.247H1218.14V90.3679Z" fill="#D3E9C7"/>
<path d="M1218.14 90.3679H1271.76V429.311H1218.14V90.3679Z" fill="#A5C08B"/>
<path d="M1275.27 57H1313.13V90.368H1275.27V57Z" fill="#E6FBE1"/>
<path d="M1275.26 57H1284.29V90.368H1275.26V57Z" fill="#A5C08B"/>
<path d="M1334.32 90.368V88.4231H1215V90.368" fill="#D1E8BA"/>
<path d="M1295.13 104.919H1304.21V124.064H1295.13V104.919Z" fill="#A5C08B"/>
<path d="M1271.76 131.564C1271.76 131.771 1283.77 131.929 1298.57 131.929C1313.38 131.929 1325.38 131.771 1325.38 131.564C1325.38 131.358 1313.38 131.2 1298.57 131.2C1283.77 131.2 1271.76 131.37 1271.76 131.564Z" fill="#D1E8BA"/>
<path d="M1241.04 104.919H1250.12V124.064H1241.04V104.919Z" fill="#D1E8BA"/>
<path d="M1217.67 131.564C1217.67 131.771 1229.67 131.929 1244.42 131.929C1259.16 131.929 1271.23 131.771 1271.23 131.564C1271.23 131.358 1259.22 131.2 1244.42 131.2C1229.61 131.2 1217.67 131.37 1217.67 131.564Z" fill="#D1E8BA"/>
<path d="M1241.04 142.918H1250.12V162.064H1241.04V142.918Z" fill="#D1E8BA"/>
<path d="M1217.67 169.576C1217.67 169.77 1229.67 169.941 1244.42 169.941C1259.16 169.941 1271.23 169.77 1271.23 169.576C1271.23 169.381 1259.22 169.211 1244.42 169.211C1229.61 169.211 1217.67 169.369 1217.67 169.576Z" fill="#D1E8BA"/>
<path d="M1241.04 182.072H1250.12V201.218H1241.04V182.072Z" fill="#D1E8BA"/>
<path d="M1217.67 208.718C1217.67 208.924 1229.67 209.082 1244.42 209.082C1259.16 209.082 1271.23 208.924 1271.23 208.718C1271.23 208.511 1259.22 208.353 1244.42 208.353C1229.61 208.353 1217.67 208.523 1217.67 208.718Z" fill="#D1E8BA"/>
<path d="M1241.04 221.214H1250.12V240.36H1241.04V221.214Z" fill="#D1E8BA"/>
<path d="M1217.67 247.872C1217.67 248.067 1229.67 248.237 1244.42 248.237C1259.16 248.237 1271.23 248.067 1271.23 247.872C1271.23 247.678 1259.22 247.507 1244.42 247.507C1229.61 247.507 1217.67 247.665 1217.67 247.872Z" fill="#D1E8BA"/>
<path d="M1241.04 259.25H1250.12V278.396H1241.04V259.25Z" fill="#D1E8BA"/>
<path d="M1217.67 285.896C1217.67 286.102 1229.67 286.26 1244.42 286.26C1259.16 286.26 1271.23 286.102 1271.23 285.896C1271.23 285.689 1259.22 285.531 1244.42 285.531C1229.61 285.531 1217.67 285.701 1217.67 285.896Z" fill="#D1E8BA"/>
<path d="M1241.04 297.432H1250.12V316.577H1241.04V297.432Z" fill="#D1E8BA"/>
<path d="M1241.04 336.112H1250.12V355.257H1241.04V336.112Z" fill="#D1E8BA"/>
<path d="M1217.67 324.078C1217.67 324.284 1229.67 324.442 1244.42 324.442C1259.16 324.442 1271.23 324.284 1271.23 324.078C1271.23 323.871 1259.22 323.713 1244.42 323.713C1229.61 323.713 1217.67 323.883 1217.67 324.078Z" fill="#D1E8BA"/>
<path d="M1295.13 143.501H1304.21V162.647H1295.13V143.501Z" fill="#A5C08B"/>
<path d="M1271.76 170.147C1271.76 170.354 1283.77 170.512 1298.57 170.512C1313.38 170.512 1325.38 170.354 1325.38 170.147C1325.38 169.941 1313.38 169.782 1298.57 169.782C1283.77 169.782 1271.76 169.953 1271.76 170.147Z" fill="#D1E8BA"/>
<path d="M1295.13 182.084H1304.21V201.23H1295.13V182.084Z" fill="#A5C08B"/>
<path d="M1271.76 208.73C1271.76 208.937 1283.77 209.095 1298.57 209.095C1313.38 209.095 1325.38 208.937 1325.38 208.73C1325.38 208.523 1313.38 208.365 1298.57 208.365C1283.77 208.365 1271.76 208.536 1271.76 208.73Z" fill="#D1E8BA"/>
<path d="M1295.13 220.667H1304.21V239.813H1295.13V220.667Z" fill="#A5C08B"/>
<path d="M1271.76 247.313C1271.76 247.52 1283.77 247.678 1298.57 247.678C1313.38 247.678 1325.38 247.52 1325.38 247.313C1325.38 247.106 1313.38 246.948 1298.57 246.948C1283.77 246.948 1271.76 247.118 1271.76 247.313Z" fill="#D1E8BA"/>
<path d="M1295.13 259.25H1304.21V278.396H1295.13V259.25Z" fill="#A5C08B"/>
<path d="M1271.76 285.896C1271.76 286.102 1283.77 286.26 1298.57 286.26C1313.38 286.26 1325.38 286.102 1325.38 285.896C1325.38 285.689 1313.38 285.531 1298.57 285.531C1283.77 285.531 1271.76 285.701 1271.76 285.896Z" fill="#D1E8BA"/>
<path d="M1295.13 297.833H1304.21V316.979H1295.13V297.833Z" fill="#A5C08B"/>
<path d="M1271.76 324.454C1271.76 324.661 1283.77 324.819 1298.57 324.819C1313.38 324.819 1325.38 324.661 1325.38 324.454C1325.38 324.248 1313.38 324.09 1298.57 324.09C1283.77 324.09 1271.76 324.272 1271.76 324.454Z" fill="#D1E8BA"/>
<path d="M1295.13 336.404H1304.21V355.549H1295.13V336.404Z" fill="#A5C08B"/>
<path d="M318.137 90.3679H425.376V430.247H318.137V90.3679Z" fill="#D3E9C7"/>
<path d="M318.136 90.3679H371.756V429.311H318.136V90.3679Z" fill="#A5C08B"/>
<path d="M375.269 57H413.135V90.368H375.269V57Z" fill="#E6FBE1"/>
<path d="M375.257 57H384.289V90.368H375.257V57Z" fill="#A5C08B"/>
<path d="M434.322 90.368V88.4231H315V90.368" fill="#D1E8BA"/>
<path d="M395.132 104.919H404.213V124.064H395.132V104.919Z" fill="#A5C08B"/>
<path d="M371.756 131.564C371.756 131.771 383.766 131.929 398.572 131.929C413.378 131.929 425.376 131.771 425.376 131.564C425.376 131.358 413.378 131.2 398.572 131.2C383.766 131.2 371.756 131.37 371.756 131.564Z" fill="#D1E8BA"/>
<path d="M341.039 104.919H350.119V124.064H341.039V104.919Z" fill="#D1E8BA"/>
<path d="M317.674 131.564C317.674 131.771 329.672 131.929 344.417 131.929C359.163 131.929 371.233 131.771 371.233 131.564C371.233 131.358 359.223 131.2 344.417 131.2C329.612 131.2 317.674 131.37 317.674 131.564Z" fill="#D1E8BA"/>
<path d="M341.039 142.918H350.119V162.064H341.039V142.918Z" fill="#D1E8BA"/>
<path d="M317.674 169.576C317.674 169.77 329.672 169.941 344.417 169.941C359.163 169.941 371.233 169.77 371.233 169.576C371.233 169.381 359.223 169.211 344.417 169.211C329.612 169.211 317.674 169.369 317.674 169.576Z" fill="#D1E8BA"/>
<path d="M341.039 182.072H350.119V201.218H341.039V182.072Z" fill="#D1E8BA"/>
<path d="M317.674 208.718C317.674 208.924 329.672 209.082 344.417 209.082C359.163 209.082 371.233 208.924 371.233 208.718C371.233 208.511 359.223 208.353 344.417 208.353C329.612 208.353 317.674 208.523 317.674 208.718Z" fill="#D1E8BA"/>
<path d="M341.039 221.214H350.119V240.36H341.039V221.214Z" fill="#D1E8BA"/>
<path d="M317.674 247.872C317.674 248.067 329.672 248.237 344.417 248.237C359.163 248.237 371.233 248.067 371.233 247.872C371.233 247.678 359.223 247.507 344.417 247.507C329.612 247.507 317.674 247.665 317.674 247.872Z" fill="#D1E8BA"/>
<path d="M341.039 259.25H350.119V278.396H341.039V259.25Z" fill="#D1E8BA"/>
<path d="M317.674 285.896C317.674 286.102 329.672 286.26 344.417 286.26C359.163 286.26 371.233 286.102 371.233 285.896C371.233 285.689 359.223 285.531 344.417 285.531C329.612 285.531 317.674 285.701 317.674 285.896Z" fill="#D1E8BA"/>
<path d="M341.039 297.432H350.119V316.577H341.039V297.432Z" fill="#D1E8BA"/>
<path d="M341.039 336.112H350.119V355.257H341.039V336.112Z" fill="#D1E8BA"/>
<path d="M317.674 324.078C317.674 324.284 329.672 324.442 344.417 324.442C359.163 324.442 371.233 324.284 371.233 324.078C371.233 323.871 359.223 323.713 344.417 323.713C329.612 323.713 317.674 323.883 317.674 324.078Z" fill="#D1E8BA"/>
<path d="M395.132 143.501H404.213V162.647H395.132V143.501Z" fill="#A5C08B"/>
<path d="M371.756 170.147C371.756 170.354 383.766 170.512 398.572 170.512C413.378 170.512 425.376 170.354 425.376 170.147C425.376 169.941 413.378 169.782 398.572 169.782C383.766 169.782 371.756 169.953 371.756 170.147Z" fill="#D1E8BA"/>
<path d="M395.132 182.084H404.213V201.23H395.132V182.084Z" fill="#A5C08B"/>
<path d="M371.756 208.73C371.756 208.937 383.766 209.095 398.572 209.095C413.378 209.095 425.376 208.937 425.376 208.73C425.376 208.523 413.378 208.365 398.572 208.365C383.766 208.365 371.756 208.536 371.756 208.73Z" fill="#D1E8BA"/>
<path d="M395.132 220.667H404.213V239.813H395.132V220.667Z" fill="#A5C08B"/>
<path d="M371.756 247.313C371.756 247.52 383.766 247.678 398.572 247.678C413.378 247.678 425.376 247.52 425.376 247.313C425.376 247.106 413.378 246.948 398.572 246.948C383.766 246.948 371.756 247.118 371.756 247.313Z" fill="#D1E8BA"/>
<path d="M395.132 259.25H404.213V278.396H395.132V259.25Z" fill="#A5C08B"/>
<path d="M371.756 285.896C371.756 286.102 383.766 286.26 398.572 286.26C413.378 286.26 425.376 286.102 425.376 285.896C425.376 285.689 413.378 285.531 398.572 285.531C383.766 285.531 371.756 285.701 371.756 285.896Z" fill="#D1E8BA"/>
<path d="M395.132 297.833H404.213V316.979H395.132V297.833Z" fill="#A5C08B"/>
<path d="M371.756 324.454C371.756 324.661 383.766 324.819 398.572 324.819C413.378 324.819 425.376 324.661 425.376 324.454C425.376 324.248 413.378 324.09 398.572 324.09C383.766 324.09 371.756 324.272 371.756 324.454Z" fill="#D1E8BA"/>
<path d="M395.132 336.404H404.213V355.549H395.132V336.404Z" fill="#A5C08B"/>
<path d="M1082.77 223.418H1239.32V429.923H1082.77V223.418Z" fill="#A5C08B"/>
<path d="M1082.77 223.418H1156.18V429.923H1082.77V223.418Z" fill="#D1E8BA"/>
<path d="M1192.42 251.365H1206.5V285.559H1192.42V251.365Z" fill="#E6FBE1"/>
<path d="M1192.42 385.226H1206.5V419.432H1192.42V385.226Z" fill="#E6FBE1"/>
<path d="M1156.18 298.992C1156.18 299.381 1174.79 299.685 1197.75 299.685C1220.71 299.685 1239.32 299.381 1239.32 298.992C1239.32 298.603 1220.71 298.299 1197.75 298.299C1174.79 298.299 1156.18 298.615 1156.18 298.992Z" fill="#E6FBE1"/>
<path d="M1192.42 318.806H1206.5V353H1192.42V318.806Z" fill="#E6FBE1"/>
<path d="M1156.18 366.433C1156.18 366.81 1174.79 367.126 1197.75 367.126C1220.71 367.126 1239.32 366.81 1239.32 366.433C1239.32 366.056 1220.71 365.728 1197.75 365.728C1174.79 365.728 1156.18 366.044 1156.18 366.433Z" fill="#E6FBE1"/>
<path d="M1126.5 251.365H1140.58V285.559H1126.5V251.365Z" fill="#E6FBE1"/>
<path d="M1095.97 251.365H1110.04V285.559H1095.97V251.365Z" fill="#E6FBE1"/>
<path d="M1126.5 316.265H1140.58V350.46H1126.5V316.265Z" fill="#E6FBE1"/>
<path d="M1095.97 316.265H1110.04V350.46H1095.97V316.265Z" fill="#E6FBE1"/>
<path d="M1126.5 381.166H1140.58V415.36H1126.5V381.166Z" fill="#E6FBE1"/>
<path d="M1095.97 381.166H1110.04V415.36H1095.97V381.166Z" fill="#E6FBE1"/>
<path d="M1071 216.222H1251.1V223.674H1071V216.222Z" fill="#D1E8BA"/>
<path d="M1081.67 224.367C1081.67 224.756 1116.67 225.072 1159.82 225.072C1202.97 225.072 1237.97 224.756 1237.97 224.367C1237.97 223.978 1202.99 223.674 1159.82 223.674C1116.66 223.674 1081.67 223.99 1081.67 224.367Z" fill="#A5C08B"/>
<path d="M802.766 223.196H959.322V429.701H802.766V223.196Z" fill="#A5C08B"/>
<path d="M802.766 223.196H876.176V429.701H802.766V223.196Z" fill="#D1E8BA"/>
<path d="M912.424 251.143H926.501V285.337H912.424V251.143Z" fill="#E6FBE1"/>
<path d="M912.424 385.004H926.501V419.21H912.424V385.004Z" fill="#E6FBE1"/>
<path d="M876.176 298.77C876.176 299.159 894.787 299.463 917.749 299.463C940.712 299.463 959.322 299.159 959.322 298.77C959.322 298.381 940.712 298.077 917.749 298.077C894.787 298.077 876.176 298.393 876.176 298.77Z" fill="#E6FBE1"/>
<path d="M912.424 318.584H926.501V352.778H912.424V318.584Z" fill="#E6FBE1"/>
<path d="M876.176 366.211C876.176 366.588 894.787 366.904 917.749 366.904C940.712 366.904 959.322 366.588 959.322 366.211C959.322 365.834 940.712 365.506 917.749 365.506C894.787 365.506 876.176 365.822 876.176 366.211Z" fill="#E6FBE1"/>
<path d="M846.503 251.143H860.579V285.337H846.503V251.143Z" fill="#E6FBE1"/>
<path d="M815.967 251.143H830.044V285.337H815.967V251.143Z" fill="#E6FBE1"/>
<path d="M846.503 316.043H860.579V350.238H846.503V316.043Z" fill="#E6FBE1"/>
<path d="M815.967 316.043H830.044V350.238H815.967V316.043Z" fill="#E6FBE1"/>
<path d="M846.503 380.944H860.579V415.138H846.503V380.944Z" fill="#E6FBE1"/>
<path d="M815.967 380.944H830.044V415.138H815.967V380.944Z" fill="#E6FBE1"/>
<path d="M791 216H971.102V223.452H791V216Z" fill="#D1E8BA"/>
<path d="M801.671 224.145C801.671 224.534 836.668 224.85 879.821 224.85C922.975 224.85 957.972 224.534 957.972 224.145C957.972 223.756 922.987 223.452 879.821 223.452C836.656 223.452 801.671 223.768 801.671 224.145Z" fill="#A5C08B"/>
<path d="M900.759 182.405H995.247V429.729H900.759V182.405Z" fill="#A5C08B"/>
<path d="M900.759 182.405H948.009V429.729H900.759V182.405Z" fill="#D1E8BA"/>
<path d="M951.098 153H984.466V182.393H951.098V153Z" fill="#A5C08B"/>
<path d="M951.097 153H959.047V182.393H951.097V153Z" fill="#D1E8BA"/>
<path d="M898 180.691H1003.12V182.405H898V180.691Z" fill="#D1E8BA"/>
<path d="M968.602 195.218H976.601V212.078H968.602V195.218Z" fill="#FFE3DF"/>
<path d="M948.009 218.703C948.009 218.885 958.585 219.031 971.628 219.031C984.671 219.031 995.247 218.885 995.247 218.703C995.247 218.52 984.671 218.387 971.628 218.387C958.585 218.387 948.009 218.545 948.009 218.703Z" fill="#D1E8BA"/>
<path d="M920.938 195.218H928.937V212.078H920.938V195.218Z" fill="#E6FBE1"/>
<path d="M900.347 218.703C900.347 218.885 910.922 219.031 923.966 219.031C937.009 219.031 947.597 218.885 947.597 218.703C947.597 218.52 937.021 218.387 923.966 218.387C910.91 218.387 900.347 218.545 900.347 218.703Z" fill="#A5C08B"/>
<path d="M920.938 228.707H928.937V245.567H920.938V228.707Z" fill="#E6FBE1"/>
<path d="M900.347 252.192C900.347 252.362 910.922 252.508 923.966 252.508C937.009 252.508 947.597 252.362 947.597 252.192C947.597 252.022 937.021 251.864 923.966 251.864C910.91 251.864 900.347 252.01 900.347 252.192Z" fill="#A5C08B"/>
<path d="M920.938 263.193H928.937V280.054H920.938V263.193Z" fill="#E6FBE1"/>
<path d="M900.347 286.679C900.347 286.861 910.922 287.007 923.966 287.007C937.009 287.007 947.597 286.861 947.597 286.679C947.597 286.496 937.021 286.363 923.966 286.363C910.91 286.363 900.347 286.508 900.347 286.679Z" fill="#A5C08B"/>
<path d="M920.938 297.692H928.937V314.552H920.938V297.692Z" fill="#E6FBE1"/>
<path d="M900.347 321.177C900.347 321.359 910.922 321.493 923.966 321.493C937.009 321.493 947.597 321.359 947.597 321.177C947.597 320.995 937.021 320.849 923.966 320.849C910.91 320.849 900.347 320.995 900.347 321.177Z" fill="#A5C08B"/>
<path d="M920.938 331.193H928.937V348.054H920.938V331.193Z" fill="#E6FBE1"/>
<path d="M900.347 354.691C900.347 354.873 910.922 355.019 923.966 355.019C937.009 355.019 947.597 354.873 947.597 354.691C947.597 354.508 937.021 354.375 923.966 354.375C910.91 354.375 900.347 354.508 900.347 354.691Z" fill="#A5C08B"/>
<path d="M920.938 364.841H928.937V381.701H920.938V364.841Z" fill="#E6FBE1"/>
<path d="M920.938 398.926H928.937V415.787H920.938V398.926Z" fill="#E6FBE1"/>
<path d="M900.347 388.326C900.347 388.497 910.922 388.642 923.966 388.642C937.009 388.642 947.597 388.497 947.597 388.326C947.597 388.156 937.021 387.998 923.966 387.998C910.91 387.998 900.347 388.144 900.347 388.326Z" fill="#A5C08B"/>
<path d="M968.602 229.218H976.601V246.078H968.602V229.218Z" fill="#FFE3DF"/>
<path d="M948.009 252.703C948.009 252.873 958.585 253.019 971.628 253.019C984.671 253.019 995.247 252.873 995.247 252.703C995.247 252.533 984.671 252.375 971.628 252.375C958.585 252.375 948.009 252.581 948.009 252.703Z" fill="#D1E8BA"/>
<path d="M968.602 263.205H976.601V280.066H968.602V263.205Z" fill="#FFE3DF"/>
<path d="M948.009 286.691C948.009 286.873 958.585 287.019 971.628 287.019C984.671 287.019 995.247 286.873 995.247 286.691C995.247 286.508 984.671 286.375 971.628 286.375C958.585 286.375 948.009 286.521 948.009 286.691Z" fill="#D1E8BA"/>
<path d="M968.602 297.206H976.601V314.066H968.602V297.206Z" fill="#FFE3DF"/>
<path d="M948.009 320.654C948.009 320.825 958.585 320.97 971.628 320.97C984.671 320.97 995.247 320.825 995.247 320.654C995.247 320.484 984.671 320.326 971.628 320.326C958.585 320.326 948.009 320.508 948.009 320.654Z" fill="#D1E8BA"/>
<path d="M968.602 331.193H976.601V348.054H968.602V331.193Z" fill="#FFE3DF"/>
<path d="M948.009 354.691C948.009 354.873 958.585 355.019 971.628 355.019C984.671 355.019 995.247 354.873 995.247 354.691C995.247 354.508 984.671 354.375 971.628 354.375C958.585 354.375 948.009 354.508 948.009 354.691Z" fill="#D1E8BA"/>
<path d="M968.602 365.194H976.601V382.054H968.602V365.194Z" fill="#FFE3DF"/>
<path d="M948.009 388.727C948.009 388.898 958.585 389.043 971.628 389.043C984.671 389.043 995.247 388.898 995.247 388.727C995.247 388.557 984.671 388.399 971.628 388.399C958.585 388.399 948.009 388.496 948.009 388.727Z" fill="#D1E8BA"/>
<path d="M968.602 399.182H976.601V416.042H968.602V399.182Z" fill="#FFE3DF"/>
<path d="M494.305 223.378H650.861V429.882H494.305V223.378Z" fill="#A5C08B"/>
<path d="M494.305 223.378H567.715V429.882H494.305V223.378Z" fill="#D1E8BA"/>
<path d="M603.964 251.324H618.041V285.519H603.964V251.324Z" fill="#E6FBE1"/>
<path d="M603.964 385.185H618.041V419.392H603.964V385.185Z" fill="#E6FBE1"/>
<path d="M567.715 298.951C567.715 299.34 586.326 299.644 609.288 299.644C632.251 299.644 650.861 299.34 650.861 298.951C650.861 298.562 632.251 298.258 609.288 298.258C586.326 298.258 567.715 298.574 567.715 298.951Z" fill="#E6FBE1"/>
<path d="M603.964 318.765H618.041V352.96H603.964V318.765Z" fill="#E6FBE1"/>
<path d="M567.715 366.392C567.715 366.769 586.326 367.085 609.288 367.085C632.251 367.085 650.861 366.769 650.861 366.392C650.861 366.015 632.251 365.687 609.288 365.687C586.326 365.687 567.715 366.003 567.715 366.392Z" fill="#E6FBE1"/>
<path d="M538.042 251.324H552.118V285.519H538.042V251.324Z" fill="#E6FBE1"/>
<path d="M507.506 251.324H521.583V285.519H507.506V251.324Z" fill="#E6FBE1"/>
<path d="M538.042 316.224H552.118V350.419H538.042V316.224Z" fill="#E6FBE1"/>
<path d="M507.506 316.224H521.583V350.419H507.506V316.224Z" fill="#E6FBE1"/>
<path d="M538.042 381.125H552.118V415.319H538.042V381.125Z" fill="#E6FBE1"/>
<path d="M507.506 381.125H521.583V415.319H507.506V381.125Z" fill="#E6FBE1"/>
<path d="M482.54 216.181H662.642V223.633H482.54V216.181Z" fill="#D1E8BA"/>
<path d="M493.212 224.326C493.212 224.715 528.209 225.031 571.362 225.031C614.516 225.031 649.513 224.715 649.513 224.326C649.513 223.937 614.528 223.633 571.362 223.633C528.197 223.633 493.212 223.949 493.212 224.326Z" fill="#A5C08B"/>
<path d="M635.939 429.513H793.747L794.439 180.098H636.619L635.939 429.513Z" fill="#A5C08B"/>
<path d="M636.631 180.11H715.535V429.513H636.631V180.11Z" fill="#D1E8BA"/>
<path d="M720.689 131H776.412V180.098H720.689V131Z" fill="#A5C08B"/>
<path d="M720.689 131H733.976V180.098H720.689V131Z" fill="#D1E8BA"/>
<path d="M632 177.241H807.58V180.11H632V177.241Z" fill="#D1E8BA"/>
<path d="M749.924 201.516H763.283V229.682H749.924V201.516Z" fill="#E6FBE1"/>
<path d="M715.524 240.744C715.524 241.035 733.186 241.279 754.97 241.279C776.753 241.279 794.428 241.035 794.428 240.744C794.428 240.452 776.765 240.197 754.97 240.197C733.174 240.197 715.524 240.44 715.524 240.744Z" fill="#D1E8BA"/>
<path d="M670.328 201.516H683.688V229.682H670.328V201.516Z" fill="#E6FBE1"/>
<path d="M635.939 240.744C635.939 241.035 653.601 241.279 675.385 241.279C697.168 241.279 714.843 241.035 714.843 240.744C714.843 240.452 697.18 240.197 675.385 240.197C653.589 240.197 635.939 240.44 635.939 240.744Z" fill="#A5C08B"/>
<path d="M670.328 257.434H683.688V285.599H670.328V257.434Z" fill="#E6FBE1"/>
<path d="M635.939 296.661C635.939 296.953 653.601 297.196 675.385 297.196C697.168 297.196 714.843 296.953 714.843 296.661C714.843 296.369 697.18 296.126 675.385 296.126C653.589 296.126 635.939 296.357 635.939 296.661Z" fill="#A5C08B"/>
<path d="M670.328 315.053H683.688V343.218H670.328V315.053Z" fill="#E6FBE1"/>
<path d="M635.939 354.268C635.939 354.559 653.601 354.803 675.385 354.803C697.168 354.803 714.843 354.559 714.843 354.268C714.843 353.976 697.18 353.733 675.385 353.733C653.589 353.733 635.939 353.976 635.939 354.268Z" fill="#A5C08B"/>
<path d="M670.328 372.66H683.688V400.825H670.328V372.66Z" fill="#E6FBE1"/>
<path d="M635.939 411.874C635.939 412.178 653.601 412.409 675.385 412.409C697.168 412.409 714.843 412.178 714.843 411.874C714.843 411.571 697.18 411.315 675.409 411.315C653.638 411.315 635.939 411.583 635.939 411.874Z" fill="#A5C08B"/>
<path d="M749.924 258.297H763.283V286.462H749.924V258.297Z" fill="#E6FBE1"/>
<path d="M715.524 297.512C715.524 297.816 733.186 298.047 754.97 298.047C776.753 298.047 794.428 297.816 794.428 297.512C794.428 297.208 776.765 296.977 754.97 296.977C733.174 296.977 715.524 297.22 715.524 297.512Z" fill="#D1E8BA"/>
<path d="M749.924 315.065H763.283V343.23H749.924V315.065Z" fill="#E6FBE1"/>
<path d="M715.524 354.292C715.524 354.584 733.186 354.827 754.97 354.827C776.753 354.827 794.428 354.584 794.428 354.292C794.428 354 776.765 353.745 754.97 353.745C733.174 353.745 715.524 353.988 715.524 354.292Z" fill="#D1E8BA"/>
<path d="M749.924 371.845H763.283V400.01H749.924V371.845Z" fill="#E6FBE1"/>
<path d="M364.759 182.405H459.247V429.729H364.759V182.405Z" fill="#A5C08B"/>
<path d="M364.759 182.405H412.009V429.729H364.759V182.405Z" fill="#D1E8BA"/>
<path d="M415.097 153H448.465V182.393H415.097V153Z" fill="#A5C08B"/>
<path d="M415.097 153H423.047V182.393H415.097V153Z" fill="#D1E8BA"/>
<path d="M362 180.691H467.124V182.405H362V180.691Z" fill="#D1E8BA"/>
<path d="M432.601 195.218H440.6V212.078H432.601V195.218Z" fill="#E6FBE1"/>
<path d="M412.009 218.703C412.009 218.885 422.585 219.031 435.628 219.031C448.671 219.031 459.247 218.885 459.247 218.703C459.247 218.52 448.671 218.387 435.628 218.387C422.585 218.387 412.009 218.545 412.009 218.703Z" fill="#D1E8BA"/>
<path d="M384.938 195.218H392.937V212.078H384.938V195.218Z" fill="#E6FBE1"/>
<path d="M364.347 218.703C364.347 218.885 374.922 219.031 387.966 219.031C401.009 219.031 411.597 218.885 411.597 218.703C411.597 218.52 401.021 218.387 387.966 218.387C374.91 218.387 364.347 218.545 364.347 218.703Z" fill="#A5C08B"/>
<path d="M384.938 228.707H392.937V245.567H384.938V228.707Z" fill="#E6FBE1"/>
<path d="M364.347 252.192C364.347 252.362 374.922 252.508 387.966 252.508C401.009 252.508 411.597 252.362 411.597 252.192C411.597 252.022 401.021 251.864 387.966 251.864C374.91 251.864 364.347 252.01 364.347 252.192Z" fill="#A5C08B"/>
<path d="M384.938 263.193H392.937V280.054H384.938V263.193Z" fill="#E6FBE1"/>
<path d="M364.347 286.679C364.347 286.861 374.922 287.007 387.966 287.007C401.009 287.007 411.597 286.861 411.597 286.679C411.597 286.496 401.021 286.363 387.966 286.363C374.91 286.363 364.347 286.508 364.347 286.679Z" fill="#A5C08B"/>
<path d="M384.938 297.692H392.937V314.552H384.938V297.692Z" fill="#E6FBE1"/>
<path d="M364.347 321.177C364.347 321.359 374.922 321.493 387.966 321.493C401.009 321.493 411.597 321.359 411.597 321.177C411.597 320.995 401.021 320.849 387.966 320.849C374.91 320.849 364.347 320.995 364.347 321.177Z" fill="#A5C08B"/>
<path d="M384.938 331.193H392.937V348.054H384.938V331.193Z" fill="#E6FBE1"/>
<path d="M364.347 354.691C364.347 354.873 374.922 355.019 387.966 355.019C401.009 355.019 411.597 354.873 411.597 354.691C411.597 354.508 401.021 354.375 387.966 354.375C374.91 354.375 364.347 354.508 364.347 354.691Z" fill="#A5C08B"/>
<path d="M384.938 364.841H392.937V381.701H384.938V364.841Z" fill="#E6FBE1"/>
<path d="M384.938 398.926H392.937V415.787H384.938V398.926Z" fill="#E6FBE1"/>
<path d="M364.347 388.326C364.347 388.496 374.922 388.642 387.966 388.642C401.009 388.642 411.597 388.496 411.597 388.326C411.597 388.156 401.021 387.998 387.966 387.998C374.91 387.998 364.347 388.144 364.347 388.326Z" fill="#A5C08B"/>
<path d="M432.601 229.218H440.6V246.078H432.601V229.218Z" fill="#E6FBE1"/>
<path d="M412.009 252.703C412.009 252.873 422.585 253.019 435.628 253.019C448.671 253.019 459.247 252.873 459.247 252.703C459.247 252.533 448.671 252.375 435.628 252.375C422.585 252.375 412.009 252.581 412.009 252.703Z" fill="#D1E8BA"/>
<path d="M432.601 263.205H440.6V280.066H432.601V263.205Z" fill="#E6FBE1"/>
<path d="M412.009 286.691C412.009 286.873 422.585 287.019 435.628 287.019C448.671 287.019 459.247 286.873 459.247 286.691C459.247 286.508 448.671 286.375 435.628 286.375C422.585 286.375 412.009 286.521 412.009 286.691Z" fill="#D1E8BA"/>
<path d="M432.601 297.206H440.6V314.066H432.601V297.206Z" fill="#E6FBE1"/>
<path d="M412.009 320.654C412.009 320.825 422.585 320.97 435.628 320.97C448.671 320.97 459.247 320.825 459.247 320.654C459.247 320.484 448.671 320.326 435.628 320.326C422.585 320.326 412.009 320.508 412.009 320.654Z" fill="#D1E8BA"/>
<path d="M432.601 331.193H440.6V348.054H432.601V331.193Z" fill="#E6FBE1"/>
<path d="M412.009 354.691C412.009 354.873 422.585 355.019 435.628 355.019C448.671 355.019 459.247 354.873 459.247 354.691C459.247 354.508 448.671 354.375 435.628 354.375C422.585 354.375 412.009 354.508 412.009 354.691Z" fill="#D1E8BA"/>
<path d="M432.601 365.194H440.6V382.054H432.601V365.194Z" fill="#E6FBE1"/>
<path d="M412.009 388.727C412.009 388.898 422.585 389.043 435.628 389.043C448.671 389.043 459.247 388.898 459.247 388.727C459.247 388.557 448.671 388.399 435.628 388.399C422.585 388.399 412.009 388.496 412.009 388.727Z" fill="#D1E8BA"/>
<path d="M432.601 399.181H440.6V416.042H432.601V399.181Z" fill="#E6FBE1"/>
<path d="M1092.65 21.5403C1092.08 17.3586 1097.96 13.9307 1102.37 13.5782C1104.49 13.408 1106.68 13.724 1108.68 13.0311C1113.01 11.5238 1114.76 5.91992 1118.97 4.14516C1122.13 2.80801 1125.76 3.99929 1128.83 5.54309C1131.89 7.08689 1134.9 9.01968 1138.33 9.18987C1141.31 9.38436 1144.54 8.27817 1147.14 9.72472C1149.09 10.8188 1150.11 13.0554 1151.9 14.3683C1153.76 15.5183 1155.91 16.1012 1158.1 16.0458C1160.27 15.997 1162.44 16.3515 1164.49 17.0912C1166.47 18.0029 1168.14 20.0937 1167.69 22.221L1092.65 21.5403Z" fill="#A5C08B"/>
<path d="M1066.17 143.634C1065.6 139.465 1071.5 136.037 1075.9 135.672C1078 135.502 1080.19 135.83 1082.19 135.137C1086.52 133.618 1088.27 128.026 1092.48 126.251C1095.64 124.914 1099.27 126.093 1102.34 127.637C1105.4 129.181 1108.42 131.126 1111.86 131.284C1114.82 131.466 1118.05 130.372 1120.66 131.819C1122.6 132.901 1123.62 135.137 1125.41 136.462C1127.27 137.606 1129.42 138.188 1131.61 138.14C1133.79 138.09 1135.95 138.444 1138 139.185C1139.98 140.097 1141.65 142.188 1141.21 144.315L1066.17 143.634Z" fill="#A5C08B"/>
<path d="M623.857 32.432C623.273 28.2625 629.169 24.8346 633.582 24.4699C635.685 24.3119 637.885 24.6279 639.878 23.935C644.206 22.4277 645.956 16.8238 650.162 15.0491C653.323 13.7119 656.957 14.9032 660.021 16.4348C663.084 17.9665 666.099 19.9236 669.539 20.0816C672.517 20.2761 675.738 19.1699 678.352 20.6165C680.285 21.6984 681.306 23.935 683.093 25.26C684.953 26.4087 687.107 26.9916 689.292 26.9375C691.47 26.8877 693.638 27.2421 695.686 27.983C697.668 28.8947 699.333 30.9855 698.895 33.1128L623.857 32.432Z" fill="#A5C08B"/>
<path d="M965.388 91.8623C964.33 84.2405 975.112 77.9681 983.172 77.2752C987.025 76.9591 991.024 77.5548 994.683 76.2784C1002.58 73.519 1005.75 63.2959 1013.46 60.0503C1019.24 57.6191 1025.88 59.7828 1031.48 62.5909C1037.08 65.3989 1042.6 68.9484 1048.85 69.3495C1054.28 69.7021 1060.19 67.6842 1064.94 70.3463C1068.48 72.3156 1070.34 76.4243 1073.61 78.8555C1076.88 81.2867 1080.98 81.7121 1084.94 81.9188C1088.9 82.1254 1093.01 82.174 1096.62 83.8272C1100.23 85.4804 1103.22 89.2974 1102.47 93.1994L965.388 91.8623Z" fill="#C2DBAA"/>
<path d="M897.607 1.82343C898.017 1.75457 898.423 1.66121 898.822 1.54385C899.961 1.29848 901.133 1.25324 902.287 1.41013C903.96 1.6459 905.536 2.33536 906.845 3.4037C908.442 4.71588 909.569 6.51226 910.055 8.52134L910.249 9.27501L910.541 8.5578C911.323 6.64736 912.666 5.01952 914.394 3.88994C915.802 2.96976 917.421 2.42186 919.099 2.29752C920.661 2.2126 922.226 2.41026 923.718 2.881C923.342 2.64779 922.932 2.47548 922.502 2.37045C921.383 2.01674 920.209 1.86848 919.038 1.93284C917.283 2.00817 915.579 2.54941 914.102 3.50095C912.275 4.66154 910.852 6.36035 910.03 8.36331H910.516C910 6.28428 908.818 4.43138 907.149 3.08764C905.982 2.18031 904.62 1.55649 903.171 1.26537C901.722 0.974257 900.225 1.02382 898.798 1.41013C898.381 1.48177 897.979 1.62139 897.607 1.82343Z" fill="#A5C08B"/>
<path d="M850.576 54.3248C850.576 54.3248 851.463 54.0088 853.092 53.6563C855.399 53.1473 857.778 53.0526 860.118 53.3767C863.59 53.8415 866.867 55.2548 869.588 57.4611C872.913 60.1752 875.261 63.9017 876.273 68.0732V68.1947L876.468 68.9484L876.76 68.2677C878.377 64.2893 881.167 60.8974 884.758 58.543C887.67 56.6475 891.017 55.5262 894.483 55.2852C896.828 55.1154 899.186 55.3331 901.46 55.9294C903.077 56.3549 903.892 56.7317 903.892 56.6831C903.704 56.5538 903.5 56.4515 903.284 56.3792C902.688 56.1313 902.08 55.9162 901.46 55.7349C898.614 54.91 895.624 54.7002 892.69 55.1194C889.756 55.5385 886.944 56.5771 884.442 58.1661C880.757 60.5321 877.888 63.9737 876.225 68.0246H876.711V67.903C875.686 63.6214 873.265 59.8025 869.831 57.0478C867.494 55.1896 864.762 53.8941 861.844 53.2617C858.927 52.6294 855.903 52.677 853.007 53.401C852.374 53.5518 851.753 53.7468 851.147 53.9845C850.942 54.0719 850.75 54.1864 850.576 54.3248Z" fill="#A5C08B"/>
<path d="M756.306 24.0566C756.306 24.0566 756.805 23.9108 757.704 23.7284C758.969 23.4711 760.268 23.4341 761.545 23.619C763.438 23.8783 765.222 24.6567 766.7 25.8679C768.511 27.3448 769.791 29.3719 770.346 31.6419L770.541 32.4077L770.82 31.6905C771.714 29.5384 773.229 27.7016 775.172 26.4149C776.767 25.3756 778.598 24.7567 780.497 24.6158C781.782 24.5175 783.074 24.6242 784.326 24.9319C785.201 25.1507 785.675 25.3452 785.699 25.3087C785.724 25.2722 785.59 25.2236 785.371 25.1264C785.048 24.9751 784.715 24.8452 784.374 24.7374C783.112 24.3489 781.791 24.1884 780.472 24.2633C778.498 24.3524 776.582 24.9603 774.917 26.0259C772.868 27.3341 771.276 29.2452 770.358 31.496H770.833C770.268 29.1005 768.92 26.9617 767.004 25.4181C765.697 24.3936 764.169 23.6895 762.541 23.3623C760.914 23.0351 759.232 23.0939 757.631 23.5339C757.282 23.6223 756.94 23.7402 756.61 23.8864C756.416 23.9837 756.294 24.0323 756.306 24.0566Z" fill="#A5C08B"/>
<path d="M826.265 0C826.265 0 826.751 0.559175 827.614 1.53165C828.833 2.92111 829.935 4.40923 830.908 5.98072C834.128 11.1815 835.814 17.1861 835.771 23.3029V23.5217H836.281C836.775 20.2321 837.845 17.0554 839.442 14.1373C841.625 10.1343 844.709 6.69292 848.449 4.08439C849.519 3.34288 850.139 2.96605 850.115 2.92958C849.947 2.98496 849.787 3.06265 849.64 3.16054C849.194 3.38836 848.76 3.63994 848.34 3.91421C846.782 4.91216 845.331 6.06913 844.012 7.36649C839.607 11.7015 836.717 17.3412 835.771 23.4488H836.281V23.2907C836.327 17.0785 834.552 10.9889 831.176 5.77406C830.178 4.21431 829.034 2.75306 827.76 1.41009C827.322 0.923854 826.921 0.595641 826.678 0.352523C826.555 0.21866 826.416 0.100279 826.265 0Z" fill="#A5C08B"/>
</g>
<rect y="428" width="1366" height="167" fill="#C7C7C7"/>
<rect y="447" width="1366" height="10" fill="white"/>
<rect y="565" width="1366" height="10" fill="white"/>
<rect x="15" y="506" width="40" height="10" fill="white"/>
<rect x="95" y="506" width="40" height="10" fill="white"/>
<rect x="175" y="506" width="40" height="10" fill="white"/>
<rect x="254" y="506" width="40" height="10" fill="white"/>
<rect x="332" y="506" width="40" height="10" fill="white"/>
<rect x="412" y="506" width="40" height="10" fill="white"/>
<rect x="492" y="506" width="40" height="10" fill="white"/>
<rect x="572" y="506" width="40" height="10" fill="white"/>
<rect x="652" y="506" width="40" height="10" fill="white"/>
<rect x="732" y="506" width="40" height="10" fill="white"/>
<rect x="812" y="506" width="40" height="10" fill="white"/>
<rect x="892" y="506" width="40" height="10" fill="white"/>
<rect x="972" y="506" width="40" height="10" fill="white"/>
<rect x="1052" y="506" width="40" height="10" fill="white"/>
<rect x="1132" y="506" width="40" height="10" fill="white"/>
<rect x="1212" y="506" width="40" height="10" fill="white"/>
<rect x="1292" y="506" width="40" height="10" fill="white"/>
</svg>
