<svg width="1366" height="654" viewBox="0 0 1366 654" fill="none" xmlns="http://www.w3.org/2000/svg">
<g opacity="0.3">
<path d="M34.7592 241.405H129.247V488.729H34.7592V241.405Z" fill="#ECA69B"/>
<path d="M34.7588 241.405H82.0088V488.729H34.7588V241.405Z" fill="#FFCBC3"/>
<path d="M85.0979 212H118.466V241.393H85.0979V212Z" fill="#ECA69B"/>
<path d="M85.0969 212H93.0469V241.393H85.0969V212Z" fill="#FFCBC3"/>
<path d="M31.9997 239.691H137.124V241.405H31.9997V239.691Z" fill="#FFCBC3"/>
<path d="M102.602 254.218H110.601V271.078H102.602V254.218Z" fill="#FFE3DF"/>
<path d="M82.0092 277.703C82.0092 277.885 92.5848 278.031 105.628 278.031C118.671 278.031 129.247 277.885 129.247 277.703C129.247 277.52 118.671 277.387 105.628 277.387C92.5848 277.387 82.0092 277.545 82.0092 277.703Z" fill="#FFCBC3"/>
<path d="M54.9379 254.218H62.9365V271.078H54.9379V254.218Z" fill="#FFE3DF"/>
<path d="M34.3467 277.703C34.3467 277.885 44.9223 278.031 57.9656 278.031C71.0089 278.031 81.5967 277.885 81.5967 277.703C81.5967 277.52 71.021 277.387 57.9656 277.387C44.9101 277.387 34.3467 277.545 34.3467 277.703Z" fill="#ECA69B"/>
<path d="M54.9379 287.707H62.9365V304.567H54.9379V287.707Z" fill="#FFE3DF"/>
<path d="M34.3467 311.192C34.3467 311.362 44.9223 311.508 57.9656 311.508C71.0089 311.508 81.5967 311.362 81.5967 311.192C81.5967 311.022 71.021 310.864 57.9656 310.864C44.9101 310.864 34.3467 311.01 34.3467 311.192Z" fill="#ECA69B"/>
<path d="M54.9379 322.193H62.9365V339.054H54.9379V322.193Z" fill="#FFE3DF"/>
<path d="M34.3467 345.679C34.3467 345.861 44.9223 346.007 57.9656 346.007C71.0089 346.007 81.5967 345.861 81.5967 345.679C81.5967 345.496 71.021 345.363 57.9656 345.363C44.9101 345.363 34.3467 345.508 34.3467 345.679Z" fill="#ECA69B"/>
<path d="M54.9379 356.692H62.9365V373.552H54.9379V356.692Z" fill="#FFE3DF"/>
<path d="M34.3467 380.177C34.3467 380.359 44.9223 380.493 57.9656 380.493C71.0089 380.493 81.5967 380.359 81.5967 380.177C81.5967 379.994 71.021 379.849 57.9656 379.849C44.9101 379.849 34.3467 379.994 34.3467 380.177Z" fill="#ECA69B"/>
<path d="M54.9379 390.193H62.9365V407.054H54.9379V390.193Z" fill="#FFE3DF"/>
<path d="M34.3467 413.691C34.3467 413.873 44.9223 414.019 57.9656 414.019C71.0089 414.019 81.5967 413.873 81.5967 413.691C81.5967 413.508 71.021 413.375 57.9656 413.375C44.9101 413.375 34.3467 413.508 34.3467 413.691Z" fill="#ECA69B"/>
<path d="M54.9379 423.841H62.9365V440.701H54.9379V423.841Z" fill="#FFE3DF"/>
<path d="M54.9379 457.926H62.9365V474.787H54.9379V457.926Z" fill="#FFE3DF"/>
<path d="M34.3467 447.326C34.3467 447.496 44.9223 447.642 57.9656 447.642C71.0089 447.642 81.5967 447.496 81.5967 447.326C81.5967 447.156 71.021 446.998 57.9656 446.998C44.9101 446.998 34.3467 447.144 34.3467 447.326Z" fill="#ECA69B"/>
<path d="M102.602 288.218H110.601V305.078H102.602V288.218Z" fill="#FFE3DF"/>
<path d="M82.0092 311.703C82.0092 311.873 92.5848 312.019 105.628 312.019C118.671 312.019 129.247 311.873 129.247 311.703C129.247 311.533 118.671 311.375 105.628 311.375C92.5848 311.375 82.0092 311.581 82.0092 311.703Z" fill="#FFCBC3"/>
<path d="M102.602 322.206H110.601V339.066H102.602V322.206Z" fill="#FFE3DF"/>
<path d="M82.0092 345.691C82.0092 345.873 92.5848 346.019 105.628 346.019C118.671 346.019 129.247 345.873 129.247 345.691C129.247 345.508 118.671 345.375 105.628 345.375C92.5848 345.375 82.0092 345.52 82.0092 345.691Z" fill="#FFCBC3"/>
<path d="M102.602 356.206H110.601V373.066H102.602V356.206Z" fill="#FFE3DF"/>
<path d="M82.0092 379.654C82.0092 379.825 92.5848 379.97 105.628 379.97C118.671 379.97 129.247 379.825 129.247 379.654C129.247 379.484 118.671 379.326 105.628 379.326C92.5848 379.326 82.0092 379.508 82.0092 379.654Z" fill="#FFCBC3"/>
<path d="M102.602 390.193H110.601V407.054H102.602V390.193Z" fill="#FFE3DF"/>
<path d="M82.0092 413.691C82.0092 413.873 92.5848 414.019 105.628 414.019C118.671 414.019 129.247 413.873 129.247 413.691C129.247 413.508 118.671 413.375 105.628 413.375C92.5848 413.375 82.0092 413.508 82.0092 413.691Z" fill="#FFCBC3"/>
<path d="M102.602 424.194H110.601V441.054H102.602V424.194Z" fill="#FFE3DF"/>
<path d="M82.0092 447.727C82.0092 447.898 92.5848 448.043 105.628 448.043C118.671 448.043 129.247 447.898 129.247 447.727C129.247 447.557 118.671 447.399 105.628 447.399C92.5848 447.399 82.0092 447.496 82.0092 447.727Z" fill="#FFCBC3"/>
<path d="M102.602 458.182H110.601V475.042H102.602V458.182Z" fill="#FFE3DF"/>
<path d="M119.939 488.513H277.747L278.439 239.098H120.619L119.939 488.513Z" fill="#ECA69B"/>
<path d="M120.631 239.11H199.535V488.513H120.631V239.11Z" fill="#FFCBC3"/>
<path d="M204.689 190H260.412V239.098H204.689V190Z" fill="#ECA69B"/>
<path d="M204.689 190H217.976V239.098H204.689V190Z" fill="#FFCBC3"/>
<path d="M116 236.241H291.58V239.11H116V236.241Z" fill="#FFCBC3"/>
<path d="M233.924 260.517H247.283V288.682H233.924V260.517Z" fill="#FFE3DF"/>
<path d="M199.524 299.744C199.524 300.036 217.186 300.279 238.97 300.279C260.753 300.279 278.428 300.036 278.428 299.744C278.428 299.452 260.765 299.197 238.97 299.197C217.174 299.197 199.524 299.44 199.524 299.744Z" fill="#FFCBC3"/>
<path d="M154.328 260.517H167.688V288.682H154.328V260.517Z" fill="#FFE3DF"/>
<path d="M119.939 299.744C119.939 300.036 137.601 300.279 159.385 300.279C181.168 300.279 198.843 300.036 198.843 299.744C198.843 299.452 181.18 299.197 159.385 299.197C137.589 299.197 119.939 299.44 119.939 299.744Z" fill="#ECA69B"/>
<path d="M154.328 316.434H167.688V344.599H154.328V316.434Z" fill="#FFE3DF"/>
<path d="M119.939 355.661C119.939 355.953 137.601 356.196 159.385 356.196C181.168 356.196 198.843 355.953 198.843 355.661C198.843 355.369 181.18 355.126 159.385 355.126C137.589 355.126 119.939 355.357 119.939 355.661Z" fill="#ECA69B"/>
<path d="M154.328 374.053H167.688V402.218H154.328V374.053Z" fill="#FFE3DF"/>
<path d="M119.939 413.268C119.939 413.56 137.601 413.803 159.385 413.803C181.168 413.803 198.843 413.56 198.843 413.268C198.843 412.976 181.18 412.733 159.385 412.733C137.589 412.733 119.939 412.976 119.939 413.268Z" fill="#ECA69B"/>
<path d="M154.328 431.66H167.688V459.825H154.328V431.66Z" fill="#FFE3DF"/>
<path d="M119.939 470.875C119.939 471.178 137.601 471.409 159.385 471.409C181.168 471.409 198.843 471.178 198.843 470.875C198.843 470.571 181.18 470.315 159.409 470.315C137.638 470.315 119.939 470.583 119.939 470.875Z" fill="#ECA69B"/>
<path d="M233.924 317.297H247.283V345.462H233.924V317.297Z" fill="#FFE3DF"/>
<path d="M199.524 356.512C199.524 356.816 217.186 357.047 238.97 357.047C260.753 357.047 278.428 356.816 278.428 356.512C278.428 356.208 260.765 355.977 238.97 355.977C217.174 355.977 199.524 356.22 199.524 356.512Z" fill="#FFCBC3"/>
<path d="M233.924 374.065H247.283V402.23H233.924V374.065Z" fill="#FFE3DF"/>
<path d="M199.524 413.292C199.524 413.584 217.186 413.827 238.97 413.827C260.753 413.827 278.428 413.584 278.428 413.292C278.428 413 260.765 412.745 238.97 412.745C217.174 412.745 199.524 412.988 199.524 413.292Z" fill="#FFCBC3"/>
<path d="M233.924 430.845H247.283V459.01H233.924V430.845Z" fill="#FFE3DF"/>
<path d="M199.524 470.06C199.524 470.364 217.186 470.595 238.97 470.595C260.753 470.595 278.428 470.364 278.428 470.06C278.428 469.756 260.765 469.525 238.97 469.525C217.174 469.525 199.524 469.769 199.524 470.06Z" fill="#FFCBC3"/>
<path d="M1218.14 149.368H1325.38V489.247H1218.14V149.368Z" fill="#FFCBC3"/>
<path d="M1218.14 149.368H1271.76V488.311H1218.14V149.368Z" fill="#ECA69B"/>
<path d="M1275.27 116H1313.13V149.368H1275.27V116Z" fill="#FFE3DF"/>
<path d="M1275.26 116H1284.29V149.368H1275.26V116Z" fill="#ECA69B"/>
<path d="M1334.32 149.368V147.423H1215V149.368" fill="#FFCBC3"/>
<path d="M1295.13 163.918H1304.21V183.064H1295.13V163.918Z" fill="#ECA69B"/>
<path d="M1271.76 190.564C1271.76 190.771 1283.77 190.929 1298.57 190.929C1313.38 190.929 1325.38 190.771 1325.38 190.564C1325.38 190.358 1313.38 190.2 1298.57 190.2C1283.77 190.2 1271.76 190.37 1271.76 190.564Z" fill="#FFCBC3"/>
<path d="M1241.04 163.918H1250.12V183.064H1241.04V163.918Z" fill="#FFCBC3"/>
<path d="M1217.67 190.564C1217.67 190.771 1229.67 190.929 1244.42 190.929C1259.16 190.929 1271.23 190.771 1271.23 190.564C1271.23 190.358 1259.22 190.2 1244.42 190.2C1229.61 190.2 1217.67 190.37 1217.67 190.564Z" fill="#FFCBC3"/>
<path d="M1241.04 201.918H1250.12V221.064H1241.04V201.918Z" fill="#FFCBC3"/>
<path d="M1217.67 228.576C1217.67 228.77 1229.67 228.941 1244.42 228.941C1259.16 228.941 1271.23 228.77 1271.23 228.576C1271.23 228.381 1259.22 228.211 1244.42 228.211C1229.61 228.211 1217.67 228.369 1217.67 228.576Z" fill="#FFCBC3"/>
<path d="M1241.04 241.072H1250.12V260.218H1241.04V241.072Z" fill="#FFCBC3"/>
<path d="M1217.67 267.718C1217.67 267.925 1229.67 268.083 1244.42 268.083C1259.16 268.083 1271.23 267.925 1271.23 267.718C1271.23 267.511 1259.22 267.353 1244.42 267.353C1229.61 267.353 1217.67 267.523 1217.67 267.718Z" fill="#FFCBC3"/>
<path d="M1241.04 280.214H1250.12V299.36H1241.04V280.214Z" fill="#FFCBC3"/>
<path d="M1217.67 306.872C1217.67 307.066 1229.67 307.237 1244.42 307.237C1259.16 307.237 1271.23 307.066 1271.23 306.872C1271.23 306.678 1259.22 306.507 1244.42 306.507C1229.61 306.507 1217.67 306.665 1217.67 306.872Z" fill="#FFCBC3"/>
<path d="M1241.04 318.25H1250.12V337.396H1241.04V318.25Z" fill="#FFCBC3"/>
<path d="M1217.67 344.896C1217.67 345.102 1229.67 345.26 1244.42 345.26C1259.16 345.26 1271.23 345.102 1271.23 344.896C1271.23 344.689 1259.22 344.531 1244.42 344.531C1229.61 344.531 1217.67 344.701 1217.67 344.896Z" fill="#FFCBC3"/>
<path d="M1241.04 356.432H1250.12V375.577H1241.04V356.432Z" fill="#FFCBC3"/>
<path d="M1241.04 395.112H1250.12V414.257H1241.04V395.112Z" fill="#FFCBC3"/>
<path d="M1217.67 383.078C1217.67 383.284 1229.67 383.442 1244.42 383.442C1259.16 383.442 1271.23 383.284 1271.23 383.078C1271.23 382.871 1259.22 382.713 1244.42 382.713C1229.61 382.713 1217.67 382.883 1217.67 383.078Z" fill="#FFCBC3"/>
<path d="M1295.13 202.501H1304.21V221.647H1295.13V202.501Z" fill="#ECA69B"/>
<path d="M1271.76 229.147C1271.76 229.354 1283.77 229.512 1298.57 229.512C1313.38 229.512 1325.38 229.354 1325.38 229.147C1325.38 228.941 1313.38 228.782 1298.57 228.782C1283.77 228.782 1271.76 228.953 1271.76 229.147Z" fill="#FFCBC3"/>
<path d="M1295.13 241.084H1304.21V260.23H1295.13V241.084Z" fill="#ECA69B"/>
<path d="M1271.76 267.73C1271.76 267.937 1283.77 268.095 1298.57 268.095C1313.38 268.095 1325.38 267.937 1325.38 267.73C1325.38 267.524 1313.38 267.365 1298.57 267.365C1283.77 267.365 1271.76 267.536 1271.76 267.73Z" fill="#FFCBC3"/>
<path d="M1295.13 279.667H1304.21V298.813H1295.13V279.667Z" fill="#ECA69B"/>
<path d="M1271.76 306.313C1271.76 306.52 1283.77 306.678 1298.57 306.678C1313.38 306.678 1325.38 306.52 1325.38 306.313C1325.38 306.106 1313.38 305.948 1298.57 305.948C1283.77 305.948 1271.76 306.118 1271.76 306.313Z" fill="#FFCBC3"/>
<path d="M1295.13 318.25H1304.21V337.396H1295.13V318.25Z" fill="#ECA69B"/>
<path d="M1271.76 344.896C1271.76 345.102 1283.77 345.26 1298.57 345.26C1313.38 345.26 1325.38 345.102 1325.38 344.896C1325.38 344.689 1313.38 344.531 1298.57 344.531C1283.77 344.531 1271.76 344.701 1271.76 344.896Z" fill="#FFCBC3"/>
<path d="M1295.13 356.833H1304.21V375.979H1295.13V356.833Z" fill="#ECA69B"/>
<path d="M1271.76 383.455C1271.76 383.661 1283.77 383.819 1298.57 383.819C1313.38 383.819 1325.38 383.661 1325.38 383.455C1325.38 383.248 1313.38 383.09 1298.57 383.09C1283.77 383.09 1271.76 383.272 1271.76 383.455Z" fill="#FFCBC3"/>
<path d="M1295.13 395.404H1304.21V414.549H1295.13V395.404Z" fill="#ECA69B"/>
<path d="M318.137 149.368H425.376V489.247H318.137V149.368Z" fill="#FFCBC3"/>
<path d="M318.136 149.368H371.756V488.311H318.136V149.368Z" fill="#ECA69B"/>
<path d="M375.269 116H413.135V149.368H375.269V116Z" fill="#FFE3DF"/>
<path d="M375.257 116H384.289V149.368H375.257V116Z" fill="#ECA69B"/>
<path d="M434.322 149.368V147.423H315V149.368" fill="#FFCBC3"/>
<path d="M395.132 163.918H404.213V183.064H395.132V163.918Z" fill="#ECA69B"/>
<path d="M371.756 190.564C371.756 190.771 383.766 190.929 398.572 190.929C413.378 190.929 425.376 190.771 425.376 190.564C425.376 190.358 413.378 190.2 398.572 190.2C383.766 190.2 371.756 190.37 371.756 190.564Z" fill="#FFCBC3"/>
<path d="M341.039 163.918H350.119V183.064H341.039V163.918Z" fill="#FFCBC3"/>
<path d="M317.674 190.564C317.674 190.771 329.672 190.929 344.417 190.929C359.163 190.929 371.233 190.771 371.233 190.564C371.233 190.358 359.223 190.2 344.417 190.2C329.612 190.2 317.674 190.37 317.674 190.564Z" fill="#FFCBC3"/>
<path d="M341.039 201.918H350.119V221.064H341.039V201.918Z" fill="#FFCBC3"/>
<path d="M317.674 228.576C317.674 228.77 329.672 228.941 344.417 228.941C359.163 228.941 371.233 228.77 371.233 228.576C371.233 228.381 359.223 228.211 344.417 228.211C329.612 228.211 317.674 228.369 317.674 228.576Z" fill="#FFCBC3"/>
<path d="M341.039 241.072H350.119V260.218H341.039V241.072Z" fill="#FFCBC3"/>
<path d="M317.674 267.718C317.674 267.925 329.672 268.083 344.417 268.083C359.163 268.083 371.233 267.925 371.233 267.718C371.233 267.511 359.223 267.353 344.417 267.353C329.612 267.353 317.674 267.523 317.674 267.718Z" fill="#FFCBC3"/>
<path d="M341.039 280.214H350.119V299.36H341.039V280.214Z" fill="#FFCBC3"/>
<path d="M317.674 306.872C317.674 307.066 329.672 307.237 344.417 307.237C359.163 307.237 371.233 307.066 371.233 306.872C371.233 306.678 359.223 306.507 344.417 306.507C329.612 306.507 317.674 306.665 317.674 306.872Z" fill="#FFCBC3"/>
<path d="M341.039 318.25H350.119V337.396H341.039V318.25Z" fill="#FFCBC3"/>
<path d="M317.674 344.896C317.674 345.102 329.672 345.26 344.417 345.26C359.163 345.26 371.233 345.102 371.233 344.896C371.233 344.689 359.223 344.531 344.417 344.531C329.612 344.531 317.674 344.701 317.674 344.896Z" fill="#FFCBC3"/>
<path d="M341.039 356.432H350.119V375.577H341.039V356.432Z" fill="#FFCBC3"/>
<path d="M341.039 395.112H350.119V414.257H341.039V395.112Z" fill="#FFCBC3"/>
<path d="M317.674 383.078C317.674 383.284 329.672 383.442 344.417 383.442C359.163 383.442 371.233 383.284 371.233 383.078C371.233 382.871 359.223 382.713 344.417 382.713C329.612 382.713 317.674 382.883 317.674 383.078Z" fill="#FFCBC3"/>
<path d="M395.132 202.501H404.213V221.647H395.132V202.501Z" fill="#ECA69B"/>
<path d="M371.756 229.147C371.756 229.354 383.766 229.512 398.572 229.512C413.378 229.512 425.376 229.354 425.376 229.147C425.376 228.941 413.378 228.782 398.572 228.782C383.766 228.782 371.756 228.953 371.756 229.147Z" fill="#FFCBC3"/>
<path d="M395.132 241.084H404.213V260.23H395.132V241.084Z" fill="#ECA69B"/>
<path d="M371.756 267.73C371.756 267.937 383.766 268.095 398.572 268.095C413.378 268.095 425.376 267.937 425.376 267.73C425.376 267.524 413.378 267.365 398.572 267.365C383.766 267.365 371.756 267.536 371.756 267.73Z" fill="#FFCBC3"/>
<path d="M395.132 279.667H404.213V298.813H395.132V279.667Z" fill="#ECA69B"/>
<path d="M371.756 306.313C371.756 306.52 383.766 306.678 398.572 306.678C413.378 306.678 425.376 306.52 425.376 306.313C425.376 306.106 413.378 305.948 398.572 305.948C383.766 305.948 371.756 306.118 371.756 306.313Z" fill="#FFCBC3"/>
<path d="M395.132 318.25H404.213V337.396H395.132V318.25Z" fill="#ECA69B"/>
<path d="M371.756 344.896C371.756 345.102 383.766 345.26 398.572 345.26C413.378 345.26 425.376 345.102 425.376 344.896C425.376 344.689 413.378 344.531 398.572 344.531C383.766 344.531 371.756 344.701 371.756 344.896Z" fill="#FFCBC3"/>
<path d="M395.132 356.833H404.213V375.979H395.132V356.833Z" fill="#ECA69B"/>
<path d="M371.756 383.455C371.756 383.661 383.766 383.819 398.572 383.819C413.378 383.819 425.376 383.661 425.376 383.455C425.376 383.248 413.378 383.09 398.572 383.09C383.766 383.09 371.756 383.272 371.756 383.455Z" fill="#FFCBC3"/>
<path d="M395.132 395.404H404.213V414.549H395.132V395.404Z" fill="#ECA69B"/>
<path d="M1082.77 282.418H1239.32V488.923H1082.77V282.418Z" fill="#ECA69B"/>
<path d="M1082.77 282.418H1156.18V488.923H1082.77V282.418Z" fill="#FFCBC3"/>
<path d="M1192.42 310.365H1206.5V344.56H1192.42V310.365Z" fill="#FFE3DF"/>
<path d="M1192.42 444.226H1206.5V478.433H1192.42V444.226Z" fill="#FFE3DF"/>
<path d="M1156.18 357.992C1156.18 358.381 1174.79 358.685 1197.75 358.685C1220.71 358.685 1239.32 358.381 1239.32 357.992C1239.32 357.603 1220.71 357.299 1197.75 357.299C1174.79 357.299 1156.18 357.615 1156.18 357.992Z" fill="#FFE3DF"/>
<path d="M1192.42 377.806H1206.5V412H1192.42V377.806Z" fill="#FFE3DF"/>
<path d="M1156.18 425.433C1156.18 425.81 1174.79 426.126 1197.75 426.126C1220.71 426.126 1239.32 425.81 1239.32 425.433C1239.32 425.056 1220.71 424.728 1197.75 424.728C1174.79 424.728 1156.18 425.044 1156.18 425.433Z" fill="#FFE3DF"/>
<path d="M1126.5 310.365H1140.58V344.56H1126.5V310.365Z" fill="#FFE3DF"/>
<path d="M1095.97 310.365H1110.04V344.56H1095.97V310.365Z" fill="#FFE3DF"/>
<path d="M1126.5 375.265H1140.58V409.46H1126.5V375.265Z" fill="#FFE3DF"/>
<path d="M1095.97 375.265H1110.04V409.46H1095.97V375.265Z" fill="#FFE3DF"/>
<path d="M1126.5 440.166H1140.58V474.36H1126.5V440.166Z" fill="#FFE3DF"/>
<path d="M1095.97 440.166H1110.04V474.36H1095.97V440.166Z" fill="#FFE3DF"/>
<path d="M1071 275.222H1251.1V282.674H1071V275.222Z" fill="#FFCBC3"/>
<path d="M1081.67 283.367C1081.67 283.756 1116.67 284.072 1159.82 284.072C1202.97 284.072 1237.97 283.756 1237.97 283.367C1237.97 282.978 1202.99 282.674 1159.82 282.674C1116.66 282.674 1081.67 282.99 1081.67 283.367Z" fill="#ECA69B"/>
<path d="M802.766 282.196H959.322V488.701H802.766V282.196Z" fill="#ECA69B"/>
<path d="M802.766 282.196H876.176V488.701H802.766V282.196Z" fill="#FFCBC3"/>
<path d="M912.424 310.143H926.501V344.337H912.424V310.143Z" fill="#FFE3DF"/>
<path d="M912.424 444.004H926.501V478.21H912.424V444.004Z" fill="#FFE3DF"/>
<path d="M876.176 357.77C876.176 358.159 894.787 358.462 917.749 358.462C940.712 358.462 959.322 358.159 959.322 357.77C959.322 357.381 940.712 357.077 917.749 357.077C894.787 357.077 876.176 357.393 876.176 357.77Z" fill="#FFE3DF"/>
<path d="M912.424 377.584H926.501V411.778H912.424V377.584Z" fill="#FFE3DF"/>
<path d="M876.176 425.211C876.176 425.588 894.787 425.904 917.749 425.904C940.712 425.904 959.322 425.588 959.322 425.211C959.322 424.834 940.712 424.506 917.749 424.506C894.787 424.506 876.176 424.822 876.176 425.211Z" fill="#FFE3DF"/>
<path d="M846.503 310.143H860.579V344.337H846.503V310.143Z" fill="#FFE3DF"/>
<path d="M815.967 310.143H830.044V344.337H815.967V310.143Z" fill="#FFE3DF"/>
<path d="M846.503 375.043H860.579V409.238H846.503V375.043Z" fill="#FFE3DF"/>
<path d="M815.967 375.043H830.044V409.238H815.967V375.043Z" fill="#FFE3DF"/>
<path d="M846.503 439.944H860.579V474.138H846.503V439.944Z" fill="#FFE3DF"/>
<path d="M815.967 439.944H830.044V474.138H815.967V439.944Z" fill="#FFE3DF"/>
<path d="M791 275H971.102V282.452H791V275Z" fill="#FFCBC3"/>
<path d="M801.671 283.145C801.671 283.534 836.668 283.85 879.821 283.85C922.975 283.85 957.972 283.534 957.972 283.145C957.972 282.756 922.987 282.452 879.821 282.452C836.656 282.452 801.671 282.768 801.671 283.145Z" fill="#ECA69B"/>
<path d="M900.759 241.405H995.247V488.729H900.759V241.405Z" fill="#ECA69B"/>
<path d="M900.759 241.405H948.009V488.729H900.759V241.405Z" fill="#FFCBC3"/>
<path d="M951.098 212H984.466V241.393H951.098V212Z" fill="#ECA69B"/>
<path d="M951.097 212H959.047V241.393H951.097V212Z" fill="#FFCBC3"/>
<path d="M898 239.691H1003.12V241.405H898V239.691Z" fill="#FFCBC3"/>
<path d="M968.602 254.218H976.601V271.078H968.602V254.218Z" fill="#FFE3DF"/>
<path d="M948.009 277.703C948.009 277.885 958.585 278.031 971.628 278.031C984.671 278.031 995.247 277.885 995.247 277.703C995.247 277.52 984.671 277.387 971.628 277.387C958.585 277.387 948.009 277.545 948.009 277.703Z" fill="#FFCBC3"/>
<path d="M920.938 254.218H928.937V271.078H920.938V254.218Z" fill="#FFE3DF"/>
<path d="M900.347 277.703C900.347 277.885 910.922 278.031 923.966 278.031C937.009 278.031 947.597 277.885 947.597 277.703C947.597 277.52 937.021 277.387 923.966 277.387C910.91 277.387 900.347 277.545 900.347 277.703Z" fill="#ECA69B"/>
<path d="M920.938 287.707H928.937V304.567H920.938V287.707Z" fill="#FFE3DF"/>
<path d="M900.347 311.192C900.347 311.362 910.922 311.508 923.966 311.508C937.009 311.508 947.597 311.362 947.597 311.192C947.597 311.022 937.021 310.864 923.966 310.864C910.91 310.864 900.347 311.01 900.347 311.192Z" fill="#ECA69B"/>
<path d="M920.938 322.193H928.937V339.054H920.938V322.193Z" fill="#FFE3DF"/>
<path d="M900.347 345.679C900.347 345.861 910.922 346.007 923.966 346.007C937.009 346.007 947.597 345.861 947.597 345.679C947.597 345.496 937.021 345.363 923.966 345.363C910.91 345.363 900.347 345.508 900.347 345.679Z" fill="#ECA69B"/>
<path d="M920.938 356.692H928.937V373.552H920.938V356.692Z" fill="#FFE3DF"/>
<path d="M900.347 380.177C900.347 380.359 910.922 380.493 923.966 380.493C937.009 380.493 947.597 380.359 947.597 380.177C947.597 379.994 937.021 379.849 923.966 379.849C910.91 379.849 900.347 379.994 900.347 380.177Z" fill="#ECA69B"/>
<path d="M920.938 390.193H928.937V407.054H920.938V390.193Z" fill="#FFE3DF"/>
<path d="M900.347 413.691C900.347 413.873 910.922 414.019 923.966 414.019C937.009 414.019 947.597 413.873 947.597 413.691C947.597 413.508 937.021 413.375 923.966 413.375C910.91 413.375 900.347 413.508 900.347 413.691Z" fill="#ECA69B"/>
<path d="M920.938 423.841H928.937V440.701H920.938V423.841Z" fill="#FFE3DF"/>
<path d="M920.938 457.926H928.937V474.787H920.938V457.926Z" fill="#FFE3DF"/>
<path d="M900.347 447.326C900.347 447.496 910.922 447.642 923.966 447.642C937.009 447.642 947.597 447.496 947.597 447.326C947.597 447.156 937.021 446.998 923.966 446.998C910.91 446.998 900.347 447.144 900.347 447.326Z" fill="#ECA69B"/>
<path d="M968.602 288.218H976.601V305.078H968.602V288.218Z" fill="#FFE3DF"/>
<path d="M948.009 311.703C948.009 311.873 958.585 312.019 971.628 312.019C984.671 312.019 995.247 311.873 995.247 311.703C995.247 311.533 984.671 311.375 971.628 311.375C958.585 311.375 948.009 311.581 948.009 311.703Z" fill="#FFCBC3"/>
<path d="M968.602 322.206H976.601V339.066H968.602V322.206Z" fill="#FFE3DF"/>
<path d="M948.009 345.691C948.009 345.873 958.585 346.019 971.628 346.019C984.671 346.019 995.247 345.873 995.247 345.691C995.247 345.508 984.671 345.375 971.628 345.375C958.585 345.375 948.009 345.52 948.009 345.691Z" fill="#FFCBC3"/>
<path d="M968.602 356.206H976.601V373.066H968.602V356.206Z" fill="#FFE3DF"/>
<path d="M948.009 379.654C948.009 379.825 958.585 379.97 971.628 379.97C984.671 379.97 995.247 379.825 995.247 379.654C995.247 379.484 984.671 379.326 971.628 379.326C958.585 379.326 948.009 379.508 948.009 379.654Z" fill="#FFCBC3"/>
<path d="M968.602 390.193H976.601V407.054H968.602V390.193Z" fill="#FFE3DF"/>
<path d="M948.009 413.691C948.009 413.873 958.585 414.019 971.628 414.019C984.671 414.019 995.247 413.873 995.247 413.691C995.247 413.508 984.671 413.375 971.628 413.375C958.585 413.375 948.009 413.508 948.009 413.691Z" fill="#FFCBC3"/>
<path d="M968.602 424.194H976.601V441.054H968.602V424.194Z" fill="#FFE3DF"/>
<path d="M948.009 447.727C948.009 447.898 958.585 448.043 971.628 448.043C984.671 448.043 995.247 447.898 995.247 447.727C995.247 447.557 984.671 447.399 971.628 447.399C958.585 447.399 948.009 447.496 948.009 447.727Z" fill="#FFCBC3"/>
<path d="M968.602 458.182H976.601V475.042H968.602V458.182Z" fill="#FFE3DF"/>
<path d="M494.305 282.378H650.861V488.882H494.305V282.378Z" fill="#ECA69B"/>
<path d="M494.305 282.378H567.715V488.882H494.305V282.378Z" fill="#FFCBC3"/>
<path d="M603.964 310.324H618.041V344.519H603.964V310.324Z" fill="#FFE3DF"/>
<path d="M603.964 444.185H618.041V478.392H603.964V444.185Z" fill="#FFE3DF"/>
<path d="M567.715 357.951C567.715 358.34 586.326 358.644 609.288 358.644C632.251 358.644 650.861 358.34 650.861 357.951C650.861 357.562 632.251 357.258 609.288 357.258C586.326 357.258 567.715 357.574 567.715 357.951Z" fill="#FFE3DF"/>
<path d="M603.964 377.765H618.041V411.96H603.964V377.765Z" fill="#FFE3DF"/>
<path d="M567.715 425.392C567.715 425.769 586.326 426.085 609.288 426.085C632.251 426.085 650.861 425.769 650.861 425.392C650.861 425.015 632.251 424.687 609.288 424.687C586.326 424.687 567.715 425.003 567.715 425.392Z" fill="#FFE3DF"/>
<path d="M538.042 310.324H552.118V344.519H538.042V310.324Z" fill="#FFE3DF"/>
<path d="M507.506 310.324H521.583V344.519H507.506V310.324Z" fill="#FFE3DF"/>
<path d="M538.042 375.224H552.118V409.419H538.042V375.224Z" fill="#FFE3DF"/>
<path d="M507.506 375.224H521.583V409.419H507.506V375.224Z" fill="#FFE3DF"/>
<path d="M538.042 440.125H552.118V474.319H538.042V440.125Z" fill="#FFE3DF"/>
<path d="M507.506 440.125H521.583V474.319H507.506V440.125Z" fill="#FFE3DF"/>
<path d="M482.54 275.181H662.642V282.633H482.54V275.181Z" fill="#FFCBC3"/>
<path d="M493.212 283.326C493.212 283.715 528.209 284.031 571.362 284.031C614.516 284.031 649.513 283.715 649.513 283.326C649.513 282.937 614.528 282.633 571.362 282.633C528.197 282.633 493.212 282.949 493.212 283.326Z" fill="#ECA69B"/>
<path d="M635.939 488.513H793.747L794.439 239.098H636.619L635.939 488.513Z" fill="#ECA69B"/>
<path d="M636.631 239.11H715.535V488.513H636.631V239.11Z" fill="#FFCBC3"/>
<path d="M720.689 190H776.412V239.098H720.689V190Z" fill="#ECA69B"/>
<path d="M720.689 190H733.976V239.098H720.689V190Z" fill="#FFCBC3"/>
<path d="M632 236.241H807.58V239.11H632V236.241Z" fill="#FFCBC3"/>
<path d="M749.924 260.516H763.283V288.682H749.924V260.516Z" fill="#FFE3DF"/>
<path d="M715.524 299.744C715.524 300.035 733.186 300.278 754.97 300.278C776.753 300.278 794.428 300.035 794.428 299.744C794.428 299.452 776.765 299.197 754.97 299.197C733.174 299.197 715.524 299.44 715.524 299.744Z" fill="#FFCBC3"/>
<path d="M670.328 260.516H683.688V288.682H670.328V260.516Z" fill="#FFE3DF"/>
<path d="M635.939 299.744C635.939 300.035 653.601 300.278 675.385 300.278C697.168 300.278 714.843 300.035 714.843 299.744C714.843 299.452 697.18 299.197 675.385 299.197C653.589 299.197 635.939 299.44 635.939 299.744Z" fill="#ECA69B"/>
<path d="M670.328 316.434H683.688V344.599H670.328V316.434Z" fill="#FFE3DF"/>
<path d="M635.939 355.661C635.939 355.953 653.601 356.196 675.385 356.196C697.168 356.196 714.843 355.953 714.843 355.661C714.843 355.369 697.18 355.126 675.385 355.126C653.589 355.126 635.939 355.357 635.939 355.661Z" fill="#ECA69B"/>
<path d="M670.328 374.053H683.688V402.218H670.328V374.053Z" fill="#FFE3DF"/>
<path d="M635.939 413.268C635.939 413.56 653.601 413.803 675.385 413.803C697.168 413.803 714.843 413.56 714.843 413.268C714.843 412.976 697.18 412.733 675.385 412.733C653.589 412.733 635.939 412.976 635.939 413.268Z" fill="#ECA69B"/>
<path d="M670.328 431.66H683.688V459.825H670.328V431.66Z" fill="#FFE3DF"/>
<path d="M635.939 470.875C635.939 471.178 653.601 471.409 675.385 471.409C697.168 471.409 714.843 471.178 714.843 470.875C714.843 470.571 697.18 470.315 675.409 470.315C653.638 470.315 635.939 470.583 635.939 470.875Z" fill="#ECA69B"/>
<path d="M749.924 317.297H763.283V345.462H749.924V317.297Z" fill="#FFE3DF"/>
<path d="M715.524 356.512C715.524 356.816 733.186 357.047 754.97 357.047C776.753 357.047 794.428 356.816 794.428 356.512C794.428 356.208 776.765 355.977 754.97 355.977C733.174 355.977 715.524 356.22 715.524 356.512Z" fill="#FFCBC3"/>
<path d="M749.924 374.065H763.283V402.23H749.924V374.065Z" fill="#FFE3DF"/>
<path d="M715.524 413.292C715.524 413.584 733.186 413.827 754.97 413.827C776.753 413.827 794.428 413.584 794.428 413.292C794.428 413 776.765 412.745 754.97 412.745C733.174 412.745 715.524 412.988 715.524 413.292Z" fill="#FFCBC3"/>
<path d="M749.924 430.845H763.283V459.01H749.924V430.845Z" fill="#FFE3DF"/>
<path d="M364.759 241.405H459.247V488.729H364.759V241.405Z" fill="#ECA69B"/>
<path d="M364.759 241.405H412.009V488.729H364.759V241.405Z" fill="#FFCBC3"/>
<path d="M415.097 212H448.465V241.393H415.097V212Z" fill="#ECA69B"/>
<path d="M415.097 212H423.047V241.393H415.097V212Z" fill="#FFCBC3"/>
<path d="M362 239.691H467.124V241.405H362V239.691Z" fill="#FFCBC3"/>
<path d="M432.601 254.218H440.6V271.078H432.601V254.218Z" fill="#FFE3DF"/>
<path d="M412.009 277.703C412.009 277.885 422.585 278.031 435.628 278.031C448.671 278.031 459.247 277.885 459.247 277.703C459.247 277.52 448.671 277.387 435.628 277.387C422.585 277.387 412.009 277.545 412.009 277.703Z" fill="#FFCBC3"/>
<path d="M384.938 254.218H392.937V271.078H384.938V254.218Z" fill="#FFE3DF"/>
<path d="M364.347 277.703C364.347 277.885 374.922 278.031 387.966 278.031C401.009 278.031 411.597 277.885 411.597 277.703C411.597 277.52 401.021 277.387 387.966 277.387C374.91 277.387 364.347 277.545 364.347 277.703Z" fill="#ECA69B"/>
<path d="M384.938 287.707H392.937V304.567H384.938V287.707Z" fill="#FFE3DF"/>
<path d="M364.347 311.192C364.347 311.362 374.922 311.508 387.966 311.508C401.009 311.508 411.597 311.362 411.597 311.192C411.597 311.022 401.021 310.864 387.966 310.864C374.91 310.864 364.347 311.01 364.347 311.192Z" fill="#ECA69B"/>
<path d="M384.938 322.193H392.937V339.054H384.938V322.193Z" fill="#FFE3DF"/>
<path d="M364.347 345.679C364.347 345.861 374.922 346.007 387.966 346.007C401.009 346.007 411.597 345.861 411.597 345.679C411.597 345.496 401.021 345.363 387.966 345.363C374.91 345.363 364.347 345.508 364.347 345.679Z" fill="#ECA69B"/>
<path d="M384.938 356.692H392.937V373.552H384.938V356.692Z" fill="#FFE3DF"/>
<path d="M364.347 380.177C364.347 380.359 374.922 380.493 387.966 380.493C401.009 380.493 411.597 380.359 411.597 380.177C411.597 379.995 401.021 379.849 387.966 379.849C374.91 379.849 364.347 379.995 364.347 380.177Z" fill="#ECA69B"/>
<path d="M384.938 390.193H392.937V407.054H384.938V390.193Z" fill="#FFE3DF"/>
<path d="M364.347 413.691C364.347 413.873 374.922 414.019 387.966 414.019C401.009 414.019 411.597 413.873 411.597 413.691C411.597 413.508 401.021 413.375 387.966 413.375C374.91 413.375 364.347 413.508 364.347 413.691Z" fill="#ECA69B"/>
<path d="M384.938 423.841H392.937V440.701H384.938V423.841Z" fill="#FFE3DF"/>
<path d="M384.938 457.926H392.937V474.787H384.938V457.926Z" fill="#FFE3DF"/>
<path d="M364.347 447.326C364.347 447.496 374.922 447.642 387.966 447.642C401.009 447.642 411.597 447.496 411.597 447.326C411.597 447.156 401.021 446.998 387.966 446.998C374.91 446.998 364.347 447.144 364.347 447.326Z" fill="#ECA69B"/>
<path d="M432.601 288.218H440.6V305.078H432.601V288.218Z" fill="#FFE3DF"/>
<path d="M412.009 311.703C412.009 311.873 422.585 312.019 435.628 312.019C448.671 312.019 459.247 311.873 459.247 311.703C459.247 311.533 448.671 311.375 435.628 311.375C422.585 311.375 412.009 311.581 412.009 311.703Z" fill="#FFCBC3"/>
<path d="M432.601 322.206H440.6V339.066H432.601V322.206Z" fill="#FFE3DF"/>
<path d="M412.009 345.691C412.009 345.873 422.585 346.019 435.628 346.019C448.671 346.019 459.247 345.873 459.247 345.691C459.247 345.508 448.671 345.375 435.628 345.375C422.585 345.375 412.009 345.52 412.009 345.691Z" fill="#FFCBC3"/>
<path d="M432.601 356.206H440.6V373.066H432.601V356.206Z" fill="#FFE3DF"/>
<path d="M412.009 379.654C412.009 379.825 422.585 379.97 435.628 379.97C448.671 379.97 459.247 379.825 459.247 379.654C459.247 379.484 448.671 379.326 435.628 379.326C422.585 379.326 412.009 379.508 412.009 379.654Z" fill="#FFCBC3"/>
<path d="M432.601 390.193H440.6V407.054H432.601V390.193Z" fill="#FFE3DF"/>
<path d="M412.009 413.691C412.009 413.873 422.585 414.019 435.628 414.019C448.671 414.019 459.247 413.873 459.247 413.691C459.247 413.508 448.671 413.375 435.628 413.375C422.585 413.375 412.009 413.508 412.009 413.691Z" fill="#FFCBC3"/>
<path d="M432.601 424.194H440.6V441.054H432.601V424.194Z" fill="#FFE3DF"/>
<path d="M412.009 447.727C412.009 447.898 422.585 448.043 435.628 448.043C448.671 448.043 459.247 447.898 459.247 447.727C459.247 447.557 448.671 447.399 435.628 447.399C422.585 447.399 412.009 447.496 412.009 447.727Z" fill="#FFCBC3"/>
<path d="M432.601 458.181H440.6V475.042H432.601V458.181Z" fill="#FFE3DF"/>
<path d="M1092.65 80.5404C1092.08 76.3588 1097.96 72.9308 1102.37 72.5783C1104.49 72.4081 1106.68 72.7241 1108.68 72.0313C1113.01 70.5239 1114.76 64.92 1118.97 63.1453C1122.13 61.8081 1125.76 62.9994 1128.83 64.5432C1131.89 66.087 1134.9 68.0198 1138.33 68.19C1141.31 68.3845 1144.54 67.2783 1147.14 68.7248C1149.09 69.8189 1150.11 72.0556 1151.9 73.3684C1153.76 74.5184 1155.91 75.1014 1158.1 75.0459C1160.27 74.9972 1162.44 75.3516 1164.49 76.0913C1166.47 77.003 1168.14 79.0938 1167.69 81.2211L1092.65 80.5404Z" fill="#ECA69B"/>
<path d="M1066.17 202.634C1065.6 198.465 1071.5 195.037 1075.9 194.672C1078 194.502 1080.19 194.83 1082.19 194.137C1086.52 192.618 1088.27 187.026 1092.48 185.251C1095.64 183.914 1099.27 185.093 1102.34 186.637C1105.4 188.181 1108.42 190.126 1111.86 190.284C1114.82 190.466 1118.05 189.372 1120.66 190.819C1122.6 191.901 1123.62 194.137 1125.41 195.462C1127.27 196.606 1129.42 197.188 1131.61 197.14C1133.79 197.09 1135.95 197.444 1138 198.185C1139.98 199.097 1141.65 201.188 1141.21 203.315L1066.17 202.634Z" fill="#ECA69B"/>
<path d="M623.857 91.4321C623.273 87.2627 629.169 83.8347 633.582 83.47C635.685 83.312 637.885 83.628 639.878 82.9352C644.206 81.4278 645.956 75.824 650.162 74.0492C653.323 72.712 656.957 73.9033 660.021 75.435C663.084 76.9666 666.099 78.9237 669.539 79.0817C672.517 79.2762 675.738 78.17 678.352 79.6166C680.285 80.6985 681.306 82.9352 683.093 84.2602C684.953 85.4089 687.107 85.9917 689.292 85.9377C691.47 85.8878 693.638 86.2423 695.686 86.9831C697.668 87.8948 699.333 89.9856 698.895 92.1129L623.857 91.4321Z" fill="#ECA69B"/>
<path d="M965.388 150.862C964.33 143.241 975.112 136.968 983.172 136.275C987.025 135.959 991.024 136.555 994.683 135.279C1002.58 132.519 1005.75 122.296 1013.46 119.05C1019.24 116.619 1025.88 118.783 1031.48 121.591C1037.08 124.399 1042.6 127.949 1048.85 128.35C1054.28 128.702 1060.19 126.684 1064.94 129.346C1068.48 131.316 1070.34 135.424 1073.61 137.856C1076.88 140.287 1080.98 140.712 1084.94 140.919C1088.9 141.126 1093.01 141.174 1096.62 142.827C1100.23 144.481 1103.22 148.298 1102.47 152.2L965.388 150.862Z" fill="#ECA69B"/>
<path d="M897.607 60.8233C898.017 60.7544 898.423 60.6611 898.822 60.5437C899.961 60.2984 901.133 60.2531 902.287 60.41C903.96 60.6458 905.536 61.3352 906.845 62.4036C908.442 63.7158 909.569 65.5121 910.055 67.5212V67.5212L910.249 68.2749L910.541 67.5577C911.323 65.6472 912.666 64.0194 914.394 62.8898C915.802 61.9696 917.421 61.4217 919.099 61.2974C920.661 61.2125 922.226 61.4101 923.718 61.8809C923.342 61.6477 922.932 61.4754 922.502 61.3703C921.383 61.0166 920.209 60.8684 919.038 60.9327C917.283 61.008 915.579 61.5493 914.102 62.5008C912.275 63.6614 910.852 65.3602 910.03 67.3632H910.516C910 65.2842 908.818 63.4313 907.149 62.0875C905.982 61.1802 904.62 60.5564 903.171 60.2652C901.722 59.9741 900.225 60.0237 898.798 60.41C898.381 60.4816 897.979 60.6213 897.607 60.8233V60.8233Z" fill="#ECA69B"/>
<path d="M850.576 113.325C850.576 113.325 851.463 113.009 853.092 112.656C855.399 112.147 857.778 112.053 860.118 112.377C863.59 112.842 866.867 114.255 869.588 116.461C872.913 119.175 875.261 122.902 876.273 127.073V127.195L876.468 127.948L876.76 127.268C878.377 123.289 881.167 119.897 884.758 117.543C887.67 115.647 891.017 114.526 894.483 114.285C896.828 114.115 899.186 114.333 901.46 114.929C903.077 115.355 903.892 115.732 903.892 115.683C903.704 115.554 903.5 115.452 903.284 115.379C902.688 115.131 902.08 114.916 901.46 114.735C898.614 113.91 895.624 113.7 892.69 114.119C889.756 114.539 886.944 115.577 884.442 117.166C880.757 119.532 877.888 122.974 876.225 127.025H876.711V126.903C875.686 122.621 873.265 118.802 869.831 116.048C867.494 114.19 864.762 112.894 861.844 112.262C858.927 111.629 855.903 111.677 853.007 112.401C852.374 112.552 851.753 112.747 851.147 112.984C850.942 113.072 850.75 113.186 850.576 113.325V113.325Z" fill="#ECA69B"/>
<path d="M756.306 83.0568C756.306 83.0568 756.805 82.9109 757.704 82.7285C758.969 82.4712 760.268 82.4342 761.545 82.6191C763.438 82.8785 765.222 83.6568 766.7 84.868C768.511 86.3449 769.791 88.372 770.346 90.642V90.642L770.541 91.4079L770.82 90.6907C771.714 88.5385 773.229 86.7017 775.172 85.415C776.767 84.3757 778.598 83.7568 780.497 83.6159C781.782 83.5176 783.074 83.6243 784.326 83.932C785.201 84.1508 785.675 84.3453 785.699 84.3088C785.724 84.2723 785.59 84.2237 785.371 84.1265C785.048 83.9752 784.715 83.8453 784.374 83.7375C783.112 83.3491 781.791 83.1885 780.472 83.2634C778.498 83.3525 776.582 83.9604 774.917 85.026C772.868 86.3343 771.276 88.2453 770.358 90.4962H770.833C770.268 88.1006 768.92 85.9618 767.004 84.4182C765.697 83.3937 764.169 82.6897 762.541 82.3625C760.914 82.0352 759.232 82.094 757.631 82.534C757.282 82.6224 756.94 82.7404 756.61 82.8866C756.416 82.9838 756.294 83.0324 756.306 83.0568Z" fill="#ECA69B"/>
<path d="M826.265 59C826.265 59 826.751 59.5592 827.614 60.5316C828.833 61.9211 829.935 63.4092 830.908 64.9807C834.128 70.1815 835.814 76.1861 835.771 82.3029V82.5217H836.281C836.775 79.2321 837.845 76.0554 839.442 73.1373C841.625 69.1343 844.709 65.6929 848.449 63.0844C849.519 62.3429 850.139 61.966 850.115 61.9296C849.947 61.985 849.787 62.0627 849.64 62.1605C849.194 62.3884 848.76 62.6399 848.34 62.9142C846.782 63.9122 845.331 65.0691 844.012 66.3665C839.607 70.7015 836.717 76.3412 835.771 82.4488H836.281V82.2907C836.327 76.0785 834.552 69.9889 831.176 64.7741C830.178 63.2143 829.034 61.7531 827.76 60.4101C827.322 59.9239 826.921 59.5956 826.678 59.3525C826.555 59.2187 826.416 59.1003 826.265 59V59Z" fill="#ECA69B"/>
</g>
<rect y="487" width="1366" height="167" fill="#C7C7C7"/>
<rect y="506" width="1366" height="10" fill="white"/>
<rect y="624" width="1366" height="10" fill="white"/>
<rect x="15" y="565" width="40" height="10" fill="white"/>
<rect x="95" y="565" width="40" height="10" fill="white"/>
<rect x="175" y="565" width="40" height="10" fill="white"/>
<rect x="254" y="565" width="40" height="10" fill="white"/>
<rect x="332" y="565" width="40" height="10" fill="white"/>
<rect x="412" y="565" width="40" height="10" fill="white"/>
<rect x="492" y="565" width="40" height="10" fill="white"/>
<rect x="572" y="565" width="40" height="10" fill="white"/>
<rect x="652" y="565" width="40" height="10" fill="white"/>
<rect x="732" y="565" width="40" height="10" fill="white"/>
<rect x="812" y="565" width="40" height="10" fill="white"/>
<rect x="892" y="565" width="40" height="10" fill="white"/>
<rect x="972" y="565" width="40" height="10" fill="white"/>
<rect x="1052" y="565" width="40" height="10" fill="white"/>
<rect x="1132" y="565" width="40" height="10" fill="white"/>
<rect x="1212" y="565" width="40" height="10" fill="white"/>
<rect x="1292" y="565" width="40" height="10" fill="white"/>
</svg>
