<svg width="1020" height="231" viewBox="0 0 1020 231" fill="none" xmlns="http://www.w3.org/2000/svg">
<path d="M593 35.8623L686 36C686 36 677.236 27.703 673.335 27.703C669.434 27.703 658.053 -0.116549 643.536 1.03478C629.02 2.1861 621.243 22.8849 621.243 22.8849C621.243 22.8849 603.579 17.2409 593 35.8623Z" fill="#C6C4C4"/>
<path d="M635.055 28.168C634.056 28.168 633.151 27.9533 632.339 27.524C631.536 27.0853 630.902 26.4833 630.435 25.718C629.978 24.9433 629.749 24.0707 629.749 23.1C629.749 22.1293 629.978 21.2613 630.435 20.496C630.902 19.7213 631.536 19.1193 632.339 18.69C633.151 18.2513 634.061 18.032 635.069 18.032C635.918 18.032 636.684 18.1813 637.365 18.48C638.056 18.7787 638.634 19.208 639.101 19.768L637.645 21.112C636.982 20.3467 636.161 19.964 635.181 19.964C634.574 19.964 634.033 20.0993 633.557 20.37C633.081 20.6313 632.708 21 632.437 21.476C632.176 21.952 632.045 22.4933 632.045 23.1C632.045 23.7067 632.176 24.248 632.437 24.724C632.708 25.2 633.081 25.5733 633.557 25.844C634.033 26.1053 634.574 26.236 635.181 26.236C636.161 26.236 636.982 25.8487 637.645 25.074L639.101 26.418C638.634 26.9873 638.056 27.4213 637.365 27.72C636.674 28.0187 635.904 28.168 635.055 28.168ZM645.174 28.168C644.156 28.168 643.237 27.9487 642.416 27.51C641.604 27.0713 640.964 26.4693 640.498 25.704C640.04 24.9293 639.812 24.0613 639.812 23.1C639.812 22.1387 640.04 21.2753 640.498 20.51C640.964 19.7353 641.604 19.1287 642.416 18.69C643.237 18.2513 644.156 18.032 645.174 18.032C646.191 18.032 647.106 18.2513 647.918 18.69C648.73 19.1287 649.369 19.7353 649.836 20.51C650.302 21.2753 650.536 22.1387 650.536 23.1C650.536 24.0613 650.302 24.9293 649.836 25.704C649.369 26.4693 648.73 27.0713 647.918 27.51C647.106 27.9487 646.191 28.168 645.174 28.168ZM645.174 26.236C645.752 26.236 646.275 26.1053 646.742 25.844C647.208 25.5733 647.572 25.2 647.834 24.724C648.104 24.248 648.24 23.7067 648.24 23.1C648.24 22.4933 648.104 21.952 647.834 21.476C647.572 21 647.208 20.6313 646.742 20.37C646.275 20.0993 645.752 19.964 645.174 19.964C644.595 19.964 644.072 20.0993 643.606 20.37C643.139 20.6313 642.77 21 642.5 21.476C642.238 21.952 642.108 22.4933 642.108 23.1C642.108 23.7067 642.238 24.248 642.5 24.724C642.77 25.2 643.139 25.5733 643.606 25.844C644.072 26.1053 644.595 26.236 645.174 26.236ZM655.574 26.944V28H651.342V27.16L653.502 25.12C653.731 24.9013 653.886 24.7147 653.966 24.56C654.046 24.4 654.086 24.2427 654.086 24.088C654.086 23.864 654.009 23.6933 653.854 23.576C653.705 23.4533 653.483 23.392 653.19 23.392C652.945 23.392 652.723 23.44 652.526 23.536C652.329 23.6267 652.163 23.7653 652.03 23.952L651.086 23.344C651.305 23.0187 651.606 22.7653 651.99 22.584C652.374 22.3973 652.814 22.304 653.31 22.304C653.726 22.304 654.089 22.3733 654.398 22.512C654.713 22.6453 654.955 22.8373 655.126 23.088C655.302 23.3333 655.39 23.624 655.39 23.96C655.39 24.264 655.326 24.5493 655.198 24.816C655.07 25.0827 654.822 25.3867 654.454 25.728L653.166 26.944H655.574Z" fill="white"/>
<path d="M586 56.8623L493 57C493 57 501.764 48.703 505.665 48.703C509.566 48.703 520.947 20.8835 535.464 22.0348C549.98 23.1861 557.757 43.8849 557.757 43.8849C557.757 43.8849 575.421 38.2409 586 56.8623Z" fill="#C6C4C4"/>
<path d="M527.055 49.168C526.056 49.168 525.151 48.9533 524.339 48.524C523.536 48.0853 522.902 47.4833 522.435 46.718C521.978 45.9433 521.749 45.0707 521.749 44.1C521.749 43.1293 521.978 42.2613 522.435 41.496C522.902 40.7213 523.536 40.1193 524.339 39.69C525.151 39.2513 526.061 39.032 527.069 39.032C527.918 39.032 528.684 39.1813 529.365 39.48C530.056 39.7787 530.634 40.208 531.101 40.768L529.645 42.112C528.982 41.3467 528.161 40.964 527.181 40.964C526.574 40.964 526.033 41.0993 525.557 41.37C525.081 41.6313 524.708 42 524.437 42.476C524.176 42.952 524.045 43.4933 524.045 44.1C524.045 44.7067 524.176 45.248 524.437 45.724C524.708 46.2 525.081 46.5733 525.557 46.844C526.033 47.1053 526.574 47.236 527.181 47.236C528.161 47.236 528.982 46.8487 529.645 46.074L531.101 47.418C530.634 47.9873 530.056 48.4213 529.365 48.72C528.674 49.0187 527.904 49.168 527.055 49.168ZM537.174 49.168C536.156 49.168 535.237 48.9487 534.416 48.51C533.604 48.0713 532.964 47.4693 532.498 46.704C532.04 45.9293 531.812 45.0613 531.812 44.1C531.812 43.1387 532.04 42.2753 532.498 41.51C532.964 40.7353 533.604 40.1287 534.416 39.69C535.237 39.2513 536.156 39.032 537.174 39.032C538.191 39.032 539.106 39.2513 539.918 39.69C540.73 40.1287 541.369 40.7353 541.836 41.51C542.302 42.2753 542.536 43.1387 542.536 44.1C542.536 45.0613 542.302 45.9293 541.836 46.704C541.369 47.4693 540.73 48.0713 539.918 48.51C539.106 48.9487 538.191 49.168 537.174 49.168ZM537.174 47.236C537.752 47.236 538.275 47.1053 538.742 46.844C539.208 46.5733 539.572 46.2 539.834 45.724C540.104 45.248 540.24 44.7067 540.24 44.1C540.24 43.4933 540.104 42.952 539.834 42.476C539.572 42 539.208 41.6313 538.742 41.37C538.275 41.0993 537.752 40.964 537.174 40.964C536.595 40.964 536.072 41.0993 535.606 41.37C535.139 41.6313 534.77 42 534.5 42.476C534.238 42.952 534.108 43.4933 534.108 44.1C534.108 44.7067 534.238 45.248 534.5 45.724C534.77 46.2 535.139 46.5733 535.606 46.844C536.072 47.1053 536.595 47.236 537.174 47.236ZM547.574 47.944V49H543.342V48.16L545.502 46.12C545.731 45.9013 545.886 45.7147 545.966 45.56C546.046 45.4 546.086 45.2427 546.086 45.088C546.086 44.864 546.009 44.6933 545.854 44.576C545.705 44.4533 545.483 44.392 545.19 44.392C544.945 44.392 544.723 44.44 544.526 44.536C544.329 44.6267 544.163 44.7653 544.03 44.952L543.086 44.344C543.305 44.0187 543.606 43.7653 543.99 43.584C544.374 43.3973 544.814 43.304 545.31 43.304C545.726 43.304 546.089 43.3733 546.398 43.512C546.713 43.6453 546.955 43.8373 547.126 44.088C547.302 44.3333 547.39 44.624 547.39 44.96C547.39 45.264 547.326 45.5493 547.198 45.816C547.07 46.0827 546.822 46.3867 546.454 46.728L545.166 47.944H547.574Z" fill="white"/>
<path d="M548 104.826L658 105C658 105 652.536 97.7366 646.508 96.833C646.508 96.833 634.846 61.2803 615.209 61.0023C596.955 60.7416 589.596 82.81 589.596 82.81C589.596 82.81 581.161 72.8879 573.084 77.4059C565.007 81.9238 560.38 94.8868 560.38 94.8868C560.38 94.8868 551.296 99.8565 548 104.826Z" fill="#AEAEAE"/>
<path d="M606.829 95.192C605.687 95.192 604.653 94.9467 603.725 94.456C602.807 93.9547 602.082 93.2667 601.549 92.392C601.026 91.5067 600.765 90.5093 600.765 89.4C600.765 88.2907 601.026 87.2987 601.549 86.424C602.082 85.5387 602.807 84.8507 603.725 84.36C604.653 83.8587 605.693 83.608 606.845 83.608C607.815 83.608 608.69 83.7787 609.469 84.12C610.258 84.4613 610.919 84.952 611.453 85.592L609.789 87.128C609.031 86.2533 608.093 85.816 606.973 85.816C606.279 85.816 605.661 85.9707 605.117 86.28C604.573 86.5787 604.146 87 603.837 87.544C603.538 88.088 603.389 88.7067 603.389 89.4C603.389 90.0933 603.538 90.712 603.837 91.256C604.146 91.8 604.573 92.2267 605.117 92.536C605.661 92.8347 606.279 92.984 606.973 92.984C608.093 92.984 609.031 92.5413 609.789 91.656L611.453 93.192C610.919 93.8427 610.258 94.3387 609.469 94.68C608.679 95.0213 607.799 95.192 606.829 95.192ZM618.393 95.192C617.23 95.192 616.179 94.9413 615.241 94.44C614.313 93.9387 613.582 93.2507 613.049 92.376C612.526 91.4907 612.265 90.4987 612.265 89.4C612.265 88.3013 612.526 87.3147 613.049 86.44C613.582 85.5547 614.313 84.8613 615.241 84.36C616.179 83.8587 617.23 83.608 618.393 83.608C619.555 83.608 620.601 83.8587 621.529 84.36C622.457 84.8613 623.187 85.5547 623.721 86.44C624.254 87.3147 624.521 88.3013 624.521 89.4C624.521 90.4987 624.254 91.4907 623.721 92.376C623.187 93.2507 622.457 93.9387 621.529 94.44C620.601 94.9413 619.555 95.192 618.393 95.192ZM618.393 92.984C619.054 92.984 619.651 92.8347 620.185 92.536C620.718 92.2267 621.134 91.8 621.433 91.256C621.742 90.712 621.897 90.0933 621.897 89.4C621.897 88.7067 621.742 88.088 621.433 87.544C621.134 87 620.718 86.5787 620.185 86.28C619.651 85.9707 619.054 85.816 618.393 85.816C617.731 85.816 617.134 85.9707 616.601 86.28C616.067 86.5787 615.646 87 615.337 87.544C615.038 88.088 614.889 88.7067 614.889 89.4C614.889 90.0933 615.038 90.712 615.337 91.256C615.646 91.8 616.067 92.2267 616.601 92.536C617.134 92.8347 617.731 92.984 618.393 92.984ZM629.637 93.944V95H625.405V94.16L627.565 92.12C627.794 91.9013 627.949 91.7147 628.029 91.56C628.109 91.4 628.149 91.2427 628.149 91.088C628.149 90.864 628.071 90.6933 627.917 90.576C627.767 90.4533 627.546 90.392 627.253 90.392C627.007 90.392 626.786 90.44 626.589 90.536C626.391 90.6267 626.226 90.7653 626.093 90.952L625.149 90.344C625.367 90.0187 625.669 89.7653 626.053 89.584C626.437 89.3973 626.877 89.304 627.373 89.304C627.789 89.304 628.151 89.3733 628.461 89.512C628.775 89.6453 629.018 89.8373 629.189 90.088C629.365 90.3333 629.453 90.624 629.453 90.96C629.453 91.264 629.389 91.5493 629.261 91.816C629.133 92.0827 628.885 92.3867 628.517 92.728L627.229 93.944H629.637Z" fill="white"/>
<path d="M778.907 59.7558C778.96 59.7649 779.014 59.7649 779.067 59.7558H779.531L781.315 59.7023L787.921 59.4406L797.721 59.0184L803.507 58.7627C804.512 58.6854 805.529 58.7627 806.57 58.7627H809.721C818.254 58.7627 825.967 58.3821 831.545 58.1383L838.151 57.8232L839.935 57.7221L840.405 57.6864C840.458 57.6965 840.512 57.6965 840.565 57.6864H839.935L838.151 57.728L831.539 57.948C825.955 58.1383 818.242 58.4535 809.721 58.4832H806.57C805.529 58.4832 804.506 58.4297 803.501 58.4832L797.715 58.7568L787.916 59.2444L781.309 59.6012L779.525 59.7141L779.055 59.7498L778.907 59.7558Z" fill="#263238"/>
<path d="M967.303 89.7141L683.538 89.7141V131.167L993.503 131.167V115.908C993.501 108.961 990.74 102.298 985.827 97.3858C980.914 92.4736 974.251 89.7141 967.303 89.7141Z" fill="#FF725E"/>
<g opacity="0.4">
<path opacity="0.4" d="M967.303 89.7141L683.538 89.7141V131.167L993.503 131.167V115.908C993.501 108.961 990.74 102.298 985.827 97.3858C980.914 92.4736 974.251 89.7141 967.303 89.7141Z" fill="#252525"/>
</g>
<path d="M1019.99 129.74C1019.99 129.74 1009 141.781 988.78 139.331C988.78 139.331 996.867 94.4534 954.493 91.9856C954.493 91.9856 935.072 90.2909 925.07 106.257C922.189 110.938 920.618 116.306 920.521 121.801C920.354 128.104 920.158 138.749 920.664 141.424C920.664 141.424 780.637 135.603 756.125 138.392C756.125 138.392 767.281 103.67 736.544 92.5327C731.299 90.6298 725.245 90.4217 719.721 91.2007C712.187 92.2592 704.112 95.7081 698.908 103.688C696.667 107.119 693.896 112.097 693.111 116.116C691.773 123.008 692.683 129.502 693.111 132.879L681.521 131.756L673.16 104.051L674.35 87.5496L682.954 71.2801L703.35 73.7063C703.35 73.7063 741.087 63.0027 763.291 58.5369C785.495 54.0711 820.567 53.1851 829.058 54.6538C837.55 56.1226 840.785 57.6925 844.995 59.5121C849.205 61.3317 888.029 79.8965 888.029 79.8965L947.363 80.3782C947.363 80.3782 987.894 79.5338 1013.49 109.986L1010.1 123.698L1019.99 129.74Z" fill="#FF725E"/>
<path d="M888.019 79.8964C888.019 79.8964 851.454 81.4544 841.832 81.0857C832.211 80.717 780.156 74.61 780.156 74.61L779.407 59.6607C779.407 59.6607 796.675 58.5308 808.009 58.5308C817.44 58.5308 840.602 57.6508 840.602 57.6508C841.339 57.96 842.148 58.2811 842.903 58.6022C856.354 64.3405 871.47 71.9044 888.019 79.8964Z" fill="#455A64"/>
<path d="M1004.84 101.25C1004.84 101.25 999.419 102.118 992.646 99.0798C985.873 96.0411 966.6 85.6527 966.6 85.6527L967.873 83.0125C967.873 83.0125 971.328 83.7082 975.306 84.9688C979.611 86.3617 983.802 88.0854 987.841 90.1244C991.01 91.7149 994.091 93.4757 997.07 95.3989C999.77 97.1975 1002.36 99.1512 1004.84 101.25Z" fill="#EBEBEB"/>
<path d="M994.37 109.896C994.37 109.98 998.14 110.158 1002.8 110.295C1007.46 110.431 1011.25 110.473 1011.25 110.384C1011.26 110.295 1007.48 110.122 1002.81 109.986C998.152 109.849 994.37 109.813 994.37 109.896Z" fill="#263238"/>
<g opacity="0.4">
<path opacity="0.4" d="M1010.09 123.698L996.809 129.888C996.809 129.888 1009.83 132.469 1020 129.757L1010.09 123.698Z" fill="white"/>
</g>
<path d="M987.252 106.697C987.252 106.697 991.522 112.953 992.134 117.936C992.747 122.919 992.842 129.169 992.842 129.169H990.909C990.909 129.169 992.515 113.964 984.505 106.697H987.252Z" fill="#EBEBEB"/>
<g opacity="0.3">
<path opacity="0.3" d="M919.66 94.9589L924.298 90.5526L884.98 89.1611L912.238 92.6398L919.66 94.9589Z" fill="#252525"/>
</g>
<path d="M916.644 130.144C916.652 130.087 916.652 130.029 916.644 129.972C916.644 129.835 916.644 129.668 916.674 129.46C916.674 129.014 916.71 128.354 916.769 127.51C916.893 125.12 917.14 122.739 917.506 120.374C918.047 116.859 919.018 113.424 920.396 110.146C922.102 106.141 924.57 102.506 927.663 99.4425C930.749 96.3879 934.379 93.9375 938.367 92.2176L939.044 91.9143L939.734 91.6586L941.084 91.1472C941.994 90.8796 942.868 90.5526 943.724 90.3564C944.581 90.1601 945.419 89.9223 946.24 89.7914L947.429 89.5655L948.583 89.4109C950.949 89.1118 953.337 89.0302 955.718 89.1671C956.569 89.2027 957.217 89.2979 957.663 89.3276L958.174 89.3692H958.347C958.291 89.3489 958.233 89.3368 958.174 89.3336L957.675 89.2622C957.229 89.2146 956.575 89.0957 955.73 89.0422C953.331 88.8566 950.919 88.9084 948.529 89.1968L947.34 89.3395L946.15 89.5536C945.33 89.6844 944.491 89.8925 943.617 90.1066C942.743 90.3207 941.869 90.624 940.953 90.8915L939.592 91.397L938.896 91.6527L938.212 91.9559C934.176 93.675 930.5 96.1403 927.378 99.2225C924.259 102.31 921.776 105.979 920.069 110.021C918.704 113.321 917.759 116.779 917.257 120.315C916.921 122.699 916.724 125.102 916.668 127.51C916.626 128.36 916.668 129.02 916.632 129.466V129.978C916.628 130.033 916.632 130.089 916.644 130.144Z" fill="#263238"/>
<g opacity="0.4">
<path opacity="0.4" d="M910.038 128.021L886.52 117.966L771.147 120.184L910.038 128.021Z" fill="white"/>
</g>
<path d="M887.929 118.572L920.421 94.2394L912.239 92.6398L878.659 118.114L887.929 118.572Z" fill="#263238"/>
<path d="M877.582 139.801C877.614 139.729 877.636 139.653 877.648 139.575C877.695 139.403 877.749 139.183 877.82 138.903C877.969 138.309 878.171 137.417 878.415 136.316C878.938 134.057 879.675 130.858 880.567 126.981V126.951V126.915C879.759 124.227 878.837 121.195 877.844 117.924V117.995C878.23 115.26 878.641 112.311 879.069 109.254C879.663 104.955 880.199 100.864 880.526 97.1115L880.579 96.4098C880.597 96.1723 880.597 95.9338 880.579 95.6963C880.523 95.2404 880.425 94.7906 880.288 94.3524C880.027 93.523 879.705 92.7141 879.325 91.9322C878.641 90.5367 877.882 89.179 877.053 87.8648C875.537 85.4505 874.181 83.5952 873.229 82.3167C872.754 81.6805 872.373 81.1929 872.111 80.8718C871.993 80.7172 871.891 80.5982 871.814 80.5031C871.737 80.4079 871.707 80.3782 871.701 80.3841C871.723 80.4329 871.751 80.4788 871.784 80.5209L872.064 80.9074L873.134 82.3881C874.056 83.6844 875.382 85.5635 876.863 87.9778C877.676 89.2918 878.421 90.6475 879.093 92.0392C879.459 92.8091 879.771 93.604 880.026 94.4178C880.308 95.2739 880.391 96.1828 880.27 97.0758C879.931 100.81 879.366 104.901 878.795 109.201C878.367 112.257 877.963 115.207 877.606 117.942V117.995L880.371 126.981V126.915C879.521 130.798 878.819 134.009 878.326 136.275L877.778 138.873C877.719 139.153 877.677 139.379 877.642 139.557C877.61 139.635 877.59 139.717 877.582 139.801Z" fill="#263238"/>
<path d="M876.708 80.3424L831.289 58.1324L819.515 58.5368C819.515 58.5368 848.861 65.5298 854.391 81.0322L876.708 80.3424Z" fill="#263238"/>
<path d="M743.388 66.8084L747.86 71.7975L780.155 74.628L779.406 59.6786C779.406 59.6786 748.383 64.3525 743.388 66.8084Z" fill="#263238"/>
<path d="M876.744 132.862L876.352 132.826L875.192 132.755L870.732 132.517L854.326 131.708L800.213 129.139L792.394 128.764C789.877 128.569 787.432 127.837 785.222 126.618C780.858 124.239 777.492 120.642 774.745 117.008C772.121 113.56 769.94 109.796 768.251 105.805C766.78 102.327 765.876 98.6346 765.575 94.8697C765.462 93.2315 765.484 91.5867 765.641 89.952C765.795 88.4944 766.053 87.0497 766.414 85.629C767.009 83.354 767.918 81.1726 769.113 79.1473C769.882 77.8766 770.77 76.6819 771.765 75.5795C772.11 75.2048 772.39 74.9372 772.574 74.7469L772.842 74.4556C772.842 74.4556 772.741 74.5388 772.55 74.7232C772.36 74.9075 772.075 75.1691 771.718 75.5319C770.701 76.6291 769.794 77.8242 769.012 79.0997C767.796 81.1287 766.865 83.3158 766.247 85.5992C765.877 87.0273 765.609 88.4799 765.444 89.9461C765.276 91.5938 765.246 93.2527 765.355 94.9054C765.643 98.6954 766.541 102.414 768.013 105.918C769.695 109.943 771.879 113.739 774.513 117.216C777.248 120.844 780.655 124.453 785.056 126.915C787.304 128.156 789.792 128.902 792.352 129.103L800.189 129.478L854.302 131.952L870.708 132.671L875.174 132.85L876.334 132.885L876.744 132.862Z" fill="#455A64"/>
<path d="M745.202 85.3375C745.256 84.7975 745.362 84.2639 745.517 83.7438C746.012 82.3453 746.993 81.1716 748.282 80.4376C749.226 79.894 750.27 79.5469 751.351 79.4172C752.432 79.2874 753.528 79.3776 754.574 79.6824C755.808 80.0349 756.926 80.7126 757.809 81.6447C758.777 82.631 759.32 83.9581 759.32 85.3405C759.32 86.7228 758.777 88.0499 757.809 89.0362C756.928 89.9698 755.81 90.6461 754.574 90.9926C753.529 91.3005 752.432 91.3923 751.35 91.2625C750.269 91.1326 749.225 90.7839 748.282 90.2374C746.991 89.5063 746.008 88.3316 745.517 86.9311C745.362 86.4111 745.256 85.8775 745.202 85.3375C745.188 85.4798 745.188 85.6233 745.202 85.7656C745.202 85.9375 745.22 86.1088 745.256 86.277C745.281 86.5121 745.333 86.7435 745.41 86.9668C745.872 88.4226 746.857 89.6555 748.175 90.4277C749.141 91.0026 750.215 91.3737 751.329 91.5179C752.444 91.6621 753.577 91.5764 754.657 91.2661C755.949 90.9114 757.119 90.2102 758.04 89.2384C759.062 88.1968 759.634 86.7962 759.634 85.3375C759.634 83.8787 759.062 82.4782 758.04 81.4366C757.117 80.4669 755.948 79.7661 754.657 79.4089C753.576 79.098 752.443 79.0126 751.328 79.1579C750.213 79.3031 749.14 79.676 748.175 80.2533C746.857 81.0218 745.871 82.2533 745.41 83.7082C745.333 83.9316 745.281 84.163 745.256 84.3979C745.22 84.5681 745.202 84.7415 745.202 84.9153C745.188 85.0556 745.188 85.1971 745.202 85.3375Z" fill="#263238"/>
<path d="M702.757 73.6409H702.912H703.375L705.159 73.6765L711.7 73.8014C717.231 73.9085 724.872 74.075 733.304 74.3961C741.736 74.7172 749.359 75.0918 754.889 75.5021C757.643 75.7221 759.879 75.8886 761.431 76.0551L763.214 76.2216L763.678 76.2573C763.732 76.2652 763.786 76.2652 763.839 76.2573C763.788 76.2491 763.735 76.2491 763.684 76.2573L763.226 76.1919L761.442 75.9659C759.908 75.7638 757.678 75.5616 754.901 75.3118C749.383 74.8421 741.748 74.4139 733.31 74.1225C724.872 73.8312 717.254 73.6884 711.7 73.6349C708.935 73.6349 706.693 73.6052 705.159 73.6349H703.375H702.912C702.86 73.6294 702.808 73.6314 702.757 73.6409Z" fill="#263238"/>
<path d="M699.979 73.3079L680.416 76.073L682.955 71.2802L699.979 73.3079Z" fill="#EBEBEB"/>
<path d="M684.75 75.181C684.776 75.2834 684.812 75.383 684.857 75.4784L685.214 76.3049C685.529 77.0244 686.017 78.0532 686.641 79.2781C688.275 82.5433 690.081 85.7193 692.053 88.7925C694.026 91.866 696.16 94.8334 698.445 97.6824C699.325 98.7765 700.051 99.6447 700.574 100.227L701.169 100.899C701.234 100.982 701.31 101.056 701.395 101.119C701.395 101.119 701.341 101.024 701.216 100.858L700.663 100.15C700.17 99.5555 699.474 98.6517 698.612 97.5456C696.893 95.3395 694.61 92.1938 692.308 88.6259C690.007 85.0581 688.146 81.6508 686.826 79.1711C686.178 77.9342 685.636 76.9233 685.321 76.1979L684.911 75.3951C684.866 75.3177 684.812 75.2459 684.75 75.181Z" fill="#263238"/>
<path d="M688.616 128.318C688.625 128.255 688.625 128.191 688.616 128.128V127.533C688.616 127.04 688.616 126.344 688.616 125.381C688.745 122.741 689.144 120.121 689.805 117.561C690.797 113.772 692.182 110.097 693.938 106.596C694.933 104.51 696.061 102.49 697.316 100.548C698.645 98.4595 700.313 96.6065 702.251 95.0658C704.24 93.5856 706.447 92.4241 708.792 91.6228C710.971 90.8577 713.206 90.2613 715.476 89.8389C719.319 89.124 723.235 88.8804 727.137 89.1134C729.775 89.2633 732.396 89.6272 734.975 90.2017L736.164 90.4811L737.044 90.7071L737.591 90.8439C737.651 90.8638 737.713 90.8758 737.775 90.8795C737.718 90.8518 737.659 90.8299 737.597 90.8141L737.062 90.6476L736.188 90.3919L734.998 90.0827C732.419 89.4594 729.791 89.0615 727.143 88.8934C723.213 88.6316 719.265 88.8634 715.393 89.5832C713.104 90.0031 710.852 90.5995 708.656 91.3672C706.281 92.177 704.048 93.3527 702.037 94.8518C700.075 96.4165 698.385 98.2952 697.036 100.412C695.781 102.366 694.651 104.398 693.653 106.495C691.905 110.021 690.535 113.723 689.567 117.537C688.935 120.115 688.576 122.752 688.497 125.405C688.497 126.344 688.497 127.076 688.539 127.569C688.539 127.801 688.539 127.985 688.574 128.128C688.58 128.193 688.594 128.257 688.616 128.318Z" fill="#263238"/>
<path d="M673.108 101.024C673.363 101.135 673.628 101.225 673.899 101.292C674.404 101.452 675.153 101.655 676.081 101.886C680.923 103.063 685.882 103.691 690.864 103.76C691.821 103.76 692.594 103.76 693.129 103.76C693.406 103.761 693.683 103.739 693.956 103.694C693.683 103.647 693.406 103.629 693.129 103.641L690.87 103.563C688.967 103.492 686.339 103.32 683.455 102.969C680.571 102.618 677.984 102.106 676.123 101.708L673.922 101.214C673.657 101.127 673.385 101.063 673.108 101.024Z" fill="#263238"/>
<path d="M897.354 101.714C897.354 101.714 897.224 101.714 896.974 101.667L895.862 101.565L891.575 101.215L875.799 99.9777C862.49 98.9609 844.098 97.5991 823.761 96.3385C813.593 95.7141 803.9 95.1908 795.081 94.7805C786.263 94.3702 778.301 94.1859 771.629 94.614C766.359 94.8796 761.12 95.5817 755.966 96.7131C754.146 97.1591 752.743 97.5099 751.803 97.8073L750.733 98.1284L750.37 98.2473C750.37 98.2473 750.501 98.2473 750.745 98.1581L751.821 97.8727C752.766 97.5932 754.2 97.278 755.984 96.8321C761.144 95.7388 766.384 95.0607 771.652 94.8043C778.312 94.4237 786.269 94.6021 795.081 95.0422C803.894 95.4822 813.587 95.9996 823.755 96.6239C844.086 97.8667 862.479 99.2106 875.793 100.192L891.569 101.345L895.856 101.643L896.968 101.714H897.354Z" fill="#263238"/>
<path d="M724.85 152.989C708.671 152.76 695.74 139.459 695.969 123.279C696.198 107.1 709.499 94.1696 725.678 94.3983C741.858 94.6271 754.788 107.928 754.559 124.108C754.331 140.287 741.029 153.218 724.85 152.989Z" fill="#263238"/>
<path d="M754.561 123.204C754.561 123.204 754.561 123.252 754.561 123.276C754.617 127.123 753.915 130.943 752.494 134.519C751.073 138.095 748.962 141.355 746.282 144.115C743.601 146.875 740.403 149.08 736.87 150.604C733.337 152.127 729.538 152.94 725.691 152.996C717.922 153.109 710.426 150.131 704.852 144.716C699.278 139.302 696.084 131.896 695.971 124.126V124.049L754.561 123.204Z" fill="#263238"/>
<path d="M745.839 123.407C745.896 127.474 744.746 131.467 742.534 134.881C740.322 138.294 737.148 140.976 733.412 142.585C729.677 144.195 725.547 144.661 721.547 143.925C717.547 143.188 713.854 141.282 710.937 138.447C708.02 135.612 706.009 131.976 705.158 127.998C704.307 124.02 704.655 119.88 706.157 116.1C707.66 112.32 710.249 109.07 713.598 106.761C716.947 104.452 720.905 103.189 724.973 103.129C727.675 103.089 730.358 103.582 732.869 104.58C735.381 105.577 737.671 107.06 739.608 108.943C741.546 110.826 743.094 113.073 744.163 115.555C745.232 118.037 745.802 120.705 745.839 123.407Z" fill="#FAFAFA"/>
<path d="M724.973 103.129C727.674 103.089 730.357 103.582 732.868 104.579C735.379 105.576 737.669 107.059 739.607 108.941C741.544 110.824 743.092 113.07 744.162 115.551C745.231 118.032 745.801 120.699 745.839 123.401L704.701 123.995C704.662 121.294 705.155 118.612 706.153 116.101C707.15 113.591 708.632 111.301 710.515 109.363C712.397 107.426 714.643 105.878 717.124 104.808C719.604 103.739 722.272 103.168 724.973 103.129Z" fill="#E0E0E0"/>
<path d="M737.799 123.52C737.836 125.998 737.136 128.431 735.79 130.511C734.443 132.591 732.51 134.226 730.234 135.207C727.959 136.189 725.443 136.473 723.006 136.025C720.569 135.577 718.319 134.416 716.541 132.69C714.764 130.963 713.538 128.748 713.02 126.324C712.501 123.901 712.713 121.378 713.628 119.075C714.544 116.772 716.121 114.793 718.162 113.386C720.202 111.98 722.614 111.21 725.092 111.175C726.737 111.15 728.371 111.45 729.9 112.058C731.429 112.665 732.823 113.568 734.004 114.714C735.184 115.861 736.126 117.228 736.778 118.739C737.429 120.25 737.776 121.875 737.799 123.52Z" fill="#263238"/>
<path d="M954.194 152.996C938.013 152.889 924.983 139.685 925.091 123.504C925.198 107.324 938.402 94.2938 954.582 94.4011C970.763 94.5085 983.793 107.712 983.686 123.893C983.578 140.074 970.374 153.103 954.194 152.996Z" fill="#263238"/>
<path d="M983.697 123.204V123.276C983.753 127.123 983.05 130.943 981.63 134.519C980.209 138.095 978.098 141.355 975.417 144.115C972.737 146.875 969.538 149.08 966.006 150.604C962.473 152.127 958.674 152.94 954.827 152.996C947.057 153.109 939.561 150.131 933.988 144.716C928.414 139.302 925.219 131.896 925.107 124.126C925.107 124.096 925.107 124.073 925.107 124.049L983.697 123.204Z" fill="#263238"/>
<path d="M974.974 123.407C975.031 127.474 973.881 131.467 971.669 134.881C969.457 138.294 966.282 140.976 962.547 142.585C958.811 144.195 954.682 144.661 950.682 143.925C946.681 143.188 942.989 141.282 940.072 138.447C937.155 135.612 935.144 131.976 934.293 127.998C933.442 124.02 933.79 119.88 935.292 116.1C936.794 112.319 939.384 109.07 942.733 106.761C946.082 104.452 950.04 103.188 954.107 103.129C956.809 103.09 959.492 103.583 962.003 104.581C964.514 105.579 966.804 107.062 968.742 108.945C970.679 110.828 972.227 113.074 973.296 115.556C974.366 118.037 974.936 120.705 974.974 123.407Z" fill="#FAFAFA"/>
<path d="M954.108 103.129C956.809 103.09 959.491 103.583 962.002 104.581C964.512 105.578 966.802 107.06 968.74 108.943C970.677 110.825 972.225 113.071 973.295 115.552C974.364 118.032 974.935 120.699 974.974 123.401L933.836 123.995C933.796 121.294 934.289 118.611 935.286 116.1C936.283 113.589 937.765 111.299 939.648 109.362C941.53 107.424 943.776 105.876 946.258 104.807C948.739 103.737 951.406 103.167 954.108 103.129Z" fill="#E0E0E0"/>
<path d="M966.933 123.52C966.969 125.997 966.27 128.43 964.924 130.51C963.577 132.591 961.644 134.225 959.369 135.207C957.094 136.188 954.579 136.473 952.142 136.026C949.705 135.578 947.455 134.418 945.677 132.691C943.899 130.965 942.674 128.751 942.154 126.328C941.635 123.905 941.846 121.382 942.76 119.079C943.675 116.776 945.251 114.796 947.291 113.389C949.331 111.982 951.742 111.212 954.22 111.175C955.865 111.15 957.499 111.45 959.029 112.058C960.558 112.665 961.953 113.567 963.134 114.714C964.314 115.86 965.257 117.228 965.909 118.739C966.561 120.25 966.909 121.874 966.933 123.52Z" fill="#263238"/>
<path d="M761.775 73.0165C762.196 72.9986 762.618 73.0166 763.036 73.07C763.868 73.1295 765.093 73.2365 766.669 73.3852C769.821 73.6885 774.399 74.1464 780.013 74.741L799.791 76.8817L811.464 78.2137L817.63 78.9689C819.711 79.2543 821.834 79.5636 823.981 79.7538C828.286 80.1998 832.496 80.5269 836.558 80.8183L842.546 81.2107L844.009 81.294H848.302C855.794 81.294 862.538 81.1453 868.199 80.9075C873.86 80.6696 878.433 80.3842 881.596 80.1701L885.235 79.9085L886.181 79.8312L886.502 79.7955C886.502 79.7955 886.389 79.7955 886.175 79.7955L885.229 79.843L881.59 80.0452C878.427 80.2236 873.86 80.4793 868.193 80.6815C862.526 80.8837 855.794 81.0086 848.302 81.0026H844.02L842.564 80.9193L836.552 80.5328C832.49 80.2415 828.28 79.9085 823.987 79.4625C821.834 79.2484 819.729 78.9689 817.642 78.6775C815.555 78.3862 813.48 78.1661 811.47 77.9283L799.791 76.6201C792.352 75.8054 785.644 75.1037 780.007 74.5388C774.37 73.9739 769.809 73.5458 766.651 73.2841C763.494 73.0225 761.763 72.9154 761.775 73.0165Z" fill="#263238"/>
<path d="M856.032 84.3445C856.032 84.3445 851.162 74.9253 847.707 73.3019C847.707 73.3019 838.508 72.3267 837.105 72.6537C835.701 72.9808 835.261 75.1453 835.261 76.5487C835.261 77.952 835.047 80.4495 836.129 81.3058C837.212 82.1621 836.344 82.067 838.401 82.6081C840.458 83.1492 844.877 82.3167 844.877 82.3167L844.77 86.3187C844.77 86.3187 849.64 88.8102 852.78 88.055C853.651 87.874 854.44 87.4139 855.027 86.7444C855.614 86.0748 855.967 85.2324 856.032 84.3445Z" fill="#FF725E"/>
<path d="M844.728 86.2949C844.75 86.2074 844.762 86.1176 844.763 86.0273C844.763 85.8251 844.763 85.5635 844.805 85.2423C844.835 84.5288 844.876 83.5357 844.924 82.2691V82.1621H844.817C843.602 82.3795 842.375 82.5264 841.142 82.6021C840.411 82.6511 839.676 82.6351 838.948 82.5545C838.561 82.4995 838.179 82.4119 837.806 82.2929C837.432 82.1621 836.997 82.1026 836.789 81.7934C836.652 81.6205 836.499 81.4612 836.331 81.3177C836.167 81.1946 836.02 81.0484 835.897 80.8836C835.662 80.5254 835.509 80.119 835.451 79.6943C835.331 78.7858 835.295 77.8681 835.344 76.953C835.301 75.9974 835.442 75.0424 835.761 74.1403C835.916 73.6904 836.194 73.2928 836.563 72.9927C836.977 72.7469 837.459 72.6425 837.937 72.6953C839.661 72.6953 841.356 72.844 842.98 72.9689C844.603 73.0937 846.161 73.2424 847.63 73.3911H847.588C848.438 73.8682 849.199 74.49 849.836 75.2285C850.44 75.8874 851.006 76.5803 851.531 77.3038C852.541 78.6596 853.315 79.9143 853.986 80.9609C854.658 82.0075 855.122 82.8459 855.455 83.4227L855.836 84.0828C855.875 84.1612 855.923 84.2349 855.979 84.3028C855.955 84.2178 855.921 84.136 855.877 84.059L855.533 83.3811C855.229 82.7865 854.759 81.9361 854.135 80.8717C853.511 79.8073 852.72 78.5407 851.721 77.1611C851.195 76.4266 850.63 75.7219 850.026 75.0501C849.373 74.2793 848.588 73.631 847.707 73.1354H847.659C846.191 72.9808 844.633 72.8262 843.009 72.6894C841.386 72.5526 839.685 72.4158 837.931 72.4099C837.667 72.4083 837.402 72.4242 837.14 72.4575C836.864 72.4944 836.602 72.6008 836.379 72.7667C835.961 73.0999 835.648 73.5455 835.475 74.0511C835.145 74.9876 835 75.9791 835.047 76.9708C834.996 77.9063 835.037 78.8445 835.172 79.7716C835.24 80.2336 835.411 80.6745 835.671 81.062C835.809 81.2423 835.971 81.4024 836.153 81.5377C836.307 81.671 836.448 81.8183 836.575 81.9777C838.092 83.0065 839.763 82.9054 841.154 82.84C842.394 82.7524 843.627 82.5875 844.847 82.3464L844.746 82.2572C844.746 83.5 844.716 84.4931 844.704 85.2304C844.704 85.5515 844.704 85.8251 844.704 86.0094C844.702 86.1051 844.71 86.2008 844.728 86.2949Z" fill="#263238"/>
<path d="M907.314 97.5812C908.496 97.7425 909.691 97.7962 910.882 97.7418C912.074 97.7959 913.268 97.7422 914.45 97.5812C913.268 97.4277 912.074 97.376 910.882 97.4266C909.691 97.3758 908.497 97.4275 907.314 97.5812Z" fill="#455A64"/>
<path d="M902.2 101.345C903.383 101.502 904.577 101.554 905.768 101.5C906.96 101.554 908.154 101.502 909.336 101.345C908.153 101.192 906.96 101.14 905.768 101.191C904.577 101.14 903.383 101.192 902.2 101.345Z" fill="#455A64"/>
<path d="M897.116 105.05C898.299 105.203 899.493 105.255 900.684 105.205C901.876 105.255 903.069 105.204 904.252 105.05C903.069 104.896 901.876 104.845 900.684 104.895C899.493 104.845 898.299 104.896 897.116 105.05Z" fill="#455A64"/>
<path d="M892.032 108.784C893.215 108.938 894.409 108.989 895.6 108.939C896.792 108.989 897.985 108.938 899.168 108.784C897.986 108.627 896.792 108.576 895.6 108.63C894.409 108.576 893.215 108.627 892.032 108.784Z" fill="#455A64"/>
<path d="M886.948 112.519C888.131 112.672 889.325 112.724 890.516 112.673C891.708 112.724 892.901 112.672 894.084 112.519C892.902 112.358 891.708 112.304 890.516 112.358C889.324 112.304 888.13 112.358 886.948 112.519Z" fill="#455A64"/>
<path d="M881.857 116.247C883.04 116.404 884.234 116.456 885.425 116.402C886.617 116.456 887.811 116.405 888.993 116.247C887.81 116.094 886.617 116.042 885.425 116.093C884.234 116.042 883.04 116.094 881.857 116.247Z" fill="#455A64"/>
<path d="M838.336 73.956C839.792 74.109 841.256 74.1607 842.719 74.1107C844.184 74.1608 845.65 74.1091 847.107 73.956C845.65 73.7994 844.184 73.7477 842.719 73.8014C841.256 73.7478 839.792 73.7995 838.336 73.956Z" fill="white"/>
<path d="M942.316 89.1195C942.618 89.0906 942.917 89.0328 943.208 88.947C943.773 88.8162 944.599 88.6437 945.628 88.4594C946.657 88.275 947.888 88.1145 949.255 87.9896C952.228 87.7375 955.22 87.8172 958.175 88.2275C959.537 88.4178 960.756 88.6497 961.773 88.8875C962.789 89.1254 963.604 89.3395 964.151 89.4822C964.438 89.5799 964.732 89.6535 965.031 89.7022C964.762 89.563 964.479 89.4514 964.187 89.3692C963.64 89.167 962.825 88.9173 961.808 88.6497C960.618 88.3447 959.414 88.1006 958.199 87.9183C955.219 87.4667 952.195 87.3868 949.196 87.6804C947.816 87.8231 946.579 88.0075 945.551 88.2215C944.522 88.4356 943.701 88.6378 943.142 88.8162C942.859 88.895 942.583 88.9964 942.316 89.1195Z" fill="white"/>
<path d="M771.141 120.184C771.141 120.267 802.169 122.051 840.447 124.168C878.724 126.285 909.77 127.932 909.776 127.843C909.782 127.754 878.754 125.976 840.464 123.859C802.175 121.742 771.141 120.095 771.141 120.184Z" fill="white"/>
<path d="M711.474 88.8579C711.812 88.801 712.145 88.7134 712.467 88.5962C712.782 88.5011 713.169 88.3881 713.621 88.2751C714.072 88.1621 714.584 88.0135 715.161 87.8946C716.302 87.621 717.682 87.3713 719.222 87.1631C720.893 86.9557 722.575 86.8426 724.259 86.8242C725.941 86.8225 727.623 86.9138 729.295 87.0977C730.841 87.288 732.221 87.5199 733.369 87.7756C733.963 87.8886 734.457 88.0313 734.909 88.1384C735.361 88.2454 735.753 88.3524 736.068 88.4476C736.395 88.5551 736.729 88.6386 737.067 88.6973C736.757 88.5499 736.435 88.4286 736.104 88.3346C735.795 88.2216 735.408 88.0967 734.956 87.9719C734.504 87.847 733.993 87.6864 733.416 87.5616C732.069 87.2377 730.706 86.9896 729.331 86.8183C727.646 86.6126 725.95 86.5093 724.253 86.509C722.556 86.5328 720.862 86.6579 719.18 86.8837C717.809 87.074 716.449 87.34 715.107 87.6805C714.512 87.8113 714.025 87.9778 713.573 88.1086C713.121 88.2395 712.74 88.3703 712.431 88.4833C712.104 88.5862 711.784 88.7114 711.474 88.8579Z" fill="white"/>
<path d="M754.604 78.7905C754.604 78.838 755.044 78.9035 755.722 79.1235C757.497 79.7074 759.008 80.9021 759.985 82.4951C760.166 82.842 760.365 83.1794 760.58 83.506C760.527 83.1095 760.392 82.7286 760.182 82.3881C759.731 81.5354 759.107 80.7862 758.351 80.1882C757.594 79.5903 756.721 79.1567 755.787 78.9153C755.406 78.7902 755.003 78.7476 754.604 78.7905Z" fill="white"/>
<path d="M730.312 73.1175C730.907 73.2824 731.516 73.3919 732.131 73.4446C733.267 73.5932 734.843 73.7479 736.585 73.8252C738.328 73.9025 739.909 73.8846 741.051 73.8252C741.67 73.8315 742.287 73.7757 742.895 73.6587C742.28 73.5972 741.662 73.5793 741.045 73.6051C739.909 73.6051 738.334 73.6051 736.597 73.504C734.861 73.403 733.291 73.3078 732.155 73.2127C731.544 73.1322 730.928 73.1004 730.312 73.1175Z" fill="white"/>
<path d="M795.581 78.3326C795.581 78.4158 801.42 79.3316 808.663 80.3782C815.906 81.4247 821.745 82.2037 821.787 82.1205C821.829 82.0372 815.942 81.1155 808.705 80.0749C801.468 79.0343 795.593 78.2493 795.581 78.3326Z" fill="white"/>
<path d="M801.545 65.3456C801.509 65.4229 804.298 66.7073 807.771 68.2118C811.244 69.7162 814.086 70.8698 814.122 70.7925C814.157 70.7152 811.369 69.4308 807.896 67.9263C804.423 66.4219 801.581 65.2683 801.545 65.3456Z" fill="white"/>
<path d="M804.863 63.7102C805.113 63.8934 805.38 64.0526 805.66 64.1859C806.183 64.4714 806.944 64.8757 807.896 65.3752C809.793 66.3385 812.451 67.617 815.43 68.9431C818.409 70.2691 821.144 71.3217 823.16 72.0769C824.159 72.4515 824.974 72.7369 825.539 72.9272C825.827 73.0397 826.123 73.1292 826.425 73.1948C826.157 73.0398 825.874 72.9123 825.58 72.8142L823.243 71.8747C821.263 71.0779 818.546 69.9659 815.573 68.6577C812.599 67.3494 809.929 66.1126 808.009 65.1968L805.731 64.1146C805.453 63.9559 805.163 63.8207 804.863 63.7102Z" fill="white"/>
<path d="M699.843 115.813C700.317 114.551 700.856 113.314 701.46 112.108C702.156 110.953 702.911 109.834 703.72 108.755C703.383 108.978 703.087 109.257 702.846 109.581C702.214 110.315 701.66 111.112 701.192 111.96C700.724 112.809 700.349 113.706 700.075 114.636C699.93 115.012 699.851 115.41 699.843 115.813Z" fill="#455A64"/>
<path d="M700.17 122.283C700.262 121.773 700.325 121.259 700.36 120.743C700.512 119.512 700.785 118.299 701.175 117.121C701.576 115.949 702.09 114.817 702.709 113.744C702.996 113.313 703.258 112.866 703.494 112.406C703.113 112.764 702.786 113.177 702.525 113.631C701.834 114.687 701.283 115.829 700.884 117.026C700.481 118.221 700.231 119.461 700.14 120.719C700.074 121.239 700.084 121.766 700.17 122.283Z" fill="#455A64"/>
<path d="M745.06 135.597C745.425 135.266 745.74 134.884 745.993 134.461C747.339 132.495 748.253 130.265 748.675 127.92C748.788 127.439 748.834 126.945 748.812 126.451C748.446 128.067 747.974 129.656 747.397 131.208C746.718 132.723 745.937 134.189 745.06 135.597Z" fill="#455A64"/>
<path d="M744.15 140.467C744.15 140.467 744.304 140.366 744.548 140.14C744.792 139.914 745.143 139.581 745.523 139.147C746.554 138.005 747.47 136.764 748.259 135.442C749.048 134.122 749.707 132.728 750.227 131.28C750.417 130.727 750.56 130.269 750.637 129.948C750.699 129.786 750.731 129.615 750.732 129.442C750.685 129.442 750.459 130.12 750.019 131.226C749.449 132.637 748.773 134.003 747.997 135.312C747.211 136.616 746.329 137.861 745.357 139.034C744.93 139.491 744.527 139.969 744.15 140.467Z" fill="#455A64"/>
<path d="M972.089 138.992C972.441 138.735 972.759 138.433 973.035 138.094C973.739 137.325 974.394 136.513 974.997 135.662C975.607 134.813 976.161 133.925 976.656 133.004C976.89 132.635 977.07 132.235 977.191 131.815C977.108 131.767 976.157 133.498 974.747 135.472C973.338 137.446 972.024 138.927 972.089 138.992Z" fill="#455A64"/>
<path d="M971.251 142.376C972.263 141.7 973.188 140.901 974.004 139.997C974.892 139.156 975.671 138.207 976.323 137.173C976.252 137.119 975.182 138.362 973.784 139.777C972.387 141.192 971.191 142.304 971.251 142.376Z" fill="#455A64"/>
<path d="M930.506 120.118C930.595 120.118 930.809 118.584 931.481 116.794C932.153 115.004 932.997 113.696 932.914 113.643C931.456 115.495 930.623 117.762 930.536 120.118H930.506Z" fill="#455A64"/>
<path d="M929.013 120.683C929.294 119.205 929.692 117.752 930.203 116.336C930.818 114.96 931.54 113.634 932.361 112.37C932.018 112.66 931.722 113.001 931.481 113.381C930.85 114.26 930.323 115.21 929.911 116.212C929.504 117.216 929.218 118.267 929.061 119.339C928.972 119.782 928.956 120.236 929.013 120.683Z" fill="#455A64"/>
<path d="M977.25 146.229C977.598 146.024 977.911 145.765 978.178 145.462C978.874 144.789 979.516 144.064 980.099 143.292C980.684 142.52 981.211 141.705 981.675 140.854C981.891 140.514 982.056 140.143 982.162 139.753C982.079 139.712 981.211 141.317 979.855 143.101C978.499 144.885 977.185 146.164 977.25 146.229Z" fill="#455A64"/>
<path d="M975.699 149.833C975.871 149.781 976.035 149.705 976.186 149.607C976.49 149.452 976.912 149.197 977.423 148.864C980.093 147.092 982.345 144.76 984.024 142.031C984.339 141.508 984.583 141.074 984.725 140.764C984.82 140.612 984.891 140.445 984.934 140.271C984.886 140.271 984.517 140.907 983.839 141.912C982.075 144.537 979.861 146.83 977.298 148.685C976.293 149.393 975.657 149.785 975.699 149.833Z" fill="#455A64"/>
<path d="M620.279 102.88C620.279 102.963 628.646 103.034 638.963 103.034C649.28 103.034 657.646 102.963 657.646 102.88C657.646 102.796 649.28 102.725 638.963 102.725C628.646 102.725 620.279 102.79 620.279 102.88Z" fill="#263238"/>
<path d="M620 99.6804C620 99.7696 625.947 99.835 633.267 99.835C640.587 99.835 646.533 99.7696 646.533 99.6804C646.533 99.5912 640.587 99.5258 633.267 99.5258C625.947 99.5258 620 99.5971 620 99.6804Z" fill="#263238"/>
<path d="M328.507 198.027L31.5977 198.494L31.5286 154.551L328.438 154.085L328.507 198.027Z" fill="#455A64"/>
<path d="M16.0725 122.181C16.0725 122.181 23.4977 123.012 24.8167 122.181C27.8029 120.26 92.7889 94.0605 148.629 94.0002C193.415 93.94 233.742 105.818 272.964 132.004C272.964 132.004 320.729 137.266 339.382 151.246C343.741 153.777 352.639 163.754 349.245 186.411C347.082 200.86 336.323 201.469 321.626 201.141C321.626 201.141 327.096 157.252 287.981 160.607C254.745 163.452 261.106 204.027 261.106 204.027L94.5699 204.288C94.5699 204.288 93.8401 186.264 93.1304 181.898C91.7177 173.154 80.851 158.826 60.5638 160.955C38.308 163.292 30.9029 183.599 32.329 200.739C32.329 200.739 8.84805 205.814 5.67441 186.926L0.070343 185.186C0.070343 185.186 -2.0856 146.004 17.4785 129.533L13.2805 126.741L16.0725 122.181Z" fill="#92E3A9"/>
<path d="M27.147 120.929C27.147 120.929 28.533 124.705 33.3069 124.277C37.1969 123.936 59.4191 115.513 67.5206 112.406C68.6774 111.982 69.7183 111.293 70.5592 110.392C71.4002 109.492 72.0175 108.407 72.3614 107.224C72.5308 106.726 72.5678 106.193 72.4686 105.677C72.4686 105.677 37.92 113.979 27.147 120.929Z" fill="#455A64"/>
<path d="M217.906 104.519C217.913 106.107 218.367 107.662 219.218 109.004C220.068 110.346 221.28 111.421 222.714 112.105L270.251 134.755L272.97 131.83C272.97 131.83 268.002 128.254 261.507 124.391C255.481 120.822 248.116 117.026 243.717 114.883C235.374 110.813 226.748 107.349 217.906 104.519Z" fill="#455A64"/>
<g opacity="0.3">
<path opacity="0.3" d="M60.0812 124.284C59.7603 124.558 59.5026 124.899 59.326 125.283C59.1493 125.667 59.0578 126.084 59.0578 126.507C59.0578 126.929 59.1493 127.346 59.326 127.73C59.5026 128.114 59.7603 128.455 60.0812 128.729C62.438 131.133 73.6663 139.482 78.882 139.991C84.0978 140.5 242.492 151.072 251.866 148.387C261.239 145.702 266.73 140.949 264.373 138.217L260.121 136.811L185.454 138.337L60.0812 124.284Z" fill="white"/>
</g>
<g opacity="0.7">
<path opacity="0.7" d="M2.46727 157.962C2.46727 157.962 11.6869 160.694 15.6238 153.422C19.5607 146.151 23.8994 138.465 23.8994 136.804C23.8994 134.722 22.4063 128.027 17.4785 129.386C17.4785 129.386 3.77288 140.306 2.46727 157.962Z" fill="white"/>
</g>
<g opacity="0.7">
<path opacity="0.7" d="M343.441 165.421C343.441 165.421 307.74 151.139 313.519 146.272C316.565 143.701 345.918 157.841 343.441 165.421Z" fill="white"/>
</g>
<path d="M328.864 201.014C328.864 201.014 328.864 200.893 328.864 200.659C328.864 200.425 328.904 200.07 328.911 199.601C328.911 198.677 328.951 197.318 328.911 195.584C328.713 190.619 327.949 185.693 326.635 180.901C325.724 177.582 324.451 174.373 322.838 171.333C320.999 167.83 318.551 164.683 315.607 162.04L314.422 161.002L313.143 160.058C312.268 159.422 311.361 158.832 310.425 158.29C309.963 158.002 309.454 157.788 308.965 157.534C308.477 157.279 307.988 157.018 307.466 156.81L305.905 156.194L305.115 155.886L304.305 155.639C303.207 155.282 302.089 154.99 300.958 154.762L299.257 154.407C298.681 154.32 298.099 154.259 297.523 154.179C296.947 154.099 296.358 154.025 295.769 153.965L294.001 153.878C292.81 153.781 291.613 153.754 290.419 153.797C285.725 153.786 281.071 154.649 276.693 156.342C272.627 157.96 268.969 160.457 265.981 163.653C263.317 166.572 261.142 169.903 259.539 173.516C258.136 176.65 257.052 179.918 256.306 183.271C255.232 188.109 254.666 193.046 254.618 198.001C254.618 199.762 254.665 201.128 254.719 202.052C254.719 202.507 254.779 202.862 254.806 203.096C254.833 203.33 254.859 203.451 254.859 203.451C254.859 203.451 254.859 203.33 254.859 203.096C254.859 202.862 254.859 202.494 254.812 202.045C254.772 201.121 254.746 199.762 254.812 198.028C254.903 193.069 255.502 188.133 256.6 183.298C257.36 179.968 258.45 176.723 259.854 173.609C261.453 170.031 263.619 166.735 266.268 163.847C269.236 160.687 272.867 158.224 276.901 156.636C281.24 154.96 285.854 154.107 290.506 154.119C295.153 153.999 299.79 154.614 304.245 155.94L305.055 156.181L305.832 156.489L307.378 157.092C307.894 157.299 308.369 157.574 308.858 157.808C309.347 158.042 309.849 158.27 310.304 158.558C311.227 159.088 312.121 159.667 312.983 160.292L314.255 161.229L315.426 162.254C318.348 164.868 320.783 167.981 322.617 171.447C324.24 174.452 325.526 177.627 326.454 180.914C327.788 185.685 328.588 190.589 328.837 195.537C328.924 197.291 328.938 198.65 328.931 199.554V200.605C328.864 200.893 328.864 201.014 328.864 201.014Z" fill="#263238"/>
<path d="M100.18 204.134C100.18 204.134 100.18 204.013 100.227 203.779C100.274 203.545 100.274 203.203 100.301 202.748C100.361 201.837 100.415 200.485 100.401 198.731C100.381 193.824 99.8396 188.934 98.7876 184.141C98.0646 180.828 97.0104 177.595 95.6408 174.493C94.0645 170.921 91.9085 167.634 89.26 164.765C86.3092 161.6 82.6846 159.141 78.6544 157.567C74.3138 155.912 69.7081 155.061 65.0627 155.056C60.4364 154.871 55.8096 155.411 51.3504 156.656C51.0825 156.737 50.808 156.797 50.5469 156.884L49.7635 157.172L48.2035 157.754C47.1858 158.156 46.1949 158.678 45.2441 159.134C44.3268 159.696 43.3828 160.205 42.5191 160.814L41.2536 161.745C41.0461 161.899 40.8251 162.046 40.631 162.214L40.0485 162.729C37.1037 165.298 34.6452 168.375 32.7906 171.815C31.1921 174.809 29.9474 177.98 29.0813 181.262C27.8192 186.005 27.1446 190.884 27.0727 195.791C27.0392 197.525 27.0727 198.878 27.1463 199.809C27.1463 200.264 27.1999 200.612 27.2266 200.846C27.2534 201.081 27.2802 201.194 27.2802 201.194C27.2921 201.077 27.2921 200.958 27.2802 200.84C27.2802 200.592 27.2802 200.25 27.2266 199.802C27.2266 198.891 27.1664 197.545 27.2266 195.818C27.3496 190.927 28.0531 186.068 29.3223 181.342C30.2057 178.087 31.4569 174.942 33.0517 171.969C34.9066 168.566 37.3582 165.525 40.2895 162.99L40.8653 162.481C41.0661 162.321 41.2804 162.18 41.4813 162.019L42.74 161.102C43.5903 160.506 44.5277 160.004 45.4182 159.448C46.389 159 47.3398 158.484 48.3508 158.109L49.8908 157.54L50.6674 157.259C50.9286 157.165 51.2031 157.105 51.4709 157.031C55.8892 155.785 60.4753 155.239 65.0627 155.411C69.6579 155.421 74.2133 156.265 78.5071 157.902C82.5008 159.449 86.0955 161.875 89.0257 164.999C91.6576 167.838 93.8043 171.091 95.3797 174.627C96.7442 177.712 97.8027 180.923 98.5399 184.215C99.6026 188.989 100.177 193.86 100.254 198.751C100.287 200.485 100.254 201.831 100.22 202.768C100.22 203.217 100.22 203.558 100.174 203.806C100.127 204.053 100.18 204.134 100.18 204.134Z" fill="#263238"/>
<path d="M61.6488 124.277C61.6488 124.277 75.495 136.329 81.4941 136.329C87.4932 136.329 245.606 145.917 252.643 143.071C256.35 141.646 259.934 139.918 263.356 137.902C263.356 137.902 211.761 100.743 151.636 102.524C107.499 103.829 61.6488 124.277 61.6488 124.277Z" fill="#455A64"/>
<path d="M231.417 120.159L241.862 143.593L247.165 143.587L238.534 123.527L231.417 120.159Z" fill="#263238"/>
<g opacity="0.3">
<path opacity="0.3" d="M99.6099 154.442L118.357 154.413L118.351 150.67C118.351 150.444 118.261 150.228 118.101 150.069C117.942 149.91 117.725 149.821 117.5 149.821L100.453 149.848C100.227 149.848 100.011 149.938 99.8521 150.098C99.6929 150.257 99.6036 150.474 99.604 150.699L99.6098 154.409L99.6099 154.442Z" fill="#252525"/>
</g>
<g opacity="0.3">
<path opacity="0.3" d="M172.679 154.33L191.426 154.3L191.42 150.591C191.42 150.365 191.33 150.149 191.17 149.99C191.01 149.831 190.794 149.742 190.568 149.742L173.515 149.769C173.29 149.769 173.073 149.859 172.914 150.019C172.755 150.178 172.666 150.395 172.666 150.62L172.672 154.33L172.679 154.33Z" fill="#252525"/>
</g>
<path d="M107.781 108.965L91.4103 136.784L106.663 137.601L104.694 124.217L114.71 107.358L107.781 108.965Z" fill="#263238"/>
<path d="M167.462 102.918L170.013 140.922L164.449 140.647L162.046 102.577L167.462 102.918Z" fill="#263238"/>
<path d="M238.717 149.338L236.341 146.881L240.123 142.067L243.377 145.18C243.862 145.593 244.163 146.18 244.214 146.814C244.67 149.807 240.82 151.507 238.717 149.338Z" fill="#263238"/>
<path d="M229.101 148.434C223.323 148.628 218.777 142.736 221.181 137.474C221.43 136.833 221.84 136.266 222.371 135.829C222.902 135.392 223.537 135.098 224.214 134.976C230.24 133.925 238.04 133.537 240.142 142.067C240.758 144.591 239.345 146.151 237.035 147.095C234.839 147.992 231.873 148.334 229.101 148.434Z" fill="#92E3A9"/>
<path d="M265.868 193.933C264.858 179.335 275.872 166.683 290.469 165.672C305.066 164.662 317.719 175.676 318.729 190.273C319.74 204.87 308.726 217.523 294.128 218.534C279.531 219.544 266.879 208.53 265.868 193.933Z" fill="#263238"/>
<path d="M292.274 174.446C295.765 174.437 299.18 175.463 302.088 177.396C304.996 179.328 307.266 182.079 308.61 185.301C309.954 188.523 310.312 192.072 309.639 195.498C308.966 198.923 307.292 202.073 304.829 204.547C302.366 207.021 299.224 208.709 295.801 209.398C292.379 210.087 288.829 209.745 285.601 208.415C282.372 207.086 279.611 204.829 277.665 201.93C275.72 199.031 274.678 195.62 274.671 192.129C274.666 189.812 275.117 187.517 275.999 185.374C276.881 183.232 278.176 181.284 279.81 179.642C281.445 178 283.387 176.696 285.525 175.805C287.664 174.913 289.957 174.451 292.274 174.446ZM306.435 192.082C306.431 189.287 305.598 186.555 304.041 184.233C302.485 181.911 300.275 180.102 297.691 179.036C295.107 177.97 292.264 177.694 289.523 178.244C286.782 178.793 284.266 180.143 282.292 182.122C280.318 184.102 278.976 186.622 278.434 189.364C277.893 192.107 278.177 194.948 279.25 197.53C280.323 200.111 282.138 202.316 284.465 203.865C286.791 205.415 289.525 206.24 292.321 206.236C296.067 206.224 299.656 204.727 302.301 202.074C304.947 199.422 306.433 195.829 306.435 192.082Z" fill="#E0E0E0"/>
<path d="M292.28 177.941C295.078 177.935 297.815 178.758 300.145 180.307C302.475 181.856 304.294 184.061 305.371 186.644C306.448 189.226 306.734 192.07 306.195 194.816C305.656 197.562 304.314 200.086 302.34 202.069C300.367 204.052 297.849 205.405 295.106 205.958C292.363 206.51 289.518 206.237 286.93 205.172C284.342 204.107 282.128 202.299 280.568 199.976C279.008 197.654 278.172 194.92 278.165 192.122C278.16 188.371 279.643 184.771 282.289 182.112C284.936 179.454 288.528 177.954 292.28 177.941Z" fill="#F5F5F5"/>
<path d="M296.478 192.142C296.479 192.969 296.236 193.777 295.778 194.464C295.32 195.152 294.668 195.689 293.905 196.006C293.142 196.324 292.302 196.408 291.492 196.248C290.681 196.088 289.936 195.691 289.351 195.108C288.765 194.525 288.366 193.781 288.204 192.971C288.041 192.16 288.123 191.32 288.438 190.556C288.753 189.792 289.287 189.139 289.973 188.679C290.66 188.219 291.467 187.972 292.293 187.971C292.842 187.97 293.385 188.077 293.893 188.286C294.4 188.496 294.861 188.803 295.25 189.19C295.638 189.577 295.947 190.037 296.157 190.544C296.368 191.05 296.477 191.594 296.478 192.142Z" fill="#263238"/>
<path d="M45.609 211.776C35.2625 201.429 35.2625 184.654 45.609 174.308C55.9555 163.961 72.7305 163.961 83.077 174.308C93.4235 184.654 93.4235 201.429 83.077 211.776C72.7305 222.122 55.9555 222.122 45.609 211.776Z" fill="#263238"/>
<path d="M64.3196 175.39C67.8105 175.381 71.2258 176.407 74.1335 178.339C77.0412 180.271 79.3106 183.022 80.6548 186.244C81.999 189.465 82.3575 193.013 81.6851 196.439C81.0126 199.865 79.3394 203.014 76.877 205.488C74.4146 207.963 71.2737 209.652 67.8515 210.341C64.4292 211.03 60.8794 210.689 57.6511 209.361C54.4227 208.033 51.6607 205.777 49.7145 202.879C47.7682 199.981 46.7252 196.571 46.7172 193.08C46.7066 188.4 48.5549 183.908 51.8558 180.59C55.1567 177.273 59.6399 175.403 64.3196 175.39ZM78.4537 193.033C78.451 190.235 77.6179 187.5 76.0599 185.176C74.502 182.852 72.2892 181.043 69.7021 179.977C67.1149 178.912 64.2696 178.638 61.5268 179.191C58.7839 179.744 56.2669 181.098 54.2945 183.083C52.3221 185.067 50.9831 187.593 50.4472 190.339C49.9113 193.085 50.2025 195.929 51.2839 198.509C52.3654 201.09 54.1885 203.291 56.5222 204.835C58.8559 206.379 61.5953 207.195 64.3932 207.18C68.1297 207.155 71.7049 205.654 74.3388 203.004C76.9728 200.354 78.452 196.769 78.4537 193.033Z" fill="#E0E0E0"/>
<path d="M64.3265 178.892C67.1249 178.884 69.8628 179.706 72.1939 181.254C74.525 182.803 76.3445 185.007 77.4225 187.59C78.5004 190.172 78.7882 193.016 78.2496 195.762C77.711 198.509 76.3701 201.033 74.3965 203.017C72.4229 205.001 69.9052 206.355 67.162 206.908C64.4188 207.461 61.5732 207.188 58.9852 206.123C56.3972 205.059 54.1829 203.251 52.6226 200.928C51.0622 198.605 50.2258 195.871 50.2192 193.073C50.2121 189.322 51.6938 185.722 54.3388 183.064C56.9839 180.405 60.5761 178.904 64.3265 178.892Z" fill="#F5F5F5"/>
<path d="M68.5254 193.12C68.5267 193.946 68.2828 194.755 67.8245 195.443C67.3662 196.131 66.7142 196.667 65.9509 196.985C65.1876 197.302 64.3473 197.386 63.5364 197.225C62.7256 197.065 61.9805 196.667 61.3955 196.083C60.8106 195.499 60.412 194.755 60.2502 193.944C60.0885 193.134 60.1708 192.293 60.4868 191.529C60.8029 190.765 61.3384 190.113 62.0256 189.653C62.7128 189.194 63.5208 188.949 64.3474 188.949C65.4543 188.949 66.516 189.388 67.2993 190.17C68.0826 190.952 68.5236 192.013 68.5254 193.12Z" fill="#263238"/>
<path d="M51.8001 143.265C51.8108 144.08 52.0628 144.873 52.5244 145.544C52.986 146.216 53.6363 146.735 54.3931 147.037C55.1499 147.338 55.9791 147.409 56.7758 147.239C57.5726 147.069 58.3011 146.667 58.8691 146.083C59.4371 145.499 59.8192 144.759 59.9669 143.958C60.1146 143.157 60.0214 142.33 59.699 141.582C59.3766 140.834 58.8395 140.198 58.1557 139.755C57.4719 139.312 56.6721 139.082 55.8575 139.094C54.7666 139.11 53.7266 139.558 52.9658 140.34C52.2051 141.122 51.7858 142.174 51.8001 143.265Z" fill="#263238"/>
<path d="M100.282 194.794H100.677H101.849L106.348 194.881L122.886 195.149L177.46 195.818C198.779 196.039 218.082 196.18 232.048 196.2C239.032 196.2 244.689 196.2 248.593 196.133C252.496 196.066 254.672 195.979 254.619 195.852C254.105 195.934 253.585 195.968 253.065 195.952C252.041 195.952 250.521 195.992 248.573 195.999C244.669 195.999 239.012 195.999 232.028 195.959L177.447 195.463L122.872 194.887L106.328 194.733H101.828H100.657L100.282 194.794Z" fill="#263238"/>
<path d="M167.831 204.007C167.931 204.007 167.831 189.946 167.556 172.632C167.282 155.317 167.02 141.25 166.927 141.257C166.833 141.264 166.927 155.317 167.208 172.632C167.489 189.946 167.737 204.007 167.831 204.007Z" fill="#263238"/>
<path d="M131.094 113.611C131.034 113.685 135.352 117.628 140.742 122.422C146.132 127.216 150.551 131.04 150.618 130.966C150.685 130.892 146.36 126.949 140.97 122.161C135.58 117.374 131.161 113.544 131.094 113.611Z" fill="#F5F5F5"/>
<path d="M133.216 121.204C133.423 121.443 133.647 121.667 133.886 121.873C134.328 122.295 134.977 122.891 135.794 123.614C137.421 125.074 139.698 127.042 142.269 129.158C144.84 131.274 147.217 133.135 148.964 134.454C149.834 135.124 150.544 135.633 151.04 135.987C151.288 136.186 151.555 136.361 151.836 136.51C151.619 136.279 151.382 136.068 151.127 135.88L149.118 134.26C147.417 132.921 145.101 131.006 142.496 128.904C139.892 126.801 137.629 124.846 135.962 123.44L133.953 121.786C133.729 121.566 133.482 121.371 133.216 121.204Z" fill="#F5F5F5"/>
<path d="M187.69 114.448C187.637 114.528 193.937 118.921 201.751 124.264C209.564 129.607 215.965 133.872 216.019 133.791C216.072 133.711 209.779 129.319 201.958 123.976C194.138 118.633 187.744 114.368 187.69 114.448Z" fill="#F5F5F5"/>
<path d="M181.826 114.18C182.075 114.427 182.346 114.651 182.636 114.85L184.912 116.604L192.431 122.376L199.883 128.234L202.14 130.015C202.406 130.246 202.693 130.452 202.997 130.631C202.76 130.369 202.503 130.127 202.227 129.908C201.718 129.459 200.968 128.823 200.037 128.04C198.176 126.487 195.571 124.371 192.672 122.101C189.773 119.831 187.055 117.823 185.086 116.403C184.102 115.693 183.299 115.131 182.736 114.749C182.451 114.532 182.146 114.342 181.826 114.18Z" fill="#F5F5F5"/>
<path d="M276.358 133.443C276.418 133.466 276.481 133.479 276.545 133.483L277.081 133.564L279.157 133.845C280.958 134.093 283.562 134.461 286.763 135.01C295.111 136.442 303.359 138.408 311.455 140.895C316.196 142.355 320.648 143.928 324.652 145.488C328.22 146.805 331.695 148.357 335.057 150.135C337.314 151.348 339.406 152.844 341.284 154.587C341.625 154.889 341.9 155.183 342.141 155.431C342.382 155.679 342.589 155.9 342.743 156.101L343.112 156.502C343.151 156.55 343.193 156.595 343.239 156.636C343.239 156.636 343.239 156.576 343.138 156.482L342.797 156.054C342.65 155.866 342.462 155.639 342.221 155.384C341.98 155.13 341.712 154.822 341.377 154.507C339.523 152.716 337.438 151.18 335.177 149.941C331.821 148.126 328.342 146.546 324.766 145.214C320.749 143.634 316.303 142.04 311.556 140.587C303.452 138.091 295.186 136.154 286.816 134.789C283.602 134.273 280.991 133.939 279.183 133.731L277.101 133.517L276.559 133.47C276.494 133.449 276.426 133.44 276.358 133.443Z" fill="#F5F5F5"/>
<path d="M109.601 98.5731H109.875L110.686 98.4392L113.779 97.9036C116.457 97.4483 120.367 96.8323 125.208 96.2498C137.818 94.6833 150.552 94.3604 163.225 95.2856C178.069 96.4506 191.272 99.41 200.719 101.727C205.453 102.905 209.263 103.929 211.894 104.653L214.927 105.476L215.717 105.684C215.806 105.713 215.898 105.734 215.992 105.744C215.906 105.703 215.816 105.672 215.724 105.65L214.947 105.409L211.934 104.519C209.31 103.755 205.507 102.691 200.78 101.486C191.326 99.1087 178.116 96.1293 163.238 94.9375C150.545 94.0047 137.789 94.3614 125.168 96.002C120.32 96.618 116.424 97.2742 113.739 97.7696C112.4 98.0107 111.362 98.2316 110.659 98.3655L109.855 98.5329C109.769 98.5375 109.684 98.551 109.601 98.5731Z" fill="#F5F5F5"/>
<path d="M221.997 136.878C222.292 136.874 222.585 136.845 222.874 136.791C223.43 136.724 224.213 136.623 225.238 136.577C227.846 136.421 230.461 136.699 232.978 137.4C234.349 137.801 235.637 138.445 236.781 139.302C237.705 140.01 238.479 140.895 239.057 141.906C239.577 142.852 239.913 143.888 240.048 144.959C240.048 144.959 240.048 144.879 240.048 144.732C240.052 144.508 240.039 144.284 240.008 144.062C239.892 143.261 239.639 142.486 239.258 141.772C238.69 140.71 237.908 139.778 236.962 139.034C235.796 138.128 234.473 137.447 233.058 137.025C230.505 136.311 227.845 136.062 225.204 136.289C224.406 136.35 223.612 136.459 222.827 136.617C222.542 136.674 222.264 136.761 221.997 136.878Z" fill="#F5F5F5"/>
<path d="M172.913 145.964C172.913 146.064 182.648 146.72 194.667 147.437C206.685 148.153 216.434 148.655 216.44 148.561C216.447 148.468 206.712 147.805 194.687 147.088C182.662 146.372 172.92 145.87 172.913 145.964Z" fill="#F5F5F5"/>
<path d="M282.451 154.052C282.509 154.058 282.567 154.058 282.625 154.052L283.114 153.945C283.542 153.864 284.158 153.67 284.982 153.543C287.29 153.114 289.631 152.89 291.978 152.873C295.457 152.809 298.932 153.155 302.33 153.905C306.506 154.757 310.49 156.373 314.08 158.672C317.601 161.074 320.636 164.12 323.025 167.65C324.983 170.527 326.516 173.67 327.578 176.984C328.296 179.218 328.783 181.52 329.031 183.853C329.158 184.677 329.152 185.326 329.198 185.762L329.239 186.257C329.232 186.315 329.232 186.373 329.239 186.431C329.249 186.373 329.249 186.315 329.239 186.257V185.762C329.239 185.32 329.239 184.67 329.138 183.84C328.942 181.489 328.493 179.165 327.799 176.91C326.761 173.56 325.239 170.379 323.28 167.47C320.892 163.864 317.832 160.752 314.268 158.303C310.647 155.979 306.623 154.353 302.403 153.509C298.977 152.773 295.475 152.45 291.972 152.545C289.613 152.594 287.263 152.866 284.955 153.355C284.131 153.503 283.522 153.724 283.094 153.824L282.611 153.965L282.451 154.052Z" fill="#F5F5F5"/>
</svg>
