<svg width="397" height="162" viewBox="0 0 397 162" fill="none" xmlns="http://www.w3.org/2000/svg">
<path d="M381.051 138.264L160.728 138.602L160.676 106.836L381 106.499L381.051 138.264Z" fill="#455A64"/>
<path d="M149.207 83.4351C149.207 83.4351 154.717 84.0353 155.696 83.4351C157.911 82.046 206.135 63.1065 247.571 63.0629C280.805 63.0193 310.73 71.6058 339.835 90.5356C339.835 90.5356 375.279 94.3399 389.121 104.446C392.356 106.276 398.959 113.488 396.44 129.867C394.835 140.312 386.851 140.752 375.945 140.515C375.945 140.515 380.004 108.788 350.979 111.213C326.316 113.27 331.036 142.601 331.036 142.601L207.456 142.79C207.456 142.79 206.915 129.76 206.388 126.604C205.34 120.283 197.276 109.925 182.222 111.464C165.707 113.154 160.212 127.834 161.27 140.225C161.27 140.225 143.846 143.893 141.491 130.239L137.332 128.981C137.332 128.981 135.732 100.656 150.25 88.7496L147.135 86.7312L149.207 83.4351Z" fill="#92E3A9"/>
<path d="M157.424 82.53C157.424 82.53 158.453 85.2598 161.995 84.9501C164.882 84.7032 181.372 78.6143 187.384 76.3685C188.242 76.0623 189.014 75.5636 189.639 74.9128C190.263 74.262 190.721 73.4774 190.976 72.6222C191.102 72.2626 191.129 71.8772 191.055 71.5042C191.055 71.5042 165.418 77.5059 157.424 82.53Z" fill="#455A64"/>
<path d="M298.979 70.667C298.983 71.8154 299.321 72.9393 299.952 73.9093C300.583 74.8794 301.482 75.6563 302.546 76.1509L337.822 92.5251L339.839 90.4099C339.839 90.4099 336.152 87.8253 331.333 85.0325C326.861 82.4527 321.396 79.7084 318.132 78.1595C311.941 75.2169 305.54 72.7129 298.979 70.667V70.667Z" fill="#455A64"/>
<g opacity="0.3">
<path opacity="0.3" d="M181.863 84.9551C181.625 85.1536 181.433 85.4001 181.302 85.6775C181.171 85.9549 181.103 86.2566 181.103 86.562C181.103 86.8674 181.171 87.1691 181.302 87.4465C181.433 87.7239 181.625 87.9704 181.863 88.1689C183.612 89.9065 191.944 95.9422 195.814 96.3101C199.684 96.6779 317.222 104.321 324.178 102.38C331.134 100.439 335.208 97.0022 333.459 95.0274L330.304 94.011L274.896 95.1145L181.863 84.9551Z" fill="white"/>
</g>
<g opacity="0.7">
<path opacity="0.7" d="M139.111 109.301C139.111 109.301 145.952 111.276 148.874 106.019C151.795 100.763 155.015 95.2064 155.015 94.0061C155.015 92.5008 153.907 87.6606 150.25 88.6432C150.25 88.6432 140.08 96.5375 139.111 109.301Z" fill="white"/>
</g>
<g opacity="0.7">
<path opacity="0.7" d="M392.132 114.693C392.132 114.693 365.641 104.369 369.928 100.85C372.189 98.9916 393.971 109.214 392.132 114.693" fill="white"/>
</g>
<path d="M381.315 140.423C381.315 140.423 381.315 140.336 381.315 140.167C381.315 139.997 381.345 139.741 381.35 139.402C381.35 138.734 381.38 137.752 381.35 136.498C381.203 132.909 380.637 129.348 379.661 125.883C378.985 123.484 378.041 121.165 376.844 118.967C375.479 116.435 373.662 114.16 371.478 112.249L370.599 111.499L369.65 110.816C369 110.357 368.327 109.93 367.632 109.538C367.29 109.33 366.912 109.175 366.549 108.991C366.187 108.807 365.824 108.619 365.436 108.469L364.279 108.023L363.692 107.801L363.091 107.622C362.276 107.364 361.447 107.152 360.607 106.988L359.345 106.731C358.918 106.668 358.486 106.625 358.058 106.566C357.631 106.508 357.194 106.455 356.757 106.412L355.445 106.349C354.561 106.278 353.673 106.259 352.787 106.291C349.304 106.283 345.85 106.906 342.602 108.13C339.585 109.3 336.87 111.105 334.652 113.415C332.675 115.526 331.061 117.933 329.873 120.545C328.831 122.811 328.027 125.173 327.473 127.597C326.676 131.094 326.256 134.663 326.221 138.245C326.221 139.518 326.256 140.506 326.295 141.174C326.295 141.503 326.34 141.759 326.36 141.929C326.38 142.098 326.4 142.185 326.4 142.185C326.4 142.185 326.4 142.098 326.4 141.929C326.4 141.759 326.4 141.493 326.365 141.169C326.335 140.501 326.315 139.518 326.365 138.265C326.432 134.68 326.876 131.112 327.691 127.616C328.255 125.209 329.064 122.863 330.106 120.613C331.292 118.026 332.9 115.643 334.866 113.556C337.068 111.271 339.762 109.491 342.756 108.343C345.976 107.131 349.399 106.514 352.851 106.523C356.3 106.437 359.74 106.881 363.047 107.839L363.648 108.014L364.224 108.236L365.372 108.672C365.754 108.822 366.107 109.02 366.47 109.19C366.833 109.359 367.205 109.524 367.543 109.732C368.228 110.115 368.891 110.533 369.53 110.986L370.474 111.663L371.344 112.404C373.512 114.294 375.319 116.544 376.68 119.049C377.884 121.222 378.839 123.517 379.527 125.893C380.517 129.342 381.11 132.887 381.296 136.464C381.36 137.732 381.37 138.715 381.365 139.368V140.128C381.315 140.336 381.315 140.423 381.315 140.423Z" fill="#263238"/>
<path d="M211.619 142.679C211.619 142.679 211.619 142.592 211.653 142.422C211.688 142.253 211.688 142.006 211.708 141.677C211.753 141.019 211.793 140.041 211.783 138.773C211.767 135.226 211.366 131.691 210.585 128.226C210.049 125.831 209.266 123.494 208.25 121.251C207.08 118.669 205.481 116.293 203.515 114.219C201.326 111.931 198.636 110.153 195.645 109.016C192.424 107.819 189.007 107.204 185.559 107.201C182.126 107.067 178.693 107.457 175.384 108.357C175.185 108.415 174.982 108.459 174.788 108.522L174.207 108.73L173.049 109.151C172.294 109.442 171.558 109.819 170.853 110.148C170.172 110.555 169.472 110.923 168.831 111.363L167.892 112.036C167.738 112.147 167.574 112.254 167.43 112.375L166.997 112.747C164.812 114.604 162.988 116.829 161.612 119.315C160.426 121.48 159.502 123.772 158.859 126.145C157.923 129.573 157.422 133.101 157.369 136.648C157.344 137.902 157.369 138.879 157.423 139.552C157.423 139.881 157.463 140.133 157.483 140.302C157.503 140.472 157.523 140.554 157.523 140.554C157.531 140.469 157.531 140.383 157.523 140.297C157.523 140.118 157.523 139.872 157.483 139.547C157.483 138.889 157.438 137.916 157.483 136.667C157.574 133.132 158.096 129.619 159.038 126.203C159.694 123.849 160.622 121.576 161.805 119.427C163.182 116.967 165.001 114.769 167.176 112.936L167.604 112.568C167.753 112.452 167.912 112.35 168.061 112.234L168.995 111.571C169.626 111.14 170.321 110.777 170.982 110.376C171.703 110.051 172.408 109.679 173.158 109.408L174.301 108.996L174.877 108.793C175.071 108.725 175.275 108.682 175.474 108.628C178.752 107.728 182.155 107.332 185.559 107.457C188.969 107.464 192.35 108.074 195.536 109.258C198.499 110.376 201.167 112.13 203.341 114.388C205.294 116.44 206.887 118.792 208.056 121.348C209.069 123.578 209.854 125.9 210.401 128.279C211.19 131.731 211.616 135.252 211.673 138.787C211.698 140.041 211.673 141.014 211.648 141.691C211.648 142.016 211.648 142.263 211.614 142.442C211.579 142.621 211.619 142.679 211.619 142.679Z" fill="#263238"/>
<path d="M183.027 84.9502C183.027 84.9502 193.302 93.6624 197.753 93.6624C202.205 93.6624 319.534 100.594 324.756 98.5365C327.507 97.5064 330.165 96.2566 332.705 94.7999C332.705 94.7999 294.419 67.9371 249.802 69.2245C217.051 70.1684 183.027 84.9502 183.027 84.9502Z" fill="#455A64"/>
<path d="M309.004 81.9736L316.754 98.9141L320.689 98.9093L314.285 84.4082L309.004 81.9736Z" fill="#263238"/>
<g opacity="0.3">
<path opacity="0.3" d="M211.196 106.756L225.108 106.735L225.103 104.029C225.103 103.866 225.036 103.71 224.918 103.595C224.799 103.48 224.639 103.415 224.471 103.416L211.822 103.435C211.655 103.435 211.494 103.5 211.376 103.616C211.258 103.731 211.192 103.888 211.192 104.051L211.196 106.732L211.196 106.756Z" fill="#252525"/>
</g>
<g opacity="0.3">
<path opacity="0.3" d="M265.418 106.675L279.33 106.654L279.325 103.972C279.325 103.809 279.258 103.653 279.14 103.538C279.021 103.423 278.861 103.358 278.693 103.359L266.039 103.378C265.871 103.378 265.711 103.443 265.593 103.559C265.475 103.674 265.408 103.831 265.409 103.994L265.413 106.675L265.418 106.675Z" fill="#252525"/>
</g>
<path d="M217.26 73.8809L205.112 93.9917L216.43 94.5822L214.97 84.9067L222.402 72.7192L217.26 73.8809Z" fill="#263238"/>
<path d="M261.546 69.5103L263.439 96.9829L259.311 96.7845L257.527 69.2634L261.546 69.5103Z" fill="#263238"/>
<path d="M314.422 103.067L312.658 101.291L315.465 97.8105L317.88 100.061C318.239 100.359 318.462 100.784 318.501 101.242C318.839 103.406 315.982 104.635 314.422 103.067Z" fill="#263238"/>
<path d="M307.286 102.414C302.998 102.554 299.625 98.2946 301.408 94.4902C301.593 94.0267 301.897 93.6173 302.292 93.3012C302.686 92.9851 303.156 92.7729 303.659 92.6848C308.13 91.9249 313.919 91.6442 315.479 97.8106C315.936 99.6353 314.887 100.763 313.173 101.446C311.544 102.094 309.343 102.341 307.286 102.414Z" fill="#92E3A9"/>
<path d="M334.569 135.304C333.819 124.752 341.992 115.605 352.824 114.875C363.656 114.144 373.045 122.106 373.795 132.659C374.544 143.211 366.371 152.358 355.539 153.088C344.707 153.819 335.318 145.856 334.569 135.304Z" fill="#263238"/>
<path d="M354.163 121.218C356.754 121.211 359.289 121.953 361.446 123.35C363.604 124.746 365.288 126.735 366.286 129.065C367.283 131.394 367.549 133.959 367.049 136.436C366.55 138.912 365.308 141.189 363.48 142.977C361.652 144.766 359.321 145.986 356.781 146.484C354.241 146.982 351.607 146.735 349.212 145.774C346.816 144.813 344.767 143.181 343.323 141.086C341.88 138.99 341.106 136.524 341.102 134C341.098 132.326 341.432 130.666 342.087 129.118C342.741 127.569 343.702 126.161 344.915 124.974C346.128 123.787 347.569 122.844 349.156 122.2C350.743 121.555 352.444 121.221 354.163 121.218V121.218ZM364.672 133.967C364.669 131.946 364.051 129.971 362.896 128.292C361.741 126.614 360.101 125.306 358.183 124.536C356.266 123.765 354.156 123.566 352.123 123.963C350.089 124.36 348.221 125.335 346.756 126.766C345.292 128.197 344.295 130.019 343.894 132.002C343.492 133.985 343.703 136.039 344.499 137.905C345.296 139.77 346.642 141.364 348.369 142.485C350.095 143.605 352.124 144.201 354.198 144.199C356.978 144.19 359.641 143.108 361.604 141.19C363.567 139.272 364.67 136.675 364.672 133.967V133.967Z" fill="#E0E0E0"/>
<path d="M354.168 123.744C356.245 123.739 358.276 124.335 360.005 125.454C361.734 126.574 363.084 128.168 363.883 130.035C364.682 131.902 364.895 133.958 364.494 135.943C364.094 137.928 363.099 139.752 361.634 141.186C360.169 142.62 358.301 143.598 356.266 143.997C354.23 144.397 352.119 144.199 350.199 143.429C348.278 142.66 346.636 141.353 345.478 139.673C344.32 137.994 343.7 136.018 343.695 133.996C343.691 131.284 344.792 128.682 346.755 126.76C348.719 124.838 351.385 123.753 354.168 123.744V123.744Z" fill="#F5F5F5"/>
<path d="M357.283 134.01C357.284 134.607 357.103 135.191 356.763 135.689C356.424 136.186 355.94 136.574 355.374 136.803C354.808 137.033 354.185 137.093 353.583 136.978C352.981 136.862 352.428 136.575 351.994 136.154C351.56 135.732 351.264 135.194 351.143 134.609C351.023 134.023 351.083 133.416 351.317 132.863C351.55 132.311 351.947 131.839 352.456 131.506C352.966 131.173 353.565 130.995 354.178 130.994C354.585 130.994 354.988 131.071 355.365 131.222C355.741 131.374 356.083 131.596 356.372 131.876C356.66 132.156 356.889 132.488 357.045 132.854C357.202 133.221 357.283 133.613 357.283 134.01V134.01Z" fill="#263238"/>
<path d="M171.124 148.203C163.446 140.723 163.446 128.597 171.124 121.117C178.802 113.638 191.25 113.638 198.927 121.117C206.605 128.597 206.605 140.723 198.927 148.203C191.25 155.682 178.802 155.682 171.124 148.203Z" fill="#263238"/>
<path d="M185.008 121.9C187.599 121.893 190.133 122.635 192.291 124.032C194.448 125.428 196.132 127.417 197.13 129.746C198.127 132.075 198.393 134.64 197.894 137.116C197.395 139.593 196.154 141.869 194.327 143.658C192.499 145.447 190.169 146.668 187.629 147.166C185.09 147.664 182.455 147.418 180.06 146.458C177.664 145.497 175.615 143.867 174.17 141.772C172.726 139.676 171.952 137.211 171.946 134.688C171.938 131.305 173.31 128.057 175.759 125.659C178.209 123.261 181.536 121.909 185.008 121.9ZM195.496 134.654C195.494 132.631 194.876 130.654 193.72 128.974C192.564 127.294 190.922 125.986 189.002 125.216C187.082 124.446 184.971 124.248 182.936 124.647C180.9 125.047 179.033 126.026 177.569 127.461C176.105 128.896 175.112 130.721 174.714 132.706C174.316 134.692 174.532 136.747 175.335 138.613C176.138 140.478 177.49 142.07 179.222 143.186C180.954 144.301 182.987 144.892 185.063 144.881C187.836 144.863 190.488 143.778 192.443 141.862C194.398 139.946 195.495 137.355 195.496 134.654V134.654Z" fill="#E0E0E0"/>
<path d="M185.013 124.431C187.09 124.426 189.121 125.02 190.851 126.139C192.581 127.258 193.931 128.852 194.731 130.719C195.531 132.586 195.744 134.642 195.345 136.627C194.945 138.612 193.95 140.437 192.485 141.872C191.021 143.306 189.153 144.285 187.117 144.684C185.081 145.084 182.97 144.887 181.049 144.117C179.129 143.348 177.486 142.04 176.328 140.361C175.17 138.682 174.549 136.706 174.545 134.683C174.539 131.972 175.639 129.369 177.602 127.447C179.564 125.525 182.23 124.44 185.013 124.431V124.431Z" fill="#F5F5F5"/>
<path d="M188.129 134.717C188.13 135.314 187.949 135.899 187.609 136.396C187.269 136.893 186.785 137.281 186.218 137.511C185.652 137.74 185.029 137.8 184.427 137.684C183.825 137.568 183.272 137.281 182.838 136.859C182.404 136.437 182.108 135.899 181.988 135.313C181.868 134.727 181.929 134.119 182.164 133.567C182.398 133.015 182.796 132.543 183.306 132.211C183.816 131.879 184.415 131.701 185.029 131.701C185.85 131.701 186.638 132.019 187.219 132.584C187.8 133.15 188.128 133.917 188.129 134.717V134.717Z" fill="#263238"/>
<path d="M175.718 98.6771C175.726 99.266 175.913 99.8393 176.256 100.325C176.598 100.81 177.081 101.185 177.642 101.403C178.204 101.621 178.819 101.672 179.411 101.549C180.002 101.427 180.542 101.136 180.964 100.714C181.385 100.291 181.669 99.757 181.778 99.1778C181.888 98.5987 181.819 98.0009 181.58 97.46C181.34 96.9192 180.942 96.4596 180.434 96.1395C179.927 95.8194 179.334 95.6531 178.729 95.6617C177.92 95.6732 177.148 95.9972 176.583 96.5625C176.019 97.1279 175.708 97.8884 175.718 98.6771V98.6771Z" fill="#263238"/>
<path d="M211.694 135.927H211.987H212.857L216.196 135.99L228.468 136.183L268.965 136.667C284.784 136.827 299.108 136.929 309.472 136.943C314.655 136.943 318.853 136.943 321.749 136.895C324.646 136.846 326.261 136.783 326.221 136.691C325.84 136.751 325.454 136.776 325.068 136.764C324.308 136.764 323.18 136.793 321.734 136.798C318.838 136.798 314.64 136.798 309.458 136.769L268.955 136.411L228.458 135.994L216.181 135.883H212.842H211.972L211.694 135.927Z" fill="#263238"/>
<path d="M261.82 142.587C261.895 142.587 261.82 132.423 261.617 119.906C261.413 107.389 261.219 97.2203 261.15 97.2251C261.08 97.2299 261.15 107.389 261.358 119.906C261.567 132.423 261.751 142.587 261.82 142.587Z" fill="#263238"/>
<path d="M234.558 77.2399C234.514 77.2931 237.718 80.144 241.718 83.6095C245.717 87.0751 248.997 89.8388 249.046 89.7855C249.096 89.7323 245.886 86.8814 241.887 83.4207C237.887 79.96 234.608 77.1915 234.558 77.2399Z" fill="#F5F5F5"/>
<path d="M236.133 82.7285C236.286 82.9015 236.452 83.0633 236.63 83.2125C236.958 83.5175 237.44 83.9482 238.046 84.471C239.253 85.5261 240.942 86.9491 242.85 88.4786C244.758 90.0081 246.522 91.3537 247.819 92.3072C248.465 92.7912 248.991 93.159 249.359 93.4156C249.543 93.5591 249.741 93.6855 249.95 93.7931C249.789 93.6262 249.613 93.4739 249.424 93.3381L247.933 92.1668C246.671 91.1988 244.952 89.8145 243.019 88.2947C241.087 86.7749 239.407 85.3616 238.17 84.3451L236.68 83.1496C236.513 82.9906 236.33 82.8494 236.133 82.7285V82.7285Z" fill="#F5F5F5"/>
<path d="M276.558 77.8448C276.518 77.9029 281.193 81.078 286.991 84.9405C292.789 88.8029 297.539 91.8861 297.579 91.828C297.619 91.7699 292.948 88.5948 287.145 84.7323C281.342 80.8699 276.597 77.7867 276.558 77.8448Z" fill="#F5F5F5"/>
<path d="M272.205 77.6514C272.39 77.8298 272.591 77.9918 272.806 78.1354L274.495 79.4035L280.075 83.5757L285.605 87.8108L287.279 89.0983C287.477 89.265 287.69 89.4141 287.915 89.5436C287.74 89.3542 287.549 89.1794 287.344 89.0209C286.966 88.6966 286.41 88.2368 285.719 87.6705C284.338 86.5475 282.405 85.0181 280.254 83.3773C278.102 81.7364 276.085 80.2844 274.625 79.2583C273.894 78.7452 273.298 78.3387 272.881 78.0628C272.669 77.9059 272.443 77.7682 272.205 77.6514V77.6514Z" fill="#F5F5F5"/>
<path d="M342.354 91.5763C342.399 91.5925 342.446 91.6022 342.493 91.6054L342.891 91.6635L344.431 91.8667C345.767 92.0458 347.7 92.312 350.075 92.7089C356.27 93.744 362.39 95.1651 368.398 96.9634C371.916 98.0186 375.22 99.156 378.191 100.284C380.838 101.236 383.418 102.358 385.912 103.643C387.587 104.519 389.14 105.601 390.533 106.862C390.786 107.079 390.99 107.292 391.169 107.471C391.347 107.65 391.501 107.81 391.616 107.955L391.889 108.246C391.918 108.28 391.95 108.312 391.983 108.343C391.983 108.343 391.983 108.299 391.909 108.231L391.655 107.922C391.546 107.786 391.407 107.621 391.228 107.438C391.049 107.254 390.851 107.031 390.602 106.803C389.226 105.509 387.679 104.398 386.001 103.502C383.51 102.191 380.929 101.049 378.276 100.085C375.295 98.943 371.996 97.7911 368.473 96.7408C362.459 94.9364 356.325 93.5359 350.115 92.5492C347.73 92.1765 345.792 91.9345 344.451 91.7845L342.905 91.6296L342.503 91.5957C342.455 91.5807 342.404 91.5742 342.354 91.5763Z" fill="#F5F5F5"/>
<path d="M218.611 66.3687H218.814L219.416 66.2719L221.711 65.8847C223.698 65.5556 226.6 65.1103 230.192 64.6892C239.549 63.5568 248.998 63.3234 258.403 63.9922C269.418 64.8344 279.215 66.9737 286.226 68.6484C289.738 69.5003 292.565 70.2408 294.518 70.7636L296.769 71.3589L297.355 71.509C297.421 71.5304 297.489 71.545 297.559 71.5525C297.495 71.5231 297.428 71.5004 297.36 71.4848L296.784 71.3105L294.548 70.6668C292.6 70.115 289.778 69.3454 286.27 68.4742C279.255 66.7559 269.452 64.6021 258.413 63.7405C248.993 63.0662 239.528 63.3241 230.162 64.5101C226.565 64.9554 223.673 65.4297 221.681 65.7879C220.687 65.9622 219.917 66.1219 219.396 66.2187L218.799 66.3397C218.736 66.343 218.672 66.3527 218.611 66.3687Z" fill="#F5F5F5"/>
<path d="M302.015 94.0593C302.233 94.0563 302.451 94.0352 302.666 93.9964C303.078 93.948 303.659 93.8753 304.42 93.8415C306.355 93.7287 308.296 93.9299 310.163 94.4368C311.181 94.7265 312.137 95.1921 312.985 95.8114C313.671 96.3233 314.245 96.9634 314.674 97.6942C315.06 98.3782 315.31 99.127 315.41 99.9013C315.41 99.9013 315.41 99.8433 315.41 99.7368C315.413 99.5749 315.403 99.4131 315.38 99.2528C315.294 98.6738 315.106 98.1137 314.823 97.5974C314.402 96.8298 313.822 96.1557 313.119 95.6178C312.254 94.9631 311.272 94.4708 310.223 94.1658C308.328 93.6498 306.354 93.4695 304.395 93.6333C303.802 93.6775 303.213 93.7567 302.631 93.8705C302.419 93.9117 302.213 93.975 302.015 94.0593V94.0593Z" fill="#F5F5F5"/>
<path d="M265.591 100.628C265.591 100.7 272.815 101.174 281.733 101.692C290.652 102.21 297.886 102.573 297.891 102.505C297.896 102.438 290.672 101.959 281.748 101.441C272.825 100.923 265.596 100.56 265.591 100.628Z" fill="#F5F5F5"/>
<path d="M346.874 106.474C346.917 106.479 346.96 106.479 347.003 106.474L347.366 106.397C347.684 106.339 348.141 106.199 348.752 106.107C350.465 105.797 352.202 105.635 353.944 105.623C356.525 105.576 359.104 105.826 361.625 106.368C364.724 106.984 367.681 108.152 370.345 109.814C372.958 111.551 375.21 113.753 376.982 116.305C378.435 118.384 379.573 120.657 380.361 123.052C380.893 124.667 381.255 126.331 381.439 128.018C381.533 128.613 381.528 129.083 381.563 129.397L381.593 129.756C381.588 129.797 381.588 129.84 381.593 129.881C381.6 129.84 381.6 129.797 381.593 129.756V129.397C381.593 129.078 381.593 128.608 381.519 128.008C381.373 126.308 381.04 124.629 380.525 122.999C379.755 120.577 378.625 118.277 377.171 116.174C375.399 113.568 373.129 111.318 370.484 109.548C367.797 107.868 364.811 106.692 361.68 106.082C359.137 105.55 356.538 105.316 353.939 105.385C352.188 105.421 350.445 105.617 348.732 105.971C348.121 106.078 347.669 106.237 347.351 106.31L346.993 106.411L346.874 106.474Z" fill="#F5F5F5"/>
<path d="M162.294 141.968H162.335C163.94 141.676 167.906 140.642 170.086 137.379C171.539 135.203 171.646 132.309 171.732 129.988C172.061 121.002 172.662 98.5726 172.835 91.9111C172.872 91.164 173.205 90.4601 173.764 89.9477C174.323 89.4352 175.065 89.1543 175.833 89.1642C176.6 89.1741 177.334 89.4739 177.879 90.0006C178.425 90.5272 178.739 91.2395 178.755 91.9873V96.0635H179.578V91.9913C179.562 91.0326 179.163 90.1178 178.466 89.4408C177.769 88.7638 176.829 88.3779 175.845 88.3648C174.861 88.3518 173.91 88.7127 173.195 89.371C172.479 90.0293 172.055 90.9332 172.012 91.8911C171.839 98.5526 171.238 120.982 170.913 129.968C170.831 132.192 170.728 134.958 169.399 136.95C168.013 139.026 165.334 140.605 162.224 141.183L140.566 140.982C137.756 140.417 135.629 139.559 133.708 137.062C132.696 135.744 131.963 133.98 131.4 131.519C130.215 126.361 130.252 120.902 130.285 115.623C130.379 111.851 130.263 108.076 129.939 104.316C129.754 102.549 129.449 100.709 128.491 99.1979C127.581 97.771 125.767 96.5245 123.924 97.1938L124.208 97.9473C125.549 97.4704 127.03 98.4323 127.791 99.6347C128.659 100.997 128.943 102.737 129.12 104.412C129.442 108.145 129.556 111.891 129.462 115.635C129.429 120.958 129.392 126.457 130.593 131.712C131.186 134.289 131.963 136.144 133.062 137.555C135.144 140.273 137.431 141.191 140.467 141.792H140.546L162.294 141.968Z" fill="#263238"/>
<path d="M8.73086 5.20215H124.904V154.484H8.73086V5.20215Z" fill="#B63D29"/>
<path d="M8.73102 5.20215H63.2051V154.484H8.73102V5.20215Z" fill="#DD6A57"/>
<path d="M90.1052 25.4048H100.551V50.124H90.1052V25.4048Z" fill="#C05B4B"/>
<path d="M90.1052 122.173H100.551V146.901H90.1052V122.173Z" fill="#C05B4B"/>
<path d="M63.2049 59.8344C63.2049 60.1156 77.0151 60.3353 94.0546 60.3353C111.094 60.3353 124.904 60.1156 124.904 59.8344C124.904 59.5532 111.094 59.3335 94.0546 59.3335C77.0151 59.3335 63.2049 59.562 63.2049 59.8344Z" fill="#C05B4B"/>
<path d="M90.1052 74.158H100.551V98.8772H90.1052V74.158Z" fill="#C05B4B"/>
<path d="M63.2049 108.587C63.2049 108.86 77.0151 109.088 94.0546 109.088C111.094 109.088 124.904 108.86 124.904 108.587C124.904 108.315 111.094 108.078 94.0546 108.078C77.0151 108.078 63.2049 108.306 63.2049 108.587Z" fill="#C05B4B"/>
<path d="M41.1863 25.4048H51.6318V50.124H41.1863V25.4048Z" fill="#C05B4B"/>
<path d="M18.5281 25.4048H28.9736V50.124H18.5281V25.4048Z" fill="#C05B4B"/>
<path d="M41.1863 72.3213H51.6318V97.0405H41.1863V72.3213Z" fill="#C05B4B"/>
<path d="M18.5281 72.3213H28.9736V97.0405H18.5281V72.3213Z" fill="#C05B4B"/>
<path d="M41.1863 119.238H51.6318V143.957H41.1863V119.238Z" fill="#C05B4B"/>
<path d="M18.5281 119.238H28.9736V143.957H18.5281V119.238Z" fill="#C05B4B"/>
<path d="M-0.000411987 0H133.646V5.38675H-0.000411987V0Z" fill="#DD6A57"/>
<path d="M7.9203 5.88786C7.9203 6.16906 33.89 6.39752 65.9123 6.39752C97.9346 6.39752 123.904 6.16906 123.904 5.88786C123.904 5.60666 97.9437 5.38696 65.9123 5.38696C33.8809 5.38696 7.9203 5.61544 7.9203 5.88786Z" fill="#B63D29"/>
</svg>
