<svg width="843" height="111" viewBox="0 0 843 111" fill="none" xmlns="http://www.w3.org/2000/svg">
<path d="M319.049 84.25L78.5869 84.6277L78.531 49.0396L318.993 48.6619L319.049 84.25Z" fill="#455A64"/>
<path d="M66.0128 22.8236C66.0128 22.8236 72.0264 23.496 73.0946 22.8236C75.513 21.2674 128.144 0.0489876 173.368 0.000184725C209.639 -0.0486181 242.299 9.57096 274.065 30.7785C274.065 30.7785 312.749 35.0406 327.856 46.3629C331.386 48.4126 338.593 56.4922 335.843 74.8421C334.092 86.5439 325.378 87.0374 313.476 86.7717C313.476 86.7717 317.906 51.2269 286.227 53.9436C259.31 56.2482 264.461 89.1088 264.461 89.1088L129.587 89.3202C129.587 89.3202 128.995 74.7228 128.421 71.1873C127.277 64.1054 118.476 52.5012 102.045 54.2256C84.021 56.118 78.0237 72.5646 79.1787 86.4463C79.1787 86.4463 60.1618 90.5566 57.5916 75.2596L53.0529 73.8497C53.0529 73.8497 51.3068 42.117 67.1515 28.7776L63.7515 26.5164L66.0128 22.8236Z" fill="#92E3A9"/>
<path d="M74.9832 21.8096C74.9832 21.8096 76.1057 24.8679 79.972 24.5208C83.1225 24.2443 101.12 17.4228 107.681 14.9067C108.618 14.5636 109.461 14.0049 110.142 13.2758C110.823 12.5468 111.323 11.6677 111.602 10.7096C111.739 10.3067 111.769 9.87502 111.688 9.45703C111.688 9.45703 83.7081 16.181 74.9832 21.8096Z" fill="#455A64"/>
<path d="M229.477 8.51904C229.483 9.80568 229.851 11.0647 230.539 12.1515C231.228 13.2383 232.209 14.1087 233.371 14.6628L271.871 33.0072L274.072 30.6376C274.072 30.6376 270.049 27.7419 264.789 24.6131C259.909 21.7229 253.944 18.6483 250.381 16.9131C243.624 13.6165 236.638 10.8112 229.477 8.51904V8.51904Z" fill="#455A64"/>
<g opacity="0.3">
<path opacity="0.3" d="M101.655 24.5264C101.395 24.7488 101.186 25.0249 101.043 25.3357C100.9 25.6465 100.826 25.9845 100.826 26.3267C100.826 26.6688 100.9 27.0068 101.043 27.3176C101.186 27.6284 101.395 27.9045 101.655 28.1269C103.564 30.0736 112.657 36.8355 116.881 37.2476C121.106 37.6598 249.386 46.2219 256.978 44.0475C264.57 41.8731 269.016 38.0231 267.107 35.8107L263.664 34.6719L203.192 35.9083L101.655 24.5264Z" fill="white"/>
</g>
<g opacity="0.7">
<path opacity="0.7" d="M54.995 51.8015C54.995 51.8015 62.4618 54.0139 65.6503 48.1251C68.8387 42.2362 72.3525 36.0111 72.3525 34.6663C72.3525 32.9799 71.1433 27.5574 67.1523 28.6581C67.1523 28.6581 56.0524 37.5023 54.995 51.8015Z" fill="white"/>
</g>
<g opacity="0.7">
<path opacity="0.7" d="M331.144 57.8423C331.144 57.8423 302.231 46.276 306.91 42.3338C309.378 40.2516 333.15 51.704 331.144 57.8423" fill="white"/>
</g>
<path d="M319.337 86.6686C319.337 86.6686 319.337 86.571 319.337 86.3812C319.337 86.1914 319.37 85.904 319.375 85.5244C319.375 84.7761 319.408 83.6753 319.375 82.2709C319.215 78.2498 318.596 74.2601 317.531 70.3793C316.794 67.6914 315.763 65.0928 314.457 62.6305C312.967 59.7936 310.984 57.2449 308.601 55.104L307.641 54.2635L306.605 53.4989C305.896 52.9843 305.161 52.5065 304.403 52.0674C304.029 51.8342 303.617 51.6607 303.221 51.4546C302.826 51.2485 302.43 51.0371 302.007 50.869L300.743 50.3701L300.103 50.1207L299.447 49.92C298.558 49.6315 297.653 49.3943 296.736 49.2097L295.359 48.9223C294.892 48.8518 294.421 48.803 293.954 48.7379C293.488 48.6728 293.011 48.6132 292.534 48.5644L291.102 48.4939C290.137 48.4151 289.168 48.3934 288.201 48.4288C284.4 48.4199 280.63 49.1187 277.085 50.4894C273.792 51.8001 270.829 53.8221 268.409 56.4108C266.251 58.7751 264.49 61.4723 263.192 64.3982C262.055 66.9368 261.178 69.5838 260.573 72.2989C259.704 76.217 259.246 80.2152 259.207 84.2284C259.207 85.6546 259.245 86.7608 259.288 87.5091C259.288 87.8778 259.337 88.1652 259.358 88.355C259.38 88.5448 259.402 88.6424 259.402 88.6424C259.402 88.6424 259.402 88.5448 259.402 88.355C259.402 88.1652 259.402 87.867 259.364 87.5036C259.331 86.7553 259.31 85.6546 259.364 84.2501C259.437 80.2345 259.922 76.237 260.812 72.3205C261.427 69.624 262.31 66.9955 263.447 64.4741C264.742 61.5763 266.496 58.9066 268.642 56.5681C271.045 54.0087 273.986 52.0142 277.253 50.728C280.767 49.3707 284.504 48.6793 288.271 48.6891C292.035 48.5924 295.79 49.0902 299.398 50.164L300.055 50.3592L300.684 50.6087L301.936 51.0967C302.354 51.2648 302.739 51.4871 303.135 51.6769C303.53 51.8667 303.937 52.0511 304.306 52.2843C305.053 52.7134 305.777 53.1822 306.475 53.6887L307.505 54.4478L308.454 55.2775C310.821 57.3951 312.792 59.9159 314.278 62.7226C315.592 65.1567 316.634 67.728 317.385 70.3901C318.466 74.2539 319.113 78.226 319.315 82.2329C319.386 83.6536 319.397 84.7544 319.391 85.4865V86.3378C319.337 86.571 319.337 86.6686 319.337 86.6686Z" fill="#263238"/>
<path d="M134.132 89.1955C134.132 89.1955 134.132 89.0979 134.17 88.9081C134.208 88.7183 134.208 88.4417 134.229 88.073C134.278 87.3355 134.322 86.2402 134.311 84.8195C134.294 80.8458 133.856 76.8851 133.004 73.0038C132.418 70.3203 131.565 67.7025 130.455 65.1899C129.179 62.2967 127.433 59.6345 125.288 57.3109C122.898 54.7484 119.962 52.7562 116.698 51.4817C113.183 50.1412 109.453 49.4521 105.691 49.4482C101.944 49.2981 98.1968 49.7354 94.5853 50.7442C94.3684 50.8093 94.1461 50.8581 93.9346 50.9286L93.3002 51.1618L92.0367 51.6335C91.2125 51.9589 90.41 52.3818 89.64 52.7506C88.8971 53.2061 88.1325 53.6182 87.433 54.1116L86.4082 54.8654C86.2401 54.9901 86.0611 55.1094 85.9039 55.2449L85.4321 55.6625C83.0472 57.7428 81.0561 60.2353 79.5541 63.0209C78.2595 65.4462 77.2514 68.0139 76.55 70.6721C75.5278 74.5129 74.9815 78.4649 74.9232 82.439C74.8961 83.8434 74.9232 84.9388 74.9829 85.6925C74.9829 86.0612 75.0262 86.3432 75.0479 86.533C75.0696 86.7228 75.0913 86.815 75.0913 86.815C75.1009 86.7194 75.1009 86.6231 75.0913 86.5276C75.0913 86.3269 75.0913 86.0504 75.0479 85.6871C75.0479 84.9496 74.9991 83.8597 75.0479 82.4607C75.1475 78.4994 75.7173 74.564 76.7452 70.7371C77.4606 68.1002 78.4739 65.5533 79.7655 63.1456C81.2678 60.3899 83.2533 57.9269 85.6273 55.874L86.0936 55.4618C86.2563 55.3317 86.4299 55.2178 86.5925 55.0877L87.6119 54.3448C88.3006 53.8622 89.0598 53.4555 89.781 53.0054C90.5672 52.6421 91.3372 52.2246 92.156 51.9209L93.4032 51.46L94.0322 51.2323C94.2437 51.1564 94.466 51.1076 94.6829 51.0479C98.2612 50.0388 101.975 49.596 105.691 49.7356C109.412 49.7436 113.102 50.4271 116.579 51.7528C119.814 53.0063 122.725 54.9707 125.098 57.5007C127.229 59.8 128.968 62.4344 130.244 65.2983C131.349 67.7967 132.206 70.3976 132.803 73.0634C133.664 76.9303 134.129 80.8747 134.192 84.8357C134.219 86.2402 134.192 87.3301 134.164 88.0893C134.164 88.4526 134.164 88.7291 134.126 88.9298C134.088 89.1304 134.132 89.1955 134.132 89.1955Z" fill="#263238"/>
<path d="M102.924 24.5209C102.924 24.5209 114.138 34.2814 118.996 34.2814C123.855 34.2814 251.908 42.0465 257.607 39.7419C260.61 38.5879 263.511 37.1878 266.283 35.5557C266.283 35.5557 224.497 5.46063 175.803 6.90302C140.057 7.96042 102.924 24.5209 102.924 24.5209Z" fill="#455A64"/>
<path d="M240.418 21.186L248.877 40.1649L253.172 40.1595L246.182 23.9136L240.418 21.186Z" fill="#263238"/>
<g opacity="0.3">
<path opacity="0.3" d="M133.67 48.9512L148.853 48.9273L148.848 45.8961C148.848 45.7135 148.775 45.5384 148.646 45.4095C148.516 45.2805 148.341 45.2083 148.159 45.2086L134.353 45.2302C134.17 45.2305 133.995 45.3033 133.866 45.4327C133.737 45.562 133.665 45.7373 133.665 45.92L133.67 48.9241L133.67 48.9512Z" fill="#252525"/>
</g>
<g opacity="0.3">
<path opacity="0.3" d="M192.845 48.8599L208.028 48.836L208.024 45.8319C208.023 45.6493 207.951 45.4742 207.821 45.3453C207.692 45.2163 207.517 45.1441 207.334 45.1443L193.523 45.166C193.34 45.1663 193.165 45.2391 193.036 45.3685C192.907 45.4978 192.835 45.6731 192.835 45.8558L192.84 48.8599L192.845 48.8599Z" fill="#252525"/>
</g>
<path d="M140.286 12.1195L127.028 34.6502L139.381 35.3117L137.786 24.4721L145.898 10.8181L140.286 12.1195Z" fill="#263238"/>
<path d="M188.622 7.22308L190.688 38.0014L186.181 37.7791L184.235 6.94653L188.622 7.22308Z" fill="#263238"/>
<path d="M246.331 44.8173L244.406 42.8273L247.469 38.9285L250.105 41.4499C250.497 41.7839 250.74 42.2597 250.782 42.773C251.151 45.1969 248.033 46.5742 246.331 44.8173Z" fill="#263238"/>
<path d="M238.543 44.0853C233.863 44.2425 230.181 39.4707 232.128 35.2086C232.33 34.6893 232.662 34.2306 233.092 33.8765C233.522 33.5223 234.036 33.2846 234.584 33.186C239.465 32.3346 245.782 32.0201 247.485 38.9284C247.983 40.9727 246.839 42.2362 244.968 43.0008C243.19 43.7274 240.788 44.0039 238.543 44.0853Z" fill="#92E3A9"/>
<path d="M268.318 80.9336C267.5 69.1115 276.42 58.8644 288.242 58.046C300.064 57.2276 310.311 66.1479 311.13 77.97C311.948 89.792 303.028 100.039 291.206 100.858C279.384 101.676 269.136 92.7557 268.318 80.9336Z" fill="#263238"/>
<path d="M289.703 65.1521C292.531 65.1446 295.297 65.9759 297.652 67.5408C300.007 69.1056 301.845 71.3338 302.934 73.9434C304.022 76.553 304.312 79.4268 303.767 82.2013C303.222 84.9757 301.866 87.5262 299.872 89.5301C297.877 91.534 295.332 92.9013 292.561 93.459C289.789 94.0166 286.913 93.7397 284.299 92.6631C281.684 91.5865 279.448 89.7587 277.872 87.4108C276.297 85.063 275.453 82.3006 275.448 79.4731C275.443 77.5967 275.809 75.7379 276.523 74.0027C277.237 72.2675 278.286 70.69 279.61 69.3601C280.933 68.0303 282.506 66.9742 284.238 66.2522C285.97 65.5302 287.827 65.1564 289.703 65.1521V65.1521ZM301.172 79.4351C301.169 77.1711 300.494 74.9589 299.234 73.0783C297.973 71.1976 296.184 69.733 294.091 68.8696C291.998 68.0061 289.696 67.7827 287.476 68.2276C285.256 68.6724 283.218 69.7655 281.619 71.3687C280.021 72.9718 278.933 75.013 278.495 77.2342C278.056 79.4553 278.286 81.7566 279.156 83.847C280.025 85.9374 281.495 87.7231 283.379 88.9782C285.263 90.2334 287.477 90.9016 289.741 90.8984C292.776 90.8883 295.682 89.6763 297.825 87.5278C299.967 85.3793 301.171 82.4693 301.172 79.4351V79.4351Z" fill="#E0E0E0"/>
<path d="M289.71 67.9825C291.977 67.9771 294.193 68.6439 296.081 69.8984C297.968 71.1529 299.441 72.9389 300.313 75.0305C301.185 77.1221 301.417 79.4253 300.98 81.649C300.544 83.8726 299.457 85.9168 297.859 87.523C296.26 89.1292 294.221 90.2252 291.999 90.6726C289.778 91.12 287.474 90.8985 285.378 90.0363C283.282 89.174 281.489 87.7097 280.226 85.8284C278.962 83.9472 278.285 81.7335 278.28 79.4674C278.275 76.4295 279.477 73.5139 281.62 71.3607C283.763 69.2075 286.672 67.9925 289.71 67.9825V67.9825Z" fill="#F5F5F5"/>
<path d="M293.109 79.4837C293.11 80.1529 292.913 80.8074 292.542 81.3645C292.171 81.9215 291.643 82.3561 291.026 82.6131C290.408 82.8702 289.727 82.9383 289.071 82.8088C288.414 82.6793 287.811 82.358 287.337 81.8856C286.863 81.4131 286.54 80.8107 286.408 80.1546C286.277 79.4984 286.342 78.818 286.598 78.1993C286.853 77.5806 287.285 77.0514 287.841 76.6787C288.397 76.306 289.051 76.1065 289.72 76.1055C290.165 76.1048 290.605 76.1916 291.016 76.361C291.426 76.5303 291.8 76.779 292.114 77.0927C292.429 77.4064 292.679 77.779 292.85 78.1892C293.02 78.5995 293.109 79.0394 293.109 79.4837V79.4837Z" fill="#263238"/>
<path d="M89.9341 95.3845C81.5546 87.0051 81.5546 73.4192 89.9341 65.0398C98.3135 56.6603 111.899 56.6603 120.279 65.0398C128.658 73.4192 128.658 87.0051 120.279 95.3845C111.899 103.764 98.3135 103.764 89.9341 95.3845Z" fill="#263238"/>
<path d="M105.088 65.9166C107.915 65.9091 110.681 66.7402 113.036 68.3048C115.391 69.8694 117.229 72.0973 118.318 74.7065C119.406 77.3158 119.697 80.1893 119.152 82.9637C118.608 85.738 117.253 88.2885 115.258 90.2926C113.264 92.2967 110.72 93.6644 107.949 94.2227C105.177 94.781 102.302 94.5048 99.6875 93.429C97.0728 92.3533 94.836 90.5263 93.2598 88.1792C91.6835 85.832 90.8388 83.0702 90.8324 80.2429C90.8237 76.4529 92.3206 72.8146 94.994 70.128C97.6673 67.4415 101.298 65.9266 105.088 65.9166ZM116.535 80.205C116.533 77.9389 115.858 75.7244 114.597 73.8422C113.335 71.9599 111.543 70.4944 109.447 69.6315C107.352 68.7685 105.048 68.5469 102.826 68.9947C100.605 69.4424 98.5664 70.5394 96.969 72.1467C95.3716 73.754 94.2872 75.7993 93.8532 78.0234C93.4191 80.2475 93.655 82.5504 94.5308 84.6404C95.4067 86.7303 96.8832 88.5133 98.7732 89.7634C100.663 91.0135 102.882 91.6746 105.148 91.6628C108.174 91.6427 111.069 90.4269 113.203 88.2805C115.336 86.134 116.534 83.2311 116.535 80.205V80.205Z" fill="#E0E0E0"/>
<path d="M105.094 68.7525C107.36 68.7461 109.577 69.4119 111.465 70.6658C113.353 71.9197 114.827 73.7053 115.7 75.7968C116.573 77.8883 116.806 80.1917 116.37 82.4157C115.934 84.6397 114.848 86.6843 113.249 88.2911C111.651 89.8978 109.612 90.9944 107.39 91.4422C105.168 91.89 102.864 91.6689 100.768 90.8068C98.6718 89.9447 96.8785 88.4804 95.6148 86.599C94.3511 84.7177 93.6738 82.5038 93.6684 80.2374C93.6626 77.2 94.8626 74.2844 97.0048 72.1311C99.147 69.9777 102.056 68.7625 105.094 68.7525V68.7525Z" fill="#F5F5F5"/>
<path d="M108.494 80.2757C108.495 80.9452 108.298 81.5999 107.927 82.157C107.555 82.7142 107.027 83.1487 106.409 83.4057C105.791 83.6626 105.11 83.7304 104.454 83.6004C103.797 83.4705 103.194 83.1487 102.72 82.6757C102.246 82.2027 101.923 81.5998 101.792 80.9433C101.661 80.2867 101.728 79.6061 101.984 78.9875C102.24 78.3689 102.673 77.8401 103.23 77.4681C103.787 77.0961 104.441 76.8975 105.11 76.8975C106.007 76.8975 106.867 77.2532 107.501 77.8866C108.136 78.52 108.493 79.3792 108.494 80.2757V80.2757Z" fill="#263238"/>
<path d="M94.9487 39.8994C94.9574 40.5591 95.1615 41.2014 95.5353 41.7451C95.9091 42.2887 96.4358 42.7093 97.0487 42.9535C97.6616 43.1978 98.3332 43.2548 98.9785 43.1172C99.6238 42.9797 100.214 42.6538 100.674 42.1809C101.134 41.7079 101.443 41.1092 101.563 40.4603C101.683 39.8115 101.607 39.1417 101.346 38.5358C101.085 37.9299 100.65 37.4151 100.096 37.0564C99.5422 36.6978 98.8945 36.5115 98.2348 36.5211C97.3513 36.534 96.5089 36.8969 95.8928 37.5304C95.2767 38.1638 94.9371 39.0158 94.9487 39.8994V39.8994Z" fill="#263238"/>
<path d="M134.213 81.6311H134.533H135.482L139.126 81.7016L152.52 81.9185L196.719 82.4607C213.984 82.6397 229.617 82.7535 240.929 82.7698C246.585 82.7698 251.167 82.7698 254.328 82.7156C257.489 82.6614 259.252 82.5909 259.208 82.4878C258.792 82.5549 258.371 82.5821 257.95 82.5692C257.121 82.5692 255.89 82.6017 254.312 82.6071C251.15 82.6071 246.568 82.6071 240.913 82.5746L196.708 82.1733L152.509 81.707L139.11 81.5823H135.466H134.517L134.213 81.6311Z" fill="#263238"/>
<path d="M188.92 89.0925C189.002 89.0925 188.92 77.7052 188.698 63.6825C188.476 49.6598 188.264 38.267 188.188 38.2725C188.112 38.2779 188.188 49.6598 188.416 63.6825C188.644 77.7052 188.844 89.0925 188.92 89.0925Z" fill="#263238"/>
<path d="M159.168 15.8828C159.119 15.9424 162.616 19.1363 166.982 23.0188C171.347 26.9014 174.926 29.9977 174.98 29.938C175.034 29.8784 171.531 26.6845 167.166 22.8074C162.801 18.9302 159.222 15.8286 159.168 15.8828Z" fill="#F5F5F5"/>
<path d="M160.887 22.032C161.054 22.2258 161.235 22.4071 161.429 22.5742C161.787 22.9159 162.313 23.3985 162.974 23.9841C164.292 25.1662 166.136 26.7604 168.218 28.474C170.3 30.1875 172.225 31.695 173.641 32.7632C174.345 33.3054 174.92 33.7176 175.322 34.005C175.523 34.1658 175.739 34.3074 175.967 34.4279C175.791 34.2409 175.599 34.0703 175.392 33.9182L173.765 32.6059C172.388 31.5214 170.512 29.9706 168.402 28.2679C166.293 26.5652 164.46 24.9818 163.11 23.8431L161.483 22.5037C161.302 22.3256 161.102 22.1674 160.887 22.032V22.032Z" fill="#F5F5F5"/>
<path d="M205.004 16.5607C204.961 16.6258 210.063 20.183 216.392 24.5102C222.72 28.8374 227.904 32.2915 227.947 32.2264C227.99 32.1614 222.893 28.6042 216.56 24.277C210.226 19.9498 205.048 16.4956 205.004 16.5607Z" fill="#F5F5F5"/>
<path d="M200.254 16.3435C200.456 16.5434 200.676 16.7249 200.91 16.8858L202.754 18.3065L208.844 22.9807L214.879 27.7254L216.706 29.1678C216.922 29.3546 217.155 29.5215 217.4 29.6667C217.209 29.4545 217.001 29.2586 216.777 29.081C216.365 28.7177 215.757 28.2026 215.004 27.5682C213.496 26.3101 211.387 24.5966 209.039 22.7584C206.691 20.9201 204.489 19.2934 202.895 18.1438C202.098 17.569 201.447 17.1135 200.992 16.8044C200.761 16.6287 200.514 16.4744 200.254 16.3435V16.3435Z" fill="#F5F5F5"/>
<path d="M276.815 31.9443C276.864 31.9624 276.915 31.9733 276.967 31.9768L277.4 32.0419L279.081 32.2697C280.54 32.4703 282.649 32.7685 285.241 33.2132C292.003 34.3728 298.682 35.9649 305.24 37.9796C309.079 39.1617 312.685 40.436 315.928 41.6995C318.817 42.7659 321.632 44.0231 324.354 45.4627C326.182 46.4448 327.877 47.6566 329.397 49.0687C329.674 49.3127 329.896 49.5513 330.091 49.7519C330.286 49.9526 330.454 50.1315 330.579 50.2942L330.877 50.6195C330.909 50.658 330.944 50.6943 330.98 50.728C330.98 50.728 330.98 50.6792 330.899 50.6033L330.623 50.2562C330.503 50.1044 330.351 49.92 330.156 49.714C329.961 49.5079 329.744 49.2585 329.473 49.0036C327.971 47.553 326.283 46.3093 324.452 45.3055C321.733 43.8356 318.916 42.5564 316.02 41.4771C312.766 40.1974 309.166 38.9069 305.321 37.7302C298.757 35.7086 292.063 34.1396 285.285 33.0342C282.682 32.6167 280.567 32.3456 279.103 32.1775L277.417 32.004L276.977 31.966C276.925 31.9492 276.87 31.9419 276.815 31.9443Z" fill="#F5F5F5"/>
<path d="M141.762 3.70362H141.984L142.64 3.59517L145.145 3.16136C147.314 2.79263 150.481 2.29376 154.402 1.822C164.614 0.553348 174.927 0.291807 185.191 1.04115C197.213 1.98468 207.906 4.38144 215.557 6.25764C219.391 7.212 222.476 8.04165 224.607 8.62728L227.064 9.29426L227.703 9.46236C227.776 9.48638 227.85 9.50274 227.926 9.51116C227.856 9.47824 227.784 9.45279 227.709 9.43524L227.08 9.24003L224.64 8.51884C222.514 7.90067 219.434 7.03848 215.606 6.06242C207.949 4.13742 197.251 1.72439 185.202 0.75918C174.921 0.00375038 164.591 0.29262 154.369 1.62136C150.443 2.12024 147.287 2.65164 145.113 3.05291C144.028 3.24812 143.188 3.42707 142.618 3.53552L141.968 3.67108C141.898 3.67478 141.829 3.68568 141.762 3.70362Z" fill="#F5F5F5"/>
<path d="M232.789 34.726C233.027 34.7226 233.265 34.699 233.499 34.6555C233.949 34.6013 234.583 34.5199 235.413 34.482C237.525 34.3556 239.643 34.581 241.681 35.1489C242.792 35.4735 243.835 35.9951 244.761 36.6889C245.51 37.2624 246.137 37.9795 246.605 38.7983C247.026 39.5645 247.299 40.4035 247.408 41.271C247.408 41.271 247.408 41.2059 247.408 41.0866C247.411 40.9053 247.4 40.724 247.375 40.5444C247.282 39.8957 247.076 39.2682 246.768 38.6899C246.308 37.8299 245.675 37.0747 244.908 36.472C243.964 35.7386 242.892 35.187 241.747 34.8453C239.679 34.2672 237.525 34.0652 235.386 34.2488C234.739 34.2982 234.097 34.387 233.461 34.5145C233.23 34.5607 233.004 34.6316 232.789 34.726V34.726Z" fill="#F5F5F5"/>
<path d="M193.035 42.0846C193.035 42.1659 200.92 42.6973 210.653 43.2775C220.386 43.8577 228.282 44.2644 228.287 44.1885C228.293 44.1126 220.408 43.5757 210.669 42.9955C200.93 42.4153 193.041 42.0086 193.035 42.0846Z" fill="#F5F5F5"/>
<path d="M281.75 48.635C281.797 48.6401 281.844 48.6401 281.891 48.635L282.287 48.5482C282.634 48.4831 283.132 48.3259 283.799 48.2229C285.669 47.8755 287.565 47.694 289.466 47.6806C292.283 47.6285 295.097 47.9088 297.849 48.5157C301.232 49.206 304.458 50.5149 307.366 52.3765C310.218 54.3219 312.676 56.7891 314.61 59.6481C316.196 61.9779 317.437 64.5237 318.298 67.2072C318.879 69.0166 319.273 70.8809 319.474 72.7707C319.577 73.4377 319.572 73.9637 319.61 74.3161L319.642 74.7174C319.637 74.7642 319.637 74.8115 319.642 74.8584C319.65 74.8117 319.65 74.764 319.642 74.7174V74.3161C319.642 73.9582 319.642 73.4323 319.561 72.7599C319.402 70.8556 319.038 68.9739 318.477 67.1475C317.636 64.434 316.403 61.858 314.816 59.5017C312.882 56.5818 310.404 54.0614 307.518 52.0783C304.585 50.1957 301.326 48.8788 297.909 48.1957C295.134 47.5995 292.298 47.3374 289.461 47.4149C287.55 47.4545 285.647 47.6742 283.778 48.071C283.111 48.1903 282.617 48.3693 282.27 48.4506L281.88 48.5645L281.75 48.635Z" fill="#F5F5F5"/>
<path d="M80.2971 88.3996H80.342C82.0932 88.0718 86.4219 86.9133 88.8018 83.2581C90.3869 80.8198 90.5037 77.5778 90.598 74.9779C90.9572 64.9104 91.6128 39.7823 91.8014 32.3193C91.8417 31.4823 92.2053 30.6937 92.8157 30.1196C93.4261 29.5455 94.2355 29.2308 95.0734 29.2419C95.9113 29.2529 96.7122 29.5889 97.3072 30.1789C97.9022 30.7689 98.2449 31.5669 98.2631 32.4047V36.9714H99.1611V32.4091C99.1435 31.3351 98.7082 30.3102 97.9475 29.5518C97.1869 28.7933 96.1608 28.3609 95.0867 28.3463C94.0126 28.3317 92.9751 28.736 92.1942 29.4736C91.4132 30.2111 90.9502 31.2238 90.9033 32.2969C90.7147 39.7599 90.0591 64.888 89.7044 74.9554C89.6146 77.4476 89.5023 80.5459 88.0519 82.7776C86.5387 85.1037 83.6155 86.8729 80.2207 87.5195L56.5834 87.295C53.5165 86.6618 51.195 85.7009 49.098 82.9034C47.9933 81.426 47.1941 79.4503 46.5789 76.6932C45.2857 70.9141 45.3261 64.7982 45.362 58.8844C45.4646 54.6582 45.3387 50.4296 44.9848 46.217C44.7827 44.2368 44.4504 42.1757 43.4042 40.4828C42.4118 38.8843 40.4316 37.4878 38.4199 38.2377L38.7297 39.0818C40.1936 38.5475 41.8101 39.6252 42.6408 40.9723C43.5883 42.499 43.8981 44.4478 44.0912 46.3248C44.442 50.506 44.5664 54.7032 44.4639 58.8978C44.428 64.8611 44.3876 71.0218 45.6988 76.9087C46.3454 79.796 47.1941 81.8751 48.393 83.4557C50.6651 86.5002 53.1618 87.5284 56.4757 88.202H56.561L80.2971 88.3996Z" fill="#263238"/>
<path d="M0.000846772 99.612L27.1641 99.9082V31.5854H0.000846772V99.612Z" fill="#92E3A9"/>
<path opacity="0.3" d="M0.000846741 99.612L27.1641 99.9082V31.5854H0.000846741V99.612Z" fill="#252525"/>
<path d="M12.243 99.7444L39.4062 99.9085V31.5857H12.243V99.7444Z" fill="#92E3A9"/>
<path d="M17.7487 38.8774H33.3174V56.4333H17.7487V38.8774Z" fill="#EBEBEB"/>
<path d="M29.4467 61.3919C29.4467 61.8138 29.6143 62.2184 29.9126 62.5167C30.2109 62.815 30.6154 62.9825 31.0373 62.9825C31.4338 62.9825 32.4456 62.9415 32.4456 62.9415C32.6947 62.744 32.8985 62.4954 33.0432 62.2123C33.1879 61.9292 33.2701 61.6184 33.2842 61.3008C33.2777 60.9877 33.1833 60.6827 33.0116 60.4207C32.8399 60.1588 32.598 59.9504 32.3134 59.8196C32.3134 59.8196 31.3654 59.8196 31.0373 59.8196C30.6186 59.8196 30.2168 59.9846 29.919 60.279C29.6212 60.5733 29.4515 60.9733 29.4467 61.3919V61.3919Z" fill="#263238"/>
<path d="M32.0998 62.9827C31.2214 62.9827 30.5092 62.2706 30.5092 61.3921C30.5092 60.5136 31.2214 59.8015 32.0998 59.8015C32.9783 59.8015 33.6904 60.5136 33.6904 61.3921C33.6904 62.2706 32.9783 62.9827 32.0998 62.9827Z" fill="#455A64"/>
<path d="M23.6508 61.3919C23.6508 61.8138 23.8184 62.2184 24.1167 62.5167C24.415 62.815 24.8195 62.9825 25.2414 62.9825C25.6379 62.9825 26.6497 62.9415 26.6497 62.9415C26.8988 62.744 27.1026 62.4954 27.2473 62.2123C27.392 61.9292 27.4742 61.6184 27.4883 61.3008C27.4818 60.9877 27.3874 60.6827 27.2157 60.4207C27.044 60.1588 26.8021 59.9504 26.5175 59.8196C26.5175 59.8196 25.5695 59.8196 25.2414 59.8196C24.8227 59.8196 24.4208 59.9846 24.1231 60.279C23.8253 60.5733 23.6556 60.9733 23.6508 61.3919V61.3919Z" fill="#263238"/>
<path d="M26.3029 62.9827C25.4245 62.9827 24.7123 62.2706 24.7123 61.3921C24.7123 60.5136 25.4245 59.8015 26.3029 59.8015C27.1814 59.8015 27.8936 60.5136 27.8936 61.3921C27.8936 62.2706 27.1814 62.9827 26.3029 62.9827Z" fill="#455A64"/>
<path d="M17.9125 61.3921C17.9125 61.814 18.0801 62.2185 18.3784 62.5168C18.6767 62.8151 19.0813 62.9827 19.5031 62.9827C19.8996 62.9827 20.9114 62.9417 20.9114 62.9417C21.1605 62.7442 21.3643 62.4955 21.509 62.2125C21.6537 61.9294 21.7359 61.6185 21.75 61.301C21.7419 60.9894 21.6466 60.6863 21.4751 60.4262C21.3035 60.166 21.0624 59.959 20.7792 59.8289C20.7792 59.8289 19.8313 59.8289 19.5031 59.8289C19.086 59.8288 18.6855 59.9926 18.3879 60.285C18.0904 60.5774 17.9197 60.975 17.9125 61.3921V61.3921Z" fill="#263238"/>
<path d="M18.9741 61.3921C18.9741 61.7067 19.0674 62.0142 19.2421 62.2758C19.4169 62.5374 19.6653 62.7412 19.956 62.8616C20.2466 62.982 20.5664 63.0135 20.875 62.9521C21.1835 62.8908 21.4669 62.7393 21.6894 62.5168C21.9118 62.2944 22.0633 62.011 22.1247 61.7024C22.1861 61.3939 22.1546 61.0741 22.0342 60.7834C21.9138 60.4928 21.71 60.2444 21.4484 60.0696C21.1868 59.8948 20.8793 59.8015 20.5647 59.8015C20.3558 59.8015 20.149 59.8427 19.956 59.9226C19.763 60.0025 19.5877 60.1197 19.44 60.2674C19.2923 60.4151 19.1751 60.5904 19.0952 60.7834C19.0152 60.9764 18.9741 61.1832 18.9741 61.3921Z" fill="#455A64"/>
<path d="M25.158 42.5784L28.6992 42.6285L25.4314 47.6555L27.9062 47.6874L24.4379 54.5967L25.632 49.4603L22.3688 49.4193L25.158 42.5784Z" fill="#92E3A9"/>
<path d="M16.2901 96.3671C16.2901 96.3671 16.2901 96.3216 16.2901 96.2304C16.2901 96.1393 16.2901 96.0071 16.2901 95.8385C16.2901 95.483 16.2901 94.9771 16.2901 94.3253C16.2901 92.9945 16.2901 91.0758 16.322 88.6466C16.322 83.7882 16.3539 76.9199 16.3767 68.8211L16.2673 68.9305H34.7574C34.7848 68.9578 34.5341 68.7117 34.6389 68.8211V76.4231C34.6389 78.8979 34.6389 81.3043 34.6389 83.6241C34.6389 88.2637 34.6389 92.557 34.6389 96.3535L34.7346 96.2623L21.2897 96.3124L17.5662 96.3352H16.5863H16.2445C16.2445 96.3352 16.3493 96.3352 16.5635 96.3352H17.5297H21.2305L34.7346 96.3854H34.8303V96.2897C34.8303 92.4932 34.8303 88.1999 34.8303 83.5603C34.8303 81.2405 34.8303 78.8341 34.8303 76.3593V68.8348C34.9352 68.935 34.689 68.6798 34.7118 68.7071H16.2217H16.1123V68.812C16.1123 76.9381 16.1533 83.852 16.167 88.7104C16.167 91.1259 16.167 93.0401 16.1943 94.3618C16.1943 95.0044 16.1943 95.5057 16.1943 95.8567C16.1943 96.0162 16.1943 96.1393 16.1943 96.235C16.2192 96.2838 16.2515 96.3284 16.2901 96.3671V96.3671Z" fill="#263238"/>
<path d="M18.8516 82.4984C18.8243 82.5258 18.9564 82.6625 18.9063 82.9177C18.8959 82.9863 18.871 83.0518 18.8333 83.11C18.7956 83.1681 18.7459 83.2176 18.6875 83.255C18.6154 83.2859 18.5364 83.2976 18.4584 83.289C18.3803 83.2804 18.3059 83.2518 18.2422 83.2059C18.1784 83.1601 18.1276 83.0985 18.0947 83.0273C18.0617 82.956 18.0477 82.8775 18.054 82.7992C18.0721 82.7318 18.1042 82.669 18.1481 82.6148C18.1921 82.5606 18.247 82.5163 18.3093 82.4848C18.5371 82.3617 18.7103 82.4437 18.724 82.4118C18.7377 82.3799 18.5645 82.2204 18.2409 82.3298C18.1472 82.3635 18.0626 82.4185 17.9938 82.4905C17.925 82.5624 17.8738 82.6494 17.8444 82.7445C17.8129 82.8676 17.8206 82.9973 17.8664 83.1158C17.9121 83.2342 17.9936 83.3354 18.0996 83.4054C18.1991 83.4835 18.3201 83.5293 18.4464 83.5366C18.5727 83.544 18.6982 83.5125 18.806 83.4464C18.8864 83.3882 18.9524 83.3123 18.999 83.2246C19.0456 83.1369 19.0716 83.0398 19.0749 82.9405C19.084 82.6169 18.8607 82.4711 18.8516 82.4984Z" fill="#263238"/>
<path d="M802.597 99.612L829.76 99.9082V31.5854H802.597V99.612Z" fill="#92E3A9"/>
<path opacity="0.3" d="M802.597 99.612L829.76 99.9082V31.5854H802.597V99.612Z" fill="#252525"/>
<path d="M814.839 99.7444L842.002 99.9085V31.5857H814.839V99.7444Z" fill="#92E3A9"/>
<path d="M820.345 38.8774H835.914V56.4333H820.345V38.8774Z" fill="#EBEBEB"/>
<path d="M832.043 61.3919C832.043 61.8138 832.211 62.2184 832.509 62.5167C832.808 62.815 833.212 62.9825 833.634 62.9825C834.03 62.9825 835.042 62.9415 835.042 62.9415C835.291 62.744 835.495 62.4954 835.64 62.2123C835.785 61.9292 835.867 61.6184 835.881 61.3008C835.874 60.9877 835.78 60.6827 835.608 60.4207C835.437 60.1588 835.195 59.9504 834.91 59.8196C834.91 59.8196 833.962 59.8196 833.634 59.8196C833.215 59.8196 832.813 59.9846 832.516 60.279C832.218 60.5733 832.048 60.9733 832.043 61.3919V61.3919Z" fill="#263238"/>
<path d="M834.695 62.9827C833.816 62.9827 833.104 62.2706 833.104 61.3921C833.104 60.5136 833.816 59.8015 834.695 59.8015C835.573 59.8015 836.285 60.5136 836.285 61.3921C836.285 62.2706 835.573 62.9827 834.695 62.9827Z" fill="#455A64"/>
<path d="M826.247 61.3919C826.247 61.8138 826.414 62.2184 826.712 62.5167C827.011 62.815 827.415 62.9825 827.837 62.9825C828.234 62.9825 829.245 62.9415 829.245 62.9415C829.495 62.744 829.698 62.4954 829.843 62.2123C829.988 61.9292 830.07 61.6184 830.084 61.3008C830.078 60.9877 829.983 60.6827 829.811 60.4207C829.64 60.1588 829.398 59.9504 829.113 59.8196C829.113 59.8196 828.165 59.8196 827.837 59.8196C827.418 59.8196 827.017 59.9846 826.719 60.279C826.421 60.5733 826.251 60.9733 826.247 61.3919V61.3919Z" fill="#263238"/>
<path d="M828.9 62.9827C828.021 62.9827 827.309 62.2706 827.309 61.3921C827.309 60.5136 828.021 59.8015 828.9 59.8015C829.778 59.8015 830.49 60.5136 830.49 61.3921C830.49 62.2706 829.778 62.9827 828.9 62.9827Z" fill="#455A64"/>
<path d="M820.508 61.3921C820.508 61.814 820.676 62.2185 820.974 62.5168C821.272 62.8151 821.677 62.9827 822.099 62.9827C822.495 62.9827 823.507 62.9417 823.507 62.9417C823.756 62.7442 823.96 62.4955 824.105 62.2125C824.249 61.9294 824.332 61.6185 824.346 61.301C824.338 60.9894 824.242 60.6863 824.071 60.4262C823.899 60.166 823.658 59.959 823.375 59.8289C823.375 59.8289 822.427 59.8289 822.099 59.8289C821.682 59.8288 821.281 59.9926 820.984 60.285C820.686 60.5774 820.515 60.975 820.508 61.3921V61.3921Z" fill="#263238"/>
<path d="M821.571 61.3921C821.571 61.7067 821.664 62.0142 821.839 62.2758C822.014 62.5374 822.262 62.7412 822.553 62.8616C822.843 62.982 823.163 63.0135 823.472 62.9521C823.78 62.8908 824.064 62.7393 824.286 62.5168C824.509 62.2944 824.66 62.011 824.721 61.7024C824.783 61.3939 824.751 61.0741 824.631 60.7834C824.51 60.4928 824.307 60.2444 824.045 60.0696C823.783 59.8948 823.476 59.8015 823.161 59.8015C822.952 59.8015 822.746 59.8427 822.553 59.9226C822.36 60.0025 822.184 60.1197 822.037 60.2674C821.889 60.4151 821.772 60.5904 821.692 60.7834C821.612 60.9764 821.571 61.1832 821.571 61.3921Z" fill="#455A64"/>
<path d="M827.756 42.5784L831.297 42.6285L828.029 47.6555L830.504 47.6874L827.036 54.5967L828.23 49.4603L824.966 49.4193L827.756 42.5784Z" fill="#92E3A9"/>
<path d="M818.887 96.3671C818.887 96.3671 818.887 96.3216 818.887 96.2304C818.887 96.1393 818.887 96.0071 818.887 95.8385C818.887 95.483 818.887 94.9771 818.887 94.3253C818.887 92.9945 818.887 91.0758 818.919 88.6466C818.919 83.7882 818.951 76.9199 818.973 68.8211L818.864 68.9305H837.354C837.381 68.9578 837.131 68.7117 837.236 68.8211V76.4231C837.236 78.8979 837.236 81.3043 837.236 83.6241C837.236 88.2637 837.236 92.557 837.236 96.3535L837.331 96.2623L823.886 96.3124L820.163 96.3352H819.183H818.841C818.841 96.3352 818.946 96.3352 819.16 96.3352H820.126H823.827L837.331 96.3854H837.427V96.2897C837.427 92.4932 837.427 88.1999 837.427 83.5603C837.427 81.2405 837.427 78.8341 837.427 76.3593V68.8348C837.532 68.935 837.286 68.6798 837.309 68.7071H818.818H818.709V68.812C818.709 76.9381 818.75 83.852 818.764 88.7104C818.764 91.1259 818.764 93.0401 818.791 94.3618C818.791 95.0044 818.791 95.5057 818.791 95.8567C818.791 96.0162 818.791 96.1393 818.791 96.235C818.816 96.2838 818.848 96.3284 818.887 96.3671V96.3671Z" fill="#263238"/>
<path d="M821.448 82.4984C821.421 82.5258 821.553 82.6625 821.503 82.9177C821.493 82.9863 821.468 83.0518 821.43 83.11C821.392 83.1681 821.343 83.2176 821.284 83.255C821.212 83.2859 821.133 83.2976 821.055 83.289C820.977 83.2804 820.903 83.2518 820.839 83.2059C820.775 83.1601 820.724 83.0985 820.691 83.0273C820.658 82.956 820.644 82.8775 820.651 82.7992C820.669 82.7318 820.701 82.669 820.745 82.6148C820.789 82.5606 820.844 82.5163 820.906 82.4848C821.134 82.3617 821.307 82.4437 821.321 82.4118C821.334 82.3799 821.161 82.2204 820.838 82.3298C820.744 82.3635 820.659 82.4185 820.59 82.4905C820.522 82.5624 820.47 82.6494 820.441 82.7445C820.41 82.8676 820.417 82.9973 820.463 83.1158C820.509 83.2342 820.59 83.3354 820.696 83.4054C820.796 83.4835 820.917 83.5293 821.043 83.5366C821.169 83.544 821.295 83.5125 821.403 83.4464C821.483 83.3882 821.549 83.3123 821.596 83.2246C821.642 83.1369 821.668 83.0398 821.672 82.9405C821.681 82.6169 821.457 82.4711 821.448 82.4984Z" fill="#263238"/>
</svg>
