<svg width="535" height="224" viewBox="0 0 535 224" fill="none" xmlns="http://www.w3.org/2000/svg">
<path d="M513.506 191.263L216.597 191.73L216.528 147.787L513.437 147.321L513.506 191.263Z" fill="#455A64"/>
<path d="M201.072 115.417C201.072 115.417 208.497 116.248 209.816 115.417C212.802 113.496 277.788 87.2966 333.628 87.2363C378.414 87.1761 418.741 99.0538 457.963 125.24C457.963 125.24 505.728 130.502 524.381 144.482C528.74 147.013 537.638 156.99 534.244 179.647C532.081 194.096 521.322 194.705 506.625 194.377C506.625 194.377 512.095 150.488 472.98 153.843C439.744 156.688 446.105 197.263 446.105 197.263L279.569 197.524C279.569 197.524 278.839 179.5 278.129 175.134C276.717 166.39 265.85 152.062 245.563 154.191C223.307 156.528 215.902 176.835 217.328 193.975C217.328 193.975 193.847 199.05 190.673 180.163L185.069 178.422C185.069 178.422 182.913 139.24 202.478 122.769L198.279 119.977L201.072 115.417Z" fill="#92E3A9"/>
<path d="M212.146 114.165C212.146 114.165 213.532 117.942 218.305 117.513C222.195 117.172 244.418 108.749 252.519 105.642C253.676 105.218 254.717 104.529 255.558 103.628C256.399 102.728 257.016 101.643 257.36 100.46C257.529 99.9622 257.566 99.4292 257.467 98.9131C257.467 98.9131 222.919 107.215 212.146 114.165Z" fill="#455A64"/>
<path d="M402.905 97.7549C402.912 99.3435 403.366 100.898 404.217 102.24C405.067 103.582 406.279 104.657 407.713 105.341L455.25 127.992L457.969 125.066C457.969 125.066 453.001 121.49 446.506 117.627C440.48 114.058 433.115 110.262 428.716 108.119C420.373 104.049 411.747 100.585 402.905 97.7549Z" fill="#455A64"/>
<g opacity="0.3">
<path opacity="0.3" d="M245.08 117.52C244.759 117.794 244.502 118.135 244.325 118.519C244.148 118.903 244.057 119.32 244.057 119.743C244.057 120.165 244.148 120.583 244.325 120.966C244.502 121.35 244.759 121.691 245.08 121.966C247.437 124.369 258.665 132.718 263.881 133.227C269.097 133.736 427.491 144.308 436.865 141.623C446.238 138.939 451.729 134.185 449.372 131.453L445.12 130.047L370.453 131.574L245.08 117.52Z" fill="white"/>
</g>
<g opacity="0.7">
<path opacity="0.7" d="M187.466 151.198C187.466 151.198 196.686 153.93 200.623 146.658C204.56 139.387 208.898 131.701 208.898 130.04C208.898 127.958 207.405 121.262 202.477 122.622C202.477 122.622 188.772 133.542 187.466 151.198Z" fill="white"/>
</g>
<g opacity="0.7">
<path opacity="0.7" d="M528.44 158.657C528.44 158.657 492.74 144.375 498.518 139.508C501.564 136.937 530.917 151.077 528.44 158.657Z" fill="white"/>
</g>
<path d="M513.863 194.25C513.863 194.25 513.863 194.129 513.863 193.895C513.863 193.661 513.903 193.306 513.91 192.837C513.91 191.913 513.95 190.554 513.91 188.82C513.712 183.855 512.948 178.929 511.634 174.137C510.723 170.818 509.45 167.609 507.837 164.569C505.998 161.066 503.55 157.919 500.606 155.276L499.421 154.238L498.142 153.294C497.267 152.658 496.36 152.068 495.424 151.526C494.962 151.238 494.453 151.024 493.964 150.77C493.476 150.515 492.987 150.254 492.465 150.046L490.905 149.431L490.114 149.123L489.304 148.875C488.206 148.518 487.088 148.226 485.957 147.998L484.256 147.643C483.68 147.556 483.098 147.496 482.522 147.415C481.946 147.335 481.357 147.261 480.768 147.201L479 147.114C477.809 147.017 476.612 146.99 475.418 147.034C470.724 147.022 466.07 147.885 461.692 149.578C457.626 151.196 453.968 153.693 450.98 156.889C448.316 159.809 446.141 163.139 444.539 166.752C443.135 169.886 442.051 173.155 441.305 176.507C440.231 181.345 439.665 186.282 439.617 191.237C439.617 192.998 439.664 194.364 439.718 195.288C439.718 195.743 439.778 196.098 439.805 196.332C439.832 196.567 439.858 196.687 439.858 196.687C439.858 196.687 439.858 196.567 439.858 196.332C439.858 196.098 439.858 195.73 439.812 195.281C439.771 194.357 439.745 192.998 439.812 191.264C439.902 186.305 440.501 181.37 441.599 176.534C442.359 173.204 443.449 169.959 444.853 166.845C446.452 163.267 448.618 159.971 451.267 157.083C454.235 153.923 457.866 151.46 461.9 149.872C466.239 148.197 470.853 147.343 475.505 147.355C480.152 147.236 484.789 147.85 489.244 149.176L490.054 149.417L490.831 149.725L492.378 150.328C492.893 150.535 493.368 150.81 493.857 151.044C494.346 151.278 494.848 151.506 495.303 151.794C496.226 152.324 497.12 152.903 497.982 153.528L499.254 154.465L500.425 155.49C503.347 158.105 505.782 161.217 507.616 164.683C509.239 167.688 510.525 170.863 511.453 174.15C512.787 178.921 513.587 183.825 513.836 188.773C513.923 190.527 513.937 191.886 513.93 192.79V193.841C513.863 194.129 513.863 194.25 513.863 194.25Z" fill="#263238"/>
<path d="M285.179 197.37C285.179 197.37 285.179 197.249 285.226 197.015C285.273 196.781 285.273 196.439 285.3 195.984C285.36 195.073 285.414 193.721 285.4 191.967C285.38 187.06 284.839 182.17 283.787 177.377C283.064 174.064 282.009 170.832 280.64 167.729C279.064 164.157 276.908 160.87 274.259 158.001C271.308 154.837 267.684 152.377 263.653 150.803C259.313 149.148 254.707 148.297 250.062 148.292C245.435 148.107 240.809 148.647 236.349 149.892C236.082 149.973 235.807 150.033 235.546 150.12L234.763 150.408L233.203 150.99C232.185 151.392 231.194 151.914 230.243 152.37C229.326 152.932 228.382 153.441 227.518 154.05L226.253 154.981C226.045 155.135 225.824 155.282 225.63 155.45L225.047 155.965C222.103 158.534 219.644 161.611 217.79 165.051C216.191 168.046 214.946 171.216 214.08 174.498C212.818 179.241 212.144 184.12 212.072 189.027C212.038 190.761 212.072 192.114 212.145 193.045C212.145 193.5 212.199 193.848 212.226 194.082C212.252 194.317 212.279 194.431 212.279 194.431C212.291 194.313 212.291 194.194 212.279 194.076C212.279 193.828 212.279 193.487 212.226 193.038C212.226 192.127 212.165 190.782 212.226 189.054C212.349 184.163 213.052 179.304 214.321 174.579C215.205 171.323 216.456 168.178 218.051 165.205C219.906 161.802 222.357 158.761 225.289 156.226L225.864 155.717C226.065 155.557 226.279 155.416 226.48 155.255L227.739 154.338C228.589 153.742 229.527 153.24 230.417 152.684C231.388 152.236 232.339 151.72 233.35 151.345L234.89 150.776L235.666 150.495C235.928 150.401 236.202 150.341 236.47 150.267C240.888 149.021 245.474 148.475 250.062 148.647C254.657 148.657 259.212 149.501 263.506 151.138C267.5 152.685 271.095 155.111 274.025 158.235C276.657 161.074 278.803 164.327 280.379 167.863C281.743 170.948 282.802 174.159 283.539 177.451C284.602 182.226 285.176 187.096 285.253 191.987C285.286 193.721 285.253 195.067 285.22 196.004C285.22 196.453 285.219 196.794 285.173 197.042C285.126 197.29 285.179 197.37 285.179 197.37Z" fill="#263238"/>
<path d="M246.647 117.513C246.647 117.513 260.493 129.565 266.493 129.565C272.492 129.565 430.605 139.153 437.642 136.307C441.349 134.882 444.932 133.153 448.354 131.138C448.354 131.138 396.759 93.9786 336.634 95.7595C292.498 97.0652 246.647 117.513 246.647 117.513Z" fill="#455A64"/>
<path d="M416.416 113.396L426.861 136.83L432.164 136.823L423.534 116.763L416.416 113.396Z" fill="#263238"/>
<g opacity="0.3">
<path opacity="0.3" d="M284.608 147.678L303.356 147.649L303.35 143.906C303.349 143.681 303.259 143.464 303.1 143.305C302.94 143.146 302.724 143.057 302.498 143.057L285.452 143.084C285.226 143.084 285.01 143.174 284.851 143.334C284.691 143.494 284.602 143.71 284.603 143.935L284.608 147.645L284.608 147.678Z" fill="#252525"/>
</g>
<g opacity="0.3">
<path opacity="0.3" d="M357.678 147.566L376.425 147.536L376.419 143.827C376.419 143.601 376.329 143.385 376.169 143.226C376.009 143.067 375.793 142.978 375.567 142.978L358.514 143.005C358.289 143.005 358.072 143.095 357.913 143.255C357.754 143.414 357.665 143.631 357.665 143.856L357.671 147.566L357.678 147.566Z" fill="#252525"/>
</g>
<path d="M292.78 102.201L276.41 130.02L291.662 130.837L289.694 117.453L299.71 100.594L292.78 102.201Z" fill="#263238"/>
<path d="M352.462 96.1547L355.013 134.158L349.449 133.884L347.045 95.8132L352.462 96.1547Z" fill="#263238"/>
<path d="M423.717 142.574L421.34 140.117L425.123 135.303L428.377 138.416C428.861 138.829 429.162 139.416 429.214 140.05C429.669 143.043 425.819 144.744 423.717 142.574Z" fill="#263238"/>
<path d="M414.101 141.67C408.323 141.864 403.776 135.972 406.18 130.71C406.43 130.069 406.839 129.502 407.37 129.065C407.902 128.628 408.536 128.334 409.213 128.212C415.239 127.161 423.039 126.773 425.142 135.303C425.758 137.827 424.345 139.387 422.035 140.331C419.839 141.228 416.873 141.57 414.101 141.67Z" fill="#92E3A9"/>
<path d="M450.867 187.169C449.856 172.571 460.87 159.919 475.468 158.908C490.065 157.898 502.717 168.912 503.728 183.509C504.738 198.107 493.724 210.759 479.127 211.77C464.53 212.78 451.877 201.766 450.867 187.169Z" fill="#263238"/>
<path d="M477.273 167.682C480.764 167.673 484.179 168.7 487.087 170.632C489.995 172.564 492.265 175.315 493.609 178.537C494.953 181.76 495.311 185.308 494.638 188.734C493.965 192.16 492.291 195.309 489.828 197.783C487.365 200.257 484.223 201.946 480.8 202.634C477.378 203.323 473.828 202.981 470.6 201.651C467.371 200.322 464.61 198.065 462.664 195.166C460.719 192.267 459.677 188.856 459.67 185.365C459.665 183.048 460.116 180.753 460.998 178.611C461.88 176.468 463.175 174.52 464.809 172.878C466.444 171.236 468.386 169.932 470.524 169.041C472.663 168.149 474.956 167.688 477.273 167.682ZM491.434 185.318C491.43 182.523 490.597 179.791 489.04 177.469C487.484 175.147 485.274 173.339 482.69 172.272C480.106 171.206 477.263 170.931 474.522 171.48C471.781 172.029 469.265 173.379 467.291 175.358C465.317 177.338 463.975 179.858 463.433 182.601C462.892 185.343 463.176 188.185 464.249 190.766C465.322 193.347 467.137 195.552 469.464 197.102C471.79 198.651 474.524 199.476 477.32 199.472C481.066 199.46 484.655 197.964 487.3 195.311C489.946 192.658 491.432 189.065 491.434 185.318Z" fill="#E0E0E0"/>
<path d="M477.279 171.177C480.077 171.171 482.814 171.994 485.145 173.543C487.475 175.092 489.293 177.297 490.37 179.88C491.447 182.462 491.734 185.306 491.195 188.052C490.655 190.798 489.314 193.322 487.34 195.305C485.366 197.288 482.848 198.641 480.105 199.194C477.362 199.746 474.517 199.473 471.929 198.408C469.342 197.343 467.128 195.535 465.568 193.213C464.008 190.89 463.172 188.156 463.165 185.358C463.16 181.607 464.643 178.007 467.289 175.349C469.935 172.69 473.528 171.19 477.279 171.177Z" fill="#F5F5F5"/>
<path d="M481.478 185.378C481.479 186.205 481.235 187.013 480.777 187.701C480.319 188.388 479.668 188.925 478.905 189.242C478.142 189.56 477.302 189.644 476.491 189.484C475.68 189.324 474.935 188.927 474.35 188.344C473.765 187.761 473.366 187.017 473.203 186.207C473.041 185.396 473.122 184.556 473.437 183.792C473.752 183.028 474.287 182.375 474.973 181.915C475.659 181.455 476.467 181.208 477.293 181.207C477.842 181.206 478.385 181.313 478.892 181.523C479.399 181.732 479.861 182.039 480.249 182.426C480.638 182.813 480.946 183.273 481.157 183.78C481.368 184.287 481.477 184.83 481.478 185.378Z" fill="#263238"/>
<path d="M230.608 205.012C220.261 194.665 220.261 177.89 230.608 167.544C240.954 157.197 257.729 157.197 268.076 167.544C278.422 177.89 278.422 194.665 268.076 205.012C257.729 215.358 240.954 215.358 230.608 205.012Z" fill="#263238"/>
<path d="M249.319 168.626C252.81 168.617 256.225 169.643 259.133 171.575C262.04 173.507 264.31 176.258 265.654 179.48C266.998 182.701 267.357 186.25 266.684 189.675C266.012 193.101 264.338 196.25 261.876 198.725C259.414 201.199 256.273 202.888 252.85 203.577C249.428 204.267 245.878 203.925 242.65 202.597C239.422 201.269 236.66 199.013 234.713 196.115C232.767 193.217 231.724 189.807 231.716 186.316C231.706 181.636 233.554 177.144 236.855 173.826C240.156 170.509 244.639 168.639 249.319 168.626ZM263.453 186.269C263.45 183.471 262.617 180.737 261.059 178.412C259.501 176.088 257.288 174.279 254.701 173.213C252.114 172.148 249.269 171.874 246.526 172.427C243.783 172.98 241.266 174.334 239.294 176.319C237.321 178.304 235.982 180.829 235.446 183.575C234.91 186.321 235.201 189.165 236.283 191.745C237.364 194.326 239.187 196.528 241.521 198.071C243.855 199.615 246.594 200.431 249.392 200.416C253.129 200.392 256.704 198.89 259.338 196.24C261.972 193.59 263.451 190.005 263.453 186.269Z" fill="#E0E0E0"/>
<path d="M249.325 172.128C252.123 172.12 254.861 172.942 257.192 174.49C259.523 176.039 261.343 178.243 262.421 180.826C263.499 183.408 263.787 186.252 263.248 188.999C262.71 191.745 261.369 194.269 259.395 196.253C257.421 198.237 254.904 199.591 252.161 200.144C249.417 200.697 246.572 200.424 243.984 199.359C241.396 198.295 239.181 196.487 237.621 194.164C236.061 191.841 235.224 189.107 235.218 186.309C235.211 182.559 236.692 178.959 239.337 176.3C241.982 173.641 245.575 172.14 249.325 172.128Z" fill="#F5F5F5"/>
<path d="M253.524 186.356C253.526 187.183 253.282 187.991 252.824 188.679C252.365 189.367 251.713 189.904 250.95 190.221C250.187 190.538 249.346 190.622 248.535 190.461C247.725 190.301 246.98 189.903 246.395 189.319C245.81 188.735 245.411 187.991 245.249 187.18C245.087 186.37 245.17 185.529 245.486 184.765C245.802 184.002 246.337 183.349 247.025 182.889C247.712 182.43 248.52 182.185 249.346 182.185C250.453 182.185 251.515 182.624 252.298 183.406C253.082 184.188 253.523 185.249 253.524 186.356Z" fill="#263238"/>
<path d="M236.799 136.502C236.81 137.316 237.062 138.109 237.523 138.781C237.985 139.452 238.635 139.971 239.392 140.273C240.149 140.574 240.978 140.645 241.775 140.475C242.572 140.305 243.3 139.903 243.868 139.319C244.436 138.735 244.818 137.995 244.966 137.194C245.114 136.393 245.02 135.566 244.698 134.818C244.376 134.07 243.839 133.434 243.155 132.991C242.471 132.548 241.671 132.318 240.857 132.33C239.766 132.346 238.726 132.794 237.965 133.576C237.204 134.359 236.785 135.411 236.799 136.502Z" fill="#263238"/>
<path d="M285.28 188.03H285.675H286.847L291.346 188.117L307.884 188.385L362.459 189.054C383.777 189.275 403.08 189.416 417.047 189.436C424.03 189.436 429.688 189.436 433.591 189.369C437.495 189.302 439.671 189.215 439.617 189.088C439.104 189.17 438.584 189.204 438.064 189.188C437.039 189.188 435.52 189.228 433.571 189.235C429.668 189.235 424.01 189.235 417.027 189.195L362.445 188.699L307.871 188.123L291.326 187.969H286.827H285.655L285.28 188.03Z" fill="#263238"/>
<path d="M352.83 197.243C352.931 197.243 352.83 183.182 352.556 165.868C352.281 148.553 352.02 134.486 351.926 134.493C351.832 134.5 351.926 148.553 352.207 165.868C352.489 183.182 352.736 197.243 352.83 197.243Z" fill="#263238"/>
<path d="M316.092 106.847C316.032 106.921 320.351 110.865 325.741 115.659C331.13 120.452 335.549 124.276 335.616 124.202C335.683 124.128 331.358 120.185 325.968 115.397C320.578 110.61 316.159 106.78 316.092 106.847Z" fill="#F5F5F5"/>
<path d="M318.215 114.44C318.421 114.679 318.645 114.903 318.884 115.109C319.326 115.531 319.976 116.127 320.793 116.85C322.42 118.31 324.696 120.278 327.267 122.394C329.838 124.51 332.215 126.371 333.963 127.69C334.833 128.36 335.543 128.869 336.038 129.224C336.287 129.422 336.554 129.597 336.835 129.746C336.618 129.515 336.38 129.304 336.125 129.116L334.117 127.496C332.416 126.157 330.099 124.242 327.495 122.14C324.89 120.037 322.627 118.082 320.96 116.676L318.951 115.022C318.727 114.802 318.481 114.607 318.215 114.44Z" fill="#F5F5F5"/>
<path d="M372.69 107.684C372.636 107.765 378.937 112.157 386.75 117.5C394.564 122.843 400.965 127.108 401.018 127.027C401.072 126.947 394.778 122.555 386.958 117.212C379.137 111.869 372.743 107.604 372.69 107.684Z" fill="#F5F5F5"/>
<path d="M366.824 107.416C367.074 107.663 367.345 107.887 367.634 108.086L369.911 109.84L377.43 115.611L384.882 121.47L387.138 123.251C387.405 123.482 387.692 123.688 387.995 123.867C387.759 123.605 387.501 123.363 387.225 123.144C386.716 122.695 385.966 122.059 385.036 121.276C383.174 119.723 380.57 117.607 377.671 115.337C374.772 113.067 372.053 111.059 370.085 109.639C369.101 108.929 368.297 108.367 367.735 107.985C367.449 107.768 367.144 107.578 366.824 107.416Z" fill="#F5F5F5"/>
<path d="M461.357 126.679C461.418 126.702 461.481 126.715 461.545 126.719L462.081 126.8L464.156 127.081C465.957 127.329 468.562 127.697 471.762 128.246C480.11 129.678 488.358 131.644 496.455 134.131C501.195 135.591 505.648 137.164 509.652 138.724C513.219 140.041 516.695 141.593 520.056 143.371C522.313 144.584 524.406 146.08 526.283 147.824C526.625 148.125 526.899 148.419 527.14 148.667C527.381 148.915 527.589 149.136 527.743 149.337L528.111 149.738C528.15 149.786 528.193 149.831 528.238 149.872C528.238 149.872 528.238 149.812 528.138 149.718L527.796 149.29C527.649 149.102 527.462 148.875 527.221 148.62C526.98 148.366 526.712 148.058 526.377 147.743C524.523 145.952 522.438 144.416 520.177 143.177C516.82 141.362 513.341 139.783 509.766 138.45C505.748 136.87 501.302 135.276 496.555 133.823C488.451 131.327 480.185 129.39 471.816 128.025C468.602 127.51 465.991 127.175 464.183 126.967L462.101 126.753L461.558 126.706C461.493 126.685 461.425 126.676 461.357 126.679Z" fill="#F5F5F5"/>
<path d="M294.6 91.8092H294.875L295.685 91.6753L298.778 91.1396C301.457 90.6843 305.367 90.0684 310.208 89.4859C322.818 87.9194 335.551 87.5965 348.224 88.5217C363.068 89.6867 376.272 92.6461 385.719 94.9628C390.453 96.1412 394.262 97.1656 396.894 97.8887L399.927 98.7122L400.717 98.9198C400.806 98.9494 400.898 98.9696 400.991 98.98C400.906 98.9394 400.816 98.908 400.723 98.8863L399.947 98.6453L396.934 97.7548C394.309 96.9915 390.506 95.9269 385.779 94.7217C376.325 92.3448 363.115 89.3653 348.238 88.1736C335.544 87.2408 322.789 87.5975 310.167 89.2381C305.32 89.8541 301.423 90.5103 298.738 91.0057C297.399 91.2468 296.361 91.4677 295.658 91.6016L294.855 91.769C294.769 91.7736 294.684 91.787 294.6 91.8092Z" fill="#F5F5F5"/>
<path d="M406.996 130.114C407.291 130.11 407.584 130.081 407.873 130.027C408.429 129.96 409.212 129.859 410.237 129.813C412.845 129.657 415.46 129.935 417.977 130.636C419.348 131.037 420.636 131.681 421.78 132.538C422.704 133.246 423.478 134.131 424.056 135.142C424.576 136.088 424.912 137.124 425.047 138.195C425.047 138.195 425.047 138.115 425.047 137.968C425.051 137.744 425.038 137.52 425.007 137.298C424.892 136.497 424.638 135.722 424.257 135.008C423.689 133.946 422.907 133.014 421.961 132.27C420.795 131.364 419.472 130.683 418.057 130.261C415.504 129.547 412.844 129.298 410.203 129.525C409.405 129.586 408.611 129.695 407.827 129.853C407.541 129.91 407.263 129.997 406.996 130.114Z" fill="#F5F5F5"/>
<path d="M357.912 139.2C357.912 139.3 367.648 139.956 379.666 140.673C391.684 141.389 401.433 141.891 401.439 141.798C401.446 141.704 391.711 141.041 379.686 140.325C367.661 139.608 357.919 139.106 357.912 139.2Z" fill="#F5F5F5"/>
<path d="M467.45 147.288C467.508 147.294 467.566 147.294 467.624 147.288L468.113 147.181C468.541 147.101 469.157 146.906 469.981 146.779C472.289 146.35 474.63 146.126 476.977 146.11C480.456 146.045 483.931 146.391 487.329 147.141C491.505 147.993 495.489 149.609 499.079 151.908C502.6 154.31 505.635 157.356 508.024 160.886C509.982 163.763 511.515 166.907 512.577 170.22C513.295 172.454 513.782 174.756 514.03 177.09C514.157 177.913 514.151 178.563 514.197 178.998L514.238 179.493C514.231 179.551 514.231 179.609 514.238 179.667C514.248 179.61 514.248 179.551 514.238 179.493V178.998C514.238 178.556 514.238 177.906 514.137 177.076C513.941 174.725 513.492 172.401 512.798 170.146C511.76 166.796 510.238 163.615 508.279 160.706C505.891 157.1 502.831 153.988 499.267 151.54C495.646 149.215 491.622 147.589 487.402 146.746C483.976 146.009 480.474 145.686 476.971 145.782C474.612 145.83 472.262 146.102 469.954 146.592C469.13 146.739 468.521 146.96 468.093 147.06L467.61 147.201L467.45 147.288Z" fill="#F5F5F5"/>
<path d="M218.708 196.387H218.763C220.925 195.982 226.27 194.552 229.209 190.039C231.166 187.028 231.31 183.025 231.427 179.815C231.87 167.384 232.68 136.357 232.913 127.142C232.962 126.109 233.411 125.135 234.165 124.426C234.919 123.717 235.918 123.329 236.953 123.342C237.987 123.356 238.976 123.771 239.711 124.499C240.446 125.228 240.869 126.213 240.891 127.248V132.886H242V127.253C241.978 125.927 241.441 124.661 240.502 123.725C239.562 122.788 238.295 122.255 236.969 122.237C235.643 122.219 234.362 122.718 233.398 123.628C232.433 124.539 231.862 125.789 231.804 127.114C231.571 136.329 230.761 167.356 230.323 179.787C230.212 182.864 230.074 186.69 228.283 189.445C226.414 192.317 222.805 194.502 218.613 195.3L189.427 195.023C185.64 194.241 182.774 193.055 180.185 189.601C178.821 187.777 177.834 185.337 177.074 181.933C175.477 174.797 175.527 167.245 175.572 159.943C175.698 154.725 175.543 149.504 175.106 144.302C174.857 141.857 174.446 139.312 173.154 137.222C171.929 135.248 169.484 133.524 167 134.45L167.383 135.492C169.19 134.832 171.186 136.163 172.212 137.826C173.382 139.712 173.764 142.118 174.003 144.435C174.436 149.598 174.589 154.781 174.463 159.96C174.418 167.323 174.369 174.93 175.988 182.199C176.786 185.764 177.834 188.331 179.314 190.283C182.12 194.042 185.202 195.311 189.294 196.143H189.4L218.708 196.387Z" fill="#263238"/>
<path d="M11.7653 7.19653H168.321V213.701H11.7653V7.19653Z" fill="#B63D29"/>
<path d="M11.7653 7.19653H85.1748V213.701H11.7653V7.19653Z" fill="#DD6A57"/>
<path d="M121.424 35.1428H135.501V69.3374H121.424V35.1428Z" fill="#C05B4B"/>
<path d="M121.424 169.004H135.501V203.211H121.424V169.004Z" fill="#C05B4B"/>
<path d="M85.1749 82.7698C85.1749 83.1588 103.786 83.4627 126.748 83.4627C149.711 83.4627 168.321 83.1588 168.321 82.7698C168.321 82.3808 149.711 82.0769 126.748 82.0769C103.786 82.0769 85.1749 82.3929 85.1749 82.7698Z" fill="#C05B4B"/>
<path d="M121.424 102.584H135.501V136.779H121.424V102.584Z" fill="#C05B4B"/>
<path d="M85.1749 150.211C85.1749 150.587 103.786 150.904 126.748 150.904C149.711 150.904 168.321 150.587 168.321 150.211C168.321 149.834 149.711 149.506 126.748 149.506C103.786 149.506 85.1749 149.822 85.1749 150.211Z" fill="#C05B4B"/>
<path d="M55.5016 35.1428H69.5781V69.3374H55.5016V35.1428Z" fill="#C05B4B"/>
<path d="M24.9664 35.1428H39.043V69.3374H24.9664V35.1428Z" fill="#C05B4B"/>
<path d="M55.5016 100.043H69.5781V134.238H55.5016V100.043Z" fill="#C05B4B"/>
<path d="M24.9664 100.043H39.043V134.238H24.9664V100.043Z" fill="#C05B4B"/>
<path d="M55.5016 164.944H69.5781V199.138H55.5016V164.944Z" fill="#C05B4B"/>
<path d="M24.9664 164.944H39.043V199.138H24.9664V164.944Z" fill="#C05B4B"/>
<path d="M-0.000457764 0H180.102V7.45158H-0.000457764V0Z" fill="#DD6A57"/>
<path d="M10.672 8.14456C10.672 8.53355 45.6688 8.84958 88.8223 8.84958C131.976 8.84958 166.973 8.53355 166.973 8.14456C166.973 7.75557 131.988 7.45166 88.8223 7.45166C45.6567 7.45166 10.672 7.76772 10.672 8.14456Z" fill="#B63D29"/>
</svg>
