<svg width="1041" height="134" viewBox="0 0 1041 134" fill="none" xmlns="http://www.w3.org/2000/svg">
<path d="M394.943 104.027L98.0332 104.494L97.9642 60.5514L394.874 60.085L394.943 104.027Z" fill="#455A64"/>
<path d="M82.508 28.1814C82.508 28.1814 89.9333 29.0116 91.2523 28.1814C94.2385 26.2598 159.224 0.0604872 215.065 0.000228088C259.85 -0.060031 300.177 11.8177 339.399 38.0036C339.399 38.0036 387.164 43.2663 405.818 57.2464C410.177 59.7773 419.075 69.7535 415.68 92.4109C413.518 106.86 402.758 107.469 388.062 107.141C388.062 107.141 393.532 63.2522 354.417 66.6067C321.181 69.4522 327.541 110.027 327.541 110.027L161.005 110.288C161.005 110.288 160.276 92.2636 159.566 87.8982C158.153 79.1539 147.286 64.8257 126.999 66.9548C104.744 69.2915 97.3384 89.5989 98.7646 106.739C98.7646 106.739 75.2836 111.814 72.11 92.9265L66.5059 91.1857C66.5059 91.1857 64.3499 52.0039 83.9141 35.533L79.716 32.741L82.508 28.1814Z" fill="#92E3A9"/>
<path d="M93.5821 26.9293C93.5821 26.9293 94.9681 30.7055 99.7419 30.277C103.632 29.9355 125.854 21.5126 133.956 18.406C135.112 17.9823 136.153 17.2925 136.994 16.3923C137.835 15.492 138.453 14.4066 138.796 13.2237C138.966 12.7261 139.003 12.1931 138.904 11.677C138.904 11.677 104.355 19.9794 93.5821 26.9293Z" fill="#455A64"/>
<path d="M284.343 10.5188C284.349 12.1075 284.804 13.6621 285.654 15.004C286.505 16.3459 287.716 17.4207 289.15 18.1047L336.688 40.7555L339.406 37.8296C339.406 37.8296 334.438 34.2542 327.944 30.3909C321.918 26.8222 314.553 23.0259 310.154 20.8834C301.81 16.8128 293.184 13.349 284.343 10.5188Z" fill="#455A64"/>
<g opacity="0.3">
<path opacity="0.3" d="M126.517 30.2837C126.196 30.5584 125.938 30.8993 125.762 31.283C125.585 31.6667 125.493 32.0842 125.493 32.5066C125.493 32.929 125.585 33.3464 125.762 33.7302C125.938 34.1139 126.196 34.4548 126.517 34.7295C128.874 37.1331 140.102 45.4824 145.318 45.9912C150.533 46.5001 308.928 57.0722 318.301 54.3873C327.675 51.7025 333.165 46.9487 330.808 44.2169L326.557 42.8109L251.889 44.3375L126.517 30.2837Z" fill="white"/>
</g>
<g opacity="0.7">
<path opacity="0.7" d="M68.9028 63.9618C68.9028 63.9618 78.1224 66.6935 82.0594 59.4223C85.9963 52.151 90.335 44.4646 90.335 42.8042C90.335 40.7219 88.8419 34.0264 83.914 35.3856C83.914 35.3856 70.2084 46.3059 68.9028 63.9618Z" fill="white"/>
</g>
<g opacity="0.7">
<path opacity="0.7" d="M409.875 71.4206C409.875 71.4206 374.175 57.1392 379.953 52.2716C383 49.7005 412.353 63.8413 409.875 71.4206Z" fill="white"/>
</g>
<path d="M395.299 107.014C395.299 107.014 395.299 106.893 395.299 106.659C395.299 106.425 395.339 106.07 395.346 105.601C395.346 104.677 395.386 103.318 395.346 101.584C395.148 96.6188 394.384 91.6925 393.069 86.9007C392.159 83.5818 390.885 80.3732 389.273 77.3328C387.434 73.83 384.985 70.683 382.042 68.0395L380.857 67.0018L379.578 66.0577C378.703 65.4223 377.795 64.8323 376.859 64.2901C376.397 64.0022 375.889 63.7879 375.4 63.5335C374.911 63.2791 374.422 63.0179 373.9 62.8104L372.34 62.1944L371.55 61.8864L370.74 61.6387C369.642 61.2824 368.524 60.9896 367.392 60.7616L365.691 60.4067C365.116 60.3197 364.533 60.2594 363.957 60.1791C363.382 60.0987 362.792 60.0251 362.203 59.9648L360.436 59.8778C359.244 59.7805 358.048 59.7537 356.853 59.7974C352.16 59.7864 347.505 60.6492 343.128 62.3417C339.062 63.9601 335.404 66.4567 332.415 69.6531C329.751 72.5724 327.576 75.9028 325.974 79.5156C324.57 82.6501 323.487 85.9185 322.74 89.2709C321.666 94.1087 321.101 99.0455 321.053 104.001C321.053 105.762 321.1 107.128 321.153 108.052C321.153 108.507 321.214 108.862 321.24 109.096C321.267 109.33 321.294 109.451 321.294 109.451C321.294 109.451 321.294 109.33 321.294 109.096C321.294 108.862 321.294 108.494 321.247 108.045C321.207 107.121 321.18 105.762 321.247 104.028C321.337 99.0694 321.936 94.1335 323.035 89.2976C323.795 85.968 324.885 82.7225 326.289 79.6093C327.887 76.0313 330.053 72.7348 332.703 69.8473C335.67 66.6872 339.302 64.2244 343.335 62.6363C347.675 60.9604 352.289 60.1067 356.941 60.1188C361.587 59.9995 366.224 60.6141 370.68 61.94L371.49 62.181L372.266 62.489L373.813 63.0916C374.329 63.2992 374.804 63.5737 375.293 63.808C375.782 64.0424 376.284 64.27 376.739 64.5579C377.662 65.0877 378.556 65.6666 379.417 66.292L380.689 67.2294L381.861 68.2538C384.783 70.8685 387.218 73.9811 389.052 77.4467C390.674 80.4521 391.961 83.627 392.888 86.914C394.223 91.6849 395.022 96.5893 395.272 101.537C395.359 103.291 395.372 104.65 395.366 105.554V106.605C395.299 106.893 395.299 107.014 395.299 107.014Z" fill="#263238"/>
<path d="M166.616 110.134C166.616 110.134 166.616 110.013 166.663 109.779C166.71 109.545 166.71 109.203 166.736 108.748C166.797 107.837 166.85 106.485 166.837 104.731C166.816 99.8241 166.275 94.9336 165.223 90.1412C164.5 86.8278 163.446 83.5955 162.076 80.493C160.5 76.9207 158.344 73.6335 155.696 70.7645C152.745 67.6004 149.12 65.1405 145.09 63.5669C140.749 61.9117 136.144 61.0609 131.498 61.0561C126.872 60.8707 122.245 61.4106 117.786 62.6563C117.518 62.7367 117.244 62.7969 116.982 62.884L116.199 63.1719L114.639 63.7544C113.621 64.1561 112.63 64.6783 111.68 65.1336C110.762 65.696 109.818 66.2049 108.955 66.8142L107.689 67.7449C107.482 67.8989 107.261 68.0461 107.067 68.2135L106.484 68.7291C103.539 71.2977 101.081 74.3753 99.2261 77.8148C97.6277 80.8095 96.3829 83.9799 95.5168 87.2621C94.2548 92.0046 93.5802 96.8842 93.5082 101.791C93.4747 103.525 93.5082 104.878 93.5819 105.809C93.5819 106.264 93.6354 106.612 93.6622 106.846C93.689 107.081 93.7158 107.194 93.7158 107.194C93.7276 107.077 93.7276 106.958 93.7158 106.84C93.7158 106.592 93.7158 106.25 93.6622 105.802C93.6622 104.891 93.6019 103.545 93.6622 101.818C93.7851 96.9269 94.4886 92.0677 95.7579 87.3425C96.6413 84.0865 97.8924 80.9417 99.4872 77.9688C101.342 74.5663 103.794 71.525 106.725 68.9902L107.301 68.4813C107.502 68.3207 107.716 68.1801 107.917 68.0194L109.176 67.1021C110.026 66.5062 110.963 66.004 111.854 65.4483C112.825 64.9997 113.775 64.4842 114.786 64.1092L116.326 63.5401L117.103 63.2589C117.364 63.1652 117.639 63.1049 117.906 63.0313C122.325 61.7853 126.911 61.2385 131.498 61.4109C136.093 61.4208 140.649 62.2647 144.943 63.9017C148.936 65.4494 152.531 67.8749 155.461 70.9988C158.093 73.8378 160.24 77.0907 161.815 80.6269C163.18 83.7118 164.238 86.9232 164.975 90.2148C166.038 94.9894 166.612 99.8598 166.689 104.751C166.723 106.485 166.69 107.831 166.656 108.768C166.656 109.217 166.656 109.558 166.609 109.806C166.562 110.053 166.616 110.134 166.616 110.134Z" fill="#263238"/>
<path d="M128.084 30.277C128.084 30.277 141.93 42.3288 147.929 42.3288C153.928 42.3288 312.041 51.9167 319.078 49.0712C322.785 47.6463 326.369 45.9174 329.791 43.9023C329.791 43.9023 278.196 6.74247 218.071 8.52346C173.934 9.82907 128.084 30.277 128.084 30.277Z" fill="#455A64"/>
<path d="M297.852 26.1594L308.297 49.5935L313.6 49.5868L304.969 29.5272L297.852 26.1594Z" fill="#263238"/>
<g opacity="0.3">
<path opacity="0.3" d="M166.046 60.4421L184.793 60.4127L184.787 56.6699C184.787 56.4444 184.697 56.2283 184.537 56.069C184.378 55.9098 184.161 55.8206 183.936 55.821L166.889 55.8477C166.663 55.8481 166.447 55.938 166.288 56.0977C166.129 56.2574 166.04 56.4739 166.04 56.6994L166.046 60.4087L166.046 60.4421Z" fill="#252525"/>
</g>
<g opacity="0.3">
<path opacity="0.3" d="M239.114 60.3296L257.861 60.3001L257.856 56.5908C257.855 56.3653 257.765 56.1492 257.606 55.99C257.446 55.8307 257.229 55.7415 257.004 55.7419L239.951 55.7687C239.725 55.769 239.509 55.8589 239.35 56.0186C239.19 56.1784 239.101 56.3948 239.102 56.6203L239.107 60.3296L239.114 60.3296Z" fill="#252525"/>
</g>
<path d="M174.217 14.9646L157.846 42.7842L173.099 43.601L171.13 30.2168L181.146 13.3577L174.217 14.9646Z" fill="#263238"/>
<path d="M233.898 8.91861L236.449 46.922L230.885 46.6475L228.482 8.57715L233.898 8.91861Z" fill="#263238"/>
<path d="M305.153 55.3382L302.777 52.8809L306.56 48.0669L309.814 51.1803C310.298 51.5927 310.599 52.1801 310.65 52.814C311.106 55.8068 307.256 57.5075 305.153 55.3382Z" fill="#263238"/>
<path d="M295.537 54.4342C289.759 54.6284 285.213 48.7364 287.617 43.4737C287.866 42.8326 288.276 42.2662 288.807 41.8289C289.338 41.3916 289.973 41.0981 290.65 40.9763C296.676 39.9251 304.476 39.5368 306.578 48.0668C307.194 50.591 305.781 52.151 303.471 53.0951C301.275 53.9923 298.309 54.3338 295.537 54.4342Z" fill="#92E3A9"/>
<path d="M332.303 99.9325C331.293 85.3353 342.307 72.6827 356.904 71.6722C371.501 70.6617 384.154 81.6759 385.164 96.2732C386.175 110.87 375.161 123.523 360.563 124.534C345.966 125.544 333.314 114.53 332.303 99.9325Z" fill="#263238"/>
<path d="M358.708 80.4464C362.199 80.4371 365.615 81.4635 368.523 83.3957C371.431 85.3279 373.7 88.0791 375.044 91.3013C376.388 94.5235 376.746 98.0719 376.073 101.498C375.4 104.923 373.726 108.073 371.263 110.547C368.8 113.021 365.659 114.709 362.236 115.398C358.813 116.087 355.263 115.745 352.035 114.415C348.807 113.086 346.045 110.829 344.1 107.93C342.154 105.031 341.113 101.62 341.106 98.1291C341.101 95.8122 341.552 93.517 342.433 91.3745C343.315 89.232 344.61 87.2841 346.245 85.6421C347.879 84.0001 349.821 82.6962 351.96 81.8047C354.098 80.9132 356.391 80.4516 358.708 80.4464ZM372.869 98.0822C372.865 95.2867 372.032 92.5552 370.476 90.2331C368.92 87.911 366.71 86.1025 364.125 85.0364C361.541 83.9703 358.699 83.6944 355.958 84.2437C353.217 84.793 350.7 86.1427 348.727 88.1222C346.753 90.1017 345.41 92.622 344.869 95.3646C344.327 98.1071 344.611 100.949 345.685 103.53C346.758 106.111 348.573 108.316 350.899 109.866C353.226 111.415 355.96 112.24 358.755 112.236C362.502 112.224 366.09 110.727 368.736 108.075C371.381 105.422 372.867 101.829 372.869 98.0822Z" fill="#E0E0E0"/>
<path d="M358.716 83.9412C361.514 83.9346 364.251 84.7579 366.581 86.3069C368.911 87.8559 370.73 90.0612 371.807 92.6438C372.884 95.2263 373.171 98.0703 372.631 100.816C372.092 103.562 370.75 106.086 368.776 108.069C366.803 110.052 364.285 111.405 361.542 111.958C358.799 112.51 355.954 112.237 353.366 111.172C350.778 110.107 348.564 108.299 347.004 105.976C345.444 103.654 344.608 100.92 344.602 98.1222C344.596 94.3711 346.079 90.7712 348.725 88.1125C351.372 85.4538 354.964 83.9536 358.716 83.9412Z" fill="#F5F5F5"/>
<path d="M362.914 98.1422C362.915 98.9686 362.672 99.7767 362.214 100.464C361.756 101.152 361.104 101.689 360.341 102.006C359.578 102.324 358.738 102.408 357.928 102.248C357.117 102.088 356.372 101.691 355.787 101.108C355.201 100.525 354.802 99.7807 354.64 98.9706C354.477 98.1604 354.559 97.3202 354.874 96.5563C355.189 95.7923 355.723 95.139 356.409 94.6788C357.096 94.2186 357.903 93.9723 358.729 93.971C359.278 93.9701 359.822 94.0773 360.329 94.2864C360.836 94.4956 361.297 94.8026 361.686 95.1899C362.074 95.5773 362.383 96.0373 362.593 96.5439C362.804 97.0504 362.913 97.5936 362.914 98.1422Z" fill="#263238"/>
<path d="M112.044 117.776C101.698 107.429 101.698 90.654 112.044 80.3075C122.391 69.9609 139.166 69.9609 149.512 80.3075C159.859 90.654 159.859 107.429 149.512 117.776C139.166 128.122 122.391 128.122 112.044 117.776Z" fill="#263238"/>
<path d="M130.755 81.3902C134.246 81.3809 137.661 82.4072 140.569 84.3391C143.477 86.271 145.746 89.0218 147.09 92.2436C148.435 95.4654 148.793 99.0135 148.121 102.439C147.448 105.865 145.775 109.014 143.313 111.488C140.85 113.963 137.709 115.652 134.287 116.341C130.865 117.03 127.315 116.689 124.087 115.361C120.858 114.033 118.096 111.777 116.15 108.879C114.204 105.981 113.161 102.571 113.153 99.0796C113.142 94.3999 114.99 89.9075 118.291 86.5903C121.592 83.2731 126.075 81.4026 130.755 81.3902ZM144.889 99.0327C144.887 96.2347 144.053 93.5004 142.495 91.1763C140.938 88.8522 138.725 87.0427 136.138 85.9772C133.55 84.9117 130.705 84.638 127.962 85.1909C125.219 85.7438 122.702 87.0983 120.73 89.0829C118.758 91.0675 117.419 93.5928 116.883 96.339C116.347 99.0853 116.638 101.929 117.719 104.509C118.801 107.09 120.624 109.291 122.958 110.835C125.291 112.379 128.031 113.195 130.829 113.18C134.565 113.155 138.14 111.654 140.774 109.004C143.408 106.354 144.888 102.769 144.889 99.0327Z" fill="#E0E0E0"/>
<path d="M130.762 84.8919C133.56 84.884 136.298 85.7061 138.629 87.2543C140.96 88.8026 142.78 91.0074 143.858 93.5898C144.935 96.1723 145.223 99.0164 144.685 101.762C144.146 104.509 142.805 107.033 140.832 109.017C138.858 111.001 136.34 112.355 133.597 112.908C130.854 113.461 128.008 113.188 125.42 112.123C122.832 111.059 120.618 109.251 119.058 106.928C117.497 104.605 116.661 101.871 116.654 99.0729C116.647 95.3224 118.129 91.7225 120.774 89.0636C123.419 86.4047 127.011 84.9043 130.762 84.8919Z" fill="#F5F5F5"/>
<path d="M134.961 99.12C134.962 99.9466 134.718 100.755 134.26 101.443C133.802 102.131 133.15 102.667 132.386 102.985C131.623 103.302 130.783 103.386 129.972 103.225C129.161 103.065 128.416 102.667 127.831 102.083C127.246 101.499 126.848 100.755 126.686 99.9443C126.524 99.1336 126.606 98.2932 126.922 97.5294C127.238 96.7656 127.774 96.1127 128.461 95.6533C129.148 95.1939 129.956 94.9487 130.783 94.9487C131.89 94.9487 132.952 95.388 133.735 96.1701C134.518 96.9521 134.959 98.0131 134.961 99.12Z" fill="#263238"/>
<path d="M118.236 49.2655C118.246 50.0801 118.498 50.8732 118.96 51.5445C119.422 52.2157 120.072 52.735 120.829 53.0366C121.585 53.3382 122.415 53.4085 123.211 53.2387C124.008 53.0689 124.737 52.6665 125.305 52.0826C125.873 51.4986 126.255 50.7593 126.402 49.9581C126.55 49.157 126.457 48.33 126.135 47.5819C125.812 46.8337 125.275 46.198 124.591 45.7552C123.907 45.3124 123.108 45.0823 122.293 45.0942C121.202 45.1101 120.162 45.5583 119.401 46.3403C118.641 47.1224 118.221 48.1745 118.236 49.2655Z" fill="#263238"/>
<path d="M166.717 100.794H167.112H168.284L172.783 100.881L189.321 101.149L243.895 101.818C265.214 102.039 284.517 102.18 298.483 102.2C305.467 102.2 311.124 102.2 315.028 102.133C318.931 102.066 321.107 101.979 321.054 101.852C320.54 101.934 320.02 101.968 319.5 101.952C318.476 101.952 316.956 101.992 315.008 101.999C311.104 101.999 305.447 101.999 298.463 101.959L243.882 101.463L189.307 100.887L172.763 100.733H168.264H167.092L166.717 100.794Z" fill="#263238"/>
<path d="M234.267 110.007C234.367 110.007 234.267 95.9462 233.992 78.6317C233.718 61.3173 233.456 47.2501 233.363 47.2568C233.269 47.2635 233.363 61.3173 233.644 78.6317C233.925 95.9462 234.173 110.007 234.267 110.007Z" fill="#263238"/>
<path d="M197.53 19.6112C197.47 19.6849 201.788 23.6285 207.178 28.4224C212.568 33.2164 216.987 37.0395 217.054 36.9659C217.121 36.8922 212.796 32.9486 207.406 28.1613C202.016 23.3741 197.597 19.5443 197.53 19.6112Z" fill="#F5F5F5"/>
<path d="M199.651 27.2039C199.858 27.4432 200.082 27.667 200.321 27.8734C200.763 28.2952 201.412 28.8911 202.229 29.6142C203.856 31.0738 206.133 33.0423 208.704 35.1581C211.275 37.2738 213.652 39.1352 215.399 40.4542C216.27 41.1237 216.979 41.6326 217.475 41.9874C217.723 42.1861 217.99 42.3609 218.271 42.5097C218.054 42.2788 217.817 42.0682 217.562 41.8803L215.553 40.26C213.852 38.9209 211.536 37.006 208.931 34.9036C206.327 32.8013 204.064 30.8462 202.397 29.4401L200.388 27.7864C200.164 27.5664 199.917 27.3711 199.651 27.2039Z" fill="#F5F5F5"/>
<path d="M254.126 20.4481C254.073 20.5285 260.373 24.9207 268.187 30.2637C276 35.6067 282.401 39.8717 282.455 39.7913C282.508 39.711 276.215 35.3188 268.394 29.9758C260.574 24.6328 254.18 20.3678 254.126 20.4481Z" fill="#F5F5F5"/>
<path d="M248.261 20.1802C248.51 20.427 248.781 20.6511 249.071 20.8497L251.347 22.6039L258.866 28.3754L266.318 34.2339L268.575 36.0149C268.841 36.2455 269.128 36.4517 269.432 36.6309C269.195 36.369 268.938 36.1271 268.662 35.9078C268.153 35.4592 267.403 34.8231 266.472 34.0398C264.611 32.4864 262.006 30.3707 259.107 28.1009C256.208 25.8311 253.49 23.8225 251.521 22.4031C250.537 21.6934 249.734 21.1309 249.171 20.7493C248.886 20.5323 248.581 20.3418 248.261 20.1802Z" fill="#F5F5F5"/>
<path d="M342.793 39.4432C342.853 39.4655 342.916 39.479 342.98 39.4834L343.516 39.5637L345.592 39.8449C347.393 40.0927 349.997 40.4609 353.198 41.0099C361.546 42.4418 369.794 44.4076 377.891 46.8952C382.631 48.3549 387.083 49.9283 391.087 51.4883C394.655 52.8051 398.13 54.3574 401.492 56.135C403.749 57.3476 405.841 58.8439 407.719 60.5875C408.06 60.8888 408.335 61.1833 408.576 61.4311C408.817 61.6788 409.024 61.8998 409.178 62.1006L409.547 62.5024C409.586 62.5499 409.628 62.5946 409.674 62.6363C409.674 62.6363 409.674 62.576 409.573 62.4823L409.232 62.0538C409.085 61.8663 408.897 61.6387 408.656 61.3842C408.415 61.1298 408.147 60.8218 407.812 60.5071C405.958 58.7159 403.873 57.1803 401.613 55.9408C398.256 54.126 394.777 52.5465 391.201 51.2138C387.184 49.6337 382.738 48.0402 377.991 46.5873C369.887 44.0912 361.621 42.1539 353.251 40.789C350.037 40.2734 347.426 39.9387 345.618 39.7311L343.536 39.5169L342.994 39.47C342.929 39.4492 342.861 39.4402 342.793 39.4432Z" fill="#F5F5F5"/>
<path d="M176.037 4.5731H176.312L177.122 4.43919L180.215 3.90356C182.893 3.44826 186.803 2.83229 191.644 2.24979C204.254 0.683321 216.988 0.360384 229.661 1.28564C244.505 2.45065 257.708 5.41004 267.155 7.72667C271.889 8.90507 275.699 9.92947 278.33 10.6526L281.363 11.4761L282.153 11.6837C282.242 11.7133 282.334 11.7335 282.428 11.7439C282.342 11.7033 282.252 11.6719 282.16 11.6502L281.383 11.4092L278.37 10.5187C275.746 9.7554 271.943 8.69081 267.216 7.48563C257.762 5.10874 244.552 2.12926 229.674 0.937471C216.981 0.00470728 204.225 0.361388 191.604 2.00205C186.756 2.61803 182.86 3.27418 180.175 3.76965C178.836 4.01068 177.798 4.23163 177.095 4.36554L176.291 4.53293C176.205 4.53749 176.12 4.55095 176.037 4.5731Z" fill="#F5F5F5"/>
<path d="M288.433 42.8778C288.727 42.8737 289.021 42.8445 289.31 42.7908C289.866 42.7238 290.649 42.6234 291.673 42.5765C294.281 42.4205 296.897 42.6989 299.413 43.4001C300.785 43.8008 302.073 44.4449 303.216 45.3016C304.141 46.0097 304.915 46.8951 305.493 47.9061C306.013 48.8522 306.349 49.8882 306.484 50.9593C306.484 50.9593 306.484 50.8789 306.484 50.7316C306.488 50.5077 306.474 50.2839 306.444 50.0621C306.328 49.2611 306.074 48.4863 305.694 47.7722C305.126 46.7104 304.344 45.7779 303.397 45.0338C302.232 44.1282 300.908 43.4471 299.494 43.0251C296.941 42.3114 294.281 42.0619 291.64 42.2886C290.842 42.3497 290.048 42.4592 289.263 42.6167C288.978 42.6737 288.699 42.7613 288.433 42.8778Z" fill="#F5F5F5"/>
<path d="M239.348 51.9636C239.348 52.0641 249.083 52.7202 261.101 53.4366C273.12 54.153 282.868 54.6552 282.875 54.5615C282.882 54.4677 273.147 53.8049 261.121 53.0885C249.096 52.3721 239.355 51.8699 239.348 51.9636Z" fill="#F5F5F5"/>
<path d="M348.886 60.0519C348.944 60.0583 349.003 60.0583 349.06 60.0519L349.549 59.9448C349.978 59.8645 350.594 59.6703 351.417 59.5431C353.725 59.1142 356.067 58.8901 358.414 58.8735C361.893 58.8093 365.367 59.1553 368.765 59.9046C372.942 60.757 376.926 62.3732 380.516 64.6718C384.037 67.0738 387.072 70.1203 389.461 73.6504C391.418 76.5271 392.952 79.6705 394.014 82.9839C394.731 85.2181 395.218 87.52 395.467 89.8534C395.594 90.677 395.587 91.3264 395.634 91.7616L395.674 92.2571C395.667 92.3149 395.667 92.3734 395.674 92.4312C395.684 92.3736 395.684 92.3147 395.674 92.2571V91.7616C395.674 91.3197 395.674 90.6703 395.574 89.84C395.377 87.4887 394.928 85.1654 394.235 82.9102C393.197 79.5597 391.674 76.3791 389.715 73.4696C387.327 69.8642 384.268 66.7522 380.703 64.3036C377.082 61.979 373.058 60.353 368.839 59.5096C365.412 58.7734 361.91 58.4497 358.407 58.5455C356.048 58.5944 353.699 58.8657 351.39 59.3556C350.567 59.5029 349.958 59.7239 349.529 59.8243L349.047 59.9649L348.886 60.0519Z" fill="#F5F5F5"/>
<path d="M100.145 109.151H100.201C102.363 108.746 107.708 107.316 110.646 102.803C112.604 99.7919 112.748 95.7888 112.864 92.5786C113.308 80.1479 114.117 49.121 114.35 39.9061C114.4 38.8727 114.849 37.8989 115.603 37.19C116.356 36.4811 117.356 36.0926 118.39 36.1062C119.425 36.1199 120.414 36.5347 121.148 37.2632C121.883 37.9917 122.306 38.9771 122.329 40.0115V45.6502H123.438V40.017C123.416 38.6909 122.878 37.4254 121.939 36.4889C121 35.5524 119.733 35.0185 118.407 35.0005C117.08 34.9824 115.799 35.4817 114.835 36.3923C113.871 37.3029 113.299 38.5534 113.241 39.8784C113.008 49.0933 112.199 80.1202 111.761 92.5508C111.65 95.628 111.511 99.4537 109.72 102.209C107.852 105.081 104.243 107.266 100.051 108.064L70.8648 107.787C67.078 107.005 64.2115 105.819 61.6222 102.365C60.2583 100.54 59.2714 98.1009 58.5118 94.6965C56.915 87.5608 56.9649 80.0093 57.0092 72.7072C57.136 67.489 56.9805 62.2677 56.5435 57.0663C56.294 54.6211 55.8837 52.0762 54.5918 49.986C53.3665 48.0121 50.9214 46.2878 48.4375 47.2137L48.8201 48.2561C50.6276 47.5963 52.6236 48.927 53.6493 50.5903C54.8192 52.4754 55.2018 54.8817 55.4402 57.1993C55.8733 62.3621 56.0269 67.5445 55.9003 72.7238C55.856 80.0869 55.8061 87.6939 57.4251 94.9627C58.2235 98.5278 59.2714 101.095 60.7517 103.047C63.5572 106.806 66.64 108.075 70.7318 108.907H70.8371L100.145 109.151Z" fill="#263238"/>
<path d="M0.998417 122.996L34.5381 123.361V39H0.998417V122.996Z" fill="#92E3A9"/>
<path opacity="0.3" d="M0.998417 122.996L34.5381 123.361V39H0.998417V122.996Z" fill="#252525"/>
<path d="M16.1146 123.159L49.6543 123.361V39H16.1146V123.159Z" fill="#92E3A9"/>
<path d="M22.9133 48.0039H42.1367V69.6809H22.9133V48.0039Z" fill="#EBEBEB"/>
<path d="M37.3574 75.8035C37.3574 76.3244 37.5643 76.824 37.9326 77.1923C38.301 77.5606 38.8005 77.7675 39.3214 77.7675C39.811 77.7675 41.0603 77.7169 41.0603 77.7169C41.3679 77.473 41.6195 77.166 41.7982 76.8164C41.9768 76.4669 42.0783 76.0831 42.0957 75.691C42.0878 75.3043 41.9711 74.9277 41.7591 74.6043C41.5472 74.2809 41.2484 74.0236 40.8971 73.8621C40.8971 73.8621 39.7265 73.8621 39.3214 73.8621C38.8044 73.862 38.3082 74.0658 37.9405 74.4293C37.5729 74.7928 37.3633 75.2866 37.3574 75.8035Z" fill="#263238"/>
<path d="M40.6327 77.7676C39.548 77.7676 38.6687 76.8883 38.6687 75.8036C38.6687 74.7189 39.548 73.8396 40.6327 73.8396C41.7174 73.8396 42.5967 74.7189 42.5967 75.8036C42.5967 76.8883 41.7174 77.7676 40.6327 77.7676Z" fill="#455A64"/>
<path d="M30.2002 75.8035C30.2002 76.3244 30.4071 76.824 30.7754 77.1923C31.1437 77.5606 31.6433 77.7675 32.1641 77.7675C32.6537 77.7675 33.903 77.7169 33.903 77.7169C34.2106 77.473 34.4622 77.166 34.6409 76.8164C34.8195 76.4669 34.921 76.0831 34.9385 75.691C34.9305 75.3043 34.8139 74.9277 34.6019 74.6043C34.3899 74.2809 34.0912 74.0236 33.7398 73.8621C33.7398 73.8621 32.5693 73.8621 32.1641 73.8621C31.6471 73.862 31.151 74.0658 30.7833 74.4293C30.4156 74.7928 30.2061 75.2866 30.2002 75.8035Z" fill="#263238"/>
<path d="M33.4754 77.7676C32.3908 77.7676 31.5115 76.8883 31.5115 75.8036C31.5115 74.7189 32.3908 73.8396 33.4754 73.8396C34.5601 73.8396 35.4395 74.7189 35.4395 75.8036C35.4395 76.8883 34.5601 77.7676 33.4754 77.7676Z" fill="#455A64"/>
<path d="M23.1152 75.8038C23.1152 76.3246 23.3221 76.8242 23.6904 77.1925C24.0588 77.5608 24.5583 77.7677 25.0792 77.7677C25.5688 77.7677 26.8181 77.7171 26.8181 77.7171C27.1257 77.4733 27.3773 77.1662 27.556 76.8167C27.7346 76.4672 27.8361 76.0833 27.8535 75.6912C27.8435 75.3065 27.7259 74.9323 27.514 74.611C27.3022 74.2898 27.0045 74.0343 26.6549 73.8735C26.6549 73.8735 25.4844 73.8735 25.0792 73.8735C24.5641 73.8735 24.0696 74.0757 23.7022 74.4368C23.3349 74.7978 23.1241 75.2887 23.1152 75.8038Z" fill="#263238"/>
<path d="M24.4265 75.8036C24.4265 76.192 24.5417 76.5717 24.7575 76.8947C24.9733 77.2177 25.2801 77.4694 25.6389 77.6181C25.9978 77.7667 26.3927 77.8056 26.7737 77.7298C27.1546 77.654 27.5046 77.467 27.7793 77.1923C28.0539 76.9177 28.241 76.5677 28.3168 76.1867C28.3925 75.8058 28.3536 75.4109 28.205 75.052C28.0563 74.6931 27.8046 74.3864 27.4817 74.1706C27.1587 73.9548 26.779 73.8396 26.3905 73.8396C26.1326 73.8396 25.8772 73.8904 25.6389 73.9891C25.4007 74.0878 25.1841 74.2325 25.0018 74.4148C24.8194 74.5972 24.6747 74.8137 24.576 75.052C24.4773 75.2903 24.4265 75.5457 24.4265 75.8036Z" fill="#455A64"/>
<path d="M32.0621 52.5735L36.4346 52.6354L32.3997 58.8425L35.4554 58.8819L31.1729 67.4131L32.6473 61.071L28.6181 61.0203L32.0621 52.5735Z" fill="#92E3A9"/>
<path d="M21.1114 118.989C21.1114 118.989 21.1114 118.933 21.1114 118.82C21.1114 118.707 21.1114 118.544 21.1114 118.336C21.1114 117.897 21.1114 117.272 21.1114 116.468C21.1114 114.825 21.1114 112.455 21.1508 109.456C21.1508 103.457 21.1902 94.9765 21.2183 84.9765L21.0832 85.1115H43.9139C43.9476 85.1453 43.6381 84.8414 43.7675 84.9765V94.3631C43.7675 97.4188 43.7675 100.39 43.7675 103.254C43.7675 108.983 43.7675 114.284 43.7675 118.972L43.8857 118.859L27.2847 118.921L22.6871 118.949H21.4772H21.0551C21.0551 118.949 21.1845 118.949 21.449 118.949H22.642H27.2116L43.8857 119.011H44.0039V118.893C44.0039 114.206 44.0039 108.904 44.0039 103.176C44.0039 100.311 44.0039 97.34 44.0039 94.2843V84.9934C44.1333 85.1172 43.8294 84.802 43.8576 84.8358H21.0269H20.8919V84.9652C20.8919 94.999 20.9425 103.536 20.9594 109.535C20.9594 112.517 20.9594 114.881 20.9932 116.513C20.9932 117.306 20.9932 117.925 20.9932 118.359C20.9932 118.556 20.9932 118.707 20.9932 118.826C21.0238 118.886 21.0637 118.941 21.1114 118.989Z" fill="#263238"/>
<path d="M24.2747 101.865C24.2409 101.898 24.4041 102.067 24.3422 102.382C24.3294 102.467 24.2986 102.548 24.2521 102.62C24.2055 102.691 24.1442 102.752 24.0721 102.799C23.983 102.837 23.8855 102.851 23.7892 102.841C23.6928 102.83 23.6009 102.795 23.5222 102.738C23.4435 102.681 23.3808 102.606 23.3401 102.518C23.2994 102.43 23.2821 102.333 23.2899 102.236C23.3122 102.153 23.3518 102.075 23.4061 102.008C23.4604 101.941 23.5282 101.887 23.605 101.848C23.8864 101.696 24.1003 101.797 24.1172 101.758C24.134 101.718 23.9202 101.521 23.5206 101.656C23.4049 101.698 23.3005 101.766 23.2155 101.855C23.1305 101.944 23.0674 102.051 23.031 102.168C22.9922 102.32 23.0017 102.481 23.0582 102.627C23.1147 102.773 23.2153 102.898 23.3462 102.984C23.469 103.081 23.6184 103.137 23.7744 103.146C23.9303 103.155 24.0853 103.117 24.2184 103.035C24.3177 102.963 24.3992 102.869 24.4567 102.761C24.5143 102.653 24.5463 102.533 24.5504 102.41C24.5617 102.011 24.286 101.831 24.2747 101.865Z" fill="#263238"/>
<path d="M992.001 122.996L1025.54 123.361V39H992.001V122.996Z" fill="#92E3A9"/>
<path opacity="0.3" d="M992.001 122.996L1025.54 123.361V39H992.001V122.996Z" fill="#252525"/>
<path d="M1007.12 123.159L1040.66 123.361V39H1007.12V123.159Z" fill="#92E3A9"/>
<path d="M1013.92 48.0039H1033.14V69.6809H1013.92V48.0039Z" fill="#EBEBEB"/>
<path d="M1028.36 75.8035C1028.36 76.3244 1028.57 76.824 1028.93 77.1923C1029.3 77.5606 1029.8 77.7675 1030.32 77.7675C1030.81 77.7675 1032.06 77.7169 1032.06 77.7169C1032.37 77.473 1032.62 77.166 1032.8 76.8164C1032.98 76.4669 1033.08 76.0831 1033.1 75.691C1033.09 75.3043 1032.97 74.9277 1032.76 74.6043C1032.55 74.2809 1032.25 74.0236 1031.9 73.8621C1031.9 73.8621 1030.73 73.8621 1030.32 73.8621C1029.81 73.862 1029.31 74.0658 1028.94 74.4293C1028.57 74.7928 1028.37 75.2866 1028.36 75.8035Z" fill="#263238"/>
<path d="M1031.63 77.7676C1030.55 77.7676 1029.67 76.8883 1029.67 75.8036C1029.67 74.7189 1030.55 73.8396 1031.63 73.8396C1032.72 73.8396 1033.6 74.7189 1033.6 75.8036C1033.6 76.8883 1032.72 77.7676 1031.63 77.7676Z" fill="#455A64"/>
<path d="M1021.2 75.8035C1021.2 76.3244 1021.41 76.824 1021.78 77.1923C1022.14 77.5606 1022.64 77.7675 1023.17 77.7675C1023.65 77.7675 1024.9 77.7169 1024.9 77.7169C1025.21 77.473 1025.46 77.166 1025.64 76.8164C1025.82 76.4669 1025.92 76.0831 1025.94 75.691C1025.93 75.3043 1025.81 74.9277 1025.6 74.6043C1025.39 74.2809 1025.09 74.0236 1024.74 73.8621C1024.74 73.8621 1023.57 73.8621 1023.17 73.8621C1022.65 73.862 1022.15 74.0658 1021.78 74.4293C1021.42 74.7928 1021.21 75.2866 1021.2 75.8035Z" fill="#263238"/>
<path d="M1024.48 77.7676C1023.39 77.7676 1022.51 76.8883 1022.51 75.8036C1022.51 74.7189 1023.39 73.8396 1024.48 73.8396C1025.56 73.8396 1026.44 74.7189 1026.44 75.8036C1026.44 76.8883 1025.56 77.7676 1024.48 77.7676Z" fill="#455A64"/>
<path d="M1014.12 75.8038C1014.12 76.3246 1014.32 76.8242 1014.69 77.1925C1015.06 77.5608 1015.56 77.7677 1016.08 77.7677C1016.57 77.7677 1017.82 77.7171 1017.82 77.7171C1018.13 77.4733 1018.38 77.1662 1018.56 76.8167C1018.74 76.4672 1018.84 76.0833 1018.86 75.6912C1018.85 75.3065 1018.73 74.9323 1018.52 74.611C1018.3 74.2898 1018.01 74.0343 1017.66 73.8735C1017.66 73.8735 1016.49 73.8735 1016.08 73.8735C1015.57 73.8735 1015.07 74.0757 1014.7 74.4368C1014.34 74.7978 1014.13 75.2887 1014.12 75.8038Z" fill="#263238"/>
<path d="M1015.43 75.8036C1015.43 76.192 1015.54 76.5717 1015.76 76.8947C1015.98 77.2177 1016.28 77.4694 1016.64 77.6181C1017 77.7667 1017.4 77.8056 1017.78 77.7298C1018.16 77.654 1018.51 77.467 1018.78 77.1923C1019.06 76.9177 1019.24 76.5677 1019.32 76.1867C1019.4 75.8058 1019.36 75.4109 1019.21 75.052C1019.06 74.6931 1018.81 74.3864 1018.48 74.1706C1018.16 73.9548 1017.78 73.8396 1017.39 73.8396C1017.14 73.8396 1016.88 73.8904 1016.64 73.9891C1016.4 74.0878 1016.19 74.2325 1016 74.4148C1015.82 74.5972 1015.68 74.8137 1015.58 75.052C1015.48 75.2903 1015.43 75.5457 1015.43 75.8036Z" fill="#455A64"/>
<path d="M1023.06 52.5735L1027.44 52.6354L1023.4 58.8425L1026.46 58.8819L1022.18 67.4131L1023.65 61.071L1019.62 61.0203L1023.06 52.5735Z" fill="#92E3A9"/>
<path d="M1012.11 118.989C1012.11 118.989 1012.11 118.933 1012.11 118.82C1012.11 118.707 1012.11 118.544 1012.11 118.336C1012.11 117.897 1012.11 117.272 1012.11 116.468C1012.11 114.825 1012.11 112.455 1012.15 109.456C1012.15 103.457 1012.19 94.9765 1012.22 84.9765L1012.09 85.1115H1034.92C1034.95 85.1453 1034.64 84.8414 1034.77 84.9765V94.3631C1034.77 97.4188 1034.77 100.39 1034.77 103.254C1034.77 108.983 1034.77 114.284 1034.77 118.972L1034.89 118.859L1018.29 118.921L1013.69 118.949H1012.48H1012.06C1012.06 118.949 1012.19 118.949 1012.45 118.949H1013.64H1018.21L1034.89 119.011H1035.01V118.893C1035.01 114.206 1035.01 108.904 1035.01 103.176C1035.01 100.311 1035.01 97.34 1035.01 94.2843V84.9934C1035.14 85.1172 1034.83 84.802 1034.86 84.8358H1012.03H1011.89V84.9652C1011.89 94.999 1011.95 103.536 1011.96 109.535C1011.96 112.517 1011.96 114.881 1012 116.513C1012 117.306 1012 117.925 1012 118.359C1012 118.556 1012 118.707 1012 118.826C1012.03 118.886 1012.07 118.941 1012.11 118.989Z" fill="#263238"/>
<path d="M1015.28 101.865C1015.24 101.898 1015.41 102.067 1015.34 102.382C1015.33 102.467 1015.3 102.548 1015.25 102.62C1015.21 102.691 1015.15 102.752 1015.07 102.799C1014.98 102.837 1014.89 102.851 1014.79 102.841C1014.69 102.83 1014.6 102.795 1014.52 102.738C1014.45 102.681 1014.38 102.606 1014.34 102.518C1014.3 102.43 1014.28 102.333 1014.29 102.236C1014.31 102.153 1014.35 102.075 1014.41 102.008C1014.46 101.941 1014.53 101.887 1014.61 101.848C1014.89 101.696 1015.1 101.797 1015.12 101.758C1015.14 101.718 1014.92 101.521 1014.52 101.656C1014.41 101.698 1014.3 101.766 1014.22 101.855C1014.13 101.944 1014.07 102.051 1014.03 102.168C1013.99 102.32 1014 102.481 1014.06 102.627C1014.12 102.773 1014.22 102.898 1014.35 102.984C1014.47 103.081 1014.62 103.137 1014.78 103.146C1014.93 103.155 1015.09 103.117 1015.22 103.035C1015.32 102.963 1015.4 102.869 1015.46 102.761C1015.52 102.653 1015.55 102.533 1015.55 102.41C1015.56 102.011 1015.29 101.831 1015.28 101.865Z" fill="#263238"/>
</svg>
