<svg width="379" height="196" viewBox="0 0 379 196" fill="none" xmlns="http://www.w3.org/2000/svg">
<path d="M264.166 173.447L65.3525 173.76L65.3063 144.335L264.12 144.023L264.166 173.447Z" fill="#455A64"/>
<path d="M54.9563 122.66C54.9563 122.66 59.9283 123.216 60.8115 122.66C62.8111 121.373 106.326 103.83 143.717 103.79C173.707 103.749 200.71 111.703 226.973 129.237C226.973 129.237 258.957 132.761 271.448 142.122C274.367 143.817 280.325 150.497 278.052 165.669C276.604 175.344 269.399 175.752 259.558 175.532C259.558 175.532 263.221 146.144 237.029 148.39C214.774 150.295 219.033 177.465 219.033 177.465L107.519 177.639C107.519 177.639 107.03 165.57 106.555 162.647C105.609 156.792 98.3326 147.197 84.7481 148.623C69.8454 150.188 64.8868 163.786 65.8418 175.263C65.8418 175.263 50.1187 178.662 47.9936 166.014L44.241 164.848C44.241 164.848 42.7974 138.612 55.8977 127.583L53.0867 125.713L54.9563 122.66Z" fill="#92E3A9"/>
<path d="M62.3717 121.822C62.3717 121.822 63.2997 124.35 66.4964 124.064C69.1012 123.835 83.9814 118.195 89.4063 116.115C90.1808 115.831 90.8778 115.369 91.4409 114.766C92.004 114.163 92.4174 113.437 92.6477 112.644C92.7611 112.311 92.7859 111.954 92.7194 111.609C92.7194 111.609 69.5854 117.168 62.3717 121.822Z" fill="#455A64"/>
<path d="M190.107 110.833C190.111 111.897 190.415 112.938 190.985 113.836C191.554 114.735 192.365 115.455 193.326 115.913L225.157 131.08L226.978 129.121C226.978 129.121 223.651 126.727 219.302 124.14C215.267 121.75 210.335 119.208 207.39 117.773C201.803 115.048 196.027 112.728 190.107 110.833V110.833Z" fill="#455A64"/>
<g opacity="0.3">
<path opacity="0.3" d="M84.4251 124.068C84.2102 124.252 84.0377 124.48 83.9194 124.737C83.8011 124.994 83.7398 125.273 83.7398 125.556C83.7398 125.839 83.8011 126.119 83.9194 126.376C84.0377 126.633 84.2102 126.861 84.4251 127.045C86.0032 128.654 93.5218 134.245 97.0143 134.586C100.507 134.927 206.569 142.006 212.846 140.208C219.123 138.41 222.799 135.227 221.221 133.398L218.374 132.456L168.376 133.478L84.4251 124.068Z" fill="white"/>
</g>
<g opacity="0.7">
<path opacity="0.7" d="M45.8471 146.619C45.8471 146.619 52.0206 148.448 54.6568 143.579C57.293 138.711 60.1982 133.564 60.1982 132.452C60.1982 131.058 59.1984 126.574 55.8987 127.484C55.8987 127.484 46.7213 134.797 45.8471 146.619Z" fill="white"/>
</g>
<g opacity="0.7">
<path opacity="0.7" d="M274.165 151.614C274.165 151.614 250.26 142.051 254.129 138.791C256.169 137.07 275.824 146.539 274.165 151.614" fill="white"/>
</g>
<path d="M264.405 175.447C264.405 175.447 264.405 175.367 264.405 175.21C264.405 175.053 264.432 174.815 264.437 174.501C264.437 173.883 264.464 172.972 264.437 171.811C264.304 168.487 263.793 165.188 262.912 161.979C262.303 159.757 261.45 157.608 260.37 155.573C259.139 153.227 257.499 151.12 255.528 149.35L254.735 148.655L253.878 148.023C253.292 147.597 252.685 147.202 252.058 146.839C251.749 146.646 251.408 146.503 251.081 146.332C250.754 146.162 250.426 145.987 250.077 145.848L249.032 145.436L248.503 145.229L247.96 145.064C247.225 144.825 246.477 144.629 245.719 144.476L244.58 144.239C244.194 144.18 243.804 144.14 243.419 144.086C243.033 144.032 242.639 143.983 242.244 143.943L241.061 143.884C240.263 143.819 239.462 143.801 238.662 143.831C235.519 143.823 232.402 144.401 229.471 145.534C226.749 146.618 224.299 148.29 222.298 150.43C220.514 152.385 219.058 154.615 217.985 157.034C217.045 159.133 216.319 161.322 215.819 163.566C215.1 166.806 214.722 170.112 214.69 173.43C214.69 174.609 214.721 175.523 214.757 176.142C214.757 176.447 214.797 176.685 214.815 176.842C214.833 176.998 214.851 177.079 214.851 177.079C214.851 177.079 214.851 176.998 214.851 176.842C214.851 176.685 214.851 176.438 214.82 176.138C214.793 175.519 214.775 174.609 214.82 173.448C214.88 170.128 215.281 166.822 216.017 163.584C216.525 161.355 217.255 159.182 218.196 157.097C219.266 154.701 220.716 152.494 222.491 150.56C224.478 148.444 226.909 146.795 229.61 145.732C232.516 144.609 235.605 144.038 238.72 144.046C241.832 143.966 244.937 144.377 247.92 145.265L248.463 145.427L248.983 145.633L250.018 146.036C250.364 146.175 250.682 146.359 251.009 146.516C251.336 146.673 251.673 146.826 251.978 147.018C252.596 147.373 253.194 147.761 253.771 148.179L254.623 148.807L255.407 149.493C257.364 151.244 258.994 153.328 260.222 155.649C261.309 157.661 262.17 159.787 262.791 161.988C263.685 165.183 264.22 168.467 264.387 171.78C264.446 172.954 264.455 173.865 264.45 174.47V175.174C264.405 175.367 264.405 175.447 264.405 175.447Z" fill="#263238"/>
<path d="M111.275 177.536C111.275 177.536 111.275 177.456 111.307 177.299C111.338 177.142 111.338 176.913 111.356 176.608C111.397 175.999 111.432 175.093 111.423 173.918C111.41 170.633 111.047 167.358 110.343 164.149C109.859 161.93 109.153 159.766 108.236 157.689C107.18 155.297 105.737 153.095 103.963 151.174C101.987 149.056 99.5601 147.408 96.8615 146.355C93.955 145.246 90.871 144.677 87.7603 144.673C84.6625 144.549 81.5644 144.911 78.5784 145.745C78.3991 145.799 78.2153 145.839 78.0404 145.897L77.5159 146.09L76.4713 146.48C75.7898 146.749 75.1263 147.099 74.4896 147.404C73.8754 147.78 73.2433 148.121 72.6649 148.529L71.8175 149.152C71.6786 149.255 71.5306 149.354 71.4006 149.466L71.0105 149.811C69.0387 151.531 67.3925 153.592 66.1506 155.895C65.0803 157.901 64.2468 160.024 63.6668 162.221C62.8217 165.397 62.37 168.664 62.3218 171.95C62.2994 173.111 62.3218 174.017 62.3711 174.64C62.3711 174.945 62.407 175.178 62.4249 175.335C62.4429 175.492 62.4608 175.568 62.4608 175.568C62.4687 175.489 62.4687 175.41 62.4608 175.331C62.4608 175.165 62.4608 174.936 62.4249 174.636C62.4249 174.026 62.3846 173.125 62.4249 171.968C62.5073 168.693 62.9783 165.439 63.8282 162.275C64.4197 160.095 65.2576 157.989 66.3254 155.998C67.5675 153.72 69.2091 151.684 71.1719 149.986L71.5575 149.646C71.692 149.538 71.8355 149.444 71.97 149.336L72.8128 148.722C73.3822 148.323 74.0099 147.987 74.6062 147.615C75.2563 147.314 75.8929 146.969 76.5699 146.718L77.6011 146.337L78.1211 146.149C78.296 146.086 78.4798 146.045 78.6591 145.996C81.6177 145.162 84.6886 144.796 87.7603 144.911C90.8374 144.918 93.8877 145.483 96.7629 146.579C99.4371 147.615 101.844 149.239 103.806 151.331C105.569 153.232 107.006 155.41 108.061 157.778C108.975 159.844 109.683 161.994 110.177 164.198C110.889 167.396 111.273 170.657 111.325 173.932C111.347 175.093 111.325 175.994 111.302 176.622C111.302 176.922 111.302 177.151 111.271 177.317C111.24 177.483 111.275 177.536 111.275 177.536Z" fill="#263238"/>
<path d="M85.4748 124.064C85.4748 124.064 94.7463 132.134 98.7634 132.134C102.78 132.134 208.655 138.554 213.367 136.648C215.849 135.694 218.248 134.536 220.54 133.187C220.54 133.187 185.991 108.305 145.731 109.497C116.177 110.371 85.4748 124.064 85.4748 124.064Z" fill="#455A64"/>
<path d="M199.153 121.306L206.147 136.998L209.698 136.993L203.919 123.561L199.153 121.306Z" fill="#263238"/>
<g opacity="0.3">
<path opacity="0.3" d="M110.895 144.262L123.448 144.243L123.444 141.736C123.444 141.585 123.383 141.441 123.277 141.334C123.17 141.227 123.025 141.168 122.874 141.168L111.459 141.186C111.308 141.186 111.163 141.246 111.057 141.353C110.95 141.46 110.89 141.605 110.891 141.756L110.894 144.24L110.895 144.262Z" fill="#252525"/>
</g>
<g opacity="0.3">
<path opacity="0.3" d="M159.821 144.187L172.374 144.167L172.37 141.684C172.37 141.532 172.31 141.388 172.203 141.281C172.096 141.175 171.951 141.115 171.8 141.115L160.381 141.133C160.23 141.133 160.085 141.193 159.979 141.3C159.872 141.407 159.812 141.552 159.813 141.703L159.816 144.187L159.821 144.187Z" fill="#252525"/>
</g>
<path d="M116.366 113.81L105.404 132.438L115.617 132.985L114.299 124.023L121.006 112.734L116.366 113.81Z" fill="#263238"/>
<path d="M156.329 109.762L158.037 135.209L154.311 135.025L152.702 109.533L156.329 109.762Z" fill="#263238"/>
<path d="M204.042 140.845L202.451 139.199L204.984 135.976L207.163 138.06C207.487 138.337 207.688 138.73 207.723 139.154C208.028 141.158 205.45 142.297 204.042 140.845Z" fill="#263238"/>
<path d="M197.603 140.239C193.734 140.369 190.69 136.424 192.299 132.9C192.466 132.471 192.741 132.092 193.096 131.799C193.452 131.506 193.877 131.309 194.33 131.228C198.365 130.524 203.588 130.264 204.996 135.976C205.408 137.666 204.462 138.711 202.916 139.343C201.445 139.944 199.459 140.172 197.603 140.239Z" fill="#92E3A9"/>
<path d="M222.222 170.706C221.545 160.931 228.921 152.459 238.695 151.782C248.47 151.105 256.942 158.481 257.619 168.255C258.295 178.03 250.92 186.502 241.146 187.179C231.371 187.855 222.899 180.48 222.222 170.706Z" fill="#263238"/>
<path d="M239.903 157.657C242.241 157.651 244.528 158.338 246.475 159.632C248.423 160.926 249.942 162.768 250.842 164.926C251.742 167.083 251.982 169.46 251.531 171.753C251.081 174.047 249.96 176.156 248.31 177.813C246.661 179.47 244.558 180.6 242.266 181.061C239.974 181.522 237.597 181.293 235.435 180.403C233.273 179.513 231.424 178.002 230.122 176.061C228.819 174.12 228.121 171.836 228.117 169.498C228.113 167.946 228.415 166.41 229.006 164.975C229.596 163.54 230.463 162.236 231.558 161.136C232.652 160.037 233.953 159.164 235.385 158.567C236.817 157.97 238.352 157.661 239.903 157.657V157.657ZM249.386 169.466C249.383 167.595 248.825 165.766 247.783 164.211C246.741 162.656 245.261 161.445 243.531 160.731C241.8 160.017 239.897 159.832 238.062 160.2C236.226 160.568 234.541 161.472 233.22 162.797C231.898 164.123 230.999 165.81 230.636 167.647C230.274 169.483 230.464 171.386 231.183 173.114C231.901 174.843 233.117 176.319 234.674 177.357C236.232 178.394 238.063 178.947 239.935 178.944C242.443 178.936 244.847 177.934 246.618 176.157C248.389 174.381 249.385 171.975 249.386 169.466V169.466Z" fill="#E0E0E0"/>
<path d="M239.909 159.998C241.782 159.993 243.615 160.544 245.175 161.582C246.736 162.619 247.953 164.096 248.675 165.825C249.396 167.554 249.588 169.459 249.227 171.297C248.865 173.136 247.967 174.826 246.645 176.154C245.324 177.482 243.638 178.388 241.801 178.758C239.964 179.128 238.059 178.945 236.326 178.232C234.594 177.519 233.111 176.308 232.067 174.753C231.022 173.197 230.462 171.367 230.458 169.493C230.454 166.982 231.447 164.571 233.219 162.791C234.991 161.01 237.397 160.006 239.909 159.998V159.998Z" fill="#F5F5F5"/>
<path d="M242.72 169.507C242.721 170.06 242.557 170.601 242.251 171.062C241.944 171.522 241.508 171.882 240.997 172.094C240.486 172.307 239.924 172.363 239.381 172.256C238.838 172.149 238.339 171.883 237.947 171.493C237.555 171.102 237.288 170.604 237.179 170.061C237.07 169.519 237.125 168.956 237.336 168.445C237.547 167.933 237.905 167.496 238.364 167.188C238.824 166.879 239.364 166.715 239.918 166.714C240.285 166.713 240.649 166.785 240.989 166.925C241.328 167.065 241.637 167.27 241.897 167.53C242.157 167.789 242.364 168.097 242.505 168.436C242.646 168.776 242.719 169.139 242.72 169.507V169.507Z" fill="#263238"/>
<path d="M74.7347 182.654C67.8065 175.725 67.8065 164.493 74.7347 157.564C81.6628 150.636 92.8955 150.636 99.8237 157.564C106.752 164.493 106.752 175.725 99.8237 182.654C92.8955 189.582 81.6628 189.582 74.7347 182.654Z" fill="#263238"/>
<path d="M87.2629 158.289C89.6004 158.283 91.8873 158.97 93.8343 160.264C95.7814 161.558 97.301 163.4 98.2011 165.557C99.1012 167.714 99.3413 170.09 98.891 172.384C98.4407 174.678 97.3203 176.786 95.6714 178.443C94.0226 180.1 91.9194 181.231 89.6278 181.693C87.3363 182.154 84.9593 181.926 82.7975 181.037C80.6358 180.147 78.7863 178.637 77.4831 176.696C76.1799 174.755 75.4815 172.472 75.4761 170.134C75.469 167.001 76.7067 163.993 78.917 161.771C81.1273 159.55 84.1293 158.298 87.2629 158.289ZM96.7272 170.103C96.7254 168.229 96.1675 166.398 95.1243 164.842C94.0811 163.286 92.5994 162.074 90.867 161.361C89.1346 160.647 87.2294 160.464 85.3927 160.834C83.5561 161.205 81.8707 162.112 80.5499 163.44C79.2292 164.769 78.3326 166.46 77.9737 168.299C77.6149 170.138 77.8099 172.042 78.534 173.77C79.2582 175.498 80.4789 176.972 82.0416 178.006C83.6043 179.04 85.4386 179.586 87.3122 179.576C89.8142 179.56 92.2081 178.554 93.9719 176.78C95.7356 175.005 96.7261 172.605 96.7272 170.103V170.103Z" fill="#E0E0E0"/>
<path d="M87.2684 160.634C89.1422 160.629 90.9755 161.179 92.5364 162.216C94.0973 163.253 95.3158 164.729 96.0375 166.458C96.7593 168.188 96.9521 170.092 96.5914 171.931C96.2307 173.77 95.3328 175.46 94.0113 176.789C92.6898 178.117 91.0039 179.024 89.167 179.394C87.3301 179.764 85.4247 179.581 83.6918 178.869C81.9588 178.156 80.4761 176.945 79.4313 175.39C78.3865 173.834 77.8264 172.004 77.822 170.13C77.8172 167.618 78.8093 165.208 80.5805 163.427C82.3517 161.647 84.757 160.642 87.2684 160.634V160.634Z" fill="#F5F5F5"/>
<path d="M90.0791 170.161C90.08 170.715 89.9167 171.256 89.6098 171.717C89.3029 172.178 88.8663 172.537 88.3552 172.749C87.8441 172.962 87.2814 173.018 86.7385 172.91C86.1955 172.803 85.6966 172.537 85.3049 172.146C84.9132 171.755 84.6463 171.256 84.538 170.713C84.4297 170.171 84.4848 169.608 84.6964 169.096C84.908 168.585 85.2666 168.148 85.7268 167.84C86.1869 167.532 86.728 167.368 87.2815 167.368C88.0227 167.368 88.7336 167.662 89.2581 168.186C89.7826 168.71 90.0779 169.42 90.0791 170.161V170.161Z" fill="#263238"/>
<path d="M78.8803 136.778C78.8874 137.324 79.0562 137.855 79.3653 138.304C79.6743 138.754 80.1098 139.102 80.6165 139.303C81.1233 139.505 81.6785 139.553 82.2121 139.439C82.7456 139.325 83.2334 139.056 83.6137 138.665C83.9941 138.274 84.2499 137.779 84.3488 137.242C84.4477 136.706 84.3853 136.152 84.1694 135.651C83.9535 135.15 83.5939 134.724 83.136 134.428C82.6781 134.131 82.1426 133.977 81.5972 133.985C80.8667 133.996 80.1702 134.296 79.6608 134.82C79.1514 135.343 78.8707 136.048 78.8803 136.778V136.778Z" fill="#263238"/>
<path d="M111.344 171.282H111.609H112.393L115.406 171.34L126.48 171.52L163.024 171.968C177.299 172.116 190.224 172.21 199.576 172.224C204.253 172.224 208.041 172.224 210.655 172.179C213.269 172.134 214.726 172.076 214.69 171.99C214.346 172.046 213.998 172.068 213.65 172.058C212.964 172.058 211.946 172.085 210.641 172.089C208.028 172.089 204.239 172.089 199.563 172.062L163.015 171.73L126.471 171.345L115.393 171.242H112.38H111.595L111.344 171.282Z" fill="#263238"/>
<path d="M156.575 177.451C156.642 177.451 156.575 168.036 156.391 156.442C156.207 144.848 156.033 135.429 155.97 135.433C155.907 135.438 155.97 144.848 156.158 156.442C156.346 168.036 156.512 177.451 156.575 177.451Z" fill="#263238"/>
<path d="M131.976 116.921C131.936 116.971 134.827 119.611 138.436 122.822C142.045 126.032 145.004 128.592 145.049 128.542C145.094 128.493 142.198 125.852 138.589 122.647C134.98 119.441 132.021 116.877 131.976 116.921Z" fill="#F5F5F5"/>
<path d="M133.397 122.006C133.535 122.166 133.685 122.316 133.845 122.454C134.141 122.736 134.576 123.135 135.123 123.62C136.213 124.597 137.737 125.915 139.459 127.332C141.18 128.749 142.772 129.995 143.942 130.878C144.525 131.327 145 131.667 145.332 131.905C145.498 132.038 145.677 132.155 145.865 132.255C145.72 132.1 145.561 131.959 145.39 131.833L144.045 130.748C142.906 129.851 141.355 128.569 139.611 127.161C137.867 125.754 136.352 124.445 135.235 123.503L133.89 122.396C133.74 122.248 133.575 122.118 133.397 122.006V122.006Z" fill="#F5F5F5"/>
<path d="M169.874 117.482C169.839 117.536 174.057 120.477 179.29 124.055C184.522 127.632 188.808 130.488 188.844 130.434C188.879 130.381 184.665 127.439 179.428 123.862C174.192 120.284 169.91 117.428 169.874 117.482Z" fill="#F5F5F5"/>
<path d="M165.946 117.303C166.113 117.468 166.294 117.618 166.488 117.751L168.013 118.926L173.047 122.79L178.037 126.713L179.548 127.906C179.727 128.06 179.919 128.198 180.122 128.318C179.964 128.143 179.791 127.981 179.606 127.834C179.266 127.534 178.764 127.108 178.14 126.583C176.894 125.543 175.15 124.126 173.209 122.606C171.267 121.087 169.447 119.742 168.129 118.791C167.47 118.316 166.932 117.939 166.555 117.684C166.364 117.538 166.16 117.411 165.946 117.303V117.303Z" fill="#F5F5F5"/>
<path d="M229.247 130.201C229.287 130.216 229.33 130.225 229.373 130.228L229.731 130.282L231.121 130.47C232.327 130.636 234.071 130.883 236.214 131.25C241.804 132.209 247.327 133.525 252.749 135.191C255.923 136.169 258.904 137.222 261.585 138.267C263.974 139.148 266.302 140.188 268.553 141.378C270.064 142.19 271.465 143.192 272.722 144.36C272.951 144.561 273.135 144.759 273.296 144.925C273.457 145.09 273.596 145.238 273.699 145.373L273.946 145.642C273.972 145.674 274.001 145.704 274.031 145.732C274.031 145.732 274.031 145.691 273.964 145.628L273.735 145.341C273.637 145.216 273.511 145.063 273.35 144.893C273.188 144.723 273.009 144.517 272.785 144.306C271.543 143.106 270.147 142.078 268.633 141.248C266.386 140.033 264.056 138.975 261.662 138.083C258.972 137.025 255.995 135.958 252.816 134.985C247.389 133.314 241.854 132.016 236.25 131.102C234.098 130.757 232.35 130.533 231.139 130.394L229.745 130.251L229.382 130.219C229.338 130.205 229.293 130.199 229.247 130.201Z" fill="#F5F5F5"/>
<path d="M117.585 106.852H117.769L118.311 106.762L120.382 106.404C122.176 106.099 124.794 105.686 128.036 105.296C136.479 104.247 145.006 104.031 153.492 104.651C163.432 105.431 172.273 107.412 178.599 108.964C181.768 109.753 184.319 110.439 186.081 110.923L188.112 111.474L188.641 111.613C188.701 111.633 188.763 111.647 188.825 111.654C188.768 111.626 188.708 111.605 188.646 111.591L188.126 111.429L186.108 110.833C184.351 110.322 181.804 109.609 178.639 108.802C172.309 107.211 163.463 105.215 153.501 104.417C145.001 103.793 136.46 104.032 128.009 105.13C124.763 105.543 122.153 105.982 120.356 106.314C119.459 106.475 118.764 106.623 118.293 106.713L117.755 106.825C117.698 106.828 117.641 106.837 117.585 106.852Z" fill="#F5F5F5"/>
<path d="M192.846 132.501C193.043 132.498 193.24 132.479 193.433 132.443C193.806 132.398 194.33 132.331 195.016 132.299C196.762 132.195 198.514 132.381 200.199 132.851C201.117 133.119 201.98 133.55 202.745 134.124C203.364 134.598 203.883 135.191 204.27 135.868C204.618 136.502 204.843 137.195 204.933 137.913C204.933 137.913 204.933 137.859 204.933 137.76C204.936 137.61 204.927 137.46 204.906 137.312C204.829 136.775 204.659 136.257 204.404 135.778C204.024 135.067 203.5 134.443 202.866 133.945C202.086 133.338 201.2 132.882 200.253 132.6C198.543 132.122 196.762 131.955 194.994 132.107C194.459 132.147 193.928 132.221 193.402 132.326C193.211 132.364 193.025 132.423 192.846 132.501V132.501Z" fill="#F5F5F5"/>
<path d="M159.979 138.585C159.979 138.652 166.498 139.092 174.545 139.571C182.593 140.051 189.121 140.387 189.125 140.324C189.129 140.262 182.611 139.818 174.559 139.338C166.507 138.858 159.983 138.522 159.979 138.585Z" fill="#F5F5F5"/>
<path d="M233.326 144.001C233.365 144.005 233.404 144.005 233.443 144.001L233.77 143.929C234.057 143.875 234.47 143.745 235.021 143.66C236.567 143.373 238.134 143.223 239.706 143.212C242.036 143.169 244.362 143.401 246.638 143.902C249.434 144.473 252.102 145.555 254.506 147.094C256.864 148.703 258.896 150.743 260.496 153.107C261.806 155.033 262.833 157.138 263.544 159.356C264.025 160.852 264.351 162.394 264.517 163.956C264.602 164.508 264.598 164.943 264.629 165.234L264.656 165.566C264.652 165.605 264.652 165.644 264.656 165.682C264.663 165.644 264.663 165.604 264.656 165.566V165.234C264.656 164.938 264.656 164.503 264.589 163.947C264.457 162.373 264.157 160.817 263.692 159.307C262.997 157.064 261.978 154.934 260.666 152.986C259.067 150.571 257.018 148.488 254.631 146.848C252.207 145.291 249.512 144.203 246.687 143.638C244.393 143.145 242.048 142.928 239.702 142.992C238.122 143.025 236.549 143.207 235.003 143.535C234.452 143.633 234.044 143.781 233.757 143.849L233.434 143.943L233.326 144.001Z" fill="#F5F5F5"/>
<path d="M253.962 176.033H231.637V180.086H253.962V176.033Z" fill="#92E3A9"/>
<path d="M233.823 180.114C233.7 178.777 233.7 177.431 233.823 176.093C233.947 177.431 233.947 178.777 233.823 180.114V180.114Z" fill="#263238"/>
<path d="M232.611 180.114C232.488 178.777 232.488 177.431 232.611 176.093C232.735 177.431 232.735 178.777 232.611 180.114V180.114Z" fill="#263238"/>
<path d="M236.505 180.114C236.381 178.777 236.381 177.431 236.505 176.093C236.628 177.431 236.628 178.777 236.505 180.114V180.114Z" fill="#263238"/>
<path d="M235.287 180.114C235.158 178.777 235.158 177.431 235.287 176.093C235.41 177.431 235.41 178.777 235.287 180.114V180.114Z" fill="#263238"/>
<path d="M239.19 180.114C239.062 178.777 239.062 177.431 239.19 176.093C239.313 177.431 239.313 178.777 239.19 180.114V180.114Z" fill="#263238"/>
<path d="M237.956 180.114C237.832 178.777 237.832 177.431 237.956 176.093C238.079 177.431 238.079 178.777 237.956 180.114V180.114Z" fill="#263238"/>
<path d="M241.873 180.114C241.749 178.777 241.749 177.431 241.873 176.093C241.996 177.431 241.996 178.777 241.873 180.114V180.114Z" fill="#263238"/>
<path d="M240.651 180.114C240.528 178.777 240.528 177.431 240.651 176.093C240.775 177.431 240.775 178.777 240.651 180.114V180.114Z" fill="#263238"/>
<path d="M244.554 180.114C244.43 178.777 244.43 177.431 244.554 176.093C244.677 177.431 244.677 178.777 244.554 180.114V180.114Z" fill="#263238"/>
<path d="M243.333 180.114C243.209 178.777 243.209 177.431 243.333 176.093C243.456 177.431 243.456 178.777 243.333 180.114V180.114Z" fill="#263238"/>
<path d="M247.237 180.114C247.114 178.777 247.114 177.431 247.237 176.093C247.361 177.431 247.361 178.777 247.237 180.114V180.114Z" fill="#263238"/>
<path d="M246.015 180.114C245.892 178.777 245.892 177.431 246.015 176.093C246.139 177.431 246.139 178.777 246.015 180.114V180.114Z" fill="#263238"/>
<path d="M249.919 180.114C249.795 178.777 249.795 177.431 249.919 176.093C250.042 177.431 250.042 178.777 249.919 180.114V180.114Z" fill="#263238"/>
<path d="M248.696 180.114C248.573 178.777 248.573 177.431 248.696 176.093C248.82 177.431 248.82 178.777 248.696 180.114V180.114Z" fill="#263238"/>
<path d="M252.6 180.114C252.477 178.777 252.477 177.431 252.6 176.093C252.724 177.431 252.724 178.777 252.6 180.114V180.114Z" fill="#263238"/>
<path d="M251.38 180.114C251.256 178.777 251.256 177.431 251.38 176.093C251.508 177.431 251.508 178.777 251.38 180.114V180.114Z" fill="#263238"/>
<path d="M253.96 176.033C253.96 176.083 248.928 176.125 242.719 176.125C236.511 176.125 231.479 176.083 231.479 176.033C231.479 175.983 236.511 175.94 242.719 175.94C248.928 175.94 253.96 175.979 253.96 176.033Z" fill="#263238"/>
<path d="M252.213 180.054H229.888V184.107H252.213V180.054Z" fill="#92E3A9"/>
<path d="M232.074 184.136C231.951 182.798 231.951 181.452 232.074 180.115C232.198 181.452 232.198 182.798 232.074 184.136V184.136Z" fill="#263238"/>
<path d="M230.852 184.136C230.729 182.798 230.729 181.452 230.852 180.115C230.976 181.452 230.976 182.798 230.852 184.136V184.136Z" fill="#263238"/>
<path d="M234.748 184.136C234.624 182.798 234.624 181.452 234.748 180.115C234.871 181.452 234.871 182.798 234.748 184.136V184.136Z" fill="#263238"/>
<path d="M233.536 184.136C233.412 182.798 233.412 181.452 233.536 180.115C233.659 181.452 233.659 182.798 233.536 184.136V184.136Z" fill="#263238"/>
<path d="M237.437 184.136C237.314 182.798 237.314 181.452 237.437 180.115C237.561 181.452 237.561 182.798 237.437 184.136V184.136Z" fill="#263238"/>
<path d="M236.217 184.136C236.093 182.798 236.093 181.452 236.217 180.115C236.34 181.452 236.34 182.798 236.217 184.136V184.136Z" fill="#263238"/>
<path d="M240.12 184.136C239.996 182.798 239.996 181.452 240.12 180.115C240.243 181.452 240.243 182.798 240.12 184.136V184.136Z" fill="#263238"/>
<path d="M238.897 184.136C238.774 182.798 238.774 181.452 238.897 180.115C239.026 181.452 239.026 182.798 238.897 184.136V184.136Z" fill="#263238"/>
<path d="M242.805 184.136C242.677 182.798 242.677 181.452 242.805 180.115C242.929 181.452 242.929 182.798 242.805 184.136V184.136Z" fill="#263238"/>
<path d="M241.584 184.136C241.46 182.798 241.46 181.452 241.584 180.115C241.707 181.452 241.707 182.798 241.584 184.136V184.136Z" fill="#263238"/>
<path d="M245.487 184.136C245.364 182.798 245.364 181.452 245.487 180.115C245.611 181.452 245.611 182.798 245.487 184.136V184.136Z" fill="#263238"/>
<path d="M244.266 184.136C244.143 182.798 244.143 181.452 244.266 180.115C244.39 181.452 244.39 182.798 244.266 184.136V184.136Z" fill="#263238"/>
<path d="M248.17 184.136C248.046 182.798 248.046 181.452 248.17 180.115C248.293 181.452 248.293 182.798 248.17 184.136V184.136Z" fill="#263238"/>
<path d="M246.949 184.136C246.826 182.798 246.826 181.452 246.949 180.115C247.073 181.452 247.073 182.798 246.949 184.136V184.136Z" fill="#263238"/>
<path d="M250.851 184.136C250.728 182.798 250.728 181.452 250.851 180.115C250.975 181.452 250.975 182.798 250.851 184.136V184.136Z" fill="#263238"/>
<path d="M249.63 184.136C249.506 182.798 249.506 181.452 249.63 180.115C249.753 181.452 249.753 182.798 249.63 184.136V184.136Z" fill="#263238"/>
<path d="M252.201 180.054C252.201 180.104 247.179 180.147 240.985 180.147C234.791 180.147 229.772 180.104 229.772 180.054C229.772 180.004 234.791 179.961 240.985 179.961C247.179 179.961 252.201 180.004 252.201 180.054Z" fill="#263238"/>
<path d="M250.777 184.136H228.452V188.189H250.777V184.136Z" fill="#92E3A9"/>
<path d="M230.639 188.218C230.515 186.88 230.515 185.534 230.639 184.196C230.762 185.534 230.762 186.88 230.639 188.218V188.218Z" fill="#263238"/>
<path d="M229.407 188.218C229.284 186.88 229.284 185.534 229.407 184.196C229.531 185.534 229.531 186.88 229.407 188.218V188.218Z" fill="#263238"/>
<path d="M233.323 188.218C233.2 186.88 233.2 185.534 233.323 184.196C233.447 185.534 233.447 186.88 233.323 188.218V188.218Z" fill="#263238"/>
<path d="M232.099 188.218C231.976 186.88 231.976 185.534 232.099 184.196C232.228 185.534 232.228 186.88 232.099 188.218V188.218Z" fill="#263238"/>
<path d="M236.004 188.218C235.88 186.88 235.88 185.534 236.004 184.196C236.132 185.534 236.132 186.88 236.004 188.218Z" fill="#263238"/>
<path d="M234.786 188.218C234.662 186.88 234.662 185.534 234.786 184.196C234.909 185.534 234.909 186.88 234.786 188.218V188.218Z" fill="#263238"/>
<path d="M238.688 188.218C238.565 186.88 238.565 185.534 238.688 184.196C238.812 185.534 238.812 186.88 238.688 188.218V188.218Z" fill="#263238"/>
<path d="M237.467 188.218C237.343 186.88 237.343 185.534 237.467 184.196C237.59 185.534 237.59 186.88 237.467 188.218V188.218Z" fill="#263238"/>
<path d="M241.37 188.218C241.246 186.88 241.246 185.534 241.37 184.196C241.493 185.534 241.493 186.88 241.37 188.218V188.218Z" fill="#263238"/>
<path d="M240.148 188.218C240.025 186.88 240.025 185.534 240.148 184.196C240.272 185.534 240.272 186.88 240.148 188.218V188.218Z" fill="#263238"/>
<path d="M244.053 188.218C243.929 186.88 243.929 185.534 244.053 184.196C244.176 185.534 244.176 186.88 244.053 188.218V188.218Z" fill="#263238"/>
<path d="M242.83 188.218C242.706 186.88 242.706 185.534 242.83 184.196C242.953 185.534 242.953 186.88 242.83 188.218V188.218Z" fill="#263238"/>
<path d="M246.734 188.218C246.611 186.88 246.611 185.534 246.734 184.196C246.858 185.534 246.858 186.88 246.734 188.218V188.218Z" fill="#263238"/>
<path d="M245.513 188.218C245.389 186.88 245.389 185.534 245.513 184.196C245.636 185.534 245.636 186.88 245.513 188.218V188.218Z" fill="#263238"/>
<path d="M249.418 188.218C249.294 186.88 249.294 185.534 249.418 184.196C249.541 185.534 249.541 186.88 249.418 188.218V188.218Z" fill="#263238"/>
<path d="M248.194 188.218C248.071 186.88 248.071 185.534 248.194 184.196C248.318 185.534 248.318 186.88 248.194 188.218V188.218Z" fill="#263238"/>
<path d="M250.777 184.136C250.777 184.189 245.755 184.228 239.565 184.228C233.374 184.228 228.338 184.189 228.338 184.136C228.338 184.082 233.356 184.043 239.554 184.043C245.751 184.043 250.777 184.079 250.777 184.136Z" fill="#263238"/>
<g opacity="0.3">
<path opacity="0.3" d="M232.92 180.093C236.305 180.868 239.788 181.121 243.249 180.845C246.672 180.617 250.134 180.115 253.578 180.154L232.92 180.093Z" fill="#252525"/>
</g>
<g opacity="0.3">
<path opacity="0.3" d="M228.727 184.189C232.111 184.963 235.595 185.215 239.056 184.937C242.482 184.709 245.941 184.207 249.385 184.25L228.727 184.189Z" fill="#252525"/>
</g>
<path d="M232.408 176.275C232.408 176.325 232.283 176.368 232.13 176.368C231.977 176.368 231.849 176.325 231.849 176.275C231.849 176.225 231.973 176.179 232.13 176.179C232.287 176.179 232.408 176.222 232.408 176.275Z" fill="white"/>
<path d="M235.511 176.286C235.09 176.377 234.658 176.408 234.229 176.378C233.799 176.408 233.367 176.377 232.946 176.286C233.367 176.192 233.799 176.161 234.229 176.193C234.658 176.161 235.09 176.192 235.511 176.286Z" fill="white"/>
<path d="M239.052 176.286C238.631 176.377 238.2 176.408 237.77 176.378C237.341 176.408 236.911 176.377 236.491 176.286C236.911 176.193 237.341 176.161 237.77 176.193C238.2 176.161 238.632 176.192 239.052 176.286Z" fill="white"/>
<path d="M378.084 166.252H354.067V170.615H378.084V166.252Z" fill="#92E3A9"/>
<path d="M356.422 170.644C356.289 169.206 356.289 167.758 356.422 166.32C356.555 167.758 356.555 169.206 356.422 170.644V170.644Z" fill="#263238"/>
<path d="M355.109 170.644C354.976 169.206 354.976 167.758 355.109 166.32C355.242 167.758 355.242 169.206 355.109 170.644V170.644Z" fill="#263238"/>
<path d="M359.307 170.644C359.174 169.206 359.174 167.758 359.307 166.32C359.44 167.758 359.44 169.206 359.307 170.644V170.644Z" fill="#263238"/>
<path d="M357.986 170.644C357.853 169.206 357.853 167.758 357.986 166.32C358.124 167.758 358.124 169.206 357.986 170.644V170.644Z" fill="#263238"/>
<path d="M362.196 170.644C362.058 169.206 362.058 167.758 362.196 166.32C362.329 167.758 362.329 169.206 362.196 170.644V170.644Z" fill="#263238"/>
<path d="M360.882 170.644C360.749 169.206 360.749 167.758 360.882 166.32C361.015 167.758 361.015 169.206 360.882 170.644V170.644Z" fill="#263238"/>
<path d="M365.081 170.644C364.948 169.206 364.948 167.758 365.081 166.32C365.214 167.758 365.214 169.206 365.081 170.644V170.644Z" fill="#263238"/>
<path d="M363.766 170.644C363.633 169.206 363.633 167.758 363.766 166.32C363.899 167.758 363.899 169.206 363.766 170.644V170.644Z" fill="#263238"/>
<path d="M367.959 170.644C367.826 169.206 367.826 167.758 367.959 166.32C368.092 167.758 368.092 169.206 367.959 170.644V170.644Z" fill="#263238"/>
<path d="M366.651 170.644C366.519 169.206 366.519 167.758 366.651 166.32C366.784 167.758 366.784 169.206 366.651 170.644V170.644Z" fill="#263238"/>
<path d="M370.852 170.644C370.719 169.206 370.719 167.758 370.852 166.32C370.985 167.758 370.985 169.206 370.852 170.644V170.644Z" fill="#263238"/>
<path d="M369.537 170.644C369.404 169.206 369.404 167.758 369.537 166.32C369.675 167.758 369.675 169.206 369.537 170.644V170.644Z" fill="#263238"/>
<path d="M373.74 170.644C373.607 169.206 373.607 167.758 373.74 166.32C373.873 167.758 373.873 169.206 373.74 170.644V170.644Z" fill="#263238"/>
<path d="M372.426 170.644C372.293 169.206 372.293 167.758 372.426 166.32C372.559 167.758 372.559 169.206 372.426 170.644V170.644Z" fill="#263238"/>
<path d="M376.625 170.644C376.492 169.206 376.492 167.758 376.625 166.32C376.758 167.758 376.758 169.206 376.625 170.644V170.644Z" fill="#263238"/>
<path d="M375.311 170.644C375.178 169.206 375.178 167.758 375.311 166.32C375.444 167.758 375.444 169.206 375.311 170.644V170.644Z" fill="#263238"/>
<path d="M378.088 166.27C378.088 166.327 372.685 166.37 366.021 166.37C359.357 166.37 353.957 166.327 353.957 166.27C353.957 166.213 359.357 166.17 366.021 166.17C372.685 166.17 378.088 166.199 378.088 166.27Z" fill="#263238"/>
<path d="M376.513 170.683H352.496V175.046H376.513V170.683Z" fill="#92E3A9"/>
<path d="M354.852 175.075C354.719 173.635 354.719 172.187 354.852 170.747C354.985 172.187 354.985 173.635 354.852 175.075V175.075Z" fill="#263238"/>
<path d="M353.537 175.075C353.404 173.635 353.404 172.187 353.537 170.747C353.67 172.187 353.67 173.635 353.537 175.075V175.075Z" fill="#263238"/>
<path d="M357.737 175.075C357.603 173.635 357.603 172.187 357.737 170.747C357.87 172.187 357.87 173.635 357.737 175.075V175.075Z" fill="#263238"/>
<path d="M356.422 175.075C356.289 173.635 356.289 172.187 356.422 170.747C356.555 172.187 356.555 173.635 356.422 175.075V175.075Z" fill="#263238"/>
<path d="M360.621 175.075C360.488 173.635 360.488 172.187 360.621 170.747C360.754 172.187 360.754 173.635 360.621 175.075V175.075Z" fill="#263238"/>
<path d="M359.307 175.075C359.174 173.635 359.174 172.187 359.307 170.747C359.44 172.187 359.44 173.635 359.307 175.075V175.075Z" fill="#263238"/>
<path d="M363.507 175.075C363.374 173.635 363.374 172.187 363.507 170.747C363.64 172.187 363.64 173.635 363.507 175.075V175.075Z" fill="#263238"/>
<path d="M362.196 175.075C362.058 173.635 362.058 172.186 362.196 170.747C362.329 172.187 362.329 173.635 362.196 175.075V175.075Z" fill="#263238"/>
<path d="M366.395 175.075C366.262 173.635 366.262 172.187 366.395 170.747C366.528 172.187 366.528 173.635 366.395 175.075V175.075Z" fill="#263238"/>
<path d="M365.081 175.075C364.948 173.635 364.948 172.187 365.081 170.747C365.214 172.187 365.214 173.635 365.081 175.075V175.075Z" fill="#263238"/>
<path d="M369.28 175.075C369.147 173.635 369.147 172.187 369.28 170.747C369.414 172.187 369.414 173.635 369.28 175.075V175.075Z" fill="#263238"/>
<path d="M367.959 175.075C367.826 173.635 367.826 172.187 367.959 170.747C368.092 172.187 368.092 173.635 367.959 175.075V175.075Z" fill="#263238"/>
<path d="M372.164 175.075C372.031 173.635 372.031 172.187 372.164 170.747C372.297 172.187 372.297 173.635 372.164 175.075V175.075Z" fill="#263238"/>
<path d="M370.852 175.075C370.719 173.635 370.719 172.187 370.852 170.747C370.985 172.187 370.985 173.635 370.852 175.075V175.075Z" fill="#263238"/>
<path d="M375.05 175.075C374.917 173.635 374.917 172.187 375.05 170.747C375.183 172.187 375.183 173.635 375.05 175.075V175.075Z" fill="#263238"/>
<path d="M373.74 175.075C373.607 173.635 373.607 172.187 373.74 170.747C373.873 172.187 373.873 173.635 373.74 175.075V175.075Z" fill="#263238"/>
<path d="M376.507 170.683C376.507 170.74 371.108 170.783 364.444 170.783C357.78 170.783 352.38 170.74 352.38 170.683C352.38 170.626 357.78 170.583 364.444 170.583C371.108 170.583 376.507 170.63 376.507 170.683Z" fill="#263238"/>
<path d="M378.477 175.075H354.46V179.438H378.477V175.075Z" fill="#92E3A9"/>
<path d="M356.814 179.466C356.681 178.027 356.681 176.578 356.814 175.139C356.947 176.578 356.947 178.027 356.814 179.466V179.466Z" fill="#263238"/>
<path d="M355.493 179.466C355.36 178.027 355.36 176.578 355.493 175.139C355.626 176.578 355.626 178.027 355.493 179.466V179.466Z" fill="#263238"/>
<path d="M359.699 179.466C359.566 178.027 359.566 176.578 359.699 175.139C359.832 176.578 359.832 178.027 359.699 179.466V179.466Z" fill="#263238"/>
<path d="M358.384 179.466C358.251 178.027 358.251 176.578 358.384 175.139C358.517 176.578 358.517 178.027 358.384 179.466V179.466Z" fill="#263238"/>
<path d="M362.584 179.466C362.451 178.027 362.451 176.578 362.584 175.139C362.717 176.578 362.717 178.027 362.584 179.466V179.466Z" fill="#263238"/>
<path d="M361.271 179.466C361.138 178.027 361.138 176.578 361.271 175.139C361.404 176.578 361.404 178.027 361.271 179.466V179.466Z" fill="#263238"/>
<path d="M365.466 179.466C365.333 178.027 365.333 176.578 365.466 175.139C365.604 176.578 365.604 178.027 365.466 179.466Z" fill="#263238"/>
<path d="M364.158 179.466C364.025 178.027 364.025 176.578 364.158 175.139C364.291 176.578 364.291 178.027 364.158 179.466V179.466Z" fill="#263238"/>
<path d="M368.357 179.466C368.224 178.027 368.224 176.578 368.357 175.139C368.49 176.578 368.49 178.027 368.357 179.466V179.466Z" fill="#263238"/>
<path d="M367.044 179.466C366.911 178.027 366.911 176.578 367.044 175.139C367.177 176.578 367.177 178.027 367.044 179.466V179.466Z" fill="#263238"/>
<path d="M371.242 179.466C371.109 178.027 371.109 176.578 371.242 175.139C371.375 176.578 371.375 178.027 371.242 179.466V179.466Z" fill="#263238"/>
<path d="M369.929 179.466C369.796 178.027 369.796 176.578 369.929 175.139C370.062 176.578 370.062 178.027 369.929 179.466V179.466Z" fill="#263238"/>
<path d="M374.127 179.466C373.994 178.027 373.994 176.578 374.127 175.139C374.26 176.578 374.26 178.027 374.127 179.466V179.466Z" fill="#263238"/>
<path d="M372.813 179.466C372.68 178.027 372.68 176.578 372.813 175.139C372.946 176.578 372.946 178.027 372.813 179.466V179.466Z" fill="#263238"/>
<path d="M377.012 179.466C376.879 178.027 376.879 176.578 377.012 175.139C377.15 176.578 377.15 178.027 377.012 179.466Z" fill="#263238"/>
<path d="M375.702 179.466C375.569 178.027 375.569 176.578 375.702 175.139C375.835 176.578 375.835 178.027 375.702 179.466V179.466Z" fill="#263238"/>
<path d="M378.477 175.075C378.477 175.132 373.063 175.174 366.384 175.174C359.706 175.174 354.274 175.132 354.274 175.075C354.274 175.018 359.688 174.975 366.384 174.975C373.081 174.975 378.477 175.021 378.477 175.075Z" fill="#263238"/>
<path d="M376.592 179.402H352.575V183.765H376.592V179.402Z" fill="#92E3A9"/>
<path d="M354.93 183.794C354.797 182.354 354.797 180.906 354.93 179.466C355.063 180.906 355.063 182.354 354.93 183.794V183.794Z" fill="#263238"/>
<path d="M353.615 183.794C353.482 182.354 353.482 180.906 353.615 179.466C353.748 180.906 353.748 182.354 353.615 183.794V183.794Z" fill="#263238"/>
<path d="M357.816 183.794C357.683 182.354 357.683 180.906 357.816 179.466C357.949 180.906 357.949 182.354 357.816 183.794V183.794Z" fill="#263238"/>
<path d="M356.5 183.794C356.367 182.354 356.367 180.906 356.5 179.466C356.638 180.906 356.638 182.355 356.5 183.794Z" fill="#263238"/>
<path d="M360.704 183.794C360.571 182.354 360.571 180.906 360.704 179.466C360.837 180.906 360.837 182.354 360.704 183.794V183.794Z" fill="#263238"/>
<path d="M359.39 183.794C359.257 182.354 359.257 180.906 359.39 179.466C359.523 180.906 359.523 182.354 359.39 183.794V183.794Z" fill="#263238"/>
<path d="M363.589 183.794C363.456 182.354 363.456 180.906 363.589 179.466C363.722 180.906 363.722 182.354 363.589 183.794V183.794Z" fill="#263238"/>
<path d="M362.26 183.794C362.127 182.354 362.127 180.906 362.26 179.466C362.393 180.906 362.393 182.354 362.26 183.794V183.794Z" fill="#263238"/>
<path d="M366.474 183.794C366.341 182.354 366.341 180.906 366.474 179.466C366.607 180.906 366.607 182.354 366.474 183.794V183.794Z" fill="#263238"/>
<path d="M365.16 183.794C365.027 182.354 365.027 180.906 365.16 179.466C365.293 180.906 365.293 182.354 365.16 183.794V183.794Z" fill="#263238"/>
<path d="M369.359 183.794C369.226 182.354 369.226 180.906 369.359 179.466C369.492 180.906 369.492 182.354 369.359 183.794V183.794Z" fill="#263238"/>
<path d="M368.049 183.794C367.911 182.355 367.911 180.906 368.049 179.466C368.182 180.906 368.182 182.354 368.049 183.794V183.794Z" fill="#263238"/>
<path d="M372.233 183.794C372.1 182.354 372.1 180.906 372.233 179.466C372.366 180.906 372.366 182.354 372.233 183.794V183.794Z" fill="#263238"/>
<path d="M370.933 183.794C370.8 182.354 370.8 180.906 370.933 179.466C371.066 180.906 371.066 182.354 370.933 183.794V183.794Z" fill="#263238"/>
<path d="M375.132 183.794C374.999 182.354 374.999 180.906 375.132 179.466C375.265 180.906 375.265 182.354 375.132 183.794V183.794Z" fill="#263238"/>
<path d="M373.818 183.794C373.685 182.354 373.685 180.906 373.818 179.466C373.951 180.906 373.951 182.354 373.818 183.794V183.794Z" fill="#263238"/>
<path d="M376.596 179.402C376.596 179.459 371.193 179.502 364.529 179.502C357.864 179.502 352.465 179.459 352.465 179.402C352.465 179.345 357.864 179.302 364.529 179.302C371.193 179.302 376.596 179.349 376.596 179.402Z" fill="#263238"/>
<path d="M378.999 183.826H354.982V188.189H378.999V183.826Z" fill="#92E3A9"/>
<path d="M357.338 188.218C357.205 186.778 357.205 185.329 357.338 183.89C357.471 185.329 357.471 186.778 357.338 188.218V188.218Z" fill="#263238"/>
<path d="M356.023 188.218C355.89 186.778 355.89 185.329 356.023 183.89C356.156 185.329 356.156 186.778 356.023 188.218V188.218Z" fill="#263238"/>
<path d="M360.223 188.218C360.09 186.778 360.09 185.329 360.223 183.89C360.356 185.329 360.356 186.778 360.223 188.218V188.218Z" fill="#263238"/>
<path d="M358.908 188.218C358.775 186.778 358.775 185.329 358.908 183.89C359.041 185.329 359.041 186.778 358.908 188.218V188.218Z" fill="#263238"/>
<path d="M363.109 188.218C362.976 186.778 362.976 185.329 363.109 183.89C363.242 185.329 363.242 186.778 363.109 188.218V188.218Z" fill="#263238"/>
<path d="M361.796 188.218C361.658 186.778 361.658 185.329 361.796 183.89C361.929 185.329 361.929 186.778 361.796 188.218V188.218Z" fill="#263238"/>
<path d="M365.996 188.218C365.863 186.778 365.863 185.329 365.996 183.89C366.129 185.329 366.129 186.778 365.996 188.218V188.218Z" fill="#263238"/>
<path d="M364.682 188.218C364.549 186.778 364.549 185.329 364.682 183.89C364.815 185.329 364.815 186.778 364.682 188.218V188.218Z" fill="#263238"/>
<path d="M368.88 188.218C368.747 186.778 368.747 185.329 368.88 183.89C369.013 185.329 369.013 186.778 368.88 188.218V188.218Z" fill="#263238"/>
<path d="M367.568 188.218C367.435 186.778 367.435 185.329 367.568 183.89C367.701 185.329 367.701 186.778 367.568 188.218V188.218Z" fill="#263238"/>
<path d="M371.766 188.218C371.633 186.778 371.633 185.329 371.766 183.89C371.899 185.329 371.899 186.778 371.766 188.218V188.218Z" fill="#263238"/>
<path d="M370.452 188.218C370.319 186.778 370.319 185.329 370.452 183.89C370.585 185.329 370.585 186.778 370.452 188.218V188.218Z" fill="#263238"/>
<path d="M374.651 188.218C374.518 186.778 374.518 185.329 374.651 183.89C374.784 185.329 374.784 186.778 374.651 188.218V188.218Z" fill="#263238"/>
<path d="M373.341 188.218C373.208 186.778 373.208 185.329 373.341 183.89C373.474 185.329 373.474 186.778 373.341 188.218V188.218Z" fill="#263238"/>
<path d="M377.54 188.218C377.407 186.778 377.407 185.329 377.54 183.89C377.673 185.329 377.673 186.778 377.54 188.218V188.218Z" fill="#263238"/>
<path d="M376.226 188.218C376.093 186.778 376.093 185.329 376.226 183.89C376.359 185.329 376.359 186.778 376.226 188.218V188.218Z" fill="#263238"/>
<path d="M379 183.826C379 183.883 373.601 183.926 366.937 183.926C360.273 183.926 354.873 183.883 354.873 183.826C354.873 183.769 360.273 183.726 366.937 183.726C373.601 183.726 379 183.772 379 183.826Z" fill="#263238"/>
<g opacity="0.3">
<path opacity="0.3" d="M354.46 175.075C358.095 175.909 361.837 176.183 365.555 175.887C369.241 175.641 372.963 175.1 376.657 175.142L354.46 175.075Z" fill="#252525"/>
</g>
<g opacity="0.3">
<path opacity="0.3" d="M354.678 170.733C358.313 171.566 362.055 171.839 365.773 171.541C369.459 171.296 373.181 170.754 376.875 170.797L354.678 170.733Z" fill="#252525"/>
</g>
<g opacity="0.3">
<path opacity="0.3" d="M355.849 179.448C359.484 180.282 363.226 180.554 366.944 180.257C370.63 180.011 374.352 179.47 378.046 179.516L355.849 179.448Z" fill="#252525"/>
</g>
<g opacity="0.3">
<path opacity="0.3" d="M354.897 183.801C358.533 184.631 362.275 184.903 365.992 184.606C369.679 184.364 373.401 183.819 377.094 183.865L354.897 183.801Z" fill="#252525"/>
</g>
<path d="M354.509 169.237C354.376 168.446 354.376 167.638 354.509 166.847C354.642 167.638 354.642 168.446 354.509 169.237V169.237Z" fill="white"/>
<path d="M352.998 173.896C352.865 173.047 352.865 172.183 352.998 171.335C353.131 172.183 353.131 173.047 352.998 173.896Z" fill="white"/>
<path d="M355.136 178.38C355.003 177.628 355.003 176.859 355.136 176.108C355.269 176.859 355.269 177.628 355.136 178.38V178.38Z" fill="white"/>
<path d="M352.936 182.519C352.803 181.846 352.803 181.154 352.936 180.481C353.069 181.154 353.069 181.846 352.936 182.519V182.519Z" fill="white"/>
<path d="M361.734 171.043C361.734 171.096 359.953 171.142 357.773 171.142C355.593 171.142 353.812 171.096 353.812 171.043C355.13 170.942 356.452 170.909 357.773 170.943C359.094 170.909 360.416 170.942 361.734 171.043V171.043Z" fill="white"/>
<path d="M364.297 166.847C362.969 166.948 361.636 166.981 360.305 166.947C358.974 166.981 357.643 166.948 356.315 166.847C356.315 166.793 358.096 166.747 360.305 166.747C362.513 166.747 364.297 166.793 364.297 166.847Z" fill="white"/>
<path d="M368.14 166.907C367.271 167.04 366.387 167.04 365.519 166.907C366.387 166.774 367.271 166.774 368.14 166.907Z" fill="white"/>
<path d="M269.971 166.986L279.587 188.218H284.228L284.891 186.597L285.717 188.218H288.763L288.406 175.826L288.257 168.503L269.971 166.986Z" fill="#92E3A9"/>
<path opacity="0.3" d="M269.971 166.986L279.587 188.218H284.228L284.891 186.597L285.717 188.218H288.763L288.406 175.826L288.257 168.503L269.971 166.986Z" fill="#252525"/>
<path d="M312.053 169.262L321.431 188.218H326.072L326.738 186.736L327.561 188.218H330.606L330.253 176.873L330.1 170.17L312.053 169.262Z" fill="#92E3A9"/>
<path opacity="0.3" d="M312.053 169.262L321.431 188.218H326.072L326.738 186.736L327.561 188.218H330.606L330.253 176.873L330.1 170.17L312.053 169.262Z" fill="#252525"/>
<path d="M365.39 113.396L365.479 113.424L365.728 113.535C366.041 113.69 366.334 113.886 366.597 114.115C367.089 114.539 367.491 115.055 367.781 115.636C368.071 116.216 368.242 116.848 368.286 117.495C368.341 118.398 368.113 119.296 367.634 120.063C367.087 120.948 366.278 121.639 365.319 122.04C364.794 122.274 364.226 122.394 363.652 122.394C363.077 122.394 362.51 122.274 361.985 122.04C361.421 121.775 360.978 121.307 360.745 120.729C360.618 120.434 360.567 120.111 360.596 119.79C360.626 119.47 360.736 119.162 360.916 118.895C361.108 118.639 361.354 118.428 361.637 118.277C361.919 118.126 362.231 118.039 362.551 118.022C363.172 117.998 363.78 118.199 364.264 118.589C364.713 118.951 365.071 119.413 365.31 119.938C365.548 120.463 365.661 121.036 365.639 121.613C365.607 122.654 365.232 123.656 364.571 124.462C364.277 124.827 363.927 125.144 363.534 125.399C363.167 125.623 362.774 125.8 362.362 125.926C361.651 126.131 360.906 126.187 360.172 126.09C359.621 126.021 359.082 125.873 358.573 125.652C358.252 125.512 357.946 125.341 357.657 125.142L357.44 124.979C357.394 124.943 357.369 124.922 357.372 124.918C357.759 125.179 358.171 125.402 358.601 125.584C359.107 125.793 359.639 125.928 360.183 125.987C360.9 126.07 361.627 126.007 362.32 125.801C362.718 125.676 363.099 125.5 363.452 125.278C363.83 125.029 364.166 124.721 364.446 124.366C365.08 123.583 365.439 122.613 365.465 121.606C365.485 121.057 365.377 120.512 365.149 120.012C364.921 119.513 364.579 119.075 364.15 118.731C363.701 118.368 363.135 118.18 362.558 118.204C362.266 118.22 361.981 118.299 361.723 118.437C361.465 118.574 361.239 118.765 361.062 118.998C360.902 119.241 360.804 119.52 360.778 119.809C360.752 120.099 360.798 120.391 360.913 120.658C361.129 121.193 361.538 121.627 362.06 121.873C362.564 122.097 363.11 122.213 363.662 122.213C364.215 122.213 364.761 122.097 365.265 121.873C366.194 121.488 366.98 120.823 367.513 119.971C367.987 119.229 368.215 118.356 368.165 117.478C368.127 116.756 367.924 116.053 367.573 115.422C367.31 114.943 366.968 114.51 366.562 114.144C366.206 113.844 365.812 113.593 365.39 113.396V113.396Z" fill="#92E3A9"/>
<path d="M360.799 132.604C362.196 164.108 335.785 179.826 305.888 179.826C275.99 179.826 251.749 159.357 251.749 134.107C251.749 108.858 275.987 88.3885 305.888 88.3885C335.789 88.3885 359.681 107.38 360.799 132.604Z" fill="#92E3A9"/>
<path opacity="0.3" d="M302.114 99.665C302.114 99.665 305.705 98.5253 309.063 102.322C312.422 106.119 317.095 112.587 317.095 112.587C316.675 114.692 315.446 116.334 313.063 117.31L302.114 99.665Z" fill="#252525"/>
<path d="M270.294 166.861C280.531 166.861 288.83 160.502 288.83 152.657C288.83 144.812 280.531 138.453 270.294 138.453C260.057 138.453 251.759 144.812 251.759 152.657C251.759 160.502 260.057 166.861 270.294 166.861Z" fill="#92E3A9"/>
<path d="M287.581 114.685C287.581 114.685 298.444 97.8307 303.42 99.6579C308.396 101.485 313.065 117.324 313.065 117.324" fill="#92E3A9"/>
<path d="M275.296 110.82L274.79 106.258C274.79 106.258 267.987 103.408 261.896 102.023C255.806 100.637 254.605 102.023 254.605 102.023L264.24 115.526L275.296 110.82Z" fill="#92E3A9"/>
<path opacity="0.3" d="M289.796 94.6573L293.4 96.7943C293.4 96.7943 310.853 92.164 324.267 96.7943L319.348 92.6057C319.348 92.6057 303.088 89.1152 289.796 94.6573Z" fill="#252525"/>
<path opacity="0.3" d="M270.294 166.861C280.531 166.861 288.83 160.502 288.83 152.657C288.83 144.812 280.531 138.453 270.294 138.453C260.057 138.453 251.759 144.812 251.759 152.657C251.759 160.502 260.057 166.861 270.294 166.861Z" fill="#252525"/>
<path d="M265.582 166.861C275.172 166.861 282.946 160.502 282.946 152.657C282.946 144.812 275.172 138.453 265.582 138.453C255.993 138.453 248.219 144.812 248.219 152.657C248.219 160.502 255.993 166.861 265.582 166.861Z" fill="#92E3A9"/>
<path opacity="0.3" d="M259.581 145.996H258.245C257.588 145.996 257.056 146.529 257.056 147.186V158.135C257.056 158.792 257.588 159.325 258.245 159.325H259.581C260.238 159.325 260.771 158.792 260.771 158.135V147.186C260.771 146.529 260.238 145.996 259.581 145.996Z" fill="#252525"/>
<path opacity="0.3" d="M269.557 145.996H268.221C267.564 145.996 267.031 146.529 267.031 147.186V158.135C267.031 158.792 267.564 159.325 268.221 159.325H269.557C270.214 159.325 270.746 158.792 270.746 158.135V147.186C270.746 146.529 270.214 145.996 269.557 145.996Z" fill="#252525"/>
<path opacity="0.3" d="M274.241 111.269C275.805 110.386 276.646 109.068 276.054 106.896C276.054 106.896 267.987 103.416 261.896 102.023C255.806 100.63 254.605 102.023 254.605 102.023L264.24 115.526L274.241 111.269Z" fill="#252525"/>
<path d="M274.789 111.64C274.789 111.64 274.337 111.33 273.575 110.821C269.977 108.423 259.477 101.56 256.834 101.485C253.18 101.382 253.176 104.53 253.18 106.97C253.18 108.698 254.605 123.711 254.605 123.711" fill="#92E3A9"/>
<path d="M313.063 117.324C313.045 117.292 313.032 117.257 313.024 117.221C312.995 117.143 312.96 117.039 312.917 116.911L312.518 115.718C312.162 114.685 311.645 113.193 310.929 111.376C310.108 109.244 309.157 107.165 308.08 105.15C307.452 103.96 306.714 102.83 305.875 101.777C305.44 101.22 304.933 100.722 304.369 100.295C303.817 99.83 303.11 99.5896 302.388 99.6223C301.669 99.7129 300.977 99.9557 300.358 100.335C299.742 100.688 299.156 101.091 298.606 101.538C297.566 102.395 296.586 103.321 295.671 104.31C294.118 105.985 292.651 107.739 291.276 109.563C290.09 111.116 289.178 112.413 288.551 113.299L287.838 114.332L287.653 114.599C287.633 114.632 287.609 114.662 287.582 114.689L287.635 114.589L287.81 114.311C287.963 114.069 288.195 113.713 288.497 113.26C289.106 112.352 290.004 111.048 291.176 109.485C292.541 107.645 294.002 105.878 295.553 104.192C296.469 103.194 297.453 102.261 298.499 101.4C299.058 100.943 299.654 100.532 300.28 100.171C300.924 99.7872 301.643 99.5444 302.388 99.4584C302.772 99.4218 303.159 99.4767 303.517 99.6187C303.863 99.7603 304.19 99.9445 304.49 100.167C305.066 100.604 305.584 101.113 306.032 101.681C306.873 102.746 307.614 103.887 308.244 105.09C309.316 107.115 310.258 109.206 311.065 111.351C311.777 113.175 312.265 114.674 312.596 115.718C312.764 116.238 312.885 116.644 312.952 116.922C312.988 117.05 313.017 117.157 313.041 117.235C313.052 117.264 313.059 117.294 313.063 117.324Z" fill="#263238"/>
<path d="M319.347 92.6093L319.436 92.6734L319.685 92.8764L320.633 93.6671L324.095 96.6055L324.326 96.8014L324.034 96.7195C319.378 95.4067 314.568 94.7203 309.73 94.6786C304.259 94.6226 298.808 95.3556 293.546 96.8549H293.524H293.503L290.76 95.2485L290.048 94.814L289.866 94.7C289.844 94.6881 289.824 94.6738 289.806 94.6573L289.873 94.6858L290.066 94.789L290.803 95.1951L293.57 96.7587H293.524C295.792 96.0875 298.102 95.564 300.438 95.1915C301.819 94.9636 303.287 94.7962 304.865 94.6608C306.443 94.5255 308.07 94.4721 309.741 94.5041C312.407 94.5301 315.068 94.7527 317.701 95.1702C319.855 95.5133 321.985 95.9891 324.08 96.5949L324.02 96.7088L320.586 93.7241L319.66 92.9049L319.425 92.6876C319.396 92.665 319.37 92.6387 319.347 92.6093V92.6093Z" fill="#263238"/>
<g opacity="0.2">
<path opacity="0.2" d="M299.268 139.418C299.186 139.927 298.663 140.308 297.919 140.565C297.02 140.844 296.084 140.983 295.144 140.974C294.203 140.999 293.263 140.879 292.359 140.618C291.611 140.38 291.08 140.009 290.987 139.503C290.895 138.998 291.276 138.456 292.02 138.018C292.975 137.529 294.03 137.268 295.102 137.256C296.175 137.244 297.235 137.482 298.2 137.95C298.955 138.378 299.35 138.916 299.268 139.418Z" fill="white"/>
</g>
<path d="M275.94 141.256C275.903 141.24 275.869 141.22 275.837 141.195L275.552 141.003L275.085 140.689C274.896 140.575 274.672 140.458 274.419 140.315C272.982 139.56 271.435 139.035 269.835 138.759C268.731 138.571 267.614 138.467 266.494 138.445C265.208 138.438 263.923 138.532 262.651 138.727C259.729 139.157 256.942 140.242 254.498 141.9C253.871 142.345 253.276 142.833 252.717 143.361C252.172 143.876 251.667 144.432 251.207 145.024C250.337 146.144 249.636 147.386 249.127 148.71C248.314 150.982 248.156 153.437 248.671 155.795C248.883 156.693 249.198 157.564 249.608 158.391C249.932 159.009 250.312 159.596 250.744 160.144L251.239 160.728L251.638 161.12L251.88 161.362C251.934 161.419 251.962 161.447 251.959 161.451C251.926 161.43 251.896 161.405 251.87 161.376L251.61 161.145L251.197 160.763L250.691 160.19C250.245 159.646 249.851 159.06 249.515 158.441C249.092 157.61 248.767 156.733 248.547 155.827C248.004 153.443 248.15 150.954 248.967 148.65C249.215 147.993 249.513 147.356 249.857 146.744C250.212 146.104 250.615 145.492 251.065 144.914C251.531 144.314 252.04 143.75 252.589 143.225C253.159 142.691 253.766 142.197 254.406 141.747C256.872 140.072 259.689 138.981 262.64 138.559C263.92 138.365 265.214 138.276 266.509 138.292C267.636 138.32 268.76 138.432 269.871 138.627C271.477 138.925 273.025 139.48 274.455 140.269C274.704 140.419 274.929 140.543 275.117 140.661L275.573 140.992L275.851 141.199C275.912 141.227 275.944 141.252 275.94 141.256Z" fill="#263238"/>
<path d="M260.663 147.243C260.695 147.43 260.71 147.62 260.706 147.809C260.706 148.208 260.745 148.728 260.77 149.359C260.827 150.662 260.934 152.468 260.98 154.463C260.98 154.965 260.98 155.453 260.98 155.923C260.989 156.381 260.956 156.839 260.881 157.291C260.83 157.683 260.69 158.059 260.471 158.388C260.253 158.718 259.961 158.993 259.62 159.193C259.38 159.314 259.112 159.371 258.844 159.357C258.575 159.344 258.314 159.26 258.088 159.114C257.968 159.035 257.865 158.932 257.785 158.812C257.755 158.772 257.732 158.727 257.718 158.68C257.834 158.825 257.972 158.951 258.127 159.054C258.344 159.176 258.588 159.243 258.837 159.247C259.085 159.252 259.331 159.194 259.552 159.079C259.868 158.881 260.136 158.615 260.336 158.3C260.536 157.985 260.662 157.629 260.706 157.259C260.773 156.817 260.802 156.37 260.792 155.923C260.792 155.453 260.792 154.965 260.774 154.47C260.727 152.475 260.638 150.669 260.617 149.362C260.617 148.707 260.617 148.176 260.617 147.809C260.619 147.62 260.635 147.43 260.663 147.243Z" fill="#263238"/>
<path d="M270.513 147.243C270.539 147.431 270.553 147.62 270.552 147.809C270.552 148.208 270.591 148.728 270.616 149.359C270.673 150.662 270.78 152.468 270.83 154.463C270.83 154.965 270.83 155.453 270.83 155.923C270.835 156.381 270.801 156.839 270.726 157.291C270.676 157.683 270.536 158.059 270.318 158.389C270.099 158.719 269.807 158.994 269.465 159.193C269.225 159.314 268.958 159.371 268.689 159.357C268.421 159.343 268.16 159.26 267.934 159.114C267.815 159.034 267.712 158.931 267.631 158.812C267.578 158.73 267.56 158.68 267.567 158.68C267.681 158.826 267.818 158.952 267.973 159.054C268.19 159.176 268.433 159.243 268.682 159.247C268.931 159.252 269.177 159.194 269.398 159.079C269.714 158.881 269.982 158.615 270.181 158.3C270.381 157.985 270.508 157.629 270.552 157.259C270.62 156.817 270.65 156.37 270.641 155.923C270.641 155.453 270.641 154.965 270.623 154.47C270.573 152.475 270.488 150.669 270.466 149.362C270.466 148.707 270.466 148.176 270.466 147.809C270.464 147.62 270.479 147.43 270.513 147.243V147.243Z" fill="#263238"/>
<path d="M282.739 155.752C282.719 155.836 282.693 155.918 282.661 155.998C282.6 156.155 282.532 156.393 282.397 156.682C282.045 157.514 281.609 158.309 281.097 159.054C280.339 160.161 279.453 161.174 278.458 162.074C277.869 162.604 277.248 163.098 276.599 163.552C275.897 164.033 275.164 164.464 274.405 164.845C272.938 165.596 271.382 166.159 269.774 166.519C268.462 166.798 267.123 166.932 265.781 166.922C264.642 166.922 263.719 166.851 263.085 166.808L262.352 166.747C262.266 166.746 262.182 166.735 262.099 166.715C262.184 166.707 262.27 166.707 262.355 166.715L263.089 166.737C263.723 166.762 264.645 166.804 265.781 166.794C267.112 166.787 268.439 166.64 269.739 166.356C271.325 165.988 272.859 165.427 274.308 164.685C275.062 164.308 275.789 163.881 276.485 163.406C277.128 162.957 277.745 162.472 278.333 161.953C279.324 161.066 280.212 160.07 280.98 158.983C281.499 158.248 281.952 157.469 282.333 156.653C282.475 156.372 282.554 156.137 282.629 155.984C282.656 155.902 282.693 155.825 282.739 155.752V155.752Z" fill="#263238"/>
<path d="M260.45 146.848C260.378 146.723 260.296 146.604 260.205 146.492C260.075 146.35 259.918 146.236 259.743 146.156C259.568 146.076 259.378 146.033 259.186 146.029C258.902 146.026 258.622 146.085 258.363 146.202C258.104 146.318 257.873 146.488 257.686 146.702C257.462 146.95 257.305 147.252 257.231 147.578C257.151 147.934 257.115 148.299 257.124 148.664C257.124 150.196 257.142 151.589 257.124 152.582C257.124 153.052 257.124 153.451 257.124 153.772C257.129 153.917 257.119 154.063 257.095 154.206C257.063 154.064 257.049 153.918 257.052 153.772C257.052 153.451 257.028 153.06 257.01 152.582C256.985 151.578 256.956 150.189 256.946 148.664C256.937 148.284 256.975 147.903 257.06 147.532C257.147 147.179 257.321 146.853 257.565 146.584C257.771 146.357 258.025 146.177 258.308 146.059C258.591 145.941 258.897 145.887 259.204 145.9C259.41 145.911 259.612 145.965 259.796 146.059C259.98 146.153 260.143 146.284 260.272 146.445C260.34 146.532 260.395 146.628 260.436 146.73C260.447 146.805 260.458 146.844 260.45 146.848Z" fill="white"/>
<path d="M266.974 147.667C267.024 147.667 267.067 149.544 267.067 151.859C267.067 154.174 267.024 156.055 266.974 156.055C266.925 156.055 266.882 154.178 266.882 151.859C266.882 149.54 266.925 147.667 266.974 147.667Z" fill="white"/>
<path d="M263.986 139.582C263.915 139.598 263.842 139.604 263.769 139.6C263.623 139.6 263.413 139.6 263.142 139.6C262.375 139.628 261.611 139.711 260.856 139.849C257.981 140.384 255.323 141.74 253.203 143.753C251.082 145.766 249.59 148.35 248.906 151.193C248.835 151.453 248.803 151.663 248.767 151.802C248.755 151.874 248.734 151.945 248.707 152.012C248.704 151.939 248.711 151.866 248.728 151.795C248.753 151.653 248.774 151.439 248.835 151.175C248.99 150.418 249.21 149.676 249.49 148.956C250.406 146.558 251.936 144.442 253.927 142.821C255.918 141.2 258.3 140.131 260.834 139.721C261.596 139.591 262.367 139.527 263.139 139.528C263.413 139.528 263.627 139.546 263.769 139.55C263.842 139.554 263.915 139.564 263.986 139.582V139.582Z" fill="white"/>
<path d="M254.674 121.438C254.662 121.509 254.641 121.577 254.609 121.641L254.389 122.204C254.289 122.446 254.171 122.745 254.032 123.098C253.893 123.451 253.751 123.846 253.616 124.295C253.48 124.744 253.309 125.228 253.167 125.762C253.024 126.296 252.878 126.866 252.732 127.468C252.137 130.093 251.857 132.78 251.899 135.472C251.92 136.091 251.927 136.683 251.974 137.231C252.02 137.78 252.056 138.3 252.109 138.759C252.162 139.219 252.219 139.646 252.269 140.016C252.319 140.387 252.373 140.704 252.419 140.96C252.465 141.217 252.494 141.402 252.519 141.559C252.535 141.627 252.543 141.698 252.54 141.769C252.513 141.704 252.494 141.635 252.483 141.566L252.348 140.974C252.291 140.718 252.223 140.401 252.166 140.034C252.109 139.667 252.027 139.243 251.977 138.777C251.927 138.31 251.856 137.797 251.821 137.242C251.785 136.686 251.753 136.098 251.728 135.461C251.675 132.764 251.962 130.072 252.583 127.447C252.736 126.841 252.871 126.268 253.039 125.737C253.206 125.207 253.352 124.715 253.509 124.27C253.666 123.825 253.819 123.429 253.95 123.08C254.082 122.731 254.214 122.432 254.307 122.193C254.399 121.955 254.492 121.787 254.56 121.645C254.589 121.571 254.627 121.502 254.674 121.438V121.438Z" fill="white"/>
<path d="M255.207 102.917C255.207 102.917 255.061 103.109 254.85 103.483C254.558 104.016 254.357 104.594 254.256 105.193C254.109 106.084 254.035 106.986 254.035 107.889C254.006 108.911 254.003 110.026 254.035 111.216C254.092 113.577 254.28 115.711 254.459 117.246C254.555 117.994 254.63 118.606 254.687 119.066L254.751 119.561C254.755 119.619 254.755 119.677 254.751 119.735C254.726 119.683 254.71 119.626 254.704 119.568C254.676 119.433 254.644 119.272 254.605 119.077C254.526 118.653 254.427 118.033 254.32 117.264C254.047 115.256 253.886 113.234 253.839 111.209C253.81 110.026 253.839 108.897 253.839 107.871C253.845 106.959 253.933 106.05 254.102 105.154C254.217 104.545 254.441 103.963 254.761 103.433C254.85 103.291 254.95 103.157 255.061 103.031C255.157 102.956 255.199 102.913 255.207 102.917Z" fill="white"/>
<path d="M289.877 91.7579C289.803 91.7929 289.727 91.8238 289.649 91.8505L288.987 92.0856L286.547 92.9226C283.856 93.8209 281.215 94.86 278.633 96.0356C276.053 97.2165 273.619 98.6914 271.378 100.431C270.526 101.108 269.871 101.695 269.429 102.116C269.205 102.319 269.041 102.49 268.923 102.6C268.868 102.66 268.806 102.714 268.738 102.76C268.785 102.694 268.838 102.632 268.895 102.575C269.005 102.457 269.162 102.276 269.379 102.062C269.988 101.451 270.628 100.872 271.296 100.328C273.525 98.5491 275.964 97.0514 278.558 95.8682C281.145 94.6877 283.799 93.6625 286.508 92.798C287.544 92.4596 288.385 92.1925 288.969 92.0144L289.642 91.8149C289.718 91.7875 289.797 91.7684 289.877 91.7579V91.7579Z" fill="white"/>
<path d="M302.272 100.588C302.272 100.588 302.222 100.637 302.112 100.716L301.638 101.051C301.225 101.335 300.634 101.763 299.914 102.304C299.195 102.846 298.361 103.519 297.464 104.295C296.566 105.072 295.615 105.976 294.661 106.96C293.706 107.943 292.851 108.94 292.1 109.862C291.348 110.785 290.714 111.643 290.201 112.388C289.688 113.132 289.282 113.73 289.015 114.169L288.698 114.653C288.664 114.711 288.623 114.766 288.577 114.817C288.598 114.752 288.628 114.691 288.666 114.635C288.741 114.5 288.837 114.332 288.955 114.129C289.204 113.691 289.592 113.061 290.094 112.324C290.597 111.586 291.227 110.703 291.968 109.766C292.709 108.829 293.574 107.839 294.525 106.842C295.476 105.845 296.449 104.958 297.35 104.178C298.251 103.398 299.106 102.753 299.843 102.208C300.58 101.663 301.179 101.268 301.606 101.001L302.101 100.694C302.154 100.653 302.212 100.617 302.272 100.588V100.588Z" fill="white"/>
<path d="M357.165 125.367C357.339 125.65 357.482 125.953 357.589 126.268C358.174 127.756 358.569 129.311 358.764 130.898C358.82 131.225 358.839 131.557 358.821 131.888C358.732 131.57 358.669 131.245 358.632 130.916C358.529 130.318 358.372 129.491 358.145 128.59C357.917 127.689 357.66 126.884 357.464 126.307C357.341 126.002 357.241 125.687 357.165 125.367Z" fill="white"/>
<path d="M348.646 166.195C348.646 166.195 348.585 166.245 348.468 166.331L347.944 166.687L347.089 167.289L346.544 167.695L345.907 168.108C343.374 169.778 340.736 171.284 338.01 172.617C337.148 173.037 336.229 173.458 335.278 173.892L333.8 174.519L333.052 174.818L332.269 175.118L330.659 175.734L328.978 176.314C328.411 176.521 327.827 176.695 327.232 176.877C326.638 177.059 326.046 177.258 325.43 177.415C322.873 178.138 320.279 178.722 317.658 179.164C314.846 179.654 312.005 179.96 309.153 180.079C306.301 180.203 303.444 180.113 300.605 179.812L299.575 179.712C299.237 179.677 298.899 179.62 298.564 179.573L296.566 179.292L294.625 178.936L293.674 178.754L292.737 178.54C288.336 177.576 284.041 176.18 279.914 174.373C277.13 173.173 274.451 171.744 271.904 170.099C270.985 169.536 270.333 169.03 269.867 168.696L269.35 168.315C269.233 168.229 269.176 168.179 269.176 168.179L269.361 168.3L269.892 168.656C270.362 168.97 271.021 169.479 271.943 170.031C274.5 171.655 277.184 173.07 279.968 174.263C284.088 176.045 288.372 177.424 292.758 178.38L293.691 178.59L294.642 178.768L296.58 179.124L298.571 179.402C298.906 179.449 299.244 179.506 299.583 179.538L300.608 179.637C303.44 179.938 306.29 180.026 309.135 179.901C311.979 179.784 314.812 179.48 317.616 178.993C320.23 178.552 322.82 177.973 325.373 177.258C325.989 177.101 326.581 176.902 327.175 176.724C327.77 176.546 328.347 176.368 328.914 176.168L330.595 175.591L332.201 174.982L332.985 174.683L333.743 174.366L335.221 173.746C336.172 173.315 337.091 172.902 337.953 172.485C340.681 171.169 343.327 169.689 345.875 168.051C346.098 167.904 346.312 167.768 346.516 167.645L347.068 167.267L347.93 166.683L348.464 166.327L348.646 166.195Z" fill="#263238"/>
<path d="M333.302 170.01L340.461 188.314H345.355L346.42 186.722L347.677 188.314H349.404L350.049 159.303L333.302 170.01Z" fill="#92E3A9"/>
<path d="M288.335 172.585L294.39 188.314H299.953L301.09 186.494L302.187 188.314H303.565C303.565 188.314 304.171 170.569 303.565 170.067C302.96 169.565 288.335 172.585 288.335 172.585Z" fill="#92E3A9"/>
<path d="M359.016 137.42C359.02 137.455 359.02 137.491 359.016 137.527C359.016 137.605 359.016 137.705 358.991 137.833C358.962 138.114 358.926 138.506 358.88 139.005C358.855 139.261 358.827 139.546 358.795 139.852C358.763 140.159 358.691 140.497 358.634 140.857C358.506 141.569 358.403 142.395 358.171 143.282C358.068 143.731 357.958 144.198 357.844 144.686C357.73 145.174 357.559 145.665 357.409 146.182C357.124 147.222 356.697 148.297 356.284 149.433C354.349 154.34 351.515 158.842 347.928 162.708C347.08 163.577 346.296 164.421 345.477 165.127C345.078 165.483 344.704 165.839 344.316 166.167L343.198 167.071C342.485 167.663 341.798 168.111 341.207 168.535C340.908 168.745 340.633 168.945 340.373 169.116L339.643 169.557L338.635 170.163L338.368 170.316L338.275 170.366C338.275 170.366 338.3 170.341 338.357 170.302L338.614 170.131L339.607 169.497L340.32 169.041C340.58 168.866 340.847 168.663 341.143 168.453C341.727 168.019 342.418 167.563 343.112 166.968L344.22 166.06C344.605 165.743 344.971 165.376 345.37 165.016C346.179 164.304 346.959 163.463 347.796 162.594C351.355 158.73 354.177 154.248 356.123 149.369C356.544 148.24 356.968 147.172 357.256 146.135C357.409 145.622 357.58 145.131 357.701 144.646C357.822 144.162 357.933 143.699 358.057 143.254C358.3 142.371 358.414 141.551 358.545 140.839C358.609 140.483 358.677 140.148 358.723 139.842C358.77 139.535 358.791 139.254 358.823 138.998C358.884 138.499 358.934 138.107 358.966 137.829C358.983 137.705 358.998 137.605 359.008 137.523C359.007 137.488 359.009 137.454 359.016 137.42V137.42Z" fill="white"/>
<g opacity="0.2">
<path opacity="0.2" d="M351.271 121.99C349.647 117.962 346.103 114.154 342.011 112.498C341.231 112.189 340.388 112.07 339.553 112.151C338.718 112.231 337.915 112.509 337.208 112.961C336.502 113.413 335.913 114.027 335.49 114.752C335.067 115.476 334.823 116.291 334.777 117.128C334.778 117.154 334.778 117.181 334.777 117.207C334.648 119.785 335.663 122.286 336.914 124.551C338.164 126.816 339.642 128.961 340.607 131.354C342.198 135.348 342.249 139.791 340.75 143.82C339.795 146.356 338.214 149.06 339.646 151.585C340.586 153.245 342.477 154.06 344.376 153.889C348.012 153.558 349.9 150.274 351.624 147.289C353.009 144.889 354.153 141.156 354.217 138.339C354.409 132.742 353.405 127.168 351.271 121.99Z" fill="white"/>
</g>
<path d="M296.146 133.366C296.014 133.402 295.789 132.871 295.455 132.102C295.262 131.674 295.001 131.281 294.682 130.937C294.339 130.553 293.86 130.317 293.346 130.282C292.822 130.289 292.317 130.48 291.921 130.823C291.575 131.122 291.289 131.485 291.081 131.892C290.725 132.629 290.564 133.174 290.425 133.149C290.287 133.124 290.212 132.565 290.472 131.646C290.635 131.092 290.935 130.587 291.344 130.179C291.609 129.913 291.924 129.702 292.271 129.559C292.617 129.415 292.989 129.341 293.364 129.342C293.768 129.353 294.162 129.466 294.511 129.669C294.818 129.848 295.09 130.079 295.316 130.353C295.673 130.797 295.93 131.314 296.067 131.867C296.288 132.789 296.26 133.334 296.146 133.366Z" fill="#263238"/>
<path d="M269.093 131.19C269.093 131.697 268.943 132.192 268.662 132.613C268.381 133.034 267.981 133.362 267.513 133.556C267.045 133.75 266.53 133.801 266.033 133.702C265.536 133.603 265.08 133.359 264.722 133.001C264.364 132.643 264.12 132.187 264.021 131.69C263.922 131.193 263.973 130.678 264.167 130.21C264.36 129.742 264.689 129.342 265.11 129.061C265.531 128.779 266.026 128.629 266.533 128.629C267.212 128.629 267.863 128.899 268.343 129.379C268.824 129.86 269.093 130.511 269.093 131.19V131.19Z" fill="#263238"/>
<path d="M350.431 109.77C350.366 109.712 350.307 109.648 350.256 109.577L349.793 109.004C349.586 108.751 349.337 108.445 349.031 108.103C348.724 107.761 348.393 107.351 347.994 106.931C347.595 106.511 347.175 106.033 346.694 105.553C346.213 105.072 345.693 104.559 345.145 104.028C344.023 102.985 342.751 101.891 341.355 100.798C339.959 99.7042 338.563 98.771 337.27 97.9482C336.615 97.5493 335.998 97.1611 335.404 96.8334C334.809 96.5057 334.253 96.1923 333.74 95.9252C333.227 95.658 332.757 95.4265 332.344 95.2128C331.931 94.9991 331.575 94.8388 331.275 94.707L330.599 94.39C330.517 94.3571 330.44 94.3153 330.367 94.2654C330.451 94.2887 330.533 94.3185 330.613 94.3544L331.304 94.6394C331.603 94.764 331.97 94.9207 332.372 95.1202C332.775 95.3197 333.27 95.5298 333.797 95.8005C334.324 96.0712 334.866 96.3526 335.475 96.6945C336.084 97.0364 336.696 97.4069 337.355 97.7951C338.659 98.6107 340.059 99.5582 341.466 100.644C342.873 101.731 344.141 102.842 345.259 103.896C345.807 104.434 346.327 104.94 346.801 105.439C347.275 105.937 347.706 106.4 348.091 106.835C348.475 107.269 348.803 107.675 349.106 108.028C349.408 108.381 349.651 108.694 349.843 108.954L350.295 109.549C350.349 109.617 350.394 109.691 350.431 109.77V109.77Z" fill="white"/>
<path d="M323.503 98.2618C323.407 98.2437 323.314 98.2163 323.225 98.1799L322.445 97.9127C322.089 97.7881 321.693 97.6456 321.202 97.5031C320.71 97.3606 320.165 97.1683 319.542 97.0152L318.57 96.7587C318.231 96.6697 317.857 96.602 317.501 96.5165C316.767 96.342 315.973 96.2138 315.14 96.0642C313.323 95.7836 311.491 95.6111 309.654 95.5477C307.817 95.5035 305.978 95.5713 304.148 95.7507C303.307 95.8505 302.502 95.9324 301.762 96.0642C301.405 96.1283 301.028 96.1746 300.693 96.2458L299.706 96.4453C299.076 96.5628 298.517 96.716 298.022 96.8371C297.527 96.9582 297.103 97.0686 296.757 97.1719L295.963 97.3963C295.871 97.4249 295.777 97.4475 295.682 97.4639C295.768 97.4196 295.859 97.385 295.952 97.3606L296.736 97.1042C297.092 96.9902 297.498 96.8584 297.993 96.748C298.488 96.6376 299.062 96.456 299.678 96.3313L300.665 96.1176C301.021 96.0464 301.377 95.9929 301.733 95.9288C302.477 95.7863 303.282 95.6973 304.127 95.594C307.804 95.1975 311.519 95.3042 315.168 95.911C316.005 96.0642 316.803 96.1995 317.54 96.3812C317.896 96.4702 318.253 96.5414 318.609 96.6341L319.581 96.9047C320.204 97.065 320.753 97.2609 321.237 97.4176C321.722 97.5744 322.138 97.7239 322.473 97.8593L323.243 98.162C323.332 98.1884 323.419 98.2217 323.503 98.2618V98.2618Z" fill="white"/>
<path d="M306.76 78.0233C313.346 78.0233 318.685 72.684 318.685 66.0976C318.685 59.5112 313.346 54.1719 306.76 54.1719C300.173 54.1719 294.834 59.5112 294.834 66.0976C294.834 72.684 300.173 78.0233 306.76 78.0233Z" fill="#92E3A9" stroke="#263238" stroke-linejoin="round"/>
<path d="M305.356 78.0233C311.943 78.0233 317.282 72.684 317.282 66.0976C317.282 59.5112 311.943 54.1719 305.356 54.1719C298.77 54.1719 293.431 59.5112 293.431 66.0976C293.431 72.684 298.77 78.0233 305.356 78.0233Z" fill="#92E3A9" stroke="#263238" stroke-linejoin="round"/>
<path d="M305.356 75.6827C310.649 75.6827 314.941 71.3913 314.941 66.0976C314.941 60.8039 310.649 56.5126 305.356 56.5126C300.062 56.5126 295.771 60.8039 295.771 66.0976C295.771 71.3913 300.062 75.6827 305.356 75.6827Z" fill="#92E3A9" stroke="#263238" stroke-linejoin="round"/>
<path d="M296.594 66.0976C296.591 63.6245 297.545 61.2461 299.255 59.4592C300.964 57.6722 303.298 56.615 305.769 56.5082H305.355C302.812 56.5082 300.373 57.5185 298.574 59.3169C296.776 61.1152 295.766 63.5543 295.766 66.0976C295.766 68.6409 296.776 71.08 298.574 72.8783C300.373 74.6767 302.812 75.687 305.355 75.687C305.495 75.687 305.63 75.687 305.769 75.687C303.298 75.5802 300.964 74.5229 299.255 72.736C297.545 70.9491 296.591 68.5707 296.594 66.0976Z" fill="#92E3A9" stroke="#263238" stroke-linejoin="round"/>
<path d="M314.243 56.9005H313.332" stroke="#263238" stroke-linejoin="round"/>
<path d="M315.403 57.9772H314.74" stroke="#263238" stroke-linejoin="round"/>
<path d="M316.889 59.6335H316.148" stroke="#263238" stroke-linejoin="round"/>
<path d="M317.718 61.704H316.725" stroke="#263238" stroke-linejoin="round"/>
<path d="M318.463 63.9401H317.552" stroke="#263238" stroke-linejoin="round"/>
<path d="M318.463 68.6605H317.469" stroke="#263238" stroke-linejoin="round"/>
<path d="M314.575 74.2922H315.403" stroke="#263238" stroke-linejoin="round"/>
<path d="M313.167 75.3688H314.078" stroke="#263238" stroke-linejoin="round"/>
<path d="M311.677 76.5284H312.588" stroke="#263238" stroke-linejoin="round"/>
<path d="M312.67 55.7455H311.262" stroke="#263238" stroke-linejoin="round"/>
<path d="M304.863 62.8329C304.863 61.9612 305.207 61.6473 305.809 61.6473C306.41 61.6473 306.755 61.9743 306.755 62.8329V63.3255H308.529V62.9506C308.529 61.3161 307.84 60.283 306.502 60.0084V59.1149H304.954V60.0084C303.647 60.3005 302.962 61.3161 302.962 62.9506C302.962 66.3854 306.654 66.5074 306.654 68.9832C306.654 69.855 306.28 70.1514 305.678 70.1514C305.076 70.1514 304.697 69.8419 304.697 68.9832V68.0374H302.91V68.8612C302.91 70.4958 303.594 71.5419 304.954 71.8165V72.6882H306.502V71.8165C307.84 71.5419 308.546 70.5088 308.546 68.8612C308.559 65.4264 304.863 65.3088 304.863 62.8329Z" fill="#263238"/>
<path d="M337.298 46.6072C340.73 40.9854 338.954 33.6462 333.333 30.2146C327.711 26.783 320.372 28.5586 316.94 34.1804C313.508 39.8022 315.284 47.1415 320.906 50.573C326.528 54.0046 333.867 52.2291 337.298 46.6072Z" fill="#92E3A9" stroke="#263238" stroke-linejoin="round"/>
<path d="M330.321 51.3973C336.397 48.8555 339.262 41.8693 336.72 35.7931C334.179 29.7169 327.192 26.8517 321.116 29.3934C315.04 31.9351 312.175 38.9213 314.716 44.9976C317.258 51.0738 324.244 53.939 330.321 51.3973Z" fill="#92E3A9" stroke="#263238" stroke-linejoin="round"/>
<path d="M334.604 44.0292C336.603 39.1276 334.25 33.5333 329.349 31.534C324.447 29.5347 318.853 31.8874 316.853 36.789C314.854 41.6906 317.207 47.2849 322.109 49.2843C327.01 51.2836 332.604 48.9308 334.604 44.0292Z" fill="#92E3A9" stroke="#263238" stroke-linejoin="round"/>
<path d="M316.964 40.3981C316.962 37.9286 317.912 35.5533 319.617 33.767C321.322 31.9806 323.651 30.921 326.118 30.8087H325.704C323.16 30.8087 320.721 31.819 318.923 33.6174C317.125 35.4158 316.114 37.8549 316.114 40.3981C316.114 42.9414 317.125 45.3805 318.923 47.1789C320.721 48.9772 323.16 49.9875 325.704 49.9875H326.118C323.651 49.8753 321.322 48.8156 319.617 47.0293C317.912 45.2429 316.962 42.8676 316.964 40.3981Z" fill="#92E3A9" stroke="#263238" stroke-linejoin="round"/>
<path d="M334.608 31.201H333.697" stroke="#263238" stroke-linejoin="round"/>
<path d="M335.768 32.2775H335.105" stroke="#263238" stroke-linejoin="round"/>
<path d="M337.259 33.9338H336.514" stroke="#263238" stroke-linejoin="round"/>
<path d="M338.087 36.0043H337.093" stroke="#263238" stroke-linejoin="round"/>
<path d="M338.832 38.2404H337.921" stroke="#263238" stroke-linejoin="round"/>
<path d="M338.833 42.9565H337.839" stroke="#263238" stroke-linejoin="round"/>
<path d="M334.939 48.5884H335.768" stroke="#263238" stroke-linejoin="round"/>
<path d="M333.531 49.6649H334.442" stroke="#263238" stroke-linejoin="round"/>
<path d="M332.041 50.8243H332.952" stroke="#263238" stroke-linejoin="round"/>
<path d="M333.035 30.0415H331.627" stroke="#263238" stroke-linejoin="round"/>
<path d="M328.601 38.2055C329.395 37.8699 329.826 38.0617 330.061 38.6152C330.297 39.1688 330.127 39.6134 329.338 39.9447L328.876 40.1408L329.573 41.7884L329.922 41.6403C331.426 41.0039 332.101 39.9708 331.84 38.6283L332.664 38.2796L332.066 36.8543L331.243 37.203C330.458 36.0958 329.246 35.8953 327.756 36.5099C324.587 37.8437 325.912 41.3046 323.632 42.2592C322.843 42.5948 322.407 42.3638 322.176 41.8233C321.945 41.2828 322.08 40.8034 322.874 40.4677L323.745 40.1016L323.052 38.454L322.294 38.7721C320.786 39.4085 320.088 40.4503 320.363 41.8233L319.557 42.1677L320.158 43.593L320.965 43.2487C321.74 44.3776 322.978 44.6217 324.482 43.9853C327.647 42.6166 326.322 39.1644 328.601 38.2055Z" fill="#263238"/>
<path d="M315.384 25.2982C320.042 20.641 320.042 13.09 315.384 8.43271C310.727 3.77542 303.176 3.77542 298.519 8.43271C293.861 13.09 293.861 20.641 298.519 25.2982C303.176 29.9555 310.727 29.9555 315.384 25.2982Z" fill="#92E3A9" stroke="#263238" stroke-linejoin="round"/>
<path d="M310.149 27.8647C316.225 25.323 319.09 18.3367 316.548 12.2605C314.007 6.18433 307.021 3.31907 300.944 5.8608C294.868 8.40253 292.003 15.3888 294.545 21.465C297.086 27.5412 304.073 30.4064 310.149 27.8647Z" fill="#92E3A9" stroke="#263238" stroke-linejoin="round"/>
<path d="M309.241 25.7096C314.126 23.6701 316.433 18.0567 314.394 13.1717C312.354 8.28664 306.741 5.97983 301.856 8.01928C296.971 10.0587 294.664 15.6721 296.703 20.5572C298.743 25.4422 304.356 27.749 309.241 25.7096Z" fill="#92E3A9" stroke="#263238" stroke-linejoin="round"/>
<path d="M296.792 16.8648C296.79 14.3953 297.74 12.02 299.445 10.2336C301.15 8.44729 303.479 7.38764 305.946 7.27539C305.811 7.27539 305.671 7.27539 305.532 7.27539C302.989 7.27539 300.549 8.2857 298.751 10.0841C296.953 11.8824 295.942 14.3215 295.942 16.8648C295.942 19.4081 296.953 21.8472 298.751 23.6455C300.549 25.4439 302.989 26.4542 305.532 26.4542H305.946C303.479 26.342 301.15 25.2823 299.445 23.496C297.74 21.7096 296.79 19.3343 296.792 16.8648V16.8648Z" fill="#92E3A9" stroke="#263238" stroke-linejoin="round"/>
<path d="M314.434 7.6676H313.523" stroke="#263238" stroke-linejoin="round"/>
<path d="M315.595 8.74414H314.933" stroke="#263238" stroke-linejoin="round"/>
<path d="M317.085 10.4006H316.34" stroke="#263238" stroke-linejoin="round"/>
<path d="M317.914 12.4711H316.92" stroke="#263238" stroke-linejoin="round"/>
<path d="M318.66 14.7029H317.749" stroke="#263238" stroke-linejoin="round"/>
<path d="M318.659 19.4233H317.665" stroke="#263238" stroke-linejoin="round"/>
<path d="M314.767 25.0551H315.595" stroke="#263238" stroke-linejoin="round"/>
<path d="M313.359 26.1315H314.27" stroke="#263238" stroke-linejoin="round"/>
<path d="M311.867 27.291H312.778" stroke="#263238" stroke-linejoin="round"/>
<path d="M312.862 6.50806H311.454" stroke="#263238" stroke-linejoin="round"/>
<path d="M303.526 14.5721C303.055 13.8529 303.168 13.3909 303.669 13.0639C304.171 12.737 304.641 12.8198 305.108 13.5434L305.382 13.9575L306.882 12.9855L306.673 12.6673C305.801 11.2986 304.646 10.8104 303.373 11.3073L302.885 10.5576L301.577 11.4032L302.065 12.1529C301.115 13.1162 301.115 14.3324 301.996 15.701C303.87 18.5866 307.034 16.673 308.381 18.7522C308.848 19.4714 308.7 19.9378 308.198 20.2647C307.697 20.5916 307.209 20.5393 306.738 19.8288L306.224 19.0355L304.724 20.0119L305.16 20.7006C306.032 22.0693 307.2 22.5749 308.486 22.0649L308.965 22.8015L310.273 21.9603L309.798 21.2237C310.77 20.2647 310.792 19.0007 309.903 17.632C308.037 14.7334 304.872 16.6469 303.526 14.5721Z" fill="#263238"/>
<path d="M66.7646 176.878H66.8017C68.2496 176.607 71.8286 175.649 73.7963 172.627C75.1068 170.611 75.2034 167.931 75.2813 165.781C75.5783 157.458 76.1204 136.682 76.2763 130.511C76.3096 129.819 76.6103 129.167 77.1149 128.693C77.6196 128.218 78.2889 127.958 78.9816 127.967C79.6744 127.976 80.3365 128.254 80.8285 128.742C81.3205 129.229 81.6038 129.889 81.6188 130.582V134.358H82.3613V130.586C82.3467 129.698 81.9868 128.85 81.3579 128.223C80.729 127.596 79.8806 127.238 78.9926 127.226C78.1046 127.214 77.2467 127.549 76.601 128.158C75.9553 128.768 75.5725 129.605 75.5338 130.493C75.3779 136.663 74.8358 157.439 74.5425 165.763C74.4683 167.823 74.3754 170.385 73.1763 172.23C71.9251 174.153 69.5082 175.616 66.7014 176.151L47.1581 175.965C44.6224 175.442 42.703 174.647 40.9692 172.334C40.0559 171.113 39.395 169.479 38.8864 167.2C37.8171 162.421 37.8506 157.365 37.8803 152.475C37.9651 148.981 37.861 145.485 37.5684 142.002C37.4013 140.365 37.1266 138.661 36.2616 137.261C35.4411 135.939 33.8038 134.785 32.1405 135.405L32.3967 136.102C33.607 135.661 34.9436 136.552 35.6304 137.666C36.4138 138.928 36.67 140.539 36.8296 142.091C37.1196 145.548 37.2225 149.018 37.1377 152.486C37.108 157.417 37.0746 162.51 38.1587 167.378C38.6933 169.765 39.395 171.484 40.3863 172.791C42.2649 175.308 44.3291 176.158 47.069 176.715H47.1396L66.7646 176.878Z" fill="#263238"/>
<path d="M0.375468 187.708L22.834 187.953V131.464H0.375468V187.708Z" fill="#92E3A9"/>
<path opacity="0.3" d="M0.37547 187.708L22.834 187.953V131.464H0.37547V187.708Z" fill="#252525"/>
<path d="M10.4985 187.817L32.957 187.953V131.464H10.4985V187.817Z" fill="#92E3A9"/>
<path d="M33.4805 126.701V127.372H9.64278L-5.8313e-05 113.433L0.237341 112.495L33.4805 126.701Z" fill="#263238"/>
<path d="M25.4432 127.209H26.2119V131.464H25.4432V127.209Z" fill="#263238"/>
<path d="M7.94043 124.131V131.464H7.00967V123.343L7.94043 124.131Z" fill="#263238"/>
<path d="M23.7246 112.495L33.4805 126.701H9.99324L0.237338 112.495H23.7246Z" fill="#455A64"/>
<path d="M25.4573 126.701C25.5025 126.671 23.3019 123.464 20.5587 119.541C17.8154 115.618 15.5319 112.464 15.4904 112.498C15.449 112.532 17.6421 115.731 20.3891 119.658C23.1361 123.584 25.4121 126.731 25.4573 126.701Z" fill="#EBEBEB"/>
<path d="M17.5971 126.701C17.6385 126.671 15.4417 123.464 12.6984 119.541C9.95515 115.618 7.67161 112.464 7.62639 112.498C7.58117 112.532 9.78181 115.731 12.5251 119.658C15.2683 123.584 17.5519 126.731 17.5971 126.701Z" fill="#EBEBEB"/>
<path d="M28.3594 119.598C28.3594 119.545 23.1442 119.5 16.7118 119.5C10.2795 119.5 5.06053 119.545 5.06053 119.598C5.06053 119.65 10.2757 119.696 16.7118 119.696C23.1479 119.696 28.3594 119.654 28.3594 119.598Z" fill="#EBEBEB"/>
<path d="M15.0507 137.493H27.9229V152.008H15.0507V137.493Z" fill="#EBEBEB"/>
<path d="M24.7227 156.108C24.7227 156.457 24.8612 156.791 25.1079 157.038C25.3545 157.284 25.689 157.423 26.0378 157.423C26.3656 157.423 27.2022 157.389 27.2022 157.389C27.4081 157.226 27.5766 157.02 27.6963 156.786C27.8159 156.552 27.8838 156.295 27.8955 156.033C27.8902 155.774 27.8121 155.521 27.6701 155.305C27.5282 155.088 27.3281 154.916 27.0929 154.808C27.0929 154.808 26.3091 154.808 26.0378 154.808C25.6916 154.808 25.3594 154.944 25.1132 155.188C24.867 155.431 24.7267 155.762 24.7227 156.108V156.108Z" fill="#263238"/>
<path d="M26.9163 157.423C26.19 157.423 25.6012 156.834 25.6012 156.108C25.6012 155.382 26.19 154.793 26.9163 154.793C27.6427 154.793 28.2314 155.382 28.2314 156.108C28.2314 156.834 27.6427 157.423 26.9163 157.423Z" fill="#455A64"/>
<path d="M19.9307 156.108C19.9307 156.457 20.0692 156.791 20.3159 157.038C20.5625 157.284 20.897 157.423 21.2458 157.423C21.5736 157.423 22.4102 157.389 22.4102 157.389C22.6161 157.226 22.7846 157.02 22.9042 156.786C23.0239 156.552 23.0918 156.295 23.1035 156.033C23.0982 155.774 23.0201 155.521 22.8781 155.305C22.7362 155.088 22.5362 154.916 22.3009 154.808C22.3009 154.808 21.5171 154.808 21.2458 154.808C20.8996 154.808 20.5674 154.944 20.3211 155.188C20.0749 155.431 19.9347 155.762 19.9307 156.108V156.108Z" fill="#263238"/>
<path d="M22.1234 157.423C21.397 157.423 20.8083 156.834 20.8083 156.108C20.8083 155.382 21.397 154.793 22.1234 154.793C22.8497 154.793 23.4385 155.382 23.4385 156.108C23.4385 156.834 22.8497 157.423 22.1234 157.423Z" fill="#455A64"/>
<path d="M15.1865 156.108C15.1865 156.457 15.3251 156.791 15.5717 157.038C15.8184 157.284 16.1529 157.423 16.5017 157.423C16.8295 157.423 17.666 157.389 17.666 157.389C17.872 157.226 18.0405 157.02 18.1601 156.786C18.2798 156.552 18.3477 156.295 18.3594 156.032C18.3527 155.775 18.2739 155.524 18.132 155.309C17.9902 155.094 17.7909 154.923 17.5567 154.815C17.5567 154.815 16.773 154.815 16.5017 154.815C16.1567 154.815 15.8256 154.951 15.5796 155.192C15.3336 155.434 15.1925 155.763 15.1865 156.108V156.108Z" fill="#263238"/>
<path d="M16.0641 156.108C16.0641 156.368 16.1413 156.622 16.2858 156.838C16.4303 157.055 16.6357 157.223 16.876 157.323C17.1163 157.422 17.3807 157.448 17.6358 157.398C17.8909 157.347 18.1252 157.222 18.3092 157.038C18.4931 156.854 18.6183 156.62 18.6691 156.364C18.7198 156.109 18.6938 155.845 18.5942 155.605C18.4947 155.364 18.3262 155.159 18.1099 155.014C17.8936 154.87 17.6393 154.793 17.3792 154.793C17.2065 154.793 17.0355 154.827 16.876 154.893C16.7164 154.959 16.5714 155.056 16.4493 155.178C16.3272 155.3 16.2303 155.445 16.1642 155.605C16.0981 155.764 16.0641 155.935 16.0641 156.108Z" fill="#455A64"/>
<path d="M21.1766 140.553L24.1045 140.594L21.4027 144.75L23.4488 144.777L20.5812 150.489L21.5685 146.243L18.8705 146.209L21.1766 140.553Z" fill="#92E3A9"/>
<path d="M13.8437 185.025C13.8437 185.025 13.8437 184.987 13.8437 184.912C13.8437 184.837 13.8437 184.727 13.8437 184.588C13.8437 184.294 13.8437 183.876 13.8437 183.337C13.8437 182.237 13.8437 180.65 13.8701 178.642C13.8701 174.625 13.8964 168.946 13.9153 162.25L13.8248 162.34H29.1125C29.1351 162.363 28.9278 162.16 29.0145 162.25V168.535C29.0145 170.581 29.0145 172.571 29.0145 174.489C29.0145 178.325 29.0145 181.875 29.0145 185.014L29.0936 184.938L17.9774 184.98L14.8988 184.999H14.0886H13.806C13.806 184.999 13.8927 184.999 14.0698 184.999H14.8686H17.9284L29.0936 185.04H29.1727V184.961C29.1727 181.822 29.1727 178.272 29.1727 174.436C29.1727 172.518 29.1727 170.529 29.1727 168.483V162.261C29.2594 162.344 29.0559 162.133 29.0748 162.156H13.7871H13.6967V162.242C13.6967 168.961 13.7306 174.678 13.7419 178.694C13.7419 180.692 13.7419 182.274 13.7645 183.367C13.7645 183.898 13.7645 184.313 13.7645 184.603C13.7645 184.735 13.7645 184.837 13.7645 184.916C13.785 184.956 13.8118 184.993 13.8437 185.025V185.025Z" fill="#263238"/>
<path d="M15.9626 173.558C15.94 173.581 16.0493 173.694 16.0078 173.905C15.9992 173.962 15.9786 174.016 15.9474 174.064C15.9163 174.112 15.8752 174.153 15.8269 174.184C15.7673 174.209 15.702 174.219 15.6375 174.212C15.573 174.205 15.5114 174.181 15.4587 174.143C15.406 174.105 15.364 174.055 15.3368 173.996C15.3095 173.937 15.2979 173.872 15.3032 173.807C15.3181 173.751 15.3446 173.699 15.381 173.655C15.4173 173.61 15.4627 173.573 15.5142 173.547C15.7026 173.445 15.8458 173.513 15.8571 173.487C15.8684 173.46 15.7252 173.329 15.4577 173.419C15.3802 173.447 15.3102 173.492 15.2533 173.552C15.1965 173.611 15.1542 173.683 15.1298 173.762C15.1038 173.864 15.1102 173.971 15.148 174.069C15.1858 174.167 15.2532 174.25 15.3408 174.308C15.4231 174.373 15.5232 174.411 15.6276 174.417C15.732 174.423 15.8357 174.397 15.9249 174.342C15.9914 174.294 16.046 174.231 16.0845 174.159C16.123 174.086 16.1445 174.006 16.1472 173.924C16.1548 173.656 15.9701 173.536 15.9626 173.558Z" fill="#263238"/>
</svg>
