<svg width="461" height="217" viewBox="0 0 461 217" fill="none" xmlns="http://www.w3.org/2000/svg">
<path d="M306.782 0.0456003L272.594 5.90375C271.936 6.01441 271.326 6.31825 270.842 6.77662C270.357 7.23499 270.02 7.82715 269.873 8.47774C269.726 9.12833 269.776 9.80794 270.016 10.4301C270.257 11.0522 270.677 11.5888 271.223 11.9714L277.527 16.4327L238.877 71.0679C238.625 71.4232 238.307 71.7253 237.938 71.9572C237.57 72.189 237.16 72.3458 236.731 72.4188C236.302 72.4918 235.862 72.4795 235.438 72.3825C235.014 72.2855 234.613 72.1058 234.258 71.8536L177.449 31.6935C176.73 31.187 175.839 30.9862 174.972 31.1351C174.104 31.284 173.331 31.7705 172.822 32.488L58.3047 194.351H99.4601L180.854 79.292C181.105 78.9367 181.424 78.6346 181.793 78.4028C182.161 78.171 182.571 78.0141 183 77.9411C183.429 77.8681 183.869 77.8804 184.293 77.9774C184.717 78.0744 185.118 78.2541 185.473 78.5063L242.282 118.666C242.638 118.918 243.04 119.098 243.465 119.194C243.89 119.29 244.33 119.302 244.76 119.228C245.19 119.155 245.601 118.997 245.969 118.764C246.338 118.531 246.657 118.228 246.909 117.872L304.958 35.8056L311.27 40.2668C311.814 40.6418 312.456 40.8485 313.117 40.8613C313.777 40.8742 314.427 40.6925 314.985 40.339C315.543 39.9855 315.985 39.4757 316.256 38.873C316.527 38.2703 316.614 37.6014 316.508 36.9493L310.641 2.76077C310.483 1.8921 309.99 1.12035 309.268 0.612302C308.546 0.104251 307.653 -0.0993143 306.782 0.0456003V0.0456003Z" fill="#92E3A9"/>
<path opacity="0.2" d="M306.782 0.0456003L272.594 5.90375C271.936 6.01441 271.326 6.31825 270.842 6.77662C270.357 7.23499 270.02 7.82715 269.873 8.47774C269.726 9.12833 269.776 9.80794 270.016 10.4301C270.257 11.0522 270.677 11.5888 271.223 11.9714L277.527 16.4327L238.877 71.0679C238.625 71.4232 238.307 71.7253 237.938 71.9572C237.57 72.189 237.16 72.3458 236.731 72.4188C236.302 72.4918 235.862 72.4795 235.438 72.3825C235.014 72.2855 234.613 72.1058 234.258 71.8536L177.449 31.6935C176.73 31.187 175.839 30.9862 174.972 31.1351C174.104 31.284 173.331 31.7705 172.822 32.488L58.3047 194.351H99.4601L180.854 79.292C181.105 78.9367 181.424 78.6346 181.793 78.4028C182.161 78.171 182.571 78.0141 183 77.9411C183.429 77.8681 183.869 77.8804 184.293 77.9774C184.717 78.0744 185.118 78.2541 185.473 78.5063L242.282 118.666C242.638 118.918 243.04 119.098 243.465 119.194C243.89 119.29 244.33 119.302 244.76 119.228C245.19 119.155 245.601 118.997 245.969 118.764C246.338 118.531 246.657 118.228 246.909 117.872L304.958 35.8056L311.27 40.2668C311.814 40.6418 312.456 40.8485 313.117 40.8613C313.777 40.8742 314.427 40.6925 314.985 40.339C315.543 39.9855 315.985 39.4757 316.256 38.873C316.527 38.2703 316.614 37.6014 316.508 36.9493L310.641 2.76077C310.483 1.8921 309.99 1.12035 309.268 0.612302C308.546 0.104251 307.653 -0.0993143 306.782 0.0456003V0.0456003Z" fill="#252525"/>
<path opacity="0.2" d="M96.8869 189.593H67.9192C67.8793 189.591 67.8405 189.579 67.8067 189.557C67.773 189.536 67.7456 189.506 67.7271 189.47C67.7063 189.436 67.6953 189.397 67.6953 189.357C67.6953 189.317 67.7063 189.278 67.7271 189.243L173.82 39.254C174.086 38.8721 174.425 38.5465 174.817 38.2959C175.209 38.0452 175.647 37.8744 176.105 37.7933C176.563 37.7122 177.033 37.7223 177.487 37.8232C177.942 37.924 178.371 38.1136 178.752 38.381L235.553 78.5411C235.887 78.7831 236.265 78.9561 236.667 79.0499C237.069 79.1437 237.485 79.1564 237.891 79.0873C238.298 79.0182 238.687 78.8686 239.035 78.6474C239.383 78.4262 239.683 78.1378 239.918 77.799L284.19 15.2191L277.206 10.2514C277.168 10.2283 277.14 10.1936 277.124 10.1526C277.108 10.1116 277.106 10.0666 277.119 10.0244C277.128 9.98269 277.15 9.94472 277.181 9.91522C277.212 9.88573 277.251 9.86602 277.293 9.85855L306.104 4.92583C306.131 4.92085 306.159 4.92144 306.187 4.92757C306.214 4.93369 306.24 4.94524 306.263 4.96152C306.286 4.9778 306.305 4.99847 306.319 5.02234C306.334 5.0462 306.344 5.07275 306.348 5.10044L311.281 33.911C311.287 33.954 311.282 33.9979 311.265 34.038C311.248 34.0781 311.22 34.1127 311.185 34.138C311.148 34.1613 311.106 34.1737 311.063 34.1737C311.019 34.1737 310.977 34.1613 310.94 34.138L303.956 29.1703L246.029 111.062C245.763 111.443 245.425 111.767 245.034 112.017C244.642 112.267 244.205 112.437 243.748 112.518C243.291 112.6 242.822 112.59 242.369 112.49C241.915 112.39 241.486 112.201 241.105 111.935L184.296 71.775C183.964 71.5398 183.588 71.3724 183.191 71.2824C182.794 71.1924 182.383 71.1816 181.982 71.2505C181.58 71.3194 181.197 71.4668 180.852 71.6841C180.508 71.9014 180.21 72.1845 179.975 72.5171L97.0702 189.497C97.0495 189.526 97.022 189.55 96.9901 189.567C96.9583 189.583 96.9229 189.592 96.8869 189.593V189.593ZM68.3383 189.156H96.7734L179.486 72.229C180.025 71.4596 180.847 70.9355 181.771 70.7718C182.696 70.6081 183.648 70.8182 184.418 71.3559L241.228 111.516C241.56 111.751 241.936 111.919 242.333 112.009C242.73 112.099 243.141 112.109 243.542 112.041C243.944 111.972 244.327 111.824 244.672 111.607C245.016 111.39 245.314 111.107 245.549 110.774L303.598 28.7076C303.613 28.6832 303.633 28.6626 303.658 28.6474C303.682 28.6322 303.709 28.623 303.738 28.6203C303.764 28.6079 303.792 28.6015 303.821 28.6015C303.849 28.6015 303.878 28.6079 303.904 28.6203L310.67 33.4046L305.859 5.45839L277.826 10.2601L284.592 15.0444C284.637 15.079 284.668 15.1286 284.679 15.1841C284.701 15.2373 284.701 15.2969 284.679 15.35L240.285 78.1133C240.018 78.4934 239.679 78.8165 239.286 79.0639C238.893 79.3112 238.455 79.4778 237.997 79.5538C237.08 79.7062 236.14 79.4931 235.378 78.9602L178.578 38.8C178.244 38.558 177.865 38.385 177.464 38.2912C177.062 38.1974 176.646 38.1847 176.239 38.2539C175.833 38.323 175.444 38.4725 175.096 38.6937C174.748 38.9149 174.448 39.2034 174.213 39.5421L68.3383 189.156Z" fill="white"/>
<path d="M355.668 191.262L124.85 191.625L124.796 157.464L355.614 157.101L355.668 191.262Z" fill="#455A64"/>
<path d="M112.781 132.3C112.781 132.3 118.553 132.945 119.579 132.3C121.9 130.806 172.42 110.438 215.831 110.391C250.647 110.345 281.997 119.578 312.489 139.935C312.489 139.935 349.622 144.027 364.123 154.895C367.511 156.862 374.429 164.618 371.79 182.232C370.109 193.464 361.744 193.938 350.319 193.683C350.319 193.683 354.572 159.564 324.164 162.171C298.326 164.384 303.27 195.926 303.27 195.926L173.805 196.129C173.805 196.129 173.238 182.117 172.686 178.724C171.588 171.926 163.14 160.787 147.368 162.442C130.067 164.259 124.31 180.046 125.419 193.371C125.419 193.371 107.164 197.316 104.697 182.633L100.341 181.279C100.341 181.279 98.6645 150.819 113.874 138.015L110.61 135.844L112.781 132.3Z" fill="#92E3A9"/>
<path d="M121.389 131.326C121.389 131.326 122.466 134.262 126.177 133.929C129.202 133.663 146.477 127.115 152.775 124.7C153.675 124.371 154.484 123.835 155.137 123.135C155.791 122.435 156.271 121.591 156.538 120.671C156.67 120.285 156.699 119.87 156.622 119.469C156.622 119.469 129.764 125.923 121.389 131.326Z" fill="#455A64"/>
<path d="M269.688 118.569C269.693 119.804 270.046 121.012 270.707 122.055C271.368 123.099 272.31 123.934 273.425 124.466L310.381 142.075L312.494 139.8C312.494 139.8 308.632 137.021 303.583 134.017C298.899 131.243 293.173 128.292 289.753 126.626C283.267 123.462 276.561 120.769 269.688 118.569V118.569Z" fill="#455A64"/>
<g opacity="0.3">
<path opacity="0.3" d="M146.992 133.934C146.742 134.147 146.542 134.412 146.405 134.711C146.267 135.009 146.196 135.334 146.196 135.662C146.196 135.99 146.267 136.315 146.405 136.613C146.542 136.911 146.742 137.176 146.992 137.39C148.824 139.259 157.553 145.749 161.608 146.145C165.662 146.541 288.798 154.759 296.086 152.672C303.373 150.585 307.641 146.889 305.809 144.766L302.503 143.673L244.457 144.859L146.992 133.934Z" fill="white"/>
</g>
<g opacity="0.7">
<path opacity="0.7" d="M102.202 160.115C102.202 160.115 109.369 162.239 112.43 156.586C115.49 150.934 118.863 144.958 118.863 143.667C118.863 142.049 117.703 136.844 113.872 137.9C113.872 137.9 103.217 146.39 102.202 160.115Z" fill="white"/>
</g>
<g opacity="0.7">
<path opacity="0.7" d="M367.275 165.914C367.275 165.914 339.522 154.812 344.014 151.027C346.382 149.029 369.201 160.022 367.275 165.914" fill="white"/>
</g>
<path d="M355.945 193.584C355.945 193.584 355.945 193.49 355.945 193.308C355.945 193.126 355.976 192.85 355.981 192.486C355.981 191.768 356.013 190.711 355.981 189.363C355.827 185.503 355.234 181.673 354.212 177.948C353.504 175.368 352.514 172.874 351.26 170.51C349.831 167.787 347.927 165.34 345.639 163.285L344.718 162.479L343.723 161.745C343.043 161.251 342.338 160.792 341.61 160.371C341.251 160.147 340.855 159.98 340.475 159.782C340.095 159.585 339.715 159.382 339.309 159.22L338.097 158.741L337.482 158.502L336.853 158.309C335.999 158.032 335.13 157.805 334.25 157.628L332.928 157.352C332.48 157.284 332.028 157.237 331.58 157.175C331.132 157.112 330.674 157.055 330.216 157.008L328.842 156.94C327.916 156.865 326.986 156.844 326.057 156.878C322.409 156.869 318.79 157.54 315.387 158.856C312.226 160.114 309.382 162.055 307.059 164.54C304.988 166.809 303.297 169.398 302.052 172.207C300.96 174.644 300.118 177.185 299.538 179.791C298.703 183.552 298.263 187.39 298.226 191.242C298.226 192.611 298.262 193.673 298.304 194.391C298.304 194.745 298.351 195.021 298.372 195.203C298.392 195.385 298.413 195.479 298.413 195.479C298.413 195.479 298.413 195.385 298.413 195.203C298.413 195.021 298.413 194.734 298.377 194.386C298.346 193.667 298.325 192.611 298.377 191.263C298.447 187.408 298.913 183.571 299.767 179.812C300.357 177.223 301.205 174.7 302.296 172.28C303.539 169.498 305.223 166.936 307.283 164.691C309.59 162.234 312.413 160.32 315.548 159.085C318.922 157.782 322.509 157.118 326.125 157.128C329.738 157.035 333.342 157.513 336.806 158.544L337.436 158.731L338.039 158.97L339.242 159.439C339.643 159.6 340.012 159.814 340.392 159.996C340.772 160.178 341.162 160.355 341.516 160.579C342.234 160.991 342.929 161.441 343.598 161.927L344.587 162.656L345.498 163.452C347.77 165.485 349.663 167.904 351.089 170.599C352.35 172.935 353.35 175.403 354.071 177.959C355.108 181.667 355.73 185.48 355.924 189.326C355.992 190.69 356.002 191.747 355.997 192.449V193.267C355.945 193.49 355.945 193.584 355.945 193.584Z" fill="#263238"/>
<path d="M178.166 196.01C178.166 196.01 178.166 195.916 178.203 195.734C178.239 195.552 178.239 195.286 178.26 194.932C178.307 194.224 178.349 193.173 178.338 191.809C178.322 187.995 177.902 184.193 177.084 180.467C176.522 177.891 175.702 175.379 174.637 172.967C173.412 170.19 171.736 167.634 169.677 165.404C167.383 162.944 164.565 161.032 161.432 159.808C158.058 158.522 154.477 157.86 150.866 157.856C147.269 157.712 143.673 158.132 140.206 159.1C139.998 159.163 139.784 159.21 139.581 159.277L138.972 159.501L137.76 159.954C136.968 160.266 136.198 160.672 135.459 161.026C134.746 161.464 134.012 161.859 133.34 162.333L132.357 163.056C132.195 163.176 132.024 163.29 131.873 163.421L131.42 163.821C129.131 165.818 127.219 168.211 125.777 170.885C124.535 173.213 123.567 175.677 122.894 178.229C121.913 181.916 121.388 185.709 121.332 189.524C121.306 190.872 121.332 191.924 121.39 192.647C121.39 193.001 121.431 193.272 121.452 193.454C121.473 193.636 121.494 193.725 121.494 193.725C121.503 193.633 121.503 193.54 121.494 193.449C121.494 193.256 121.494 192.991 121.452 192.642C121.452 191.934 121.405 190.888 121.452 189.545C121.548 185.742 122.095 181.965 123.081 178.292C123.768 175.76 124.741 173.316 125.98 171.004C127.422 168.359 129.328 165.995 131.607 164.024L132.055 163.629C132.211 163.504 132.378 163.395 132.534 163.27L133.512 162.557C134.173 162.093 134.902 161.703 135.594 161.271C136.349 160.922 137.088 160.521 137.874 160.23L139.071 159.787L139.675 159.569C139.878 159.496 140.091 159.449 140.3 159.392C143.734 158.423 147.3 157.998 150.866 158.132C154.438 158.14 157.98 158.796 161.318 160.069C164.422 161.272 167.217 163.157 169.495 165.586C171.541 167.793 173.21 170.322 174.434 173.071C175.495 175.469 176.318 177.966 176.891 180.524C177.717 184.236 178.164 188.023 178.224 191.825C178.25 193.173 178.224 194.219 178.198 194.948C178.198 195.296 178.198 195.562 178.161 195.755C178.125 195.947 178.166 196.01 178.166 196.01Z" fill="#263238"/>
<path d="M148.21 133.929C148.21 133.929 158.974 143.298 163.638 143.298C168.301 143.298 291.219 150.752 296.689 148.539C299.571 147.432 302.357 146.088 305.018 144.521C305.018 144.521 264.907 115.633 218.166 117.017C183.854 118.032 148.21 133.929 148.21 133.929Z" fill="#455A64"/>
<path d="M280.189 130.728L288.309 148.945L292.432 148.94L285.722 133.346L280.189 130.728Z" fill="#263238"/>
<g opacity="0.3">
<path opacity="0.3" d="M177.721 157.379L192.295 157.356L192.29 154.447C192.29 154.271 192.22 154.103 192.096 153.979C191.972 153.856 191.804 153.786 191.628 153.787L178.376 153.807C178.201 153.808 178.033 153.878 177.909 154.002C177.785 154.126 177.716 154.294 177.716 154.47L177.721 157.353L177.721 157.379Z" fill="#252525"/>
</g>
<g opacity="0.3">
<path opacity="0.3" d="M234.525 157.292L249.099 157.269L249.094 154.385C249.094 154.21 249.024 154.042 248.9 153.918C248.776 153.794 248.608 153.725 248.432 153.725L235.175 153.746C235 153.746 234.832 153.816 234.708 153.94C234.584 154.064 234.515 154.233 234.515 154.408L234.52 157.292L234.525 157.292Z" fill="#252525"/>
</g>
<path d="M184.074 122.025L171.347 143.652L183.204 144.287L181.674 133.882L189.461 120.776L184.074 122.025Z" fill="#263238"/>
<path d="M230.472 117.325L232.455 146.869L228.13 146.655L226.261 117.059L230.472 117.325Z" fill="#263238"/>
<path d="M285.866 153.411L284.018 151.501L286.959 147.759L289.489 150.179C289.865 150.5 290.099 150.956 290.139 151.449C290.493 153.776 287.5 155.098 285.866 153.411Z" fill="#263238"/>
<path d="M278.388 152.709C273.897 152.86 270.362 148.279 272.231 144.188C272.425 143.69 272.743 143.249 273.156 142.909C273.569 142.569 274.062 142.341 274.589 142.246C279.273 141.429 285.337 141.127 286.972 147.759C287.451 149.721 286.352 150.934 284.556 151.668C282.849 152.365 280.543 152.631 278.388 152.709Z" fill="#92E3A9"/>
<path d="M306.971 188.079C306.186 176.731 314.748 166.895 326.096 166.109C337.444 165.324 347.28 173.886 348.066 185.234C348.851 196.582 340.289 206.418 328.941 207.204C317.593 207.99 307.757 199.427 306.971 188.079Z" fill="#263238"/>
<path d="M327.499 172.93C330.213 172.923 332.868 173.721 335.129 175.223C337.389 176.725 339.154 178.864 340.198 181.369C341.243 183.874 341.522 186.632 340.999 189.296C340.475 191.959 339.174 194.407 337.259 196.331C335.344 198.254 332.902 199.567 330.241 200.102C327.581 200.637 324.821 200.371 322.311 199.338C319.801 198.305 317.655 196.55 316.142 194.296C314.63 192.043 313.82 189.391 313.815 186.677C313.811 184.876 314.161 183.092 314.847 181.426C315.532 179.76 316.539 178.246 317.81 176.97C319.081 175.693 320.59 174.679 322.253 173.986C323.915 173.293 325.698 172.934 327.499 172.93V172.93ZM338.508 186.641C338.505 184.467 337.857 182.344 336.647 180.539C335.437 178.733 333.719 177.327 331.71 176.499C329.701 175.67 327.492 175.455 325.361 175.882C323.23 176.309 321.274 177.359 319.739 178.898C318.205 180.436 317.161 182.396 316.74 184.528C316.319 186.66 316.54 188.869 317.374 190.875C318.209 192.882 319.619 194.596 321.428 195.801C323.237 197.006 325.362 197.647 327.535 197.644C330.448 197.634 333.238 196.471 335.294 194.409C337.351 192.346 338.506 189.553 338.508 186.641V186.641Z" fill="#E0E0E0"/>
<path d="M327.505 175.647C329.68 175.642 331.808 176.282 333.62 177.486C335.431 178.691 336.845 180.405 337.682 182.413C338.519 184.42 338.742 186.631 338.323 188.766C337.904 190.9 336.861 192.862 335.326 194.404C333.792 195.946 331.835 196.998 329.702 197.428C327.57 197.857 325.358 197.644 323.346 196.817C321.335 195.989 319.614 194.583 318.401 192.778C317.188 190.972 316.538 188.847 316.533 186.672C316.529 183.756 317.682 180.957 319.739 178.89C321.796 176.823 324.589 175.657 327.505 175.647V175.647Z" fill="#F5F5F5"/>
<path d="M330.768 186.687C330.769 187.33 330.579 187.958 330.223 188.493C329.867 189.027 329.36 189.444 328.767 189.691C328.174 189.938 327.521 190.003 326.891 189.879C326.261 189.755 325.682 189.446 325.227 188.993C324.772 188.539 324.461 187.961 324.335 187.331C324.209 186.701 324.272 186.048 324.517 185.454C324.762 184.861 325.177 184.353 325.711 183.995C326.244 183.637 326.872 183.446 327.514 183.445C327.941 183.444 328.363 183.527 328.758 183.69C329.152 183.852 329.51 184.091 329.813 184.392C330.115 184.693 330.354 185.051 330.518 185.445C330.682 185.839 330.767 186.261 330.768 186.687V186.687Z" fill="#263238"/>
<path d="M135.742 201.95C127.699 193.907 127.699 180.866 135.742 172.823C143.785 164.779 156.826 164.779 164.87 172.823C172.913 180.866 172.913 193.907 164.87 201.95C156.826 209.994 143.785 209.994 135.742 201.95Z" fill="#263238"/>
<path d="M150.288 173.664C153.002 173.657 155.657 174.455 157.917 175.957C160.178 177.459 161.942 179.597 162.987 182.102C164.032 184.606 164.311 187.365 163.788 190.028C163.265 192.691 161.964 195.139 160.05 197.063C158.136 198.986 155.694 200.299 153.034 200.835C150.373 201.371 147.614 201.106 145.104 200.073C142.594 199.041 140.447 197.287 138.934 195.034C137.421 192.781 136.61 190.13 136.604 187.416C136.596 183.778 138.032 180.286 140.599 177.707C143.165 175.128 146.65 173.674 150.288 173.664ZM161.276 187.38C161.274 185.204 160.626 183.079 159.415 181.272C158.204 179.465 156.484 178.059 154.472 177.23C152.461 176.402 150.249 176.189 148.117 176.619C145.985 177.049 144.028 178.102 142.494 179.645C140.961 181.187 139.92 183.151 139.504 185.286C139.087 187.42 139.313 189.631 140.154 191.637C140.995 193.643 142.412 195.355 144.226 196.555C146.04 197.755 148.17 198.389 150.345 198.378C153.25 198.359 156.029 197.192 158.077 195.131C160.125 193.071 161.275 190.284 161.276 187.38V187.38Z" fill="#E0E0E0"/>
<path d="M150.293 176.386C152.468 176.38 154.597 177.019 156.409 178.223C158.221 179.427 159.636 181.141 160.474 183.148C161.312 185.156 161.535 187.367 161.117 189.502C160.698 191.636 159.655 193.599 158.121 195.141C156.587 196.684 154.63 197.736 152.497 198.166C150.364 198.596 148.152 198.384 146.14 197.556C144.128 196.729 142.407 195.323 141.194 193.517C139.981 191.711 139.331 189.586 139.326 187.411C139.32 184.495 140.472 181.696 142.528 179.629C144.585 177.562 147.377 176.396 150.293 176.386V176.386Z" fill="#F5F5F5"/>
<path d="M153.557 187.447C153.558 188.09 153.368 188.718 153.012 189.253C152.656 189.788 152.149 190.205 151.555 190.452C150.962 190.698 150.309 190.763 149.678 190.639C149.048 190.514 148.469 190.205 148.014 189.751C147.559 189.297 147.249 188.718 147.124 188.088C146.998 187.458 147.062 186.805 147.307 186.211C147.553 185.617 147.969 185.109 148.504 184.752C149.038 184.395 149.666 184.205 150.309 184.205C151.169 184.205 151.995 184.546 152.603 185.154C153.212 185.762 153.555 186.587 153.557 187.447V187.447Z" fill="#263238"/>
<path d="M140.555 148.69C140.563 149.324 140.759 149.94 141.118 150.462C141.477 150.984 141.983 151.388 142.571 151.622C143.159 151.857 143.804 151.911 144.423 151.779C145.043 151.647 145.609 151.334 146.051 150.88C146.492 150.426 146.789 149.852 146.904 149.229C147.019 148.606 146.946 147.963 146.696 147.382C146.445 146.8 146.028 146.306 145.496 145.961C144.964 145.617 144.343 145.438 143.709 145.448C142.861 145.46 142.053 145.808 141.461 146.416C140.87 147.024 140.544 147.842 140.555 148.69V148.69Z" fill="#263238"/>
<path d="M178.244 188.749H178.551H179.462L182.96 188.816L195.816 189.024L238.243 189.545C254.816 189.717 269.822 189.826 280.68 189.842C286.108 189.842 290.507 189.842 293.541 189.79C296.576 189.737 298.267 189.67 298.226 189.571C297.827 189.635 297.422 189.661 297.018 189.649C296.222 189.649 295.04 189.68 293.526 189.685C290.491 189.685 286.093 189.685 280.664 189.654L238.232 189.269L195.806 188.821L182.944 188.702H179.446H178.535L178.244 188.749Z" fill="#263238"/>
<path d="M230.757 195.911C230.836 195.911 230.757 184.98 230.544 171.52C230.331 158.059 230.128 147.124 230.055 147.129C229.982 147.134 230.055 158.059 230.273 171.52C230.492 184.98 230.685 195.911 230.757 195.911Z" fill="#263238"/>
<path d="M202.198 125.637C202.152 125.694 205.509 128.76 209.699 132.487C213.889 136.214 217.324 139.186 217.376 139.129C217.428 139.071 214.066 136.006 209.876 132.284C205.686 128.562 202.25 125.585 202.198 125.637Z" fill="#F5F5F5"/>
<path d="M203.847 131.54C204.007 131.726 204.181 131.9 204.367 132.06C204.711 132.388 205.216 132.851 205.851 133.413C207.116 134.548 208.885 136.078 210.884 137.723C212.883 139.368 214.731 140.815 216.089 141.84C216.766 142.361 217.318 142.756 217.703 143.032C217.896 143.187 218.104 143.323 218.322 143.438C218.154 143.259 217.969 143.095 217.771 142.949L216.209 141.689C214.887 140.648 213.086 139.16 211.061 137.525C209.036 135.891 207.277 134.371 205.981 133.278L204.42 131.992C204.245 131.821 204.053 131.67 203.847 131.54V131.54Z" fill="#F5F5F5"/>
<path d="M246.196 126.288C246.154 126.35 251.052 129.765 257.126 133.918C263.201 138.072 268.177 141.388 268.218 141.325C268.26 141.263 263.367 137.848 257.288 133.695C251.208 129.541 246.237 126.225 246.196 126.288Z" fill="#F5F5F5"/>
<path d="M241.637 126.079C241.831 126.271 242.042 126.446 242.267 126.6L244.037 127.964L249.882 132.45L255.675 137.005L257.429 138.389C257.637 138.569 257.86 138.729 258.096 138.868C257.912 138.665 257.712 138.477 257.497 138.306C257.102 137.957 256.519 137.463 255.795 136.854C254.348 135.646 252.323 134.002 250.069 132.237C247.816 130.473 245.702 128.911 244.172 127.808C243.407 127.256 242.782 126.819 242.345 126.522C242.123 126.353 241.886 126.205 241.637 126.079V126.079Z" fill="#F5F5F5"/>
<path d="M315.126 141.055C315.173 141.072 315.222 141.082 315.271 141.086L315.688 141.148L317.301 141.367C318.702 141.559 320.726 141.846 323.214 142.273C329.704 143.386 336.116 144.914 342.411 146.848C346.096 147.982 349.557 149.206 352.67 150.418C355.443 151.442 358.145 152.649 360.759 154.031C362.513 154.973 364.14 156.137 365.599 157.492C365.865 157.726 366.078 157.955 366.266 158.148C366.453 158.341 366.614 158.512 366.734 158.668L367.02 158.981C367.051 159.018 367.084 159.053 367.119 159.085C367.119 159.085 367.119 159.038 367.041 158.965L366.776 158.632C366.661 158.486 366.515 158.309 366.328 158.112C366.141 157.914 365.932 157.674 365.672 157.43C364.231 156.037 362.61 154.843 360.852 153.88C358.243 152.469 355.538 151.241 352.758 150.205C349.635 148.977 346.179 147.738 342.489 146.608C336.188 144.668 329.762 143.162 323.256 142.101C320.758 141.7 318.728 141.44 317.322 141.278L315.704 141.112L315.282 141.075C315.231 141.059 315.179 141.052 315.126 141.055Z" fill="#F5F5F5"/>
<path d="M185.489 113.946H185.702L186.332 113.842L188.737 113.426C190.819 113.072 193.859 112.593 197.622 112.14C207.425 110.922 217.324 110.671 227.176 111.391C238.716 112.296 248.98 114.597 256.325 116.398C260.004 117.314 262.966 118.11 265.012 118.673L267.37 119.313L267.984 119.474C268.053 119.497 268.125 119.513 268.197 119.521C268.131 119.489 268.061 119.465 267.989 119.448L267.385 119.261L265.043 118.569C263.003 117.975 260.046 117.148 256.371 116.211C249.022 114.363 238.752 112.047 227.187 111.12C217.319 110.395 207.403 110.672 197.591 111.948C193.822 112.427 190.793 112.937 188.706 113.322C187.665 113.509 186.858 113.681 186.311 113.785L185.687 113.915C185.62 113.919 185.553 113.929 185.489 113.946Z" fill="#F5F5F5"/>
<path d="M272.867 143.725C273.096 143.721 273.324 143.699 273.549 143.657C273.981 143.605 274.59 143.527 275.386 143.49C277.414 143.369 279.447 143.585 281.403 144.131C282.469 144.442 283.471 144.943 284.36 145.609C285.079 146.159 285.68 146.848 286.13 147.634C286.534 148.369 286.795 149.174 286.9 150.007C286.9 150.007 286.9 149.945 286.9 149.83C286.903 149.656 286.892 149.482 286.869 149.31C286.779 148.687 286.582 148.085 286.286 147.53C285.844 146.704 285.236 145.979 284.5 145.401C283.594 144.697 282.565 144.167 281.466 143.839C279.481 143.284 277.413 143.09 275.36 143.267C274.74 143.314 274.123 143.399 273.512 143.522C273.291 143.566 273.074 143.634 272.867 143.725V143.725Z" fill="#F5F5F5"/>
<path d="M234.707 150.788C234.707 150.866 242.275 151.376 251.618 151.933C260.961 152.49 268.54 152.88 268.545 152.807C268.55 152.735 260.982 152.219 251.634 151.662C242.285 151.105 234.712 150.715 234.707 150.788Z" fill="#F5F5F5"/>
<path d="M319.863 157.076C319.908 157.081 319.954 157.081 319.999 157.076L320.379 156.992C320.712 156.93 321.191 156.779 321.831 156.68C323.625 156.347 325.445 156.173 327.27 156.16C329.975 156.11 332.676 156.379 335.317 156.961C338.564 157.624 341.661 158.88 344.452 160.667C347.189 162.535 349.549 164.903 351.406 167.647C352.928 169.884 354.12 172.327 354.946 174.903C355.503 176.64 355.882 178.429 356.075 180.244C356.174 180.884 356.169 181.389 356.205 181.727L356.236 182.112C356.231 182.157 356.231 182.203 356.236 182.247C356.244 182.203 356.244 182.157 356.236 182.112V181.727C356.236 181.383 356.236 180.879 356.158 180.233C356.006 178.405 355.657 176.599 355.117 174.846C354.311 172.241 353.127 169.769 351.604 167.507C349.747 164.704 347.369 162.285 344.598 160.381C341.783 158.574 338.655 157.31 335.374 156.654C332.711 156.082 329.988 155.83 327.265 155.905C325.431 155.943 323.605 156.154 321.81 156.534C321.17 156.649 320.696 156.821 320.363 156.899L319.988 157.008L319.863 157.076Z" fill="#F5F5F5"/>
<path d="M126.49 195.246H126.533C128.214 194.931 132.369 193.819 134.654 190.31C136.175 187.97 136.287 184.858 136.378 182.362C136.723 172.698 137.352 148.578 137.533 141.414C137.572 140.611 137.921 139.854 138.507 139.303C139.093 138.752 139.87 138.45 140.674 138.46C141.478 138.471 142.247 138.793 142.818 139.36C143.389 139.926 143.718 140.692 143.736 141.496V145.88H144.598V141.501C144.581 140.47 144.163 139.486 143.433 138.758C142.703 138.03 141.718 137.615 140.687 137.601C139.656 137.587 138.66 137.975 137.91 138.683C137.16 139.391 136.716 140.363 136.671 141.393C136.49 148.557 135.861 172.677 135.52 182.341C135.434 184.733 135.326 187.707 133.934 189.849C132.481 192.082 129.675 193.78 126.417 194.401L103.728 194.185C100.784 193.577 98.5552 192.655 96.5423 189.97C95.4819 188.552 94.7147 186.655 94.1242 184.009C92.8828 178.461 92.9216 172.591 92.9561 166.914C93.0546 162.857 92.9338 158.798 92.5941 154.755C92.4001 152.854 92.0811 150.875 91.0768 149.25C90.1243 147.716 88.2234 146.376 86.2924 147.095L86.5898 147.906C87.995 147.393 89.5467 148.427 90.3441 149.72C91.2535 151.186 91.551 153.056 91.7363 154.858C92.0731 158.872 92.1925 162.901 92.0941 166.927C92.0596 172.651 92.0208 178.565 93.2794 184.216C93.9001 186.987 94.7147 188.983 95.8656 190.5C98.0466 193.422 100.443 194.409 103.624 195.056H103.706L126.49 195.246Z" fill="#263238"/>
<path d="M49.4125 204.709L75.4863 204.993V139.411H49.4125V204.709Z" fill="#92E3A9"/>
<path opacity="0.3" d="M49.4125 204.709L75.4863 204.993V139.411H49.4125V204.709Z" fill="#252525"/>
<path d="M61.1644 204.836L87.2383 204.993V139.411H61.1644V204.836Z" fill="#92E3A9"/>
<path d="M87.8457 133.881V134.66H60.1707L48.9756 118.477L49.2512 117.388L87.8457 133.881Z" fill="#263238"/>
<path d="M78.5158 134.471H79.4082V139.411H78.5158V134.471Z" fill="#263238"/>
<path d="M58.1953 130.897V139.411H57.1147V129.983L58.1953 130.897Z" fill="#263238"/>
<path d="M76.5193 117.388L87.8457 133.881H60.5775L49.2512 117.388H76.5193Z" fill="#455A64"/>
<path d="M78.5324 133.881C78.5849 133.846 76.03 130.123 72.8452 125.569C69.6603 121.015 67.0092 117.353 66.961 117.392C66.9129 117.432 69.4591 121.146 72.6483 125.704C75.8375 130.263 78.4799 133.916 78.5324 133.881Z" fill="#EBEBEB"/>
<path d="M69.4075 133.881C69.4557 133.846 66.9051 130.123 63.7203 125.569C60.5354 121.015 57.8843 117.353 57.8318 117.392C57.7793 117.432 60.3342 121.146 63.519 125.704C66.7039 130.263 69.355 133.916 69.4075 133.881Z" fill="#EBEBEB"/>
<path d="M81.9023 125.634C81.9023 125.573 75.8476 125.521 68.3798 125.521C60.912 125.521 54.8529 125.573 54.8529 125.634C54.8529 125.696 60.9076 125.748 68.3798 125.748C75.852 125.748 81.9023 125.7 81.9023 125.634Z" fill="#EBEBEB"/>
<path d="M66.4483 146.41H81.3926V163.262H66.4483V146.41Z" fill="#EBEBEB"/>
<path d="M77.6777 168.022C77.6777 168.427 77.8386 168.815 78.1249 169.101C78.4113 169.388 78.7996 169.549 79.2046 169.549C79.5852 169.549 80.5564 169.509 80.5564 169.509C80.7955 169.32 80.9911 169.081 81.13 168.809C81.2689 168.538 81.3478 168.239 81.3613 167.934C81.3551 167.634 81.2645 167.341 81.0997 167.09C80.9349 166.838 80.7026 166.638 80.4295 166.513C80.4295 166.513 79.5195 166.513 79.2046 166.513C78.8026 166.513 78.4169 166.671 78.1311 166.954C77.8453 167.236 77.6824 167.62 77.6777 168.022V168.022Z" fill="#263238"/>
<path d="M80.2251 169.549C79.3819 169.549 78.6983 168.865 78.6983 168.022C78.6983 167.179 79.3819 166.495 80.2251 166.495C81.0684 166.495 81.752 167.179 81.752 168.022C81.752 168.865 81.0684 169.549 80.2251 169.549Z" fill="#455A64"/>
<path d="M72.1152 168.022C72.1152 168.427 72.2761 168.815 72.5624 169.101C72.8488 169.388 73.2371 169.549 73.6421 169.549C74.0227 169.549 74.9939 169.509 74.9939 169.509C75.233 169.32 75.4286 169.081 75.5675 168.809C75.7064 168.538 75.7853 168.239 75.7988 167.934C75.7926 167.634 75.702 167.341 75.5372 167.09C75.3724 166.838 75.1401 166.638 74.867 166.513C74.867 166.513 73.957 166.513 73.6421 166.513C73.2401 166.513 72.8544 166.671 72.5686 166.954C72.2827 167.236 72.1199 167.62 72.1152 168.022V168.022Z" fill="#263238"/>
<path d="M74.6607 169.549C73.8174 169.549 73.1339 168.865 73.1339 168.022C73.1339 167.179 73.8174 166.495 74.6607 166.495C75.5039 166.495 76.1875 167.179 76.1875 168.022C76.1875 168.865 75.5039 169.549 74.6607 169.549Z" fill="#455A64"/>
<path d="M66.6074 168.022C66.6074 168.427 66.7683 168.815 67.0546 169.102C67.341 169.388 67.7293 169.549 68.1342 169.549C68.5148 169.549 69.4861 169.509 69.4861 169.509C69.7252 169.32 69.9208 169.081 70.0597 168.809C70.1986 168.538 70.2775 168.239 70.291 167.934C70.2832 167.635 70.1918 167.344 70.0271 167.095C69.8624 166.845 69.631 166.646 69.3592 166.521C69.3592 166.521 68.4492 166.521 68.1342 166.521C67.7338 166.521 67.3494 166.679 67.0638 166.959C66.7782 167.24 66.6143 167.622 66.6074 168.022V168.022Z" fill="#263238"/>
<path d="M67.6261 168.022C67.6261 168.324 67.7156 168.619 67.8834 168.87C68.0512 169.121 68.2896 169.317 68.5686 169.432C68.8476 169.548 69.1546 169.578 69.4507 169.519C69.7469 169.46 70.019 169.315 70.2325 169.101C70.446 168.888 70.5914 168.616 70.6504 168.32C70.7093 168.023 70.679 167.716 70.5635 167.438C70.4479 167.159 70.2522 166.92 70.0012 166.752C69.7501 166.585 69.4549 166.495 69.1529 166.495C68.9524 166.495 68.7538 166.534 68.5686 166.611C68.3834 166.688 68.215 166.8 68.0733 166.942C67.9315 167.084 67.819 167.252 67.7423 167.438C67.6656 167.623 67.6261 167.821 67.6261 168.022Z" fill="#455A64"/>
<path d="M73.5617 149.963L76.9609 150.011L73.8242 154.836L76.1997 154.867L72.8705 161.499L74.0167 156.569L70.8844 156.529L73.5617 149.963Z" fill="#92E3A9"/>
<path d="M65.0493 201.594C65.0493 201.594 65.0493 201.55 65.0493 201.463C65.0493 201.375 65.0493 201.248 65.0493 201.087C65.0493 200.745 65.0493 200.26 65.0493 199.634C65.0493 198.357 65.0493 196.515 65.0799 194.183C65.0799 189.52 65.1106 182.927 65.1324 175.153L65.0274 175.258H82.776C82.8023 175.284 82.5617 175.048 82.6623 175.153V182.45C82.6623 184.825 82.6623 187.135 82.6623 189.362C82.6623 193.816 82.6623 197.937 82.6623 201.581L82.7541 201.493L69.8485 201.542L66.2743 201.563H65.3337H65.0056C65.0056 201.563 65.1062 201.563 65.3118 201.563H66.2393H69.7916L82.7541 201.612H82.846V201.52C82.846 197.875 82.846 193.754 82.846 189.301C82.846 187.074 82.846 184.764 82.846 182.389V175.166C82.9466 175.262 82.7104 175.017 82.7323 175.043H64.9837H64.8787V175.144C64.8787 182.944 64.9181 189.581 64.9312 194.244C64.9312 196.563 64.9312 198.4 64.9574 199.669C64.9574 200.286 64.9574 200.767 64.9574 201.104C64.9574 201.257 64.9574 201.375 64.9574 201.467C64.9812 201.514 65.0123 201.557 65.0493 201.594V201.594Z" fill="#263238"/>
<path d="M67.51 188.282C67.4837 188.308 67.6106 188.439 67.5625 188.684C67.5525 188.75 67.5286 188.813 67.4924 188.869C67.4562 188.924 67.4085 188.972 67.3525 189.008C67.2832 189.037 67.2074 189.049 67.1325 189.04C67.0576 189.032 66.9862 189.005 66.925 188.961C66.8638 188.917 66.815 188.858 66.7834 188.789C66.7518 188.721 66.7383 188.645 66.7444 188.57C66.7617 188.506 66.7925 188.445 66.8347 188.393C66.8769 188.341 66.9296 188.299 66.9894 188.268C67.2081 188.15 67.3744 188.229 67.3875 188.198C67.4006 188.168 67.2344 188.015 66.9238 188.12C66.8338 188.152 66.7526 188.205 66.6866 188.274C66.6205 188.343 66.5714 188.426 66.5431 188.518C66.513 188.636 66.5204 188.76 66.5643 188.874C66.6082 188.988 66.6864 189.085 66.7881 189.152C66.8836 189.227 66.9998 189.271 67.121 189.278C67.2422 189.285 67.3627 189.255 67.4663 189.192C67.5434 189.136 67.6068 189.063 67.6515 188.979C67.6962 188.894 67.7212 188.801 67.7243 188.706C67.7331 188.395 67.5187 188.255 67.51 188.282Z" fill="#263238"/>
<path d="M371.676 188.334H426.121V198.581H371.676V188.334Z" fill="#7AB089"/>
<path opacity="0.2" d="M371.676 188.334H426.121V189.498H371.676V188.334Z" fill="#252525"/>
<path opacity="0.2" d="M419.989 188.334H422.135V198.581H419.989V188.334Z" fill="#252525"/>
<path opacity="0.2" d="M415.067 188.334H417.213V198.581H415.067V188.334Z" fill="#252525"/>
<path opacity="0.2" d="M410.137 188.334H412.283V198.581H410.137V188.334Z" fill="#252525"/>
<path opacity="0.2" d="M405.213 188.334H407.359V198.581H405.213V188.334Z" fill="#252525"/>
<path opacity="0.2" d="M400.29 188.334H402.436V198.581H400.29V188.334Z" fill="#252525"/>
<path opacity="0.2" d="M395.36 188.334H397.506V198.581H395.36V188.334Z" fill="#252525"/>
<path opacity="0.2" d="M390.436 188.334H392.582V198.581H390.436V188.334Z" fill="#252525"/>
<path opacity="0.2" d="M385.512 188.334H387.658V198.581H385.512V188.334Z" fill="#252525"/>
<path opacity="0.2" d="M380.581 188.334H382.727V198.581H380.581V188.334Z" fill="#252525"/>
<path opacity="0.2" d="M375.659 188.334H377.805V198.581H375.659V188.334Z" fill="#252525"/>
<path d="M373.889 178.087H428.334V188.334H373.889V178.087Z" fill="#7AB089"/>
<path opacity="0.2" d="M373.889 178.087H428.334V179.251H373.889V178.087Z" fill="#252525"/>
<path opacity="0.2" d="M422.21 178.087H424.355V188.334H422.21V178.087Z" fill="#252525"/>
<path opacity="0.2" d="M417.278 178.087H419.424V188.334H417.278V178.087Z" fill="#252525"/>
<path opacity="0.2" d="M412.354 178.087H414.5V188.334H412.354V178.087Z" fill="#252525"/>
<path opacity="0.2" d="M407.43 178.087H409.576V188.334H407.43V178.087Z" fill="#252525"/>
<path opacity="0.2" d="M402.501 178.087H404.646V188.334H402.501V178.087Z" fill="#252525"/>
<path opacity="0.2" d="M397.579 178.087H399.725V188.334H397.579V178.087Z" fill="#252525"/>
<path opacity="0.2" d="M392.653 178.087H394.799V188.334H392.653V178.087Z" fill="#252525"/>
<path opacity="0.2" d="M387.725 178.087H389.871V188.334H387.725V178.087Z" fill="#252525"/>
<path opacity="0.2" d="M382.799 178.087H384.945V188.334H382.799V178.087Z" fill="#252525"/>
<path opacity="0.2" d="M377.878 178.087H380.023V188.334H377.878V178.087Z" fill="#252525"/>
<path d="M375.459 167.84H429.904V178.087H375.459V167.84Z" fill="#7AB089"/>
<path opacity="0.2" d="M375.459 167.84H429.904V169.004H375.459V167.84Z" fill="#252525"/>
<path opacity="0.2" d="M423.772 167.84H425.918V178.087H423.772V167.84Z" fill="#252525"/>
<path opacity="0.2" d="M418.848 167.84H420.994V178.087H418.848V167.84Z" fill="#252525"/>
<path opacity="0.2" d="M413.919 167.84H416.064V178.087H413.919V167.84Z" fill="#252525"/>
<path opacity="0.2" d="M408.995 167.84H411.141V178.087H408.995V167.84Z" fill="#252525"/>
<path opacity="0.2" d="M404.071 167.84H406.217V178.087H404.071V167.84Z" fill="#252525"/>
<path opacity="0.2" d="M399.141 167.84H401.287V178.087H399.141V167.84Z" fill="#252525"/>
<path opacity="0.2" d="M394.217 167.84H396.363V178.087H394.217V167.84Z" fill="#252525"/>
<path opacity="0.2" d="M389.294 167.84H391.439V178.087H389.294V167.84Z" fill="#252525"/>
<path opacity="0.2" d="M384.364 167.84H386.51V178.087H384.364V167.84Z" fill="#252525"/>
<path opacity="0.2" d="M379.44 167.84H381.586V178.087H379.44V167.84Z" fill="#252525"/>
<path d="M372.992 157.598H427.438V167.845H372.992V157.598Z" fill="#7AB089"/>
<path opacity="0.2" d="M372.992 157.598H427.438V158.763H372.992V157.598Z" fill="#252525"/>
<path opacity="0.2" d="M421.309 157.598H423.455V167.845H421.309V157.598Z" fill="#252525"/>
<path opacity="0.2" d="M416.381 157.598H418.527V167.845H416.381V157.598Z" fill="#252525"/>
<path opacity="0.2" d="M411.456 157.598H413.602V167.845H411.456V157.598Z" fill="#252525"/>
<path opacity="0.2" d="M406.534 157.598H408.68V167.845H406.534V157.598Z" fill="#252525"/>
<path opacity="0.2" d="M401.602 157.598H403.748V167.845H401.602V157.598Z" fill="#252525"/>
<path opacity="0.2" d="M396.678 157.598H398.824V167.845H396.678V157.598Z" fill="#252525"/>
<path opacity="0.2" d="M391.755 157.598H393.9V167.845H391.755V157.598Z" fill="#252525"/>
<path opacity="0.2" d="M386.827 157.598H388.973V167.845H386.827V157.598Z" fill="#252525"/>
<path opacity="0.2" d="M381.903 157.598H384.049V167.845H381.903V157.598Z" fill="#252525"/>
<path opacity="0.2" d="M376.979 157.598H379.125V167.845H376.979V157.598Z" fill="#252525"/>
<path d="M429.826 157.593H375.381V147.346H429.826V157.593Z" fill="#7AB089"/>
<path opacity="0.2" d="M429.826 148.51H375.381V147.346H429.826V148.51Z" fill="#252525"/>
<path opacity="0.2" d="M381.515 157.593H379.369V147.346H381.515V157.593Z" fill="#252525"/>
<path opacity="0.2" d="M386.443 157.593H384.297V147.346H386.443V157.593Z" fill="#252525"/>
<path opacity="0.2" d="M391.367 157.593H389.221V147.346H391.367V157.593Z" fill="#252525"/>
<path opacity="0.2" d="M396.29 157.593H394.145V147.346H396.29V157.593Z" fill="#252525"/>
<path opacity="0.2" d="M401.22 157.593H399.074V147.346H401.22V157.593Z" fill="#252525"/>
<path opacity="0.2" d="M406.146 157.593H404V147.346H406.146V157.593Z" fill="#252525"/>
<path opacity="0.2" d="M411.068 157.593H408.922V147.346H411.068V157.593Z" fill="#252525"/>
<path opacity="0.2" d="M415.997 157.593H413.852V147.346H415.997V157.593Z" fill="#252525"/>
<path opacity="0.2" d="M420.921 157.593H418.775V147.346H420.921V157.593Z" fill="#252525"/>
<path opacity="0.2" d="M425.847 157.593H423.701V147.346H425.847V157.593Z" fill="#252525"/>
<path d="M427.613 147.351H373.168V137.104H427.613V147.351Z" fill="#7AB089"/>
<path opacity="0.2" d="M427.613 138.269H373.168V137.104H427.613V138.269Z" fill="#252525"/>
<path opacity="0.2" d="M379.302 147.351H377.156V137.104H379.302V147.351Z" fill="#252525"/>
<path opacity="0.2" d="M384.22 147.351H382.074V137.104H384.22V147.351Z" fill="#252525"/>
<path opacity="0.2" d="M389.148 147.351H387.002V137.104H389.148V147.351Z" fill="#252525"/>
<path opacity="0.2" d="M394.079 147.351H391.934V137.104H394.079V147.351Z" fill="#252525"/>
<path opacity="0.2" d="M398.997 147.351H396.852V137.104H398.997V147.351Z" fill="#252525"/>
<path opacity="0.2" d="M403.927 147.351H401.781V137.104H403.927V147.351Z" fill="#252525"/>
<path opacity="0.2" d="M408.857 147.351H406.711V137.104H408.857V147.351Z" fill="#252525"/>
<path opacity="0.2" d="M413.775 147.351H411.629V137.104H413.775V147.351Z" fill="#252525"/>
<path opacity="0.2" d="M418.703 147.351H416.557V137.104H418.703V147.351Z" fill="#252525"/>
<path opacity="0.2" d="M423.632 147.351H421.486V137.104H423.632V147.351Z" fill="#252525"/>
<path d="M426.045 137.104H371.6V126.857H426.045V137.104Z" fill="#7AB089"/>
<path opacity="0.2" d="M426.045 128.022H371.6V126.858H426.045V128.022Z" fill="#252525"/>
<path opacity="0.2" d="M377.732 137.104H375.586V126.857H377.732V137.104Z" fill="#252525"/>
<path opacity="0.2" d="M382.662 137.104H380.516V126.857H382.662V137.104Z" fill="#252525"/>
<path opacity="0.2" d="M387.587 137.104H385.441V126.857H387.587V137.104Z" fill="#252525"/>
<path opacity="0.2" d="M392.509 137.104H390.363V126.857H392.509V137.104Z" fill="#252525"/>
<path opacity="0.2" d="M397.437 137.104H395.291V126.857H397.437V137.104Z" fill="#252525"/>
<path opacity="0.2" d="M402.363 137.104H400.217V126.857H402.363V137.104Z" fill="#252525"/>
<path opacity="0.2" d="M407.287 137.104H405.141V126.857H407.287V137.104Z" fill="#252525"/>
<path opacity="0.2" d="M412.216 137.104H410.07V126.857H412.216V137.104Z" fill="#252525"/>
<path opacity="0.2" d="M417.14 137.104H414.994V126.857H417.14V137.104Z" fill="#252525"/>
<path opacity="0.2" d="M422.064 137.104H419.918V126.857H422.064V137.104Z" fill="#252525"/>
<path d="M428.514 126.857H374.068V116.61H428.514V126.857Z" fill="#7AB089"/>
<path opacity="0.2" d="M428.514 117.775H374.068V116.611H428.514V117.775Z" fill="#252525"/>
<path opacity="0.2" d="M380.201 126.857H378.055V116.61H380.201V126.857Z" fill="#252525"/>
<path opacity="0.2" d="M385.119 126.857H382.973V116.61H385.119V126.857Z" fill="#252525"/>
<path opacity="0.2" d="M390.048 126.857H387.902V116.61H390.048V126.857Z" fill="#252525"/>
<path opacity="0.2" d="M394.976 126.857H392.83V116.61H394.976V126.857Z" fill="#252525"/>
<path opacity="0.2" d="M399.894 126.857H397.748V116.61H399.894V126.857Z" fill="#252525"/>
<path opacity="0.2" d="M404.824 126.857H402.678V116.61H404.824V126.857Z" fill="#252525"/>
<path opacity="0.2" d="M409.753 126.857H407.607V116.61H409.753V126.857Z" fill="#252525"/>
<path opacity="0.2" d="M414.673 126.857H412.527V116.61H414.673V126.857Z" fill="#252525"/>
<path opacity="0.2" d="M419.603 126.857H417.457V116.61H419.603V126.857Z" fill="#252525"/>
<path opacity="0.2" d="M424.531 126.857H422.385V116.61H424.531V126.857Z" fill="#252525"/>
<path d="M371.676 106.706H426.121V116.953H371.676V106.706Z" fill="#7AB089"/>
<path opacity="0.2" d="M371.676 106.706H426.121V107.871H371.676V106.706Z" fill="#252525"/>
<path opacity="0.2" d="M419.989 106.706H422.135V116.953H419.989V106.706Z" fill="#252525"/>
<path opacity="0.2" d="M415.067 106.706H417.213V116.953H415.067V106.706Z" fill="#252525"/>
<path opacity="0.2" d="M410.137 106.706H412.283V116.953H410.137V106.706Z" fill="#252525"/>
<path opacity="0.2" d="M405.213 106.706H407.359V116.953H405.213V106.706Z" fill="#252525"/>
<path opacity="0.2" d="M400.29 106.706H402.436V116.953H400.29V106.706Z" fill="#252525"/>
<path opacity="0.2" d="M395.36 106.706H397.506V116.953H395.36V106.706Z" fill="#252525"/>
<path opacity="0.2" d="M390.436 106.706H392.582V116.953H390.436V106.706Z" fill="#252525"/>
<path opacity="0.2" d="M385.512 106.706H387.658V116.953H385.512V106.706Z" fill="#252525"/>
<path opacity="0.2" d="M380.581 106.706H382.727V116.953H380.581V106.706Z" fill="#252525"/>
<path opacity="0.2" d="M375.659 106.706H377.805V116.953H375.659V106.706Z" fill="#252525"/>
<path d="M373.889 96.4595H428.334V106.706H373.889V96.4595Z" fill="#7AB089"/>
<path opacity="0.2" d="M373.889 96.4595H428.334V97.6239H373.889V96.4595Z" fill="#252525"/>
<path opacity="0.2" d="M422.21 96.4595H424.355V106.706H422.21V96.4595Z" fill="#252525"/>
<path opacity="0.2" d="M417.278 96.4595H419.424V106.706H417.278V96.4595Z" fill="#252525"/>
<path opacity="0.2" d="M412.354 96.4595H414.5V106.706H412.354V96.4595Z" fill="#252525"/>
<path opacity="0.2" d="M407.43 96.4595H409.576V106.706H407.43V96.4595Z" fill="#252525"/>
<path opacity="0.2" d="M402.501 96.4595H404.646V106.706H402.501V96.4595Z" fill="#252525"/>
<path opacity="0.2" d="M397.579 96.4595H399.725V106.706H397.579V96.4595Z" fill="#252525"/>
<path opacity="0.2" d="M392.653 96.4595H394.799V106.706H392.653V96.4595Z" fill="#252525"/>
<path opacity="0.2" d="M387.725 96.4595H389.871V106.706H387.725V96.4595Z" fill="#252525"/>
<path opacity="0.2" d="M382.799 96.4595H384.945V106.706H382.799V96.4595Z" fill="#252525"/>
<path opacity="0.2" d="M377.878 96.4595H380.023V106.706H377.878V96.4595Z" fill="#252525"/>
<path d="M375.459 86.2125H429.904V96.4595H375.459V86.2125Z" fill="#7AB089"/>
<path opacity="0.2" d="M375.459 86.2125H429.904V87.377H375.459V86.2125Z" fill="#252525"/>
<path opacity="0.2" d="M423.772 86.2125H425.918V96.4595H423.772V86.2125Z" fill="#252525"/>
<path opacity="0.2" d="M418.848 86.2125H420.994V96.4595H418.848V86.2125Z" fill="#252525"/>
<path opacity="0.2" d="M413.919 86.2125H416.064V96.4595H413.919V86.2125Z" fill="#252525"/>
<path opacity="0.2" d="M408.995 86.2125H411.141V96.4595H408.995V86.2125Z" fill="#252525"/>
<path opacity="0.2" d="M404.071 86.2125H406.217V96.4595H404.071V86.2125Z" fill="#252525"/>
<path opacity="0.2" d="M399.141 86.2125H401.287V96.4595H399.141V86.2125Z" fill="#252525"/>
<path opacity="0.2" d="M394.217 86.2125H396.363V96.4595H394.217V86.2125Z" fill="#252525"/>
<path opacity="0.2" d="M389.294 86.2125H391.439V96.4595H389.294V86.2125Z" fill="#252525"/>
<path opacity="0.2" d="M384.364 86.2125H386.51V96.4595H384.364V86.2125Z" fill="#252525"/>
<path opacity="0.2" d="M379.44 86.2125H381.586V96.4595H379.44V86.2125Z" fill="#252525"/>
<path d="M372.992 75.9711H427.438V86.2181H372.992V75.9711Z" fill="#7AB089"/>
<path opacity="0.2" d="M372.992 75.9711H427.438V77.1355H372.992V75.9711Z" fill="#252525"/>
<path opacity="0.2" d="M421.309 75.9711H423.455V86.2181H421.309V75.9711Z" fill="#252525"/>
<path opacity="0.2" d="M416.381 75.9711H418.527V86.2181H416.381V75.9711Z" fill="#252525"/>
<path opacity="0.2" d="M411.456 75.9711H413.602V86.2181H411.456V75.9711Z" fill="#252525"/>
<path opacity="0.2" d="M406.534 75.9711H408.68V86.2181H406.534V75.9711Z" fill="#252525"/>
<path opacity="0.2" d="M401.602 75.9711H403.748V86.2181H401.602V75.9711Z" fill="#252525"/>
<path opacity="0.2" d="M396.678 75.9711H398.824V86.2181H396.678V75.9711Z" fill="#252525"/>
<path opacity="0.2" d="M391.755 75.9711H393.9V86.2181H391.755V75.9711Z" fill="#252525"/>
<path opacity="0.2" d="M386.827 75.9711H388.973V86.2181H386.827V75.9711Z" fill="#252525"/>
<path opacity="0.2" d="M381.903 75.9711H384.049V86.2181H381.903V75.9711Z" fill="#252525"/>
<path opacity="0.2" d="M376.979 75.9711H379.125V86.2181H376.979V75.9711Z" fill="#252525"/>
<path d="M429.826 75.9656H375.381V65.7186H429.826V75.9656Z" fill="#7AB089"/>
<path opacity="0.2" d="M429.826 66.8829H375.381V65.7185H429.826V66.8829Z" fill="#252525"/>
<path opacity="0.2" d="M381.515 75.9656H379.369V65.7186H381.515V75.9656Z" fill="#252525"/>
<path opacity="0.2" d="M386.443 75.9656H384.297V65.7186H386.443V75.9656Z" fill="#252525"/>
<path opacity="0.2" d="M391.367 75.9656H389.221V65.7186H391.367V75.9656Z" fill="#252525"/>
<path opacity="0.2" d="M396.29 75.9656H394.145V65.7186H396.29V75.9656Z" fill="#252525"/>
<path opacity="0.2" d="M401.22 75.9656H399.074V65.7186H401.22V75.9656Z" fill="#252525"/>
<path opacity="0.2" d="M406.146 75.9656H404V65.7186H406.146V75.9656Z" fill="#252525"/>
<path opacity="0.2" d="M411.068 75.9656H408.922V65.7186H411.068V75.9656Z" fill="#252525"/>
<path opacity="0.2" d="M415.997 75.9656H413.852V65.7186H415.997V75.9656Z" fill="#252525"/>
<path opacity="0.2" d="M420.921 75.9656H418.775V65.7186H420.921V75.9656Z" fill="#252525"/>
<path opacity="0.2" d="M425.847 75.9656H423.701V65.7186H425.847V75.9656Z" fill="#252525"/>
<path d="M427.613 65.7241H373.168V55.4772L427.613 55.4772V65.7241Z" fill="#7AB089"/>
<path opacity="0.2" d="M427.613 56.6415L373.168 56.6415V55.477L427.613 55.477V56.6415Z" fill="#252525"/>
<path opacity="0.2" d="M379.302 65.7241H377.156V55.4772H379.302V65.7241Z" fill="#252525"/>
<path opacity="0.2" d="M384.22 65.7241H382.074V55.4772H384.22V65.7241Z" fill="#252525"/>
<path opacity="0.2" d="M389.148 65.7241H387.002V55.4772H389.148V65.7241Z" fill="#252525"/>
<path opacity="0.2" d="M394.079 65.7241H391.934V55.4772H394.079V65.7241Z" fill="#252525"/>
<path opacity="0.2" d="M398.997 65.7241H396.852V55.4772H398.997V65.7241Z" fill="#252525"/>
<path opacity="0.2" d="M403.927 65.7241H401.781V55.4772H403.927V65.7241Z" fill="#252525"/>
<path opacity="0.2" d="M408.857 65.7241H406.711V55.4772H408.857V65.7241Z" fill="#252525"/>
<path opacity="0.2" d="M413.775 65.7241H411.629V55.4772H413.775V65.7241Z" fill="#252525"/>
<path opacity="0.2" d="M418.703 65.7241H416.557V55.4772H418.703V65.7241Z" fill="#252525"/>
<path opacity="0.2" d="M423.632 65.7241H421.486V55.4772H423.632V65.7241Z" fill="#252525"/>
<path d="M426.045 55.4771L371.6 55.4771V45.2301L426.045 45.2301V55.4771Z" fill="#7AB089"/>
<path opacity="0.2" d="M426.045 46.3947L371.6 46.3947V45.2302L426.045 45.2302V46.3947Z" fill="#252525"/>
<path opacity="0.2" d="M377.732 55.4771H375.586V45.2301H377.732V55.4771Z" fill="#252525"/>
<path opacity="0.2" d="M382.662 55.4771H380.516V45.2301H382.662V55.4771Z" fill="#252525"/>
<path opacity="0.2" d="M387.587 55.4771H385.441V45.2301H387.587V55.4771Z" fill="#252525"/>
<path opacity="0.2" d="M392.509 55.4771H390.363V45.2301H392.509V55.4771Z" fill="#252525"/>
<path opacity="0.2" d="M397.437 55.4771H395.291V45.2301H397.437V55.4771Z" fill="#252525"/>
<path opacity="0.2" d="M402.363 55.4771H400.217V45.2301H402.363V55.4771Z" fill="#252525"/>
<path opacity="0.2" d="M407.287 55.4771H405.141V45.2301H407.287V55.4771Z" fill="#252525"/>
<path opacity="0.2" d="M412.216 55.4771H410.07V45.2301H412.216V55.4771Z" fill="#252525"/>
<path opacity="0.2" d="M417.14 55.4771H414.994V45.2301H417.14V55.4771Z" fill="#252525"/>
<path opacity="0.2" d="M422.064 55.4771H419.918V45.2301H422.064V55.4771Z" fill="#252525"/>
<path d="M428.514 45.2301L374.068 45.2301V34.9831L428.514 34.9831V45.2301Z" fill="#7AB089"/>
<path opacity="0.2" d="M428.514 36.1477L374.068 36.1477V34.9833L428.514 34.9833V36.1477Z" fill="#252525"/>
<path opacity="0.2" d="M380.201 45.2301H378.055V34.9831H380.201V45.2301Z" fill="#252525"/>
<path opacity="0.2" d="M385.119 45.2301H382.973V34.9831H385.119V45.2301Z" fill="#252525"/>
<path opacity="0.2" d="M390.048 45.2301H387.902V34.9831H390.048V45.2301Z" fill="#252525"/>
<path opacity="0.2" d="M394.976 45.2301H392.83V34.9831H394.976V45.2301Z" fill="#252525"/>
<path opacity="0.2" d="M399.894 45.2301H397.748V34.9831H399.894V45.2301Z" fill="#252525"/>
<path opacity="0.2" d="M404.824 45.2301H402.678V34.9831H404.824V45.2301Z" fill="#252525"/>
<path opacity="0.2" d="M409.753 45.2301H407.607V34.9831H409.753V45.2301Z" fill="#252525"/>
<path opacity="0.2" d="M414.673 45.2301H412.527V34.9831H414.673V45.2301Z" fill="#252525"/>
<path opacity="0.2" d="M419.603 45.2301H417.457V34.9831H419.603V45.2301Z" fill="#252525"/>
<path opacity="0.2" d="M424.531 45.2301H422.385V34.9831H424.531V45.2301Z" fill="#252525"/>
<path d="M396.398 196.885H341.953V207.132H396.398V196.885Z" fill="#92E3A9"/>
<path opacity="0.2" d="M396.398 196.885H341.953V198.05H396.398V196.885Z" fill="#252525"/>
<path opacity="0.2" d="M348.085 196.885H345.939V207.132H348.085V196.885Z" fill="#252525"/>
<path opacity="0.2" d="M353.007 196.885H350.861V207.132H353.007V196.885Z" fill="#252525"/>
<path opacity="0.2" d="M357.937 196.885H355.791V207.132H357.937V196.885Z" fill="#252525"/>
<path opacity="0.2" d="M362.861 196.885H360.715V207.132H362.861V196.885Z" fill="#252525"/>
<path opacity="0.2" d="M367.785 196.885H365.639V207.132H367.785V196.885Z" fill="#252525"/>
<path opacity="0.2" d="M372.714 196.885H370.568V207.132H372.714V196.885Z" fill="#252525"/>
<path opacity="0.2" d="M377.638 196.885H375.492V207.132H377.638V196.885Z" fill="#252525"/>
<path opacity="0.2" d="M382.562 196.885H380.416V207.132H382.562V196.885Z" fill="#252525"/>
<path opacity="0.2" d="M387.494 196.885H385.348V207.132H387.494V196.885Z" fill="#252525"/>
<path opacity="0.2" d="M392.415 196.885H390.27V207.132H392.415V196.885Z" fill="#252525"/>
<path d="M394.186 186.638H339.74V196.885H394.186V186.638Z" fill="#92E3A9"/>
<path opacity="0.2" d="M394.186 186.638H339.74V187.803H394.186V186.638Z" fill="#252525"/>
<path opacity="0.2" d="M345.865 186.638H343.719V196.885H345.865V186.638Z" fill="#252525"/>
<path opacity="0.2" d="M350.796 186.638H348.65V196.885H350.796V186.638Z" fill="#252525"/>
<path opacity="0.2" d="M355.72 186.638H353.574V196.885H355.72V186.638Z" fill="#252525"/>
<path opacity="0.2" d="M360.644 186.638H358.498V196.885H360.644V186.638Z" fill="#252525"/>
<path opacity="0.2" d="M365.574 186.638H363.428V196.885H365.574V186.638Z" fill="#252525"/>
<path opacity="0.2" d="M370.495 186.638H368.35V196.885H370.495V186.638Z" fill="#252525"/>
<path opacity="0.2" d="M375.421 186.638H373.275V196.885H375.421V186.638Z" fill="#252525"/>
<path opacity="0.2" d="M380.349 186.638H378.203V196.885H380.349V186.638Z" fill="#252525"/>
<path opacity="0.2" d="M385.275 186.638H383.129V196.885H385.275V186.638Z" fill="#252525"/>
<path opacity="0.2" d="M390.197 186.638H388.051V196.885H390.197V186.638Z" fill="#252525"/>
<path d="M392.615 176.391H338.17V186.638H392.615V176.391Z" fill="#92E3A9"/>
<path opacity="0.2" d="M392.615 176.391H338.17V177.556H392.615V176.391Z" fill="#252525"/>
<path opacity="0.2" d="M344.302 176.391H342.156V186.638H344.302V176.391Z" fill="#252525"/>
<path opacity="0.2" d="M349.226 176.391H347.08V186.638H349.226V176.391Z" fill="#252525"/>
<path opacity="0.2" d="M354.156 176.391H352.01V186.638H354.156V176.391Z" fill="#252525"/>
<path opacity="0.2" d="M359.079 176.391H356.934V186.638H359.079V176.391Z" fill="#252525"/>
<path opacity="0.2" d="M364.003 176.391H361.857V186.638H364.003V176.391Z" fill="#252525"/>
<path opacity="0.2" d="M368.933 176.391H366.787V186.638H368.933V176.391Z" fill="#252525"/>
<path opacity="0.2" d="M373.857 176.391H371.711V186.638H373.857V176.391Z" fill="#252525"/>
<path opacity="0.2" d="M378.781 176.391H376.635V186.638H378.781V176.391Z" fill="#252525"/>
<path opacity="0.2" d="M383.71 176.391H381.564V186.638H383.71V176.391Z" fill="#252525"/>
<path opacity="0.2" d="M388.634 176.391H386.488V186.638H388.634V176.391Z" fill="#252525"/>
<path d="M395.082 166.15H340.637V176.397H395.082V166.15Z" fill="#92E3A9"/>
<path opacity="0.2" d="M395.082 166.15H340.637V167.314H395.082V166.15Z" fill="#252525"/>
<path opacity="0.2" d="M346.765 166.15H344.619V176.397H346.765V166.15Z" fill="#252525"/>
<path opacity="0.2" d="M351.693 166.15H349.547V176.397H351.693V166.15Z" fill="#252525"/>
<path opacity="0.2" d="M356.619 166.15H354.473V176.397H356.619V166.15Z" fill="#252525"/>
<path opacity="0.2" d="M361.54 166.15H359.395V176.397H361.54V166.15Z" fill="#252525"/>
<path opacity="0.2" d="M366.472 166.15H364.326V176.397H366.472V166.15Z" fill="#252525"/>
<path opacity="0.2" d="M371.396 166.15H369.25V176.397H371.396V166.15Z" fill="#252525"/>
<path opacity="0.2" d="M376.32 166.15H374.174V176.397H376.32V166.15Z" fill="#252525"/>
<path opacity="0.2" d="M381.247 166.15H379.102V176.397H381.247V166.15Z" fill="#252525"/>
<path opacity="0.2" d="M386.171 166.15H384.025V176.397H386.171V166.15Z" fill="#252525"/>
<path opacity="0.2" d="M391.095 166.15H388.949V176.397H391.095V166.15Z" fill="#252525"/>
<path d="M338.248 166.144H392.693V155.897H338.248V166.144Z" fill="#92E3A9"/>
<path opacity="0.2" d="M338.248 157.062H392.693V155.897H338.248V157.062Z" fill="#252525"/>
<path opacity="0.2" d="M386.559 166.144H388.705V155.897H386.559V166.144Z" fill="#252525"/>
<path opacity="0.2" d="M381.631 166.144H383.777V155.897H381.631V166.144Z" fill="#252525"/>
<path opacity="0.2" d="M376.708 166.144H378.854V155.897H376.708V166.144Z" fill="#252525"/>
<path opacity="0.2" d="M371.784 166.144H373.93V155.897H371.784V166.144Z" fill="#252525"/>
<path opacity="0.2" d="M366.854 166.144H369V155.897H366.854V166.144Z" fill="#252525"/>
<path opacity="0.2" d="M361.928 166.144H364.074V155.897H361.928V166.144Z" fill="#252525"/>
<path opacity="0.2" d="M357.006 166.144H359.152V155.897H357.006V166.144Z" fill="#252525"/>
<path opacity="0.2" d="M352.077 166.144H354.223V155.897H352.077V166.144Z" fill="#252525"/>
<path opacity="0.2" d="M347.153 166.144H349.299V155.897H347.153V166.144Z" fill="#252525"/>
<path opacity="0.2" d="M342.227 166.144H344.373V155.897H342.227V166.144Z" fill="#252525"/>
<path d="M340.461 155.903H394.906V145.656H340.461V155.903Z" fill="#92E3A9"/>
<path opacity="0.2" d="M340.461 146.82H394.906V145.656H340.461V146.82Z" fill="#252525"/>
<path opacity="0.2" d="M388.772 155.903H390.918V145.656H388.772V155.903Z" fill="#252525"/>
<path opacity="0.2" d="M383.854 155.903H386V145.656H383.854V155.903Z" fill="#252525"/>
<path opacity="0.2" d="M378.926 155.903H381.072V145.656H378.926V155.903Z" fill="#252525"/>
<path opacity="0.2" d="M373.995 155.903H376.141V145.656H373.995V155.903Z" fill="#252525"/>
<path opacity="0.2" d="M369.077 155.903H371.223V145.656H369.077V155.903Z" fill="#252525"/>
<path opacity="0.2" d="M364.147 155.903H366.293V145.656H364.147V155.903Z" fill="#252525"/>
<path opacity="0.2" d="M359.217 155.903H361.363V145.656H359.217V155.903Z" fill="#252525"/>
<path opacity="0.2" d="M354.299 155.903H356.445V145.656H354.299V155.903Z" fill="#252525"/>
<path opacity="0.2" d="M349.372 155.903H351.518V145.656H349.372V155.903Z" fill="#252525"/>
<path opacity="0.2" d="M344.442 155.903H346.588V145.656H344.442V155.903Z" fill="#252525"/>
<path d="M342.029 145.656H396.475V135.409H342.029V145.656Z" fill="#92E3A9"/>
<path opacity="0.2" d="M342.029 136.573H396.475V135.409H342.029V136.573Z" fill="#252525"/>
<path opacity="0.2" d="M390.342 145.656H392.488V135.409H390.342V145.656Z" fill="#252525"/>
<path opacity="0.2" d="M385.413 145.656H387.559V135.409H385.413V145.656Z" fill="#252525"/>
<path opacity="0.2" d="M380.487 145.656H382.633V135.409H380.487V145.656Z" fill="#252525"/>
<path opacity="0.2" d="M375.565 145.656H377.711V135.409H375.565V145.656Z" fill="#252525"/>
<path opacity="0.2" d="M370.637 145.656H372.783V135.409H370.637V145.656Z" fill="#252525"/>
<path opacity="0.2" d="M365.712 145.656H367.857V135.409H365.712V145.656Z" fill="#252525"/>
<path opacity="0.2" d="M360.788 145.656H362.934V135.409H360.788V145.656Z" fill="#252525"/>
<path opacity="0.2" d="M355.858 145.656H358.004V135.409H355.858V145.656Z" fill="#252525"/>
<path opacity="0.2" d="M350.934 145.656H353.08V135.409H350.934V145.656Z" fill="#252525"/>
<path opacity="0.2" d="M346.01 145.656H348.156V135.409H346.01V145.656Z" fill="#252525"/>
<path d="M339.56 135.409H394.006V125.162H339.56V135.409Z" fill="#92E3A9"/>
<path opacity="0.2" d="M339.56 126.326H394.006V125.162H339.56V126.326Z" fill="#252525"/>
<path opacity="0.2" d="M387.874 135.409H390.02V125.162H387.874V135.409Z" fill="#252525"/>
<path opacity="0.2" d="M382.956 135.409H385.102V125.162H382.956V135.409Z" fill="#252525"/>
<path opacity="0.2" d="M378.026 135.409H380.172V125.162H378.026V135.409Z" fill="#252525"/>
<path opacity="0.2" d="M373.098 135.409H375.244V125.162H373.098V135.409Z" fill="#252525"/>
<path opacity="0.2" d="M368.18 135.409H370.326V125.162H368.18V135.409Z" fill="#252525"/>
<path opacity="0.2" d="M363.251 135.409H365.396V125.162H363.251V135.409Z" fill="#252525"/>
<path opacity="0.2" d="M358.321 135.409H360.467V125.162H358.321V135.409Z" fill="#252525"/>
<path opacity="0.2" d="M353.401 135.409H355.547V125.162H353.401V135.409Z" fill="#252525"/>
<path opacity="0.2" d="M348.471 135.409H350.617V125.162H348.471V135.409Z" fill="#252525"/>
<path opacity="0.2" d="M343.544 135.409H345.689V125.162H343.544V135.409Z" fill="#252525"/>
<path d="M58.2286 196.885H3.7832V207.132H58.2286V196.885Z" fill="#92E3A9"/>
<path opacity="0.2" d="M58.2286 196.885H3.7832V198.05H58.2286V196.885Z" fill="#252525"/>
<path opacity="0.2" d="M9.91541 196.885H7.76953V207.132H9.91541V196.885Z" fill="#252525"/>
<path opacity="0.2" d="M14.8373 196.885H12.6914V207.132H14.8373V196.885Z" fill="#252525"/>
<path opacity="0.2" d="M19.767 196.885H17.6211V207.132H19.767V196.885Z" fill="#252525"/>
<path opacity="0.2" d="M24.6908 196.885H22.5449V207.132H24.6908V196.885Z" fill="#252525"/>
<path opacity="0.2" d="M29.6146 196.885H27.4688V207.132H29.6146V196.885Z" fill="#252525"/>
<path opacity="0.2" d="M34.5443 196.885H32.3984V207.132H34.5443V196.885Z" fill="#252525"/>
<path opacity="0.2" d="M39.4681 196.885H37.3223V207.132H39.4681V196.885Z" fill="#252525"/>
<path opacity="0.2" d="M44.392 196.885H42.2461V207.132H44.392V196.885Z" fill="#252525"/>
<path opacity="0.2" d="M49.3236 196.885H47.1777V207.132H49.3236V196.885Z" fill="#252525"/>
<path opacity="0.2" d="M54.2455 196.885H52.0996V207.132H54.2455V196.885Z" fill="#252525"/>
<path d="M56.0157 186.638H1.57031V196.885H56.0157V186.638Z" fill="#92E3A9"/>
<path opacity="0.2" d="M56.0157 186.638H1.57031V187.803H56.0157V186.638Z" fill="#252525"/>
<path opacity="0.2" d="M7.69471 186.638H5.54883V196.885H7.69471V186.638Z" fill="#252525"/>
<path opacity="0.2" d="M12.6263 186.638H10.4805V196.885H12.6263V186.638Z" fill="#252525"/>
<path opacity="0.2" d="M17.5502 186.638H15.4043V196.885H17.5502V186.638Z" fill="#252525"/>
<path opacity="0.2" d="M22.474 186.638H20.3281V196.885H22.474V186.638Z" fill="#252525"/>
<path opacity="0.2" d="M27.4037 186.638H25.2578V196.885H27.4037V186.638Z" fill="#252525"/>
<path opacity="0.2" d="M32.3256 186.638H30.1797V196.885H32.3256V186.638Z" fill="#252525"/>
<path opacity="0.2" d="M37.2513 186.638H35.1055V196.885H37.2513V186.638Z" fill="#252525"/>
<path opacity="0.2" d="M42.1791 186.638H40.0332V196.885H42.1791V186.638Z" fill="#252525"/>
<path opacity="0.2" d="M47.1049 186.638H44.959V196.885H47.1049V186.638Z" fill="#252525"/>
<path opacity="0.2" d="M52.0267 186.638H49.8809V196.885H52.0267V186.638Z" fill="#252525"/>
<path d="M54.4454 176.391H0V186.638H54.4454V176.391Z" fill="#92E3A9"/>
<path opacity="0.2" d="M54.4454 176.391H0V177.556H54.4454V176.391Z" fill="#252525"/>
<path opacity="0.2" d="M6.13221 176.391H3.98633V186.638H6.13221V176.391Z" fill="#252525"/>
<path opacity="0.2" d="M11.056 176.391H8.91016V186.638H11.056V176.391Z" fill="#252525"/>
<path opacity="0.2" d="M15.9857 176.391H13.8398V186.638H15.9857V176.391Z" fill="#252525"/>
<path opacity="0.2" d="M20.9095 176.391H18.7637V186.638H20.9095V176.391Z" fill="#252525"/>
<path opacity="0.2" d="M25.8334 176.391H23.6875V186.638H25.8334V176.391Z" fill="#252525"/>
<path opacity="0.2" d="M30.7631 176.391H28.6172V186.638H30.7631V176.391Z" fill="#252525"/>
<path opacity="0.2" d="M35.6869 176.391H33.541V186.638H35.6869V176.391Z" fill="#252525"/>
<path opacity="0.2" d="M40.6107 176.391H38.4648V186.638H40.6107V176.391Z" fill="#252525"/>
<path opacity="0.2" d="M45.5404 176.391H43.3945V186.638H45.5404V176.391Z" fill="#252525"/>
<path opacity="0.2" d="M50.4642 176.391H48.3184V186.638H50.4642V176.391Z" fill="#252525"/>
<path d="M56.9122 166.15H2.4668V176.397H56.9122V166.15Z" fill="#92E3A9"/>
<path opacity="0.2" d="M56.9122 166.15H2.4668V167.314H56.9122V166.15Z" fill="#252525"/>
<path opacity="0.2" d="M8.5951 166.15H6.44922V176.397H8.5951V166.15Z" fill="#252525"/>
<path opacity="0.2" d="M13.5228 166.15H11.377V176.397H13.5228V166.15Z" fill="#252525"/>
<path opacity="0.2" d="M18.4486 166.15H16.3027V176.397H18.4486V166.15Z" fill="#252525"/>
<path opacity="0.2" d="M23.3705 166.15H21.2246V176.397H23.3705V166.15Z" fill="#252525"/>
<path opacity="0.2" d="M28.3021 166.15H26.1562V176.397H28.3021V166.15Z" fill="#252525"/>
<path opacity="0.2" d="M33.226 166.15H31.0801V176.397H33.226V166.15Z" fill="#252525"/>
<path opacity="0.2" d="M38.1498 166.15H36.0039V176.397H38.1498V166.15Z" fill="#252525"/>
<path opacity="0.2" d="M43.0775 166.15H40.9316V176.397H43.0775V166.15Z" fill="#252525"/>
<path opacity="0.2" d="M48.0013 166.15H45.8555V176.397H48.0013V166.15Z" fill="#252525"/>
<path opacity="0.2" d="M52.9252 166.15H50.7793V176.397H52.9252V166.15Z" fill="#252525"/>
<path d="M0.0780716 166.144H54.5234V155.897H0.0780716V166.144Z" fill="#92E3A9"/>
<path opacity="0.2" d="M0.0780716 157.062H54.5234V155.897H0.0780716V157.062Z" fill="#252525"/>
<path opacity="0.2" d="M48.3893 166.144H50.5352V155.897H48.3893V166.144Z" fill="#252525"/>
<path opacity="0.2" d="M43.4615 166.144H45.6074V155.897H43.4615V166.144Z" fill="#252525"/>
<path opacity="0.2" d="M38.5377 166.144H40.6836V155.897H38.5377V166.144Z" fill="#252525"/>
<path opacity="0.2" d="M33.6139 166.144H35.7598V155.897H33.6139V166.144Z" fill="#252525"/>
<path opacity="0.2" d="M28.6842 166.144H30.8301V155.897H28.6842V166.144Z" fill="#252525"/>
<path opacity="0.2" d="M23.7584 166.144H25.9043V155.897H23.7584V166.144Z" fill="#252525"/>
<path opacity="0.2" d="M18.8365 166.144H20.9824V155.897H18.8365V166.144Z" fill="#252525"/>
<path opacity="0.2" d="M13.9069 166.144H16.0527V155.897H13.9069L13.9069 166.144Z" fill="#252525"/>
<path opacity="0.2" d="M8.98303 166.144H11.1289L11.1289 155.897H8.98303L8.98303 166.144Z" fill="#252525"/>
<path opacity="0.2" d="M4.05725 166.144H6.20312L6.20312 155.897H4.05725L4.05725 166.144Z" fill="#252525"/>
<path d="M2.29096 155.903H56.7363V145.656H2.29096V155.903Z" fill="#92E3A9"/>
<path opacity="0.2" d="M2.29096 146.82H56.7363V145.656H2.29096V146.82Z" fill="#252525"/>
<path opacity="0.2" d="M50.6022 155.903H52.748V145.656H50.6022V155.903Z" fill="#252525"/>
<path opacity="0.2" d="M45.6842 155.903H47.8301V145.656H45.6842V155.903Z" fill="#252525"/>
<path opacity="0.2" d="M40.7565 155.903H42.9023V145.656H40.7565V155.903Z" fill="#252525"/>
<path opacity="0.2" d="M35.8248 155.903H37.9707V145.656H35.8248V155.903Z" fill="#252525"/>
<path opacity="0.2" d="M30.9069 155.903H33.0527V145.656H30.9069V155.903Z" fill="#252525"/>
<path opacity="0.2" d="M25.9772 155.903H28.123V145.656H25.9772V155.903Z" fill="#252525"/>
<path opacity="0.2" d="M21.0475 155.903H23.1934V145.656H21.0475V155.903Z" fill="#252525"/>
<path opacity="0.2" d="M16.1295 155.903H18.2754V145.656H16.1295V155.903Z" fill="#252525"/>
<path opacity="0.2" d="M11.2018 155.903H13.3477L13.3477 145.656H11.2018L11.2018 155.903Z" fill="#252525"/>
<path opacity="0.2" d="M6.2721 155.903H8.41797L8.41797 145.656H6.2721L6.2721 155.903Z" fill="#252525"/>
<path d="M3.85931 145.656H58.3047V135.409H3.85931V145.656Z" fill="#92E3A9"/>
<path opacity="0.2" d="M3.85931 136.573H58.3047V135.409H3.85931V136.573Z" fill="#252525"/>
<path opacity="0.2" d="M52.1725 145.656H54.3184V135.409H52.1725V145.656Z" fill="#252525"/>
<path opacity="0.2" d="M47.2428 145.656H49.3887V135.409H47.2428V145.656Z" fill="#252525"/>
<path opacity="0.2" d="M42.317 145.656H44.4629V135.409H42.317V145.656Z" fill="#252525"/>
<path opacity="0.2" d="M37.3951 145.656H39.541V135.409H37.3951V145.656Z" fill="#252525"/>
<path opacity="0.2" d="M32.4674 145.656H34.6133V135.409H32.4674V145.656Z" fill="#252525"/>
<path opacity="0.2" d="M27.5416 145.656H29.6875V135.409H27.5416V145.656Z" fill="#252525"/>
<path opacity="0.2" d="M22.6178 145.656H24.7637V135.409H22.6178V145.656Z" fill="#252525"/>
<path opacity="0.2" d="M17.6881 145.656H19.834V135.409H17.6881V145.656Z" fill="#252525"/>
<path opacity="0.2" d="M12.7643 145.656H14.9102L14.9102 135.409H12.7643L12.7643 145.656Z" fill="#252525"/>
<path opacity="0.2" d="M7.84045 145.656H9.98633L9.98633 135.409H7.84045L7.84045 145.656Z" fill="#252525"/>
<path d="M1.39056 135.409H55.8359V125.162H1.39056V135.409Z" fill="#92E3A9"/>
<path opacity="0.2" d="M1.39056 126.326H55.8359V125.162H1.39056V126.326Z" fill="#252525"/>
<path opacity="0.2" d="M49.7037 135.409H51.8496V125.162H49.7037V135.409Z" fill="#252525"/>
<path opacity="0.2" d="M44.7858 135.409H46.9316V125.162H44.7858V135.409Z" fill="#252525"/>
<path opacity="0.2" d="M39.8561 135.409H42.002V125.162H39.8561V135.409Z" fill="#252525"/>
<path opacity="0.2" d="M34.9283 135.409H37.0742V125.162H34.9283V135.409Z" fill="#252525"/>
<path opacity="0.2" d="M30.0104 135.409H32.1562V125.162H30.0104V135.409Z" fill="#252525"/>
<path opacity="0.2" d="M25.0807 135.409H27.2266V125.162H25.0807V135.409Z" fill="#252525"/>
<path opacity="0.2" d="M20.151 135.409H22.2969V125.162H20.151V135.409Z" fill="#252525"/>
<path opacity="0.2" d="M15.2311 135.409H17.377V125.162H15.2311L15.2311 135.409Z" fill="#252525"/>
<path opacity="0.2" d="M10.3014 135.409H12.4473L12.4473 125.162H10.3014L10.3014 135.409Z" fill="#252525"/>
<path opacity="0.2" d="M5.37365 135.409H7.51953L7.51953 125.162H5.37365L5.37365 135.409Z" fill="#252525"/>
<path d="M402.771 196.885H457.217V207.132H402.771V196.885Z" fill="#92E3A9"/>
<path opacity="0.2" d="M402.771 196.885H457.217V198.05H402.771V196.885Z" fill="#252525"/>
<path opacity="0.2" d="M451.085 196.885H453.23V207.132H451.085V196.885Z" fill="#252525"/>
<path opacity="0.2" d="M446.163 196.885H448.309V207.132H446.163V196.885Z" fill="#252525"/>
<path opacity="0.2" d="M441.233 196.885H443.379V207.132H441.233V196.885Z" fill="#252525"/>
<path opacity="0.2" d="M436.309 196.885H438.455V207.132H436.309V196.885Z" fill="#252525"/>
<path opacity="0.2" d="M431.385 196.885H433.531V207.132H431.385V196.885Z" fill="#252525"/>
<path opacity="0.2" d="M426.456 196.885H428.602V207.132H426.456V196.885Z" fill="#252525"/>
<path opacity="0.2" d="M421.532 196.885H423.678V207.132H421.532V196.885Z" fill="#252525"/>
<path opacity="0.2" d="M416.608 196.885H418.754V207.132H416.608V196.885Z" fill="#252525"/>
<path opacity="0.2" d="M411.676 196.885H413.822V207.132H411.676V196.885Z" fill="#252525"/>
<path opacity="0.2" d="M406.755 196.885H408.9V207.132H406.755V196.885Z" fill="#252525"/>
<path d="M404.984 186.638H459.43V196.885H404.984V186.638Z" fill="#92E3A9"/>
<path opacity="0.2" d="M404.984 186.638H459.43V187.803H404.984V186.638Z" fill="#252525"/>
<path opacity="0.2" d="M453.305 186.638H455.451V196.885H453.305V186.638Z" fill="#252525"/>
<path opacity="0.2" d="M448.374 186.638H450.52V196.885H448.374V186.638Z" fill="#252525"/>
<path opacity="0.2" d="M443.45 186.638H445.596V196.885H443.45V186.638Z" fill="#252525"/>
<path opacity="0.2" d="M438.526 186.638H440.672V196.885H438.526V186.638Z" fill="#252525"/>
<path opacity="0.2" d="M433.596 186.638H435.742V196.885H433.596V186.638Z" fill="#252525"/>
<path opacity="0.2" d="M428.674 186.638H430.82V196.885H428.674V186.638Z" fill="#252525"/>
<path opacity="0.2" d="M423.749 186.638H425.895V196.885H423.749V186.638Z" fill="#252525"/>
<path opacity="0.2" d="M418.821 186.638H420.967V196.885H418.821V186.638Z" fill="#252525"/>
<path opacity="0.2" d="M413.895 186.638H416.041V196.885H413.895V186.638Z" fill="#252525"/>
<path opacity="0.2" d="M408.973 186.638H411.119V196.885H408.973V186.638Z" fill="#252525"/>
<path d="M406.555 176.391H461V186.638H406.555V176.391Z" fill="#92E3A9"/>
<path opacity="0.2" d="M406.555 176.391H461V177.556H406.555V176.391Z" fill="#252525"/>
<path opacity="0.2" d="M454.868 176.391H457.014V186.638H454.868V176.391Z" fill="#252525"/>
<path opacity="0.2" d="M449.944 176.391H452.09V186.638H449.944V176.391Z" fill="#252525"/>
<path opacity="0.2" d="M445.014 176.391H447.16V186.638H445.014V176.391Z" fill="#252525"/>
<path opacity="0.2" d="M440.09 176.391H442.236V186.638H440.09V176.391Z" fill="#252525"/>
<path opacity="0.2" d="M435.167 176.391H437.312V186.638H435.167V176.391Z" fill="#252525"/>
<path opacity="0.2" d="M430.237 176.391H432.383V186.638H430.237V176.391Z" fill="#252525"/>
<path opacity="0.2" d="M425.313 176.391H427.459V186.638H425.313V176.391Z" fill="#252525"/>
<path opacity="0.2" d="M420.389 176.391H422.535V186.638H420.389V176.391Z" fill="#252525"/>
<path opacity="0.2" d="M415.46 176.391H417.605V186.638H415.46V176.391Z" fill="#252525"/>
<path opacity="0.2" d="M410.536 176.391H412.682V186.638H410.536V176.391Z" fill="#252525"/>
<path d="M404.088 166.15H458.533V176.397H404.088V166.15Z" fill="#92E3A9"/>
<path opacity="0.2" d="M404.088 166.15H458.533V167.314H404.088V166.15Z" fill="#252525"/>
<path opacity="0.2" d="M452.405 166.15H454.551V176.397H452.405V166.15Z" fill="#252525"/>
<path opacity="0.2" d="M447.477 166.15H449.623V176.397H447.477V166.15Z" fill="#252525"/>
<path opacity="0.2" d="M442.551 166.15H444.697V176.397H442.551V166.15Z" fill="#252525"/>
<path opacity="0.2" d="M437.63 166.15H439.775V176.397H437.63V166.15Z" fill="#252525"/>
<path opacity="0.2" d="M432.698 166.15H434.844V176.397H432.698V166.15Z" fill="#252525"/>
<path opacity="0.2" d="M427.774 166.15H429.92V176.397H427.774V166.15Z" fill="#252525"/>
<path opacity="0.2" d="M422.85 166.15H424.996V176.397H422.85V166.15Z" fill="#252525"/>
<path opacity="0.2" d="M417.922 166.15H420.068V176.397H417.922V166.15Z" fill="#252525"/>
<path opacity="0.2" d="M412.999 166.15H415.145V176.397H412.999V166.15Z" fill="#252525"/>
<path opacity="0.2" d="M408.075 166.15H410.221V176.397H408.075V166.15Z" fill="#252525"/>
<path d="M460.922 166.144H406.477V155.897H460.922V166.144Z" fill="#92E3A9"/>
<path opacity="0.2" d="M460.922 157.062H406.477V155.897H460.922V157.062Z" fill="#252525"/>
<path opacity="0.2" d="M412.611 166.144H410.465V155.897H412.611V166.144Z" fill="#252525"/>
<path opacity="0.2" d="M417.538 166.144H415.393V155.897H417.538V166.144Z" fill="#252525"/>
<path opacity="0.2" d="M422.462 166.144H420.316V155.897H422.462V166.144Z" fill="#252525"/>
<path opacity="0.2" d="M427.386 166.144H425.24V155.897H427.386V166.144Z" fill="#252525"/>
<path opacity="0.2" d="M432.316 166.144H430.17V155.897H432.316V166.144Z" fill="#252525"/>
<path opacity="0.2" d="M437.242 166.144H435.096V155.897H437.242V166.144Z" fill="#252525"/>
<path opacity="0.2" d="M442.163 166.144H440.018V155.897H442.163V166.144Z" fill="#252525"/>
<path opacity="0.2" d="M447.093 166.144H444.947V155.897H447.093V166.144Z" fill="#252525"/>
<path opacity="0.2" d="M452.017 166.144H449.871V155.897H452.017V166.144Z" fill="#252525"/>
<path opacity="0.2" d="M456.943 166.144H454.797V155.897H456.943V166.144Z" fill="#252525"/>
<path d="M458.709 155.903H404.264V145.656H458.709V155.903Z" fill="#92E3A9"/>
<path opacity="0.2" d="M458.709 146.82H404.264V145.656H458.709V146.82Z" fill="#252525"/>
<path opacity="0.2" d="M410.398 155.903H408.252V145.656H410.398V155.903Z" fill="#252525"/>
<path opacity="0.2" d="M415.316 155.903H413.17V145.656H415.316V155.903Z" fill="#252525"/>
<path opacity="0.2" d="M420.244 155.903H418.098V145.656H420.244V155.903Z" fill="#252525"/>
<path opacity="0.2" d="M425.175 155.903H423.029V145.656H425.175V155.903Z" fill="#252525"/>
<path opacity="0.2" d="M430.093 155.903H427.947V145.656H430.093V155.903Z" fill="#252525"/>
<path opacity="0.2" d="M435.023 155.903H432.877V145.656H435.023V155.903Z" fill="#252525"/>
<path opacity="0.2" d="M439.953 155.903H437.807V145.656H439.953V155.903Z" fill="#252525"/>
<path opacity="0.2" d="M444.87 155.903H442.725V145.656H444.87V155.903Z" fill="#252525"/>
<path opacity="0.2" d="M449.798 155.903H447.652V145.656H449.798V155.903Z" fill="#252525"/>
<path opacity="0.2" d="M454.728 155.903H452.582V145.656H454.728V155.903Z" fill="#252525"/>
<path d="M457.141 145.656H402.695V135.409H457.141V145.656Z" fill="#92E3A9"/>
<path opacity="0.2" d="M457.141 136.573H402.695V135.409H457.141V136.573Z" fill="#252525"/>
<path opacity="0.2" d="M408.828 145.656H406.682V135.409H408.828V145.656Z" fill="#252525"/>
<path opacity="0.2" d="M413.757 145.656H411.611V135.409H413.757V145.656Z" fill="#252525"/>
<path opacity="0.2" d="M418.683 145.656H416.537V135.409H418.683V145.656Z" fill="#252525"/>
<path opacity="0.2" d="M423.605 145.656H421.459V135.409H423.605V145.656Z" fill="#252525"/>
<path opacity="0.2" d="M428.533 145.656H426.387V135.409H428.533V145.656Z" fill="#252525"/>
<path opacity="0.2" d="M433.458 145.656H431.312V135.409H433.458V145.656Z" fill="#252525"/>
<path opacity="0.2" d="M438.382 145.656H436.236V135.409H438.382V145.656Z" fill="#252525"/>
<path opacity="0.2" d="M443.312 145.656H441.166V135.409H443.312V145.656Z" fill="#252525"/>
<path opacity="0.2" d="M448.236 145.656H446.09V135.409H448.236V145.656Z" fill="#252525"/>
<path opacity="0.2" d="M453.16 145.656H451.014V135.409H453.16V145.656Z" fill="#252525"/>
<path d="M459.609 135.409H405.164V125.162H459.609V135.409Z" fill="#92E3A9"/>
<path opacity="0.2" d="M459.609 126.326H405.164V125.162H459.609V126.326Z" fill="#252525"/>
<path opacity="0.2" d="M411.296 135.409H409.15V125.162H411.296V135.409Z" fill="#252525"/>
<path opacity="0.2" d="M416.214 135.409H414.068V125.162H416.214V135.409Z" fill="#252525"/>
<path opacity="0.2" d="M421.144 135.409H418.998V125.162H421.144V135.409Z" fill="#252525"/>
<path opacity="0.2" d="M426.072 135.409H423.926V125.162H426.072V135.409Z" fill="#252525"/>
<path opacity="0.2" d="M430.99 135.409H428.844V125.162H430.99V135.409Z" fill="#252525"/>
<path opacity="0.2" d="M435.919 135.409H433.773V125.162H435.919V135.409Z" fill="#252525"/>
<path opacity="0.2" d="M440.849 135.409H438.703V125.162H440.849V135.409Z" fill="#252525"/>
<path opacity="0.2" d="M445.769 135.409H443.623V125.162H445.769V135.409Z" fill="#252525"/>
<path opacity="0.2" d="M450.699 135.409H448.553V125.162H450.699V135.409Z" fill="#252525"/>
<path opacity="0.2" d="M455.626 135.409H453.48V125.162H455.626V135.409Z" fill="#252525"/>
</svg>
