<svg width="1049" height="137" viewBox="0 0 1049 137" fill="none" xmlns="http://www.w3.org/2000/svg">
<path d="M807.799 33.7558C807.852 33.7649 807.907 33.7649 807.96 33.7558H808.424L810.208 33.7023L816.814 33.4406L826.614 33.0184L832.4 32.7627C833.405 32.6854 834.421 32.7627 835.462 32.7627H838.614C847.147 32.7627 854.859 32.3821 860.437 32.1383L867.044 31.8232L868.828 31.7221L869.297 31.6864C869.35 31.6965 869.405 31.6965 869.458 31.6864H868.828L867.044 31.728L860.431 31.948C854.848 32.1383 847.135 32.4535 838.614 32.4832H835.462C834.421 32.4832 833.399 32.4297 832.394 32.4832L826.608 32.7568L816.808 33.2444L810.202 33.6012L808.418 33.7141L807.948 33.7498L807.799 33.7558Z" fill="#263238"/>
<path d="M996.195 63.7141L712.431 63.7141V105.167L1022.4 105.167V89.9082C1022.39 82.9606 1019.63 76.298 1014.72 71.3858C1009.81 66.4736 1003.14 63.7141 996.195 63.7141Z" fill="#FF725E"/>
<g opacity="0.4">
<path opacity="0.4" d="M996.195 63.7141L712.431 63.7141V105.167L1022.4 105.167V89.9082C1022.39 82.9606 1019.63 76.298 1014.72 71.3858C1009.81 66.4736 1003.14 63.7141 996.195 63.7141Z" fill="#252525"/>
</g>
<path d="M1048.89 103.74C1048.89 103.74 1037.89 115.781 1017.67 113.331C1017.67 113.331 1025.76 68.4534 983.386 65.9856C983.386 65.9856 963.964 64.2909 953.962 80.2571C951.082 84.9377 949.511 90.3059 949.413 95.8011C949.247 102.104 949.051 112.749 949.556 115.424C949.556 115.424 809.529 109.603 785.018 112.392C785.018 112.392 796.173 77.6704 765.436 66.5327C760.191 64.6298 754.138 64.4217 748.614 65.2007C741.079 66.2592 733.004 69.7081 727.801 77.6883C725.559 81.1194 722.788 86.0965 722.003 90.1163C720.665 97.0083 721.575 103.502 722.003 106.879L710.414 105.756L702.053 78.051L703.242 61.5496L711.847 45.2801L732.243 47.7063C732.243 47.7063 769.979 37.0027 792.183 32.5369C814.387 28.0711 849.46 27.1851 857.951 28.6538C866.443 30.1226 869.677 31.6925 873.888 33.5121C878.098 35.3317 916.922 53.8965 916.922 53.8965L976.256 54.3782C976.256 54.3782 1016.79 53.5338 1042.39 83.9855L1038.99 97.6981L1048.89 103.74Z" fill="#FF725E"/>
<path d="M916.911 53.8964C916.911 53.8964 880.346 55.4544 870.725 55.0857C861.104 54.717 809.048 48.61 809.048 48.61L808.299 33.6607C808.299 33.6607 825.568 32.5308 836.902 32.5308C846.333 32.5308 869.494 31.6508 869.494 31.6508C870.231 31.96 871.04 32.2811 871.795 32.6022C885.246 38.3405 900.362 45.9044 916.911 53.8964Z" fill="#455A64"/>
<path d="M1033.73 75.2502C1033.73 75.2502 1028.31 76.1184 1021.54 73.0798C1014.77 70.0411 995.493 59.6527 995.493 59.6527L996.765 57.0125C996.765 57.0125 1000.22 57.7082 1004.2 58.9688C1008.5 60.3617 1012.69 62.0854 1016.73 64.1244C1019.9 65.7149 1022.98 67.4757 1025.96 69.3989C1028.66 71.1975 1031.26 73.1512 1033.73 75.2502Z" fill="#EBEBEB"/>
<path d="M1023.26 83.8963C1023.26 83.9796 1027.03 84.1579 1031.69 84.2947C1036.36 84.4315 1040.14 84.4731 1040.14 84.3839C1040.15 84.2947 1036.37 84.1223 1031.71 83.9855C1027.04 83.8487 1023.26 83.8131 1023.26 83.8963Z" fill="#263238"/>
<g opacity="0.4">
<path opacity="0.4" d="M1038.98 97.698L1025.7 103.888C1025.7 103.888 1038.72 106.469 1048.89 103.757L1038.98 97.698Z" fill="white"/>
</g>
<path d="M1016.14 80.6971C1016.14 80.6971 1020.41 86.9528 1021.03 91.9359C1021.64 96.9191 1021.73 103.169 1021.73 103.169H1019.8C1019.8 103.169 1021.41 87.9637 1013.4 80.6971H1016.14Z" fill="#EBEBEB"/>
<g opacity="0.3">
<path opacity="0.3" d="M948.552 68.9589L953.19 64.5526L913.872 63.1611L941.131 66.6398L948.552 68.9589Z" fill="#252525"/>
</g>
<path d="M945.537 104.144C945.544 104.087 945.544 104.029 945.537 103.972C945.537 103.835 945.537 103.668 945.567 103.46C945.567 103.014 945.602 102.354 945.662 101.51C945.786 99.1202 946.032 96.7385 946.399 94.374C946.94 90.8592 947.91 87.4242 949.289 84.1461C950.995 80.1413 953.463 76.506 956.556 73.4425C959.642 70.3879 963.272 67.9375 967.259 66.2176L967.937 65.9143L968.627 65.6586L969.977 65.1472C970.887 64.8796 971.761 64.5526 972.617 64.3564C973.473 64.1601 974.312 63.9223 975.132 63.7914L976.322 63.5655L977.475 63.4109C979.841 63.1118 982.23 63.0302 984.611 63.1671C985.461 63.2027 986.109 63.2979 986.555 63.3276L987.067 63.3692H987.239C987.184 63.3489 987.126 63.3368 987.067 63.3336L986.567 63.2622C986.121 63.2146 985.467 63.0957 984.623 63.0422C982.223 62.8566 979.811 62.9084 977.422 63.1968L976.232 63.3395L975.043 63.5536C974.222 63.6844 973.384 63.8925 972.51 64.1066C971.636 64.3207 970.762 64.624 969.846 64.8915L968.484 65.397L967.788 65.6527L967.105 65.9559C963.068 67.675 959.392 70.1403 956.27 73.2225C953.152 76.3097 950.669 79.9785 948.962 84.0213C947.597 87.3209 946.652 90.7791 946.149 94.3146C945.813 96.6995 945.617 99.102 945.561 101.51C945.519 102.36 945.561 103.02 945.525 103.466V103.978C945.52 104.033 945.524 104.089 945.537 104.144Z" fill="#263238"/>
<g opacity="0.4">
<path opacity="0.4" d="M938.931 102.021L915.412 91.9657L800.039 94.1837L938.931 102.021Z" fill="white"/>
</g>
<path d="M916.822 92.5722L949.313 68.2394L941.131 66.6398L907.552 92.1144L916.822 92.5722Z" fill="#263238"/>
<path d="M906.475 113.801C906.507 113.729 906.529 113.653 906.54 113.575C906.588 113.403 906.641 113.183 906.713 112.903C906.861 112.309 907.063 111.417 907.307 110.316C907.831 108.057 908.568 104.858 909.46 100.981V100.951V100.915C908.651 98.2273 907.73 95.1946 906.736 91.9241V91.9954C907.123 89.2601 907.533 86.3106 907.961 83.2542C908.556 78.9549 909.091 74.8637 909.418 71.1115L909.472 70.4098C909.49 70.1723 909.49 69.9338 909.472 69.6963C909.416 69.2404 909.318 68.7906 909.18 68.3524C908.919 67.523 908.597 66.7141 908.217 65.9322C907.533 64.5367 906.775 63.179 905.946 61.8648C904.429 59.4505 903.073 57.5952 902.122 56.3167C901.646 55.6805 901.266 55.1929 901.004 54.8718C900.885 54.7172 900.784 54.5982 900.707 54.5031C900.629 54.4079 900.6 54.3782 900.594 54.3841C900.616 54.4329 900.644 54.4788 900.677 54.5209L900.956 54.9074L902.027 56.3881C902.949 57.6844 904.275 59.5635 905.755 61.9778C906.569 63.2918 907.313 64.6475 907.985 66.0392C908.352 66.8091 908.664 67.604 908.919 68.4178C909.2 69.2739 909.284 70.1828 909.163 71.0758C908.824 74.8102 908.259 78.9014 907.688 83.2006C907.26 86.2571 906.855 89.2066 906.499 91.9419V91.9954L909.264 100.981V100.915C908.413 104.798 907.712 108.009 907.218 110.275L906.671 112.873C906.612 113.153 906.57 113.379 906.534 113.557C906.503 113.635 906.483 113.717 906.475 113.801Z" fill="#263238"/>
<path d="M905.601 54.3424L860.182 32.1324L848.408 32.5368C848.408 32.5368 877.753 39.5298 883.284 55.0322L905.601 54.3424Z" fill="#263238"/>
<path d="M772.281 40.8084L776.753 45.7975L809.048 48.628L808.299 33.6786C808.299 33.6786 777.276 38.3525 772.281 40.8084Z" fill="#263238"/>
<path d="M905.637 106.862L905.244 106.826L904.085 106.755L899.625 106.517L883.219 105.708L829.106 103.139L821.286 102.764C818.77 102.569 816.325 101.837 814.115 100.618C809.75 98.2392 806.384 94.6416 803.637 91.0084C801.014 87.5596 798.832 83.7959 797.144 79.8053C795.672 76.3268 794.769 72.6346 794.468 68.8697C794.355 67.2315 794.376 65.5867 794.533 63.952C794.687 62.4944 794.946 61.0497 795.306 59.629C795.902 57.354 796.811 55.1726 798.006 53.1473C798.775 51.8766 799.663 50.6819 800.658 49.5795C801.003 49.2048 801.282 48.9372 801.467 48.7469L801.734 48.4556C801.734 48.4556 801.633 48.5388 801.443 48.7232C801.253 48.9075 800.967 49.1691 800.61 49.5319C799.593 50.6291 798.687 51.8242 797.905 53.0997C796.688 55.1287 795.758 57.3158 795.14 59.5992C794.769 61.0273 794.501 62.4799 794.337 63.9461C794.169 65.5938 794.139 67.2527 794.248 68.9054C794.536 72.6954 795.433 76.4141 796.906 79.9182C798.588 83.943 800.772 87.7391 803.405 91.2165C806.141 94.8438 809.548 98.4533 813.948 100.915C816.197 102.156 818.684 102.902 821.245 103.103L829.082 103.478L883.195 105.952L899.601 106.671L904.067 106.85L905.226 106.885L905.637 106.862Z" fill="#455A64"/>
<path d="M774.095 59.3375C774.149 58.7975 774.255 58.2639 774.41 57.7438C774.904 56.3453 775.886 55.1716 777.175 54.4376C778.118 53.894 779.162 53.5469 780.243 53.4172C781.325 53.2874 782.421 53.3776 783.466 53.6824C784.701 54.0349 785.818 54.7126 786.701 55.6447C787.67 56.631 788.212 57.9581 788.212 59.3405C788.212 60.7228 787.67 62.0499 786.701 63.0362C785.82 63.9698 784.702 64.6461 783.466 64.9926C782.421 65.3005 781.325 65.3923 780.243 65.2625C779.161 65.1326 778.117 64.7839 777.175 64.2374C775.883 63.5063 774.901 62.3316 774.41 60.9311C774.255 60.4111 774.149 59.8775 774.095 59.3375C774.08 59.4798 774.08 59.6233 774.095 59.7656C774.095 59.9375 774.113 60.1088 774.148 60.277C774.173 60.5121 774.225 60.7435 774.303 60.9668C774.765 62.4226 775.75 63.6555 777.068 64.4277C778.034 65.0026 779.107 65.3737 780.222 65.5179C781.337 65.6621 782.469 65.5764 783.549 65.2661C784.841 64.9114 786.011 64.2102 786.933 63.2384C787.954 62.1968 788.526 60.7962 788.526 59.3375C788.526 57.8787 787.954 56.4782 786.933 55.4366C786.01 54.4669 784.84 53.7661 783.549 53.4089C782.469 53.098 781.336 53.0126 780.221 53.1579C779.106 53.3031 778.033 53.676 777.068 54.2533C775.749 55.0218 774.764 56.2533 774.303 57.7082C774.226 57.9316 774.174 58.163 774.148 58.3979C774.113 58.5681 774.095 58.7415 774.095 58.9153C774.08 59.0556 774.08 59.1971 774.095 59.3375Z" fill="#263238"/>
<path d="M731.649 47.6409H731.804H732.268L734.052 47.6765L740.593 47.8014C746.123 47.9085 753.764 48.075 762.196 48.3961C770.628 48.7172 778.252 49.0918 783.782 49.5021C786.535 49.7221 788.771 49.8886 790.323 50.0551L792.107 50.2216L792.571 50.2573C792.624 50.2652 792.678 50.2652 792.731 50.2573C792.68 50.2491 792.628 50.2491 792.577 50.2573L792.119 50.1919L790.335 49.9659C788.801 49.7638 786.571 49.5616 783.794 49.3118C778.276 48.8421 770.64 48.4139 762.202 48.1225C753.764 47.8312 746.147 47.6884 740.593 47.6349C737.828 47.6349 735.586 47.6052 734.052 47.6349H732.268H731.804C731.753 47.6294 731.7 47.6314 731.649 47.6409Z" fill="#263238"/>
<path d="M728.872 47.3079L709.308 50.073L711.847 45.2802L728.872 47.3079Z" fill="#EBEBEB"/>
<path d="M713.643 49.181C713.669 49.2834 713.705 49.383 713.75 49.4784L714.107 50.3049C714.422 51.0244 714.91 52.0532 715.534 53.2781C717.168 56.5433 718.974 59.7193 720.945 62.7925C722.918 65.866 725.052 68.8334 727.338 71.6824C728.218 72.7765 728.943 73.6447 729.466 74.2275L730.061 74.8994C730.127 74.9819 730.203 75.0558 730.287 75.1194C730.287 75.1194 730.234 75.0243 730.109 74.8578L729.556 74.1502C729.062 73.5555 728.366 72.6517 727.504 71.5456C725.786 69.3395 723.502 66.1938 721.201 62.6259C718.9 59.0581 717.038 55.6508 715.718 53.1711C715.07 51.9342 714.529 50.9233 714.214 50.1979L713.804 49.3951C713.759 49.3177 713.705 49.2459 713.643 49.181Z" fill="#263238"/>
<path d="M717.509 102.318C717.518 102.255 717.518 102.191 717.509 102.128V101.533C717.509 101.04 717.509 100.344 717.509 99.3808C717.638 96.7407 718.037 94.1205 718.698 91.5613C719.69 87.7722 721.075 84.0971 722.831 80.596C723.825 78.5097 724.954 76.4896 726.208 74.5485C727.537 72.4595 729.206 70.6065 731.144 69.0658C733.132 67.5856 735.339 66.4241 737.685 65.6228C739.864 64.8577 742.098 64.2613 744.369 63.8389C748.212 63.124 752.128 62.8804 756.03 63.1134C758.667 63.2633 761.288 63.6272 763.867 64.2017L765.056 64.4811L765.937 64.7071L766.484 64.8439C766.543 64.8638 766.605 64.8758 766.668 64.8795C766.611 64.8518 766.551 64.8299 766.49 64.8141L765.954 64.6476L765.08 64.3919L763.891 64.0827C761.312 63.4594 758.684 63.0615 756.036 62.8934C752.106 62.6316 748.158 62.8634 744.286 63.5832C741.997 64.0031 739.745 64.5995 737.548 65.3672C735.174 66.177 732.941 67.3527 730.93 68.8518C728.968 70.4165 727.278 72.2952 725.929 74.4117C724.673 76.3658 723.543 78.3976 722.545 80.4949C720.797 84.0211 719.428 87.7226 718.46 91.5375C717.827 94.1149 717.469 96.7519 717.39 99.4046C717.39 100.344 717.39 101.076 717.431 101.569C717.431 101.801 717.431 101.985 717.467 102.128C717.473 102.193 717.487 102.257 717.509 102.318Z" fill="#263238"/>
<path d="M702 75.0242C702.256 75.1355 702.521 75.225 702.791 75.2918C703.297 75.4523 704.046 75.6545 704.974 75.8864C709.815 77.0629 714.774 77.6913 719.756 77.7595C720.714 77.7595 721.487 77.7595 722.022 77.7595C722.299 77.7614 722.575 77.7395 722.849 77.6941C722.576 77.6466 722.299 77.6286 722.022 77.6406L719.762 77.5633C717.86 77.492 715.231 77.3195 712.347 76.9687C709.463 76.6178 706.876 76.1064 705.015 75.708L702.815 75.2145C702.55 75.1267 702.277 75.063 702 75.0242Z" fill="#263238"/>
<path d="M926.247 75.7141C926.247 75.7141 926.116 75.7141 925.866 75.6665L924.755 75.5654L920.467 75.2146L904.691 73.9777C891.383 72.9609 872.991 71.5991 852.654 70.3385C842.485 69.7141 832.793 69.1908 823.974 68.7805C815.155 68.3702 807.193 68.1859 800.521 68.614C795.251 68.8796 790.012 69.5817 784.858 70.7131C783.039 71.1591 781.635 71.5099 780.696 71.8073L779.625 72.1284L779.263 72.2473C779.263 72.2473 779.393 72.2473 779.637 72.1581L780.714 71.8727C781.659 71.5932 783.092 71.278 784.876 70.8321C790.037 69.7388 795.276 69.0607 800.545 68.8043C807.205 68.4237 815.161 68.6021 823.974 69.0422C832.787 69.4822 842.479 69.9996 852.648 70.6239C872.979 71.8667 891.371 73.2106 904.685 74.1918L920.461 75.3454L924.749 75.6427L925.861 75.7141H926.247Z" fill="#263238"/>
<path d="M753.743 126.989C737.563 126.76 724.633 113.459 724.862 97.2794C725.09 81.1001 738.392 68.1696 754.571 68.3983C770.75 68.6271 783.681 81.9284 783.452 98.1077C783.223 114.287 769.922 127.218 753.743 126.989Z" fill="#263238"/>
<path d="M783.454 97.2045C783.454 97.2045 783.454 97.252 783.454 97.2758C783.51 101.123 782.807 104.943 781.387 108.519C779.966 112.095 777.855 115.355 775.174 118.115C772.493 120.875 769.295 123.08 765.762 124.604C762.229 126.127 758.431 126.94 754.584 126.996C746.814 127.109 739.318 124.131 733.745 118.716C728.171 113.302 724.976 105.896 724.864 98.1262V98.0489L783.454 97.2045Z" fill="#263238"/>
<path d="M774.731 97.4067C774.789 101.474 773.638 105.467 771.427 108.881C769.215 112.294 766.04 114.976 762.305 116.585C758.569 118.195 754.44 118.661 750.44 117.925C746.439 117.188 742.747 115.282 739.83 112.447C736.913 109.612 734.902 105.976 734.051 101.998C733.2 98.0204 733.548 93.8798 735.05 90.0997C736.552 86.3195 739.141 83.0697 742.491 80.761C745.84 78.4524 749.798 77.1885 753.865 77.1293C756.567 77.0892 759.25 77.5821 761.762 78.5797C764.273 79.5773 766.563 81.06 768.501 82.9432C770.439 84.8265 771.987 87.0732 773.056 89.5549C774.125 92.0367 774.694 94.7048 774.731 97.4067Z" fill="#FAFAFA"/>
<path d="M753.865 77.1293C756.567 77.0892 759.25 77.5819 761.761 78.5791C764.271 79.5763 766.561 81.0586 768.499 82.9412C770.437 84.8237 771.985 87.0698 773.054 89.5508C774.123 92.0319 774.693 94.6993 774.731 97.4008L733.594 97.9954C733.555 95.2942 734.048 92.6117 735.045 90.1011C736.043 87.5906 737.525 85.3011 739.407 83.3634C741.29 81.4258 743.536 79.8779 746.016 78.8083C748.497 77.7386 751.164 77.1681 753.865 77.1293Z" fill="#E0E0E0"/>
<path d="M766.692 97.5197C766.728 99.9976 766.029 102.431 764.682 104.511C763.336 106.591 761.402 108.226 759.127 109.207C756.851 110.189 754.336 110.473 751.898 110.025C749.461 109.577 747.211 108.416 745.434 106.69C743.656 104.963 742.431 102.748 741.912 100.324C741.394 97.901 741.606 95.3783 742.521 93.0753C743.436 90.7724 745.014 88.7925 747.054 87.3863C749.095 85.98 751.507 85.2104 753.984 85.1748C755.63 85.1505 757.263 85.4505 758.792 86.0578C760.322 86.6651 761.716 87.5677 762.896 88.7142C764.076 89.8606 765.019 91.2283 765.67 92.7392C766.322 94.2501 766.669 95.8745 766.692 97.5197Z" fill="#263238"/>
<path d="M983.086 126.996C966.906 126.889 953.876 113.685 953.983 97.5044C954.09 81.3238 967.294 68.2938 983.475 68.4011C999.656 68.5085 1012.69 81.7124 1012.58 97.893C1012.47 114.074 999.267 127.103 983.086 126.996Z" fill="#263238"/>
<path d="M1012.59 97.2045V97.2758C1012.65 101.123 1011.94 104.943 1010.52 108.519C1009.1 112.095 1006.99 115.355 1004.31 118.115C1001.63 120.875 998.431 123.08 994.898 124.604C991.365 126.127 987.567 126.94 983.72 126.996C975.95 127.109 968.454 124.131 962.88 118.716C957.307 113.302 954.112 105.896 953.999 98.1262C953.999 98.0964 953.999 98.0726 953.999 98.0489L1012.59 97.2045Z" fill="#263238"/>
<path d="M1003.87 97.4066C1003.92 101.474 1002.77 105.467 1000.56 108.881C998.349 112.294 995.175 114.976 991.439 116.585C987.704 118.195 983.575 118.661 979.574 117.925C975.574 117.188 971.882 115.282 968.965 112.447C966.047 109.612 964.036 105.976 963.186 101.998C962.335 98.0204 962.682 93.8797 964.185 90.0996C965.687 86.3194 968.276 83.0696 971.625 80.7609C974.974 78.4523 978.933 77.1885 983 77.1293C985.702 77.0899 988.385 77.5833 990.896 78.5812C993.407 79.579 995.696 81.0619 997.634 82.9449C999.572 84.828 1001.12 87.0744 1002.19 89.5558C1003.26 92.0372 1003.83 94.7049 1003.87 97.4066Z" fill="#FAFAFA"/>
<path d="M983 77.1293C985.701 77.0899 988.384 77.5831 990.894 78.5806C993.405 79.5781 995.694 81.0604 997.632 82.9428C999.57 84.8253 1001.12 87.071 1002.19 89.5517C1003.26 92.0324 1003.83 94.6995 1003.87 97.4007L962.729 97.9953C962.689 95.2939 963.181 92.6111 964.178 90.1002C965.176 87.5892 966.658 85.2994 968.54 83.3616C970.423 81.4238 972.669 79.876 975.15 78.8066C977.631 77.7372 980.299 77.1672 983 77.1293Z" fill="#E0E0E0"/>
<path d="M995.826 97.5197C995.862 99.9973 995.163 102.43 993.816 104.51C992.47 106.591 990.537 108.225 988.262 109.207C985.987 110.188 983.472 110.473 981.034 110.026C978.597 109.578 976.348 108.418 974.57 106.691C972.792 104.965 971.566 102.751 971.047 100.328C970.528 97.9049 970.739 95.3824 971.653 93.0794C972.567 90.7763 974.144 88.7961 976.184 87.3891C978.224 85.9821 980.635 85.2116 983.112 85.1748C984.758 85.1505 986.392 85.4504 987.921 86.0577C989.451 86.6649 990.846 87.5674 992.026 88.7138C993.207 89.8602 994.15 91.2279 994.802 92.7388C995.454 94.2497 995.802 95.8743 995.826 97.5197Z" fill="#263238"/>
<path d="M790.668 47.0165C791.089 46.9986 791.51 47.0166 791.928 47.07C792.761 47.1295 793.986 47.2365 795.562 47.3852C798.713 47.6885 803.292 48.1464 808.905 48.741L828.683 50.8817L840.356 52.2137L846.523 52.9689C848.604 53.2543 850.727 53.5636 852.874 53.7538C857.179 54.1998 861.389 54.5269 865.45 54.8183L871.438 55.2107L872.901 55.294H877.195C884.687 55.294 891.43 55.1453 897.091 54.9075C902.752 54.6696 907.325 54.3842 910.489 54.1701L914.128 53.9085L915.073 53.8312L915.395 53.7955C915.395 53.7955 915.282 53.7955 915.067 53.7955L914.122 53.843L910.483 54.0452C907.319 54.2236 902.752 54.4793 897.085 54.6815C891.418 54.8837 884.687 55.0086 877.195 55.0026H872.913L871.456 54.9193L865.444 54.5328C861.383 54.2415 857.173 53.9085 852.879 53.4625C850.727 53.2484 848.622 52.9689 846.535 52.6775C844.447 52.3862 842.372 52.1661 840.362 51.9283L828.683 50.6201C821.244 49.8054 814.537 49.1037 808.899 48.5388C803.262 47.9739 798.701 47.5458 795.544 47.2841C792.386 47.0225 790.656 46.9154 790.668 47.0165Z" fill="#263238"/>
<path d="M884.925 58.3445C884.925 58.3445 880.055 48.9253 876.6 47.3019C876.6 47.3019 867.401 46.3267 865.997 46.6537C864.594 46.9808 864.154 49.1453 864.154 50.5487C864.154 51.952 863.94 54.4495 865.022 55.3058C866.104 56.1621 865.236 56.067 867.294 56.6081C869.351 57.1492 873.769 56.3167 873.769 56.3167L873.662 60.3187C873.662 60.3187 878.532 62.8102 881.672 62.055C882.544 61.874 883.333 61.4139 883.92 60.7444C884.507 60.0748 884.859 59.2324 884.925 58.3445Z" fill="#FF725E"/>
<path d="M873.62 60.2949C873.643 60.2074 873.655 60.1176 873.656 60.0273C873.656 59.8251 873.656 59.5635 873.698 59.2423C873.727 58.5288 873.769 57.5357 873.817 56.2691V56.1621H873.71C872.494 56.3795 871.267 56.5264 870.035 56.6021C869.303 56.6511 868.569 56.6351 867.84 56.5545C867.453 56.4995 867.071 56.4119 866.699 56.2929C866.324 56.1621 865.89 56.1026 865.682 55.7934C865.545 55.6205 865.391 55.4612 865.224 55.3177C865.059 55.1946 864.913 55.0484 864.79 54.8836C864.554 54.5254 864.402 54.119 864.344 53.6943C864.224 52.7858 864.188 51.8681 864.237 50.953C864.193 49.9974 864.335 49.0424 864.653 48.1403C864.808 47.6904 865.086 47.2928 865.456 46.9927C865.869 46.7469 866.352 46.6425 866.83 46.6953C868.554 46.6953 870.249 46.844 871.872 46.9689C873.496 47.0937 875.053 47.2424 876.522 47.3911H876.481C877.331 47.8682 878.092 48.49 878.728 49.2285C879.332 49.8874 879.898 50.5803 880.423 51.3038C881.434 52.6596 882.207 53.9143 882.879 54.9609C883.551 56.0075 884.015 56.8459 884.348 57.4227L884.728 58.0828C884.768 58.1612 884.816 58.2349 884.871 58.3028C884.847 58.2178 884.813 58.136 884.77 58.059L884.425 57.3811C884.122 56.7865 883.652 55.9361 883.028 54.8717C882.403 53.8073 881.612 52.5407 880.613 51.1611C880.088 50.4266 879.522 49.7219 878.919 49.0501C878.265 48.2793 877.48 47.631 876.6 47.1354H876.552C875.083 46.9808 873.525 46.8262 871.902 46.6894C870.278 46.5526 868.578 46.4158 866.824 46.4099C866.559 46.4083 866.295 46.4242 866.033 46.4575C865.757 46.4944 865.495 46.6008 865.272 46.7667C864.854 47.0999 864.54 47.5455 864.368 48.0511C864.038 48.9876 863.893 49.9791 863.94 50.9708C863.888 51.9063 863.93 52.8445 864.064 53.7716C864.133 54.2336 864.303 54.6745 864.564 55.062C864.701 55.2423 864.864 55.4024 865.046 55.5377C865.2 55.671 865.341 55.8183 865.468 55.9777C866.984 57.0065 868.655 56.9054 870.047 56.84C871.287 56.7524 872.52 56.5875 873.739 56.3464L873.638 56.2572C873.638 57.5 873.608 58.4931 873.597 59.2304C873.597 59.5515 873.597 59.8251 873.597 60.0094C873.595 60.1051 873.603 60.2008 873.62 60.2949Z" fill="#263238"/>
<path d="M936.207 71.5812C937.389 71.7425 938.583 71.7962 939.775 71.7418C940.967 71.7959 942.161 71.7422 943.343 71.5812C942.16 71.4277 940.966 71.376 939.775 71.4266C938.583 71.3758 937.39 71.4275 936.207 71.5812Z" fill="#455A64"/>
<path d="M931.093 75.3454C932.275 75.5024 933.469 75.5541 934.661 75.5C935.852 75.5538 937.046 75.502 938.229 75.3454C937.046 75.1921 935.852 75.1404 934.661 75.1908C933.469 75.1402 932.275 75.1919 931.093 75.3454Z" fill="#455A64"/>
<path d="M926.009 79.05C927.191 79.2034 928.385 79.2551 929.577 79.2045C930.768 79.2553 931.962 79.2036 933.145 79.05C931.962 78.8963 930.768 78.8446 929.577 78.8953C928.385 78.8448 927.191 78.8965 926.009 79.05Z" fill="#455A64"/>
<path d="M920.925 82.7843C922.107 82.9377 923.301 82.9895 924.493 82.9389C925.684 82.9895 926.878 82.9377 928.061 82.7843C926.878 82.6273 925.684 82.5755 924.493 82.6297C923.301 82.5755 922.107 82.6273 920.925 82.7843Z" fill="#455A64"/>
<path d="M915.841 86.5188C917.023 86.6724 918.217 86.7242 919.409 86.6734C920.6 86.7239 921.794 86.6722 922.977 86.5188C921.795 86.3578 920.6 86.3041 919.409 86.3582C918.217 86.3038 917.023 86.3575 915.841 86.5188Z" fill="#455A64"/>
<path d="M910.75 90.2472C911.932 90.4042 913.126 90.456 914.318 90.4018C915.509 90.4563 916.703 90.4046 917.886 90.2472C916.703 90.0936 915.509 90.0418 914.318 90.0926C913.126 90.042 911.933 90.0938 910.75 90.2472Z" fill="#455A64"/>
<path d="M867.229 47.956C868.684 48.109 870.149 48.1607 871.612 48.1107C873.076 48.1608 874.543 48.1091 876 47.956C874.543 47.7994 873.076 47.7477 871.612 47.8014C870.149 47.7478 868.684 47.7995 867.229 47.956Z" fill="white"/>
<path d="M971.208 63.1195C971.511 63.0906 971.809 63.0328 972.1 62.947C972.665 62.8162 973.492 62.6437 974.521 62.4594C975.549 62.275 976.78 62.1145 978.148 61.9896C981.121 61.7375 984.112 61.8172 987.068 62.2275C988.429 62.4178 989.648 62.6497 990.665 62.8875C991.682 63.1254 992.497 63.3395 993.044 63.4822C993.33 63.5799 993.625 63.6535 993.924 63.7022C993.654 63.563 993.371 63.4514 993.079 63.3692C992.532 63.167 991.718 62.9173 990.701 62.6497C989.511 62.3447 988.306 62.1006 987.091 61.9183C984.112 61.4667 981.088 61.3868 978.088 61.6804C976.709 61.8231 975.472 62.0075 974.443 62.2215C973.415 62.4356 972.594 62.6378 972.035 62.8162C971.752 62.895 971.475 62.9964 971.208 63.1195Z" fill="white"/>
<path d="M800.033 94.1838C800.033 94.267 831.062 96.0509 869.339 98.1679C907.617 100.285 938.663 101.932 938.669 101.843C938.675 101.754 907.646 99.9756 869.357 97.8587C831.068 95.7417 800.033 94.0946 800.033 94.1838Z" fill="white"/>
<path d="M740.366 62.8579C740.705 62.801 741.037 62.7134 741.359 62.5962C741.675 62.5011 742.061 62.3881 742.513 62.2751C742.965 62.1621 743.476 62.0135 744.053 61.8946C745.195 61.621 746.575 61.3713 748.115 61.1631C749.786 60.9557 751.467 60.8426 753.151 60.8242C754.834 60.8225 756.515 60.9138 758.188 61.0977C759.734 61.288 761.114 61.5199 762.261 61.7756C762.856 61.8886 763.349 62.0313 763.801 62.1384C764.253 62.2454 764.646 62.3524 764.961 62.4476C765.287 62.5551 765.621 62.6386 765.96 62.6973C765.649 62.5499 765.327 62.4286 764.997 62.3346C764.687 62.2216 764.301 62.0967 763.849 61.9719C763.397 61.847 762.886 61.6864 762.309 61.5616C760.962 61.2377 759.598 60.9896 758.224 60.8183C756.539 60.6126 754.843 60.5093 753.145 60.509C751.449 60.5328 749.755 60.6579 748.073 60.8837C746.702 61.074 745.342 61.34 744 61.6805C743.405 61.8113 742.917 61.9778 742.466 62.1086C742.014 62.2395 741.633 62.3703 741.324 62.4833C740.997 62.5862 740.677 62.7114 740.366 62.8579Z" fill="white"/>
<path d="M783.496 52.7905C783.496 52.838 783.937 52.9035 784.614 53.1235C786.39 53.7074 787.901 54.9021 788.878 56.4951C789.059 56.842 789.257 57.1794 789.473 57.506C789.42 57.1095 789.284 56.7286 789.074 56.3881C788.624 55.5354 788 54.7862 787.243 54.1882C786.487 53.5903 785.614 53.1567 784.68 52.9153C784.299 52.7902 783.895 52.7476 783.496 52.7905Z" fill="white"/>
<path d="M759.204 47.1175C759.8 47.2824 760.409 47.3919 761.024 47.4446C762.16 47.5932 763.736 47.7479 765.478 47.8252C767.22 47.9025 768.802 47.8846 769.944 47.8252C770.562 47.8315 771.18 47.7757 771.787 47.6587C771.173 47.5972 770.555 47.5793 769.938 47.6051C768.802 47.6051 767.226 47.6051 765.49 47.504C763.753 47.403 762.184 47.3078 761.048 47.2127C760.437 47.1322 759.82 47.1004 759.204 47.1175Z" fill="white"/>
<path d="M824.473 52.3326C824.473 52.4158 830.313 53.3316 837.556 54.3782C844.798 55.4247 850.638 56.2037 850.679 56.1205C850.721 56.0372 844.834 55.1155 837.597 54.0749C830.36 53.0343 824.485 52.2493 824.473 52.3326Z" fill="white"/>
<path d="M830.438 39.3456C830.402 39.4229 833.191 40.7073 836.664 42.2118C840.136 43.7162 842.979 44.8698 843.014 44.7925C843.05 44.7152 840.261 43.4308 836.788 41.9263C833.316 40.4219 830.473 39.2683 830.438 39.3456Z" fill="white"/>
<path d="M833.756 37.7102C834.006 37.8934 834.272 38.0526 834.552 38.1859C835.076 38.4714 835.837 38.8757 836.788 39.3752C838.685 40.3385 841.343 41.617 844.322 42.9431C847.302 44.2691 850.037 45.3217 852.053 46.0769C853.052 46.4515 853.866 46.7369 854.431 46.9272C854.719 47.0397 855.015 47.1292 855.317 47.1948C855.049 47.0398 854.767 46.9123 854.473 46.8142L852.136 45.8747C850.156 45.0779 847.438 43.9659 844.465 42.6577C841.492 41.3494 838.822 40.1126 836.901 39.1968L834.624 38.1146C834.346 37.9559 834.056 37.8207 833.756 37.7102Z" fill="white"/>
<path d="M728.735 89.8131C729.209 88.5507 729.749 87.3141 730.353 86.1084C731.049 84.9532 731.803 83.8339 732.612 82.7546C732.276 82.9778 731.98 83.2574 731.738 83.5812C731.106 84.3146 730.552 85.1117 730.085 85.9598C729.616 86.8085 729.242 87.7058 728.967 88.6357C728.822 89.0118 728.744 89.4102 728.735 89.8131Z" fill="#455A64"/>
<path d="M729.063 96.2828C729.154 95.7733 729.218 95.2592 729.253 94.7427C729.405 93.5117 729.678 92.2988 730.068 91.1213C730.469 89.9486 730.983 88.8174 731.602 87.7437C731.888 87.3128 732.15 86.8661 732.387 86.4058C732.005 86.7645 731.679 87.1772 731.417 87.6307C730.727 88.6874 730.175 89.8286 729.776 91.0261C729.373 92.2207 729.123 93.4615 729.033 94.7189C728.967 95.2389 728.977 95.7657 729.063 96.2828Z" fill="#455A64"/>
<path d="M773.952 109.597C774.318 109.266 774.632 108.884 774.886 108.461C776.232 106.495 777.146 104.265 777.568 101.92C777.681 101.439 777.727 100.945 777.705 100.451C777.339 102.067 776.866 103.656 776.289 105.208C775.611 106.723 774.83 108.189 773.952 109.597Z" fill="#455A64"/>
<path d="M773.042 114.467C773.042 114.467 773.197 114.366 773.441 114.14C773.684 113.914 774.035 113.581 774.416 113.147C775.447 112.005 776.363 110.764 777.151 109.442C777.941 108.122 778.6 106.728 779.12 105.28C779.31 104.727 779.453 104.269 779.53 103.948C779.591 103.786 779.623 103.615 779.625 103.442C779.577 103.442 779.351 104.12 778.911 105.226C778.342 106.637 777.666 108.003 776.89 109.312C776.104 110.616 775.221 111.861 774.249 113.034C773.823 113.491 773.42 113.969 773.042 114.467Z" fill="#455A64"/>
<path d="M1000.98 112.992C1001.33 112.735 1001.65 112.433 1001.93 112.094C1002.63 111.325 1003.29 110.513 1003.89 109.662C1004.5 108.813 1005.05 107.925 1005.55 107.004C1005.78 106.635 1005.96 106.235 1006.08 105.815C1006 105.767 1005.05 107.498 1003.64 109.472C1002.23 111.446 1000.92 112.927 1000.98 112.992Z" fill="#455A64"/>
<path d="M1000.14 116.376C1001.16 115.7 1002.08 114.901 1002.9 113.997C1003.78 113.156 1004.56 112.207 1005.22 111.173C1005.14 111.119 1004.07 112.362 1002.68 113.777C1001.28 115.192 1000.08 116.304 1000.14 116.376Z" fill="#455A64"/>
<path d="M959.398 94.1183C959.488 94.1183 959.702 92.5841 960.374 90.7942C961.046 89.0043 961.89 87.6961 961.807 87.6426C960.348 89.4948 959.515 91.7623 959.428 94.1183H959.398Z" fill="#455A64"/>
<path d="M957.906 94.6832C958.187 93.2051 958.584 91.7515 959.095 90.3364C959.711 88.9602 960.432 87.6341 961.254 86.3701C960.911 86.6604 960.614 87.0013 960.374 87.381C959.742 88.2603 959.216 89.2102 958.804 90.2115C958.397 91.2164 958.111 92.2665 957.954 93.3394C957.865 93.7818 957.849 94.2357 957.906 94.6832Z" fill="#455A64"/>
<path d="M1006.14 120.229C1006.49 120.024 1006.8 119.765 1007.07 119.462C1007.77 118.789 1008.41 118.064 1008.99 117.292C1009.58 116.52 1010.1 115.705 1010.57 114.854C1010.78 114.514 1010.95 114.143 1011.05 113.753C1010.97 113.712 1010.1 115.317 1008.75 117.101C1007.39 118.885 1006.08 120.164 1006.14 120.229Z" fill="#455A64"/>
<path d="M1004.59 123.833C1004.76 123.781 1004.93 123.705 1005.08 123.607C1005.38 123.452 1005.8 123.197 1006.32 122.864C1008.99 121.092 1011.24 118.76 1012.92 116.031C1013.23 115.508 1013.48 115.074 1013.62 114.764C1013.71 114.612 1013.78 114.445 1013.83 114.271C1013.78 114.271 1013.41 114.907 1012.73 115.912C1010.97 118.537 1008.75 120.83 1006.19 122.685C1005.19 123.393 1004.55 123.785 1004.59 123.833Z" fill="#455A64"/>
<path d="M328.507 104.027L31.5977 104.494L31.5286 60.5513L328.438 60.0849L328.507 104.027Z" fill="#455A64"/>
<path d="M16.0725 28.1814C16.0725 28.1814 23.4977 29.0116 24.8167 28.1814C27.8029 26.2598 92.7889 0.0604872 148.629 0.000228088C193.415 -0.060031 233.742 11.8177 272.964 38.0036C272.964 38.0036 320.729 43.2663 339.382 57.2464C343.741 59.7773 352.639 69.7535 349.245 92.4109C347.082 106.86 336.323 107.469 321.626 107.141C321.626 107.141 327.096 63.2522 287.981 66.6067C254.745 69.4522 261.106 110.027 261.106 110.027L94.5699 110.288C94.5699 110.288 93.8401 92.2636 93.1304 87.8982C91.7177 79.1539 80.851 64.8257 60.5638 66.9548C38.308 69.2915 30.9029 89.5989 32.329 106.739C32.329 106.739 8.84805 111.814 5.67441 92.9265L0.070343 91.1857C0.070343 91.1857 -2.0856 52.0039 17.4785 35.533L13.2805 32.741L16.0725 28.1814Z" fill="#92E3A9"/>
<path d="M27.1466 26.9293C27.1466 26.9293 28.5325 30.7055 33.3064 30.277C37.1964 29.9355 59.4186 21.5126 67.5201 18.406C68.6769 17.9823 69.7178 17.2925 70.5587 16.3923C71.3997 15.492 72.017 14.4066 72.3609 13.2237C72.5303 12.7261 72.5673 12.1931 72.4681 11.677C72.4681 11.677 37.9195 19.9794 27.1466 26.9293Z" fill="#455A64"/>
<path d="M217.906 10.5188C217.913 12.1075 218.367 13.6621 219.218 15.004C220.068 16.3459 221.28 17.4207 222.714 18.1047L270.251 40.7555L272.97 37.8296C272.97 37.8296 268.002 34.2542 261.507 30.3909C255.481 26.8222 248.116 23.0259 243.717 20.8834C235.374 16.8128 226.748 13.349 217.906 10.5188Z" fill="#455A64"/>
<g opacity="0.3">
<path opacity="0.3" d="M60.0812 30.2837C59.7603 30.5584 59.5026 30.8993 59.326 31.283C59.1493 31.6667 59.0578 32.0842 59.0578 32.5066C59.0578 32.929 59.1493 33.3464 59.326 33.7302C59.5026 34.1139 59.7603 34.4548 60.0812 34.7295C62.438 37.1331 73.6663 45.4824 78.882 45.9912C84.0978 46.5001 242.492 57.0722 251.866 54.3873C261.239 51.7025 266.73 46.9487 264.373 44.2169L260.121 42.8109L185.454 44.3375L60.0812 30.2837Z" fill="white"/>
</g>
<g opacity="0.7">
<path opacity="0.7" d="M2.46727 63.9619C2.46727 63.9619 11.6869 66.6937 15.6238 59.4224C19.5607 52.1511 23.8994 44.4648 23.8994 42.8043C23.8994 40.722 22.4063 34.0265 17.4785 35.3857C17.4785 35.3857 3.77288 46.306 2.46727 63.9619Z" fill="white"/>
</g>
<g opacity="0.7">
<path opacity="0.7" d="M343.441 71.4207C343.441 71.4207 307.74 57.1393 313.519 52.2717C316.565 49.7007 345.918 63.8415 343.441 71.4207Z" fill="white"/>
</g>
<path d="M328.864 107.014C328.864 107.014 328.864 106.893 328.864 106.659C328.864 106.425 328.904 106.07 328.911 105.601C328.911 104.677 328.951 103.318 328.911 101.584C328.713 96.6188 327.949 91.6925 326.635 86.9007C325.724 83.5818 324.451 80.3732 322.838 77.3328C320.999 73.83 318.551 70.683 315.607 68.0395L314.422 67.0018L313.143 66.0577C312.268 65.4223 311.361 64.8323 310.425 64.2901C309.963 64.0022 309.454 63.7879 308.965 63.5335C308.477 63.2791 307.988 63.0179 307.466 62.8104L305.905 62.1944L305.115 61.8864L304.305 61.6387C303.207 61.2824 302.089 60.9896 300.958 60.7616L299.257 60.4067C298.681 60.3197 298.099 60.2594 297.523 60.1791C296.947 60.0987 296.358 60.0251 295.769 59.9648L294.001 59.8778C292.81 59.7805 291.613 59.7537 290.419 59.7974C285.725 59.7864 281.071 60.6492 276.693 62.3417C272.627 63.9601 268.969 66.4567 265.981 69.6531C263.317 72.5724 261.142 75.9028 259.539 79.5156C258.136 82.6501 257.052 85.9185 256.306 89.2709C255.232 94.1087 254.666 99.0455 254.618 104.001C254.618 105.762 254.665 107.128 254.719 108.052C254.719 108.507 254.779 108.862 254.806 109.096C254.833 109.33 254.859 109.451 254.859 109.451C254.859 109.451 254.859 109.33 254.859 109.096C254.859 108.862 254.859 108.494 254.812 108.045C254.772 107.121 254.746 105.762 254.812 104.028C254.903 99.0694 255.502 94.1335 256.6 89.2976C257.36 85.968 258.45 82.7225 259.854 79.6093C261.453 76.0313 263.619 72.7348 266.268 69.8473C269.236 66.6872 272.867 64.2244 276.901 62.6363C281.24 60.9604 285.854 60.1067 290.506 60.1188C295.153 59.9995 299.79 60.6141 304.245 61.94L305.055 62.181L305.832 62.489L307.378 63.0916C307.894 63.2992 308.369 63.5737 308.858 63.808C309.347 64.0424 309.849 64.27 310.304 64.5579C311.227 65.0877 312.121 65.6666 312.983 66.292L314.255 67.2294L315.426 68.2538C318.348 70.8685 320.783 73.9811 322.617 77.4467C324.24 80.4521 325.526 83.627 326.454 86.914C327.788 91.6849 328.588 96.5893 328.837 101.537C328.924 103.291 328.938 104.65 328.931 105.554V106.605C328.864 106.893 328.864 107.014 328.864 107.014Z" fill="#263238"/>
<path d="M100.18 110.134C100.18 110.134 100.18 110.013 100.227 109.779C100.274 109.545 100.274 109.203 100.301 108.748C100.361 107.837 100.415 106.485 100.401 104.731C100.381 99.8241 99.8396 94.9336 98.7876 90.1412C98.0646 86.8278 97.0104 83.5955 95.6408 80.493C94.0645 76.9207 91.9085 73.6335 89.26 70.7645C86.3092 67.6004 82.6846 65.1405 78.6544 63.5669C74.3138 61.9117 69.7081 61.0609 65.0627 61.0561C60.4364 60.8707 55.8096 61.4106 51.3504 62.6563C51.0825 62.7367 50.808 62.7969 50.5469 62.884L49.7635 63.1719L48.2035 63.7544C47.1858 64.1561 46.1949 64.6783 45.2441 65.1336C44.3268 65.696 43.3828 66.2049 42.5191 66.8142L41.2536 67.7449C41.0461 67.8989 40.8251 68.0461 40.631 68.2135L40.0485 68.7291C37.1037 71.2977 34.6452 74.3753 32.7906 77.8148C31.1921 80.8095 29.9474 83.9799 29.0813 87.2621C27.8192 92.0046 27.1446 96.8842 27.0727 101.791C27.0392 103.525 27.0727 104.878 27.1463 105.809C27.1463 106.264 27.1999 106.612 27.2266 106.846C27.2534 107.081 27.2802 107.194 27.2802 107.194C27.2921 107.077 27.2921 106.958 27.2802 106.84C27.2802 106.592 27.2802 106.25 27.2266 105.802C27.2266 104.891 27.1664 103.545 27.2266 101.818C27.3496 96.9269 28.0531 92.0677 29.3223 87.3425C30.2057 84.0865 31.4569 80.9417 33.0517 77.9688C34.9066 74.5663 37.3582 71.525 40.2895 68.9902L40.8653 68.4813C41.0661 68.3207 41.2804 68.1801 41.4813 68.0194L42.74 67.1021C43.5903 66.5062 44.5277 66.004 45.4182 65.4483C46.389 64.9997 47.3398 64.4842 48.3508 64.1092L49.8908 63.5401L50.6674 63.2589C50.9286 63.1652 51.2031 63.1049 51.4709 63.0313C55.8892 61.7853 60.4753 61.2385 65.0627 61.4109C69.6579 61.4208 74.2133 62.2647 78.5071 63.9017C82.5008 65.4494 86.0955 67.8749 89.0257 70.9988C91.6576 73.8378 93.8043 77.0907 95.3797 80.6269C96.7442 83.7118 97.8027 86.9232 98.5399 90.2148C99.6026 94.9894 100.177 99.8598 100.254 104.751C100.287 106.485 100.254 107.831 100.22 108.768C100.22 109.217 100.22 109.558 100.174 109.806C100.127 110.053 100.18 110.134 100.18 110.134Z" fill="#263238"/>
<path d="M61.6483 30.2771C61.6483 30.2771 75.4945 42.3289 81.4936 42.3289C87.4927 42.3289 245.606 51.9169 252.643 49.0713C256.35 47.6464 259.933 45.9175 263.355 43.9024C263.355 43.9024 211.76 6.74259 151.635 8.52358C107.499 9.8292 61.6483 30.2771 61.6483 30.2771Z" fill="#455A64"/>
<path d="M231.417 26.1593L241.862 49.5934L247.165 49.5867L238.535 29.5271L231.417 26.1593Z" fill="#263238"/>
<g opacity="0.3">
<path opacity="0.3" d="M99.6104 60.4421L118.358 60.4127L118.352 56.6699C118.351 56.4444 118.261 56.2283 118.102 56.069C117.942 55.9098 117.726 55.8206 117.5 55.821L100.453 55.8477C100.228 55.8481 100.012 55.938 99.8526 56.0977C99.6934 56.2574 99.6041 56.4739 99.6045 56.6994L99.6103 60.4087L99.6104 60.4421Z" fill="#252525"/>
</g>
<g opacity="0.3">
<path opacity="0.3" d="M172.679 60.3296L191.426 60.3001L191.42 56.5908C191.42 56.3653 191.33 56.1492 191.17 55.99C191.01 55.8307 190.794 55.7415 190.568 55.7419L173.515 55.7687C173.29 55.769 173.073 55.8589 172.914 56.0186C172.755 56.1784 172.666 56.3948 172.666 56.6203L172.672 60.3296L172.679 60.3296Z" fill="#252525"/>
</g>
<path d="M107.781 14.9646L91.4108 42.7842L106.663 43.601L104.695 30.2168L114.711 13.3577L107.781 14.9646Z" fill="#263238"/>
<path d="M167.463 8.91849L170.014 46.9219L164.45 46.6474L162.046 8.57703L167.463 8.91849Z" fill="#263238"/>
<path d="M238.718 55.3382L236.341 52.8809L240.124 48.0669L243.378 51.1803C243.862 51.5927 244.163 52.1801 244.215 52.814C244.67 55.8068 240.82 57.5075 238.718 55.3382Z" fill="#263238"/>
<path d="M229.102 54.4343C223.324 54.6285 218.777 48.7365 221.181 43.4739C221.43 42.8327 221.84 42.2664 222.371 41.8291C222.903 41.3918 223.537 41.0982 224.214 40.9764C230.24 39.9253 238.04 39.5369 240.143 48.0669C240.759 50.5911 239.346 52.1512 237.036 53.0952C234.84 53.9924 231.874 54.3339 229.102 54.4343Z" fill="#92E3A9"/>
<path d="M265.868 99.9325C264.857 85.3353 275.871 72.6827 290.469 71.6722C305.066 70.6617 317.718 81.6759 318.729 96.2732C319.739 110.87 308.725 123.523 294.128 124.534C279.531 125.544 266.878 114.53 265.868 99.9325Z" fill="#263238"/>
<path d="M292.274 80.4462C295.765 80.437 299.18 81.4634 302.088 83.3956C304.996 85.3278 307.266 88.079 308.61 91.3012C309.954 94.5233 310.312 98.0718 309.639 101.498C308.966 104.923 307.292 108.073 304.829 110.547C302.366 113.021 299.224 114.709 295.801 115.398C292.379 116.087 288.829 115.745 285.601 114.415C282.372 113.086 279.611 110.829 277.665 107.93C275.72 105.031 274.678 101.62 274.671 98.1289C274.666 95.8121 275.117 93.5169 275.999 91.3744C276.881 89.2319 278.176 87.284 279.81 85.642C281.445 84 283.387 82.696 285.525 81.8045C287.664 80.9131 289.957 80.4515 292.274 80.4462ZM306.435 98.0821C306.431 95.2866 305.598 92.5551 304.041 90.233C302.485 87.9109 300.275 86.1024 297.691 85.0363C295.107 83.9702 292.264 83.6943 289.523 84.2436C286.782 84.7928 284.266 86.1426 282.292 88.1221C280.318 90.1016 278.976 92.6219 278.434 95.3644C277.893 98.107 278.177 100.948 279.25 103.53C280.323 106.111 282.138 108.316 284.465 109.865C286.791 111.415 289.525 112.24 292.321 112.236C296.067 112.224 299.656 110.727 302.301 108.074C304.947 105.422 306.433 101.829 306.435 98.0821Z" fill="#E0E0E0"/>
<path d="M292.28 83.9412C295.078 83.9346 297.815 84.7579 300.146 86.3069C302.476 87.8559 304.294 90.0612 305.371 92.6438C306.448 95.2263 306.735 98.0703 306.196 100.816C305.656 103.562 304.315 106.086 302.341 108.069C300.367 110.052 297.849 111.405 295.106 111.958C292.363 112.51 289.518 112.237 286.93 111.172C284.343 110.107 282.129 108.299 280.569 105.976C279.009 103.654 278.173 100.92 278.166 98.1222C278.161 94.3711 279.644 90.7712 282.29 88.1125C284.936 85.4538 288.529 83.9536 292.28 83.9412Z" fill="#F5F5F5"/>
<path d="M296.479 98.1422C296.48 98.9686 296.236 99.7767 295.778 100.464C295.32 101.152 294.668 101.689 293.906 102.006C293.143 102.324 292.303 102.408 291.492 102.248C290.681 102.088 289.936 101.691 289.351 101.108C288.766 100.525 288.367 99.7807 288.204 98.9706C288.042 98.1604 288.123 97.3202 288.438 96.5563C288.753 95.7923 289.288 95.139 289.974 94.6788C290.66 94.2186 291.468 93.9723 292.294 93.971C292.843 93.9701 293.386 94.0773 293.893 94.2864C294.4 94.4956 294.861 94.8026 295.25 95.1899C295.639 95.5773 295.947 96.0373 296.158 96.5439C296.369 97.0504 296.478 97.5936 296.479 98.1422Z" fill="#263238"/>
<path d="M45.6085 117.776C35.262 107.429 35.262 90.6541 45.6085 80.3076C55.955 69.9611 72.73 69.9611 83.0765 80.3076C93.423 90.6541 93.423 107.429 83.0765 117.776C72.73 128.122 55.955 128.122 45.6085 117.776Z" fill="#263238"/>
<path d="M64.3196 81.3902C67.8105 81.3809 71.2258 82.4072 74.1335 84.3391C77.0412 86.271 79.3106 89.0218 80.6548 92.2436C81.999 95.4654 82.3575 99.0135 81.6851 102.439C81.0126 105.865 79.3394 109.014 76.877 111.488C74.4146 113.963 71.2737 115.652 67.8515 116.341C64.4292 117.03 60.8794 116.689 57.6511 115.361C54.4227 114.033 51.6607 111.777 49.7145 108.879C47.7682 105.981 46.7252 102.571 46.7172 99.0796C46.7066 94.3999 48.5549 89.9075 51.8558 86.5903C55.1567 83.2731 59.6399 81.4026 64.3196 81.3902ZM78.4537 99.0327C78.451 96.2347 77.6179 93.5004 76.0599 91.1763C74.502 88.8522 72.2892 87.0427 69.7021 85.9772C67.1149 84.9117 64.2696 84.638 61.5268 85.1909C58.7839 85.7438 56.2669 87.0983 54.2945 89.0829C52.3221 91.0675 50.9831 93.5928 50.4472 96.339C49.9113 99.0853 50.2025 101.929 51.2839 104.509C52.3654 107.09 54.1885 109.291 56.5222 110.835C58.8559 112.379 61.5953 113.195 64.3932 113.18C68.1297 113.155 71.7049 111.654 74.3388 109.004C76.9728 106.354 78.452 102.769 78.4537 99.0327Z" fill="#E0E0E0"/>
<path d="M64.326 84.8919C67.1244 84.884 69.8623 85.7061 72.1934 87.2543C74.5245 88.8026 76.3441 91.0074 77.422 93.5898C78.4999 96.1723 78.7878 99.0164 78.2491 101.762C77.7105 104.509 76.3696 107.033 74.396 109.017C72.4224 111.001 69.9047 112.355 67.1615 112.908C64.4183 113.461 61.5727 113.188 58.9847 112.123C56.3967 111.059 54.1825 109.251 52.6221 106.928C51.0618 104.605 50.2254 101.871 50.2187 99.0729C50.2116 95.3224 51.6933 91.7225 54.3383 89.0636C56.9834 86.4047 60.5756 84.9043 64.326 84.8919Z" fill="#F5F5F5"/>
<path d="M68.5254 99.1199C68.5267 99.9465 68.2828 100.755 67.8245 101.443C67.3662 102.131 66.7142 102.667 65.9509 102.985C65.1876 103.302 64.3473 103.386 63.5364 103.225C62.7256 103.065 61.9805 102.667 61.3955 102.083C60.8106 101.499 60.412 100.755 60.2502 99.9441C60.0885 99.1335 60.1708 98.2931 60.4868 97.5293C60.8029 96.7655 61.3384 96.1126 62.0256 95.6532C62.7128 95.1938 63.5208 94.9486 64.3474 94.9486C65.4543 94.9486 66.516 95.3879 67.2993 96.1699C68.0826 96.952 68.5236 98.013 68.5254 99.1199Z" fill="#263238"/>
<path d="M51.8001 49.2655C51.8108 50.0801 52.0628 50.8732 52.5244 51.5445C52.986 52.2157 53.6363 52.735 54.3931 53.0366C55.1499 53.3382 55.9791 53.4085 56.7758 53.2387C57.5726 53.0689 58.3011 52.6665 58.8691 52.0826C59.4371 51.4986 59.8192 50.7593 59.9669 49.9581C60.1146 49.157 60.0214 48.33 59.699 47.5819C59.3766 46.8337 58.8395 46.198 58.1557 45.7552C57.4719 45.3124 56.6721 45.0823 55.8575 45.0942C54.7666 45.1101 53.7266 45.5583 52.9658 46.3403C52.2051 47.1224 51.7858 48.1745 51.8001 49.2655Z" fill="#263238"/>
<path d="M100.281 100.794H100.676H101.848L106.347 100.881L122.885 101.149L177.46 101.818C198.778 102.039 218.081 102.18 232.048 102.2C239.031 102.2 244.689 102.2 248.592 102.133C252.496 102.066 254.672 101.979 254.618 101.852C254.105 101.934 253.585 101.968 253.065 101.952C252.04 101.952 250.521 101.992 248.572 101.999C244.669 101.999 239.011 101.999 232.028 101.959L177.446 101.463L122.872 100.887L106.327 100.733H101.828H100.656L100.281 100.794Z" fill="#263238"/>
<path d="M167.831 110.007C167.931 110.007 167.831 95.9462 167.557 78.6317C167.282 61.3173 167.021 47.2501 166.927 47.2568C166.833 47.2635 166.927 61.3173 167.208 78.6317C167.49 95.9462 167.737 110.007 167.831 110.007Z" fill="#263238"/>
<path d="M131.093 19.6112C131.033 19.6849 135.352 23.6285 140.742 28.4224C146.131 33.2164 150.55 37.0395 150.617 36.9659C150.684 36.8922 146.359 32.9486 140.969 28.1613C135.579 23.3741 131.16 19.5443 131.093 19.6112Z" fill="#F5F5F5"/>
<path d="M133.216 27.2039C133.422 27.4432 133.646 27.667 133.885 27.8734C134.327 28.2952 134.977 28.8911 135.794 29.6142C137.421 31.0738 139.697 33.0423 142.268 35.1581C144.839 37.2738 147.216 39.1352 148.964 40.4542C149.834 41.1237 150.544 41.6326 151.039 41.9874C151.288 42.1861 151.555 42.3609 151.836 42.5097C151.619 42.2788 151.381 42.0682 151.126 41.8803L149.118 40.26C147.417 38.9209 145.1 37.006 142.496 34.9036C139.891 32.8013 137.628 30.8462 135.961 29.4401L133.952 27.7864C133.728 27.5664 133.482 27.3711 133.216 27.2039Z" fill="#F5F5F5"/>
<path d="M187.691 20.4481C187.637 20.5285 193.938 24.9207 201.751 30.2637C209.565 35.6067 215.966 39.8717 216.019 39.7913C216.073 39.711 209.779 35.3188 201.959 29.9758C194.138 24.6328 187.744 20.3678 187.691 20.4481Z" fill="#F5F5F5"/>
<path d="M181.825 20.1803C182.075 20.4271 182.346 20.6512 182.635 20.8498L184.912 22.6041L192.431 28.3755L199.883 34.2341L202.139 36.0151C202.406 36.2457 202.693 36.4518 202.996 36.631C202.76 36.3691 202.502 36.1272 202.226 35.9079C201.717 35.4593 200.967 34.8233 200.037 34.0399C198.175 32.4865 195.571 30.3708 192.672 28.101C189.773 25.8313 187.054 23.8226 185.086 22.4032C184.102 21.6935 183.298 21.1311 182.736 20.7494C182.45 20.5324 182.145 20.3419 181.825 20.1803Z" fill="#F5F5F5"/>
<path d="M276.358 39.4432C276.419 39.4655 276.482 39.479 276.546 39.4834L277.081 39.5637L279.157 39.8449C280.958 40.0927 283.563 40.4609 286.763 41.0099C295.111 42.4418 303.359 44.4076 311.456 46.8952C316.196 48.3549 320.649 49.9283 324.653 51.4883C328.22 52.8051 331.696 54.3574 335.057 56.135C337.314 57.3476 339.407 58.8439 341.284 60.5875C341.626 60.8888 341.9 61.1833 342.141 61.4311C342.382 61.6788 342.59 61.8998 342.744 62.1006L343.112 62.5024C343.151 62.5499 343.194 62.5946 343.239 62.6363C343.239 62.6363 343.239 62.576 343.139 62.4823L342.797 62.0538C342.65 61.8663 342.463 61.6387 342.222 61.3842C341.981 61.1298 341.713 60.8218 341.378 60.5071C339.524 58.7159 337.439 57.1803 335.178 55.9408C331.821 54.126 328.342 52.5465 324.767 51.2138C320.749 49.6337 316.303 48.0402 311.556 46.5873C303.452 44.0912 295.186 42.1539 286.817 40.789C283.603 40.2734 280.992 39.9387 279.184 39.7311L277.102 39.5169L276.559 39.47C276.494 39.4492 276.426 39.4402 276.358 39.4432Z" fill="#F5F5F5"/>
<path d="M109.601 4.5731H109.876L110.686 4.43919L113.779 3.90356C116.458 3.44826 120.368 2.83229 125.209 2.24979C137.819 0.683321 150.552 0.360384 163.225 1.28564C178.069 2.45065 191.273 5.41004 200.72 7.72667C205.454 8.90507 209.263 9.92947 211.895 10.6526L214.928 11.4761L215.718 11.6837C215.807 11.7133 215.899 11.7335 215.992 11.7439C215.906 11.7033 215.817 11.6719 215.724 11.6502L214.948 11.4092L211.935 10.5187C209.31 9.7554 205.507 8.69081 200.78 7.48563C191.326 5.10874 178.116 2.12926 163.239 0.937471C150.545 0.00470728 137.79 0.361388 125.168 2.00205C120.321 2.61803 116.424 3.27418 113.739 3.76965C112.4 4.01068 111.362 4.23163 110.659 4.36554L109.856 4.53293C109.77 4.53749 109.685 4.55095 109.601 4.5731Z" fill="#F5F5F5"/>
<path d="M221.997 42.8778C222.292 42.8737 222.585 42.8445 222.874 42.7908C223.43 42.7238 224.213 42.6234 225.238 42.5765C227.846 42.4205 230.461 42.6989 232.978 43.4001C234.349 43.8008 235.637 44.4449 236.781 45.3016C237.705 46.0097 238.479 46.8951 239.057 47.9061C239.577 48.8522 239.913 49.8882 240.048 50.9593C240.048 50.9593 240.048 50.8789 240.048 50.7316C240.052 50.5077 240.039 50.2839 240.008 50.0621C239.892 49.2611 239.639 48.4863 239.258 47.7722C238.69 46.7104 237.908 45.7779 236.962 45.0338C235.796 44.1282 234.473 43.4471 233.058 43.0251C230.505 42.3114 227.845 42.0619 225.204 42.2886C224.406 42.3497 223.612 42.4592 222.827 42.6167C222.542 42.6737 222.264 42.7613 221.997 42.8778Z" fill="#F5F5F5"/>
<path d="M172.913 51.9636C172.913 52.0641 182.648 52.7202 194.667 53.4366C206.685 54.153 216.434 54.6552 216.44 54.5615C216.447 54.4677 206.712 53.8049 194.687 53.0885C182.662 52.3721 172.92 51.8699 172.913 51.9636Z" fill="#F5F5F5"/>
<path d="M282.451 60.0518C282.509 60.0582 282.567 60.0582 282.625 60.0518L283.114 59.9447C283.542 59.8643 284.158 59.6702 284.982 59.543C287.29 59.114 289.631 58.89 291.978 58.8734C295.457 58.8091 298.932 59.1552 302.33 59.9045C306.506 60.7569 310.49 62.373 314.08 64.6717C317.601 67.0737 320.636 70.1201 323.025 73.6503C324.983 76.527 326.516 79.6704 327.578 82.9838C328.296 85.218 328.783 87.5199 329.031 89.8533C329.158 90.6768 329.152 91.3263 329.198 91.7615L329.239 92.257C329.232 92.3148 329.232 92.3732 329.239 92.4311C329.249 92.3735 329.249 92.3146 329.239 92.257V91.7615C329.239 91.3196 329.239 90.6702 329.138 89.8399C328.942 87.4886 328.493 85.1653 327.799 82.9101C326.761 79.5595 325.239 76.3789 323.28 73.4695C320.892 69.8641 317.832 66.7521 314.268 64.3034C310.647 61.9789 306.623 60.3529 302.403 59.5095C298.977 58.7733 295.475 58.4496 291.972 58.5453C289.613 58.5943 287.263 58.8655 284.955 59.3555C284.131 59.5028 283.522 59.7237 283.094 59.8242L282.611 59.9648L282.451 60.0518Z" fill="#F5F5F5"/>
</svg>
