<svg width="1049" height="137" viewBox="0 0 1049 137" fill="none" xmlns="http://www.w3.org/2000/svg">
<path d="M807.799 28.7558C807.852 28.7649 807.907 28.7649 807.96 28.7558H808.424L810.208 28.7023L816.814 28.4406L826.614 28.0184L832.4 27.7627C833.405 27.6854 834.421 27.7627 835.462 27.7627H838.614C847.147 27.7627 854.859 27.3821 860.437 27.1383L867.044 26.8232L868.828 26.7221L869.297 26.6864C869.35 26.6965 869.405 26.6965 869.458 26.6864H868.828L867.044 26.728L860.431 26.948C854.848 27.1383 847.135 27.4535 838.614 27.4832H835.462C834.421 27.4832 833.399 27.4297 832.394 27.4832L826.608 27.7568L816.808 28.2444L810.202 28.6012L808.418 28.7141L807.948 28.7498L807.799 28.7558Z" fill="#263238"/>
<path d="M996.195 58.7141L712.431 58.7141V100.167L1022.4 100.167V84.9082C1022.39 77.9606 1019.63 71.298 1014.72 66.3858C1009.81 61.4736 1003.14 58.7141 996.195 58.7141V58.7141Z" fill="#FF725E"/>
<g opacity="0.4">
<path opacity="0.4" d="M996.195 58.7141L712.431 58.7141V100.167L1022.4 100.167V84.9082C1022.39 77.9606 1019.63 71.298 1014.72 66.3858C1009.81 61.4736 1003.14 58.7141 996.195 58.7141V58.7141Z" fill="#252525"/>
</g>
<path d="M1048.89 98.7396C1048.89 98.7396 1037.89 110.781 1017.67 108.331C1017.67 108.331 1025.76 63.4534 983.386 60.9856C983.386 60.9856 963.964 59.2909 953.962 75.2571C951.082 79.9377 949.511 85.3059 949.413 90.8011C949.247 97.1044 949.051 107.749 949.556 110.424C949.556 110.424 809.529 104.603 785.018 107.392C785.018 107.392 796.173 72.6704 765.436 61.5327C760.191 59.6298 754.138 59.4217 748.614 60.2007C741.079 61.2592 733.004 64.7081 727.801 72.6883C725.559 76.1194 722.788 81.0965 722.003 85.1163C720.665 92.0083 721.575 98.5018 722.003 101.879L710.414 100.756L702.053 73.051L703.242 56.5496L711.847 40.2801L732.243 42.7063C732.243 42.7063 769.979 32.0027 792.183 27.5369C814.387 23.0711 849.46 22.1851 857.951 23.6538C866.443 25.1226 869.677 26.6925 873.888 28.5121C878.098 30.3317 916.922 48.8965 916.922 48.8965L976.256 49.3782C976.256 49.3782 1016.79 48.5338 1042.39 78.9855L1038.99 92.6981L1048.89 98.7396Z" fill="#FF725E"/>
<path d="M916.911 48.8964C916.911 48.8964 880.346 50.4544 870.725 50.0857C861.104 49.717 809.048 43.61 809.048 43.61L808.299 28.6607C808.299 28.6607 825.568 27.5308 836.902 27.5308C846.333 27.5308 869.494 26.6508 869.494 26.6508C870.231 26.96 871.04 27.2811 871.795 27.6022C885.246 33.3405 900.362 40.9044 916.911 48.8964Z" fill="#455A64"/>
<path d="M1033.73 70.2502C1033.73 70.2502 1028.31 71.1184 1021.54 68.0798C1014.77 65.0411 995.493 54.6527 995.493 54.6527L996.765 52.0125C996.765 52.0125 1000.22 52.7082 1004.2 53.9688C1008.5 55.3617 1012.69 57.0854 1016.73 59.1244C1019.9 60.7149 1022.98 62.4757 1025.96 64.3989C1028.66 66.1975 1031.26 68.1512 1033.73 70.2502V70.2502Z" fill="#EBEBEB"/>
<path d="M1023.26 78.8963C1023.26 78.9796 1027.03 79.1579 1031.69 79.2947C1036.36 79.4315 1040.14 79.4731 1040.14 79.3839C1040.15 79.2947 1036.37 79.1223 1031.71 78.9855C1027.04 78.8487 1023.26 78.8131 1023.26 78.8963Z" fill="#263238"/>
<g opacity="0.4">
<path opacity="0.4" d="M1038.98 92.698L1025.7 98.8883C1025.7 98.8883 1038.72 101.469 1048.89 98.7574L1038.98 92.698Z" fill="white"/>
</g>
<path d="M1016.14 75.6971C1016.14 75.6971 1020.41 81.9528 1021.03 86.9359C1021.64 91.9191 1021.73 98.1688 1021.73 98.1688H1019.8C1019.8 98.1688 1021.41 82.9637 1013.4 75.6971H1016.14Z" fill="#EBEBEB"/>
<g opacity="0.3">
<path opacity="0.3" d="M948.552 63.9589L953.19 59.5526L913.872 58.1611L941.131 61.6398L948.552 63.9589Z" fill="#252525"/>
</g>
<path d="M945.537 99.144C945.544 99.0868 945.544 99.0288 945.537 98.9716C945.537 98.8348 945.537 98.6683 945.567 98.4602C945.567 98.0142 945.602 97.3542 945.662 96.5098C945.786 94.1202 946.032 91.7385 946.399 89.374C946.94 85.8592 947.91 82.4242 949.289 79.1461C950.995 75.1413 953.463 71.506 956.556 68.4425C959.642 65.3879 963.272 62.9375 967.259 61.2176L967.937 60.9143L968.627 60.6586L969.977 60.1472C970.887 59.8796 971.761 59.5526 972.617 59.3564C973.473 59.1601 974.312 58.9223 975.132 58.7914L976.322 58.5655L977.475 58.4109C979.841 58.1118 982.23 58.0302 984.611 58.1671C985.461 58.2027 986.109 58.2979 986.555 58.3276L987.067 58.3692H987.239C987.184 58.3489 987.126 58.3368 987.067 58.3336L986.567 58.2622C986.121 58.2146 985.467 58.0957 984.623 58.0422C982.223 57.8566 979.811 57.9084 977.422 58.1968L976.232 58.3395L975.043 58.5536C974.222 58.6844 973.384 58.8925 972.51 59.1066C971.636 59.3207 970.762 59.624 969.846 59.8915L968.484 60.397L967.788 60.6527L967.105 60.9559C963.068 62.675 959.392 65.1403 956.27 68.2225C953.152 71.3097 950.669 74.9785 948.962 79.0213C947.597 82.3209 946.652 85.7791 946.149 89.3146C945.813 91.6995 945.617 94.102 945.561 96.5098C945.519 97.3601 945.561 98.0202 945.525 98.4662V98.9775C945.52 99.0333 945.524 99.0895 945.537 99.144V99.144Z" fill="#263238"/>
<g opacity="0.4">
<path opacity="0.4" d="M938.931 97.0211L915.412 86.9657L800.039 89.1837L938.931 97.0211Z" fill="white"/>
</g>
<path d="M916.822 87.5722L949.313 63.2394L941.131 61.6398L907.552 87.1144L916.822 87.5722Z" fill="#263238"/>
<path d="M906.475 108.801C906.507 108.729 906.529 108.653 906.54 108.575C906.588 108.403 906.641 108.183 906.713 107.903C906.861 107.309 907.063 106.417 907.307 105.316C907.831 103.057 908.568 99.8576 909.46 95.9805V95.9508V95.9151C908.651 93.2273 907.73 90.1946 906.736 86.9241V86.9954C907.123 84.2601 907.533 81.3106 907.961 78.2542C908.556 73.9549 909.091 69.8637 909.418 66.1115L909.472 65.4098C909.49 65.1723 909.49 64.9338 909.472 64.6963C909.416 64.2404 909.318 63.7906 909.18 63.3524C908.919 62.523 908.597 61.7141 908.217 60.9322C907.533 59.5367 906.775 58.179 905.946 56.8648C904.429 54.4505 903.073 52.5952 902.122 51.3167C901.646 50.6805 901.266 50.1929 901.004 49.8718C900.885 49.7172 900.784 49.5982 900.707 49.5031C900.629 49.4079 900.6 49.3782 900.594 49.3841C900.616 49.4329 900.644 49.4788 900.677 49.5209L900.956 49.9074L902.027 51.3881C902.949 52.6844 904.275 54.5635 905.755 56.9778C906.569 58.2918 907.313 59.6475 907.985 61.0392C908.352 61.8091 908.664 62.604 908.919 63.4178C909.2 64.2739 909.284 65.1828 909.163 66.0758C908.824 69.8102 908.259 73.9014 907.688 78.2006C907.26 81.2571 906.855 84.2066 906.499 86.9419V86.9954L909.264 95.9805V95.9151C908.413 99.7981 907.712 103.009 907.218 105.275L906.671 107.873C906.612 108.153 906.57 108.379 906.534 108.557C906.503 108.635 906.483 108.717 906.475 108.801V108.801Z" fill="#263238"/>
<path d="M905.601 49.3424L860.182 27.1324L848.408 27.5368C848.408 27.5368 877.753 34.5298 883.284 50.0322L905.601 49.3424Z" fill="#263238"/>
<path d="M772.281 35.8084L776.753 40.7975L809.048 43.628L808.299 28.6786C808.299 28.6786 777.276 33.3525 772.281 35.8084Z" fill="#263238"/>
<path d="M905.637 101.862L905.244 101.826L904.085 101.755L899.625 101.517L883.219 100.708L829.106 98.1391L821.286 97.7645C818.77 97.5689 816.325 96.8369 814.115 95.6178C809.75 93.2392 806.384 89.6416 803.637 86.0084C801.014 82.5596 798.832 78.7959 797.144 74.8052C795.672 71.3268 794.769 67.6346 794.468 63.8697C794.355 62.2315 794.376 60.5867 794.533 58.952C794.687 57.4944 794.946 56.0497 795.306 54.629C795.902 52.354 796.811 50.1726 798.006 48.1473C798.775 46.8766 799.663 45.6819 800.658 44.5795C801.003 44.2048 801.282 43.9372 801.467 43.7469L801.734 43.4556C801.734 43.4556 801.633 43.5388 801.443 43.7232C801.253 43.9075 800.967 44.1691 800.61 44.5319C799.593 45.6291 798.687 46.8242 797.905 48.0997C796.688 50.1287 795.758 52.3158 795.14 54.5992C794.769 56.0273 794.501 57.4799 794.337 58.9461C794.169 60.5938 794.139 62.2527 794.248 63.9054C794.536 67.6954 795.433 71.4141 796.906 74.9182C798.588 78.943 800.772 82.7391 803.405 86.2165C806.141 89.8438 809.548 93.4533 813.948 95.9151C816.197 97.1559 818.684 97.902 821.245 98.1034L829.082 98.4781L883.195 100.952L899.601 101.671L904.067 101.85L905.226 101.885L905.637 101.862Z" fill="#455A64"/>
<path d="M774.095 54.3375C774.149 53.7975 774.255 53.2639 774.41 52.7438C774.904 51.3453 775.886 50.1716 777.175 49.4376C778.118 48.894 779.162 48.5469 780.243 48.4172C781.325 48.2874 782.421 48.3776 783.466 48.6824C784.701 49.0349 785.818 49.7126 786.701 50.6447C787.67 51.631 788.212 52.9581 788.212 54.3405C788.212 55.7228 787.67 57.0499 786.701 58.0362C785.82 58.9698 784.702 59.6461 783.466 59.9926C782.421 60.3005 781.325 60.3923 780.243 60.2625C779.161 60.1326 778.117 59.7839 777.175 59.2374C775.883 58.5063 774.901 57.3316 774.41 55.9311C774.255 55.4111 774.149 54.8775 774.095 54.3375C774.08 54.4798 774.08 54.6233 774.095 54.7656C774.095 54.9375 774.113 55.1088 774.148 55.277C774.173 55.5121 774.225 55.7435 774.303 55.9668C774.765 57.4226 775.75 58.6555 777.068 59.4277C778.034 60.0026 779.107 60.3737 780.222 60.5179C781.337 60.6621 782.469 60.5764 783.549 60.2661C784.841 59.9114 786.011 59.2102 786.933 58.2384C787.954 57.1968 788.526 55.7962 788.526 54.3375C788.526 52.8787 787.954 51.4782 786.933 50.4366C786.01 49.4669 784.84 48.7661 783.549 48.4089C782.469 48.098 781.336 48.0126 780.221 48.1579C779.106 48.3031 778.033 48.676 777.068 49.2533C775.749 50.0218 774.764 51.2533 774.303 52.7082C774.226 52.9316 774.174 53.163 774.148 53.3979C774.113 53.5681 774.095 53.7415 774.095 53.9153C774.08 54.0556 774.08 54.1971 774.095 54.3375V54.3375Z" fill="#263238"/>
<path d="M731.649 42.6409H731.804H732.268L734.052 42.6765L740.593 42.8014C746.123 42.9085 753.764 43.075 762.196 43.3961C770.628 43.7172 778.252 44.0918 783.782 44.5021C786.535 44.7221 788.771 44.8886 790.323 45.0551L792.107 45.2216L792.571 45.2573C792.624 45.2652 792.678 45.2652 792.731 45.2573C792.68 45.2491 792.628 45.2491 792.577 45.2573L792.119 45.1919L790.335 44.9659C788.801 44.7638 786.571 44.5616 783.794 44.3118C778.276 43.8421 770.64 43.4139 762.202 43.1225C753.764 42.8312 746.147 42.6884 740.593 42.6349C737.828 42.6349 735.586 42.6052 734.052 42.6349H732.268H731.804C731.753 42.6294 731.7 42.6314 731.649 42.6409V42.6409Z" fill="#263238"/>
<path d="M728.872 42.3079L709.308 45.073L711.847 40.2802L728.872 42.3079Z" fill="#EBEBEB"/>
<path d="M713.643 44.181C713.669 44.2834 713.705 44.383 713.75 44.4784L714.107 45.3049C714.422 46.0244 714.91 47.0532 715.534 48.2781C717.168 51.5433 718.974 54.7193 720.945 57.7925C722.918 60.866 725.052 63.8334 727.338 66.6824C728.218 67.7765 728.943 68.6447 729.466 69.2275L730.061 69.8994C730.127 69.9819 730.203 70.0558 730.287 70.1194C730.287 70.1194 730.234 70.0243 730.109 69.8578L729.556 69.1502C729.062 68.5555 728.366 67.6517 727.504 66.5456C725.786 64.3395 723.502 61.1938 721.201 57.6259C718.9 54.0581 717.038 50.6508 715.718 48.1711C715.07 46.9342 714.529 45.9233 714.214 45.1979L713.804 44.3951C713.759 44.3177 713.705 44.2459 713.643 44.181V44.181Z" fill="#263238"/>
<path d="M717.509 97.3184C717.518 97.2553 717.518 97.1912 717.509 97.1281V96.5335C717.509 96.0399 717.509 95.3442 717.509 94.3808C717.638 91.7407 718.037 89.1205 718.698 86.5613C719.69 82.7722 721.075 79.0971 722.831 75.596C723.825 73.5097 724.954 71.4896 726.208 69.5485C727.537 67.4595 729.206 65.6065 731.144 64.0658C733.132 62.5856 735.339 61.4241 737.685 60.6228C739.864 59.8577 742.098 59.2613 744.369 58.8389C748.212 58.124 752.128 57.8804 756.03 58.1134C758.667 58.2633 761.288 58.6272 763.867 59.2017L765.056 59.4811L765.937 59.7071L766.484 59.8439C766.543 59.8638 766.605 59.8758 766.668 59.8795C766.611 59.8518 766.551 59.8299 766.49 59.8141L765.954 59.6476L765.08 59.3919L763.891 59.0827C761.312 58.4594 758.684 58.0615 756.036 57.8934C752.106 57.6316 748.158 57.8634 744.286 58.5832C741.997 59.0031 739.745 59.5995 737.548 60.3672C735.174 61.177 732.941 62.3527 730.93 63.8518C728.968 65.4165 727.278 67.2952 725.929 69.4117C724.673 71.3658 723.543 73.3976 722.545 75.4949C720.797 79.0211 719.428 82.7226 718.46 86.5375C717.827 89.1149 717.469 91.7519 717.39 94.4046C717.39 95.3442 717.39 96.0756 717.431 96.5691C717.431 96.8011 717.431 96.9854 717.467 97.1281C717.473 97.193 717.487 97.2569 717.509 97.3184V97.3184Z" fill="#263238"/>
<path d="M702 70.0242C702.256 70.1355 702.521 70.225 702.791 70.2918C703.297 70.4523 704.046 70.6545 704.974 70.8864C709.815 72.0629 714.774 72.6913 719.756 72.7595C720.714 72.7595 721.487 72.7595 722.022 72.7595C722.299 72.7614 722.575 72.7395 722.849 72.6941C722.576 72.6466 722.299 72.6286 722.022 72.6406L719.762 72.5633C717.86 72.492 715.231 72.3195 712.347 71.9687C709.463 71.6178 706.876 71.1064 705.015 70.708L702.815 70.2145C702.55 70.1267 702.277 70.063 702 70.0242V70.0242Z" fill="#263238"/>
<path d="M926.247 70.7141C926.247 70.7141 926.116 70.7141 925.866 70.6665L924.755 70.5654L920.467 70.2146L904.691 68.9777C891.383 67.9609 872.991 66.5991 852.654 65.3385C842.485 64.7141 832.793 64.1908 823.974 63.7805C815.155 63.3702 807.193 63.1859 800.521 63.614C795.251 63.8796 790.012 64.5817 784.858 65.7131C783.039 66.1591 781.635 66.5099 780.696 66.8073L779.625 67.1284L779.263 67.2473C779.263 67.2473 779.393 67.2473 779.637 67.1581L780.714 66.8727C781.659 66.5932 783.092 66.278 784.876 65.8321C790.037 64.7388 795.276 64.0607 800.545 63.8043C807.205 63.4237 815.161 63.6021 823.974 64.0422C832.787 64.4822 842.479 64.9996 852.648 65.6239C872.979 66.8667 891.371 68.2106 904.685 69.1918L920.461 70.3454L924.749 70.6427L925.861 70.7141H926.247Z" fill="#263238"/>
<path d="M753.743 121.989C737.563 121.76 724.633 108.459 724.862 92.2794C725.09 76.1001 738.392 63.1696 754.571 63.3983C770.75 63.6271 783.681 76.9284 783.452 93.1077C783.223 109.287 769.922 122.218 753.743 121.989Z" fill="#263238"/>
<path d="M783.454 92.2045C783.454 92.2045 783.454 92.252 783.454 92.2758C783.51 96.1229 782.807 99.9433 781.387 103.519C779.966 107.095 777.855 110.355 775.174 113.115C772.493 115.875 769.295 118.08 765.762 119.604C762.229 121.127 758.431 121.94 754.584 121.996C746.814 122.109 739.318 119.131 733.745 113.716C728.171 108.302 724.976 100.896 724.864 93.1262V93.0489L783.454 92.2045Z" fill="#263238"/>
<path d="M774.731 92.4067C774.789 96.474 773.638 100.467 771.427 103.881C769.215 107.294 766.04 109.976 762.305 111.585C758.569 113.195 754.44 113.661 750.44 112.925C746.439 112.188 742.747 110.282 739.83 107.447C736.913 104.612 734.902 100.976 734.051 96.9982C733.2 93.0204 733.548 88.8798 735.05 85.0997C736.552 81.3195 739.141 78.0697 742.491 75.761C745.84 73.4524 749.798 72.1885 753.865 72.1293C756.567 72.0892 759.25 72.5821 761.762 73.5797C764.273 74.5773 766.563 76.06 768.501 77.9432C770.439 79.8265 771.987 82.0732 773.056 84.5549C774.125 87.0367 774.694 89.7048 774.731 92.4067V92.4067Z" fill="#FAFAFA"/>
<path d="M753.865 72.1293C756.567 72.0892 759.25 72.5819 761.761 73.5791C764.271 74.5763 766.561 76.0586 768.499 77.9412C770.437 79.8237 771.985 82.0698 773.054 84.5508C774.123 87.0319 774.693 89.6993 774.731 92.4008L733.594 92.9954C733.555 90.2942 734.048 87.6117 735.045 85.1011C736.043 82.5906 737.525 80.3011 739.407 78.3634C741.29 76.4258 743.536 74.8779 746.016 73.8083C748.497 72.7386 751.164 72.1681 753.865 72.1293V72.1293Z" fill="#E0E0E0"/>
<path d="M766.692 92.5197C766.728 94.9976 766.029 97.4306 764.682 99.511C763.336 101.591 761.402 103.226 759.127 104.207C756.851 105.189 754.336 105.473 751.898 105.025C749.461 104.577 747.211 103.416 745.434 101.69C743.656 99.9627 742.431 97.7476 741.912 95.3243C741.394 92.901 741.606 90.3783 742.521 88.0753C743.436 85.7724 745.014 83.7925 747.054 82.3863C749.095 80.98 751.507 80.2104 753.984 80.1748C755.63 80.1505 757.263 80.4505 758.792 81.0578C760.322 81.6651 761.716 82.5677 762.896 83.7142C764.076 84.8606 765.019 86.2283 765.67 87.7392C766.322 89.2501 766.669 90.8745 766.692 92.5197V92.5197Z" fill="#263238"/>
<path d="M983.086 121.996C966.906 121.889 953.876 108.685 953.983 92.5044C954.09 76.3238 967.294 63.2938 983.475 63.4011C999.656 63.5085 1012.69 76.7124 1012.58 92.893C1012.47 109.074 999.267 122.103 983.086 121.996Z" fill="#263238"/>
<path d="M1012.59 92.2045V92.2758C1012.65 96.1229 1011.94 99.9433 1010.52 103.519C1009.1 107.095 1006.99 110.355 1004.31 113.115C1001.63 115.875 998.431 118.08 994.898 119.604C991.365 121.127 987.567 121.94 983.72 121.996C975.95 122.109 968.454 119.131 962.88 113.716C957.307 108.302 954.112 100.896 953.999 93.1262C953.999 93.0964 953.999 93.0726 953.999 93.0489L1012.59 92.2045Z" fill="#263238"/>
<path d="M1003.87 92.4066C1003.92 96.4739 1002.77 100.467 1000.56 103.881C998.349 107.294 995.175 109.976 991.439 111.585C987.704 113.195 983.575 113.661 979.574 112.925C975.574 112.188 971.882 110.282 968.965 107.447C966.047 104.612 964.036 100.976 963.186 96.9981C962.335 93.0204 962.682 88.8797 964.185 85.0996C965.687 81.3194 968.276 78.0696 971.625 75.7609C974.974 73.4523 978.933 72.1885 983 72.1293C985.702 72.0899 988.385 72.5833 990.896 73.5812C993.407 74.579 995.696 76.0619 997.634 77.9449C999.572 79.828 1001.12 82.0744 1002.19 84.5558C1003.26 87.0372 1003.83 89.7049 1003.87 92.4066V92.4066Z" fill="#FAFAFA"/>
<path d="M983 72.1293C985.701 72.0899 988.384 72.5831 990.894 73.5806C993.405 74.5781 995.694 76.0604 997.632 77.9428C999.57 79.8253 1001.12 82.071 1002.19 84.5517C1003.26 87.0324 1003.83 89.6995 1003.87 92.4007L962.729 92.9953C962.689 90.2939 963.181 87.6111 964.178 85.1002C965.176 82.5892 966.658 80.2994 968.54 78.3616C970.423 76.4238 972.669 74.876 975.15 73.8066C977.631 72.7372 980.299 72.1672 983 72.1293V72.1293Z" fill="#E0E0E0"/>
<path d="M995.826 92.5197C995.862 94.9973 995.163 97.4301 993.816 99.5103C992.47 101.591 990.537 103.225 988.262 104.207C985.987 105.188 983.472 105.473 981.034 105.026C978.597 104.578 976.348 103.418 974.57 101.691C972.792 99.9653 971.566 97.7507 971.047 95.3278C970.528 92.9049 970.739 90.3824 971.653 88.0794C972.567 85.7763 974.144 83.7961 976.184 82.3891C978.224 80.9821 980.635 80.2116 983.112 80.1748C984.758 80.1505 986.392 80.4504 987.921 81.0577C989.451 81.6649 990.846 82.5674 992.026 83.7138C993.207 84.8602 994.15 86.2279 994.802 87.7388C995.454 89.2497 995.802 90.8743 995.826 92.5197Z" fill="#263238"/>
<path d="M790.668 42.0165C791.089 41.9986 791.51 42.0166 791.928 42.07C792.761 42.1295 793.986 42.2365 795.562 42.3852C798.713 42.6885 803.292 43.1464 808.905 43.741L828.683 45.8817L840.356 47.2137L846.523 47.9689C848.604 48.2543 850.727 48.5636 852.874 48.7538C857.179 49.1998 861.389 49.5269 865.45 49.8183L871.438 50.2107L872.901 50.294H877.195C884.687 50.294 891.43 50.1453 897.091 49.9075C902.752 49.6696 907.325 49.3842 910.489 49.1701L914.128 48.9085L915.073 48.8312L915.395 48.7955C915.395 48.7955 915.282 48.7955 915.067 48.7955L914.122 48.843L910.483 49.0452C907.319 49.2236 902.752 49.4793 897.085 49.6815C891.418 49.8837 884.687 50.0086 877.195 50.0026H872.913L871.456 49.9193L865.444 49.5328C861.383 49.2415 857.173 48.9085 852.879 48.4625C850.727 48.2484 848.622 47.9689 846.535 47.6775C844.447 47.3862 842.372 47.1661 840.362 46.9283L828.683 45.6201C821.244 44.8054 814.537 44.1037 808.899 43.5388C803.262 42.9739 798.701 42.5458 795.544 42.2841C792.386 42.0225 790.656 41.9154 790.668 42.0165Z" fill="#263238"/>
<path d="M884.925 53.3445C884.925 53.3445 880.055 43.9253 876.6 42.3019C876.6 42.3019 867.401 41.3267 865.997 41.6537C864.594 41.9808 864.154 44.1453 864.154 45.5487C864.154 46.952 863.94 49.4495 865.022 50.3058C866.104 51.1621 865.236 51.067 867.294 51.6081C869.351 52.1492 873.769 51.3167 873.769 51.3167L873.662 55.3187C873.662 55.3187 878.532 57.8102 881.672 57.055C882.544 56.874 883.333 56.4139 883.92 55.7444C884.507 55.0748 884.859 54.2324 884.925 53.3445Z" fill="#FF725E"/>
<path d="M873.62 55.2949C873.643 55.2074 873.655 55.1176 873.656 55.0273C873.656 54.8251 873.656 54.5635 873.698 54.2423C873.727 53.5288 873.769 52.5357 873.817 51.2691V51.1621H873.71C872.494 51.3795 871.267 51.5264 870.035 51.6021C869.303 51.6511 868.569 51.6351 867.84 51.5545C867.453 51.4995 867.071 51.4119 866.699 51.2929C866.324 51.1621 865.89 51.1026 865.682 50.7934C865.545 50.6205 865.391 50.4612 865.224 50.3177C865.059 50.1946 864.913 50.0484 864.79 49.8836C864.554 49.5254 864.402 49.119 864.344 48.6943C864.224 47.7858 864.188 46.8681 864.237 45.953C864.193 44.9974 864.335 44.0424 864.653 43.1403C864.808 42.6904 865.086 42.2928 865.456 41.9927C865.869 41.7469 866.352 41.6425 866.83 41.6953C868.554 41.6953 870.249 41.844 871.872 41.9689C873.496 42.0937 875.053 42.2424 876.522 42.3911H876.481C877.331 42.8682 878.092 43.49 878.728 44.2285C879.332 44.8874 879.898 45.5803 880.423 46.3038C881.434 47.6596 882.207 48.9143 882.879 49.9609C883.551 51.0075 884.015 51.8459 884.348 52.4227L884.728 53.0828C884.768 53.1612 884.816 53.2349 884.871 53.3028C884.847 53.2178 884.813 53.136 884.77 53.059L884.425 52.3811C884.122 51.7865 883.652 50.9361 883.028 49.8717C882.403 48.8073 881.612 47.5407 880.613 46.1611C880.088 45.4266 879.522 44.7219 878.919 44.0501C878.265 43.2793 877.48 42.631 876.6 42.1354H876.552C875.083 41.9808 873.525 41.8262 871.902 41.6894C870.278 41.5526 868.578 41.4158 866.824 41.4099C866.559 41.4083 866.295 41.4242 866.033 41.4575C865.757 41.4944 865.495 41.6008 865.272 41.7667C864.854 42.0999 864.54 42.5455 864.368 43.0511C864.038 43.9876 863.893 44.9791 863.94 45.9708C863.888 46.9063 863.93 47.8445 864.064 48.7716C864.133 49.2336 864.303 49.6745 864.564 50.062C864.701 50.2423 864.864 50.4024 865.046 50.5377C865.2 50.671 865.341 50.8183 865.468 50.9777C866.984 52.0065 868.655 51.9054 870.047 51.84C871.287 51.7524 872.52 51.5875 873.739 51.3464L873.638 51.2572C873.638 52.5 873.608 53.4931 873.597 54.2304C873.597 54.5515 873.597 54.8251 873.597 55.0094C873.595 55.1051 873.603 55.2008 873.62 55.2949Z" fill="#263238"/>
<path d="M936.207 66.5812C937.389 66.7425 938.583 66.7962 939.775 66.7418C940.967 66.7959 942.161 66.7422 943.343 66.5812C942.16 66.4277 940.966 66.376 939.775 66.4266C938.583 66.3758 937.39 66.4275 936.207 66.5812V66.5812Z" fill="#455A64"/>
<path d="M931.093 70.3454C932.275 70.5024 933.469 70.5541 934.661 70.5C935.852 70.5538 937.046 70.502 938.229 70.3454C937.046 70.1921 935.852 70.1404 934.661 70.1908C933.469 70.1402 932.275 70.1919 931.093 70.3454V70.3454Z" fill="#455A64"/>
<path d="M926.009 74.05C927.191 74.2034 928.385 74.2551 929.577 74.2045C930.768 74.2553 931.962 74.2036 933.145 74.05C931.962 73.8963 930.768 73.8446 929.577 73.8953C928.385 73.8448 927.191 73.8965 926.009 74.05V74.05Z" fill="#455A64"/>
<path d="M920.925 77.7843C922.107 77.9377 923.301 77.9895 924.493 77.9389C925.684 77.9895 926.878 77.9377 928.061 77.7843C926.878 77.6273 925.684 77.5755 924.493 77.6297C923.301 77.5755 922.107 77.6273 920.925 77.7843V77.7843Z" fill="#455A64"/>
<path d="M915.841 81.5188C917.023 81.6724 918.217 81.7242 919.409 81.6734C920.6 81.7239 921.794 81.6722 922.977 81.5188C921.795 81.3578 920.6 81.3041 919.409 81.3582C918.217 81.3038 917.023 81.3575 915.841 81.5188V81.5188Z" fill="#455A64"/>
<path d="M910.75 85.2472C911.932 85.4042 913.126 85.456 914.318 85.4018C915.509 85.4563 916.703 85.4046 917.886 85.2472C916.703 85.0936 915.509 85.0418 914.318 85.0926C913.126 85.042 911.933 85.0938 910.75 85.2472V85.2472Z" fill="#455A64"/>
<path d="M867.229 42.956C868.684 43.109 870.149 43.1607 871.612 43.1107C873.076 43.1608 874.543 43.1091 876 42.956C874.543 42.7994 873.076 42.7477 871.612 42.8014C870.149 42.7478 868.684 42.7995 867.229 42.956V42.956Z" fill="white"/>
<path d="M971.208 58.1195C971.511 58.0906 971.809 58.0328 972.1 57.947C972.665 57.8162 973.492 57.6437 974.521 57.4594C975.549 57.275 976.78 57.1145 978.148 56.9896C981.121 56.7375 984.112 56.8172 987.068 57.2275C988.429 57.4178 989.648 57.6497 990.665 57.8875C991.682 58.1254 992.497 58.3395 993.044 58.4822C993.33 58.5799 993.625 58.6535 993.924 58.7022C993.654 58.563 993.371 58.4514 993.079 58.3692C992.532 58.167 991.718 57.9173 990.701 57.6497C989.511 57.3447 988.306 57.1006 987.091 56.9183C984.112 56.4667 981.088 56.3868 978.088 56.6804C976.709 56.8231 975.472 57.0075 974.443 57.2215C973.415 57.4356 972.594 57.6378 972.035 57.8162C971.752 57.895 971.475 57.9964 971.208 58.1195V58.1195Z" fill="white"/>
<path d="M800.033 89.1838C800.033 89.267 831.062 91.0509 869.339 93.1679C907.617 95.2848 938.663 96.932 938.669 96.8428C938.675 96.7536 907.646 94.9756 869.357 92.8587C831.068 90.7417 800.033 89.0946 800.033 89.1838Z" fill="white"/>
<path d="M740.366 57.8579C740.705 57.801 741.037 57.7134 741.359 57.5962C741.675 57.5011 742.061 57.3881 742.513 57.2751C742.965 57.1621 743.476 57.0135 744.053 56.8946C745.195 56.621 746.575 56.3713 748.115 56.1631C749.786 55.9557 751.467 55.8426 753.151 55.8242C754.834 55.8225 756.515 55.9138 758.188 56.0977C759.734 56.288 761.114 56.5199 762.261 56.7756C762.856 56.8886 763.349 57.0313 763.801 57.1384C764.253 57.2454 764.646 57.3524 764.961 57.4476C765.287 57.5551 765.621 57.6386 765.96 57.6973C765.649 57.5499 765.327 57.4286 764.997 57.3346C764.687 57.2216 764.301 57.0967 763.849 56.9719C763.397 56.847 762.886 56.6864 762.309 56.5616C760.962 56.2377 759.598 55.9896 758.224 55.8183C756.539 55.6126 754.843 55.5093 753.145 55.509C751.449 55.5328 749.755 55.6579 748.073 55.8837C746.702 56.074 745.342 56.34 744 56.6805C743.405 56.8113 742.917 56.9778 742.466 57.1086C742.014 57.2395 741.633 57.3703 741.324 57.4833C740.997 57.5862 740.677 57.7114 740.366 57.8579Z" fill="white"/>
<path d="M783.496 47.7905C783.496 47.838 783.937 47.9035 784.614 48.1235C786.39 48.7074 787.901 49.9021 788.878 51.4951C789.059 51.842 789.257 52.1794 789.473 52.506C789.42 52.1095 789.284 51.7286 789.074 51.3881C788.624 50.5354 788 49.7862 787.243 49.1882C786.487 48.5903 785.614 48.1567 784.68 47.9153C784.299 47.7902 783.895 47.7476 783.496 47.7905V47.7905Z" fill="white"/>
<path d="M759.204 42.1175C759.8 42.2824 760.409 42.3919 761.024 42.4446C762.16 42.5932 763.736 42.7479 765.478 42.8252C767.22 42.9025 768.802 42.8846 769.944 42.8252C770.562 42.8315 771.18 42.7757 771.787 42.6587C771.173 42.5972 770.555 42.5793 769.938 42.6051C768.802 42.6051 767.226 42.6051 765.49 42.504C763.753 42.403 762.184 42.3078 761.048 42.2127C760.437 42.1322 759.82 42.1004 759.204 42.1175V42.1175Z" fill="white"/>
<path d="M824.473 47.3326C824.473 47.4158 830.313 48.3316 837.556 49.3782C844.798 50.4247 850.638 51.2037 850.679 51.1205C850.721 51.0372 844.834 50.1155 837.597 49.0749C830.36 48.0343 824.485 47.2493 824.473 47.3326Z" fill="white"/>
<path d="M830.438 34.3456C830.402 34.4229 833.191 35.7073 836.664 37.2118C840.136 38.7162 842.979 39.8698 843.014 39.7925C843.05 39.7152 840.261 38.4308 836.788 36.9263C833.316 35.4219 830.473 34.2683 830.438 34.3456Z" fill="white"/>
<path d="M833.756 32.7102C834.006 32.8934 834.272 33.0526 834.552 33.1859C835.076 33.4714 835.837 33.8757 836.788 34.3752C838.685 35.3385 841.343 36.617 844.322 37.9431C847.302 39.2691 850.037 40.3217 852.053 41.0769C853.052 41.4515 853.866 41.7369 854.431 41.9272C854.719 42.0397 855.015 42.1292 855.317 42.1948C855.049 42.0398 854.767 41.9123 854.473 41.8142L852.136 40.8747C850.156 40.0779 847.438 38.9659 844.465 37.6577C841.492 36.3494 838.822 35.1126 836.901 34.1968L834.624 33.1146C834.346 32.9559 834.056 32.8207 833.756 32.7102V32.7102Z" fill="white"/>
<path d="M728.735 84.8131C729.209 83.5507 729.749 82.3141 730.353 81.1084C731.049 79.9532 731.803 78.8339 732.612 77.7546C732.276 77.9778 731.98 78.2574 731.738 78.5812C731.106 79.3146 730.552 80.1117 730.085 80.9598C729.616 81.8085 729.242 82.7058 728.967 83.6357C728.822 84.0118 728.744 84.4102 728.735 84.8131V84.8131Z" fill="#455A64"/>
<path d="M729.063 91.2828C729.154 90.7733 729.218 90.2592 729.253 89.7427C729.405 88.5117 729.678 87.2988 730.068 86.1213C730.469 84.9486 730.983 83.8174 731.602 82.7437C731.888 82.3128 732.15 81.8661 732.387 81.4058C732.005 81.7645 731.679 82.1772 731.417 82.6307C730.727 83.6874 730.175 84.8286 729.776 86.0261C729.373 87.2207 729.123 88.4615 729.033 89.7189C728.967 90.2389 728.977 90.7657 729.063 91.2828V91.2828Z" fill="#455A64"/>
<path d="M773.952 104.597C774.318 104.266 774.632 103.884 774.886 103.461C776.232 101.495 777.146 99.2653 777.568 96.9201C777.681 96.4391 777.727 95.9448 777.705 95.4513C777.339 97.0667 776.866 98.6559 776.289 100.208C775.611 101.723 774.83 103.189 773.952 104.597V104.597Z" fill="#455A64"/>
<path d="M773.042 109.467C773.042 109.467 773.197 109.366 773.441 109.14C773.684 108.914 774.035 108.581 774.416 108.147C775.447 107.005 776.363 105.764 777.151 104.442C777.941 103.122 778.6 101.728 779.12 100.28C779.31 99.7268 779.453 99.2689 779.53 98.9478C779.591 98.7863 779.623 98.6152 779.625 98.4424C779.577 98.4424 779.351 99.1203 778.911 100.226C778.342 101.637 777.666 103.003 776.89 104.312C776.104 105.616 775.221 106.861 774.249 108.034C773.823 108.491 773.42 108.969 773.042 109.467V109.467Z" fill="#455A64"/>
<path d="M1000.98 107.992C1001.33 107.735 1001.65 107.433 1001.93 107.094C1002.63 106.325 1003.29 105.513 1003.89 104.662C1004.5 103.813 1005.05 102.925 1005.55 102.004C1005.78 101.635 1005.96 101.235 1006.08 100.815C1006 100.767 1005.05 102.498 1003.64 104.472C1002.23 106.446 1000.92 107.927 1000.98 107.992Z" fill="#455A64"/>
<path d="M1000.14 111.376C1001.16 110.7 1002.08 109.901 1002.9 108.997C1003.78 108.156 1004.56 107.207 1005.22 106.173C1005.14 106.119 1004.07 107.362 1002.68 108.777C1001.28 110.192 1000.08 111.304 1000.14 111.376Z" fill="#455A64"/>
<path d="M959.398 89.1183C959.488 89.1183 959.702 87.5841 960.374 85.7942C961.046 84.0043 961.89 82.6961 961.807 82.6426C960.348 84.4948 959.515 86.7623 959.428 89.1183H959.398Z" fill="#455A64"/>
<path d="M957.906 89.6832C958.187 88.2051 958.584 86.7515 959.095 85.3364C959.711 83.9602 960.432 82.6341 961.254 81.3701C960.911 81.6604 960.614 82.0013 960.374 82.381C959.742 83.2603 959.216 84.2102 958.804 85.2115C958.397 86.2164 958.111 87.2665 957.954 88.3394C957.865 88.7818 957.849 89.2357 957.906 89.6832V89.6832Z" fill="#455A64"/>
<path d="M1006.14 115.229C1006.49 115.024 1006.8 114.765 1007.07 114.462C1007.77 113.789 1008.41 113.064 1008.99 112.292C1009.58 111.52 1010.1 110.705 1010.57 109.854C1010.78 109.514 1010.95 109.143 1011.05 108.753C1010.97 108.712 1010.1 110.317 1008.75 112.101C1007.39 113.885 1006.08 115.164 1006.14 115.229Z" fill="#455A64"/>
<path d="M1004.59 118.833C1004.76 118.781 1004.93 118.705 1005.08 118.607C1005.38 118.452 1005.8 118.197 1006.32 117.864C1008.99 116.092 1011.24 113.76 1012.92 111.031C1013.23 110.508 1013.48 110.074 1013.62 109.764C1013.71 109.612 1013.78 109.445 1013.83 109.271C1013.78 109.271 1013.41 109.907 1012.73 110.912C1010.97 113.537 1008.75 115.83 1006.19 117.685C1005.19 118.393 1004.55 118.785 1004.59 118.833Z" fill="#455A64"/>
<path d="M328.507 104.027L31.5977 104.494L31.5286 60.5513L328.438 60.0849L328.507 104.027Z" fill="#455A64"/>
<path d="M16.0725 28.1814C16.0725 28.1814 23.4977 29.0116 24.8167 28.1814C27.8029 26.2598 92.7889 0.0604872 148.629 0.000228088C193.415 -0.060031 233.742 11.8177 272.964 38.0036C272.964 38.0036 320.729 43.2663 339.382 57.2464C343.741 59.7773 352.639 69.7535 349.245 92.411C347.082 106.86 336.323 107.469 321.626 107.141C321.626 107.141 327.096 63.2522 287.981 66.6067C254.745 69.4522 261.106 110.027 261.106 110.027L94.5699 110.288C94.5699 110.288 93.8401 92.2636 93.1304 87.8982C91.7177 79.1539 80.851 64.8257 60.5637 66.9548C38.3081 69.2915 30.9029 89.5989 32.329 106.739C32.329 106.739 8.84806 111.814 5.67442 92.9265L0.0703309 91.1857C0.0703309 91.1857 -2.0856 52.0039 17.4785 35.533L13.2804 32.741L16.0725 28.1814Z" fill="#92E3A9"/>
<path d="M27.1466 26.9293C27.1466 26.9293 28.5325 30.7055 33.3064 30.277C37.1964 29.9355 59.4186 21.5126 67.5201 18.406C68.6769 17.9823 69.7178 17.2925 70.5587 16.3923C71.3997 15.492 72.017 14.4066 72.3609 13.2237C72.5303 12.7261 72.5673 12.1931 72.4681 11.677C72.4681 11.677 37.9195 19.9794 27.1466 26.9293Z" fill="#455A64"/>
<path d="M217.906 10.5188C217.913 12.1075 218.367 13.6621 219.218 15.004C220.068 16.3459 221.28 17.4207 222.714 18.1047L270.251 40.7555L272.97 37.8296C272.97 37.8296 268.002 34.2542 261.507 30.3909C255.481 26.8222 248.116 23.0259 243.717 20.8834C235.374 16.8128 226.748 13.349 217.906 10.5188V10.5188Z" fill="#455A64"/>
<g opacity="0.3">
<path opacity="0.3" d="M60.0812 30.2837C59.7603 30.5584 59.5026 30.8993 59.326 31.283C59.1493 31.6667 59.0578 32.0842 59.0578 32.5066C59.0578 32.929 59.1493 33.3464 59.326 33.7302C59.5026 34.1139 59.7603 34.4548 60.0812 34.7295C62.438 37.1331 73.6663 45.4824 78.882 45.9912C84.0978 46.5001 242.492 57.0722 251.866 54.3873C261.239 51.7025 266.73 46.9487 264.373 44.2169L260.121 42.8109L185.454 44.3375L60.0812 30.2837Z" fill="white"/>
</g>
<g opacity="0.7">
<path opacity="0.7" d="M2.46727 63.9619C2.46727 63.9619 11.6869 66.6937 15.6238 59.4224C19.5607 52.1511 23.8994 44.4648 23.8994 42.8043C23.8994 40.722 22.4063 34.0265 17.4785 35.3857C17.4785 35.3857 3.77288 46.306 2.46727 63.9619Z" fill="white"/>
</g>
<g opacity="0.7">
<path opacity="0.7" d="M343.441 71.4207C343.441 71.4207 307.74 57.1393 313.519 52.2717C316.565 49.7007 345.918 63.8415 343.441 71.4207" fill="white"/>
</g>
<path d="M328.864 107.014C328.864 107.014 328.864 106.893 328.864 106.659C328.864 106.425 328.904 106.07 328.911 105.601C328.911 104.677 328.951 103.318 328.911 101.584C328.713 96.6188 327.949 91.6925 326.635 86.9007C325.724 83.5818 324.451 80.3732 322.838 77.3328C320.999 73.83 318.551 70.683 315.607 68.0395L314.422 67.0018L313.143 66.0577C312.268 65.4223 311.361 64.8323 310.425 64.2901C309.963 64.0022 309.454 63.7879 308.965 63.5335C308.477 63.2791 307.988 63.0179 307.466 62.8104L305.905 62.1944L305.115 61.8864L304.305 61.6387C303.207 61.2824 302.089 60.9896 300.958 60.7616L299.257 60.4067C298.681 60.3197 298.099 60.2594 297.523 60.1791C296.947 60.0987 296.358 60.0251 295.769 59.9648L294.001 59.8778C292.81 59.7805 291.613 59.7537 290.419 59.7974C285.725 59.7864 281.071 60.6492 276.693 62.3417C272.627 63.9601 268.969 66.4567 265.981 69.6531C263.317 72.5724 261.142 75.9028 259.539 79.5156C258.136 82.6501 257.052 85.9185 256.306 89.2709C255.232 94.1087 254.666 99.0455 254.618 104.001C254.618 105.762 254.665 107.128 254.719 108.052C254.719 108.507 254.779 108.862 254.806 109.096C254.833 109.33 254.859 109.451 254.859 109.451C254.859 109.451 254.859 109.33 254.859 109.096C254.859 108.862 254.859 108.494 254.812 108.045C254.772 107.121 254.746 105.762 254.812 104.028C254.903 99.0694 255.502 94.1335 256.6 89.2976C257.36 85.968 258.45 82.7225 259.854 79.6093C261.453 76.0313 263.619 72.7348 266.268 69.8473C269.236 66.6872 272.867 64.2244 276.901 62.6363C281.24 60.9604 285.854 60.1067 290.506 60.1188C295.153 59.9995 299.79 60.6141 304.245 61.94L305.055 62.181L305.832 62.489L307.378 63.0916C307.894 63.2992 308.369 63.5737 308.858 63.808C309.347 64.0424 309.849 64.27 310.304 64.5579C311.227 65.0877 312.121 65.6666 312.983 66.292L314.255 67.2294L315.426 68.2538C318.348 70.8685 320.783 73.9811 322.617 77.4467C324.24 80.4521 325.526 83.627 326.454 86.914C327.788 91.6849 328.588 96.5893 328.837 101.537C328.924 103.291 328.938 104.65 328.931 105.554V106.605C328.864 106.893 328.864 107.014 328.864 107.014Z" fill="#263238"/>
<path d="M100.18 110.134C100.18 110.134 100.18 110.013 100.227 109.779C100.274 109.545 100.274 109.203 100.301 108.748C100.361 107.837 100.415 106.485 100.401 104.731C100.381 99.8241 99.8396 94.9336 98.7876 90.1412C98.0646 86.8278 97.0104 83.5955 95.6408 80.493C94.0645 76.9207 91.9085 73.6335 89.26 70.7645C86.3092 67.6004 82.6846 65.1405 78.6544 63.5669C74.3138 61.9117 69.7081 61.0609 65.0627 61.0561C60.4364 60.8707 55.8096 61.4106 51.3504 62.6563C51.0825 62.7367 50.808 62.7969 50.5469 62.884L49.7635 63.1719L48.2035 63.7544C47.1858 64.1561 46.1949 64.6783 45.2441 65.1336C44.3268 65.696 43.3828 66.2049 42.5191 66.8142L41.2536 67.7449C41.0461 67.8989 40.8251 68.0461 40.631 68.2135L40.0485 68.7291C37.1037 71.2977 34.6452 74.3753 32.7906 77.8148C31.1921 80.8095 29.9474 83.9799 29.0813 87.2621C27.8192 92.0046 27.1446 96.8842 27.0727 101.791C27.0392 103.525 27.0727 104.878 27.1463 105.809C27.1463 106.264 27.1999 106.612 27.2266 106.846C27.2534 107.081 27.2802 107.194 27.2802 107.194C27.2921 107.077 27.2921 106.958 27.2802 106.84C27.2802 106.592 27.2802 106.25 27.2266 105.802C27.2266 104.891 27.1664 103.545 27.2266 101.818C27.3496 96.9269 28.0531 92.0677 29.3223 87.3425C30.2057 84.0865 31.4569 80.9417 33.0517 77.9688C34.9066 74.5663 37.3582 71.525 40.2895 68.9902L40.8653 68.4813C41.0661 68.3207 41.2804 68.1801 41.4813 68.0194L42.74 67.1021C43.5903 66.5062 44.5277 66.004 45.4182 65.4483C46.389 64.9997 47.3398 64.4842 48.3508 64.1092L49.8908 63.5401L50.6674 63.2589C50.9286 63.1652 51.2031 63.1049 51.4709 63.0313C55.8892 61.7853 60.4753 61.2385 65.0627 61.4109C69.6579 61.4208 74.2133 62.2647 78.5071 63.9017C82.5008 65.4494 86.0955 67.8749 89.0257 70.9988C91.6576 73.8378 93.8043 77.0907 95.3797 80.6269C96.7442 83.7118 97.8027 86.9232 98.5399 90.2148C99.6026 94.9894 100.177 99.8598 100.254 104.751C100.287 106.485 100.254 107.831 100.22 108.768C100.22 109.217 100.22 109.558 100.174 109.806C100.127 110.053 100.18 110.134 100.18 110.134Z" fill="#263238"/>
<path d="M61.6483 30.2771C61.6483 30.2771 75.4945 42.329 81.4936 42.329C87.4927 42.329 245.606 51.9169 252.643 49.0713C256.35 47.6464 259.933 45.9175 263.355 43.9024C263.355 43.9024 211.76 6.74259 151.635 8.52358C107.499 9.8292 61.6483 30.2771 61.6483 30.2771Z" fill="#455A64"/>
<path d="M231.417 26.1593L241.862 49.5934L247.165 49.5867L238.535 29.5271L231.417 26.1593Z" fill="#263238"/>
<g opacity="0.3">
<path opacity="0.3" d="M99.6104 60.4421L118.358 60.4127L118.352 56.6699C118.351 56.4444 118.261 56.2283 118.102 56.069C117.942 55.9098 117.726 55.8206 117.5 55.821L100.453 55.8477C100.228 55.8481 100.012 55.938 99.8526 56.0977C99.6934 56.2574 99.6041 56.4739 99.6045 56.6994L99.6103 60.4087L99.6104 60.4421Z" fill="#252525"/>
</g>
<g opacity="0.3">
<path opacity="0.3" d="M172.679 60.3296L191.426 60.3001L191.42 56.5908C191.42 56.3653 191.33 56.1492 191.17 55.99C191.01 55.8307 190.794 55.7415 190.568 55.7419L173.515 55.7687C173.29 55.769 173.073 55.8589 172.914 56.0186C172.755 56.1784 172.666 56.3948 172.666 56.6203L172.672 60.3296L172.679 60.3296Z" fill="#252525"/>
</g>
<path d="M107.781 14.9646L91.4108 42.7842L106.663 43.601L104.695 30.2168L114.711 13.3577L107.781 14.9646Z" fill="#263238"/>
<path d="M167.463 8.91849L170.014 46.9219L164.45 46.6474L162.046 8.57703L167.463 8.91849Z" fill="#263238"/>
<path d="M238.718 55.3382L236.341 52.8809L240.124 48.0669L243.378 51.1803C243.862 51.5927 244.163 52.1801 244.215 52.814C244.67 55.8068 240.82 57.5075 238.718 55.3382Z" fill="#263238"/>
<path d="M229.102 54.4343C223.324 54.6285 218.777 48.7365 221.181 43.4739C221.43 42.8327 221.84 42.2664 222.371 41.8291C222.903 41.3918 223.537 41.0982 224.214 40.9764C230.24 39.9253 238.04 39.5369 240.143 48.0669C240.759 50.5911 239.346 52.1512 237.036 53.0952C234.84 53.9924 231.874 54.3339 229.102 54.4343Z" fill="#92E3A9"/>
<path d="M265.868 99.9325C264.857 85.3353 275.871 72.6827 290.469 71.6722C305.066 70.6617 317.718 81.6759 318.729 96.2732C319.739 110.87 308.725 123.523 294.128 124.534C279.531 125.544 266.878 114.53 265.868 99.9325Z" fill="#263238"/>
<path d="M292.274 80.4462C295.765 80.437 299.18 81.4634 302.088 83.3956C304.996 85.3278 307.266 88.079 308.61 91.3012C309.954 94.5233 310.312 98.0718 309.639 101.498C308.966 104.923 307.292 108.073 304.829 110.547C302.366 113.021 299.224 114.709 295.801 115.398C292.379 116.087 288.829 115.745 285.601 114.415C282.372 113.086 279.611 110.829 277.665 107.93C275.72 105.031 274.678 101.62 274.671 98.1289C274.666 95.8121 275.117 93.5169 275.999 91.3744C276.881 89.2319 278.176 87.284 279.81 85.642C281.445 84 283.387 82.696 285.525 81.8045C287.664 80.9131 289.957 80.4515 292.274 80.4462V80.4462ZM306.435 98.0821C306.431 95.2866 305.598 92.5551 304.041 90.233C302.485 87.9109 300.275 86.1024 297.691 85.0363C295.107 83.9702 292.264 83.6943 289.523 84.2436C286.782 84.7928 284.266 86.1426 282.292 88.1221C280.318 90.1016 278.976 92.6219 278.434 95.3644C277.893 98.107 278.177 100.948 279.25 103.53C280.323 106.111 282.138 108.316 284.465 109.865C286.791 111.415 289.525 112.24 292.321 112.236C296.067 112.224 299.656 110.727 302.301 108.074C304.947 105.422 306.433 101.829 306.435 98.0821V98.0821Z" fill="#E0E0E0"/>
<path d="M292.28 83.9412C295.078 83.9346 297.815 84.7579 300.146 86.3069C302.476 87.8559 304.294 90.0612 305.371 92.6438C306.448 95.2263 306.735 98.0703 306.196 100.816C305.656 103.562 304.315 106.086 302.341 108.069C300.367 110.052 297.849 111.405 295.106 111.958C292.363 112.51 289.518 112.237 286.93 111.172C284.343 110.107 282.129 108.299 280.569 105.976C279.009 103.654 278.173 100.92 278.166 98.1222C278.161 94.3711 279.644 90.7712 282.29 88.1125C284.936 85.4538 288.529 83.9536 292.28 83.9412V83.9412Z" fill="#F5F5F5"/>
<path d="M296.479 98.1422C296.48 98.9686 296.236 99.7767 295.778 100.464C295.32 101.152 294.668 101.689 293.906 102.006C293.143 102.324 292.303 102.408 291.492 102.248C290.681 102.088 289.936 101.691 289.351 101.108C288.766 100.525 288.367 99.7807 288.204 98.9706C288.042 98.1604 288.123 97.3202 288.438 96.5563C288.753 95.7923 289.288 95.139 289.974 94.6788C290.66 94.2186 291.468 93.9723 292.294 93.971C292.843 93.9701 293.386 94.0773 293.893 94.2864C294.4 94.4956 294.861 94.8026 295.25 95.1899C295.639 95.5773 295.947 96.0373 296.158 96.5439C296.369 97.0504 296.478 97.5936 296.479 98.1422V98.1422Z" fill="#263238"/>
<path d="M45.6085 117.776C35.262 107.429 35.262 90.6541 45.6085 80.3076C55.955 69.9611 72.73 69.9611 83.0765 80.3076C93.423 90.6541 93.423 107.429 83.0765 117.776C72.73 128.122 55.955 128.122 45.6085 117.776Z" fill="#263238"/>
<path d="M64.3196 81.3902C67.8105 81.3809 71.2258 82.4072 74.1335 84.3391C77.0412 86.271 79.3106 89.0218 80.6548 92.2436C81.999 95.4654 82.3575 99.0135 81.6851 102.439C81.0126 105.865 79.3394 109.014 76.877 111.488C74.4146 113.963 71.2737 115.652 67.8515 116.341C64.4292 117.03 60.8794 116.689 57.6511 115.361C54.4227 114.033 51.6607 111.777 49.7145 108.879C47.7682 105.981 46.7252 102.571 46.7172 99.0796C46.7066 94.3999 48.5549 89.9075 51.8558 86.5903C55.1567 83.2731 59.6399 81.4026 64.3196 81.3902ZM78.4537 99.0327C78.451 96.2347 77.6179 93.5004 76.0599 91.1763C74.502 88.8522 72.2892 87.0427 69.7021 85.9772C67.1149 84.9117 64.2696 84.638 61.5268 85.1909C58.7839 85.7438 56.2669 87.0983 54.2945 89.0829C52.3221 91.0675 50.9831 93.5928 50.4472 96.339C49.9113 99.0853 50.2025 101.929 51.2839 104.509C52.3654 107.09 54.1885 109.291 56.5222 110.835C58.8559 112.379 61.5953 113.195 64.3932 113.18C68.1297 113.155 71.7049 111.654 74.3388 109.004C76.9728 106.354 78.452 102.769 78.4537 99.0327V99.0327Z" fill="#E0E0E0"/>
<path d="M64.326 84.8919C67.1244 84.884 69.8623 85.7061 72.1934 87.2543C74.5245 88.8026 76.3441 91.0074 77.422 93.5898C78.4999 96.1723 78.7878 99.0164 78.2491 101.762C77.7105 104.509 76.3696 107.033 74.396 109.017C72.4224 111.001 69.9047 112.355 67.1615 112.908C64.4183 113.461 61.5727 113.188 58.9847 112.123C56.3967 111.059 54.1825 109.251 52.6221 106.928C51.0618 104.605 50.2254 101.871 50.2187 99.0729C50.2116 95.3224 51.6933 91.7225 54.3383 89.0636C56.9834 86.4047 60.5756 84.9043 64.326 84.8919V84.8919Z" fill="#F5F5F5"/>
<path d="M68.5254 99.1199C68.5267 99.9465 68.2828 100.755 67.8245 101.443C67.3662 102.131 66.7142 102.667 65.9509 102.985C65.1876 103.302 64.3473 103.386 63.5364 103.225C62.7256 103.065 61.9805 102.667 61.3955 102.083C60.8106 101.499 60.412 100.755 60.2502 99.9441C60.0885 99.1335 60.1708 98.2931 60.4868 97.5293C60.8029 96.7655 61.3384 96.1126 62.0256 95.6532C62.7128 95.1938 63.5208 94.9486 64.3474 94.9486C65.4543 94.9486 66.516 95.3879 67.2993 96.1699C68.0826 96.952 68.5236 98.013 68.5254 99.1199V99.1199Z" fill="#263238"/>
<path d="M51.8001 49.2655C51.8108 50.0801 52.0628 50.8732 52.5244 51.5445C52.986 52.2157 53.6363 52.735 54.3931 53.0366C55.1499 53.3382 55.9791 53.4085 56.7758 53.2387C57.5726 53.0689 58.3011 52.6665 58.8691 52.0826C59.4371 51.4986 59.8192 50.7593 59.9669 49.9581C60.1146 49.157 60.0214 48.33 59.699 47.5819C59.3766 46.8337 58.8395 46.198 58.1557 45.7552C57.4719 45.3124 56.6721 45.0823 55.8575 45.0942C54.7666 45.1101 53.7266 45.5583 52.9658 46.3403C52.2051 47.1224 51.7858 48.1745 51.8001 49.2655V49.2655Z" fill="#263238"/>
<path d="M100.281 100.794H100.676H101.848L106.347 100.881L122.885 101.149L177.46 101.818C198.778 102.039 218.081 102.18 232.048 102.2C239.031 102.2 244.689 102.2 248.592 102.133C252.496 102.066 254.672 101.979 254.618 101.852C254.105 101.934 253.585 101.968 253.065 101.952C252.04 101.952 250.521 101.992 248.572 101.999C244.669 101.999 239.011 101.999 232.028 101.959L177.446 101.463L122.872 100.887L106.327 100.733H101.828H100.656L100.281 100.794Z" fill="#263238"/>
<path d="M167.831 110.007C167.931 110.007 167.831 95.9462 167.557 78.6317C167.282 61.3173 167.021 47.2501 166.927 47.2568C166.833 47.2635 166.927 61.3173 167.208 78.6317C167.49 95.9462 167.737 110.007 167.831 110.007Z" fill="#263238"/>
<path d="M131.093 19.6112C131.033 19.6849 135.352 23.6285 140.742 28.4224C146.131 33.2164 150.55 37.0395 150.617 36.9659C150.684 36.8922 146.359 32.9486 140.969 28.1613C135.579 23.3741 131.16 19.5443 131.093 19.6112Z" fill="#F5F5F5"/>
<path d="M133.216 27.2039C133.422 27.4432 133.646 27.667 133.885 27.8734C134.327 28.2952 134.977 28.8911 135.794 29.6142C137.421 31.0738 139.697 33.0423 142.268 35.1581C144.839 37.2738 147.216 39.1352 148.964 40.4542C149.834 41.1237 150.544 41.6326 151.039 41.9874C151.288 42.1861 151.555 42.3609 151.836 42.5097C151.619 42.2788 151.381 42.0682 151.126 41.8803L149.118 40.26C147.417 38.9209 145.1 37.006 142.496 34.9036C139.891 32.8013 137.628 30.8462 135.961 29.4401L133.952 27.7864C133.728 27.5664 133.482 27.3711 133.216 27.2039V27.2039Z" fill="#F5F5F5"/>
<path d="M187.691 20.4481C187.637 20.5285 193.938 24.9207 201.751 30.2637C209.565 35.6067 215.966 39.8717 216.019 39.7913C216.073 39.711 209.779 35.3188 201.959 29.9758C194.138 24.6328 187.744 20.3678 187.691 20.4481Z" fill="#F5F5F5"/>
<path d="M181.825 20.1803C182.075 20.4271 182.346 20.6512 182.635 20.8498L184.912 22.6041L192.431 28.3755L199.883 34.2341L202.139 36.0151C202.406 36.2457 202.693 36.4518 202.996 36.631C202.76 36.3691 202.502 36.1272 202.226 35.9079C201.717 35.4593 200.967 34.8233 200.037 34.0399C198.175 32.4865 195.571 30.3708 192.672 28.101C189.773 25.8313 187.054 23.8226 185.086 22.4032C184.102 21.6935 183.298 21.1311 182.736 20.7494C182.45 20.5324 182.145 20.3419 181.825 20.1803V20.1803Z" fill="#F5F5F5"/>
<path d="M276.358 39.4432C276.419 39.4655 276.482 39.479 276.546 39.4834L277.081 39.5637L279.157 39.8449C280.958 40.0927 283.563 40.4609 286.763 41.0099C295.111 42.4418 303.359 44.4076 311.456 46.8952C316.196 48.3549 320.649 49.9283 324.653 51.4883C328.22 52.8051 331.696 54.3574 335.057 56.135C337.314 57.3476 339.407 58.8439 341.284 60.5875C341.626 60.8888 341.9 61.1833 342.141 61.4311C342.382 61.6788 342.59 61.8998 342.744 62.1006L343.112 62.5024C343.151 62.5499 343.194 62.5946 343.239 62.6363C343.239 62.6363 343.239 62.576 343.139 62.4823L342.797 62.0538C342.65 61.8663 342.463 61.6387 342.222 61.3842C341.981 61.1298 341.713 60.8218 341.378 60.5071C339.524 58.7159 337.439 57.1803 335.178 55.9408C331.821 54.126 328.342 52.5465 324.767 51.2138C320.749 49.6337 316.303 48.0402 311.556 46.5873C303.452 44.0912 295.186 42.1539 286.817 40.789C283.603 40.2734 280.992 39.9387 279.184 39.7311L277.102 39.5169L276.559 39.47C276.494 39.4492 276.426 39.4402 276.358 39.4432Z" fill="#F5F5F5"/>
<path d="M109.601 4.5731H109.876L110.686 4.43919L113.779 3.90356C116.458 3.44826 120.368 2.83229 125.209 2.24979C137.819 0.683321 150.552 0.360384 163.225 1.28564C178.069 2.45065 191.273 5.41004 200.72 7.72667C205.454 8.90507 209.263 9.92947 211.895 10.6526L214.928 11.4761L215.718 11.6837C215.807 11.7133 215.899 11.7335 215.992 11.7439C215.906 11.7033 215.817 11.6719 215.724 11.6502L214.948 11.4092L211.935 10.5187C209.31 9.7554 205.507 8.69081 200.78 7.48563C191.326 5.10874 178.116 2.12926 163.239 0.937471C150.545 0.00470727 137.79 0.361388 125.168 2.00205C120.321 2.61803 116.424 3.27418 113.739 3.76965C112.4 4.01068 111.362 4.23163 110.659 4.36554L109.856 4.53293C109.77 4.53749 109.685 4.55095 109.601 4.5731Z" fill="#F5F5F5"/>
<path d="M221.997 42.8778C222.292 42.8737 222.585 42.8445 222.874 42.7908C223.43 42.7238 224.213 42.6234 225.238 42.5765C227.846 42.4205 230.461 42.6989 232.978 43.4001C234.349 43.8008 235.637 44.4449 236.781 45.3016C237.705 46.0097 238.479 46.8951 239.057 47.9061C239.577 48.8522 239.913 49.8882 240.048 50.9593C240.048 50.9593 240.048 50.8789 240.048 50.7316C240.052 50.5077 240.039 50.2839 240.008 50.0621C239.892 49.2611 239.639 48.4863 239.258 47.7722C238.69 46.7104 237.908 45.7779 236.962 45.0338C235.796 44.1282 234.473 43.4471 233.058 43.0251C230.505 42.3114 227.845 42.0619 225.204 42.2886C224.406 42.3497 223.612 42.4592 222.827 42.6167C222.542 42.6737 222.264 42.7613 221.997 42.8778V42.8778Z" fill="#F5F5F5"/>
<path d="M172.913 51.9636C172.913 52.0641 182.648 52.7202 194.667 53.4366C206.685 54.153 216.434 54.6552 216.44 54.5615C216.447 54.4677 206.712 53.8049 194.687 53.0885C182.662 52.3721 172.92 51.8699 172.913 51.9636Z" fill="#F5F5F5"/>
<path d="M282.451 60.0518C282.509 60.0582 282.567 60.0582 282.625 60.0518L283.114 59.9447C283.542 59.8643 284.158 59.6702 284.982 59.543C287.29 59.114 289.631 58.89 291.978 58.8734C295.457 58.8091 298.932 59.1552 302.33 59.9045C306.506 60.7569 310.49 62.373 314.08 64.6717C317.601 67.0737 320.636 70.1201 323.025 73.6503C324.983 76.527 326.516 79.6704 327.578 82.9838C328.296 85.218 328.783 87.5199 329.031 89.8533C329.158 90.6768 329.152 91.3263 329.198 91.7615L329.239 92.257C329.232 92.3148 329.232 92.3732 329.239 92.4311C329.249 92.3735 329.249 92.3146 329.239 92.257V91.7615C329.239 91.3196 329.239 90.6702 329.138 89.8399C328.942 87.4886 328.493 85.1653 327.799 82.9101C326.761 79.5595 325.239 76.3789 323.28 73.4695C320.892 69.8641 317.832 66.7521 314.268 64.3034C310.647 61.9789 306.623 60.3529 302.403 59.5095C298.977 58.7733 295.475 58.4496 291.972 58.5453C289.613 58.5943 287.263 58.8655 284.955 59.3555C284.131 59.5028 283.522 59.7237 283.094 59.8242L282.611 59.9648L282.451 60.0518Z" fill="#F5F5F5"/>
</svg>
