<?xml version="1.0" encoding="utf-8"?>
<!-- Generator: Adobe Illustrator 25.2.1, SVG Export Plug-In . SVG Version: 6.00 Build 0)  -->
<svg version="1.1" id="Capa_1" xmlns="http://www.w3.org/2000/svg" xmlns:xlink="http://www.w3.org/1999/xlink" x="0px" y="0px"
	 viewBox="0 0 575 297" style="enable-background:new 0 0 575 297;" xml:space="preserve">
<style type="text/css">
	.st0{fill:#455A64;}
	.st1{fill:#92E3A9;}
	.st2{opacity:0.3;}
	.st3{opacity:0.3;fill:#FFFFFF;enable-background:new    ;}
	.st4{opacity:0.7;}
	.st5{opacity:0.7;fill:#FFFFFF;enable-background:new    ;}
	.st6{fill:#263238;}
	.st7{opacity:0.3;fill:#252525;enable-background:new    ;}
	.st8{fill:#E0E0E0;}
	.st9{fill:#F5F5F5;}
	.st10{fill:#FFFFFF;}
	.st11{opacity:0.2;}
	.st12{opacity:0.2;fill:#FFFFFF;enable-background:new    ;}
	.st13{fill:#EBEBEB;}
</style>
<path class="st0" d="M400.8,263.1l-301.6,0.5L99.1,219l301.6-0.5L400.8,263.1z"/>
<path class="st1" d="M83.4,186.1c0,0,7.5,0.8,8.9,0c3-2,69.1-28.6,125.8-28.6c45.5-0.1,86.5,12,126.3,38.6c0,0,48.5,5.3,67.5,19.5
	c4.4,2.6,13.5,12.7,10,35.7c-2.2,14.7-13.1,15.3-28.1,15c0,0,5.6-44.6-34.2-41.2c-33.8,2.9-27.3,44.1-27.3,44.1l-169.2,0.3
	c0,0-0.7-18.3-1.5-22.7c-1.4-8.9-12.5-23.4-33.1-21.3c-22.6,2.4-30.1,23-28.7,40.4c0,0-23.9,5.2-27.1-14l-5.7-1.8
	c0,0-2.2-39.8,17.7-56.5l-4.3-2.8L83.4,186.1z"/>
<path class="st0" d="M94.6,184.8c0,0,1.4,3.8,6.3,3.4c4-0.3,26.5-8.9,34.8-12.1c1.2-0.4,2.2-1.1,3.1-2c0.9-0.9,1.5-2,1.8-3.2
	c0.2-0.5,0.2-1,0.1-1.6C140.7,169.3,105.6,177.8,94.6,184.8z"/>
<path class="st0" d="M288.4,168.1c0,1.6,0.5,3.2,1.3,4.6c0.9,1.4,2.1,2.5,3.6,3.1l48.3,23l2.8-3c0,0-5-3.6-11.6-7.6
	c-6.1-3.6-13.6-7.5-18.1-9.7C306.2,174.5,297.4,171,288.4,168.1L288.4,168.1z"/>
<g class="st2">
	<path class="st3" d="M128.1,188.2c-0.3,0.3-0.6,0.6-0.8,1s-0.3,0.8-0.3,1.2s0.1,0.9,0.3,1.2s0.4,0.7,0.8,1
		c2.4,2.4,13.8,10.9,19.1,11.4c5.3,0.5,166.2,11.3,175.7,8.5c9.5-2.7,15.1-7.6,12.7-10.3l-4.3-1.4l-75.9,1.6L128.1,188.2z"/>
</g>
<g class="st4">
	<path class="st5" d="M69.6,222.4c0,0,9.4,2.8,13.4-4.6c4-7.4,8.4-15.2,8.4-16.9c0-2.1-1.5-8.9-6.5-7.5
		C84.8,193.4,70.9,204.5,69.6,222.4z"/>
</g>
<g class="st4">
	<path class="st5" d="M416,230c0,0-36.3-14.5-30.4-19.5C388.6,208,418.5,222.3,416,230"/>
</g>
<path class="st6" d="M401.1,266.2c0,0,0-0.1,0-0.4s0-0.6,0-1.1c0-0.9,0-2.3,0-4.1c-0.2-5-1-10-2.3-14.9c-0.9-3.4-2.2-6.6-3.9-9.7
	c-1.9-3.6-4.4-6.8-7.3-9.4l-1.2-1.1l-1.3-1c-0.9-0.6-1.8-1.2-2.8-1.8c-0.5-0.3-1-0.5-1.5-0.8c-0.5-0.3-1-0.5-1.5-0.7l-1.6-0.6
	l-0.8-0.3l-0.8-0.3c-1.1-0.4-2.3-0.7-3.4-0.9l-1.7-0.4c-0.6-0.1-1.2-0.1-1.8-0.2c-0.6-0.1-1.2-0.2-1.8-0.2l-1.8-0.1
	c-1.2-0.1-2.4-0.1-3.6-0.1c-4.8,0-9.5,0.9-13.9,2.6c-4.1,1.6-7.8,4.2-10.9,7.4c-2.7,3-4.9,6.3-6.5,10c-1.4,3.2-2.5,6.5-3.3,9.9
	c-1.1,4.9-1.7,9.9-1.7,15c0,1.8,0,3.2,0.1,4.1c0,0.5,0.1,0.8,0.1,1.1c0,0.2,0.1,0.4,0.1,0.4s0-0.1,0-0.4c0-0.2,0-0.6,0-1.1
	c0-0.9-0.1-2.3,0-4.1c0.1-5,0.7-10.1,1.8-15c0.8-3.4,1.9-6.7,3.3-9.8c1.6-3.6,3.8-7,6.5-9.9c3-3.2,6.7-5.7,10.8-7.3
	c4.4-1.7,9.1-2.6,13.8-2.6c4.7-0.1,9.4,0.5,14,1.9l0.8,0.2l0.8,0.3l1.6,0.6c0.5,0.2,1,0.5,1.5,0.7c0.5,0.2,1,0.5,1.5,0.8
	c0.9,0.5,1.8,1.1,2.7,1.8l1.3,1l1.2,1c3,2.7,5.4,5.8,7.3,9.3c1.6,3.1,3,6.3,3.9,9.6c1.4,4.8,2.2,9.8,2.4,14.9
	c0.1,1.8,0.1,3.2,0.1,4.1v1.1C401.1,266.1,401.1,266.2,401.1,266.2z"/>
<path class="st6" d="M168.8,269.3c0,0,0-0.1,0-0.4c0-0.2,0-0.6,0.1-1c0.1-0.9,0.1-2.3,0.1-4.1c0-5-0.6-10-1.6-14.8
	c-0.7-3.4-1.8-6.6-3.2-9.8c-1.6-3.6-3.8-7-6.5-9.9c-3-3.2-6.7-5.7-10.8-7.3c-4.4-1.7-9.1-2.5-13.8-2.6c-4.7-0.2-9.4,0.4-13.9,1.6
	c-0.3,0.1-0.6,0.1-0.8,0.2l-0.8,0.3l-1.6,0.6c-1,0.4-2,0.9-3,1.4c-0.9,0.6-1.9,1.1-2.8,1.7l-1.3,0.9c-0.2,0.2-0.4,0.3-0.6,0.5
	l-0.6,0.5c-3,2.6-5.5,5.7-7.4,9.2c-1.6,3-2.9,6.3-3.8,9.6c-1.3,4.8-2,9.8-2,14.8c0,1.8,0,3.1,0.1,4.1c0,0.5,0.1,0.8,0.1,1.1
	c0,0.2,0.1,0.4,0.1,0.4c0-0.1,0-0.2,0-0.4c0-0.3,0-0.6-0.1-1.1c0-0.9-0.1-2.3,0-4c0.1-5,0.8-9.9,2.1-14.7c0.9-3.3,2.2-6.5,3.8-9.5
	c1.9-3.5,4.4-6.5,7.4-9.1l0.6-0.5c0.2-0.2,0.4-0.3,0.6-0.5l1.3-0.9c0.9-0.6,1.8-1.1,2.7-1.7c1-0.5,2-1,3-1.4l1.6-0.6l0.8-0.3
	c0.3-0.1,0.5-0.2,0.8-0.2c4.5-1.3,9.1-1.8,13.8-1.6c4.7,0,9.3,0.9,13.7,2.5c4.1,1.6,7.7,4,10.7,7.2c2.7,2.9,4.9,6.2,6.5,9.8
	c1.4,3.1,2.5,6.4,3.2,9.7c1.1,4.9,1.7,9.8,1.7,14.8c0,1.8,0,3.1,0,4.1c0,0.5,0,0.8,0,1.1C168.8,269.3,168.8,269.3,168.8,269.3z"/>
<path class="st0" d="M129.7,188.2c0,0,14.1,12.2,20.2,12.2c6.1,0,166.7,9.7,173.9,6.8c3.8-1.4,7.4-3.2,10.9-5.3
	c0,0-52.4-37.8-113.5-35.9C176.3,167.4,129.7,188.2,129.7,188.2z"/>
<path class="st6" d="M302.1,184l10.6,23.8l5.4,0l-8.8-20.4L302.1,184z"/>
<g class="st2">
	<path class="st7" d="M168.2,218.9l19,0l0-3.8c0-0.2-0.1-0.4-0.3-0.6c-0.2-0.2-0.4-0.3-0.6-0.3l-17.3,0c-0.2,0-0.4,0.1-0.6,0.3
		c-0.2,0.2-0.3,0.4-0.3,0.6L168.2,218.9L168.2,218.9z"/>
</g>
<g class="st2">
	<path class="st7" d="M242.5,218.8l19,0l0-3.8c0-0.2-0.1-0.4-0.3-0.6c-0.2-0.2-0.4-0.3-0.6-0.3l-17.3,0c-0.2,0-0.4,0.1-0.6,0.3
		c-0.2,0.2-0.3,0.4-0.3,0.6L242.5,218.8L242.5,218.8z"/>
</g>
<path class="st6" d="M176.5,172.7l-16.6,28.3l15.5,0.8l-2-13.6l10.2-17.1L176.5,172.7z"/>
<path class="st6" d="M237.2,166.5l2.6,38.6l-5.7-0.3l-2.4-38.7L237.2,166.5z"/>
<path class="st6" d="M309.6,213.7l-2.4-2.5l3.8-4.9l3.3,3.2c0.5,0.4,0.8,1,0.9,1.7C315.6,214.2,311.7,215.9,309.6,213.7z"/>
<path class="st1" d="M299.8,212.8c-5.9,0.2-10.5-5.8-8-11.1c0.3-0.7,0.7-1.2,1.2-1.7c0.5-0.4,1.2-0.7,1.9-0.9
	c6.1-1.1,14-1.5,16.2,7.2c0.6,2.6-0.8,4.1-3.2,5.1C305.6,212.3,302.6,212.7,299.8,212.8z"/>
<path class="st6" d="M337.1,259c-1-14.8,10.2-27.7,25-28.7c14.8-1,27.7,10.2,28.7,25c1,14.8-10.2,27.7-25,28.7
	C351,285,338.2,273.8,337.1,259z"/>
<path class="st8" d="M364,239.2c3.5,0,7,1,10,3c3,2,5.3,4.8,6.6,8c1.4,3.3,1.7,6.9,1,10.4c-0.7,3.5-2.4,6.7-4.9,9.2
	c-2.5,2.5-5.7,4.2-9.2,4.9c-3.5,0.7-7.1,0.4-10.4-1c-3.3-1.4-6.1-3.6-8.1-6.6c-2-2.9-3-6.4-3-10c0-2.4,0.5-4.7,1.3-6.9
	c0.9-2.2,2.2-4.2,3.9-5.8c1.7-1.7,3.6-3,5.8-3.9C359.3,239.7,361.6,239.2,364,239.2L364,239.2z M378.4,257.1c0-2.8-0.8-5.6-2.4-8
	c-1.6-2.4-3.8-4.2-6.5-5.3c-2.6-1.1-5.5-1.4-8.3-0.8c-2.8,0.6-5.3,1.9-7.3,3.9c-2,2-3.4,4.6-3.9,7.4c-0.6,2.8-0.3,5.7,0.8,8.3
	c1.1,2.6,2.9,4.9,5.3,6.4c2.4,1.6,5.1,2.4,8,2.4c3.8,0,7.5-1.5,10.1-4.2C376.8,264.6,378.4,260.9,378.4,257.1L378.4,257.1z"/>
<path class="st9" d="M364,242.7c2.8,0,5.6,0.8,8,2.4c2.4,1.6,4.2,3.8,5.3,6.4c1.1,2.6,1.4,5.5,0.8,8.3c-0.5,2.8-1.9,5.4-3.9,7.4
	c-2,2-4.6,3.4-7.3,4c-2.8,0.6-5.7,0.3-8.3-0.8s-4.9-2.9-6.5-5.3c-1.6-2.4-2.4-5.1-2.4-8c0-3.8,1.5-7.5,4.2-10.2
	C356.5,244.3,360.2,242.8,364,242.7L364,242.7z"/>
<path class="st6" d="M368.2,257.2c0,0.8-0.2,1.7-0.7,2.4c-0.5,0.7-1.1,1.2-1.9,1.6c-0.8,0.3-1.6,0.4-2.5,0.2
	c-0.8-0.2-1.6-0.6-2.2-1.2c-0.6-0.6-1-1.3-1.2-2.2s-0.1-1.7,0.2-2.5s0.9-1.4,1.6-1.9c0.7-0.5,1.5-0.7,2.4-0.7c0.6,0,1.1,0.1,1.6,0.3
	c0.5,0.2,1,0.5,1.4,0.9c0.4,0.4,0.7,0.9,0.9,1.4C368.1,256.1,368.2,256.6,368.2,257.2L368.2,257.2z"/>
<path class="st6" d="M113.4,277.1c-10.5-10.5-10.5-27.6,0-38.1s27.6-10.5,38.1,0s10.5,27.6,0,38.1
	C140.9,287.6,123.9,287.6,113.4,277.1z"/>
<path class="st8" d="M132.4,240.1c3.5,0,7,1,10,3c3,2,5.3,4.8,6.6,8c1.4,3.3,1.7,6.9,1,10.4c-0.7,3.5-2.4,6.7-4.9,9.2
	c-2.5,2.5-5.7,4.2-9.2,4.9c-3.5,0.7-7.1,0.4-10.4-1c-3.3-1.4-6.1-3.6-8.1-6.6c-2-2.9-3-6.4-3-10c0-4.8,1.9-9.3,5.2-12.7
	C123.1,242.1,127.6,240.2,132.4,240.1z M146.8,258.1c0-2.8-0.8-5.6-2.4-8c-1.6-2.4-3.8-4.2-6.5-5.3c-2.6-1.1-5.5-1.4-8.3-0.8
	c-2.8,0.6-5.3,1.9-7.3,4c-2,2-3.4,4.6-3.9,7.4c-0.5,2.8-0.2,5.7,0.9,8.3c1.1,2.6,3,4.9,5.3,6.4c2.4,1.6,5.2,2.4,8,2.4
	c3.8,0,7.4-1.5,10.1-4.2C145.2,265.5,146.7,261.9,146.8,258.1L146.8,258.1z"/>
<path class="st9" d="M132.4,243.7c2.8,0,5.6,0.8,8,2.4s4.2,3.8,5.3,6.4c1.1,2.6,1.4,5.5,0.8,8.3c-0.5,2.8-1.9,5.4-3.9,7.4
	c-2,2-4.6,3.4-7.3,4c-2.8,0.6-5.7,0.3-8.3-0.8c-2.6-1.1-4.9-2.9-6.5-5.3c-1.6-2.4-2.4-5.1-2.4-8c0-3.8,1.5-7.5,4.2-10.2
	C124.9,245.2,128.6,243.7,132.4,243.7L132.4,243.7z"/>
<path class="st6" d="M136.7,258.2c0,0.8-0.2,1.7-0.7,2.4c-0.5,0.7-1.1,1.2-1.9,1.6c-0.8,0.3-1.6,0.4-2.5,0.2s-1.6-0.6-2.2-1.2
	c-0.6-0.6-1-1.3-1.2-2.2c-0.2-0.8-0.1-1.7,0.2-2.5s0.9-1.4,1.6-1.9c0.7-0.5,1.5-0.7,2.4-0.7c1.1,0,2.2,0.4,3,1.2
	C136.2,256,136.7,257,136.7,258.2L136.7,258.2z"/>
<path class="st6" d="M119.7,207.5c0,0.8,0.3,1.6,0.7,2.3c0.5,0.7,1.1,1.2,1.9,1.5c0.8,0.3,1.6,0.4,2.4,0.2c0.8-0.2,1.5-0.6,2.1-1.2
	c0.6-0.6,1-1.3,1.1-2.2c0.1-0.8,0.1-1.7-0.3-2.4c-0.3-0.8-0.9-1.4-1.6-1.9c-0.7-0.5-1.5-0.7-2.3-0.7c-1.1,0-2.2,0.5-2.9,1.3
	C120.1,205.3,119.7,206.4,119.7,207.5L119.7,207.5z"/>
<path class="st6" d="M168.9,259.9h0.4h1.2l4.6,0.1l16.8,0.3l55.4,0.7c21.7,0.2,41.3,0.4,55.5,0.4c7.1,0,12.8,0,16.8-0.1
	c4-0.1,6.2-0.2,6.1-0.3c-0.5,0.1-1.1,0.1-1.6,0.1c-1,0-2.6,0-4.6,0c-4,0-9.7,0-16.8,0l-55.4-0.5l-55.4-0.6l-16.8-0.2h-4.6h-1.2
	L168.9,259.9z"/>
<path class="st6" d="M237.5,269.2c0.1,0,0-14.3-0.3-31.9c-0.3-17.6-0.5-31.9-0.6-31.9c-0.1,0,0,14.3,0.3,31.9
	C237.2,254.9,237.5,269.2,237.5,269.2z"/>
<path class="st9" d="M200.2,177.4c-0.1,0.1,4.3,4.1,9.8,9c5.5,4.9,10,8.8,10,8.7c0.1-0.1-4.3-4.1-9.8-8.9
	C204.8,181.2,200.3,177.3,200.2,177.4z"/>
<path class="st9" d="M202.4,185.1c0.2,0.2,0.4,0.5,0.7,0.7c0.4,0.4,1.1,1,1.9,1.8c1.7,1.5,4,3.5,6.6,5.6c2.6,2.1,5,4,6.8,5.4
	c0.9,0.7,1.6,1.2,2.1,1.6c0.3,0.2,0.5,0.4,0.8,0.5c-0.2-0.2-0.5-0.4-0.7-0.6l-2-1.6c-1.7-1.4-4.1-3.3-6.7-5.4
	c-2.6-2.1-4.9-4.1-6.6-5.6l-2-1.7C202.9,185.5,202.7,185.3,202.4,185.1L202.4,185.1z"/>
<path class="st9" d="M257.7,178.2c-0.1,0.1,6.3,4.5,14.3,10c7.9,5.4,14.4,9.8,14.5,9.7c0.1-0.1-6.3-4.5-14.3-10
	C264.3,182.5,257.8,178.2,257.7,178.2z"/>
<path class="st9" d="M251.8,178c0.3,0.2,0.5,0.5,0.8,0.7l2.3,1.8l7.6,5.9l7.6,6l2.3,1.8c0.3,0.2,0.6,0.4,0.9,0.6
	c-0.2-0.3-0.5-0.5-0.8-0.7c-0.5-0.5-1.3-1.1-2.2-1.9c-1.9-1.6-4.5-3.7-7.5-6c-2.9-2.3-5.7-4.3-7.7-5.8c-1-0.7-1.8-1.3-2.4-1.7
	C252.4,178.3,252.1,178.1,251.8,178L251.8,178z"/>
<path class="st9" d="M347.8,197.5c0.1,0,0.1,0,0.2,0l0.5,0.1l2.1,0.3c1.8,0.3,4.5,0.6,7.7,1.2c8.5,1.5,16.9,3.5,25.1,6
	c4.8,1.5,9.3,3.1,13.4,4.7c3.6,1.3,7.2,2.9,10.6,4.7c2.3,1.2,4.4,2.8,6.3,4.5c0.3,0.3,0.6,0.6,0.9,0.9c0.2,0.3,0.5,0.5,0.6,0.7
	l0.4,0.4c0,0,0.1,0.1,0.1,0.1c0,0,0-0.1-0.1-0.2l-0.3-0.4c-0.1-0.2-0.3-0.4-0.6-0.7c-0.2-0.3-0.5-0.6-0.9-0.9
	c-1.9-1.8-4-3.4-6.3-4.6c-3.4-1.8-6.9-3.4-10.6-4.8c-4.1-1.6-8.6-3.2-13.4-4.7c-8.2-2.5-16.6-4.5-25.1-5.9c-3.3-0.5-5.9-0.9-7.8-1.1
	l-2.1-0.2l-0.6,0C347.9,197.5,347.9,197.5,347.8,197.5z"/>
<path class="st9" d="M178.4,162.1h0.3l0.8-0.1l3.1-0.5c2.7-0.5,6.7-1.1,11.6-1.7c12.8-1.6,25.7-1.9,38.6-1
	c15.1,1.2,28.5,4.2,38.1,6.5c4.8,1.2,8.7,2.2,11.4,3l3.1,0.8l0.8,0.2c0.1,0,0.2,0.1,0.3,0.1c-0.1,0-0.2-0.1-0.3-0.1l-0.8-0.2
	l-3.1-0.9c-2.7-0.8-6.5-1.9-11.3-3.1c-9.6-2.4-23-5.4-38.1-6.7c-12.9-0.9-25.9-0.6-38.7,1.1c-4.9,0.6-8.9,1.3-11.6,1.8
	c-1.4,0.2-2.4,0.5-3.1,0.6l-0.8,0.2C178.6,162.1,178.5,162.1,178.4,162.1z"/>
<path class="st9" d="M292.6,201c0.3,0,0.6,0,0.9-0.1c0.6-0.1,1.4-0.2,2.4-0.2c2.6-0.2,5.3,0.1,7.9,0.8c1.4,0.4,2.7,1.1,3.9,1.9
	c0.9,0.7,1.7,1.6,2.3,2.6c0.5,1,0.9,2,1,3.1c0,0,0-0.1,0-0.2c0-0.2,0-0.5,0-0.7c-0.1-0.8-0.4-1.6-0.8-2.3c-0.6-1.1-1.4-2-2.3-2.8
	c-1.2-0.9-2.5-1.6-4-2c-2.6-0.7-5.3-1-8-0.7c-0.8,0.1-1.6,0.2-2.4,0.3C293.1,200.8,292.8,200.9,292.6,201L292.6,201z"/>
<path class="st9" d="M242.7,210.3c0,0.1,9.9,0.8,22.1,1.5c12.2,0.7,22.1,1.2,22.1,1.1c0-0.1-9.9-0.8-22.1-1.5
	S242.7,210.2,242.7,210.3z"/>
<path class="st9" d="M354,218.5c0.1,0,0.1,0,0.2,0l0.5-0.1c0.4-0.1,1.1-0.3,1.9-0.4c2.3-0.4,4.7-0.7,7.1-0.7c3.5-0.1,7.1,0.3,10.5,1
	c4.2,0.9,8.3,2.5,11.9,4.8c3.6,2.4,6.7,5.5,9.1,9.1c2,2.9,3.5,6.1,4.6,9.5c0.7,2.3,1.2,4.6,1.5,7c0.1,0.8,0.1,1.5,0.2,1.9l0,0.5
	c0,0.1,0,0.1,0,0.2c0-0.1,0-0.1,0-0.2v-0.5c0-0.4,0-1.1-0.1-2c-0.2-2.4-0.7-4.7-1.4-7c-1.1-3.4-2.6-6.6-4.6-9.6
	c-2.4-3.7-5.5-6.8-9.2-9.3c-3.7-2.4-7.8-4-12.1-4.9c-3.5-0.7-7-1.1-10.6-1c-2.4,0-4.8,0.3-7.1,0.8c-0.8,0.1-1.5,0.4-1.9,0.5
	l-0.5,0.1L354,218.5z"/>
<path class="st1" d="M385.3,267.1h-33.9v6.1h33.9V267.1z"/>
<path class="st6" d="M354.7,273.3c-0.2-2-0.2-4.1,0-6.1C354.9,269.2,354.9,271.2,354.7,273.3L354.7,273.3z"/>
<path class="st6" d="M352.9,273.3c-0.2-2-0.2-4.1,0-6.1C353.1,269.2,353.1,271.2,352.9,273.3L352.9,273.3z"/>
<path class="st6" d="M358.8,273.3c-0.2-2-0.2-4.1,0-6.1C359,269.2,359,271.2,358.8,273.3L358.8,273.3z"/>
<path class="st6" d="M357,273.3c-0.2-2-0.2-4.1,0-6.1C357.2,269.2,357.2,271.2,357,273.3L357,273.3z"/>
<path class="st6" d="M362.9,273.3c-0.2-2-0.2-4.1,0-6.1C363.1,269.2,363.1,271.2,362.9,273.3L362.9,273.3z"/>
<path class="st6" d="M361,273.3c-0.2-2-0.2-4.1,0-6.1C361.2,269.2,361.2,271.2,361,273.3L361,273.3z"/>
<path class="st6" d="M367,273.3c-0.2-2-0.2-4.1,0-6.1C367.1,269.2,367.1,271.2,367,273.3L367,273.3z"/>
<path class="st6" d="M365.1,273.3c-0.2-2-0.2-4.1,0-6.1C365.3,269.2,365.3,271.2,365.1,273.3L365.1,273.3z"/>
<path class="st6" d="M371,273.3c-0.2-2-0.2-4.1,0-6.1C371.2,269.2,371.2,271.2,371,273.3L371,273.3z"/>
<path class="st6" d="M369.2,273.3c-0.2-2-0.2-4.1,0-6.1C369.4,269.2,369.4,271.2,369.2,273.3L369.2,273.3z"/>
<path class="st6" d="M375.1,273.3c-0.2-2-0.2-4.1,0-6.1C375.3,269.2,375.3,271.2,375.1,273.3L375.1,273.3z"/>
<path class="st6" d="M373.2,273.3c-0.2-2-0.2-4.1,0-6.1C373.4,269.2,373.4,271.2,373.2,273.3L373.2,273.3z"/>
<path class="st6" d="M379.2,273.3c-0.2-2-0.2-4.1,0-6.1C379.4,269.2,379.4,271.2,379.2,273.3L379.2,273.3z"/>
<path class="st6" d="M377.3,273.3c-0.2-2-0.2-4.1,0-6.1C377.5,269.2,377.5,271.2,377.3,273.3L377.3,273.3z"/>
<path class="st6" d="M383.2,273.3c-0.2-2-0.2-4.1,0-6.1C383.4,269.2,383.4,271.2,383.2,273.3L383.2,273.3z"/>
<path class="st6" d="M381.4,273.3c-0.2-2-0.2-4.1,0-6.1C381.6,269.2,381.6,271.2,381.4,273.3L381.4,273.3z"/>
<path class="st6" d="M385.3,267.1c0,0.1-7.6,0.1-17.1,0.1c-9.4,0-17.1-0.1-17.1-0.1c0-0.1,7.6-0.1,17.1-0.1
	C377.7,266.9,385.3,267,385.3,267.1z"/>
<path class="st1" d="M382.6,273.2h-33.9v6.1h33.9V273.2z"/>
<path class="st6" d="M352.1,279.4c-0.2-2-0.2-4.1,0-6.1C352.3,275.3,352.3,277.3,352.1,279.4L352.1,279.4z"/>
<path class="st6" d="M350.2,279.4c-0.2-2-0.2-4.1,0-6.1C350.4,275.3,350.4,277.3,350.2,279.4L350.2,279.4z"/>
<path class="st6" d="M356.1,279.4c-0.2-2-0.2-4.1,0-6.1C356.3,275.3,356.3,277.3,356.1,279.4L356.1,279.4z"/>
<path class="st6" d="M354.3,279.4c-0.2-2-0.2-4.1,0-6.1C354.5,275.3,354.5,277.3,354.3,279.4L354.3,279.4z"/>
<path class="st6" d="M360.2,279.4c-0.2-2-0.2-4.1,0-6.1C360.4,275.3,360.4,277.3,360.2,279.4L360.2,279.4z"/>
<path class="st6" d="M358.4,279.4c-0.2-2-0.2-4.1,0-6.1C358.6,275.3,358.6,277.3,358.4,279.4L358.4,279.4z"/>
<path class="st6" d="M364.3,279.4c-0.2-2-0.2-4.1,0-6.1C364.5,275.3,364.5,277.3,364.3,279.4L364.3,279.4z"/>
<path class="st6" d="M362.4,279.4c-0.2-2-0.2-4.1,0-6.1C362.6,275.3,362.6,277.3,362.4,279.4L362.4,279.4z"/>
<path class="st6" d="M368.4,279.4c-0.2-2-0.2-4.1,0-6.1C368.6,275.3,368.6,277.3,368.4,279.4L368.4,279.4z"/>
<path class="st6" d="M366.5,279.4c-0.2-2-0.2-4.1,0-6.1C366.7,275.3,366.7,277.3,366.5,279.4L366.5,279.4z"/>
<path class="st6" d="M372.4,279.4c-0.2-2-0.2-4.1,0-6.1C372.6,275.3,372.6,277.3,372.4,279.4L372.4,279.4z"/>
<path class="st6" d="M370.6,279.4c-0.2-2-0.2-4.1,0-6.1C370.8,275.3,370.8,277.3,370.6,279.4L370.6,279.4z"/>
<path class="st6" d="M376.5,279.4c-0.2-2-0.2-4.1,0-6.1C376.7,275.3,376.7,277.3,376.5,279.4L376.5,279.4z"/>
<path class="st6" d="M374.7,279.4c-0.2-2-0.2-4.1,0-6.1C374.8,275.3,374.8,277.3,374.7,279.4L374.7,279.4z"/>
<path class="st6" d="M380.6,279.4c-0.2-2-0.2-4.1,0-6.1C380.8,275.3,380.8,277.3,380.6,279.4L380.6,279.4z"/>
<path class="st6" d="M378.7,279.4c-0.2-2-0.2-4.1,0-6.1C378.9,275.3,378.9,277.3,378.7,279.4L378.7,279.4z"/>
<path class="st6" d="M382.6,273.2c0,0.1-7.6,0.1-17,0.1c-9.4,0-17-0.1-17-0.1c0-0.1,7.6-0.1,17-0.1C375,273,382.6,273.1,382.6,273.2
	z"/>
<path class="st1" d="M380.5,279.4h-33.9v6.1h33.9V279.4z"/>
<path class="st6" d="M349.9,285.6c-0.2-2-0.2-4.1,0-6.1C350.1,281.5,350.1,283.5,349.9,285.6L349.9,285.6z"/>
<path class="st6" d="M348,285.6c-0.2-2-0.2-4.1,0-6.1C348.2,281.5,348.2,283.5,348,285.6L348,285.6z"/>
<path class="st6" d="M354,285.6c-0.2-2-0.2-4.1,0-6.1C354.2,281.5,354.2,283.5,354,285.6L354,285.6z"/>
<path class="st6" d="M352.1,285.6c-0.2-2-0.2-4.1,0-6.1C352.3,281.5,352.3,283.5,352.1,285.6L352.1,285.6z"/>
<path class="st6" d="M358.1,285.6c-0.2-2-0.2-4.1,0-6.1C358.2,281.5,358.2,283.5,358.1,285.6z"/>
<path class="st6" d="M356.2,285.6c-0.2-2-0.2-4.1,0-6.1C356.4,281.5,356.4,283.5,356.2,285.6L356.2,285.6z"/>
<path class="st6" d="M362.1,285.6c-0.2-2-0.2-4.1,0-6.1C362.3,281.5,362.3,283.5,362.1,285.6L362.1,285.6z"/>
<path class="st6" d="M360.3,285.6c-0.2-2-0.2-4.1,0-6.1C360.5,281.5,360.5,283.5,360.3,285.6L360.3,285.6z"/>
<path class="st6" d="M366.2,285.6c-0.2-2-0.2-4.1,0-6.1C366.4,281.5,366.4,283.5,366.2,285.6L366.2,285.6z"/>
<path class="st6" d="M364.3,285.6c-0.2-2-0.2-4.1,0-6.1C364.5,281.5,364.5,283.5,364.3,285.6L364.3,285.6z"/>
<path class="st6" d="M370.3,285.6c-0.2-2-0.2-4.1,0-6.1C370.5,281.5,370.5,283.5,370.3,285.6L370.3,285.6z"/>
<path class="st6" d="M368.4,285.6c-0.2-2-0.2-4.1,0-6.1C368.6,281.5,368.6,283.5,368.4,285.6L368.4,285.6z"/>
<path class="st6" d="M374.3,285.6c-0.2-2-0.2-4.1,0-6.1C374.5,281.5,374.5,283.5,374.3,285.6L374.3,285.6z"/>
<path class="st6" d="M372.5,285.6c-0.2-2-0.2-4.1,0-6.1C372.7,281.5,372.7,283.5,372.5,285.6L372.5,285.6z"/>
<path class="st6" d="M378.4,285.6c-0.2-2-0.2-4.1,0-6.1C378.6,281.5,378.6,283.5,378.4,285.6L378.4,285.6z"/>
<path class="st6" d="M376.5,285.6c-0.2-2-0.2-4.1,0-6.1C376.7,281.5,376.7,283.5,376.5,285.6L376.5,285.6z"/>
<path class="st6" d="M380.5,279.4c0,0.1-7.6,0.1-17,0.1c-9.4,0-17-0.1-17-0.1s7.6-0.1,17-0.1C372.8,279.2,380.5,279.3,380.5,279.4z"
	/>
<g class="st2">
	<path class="st7" d="M353.4,273.2c5.1,1.2,10.4,1.6,15.7,1.1c5.2-0.3,10.4-1.1,15.7-1L353.4,273.2z"/>
</g>
<g class="st2">
	<path class="st7" d="M347,279.4c5.1,1.2,10.4,1.6,15.7,1.1c5.2-0.3,10.4-1.1,15.7-1L347,279.4z"/>
</g>
<path class="st10" d="M352.6,267.4c0,0.1-0.2,0.1-0.4,0.1s-0.4-0.1-0.4-0.1c0-0.1,0.2-0.1,0.4-0.1S352.6,267.4,352.6,267.4z"/>
<path class="st10" d="M357.3,267.5c-0.6,0.1-1.3,0.2-1.9,0.1c-0.7,0-1.3,0-1.9-0.1c0.6-0.1,1.3-0.2,1.9-0.1
	C356,267.3,356.7,267.3,357.3,267.5z"/>
<path class="st10" d="M362.7,267.5c-0.6,0.1-1.3,0.2-1.9,0.1c-0.6,0-1.3,0-1.9-0.1c0.6-0.1,1.3-0.2,1.9-0.1
	C361.4,267.3,362,267.3,362.7,267.5z"/>
<path class="st1" d="M573.6,252.2h-36.4v6.6h36.4V252.2z"/>
<path class="st6" d="M540.7,258.9c-0.2-2.2-0.2-4.4,0-6.6C540.9,254.5,540.9,256.7,540.7,258.9L540.7,258.9z"/>
<path class="st6" d="M538.8,258.9c-0.2-2.2-0.2-4.4,0-6.6C539,254.5,539,256.7,538.8,258.9L538.8,258.9z"/>
<path class="st6" d="M545.1,258.9c-0.2-2.2-0.2-4.4,0-6.6C545.3,254.5,545.3,256.7,545.1,258.9L545.1,258.9z"/>
<path class="st6" d="M543.1,258.9c-0.2-2.2-0.2-4.4,0-6.6C543.3,254.5,543.3,256.7,543.1,258.9L543.1,258.9z"/>
<path class="st6" d="M549.5,258.9c-0.2-2.2-0.2-4.4,0-6.6C549.7,254.5,549.7,256.7,549.5,258.9L549.5,258.9z"/>
<path class="st6" d="M547.5,258.9c-0.2-2.2-0.2-4.4,0-6.6C547.7,254.5,547.7,256.7,547.5,258.9L547.5,258.9z"/>
<path class="st6" d="M553.9,258.9c-0.2-2.2-0.2-4.4,0-6.6C554.1,254.5,554.1,256.7,553.9,258.9L553.9,258.9z"/>
<path class="st6" d="M551.9,258.9c-0.2-2.2-0.2-4.4,0-6.6C552.1,254.5,552.1,256.7,551.9,258.9L551.9,258.9z"/>
<path class="st6" d="M558.2,258.9c-0.2-2.2-0.2-4.4,0-6.6C558.5,254.5,558.5,256.7,558.2,258.9L558.2,258.9z"/>
<path class="st6" d="M556.3,258.9c-0.2-2.2-0.2-4.4,0-6.6C556.5,254.5,556.5,256.7,556.3,258.9L556.3,258.9z"/>
<path class="st6" d="M562.6,258.9c-0.2-2.2-0.2-4.4,0-6.6C562.8,254.5,562.8,256.7,562.6,258.9L562.6,258.9z"/>
<path class="st6" d="M560.6,258.9c-0.2-2.2-0.2-4.4,0-6.6C560.9,254.5,560.9,256.7,560.6,258.9L560.6,258.9z"/>
<path class="st6" d="M567,258.9c-0.2-2.2-0.2-4.4,0-6.6C567.2,254.5,567.2,256.7,567,258.9L567,258.9z"/>
<path class="st6" d="M565,258.9c-0.2-2.2-0.2-4.4,0-6.6C565.2,254.5,565.2,256.7,565,258.9L565,258.9z"/>
<path class="st6" d="M571.4,258.9c-0.2-2.2-0.2-4.4,0-6.6C571.6,254.5,571.6,256.7,571.4,258.9L571.4,258.9z"/>
<path class="st6" d="M569.4,258.9c-0.2-2.2-0.2-4.4,0-6.6C569.6,254.5,569.6,256.7,569.4,258.9L569.4,258.9z"/>
<path class="st6" d="M573.6,252.3c0,0.1-8.2,0.2-18.3,0.2c-10.1,0-18.3-0.1-18.3-0.2c0-0.1,8.2-0.2,18.3-0.2
	C565.4,252.1,573.6,252.1,573.6,252.3z"/>
<path class="st1" d="M571.2,259h-36.4v6.6h36.4V259z"/>
<path class="st6" d="M538.4,265.6c-0.2-2.2-0.2-4.4,0-6.6C538.6,261.2,538.6,263.4,538.4,265.6L538.4,265.6z"/>
<path class="st6" d="M536.4,265.6c-0.2-2.2-0.2-4.4,0-6.6C536.6,261.2,536.6,263.4,536.4,265.6L536.4,265.6z"/>
<path class="st6" d="M542.7,265.6c-0.2-2.2-0.2-4.4,0-6.6C542.9,261.2,542.9,263.4,542.7,265.6L542.7,265.6z"/>
<path class="st6" d="M540.7,265.6c-0.2-2.2-0.2-4.4,0-6.6C540.9,261.2,540.9,263.4,540.7,265.6L540.7,265.6z"/>
<path class="st6" d="M547.1,265.6c-0.2-2.2-0.2-4.4,0-6.6C547.3,261.2,547.3,263.4,547.1,265.6L547.1,265.6z"/>
<path class="st6" d="M545.1,265.6c-0.2-2.2-0.2-4.4,0-6.6C545.3,261.2,545.3,263.4,545.1,265.6L545.1,265.6z"/>
<path class="st6" d="M551.5,265.6c-0.2-2.2-0.2-4.4,0-6.6C551.7,261.2,551.7,263.4,551.5,265.6L551.5,265.6z"/>
<path class="st6" d="M549.5,265.6c-0.2-2.2-0.2-4.4,0-6.6C549.7,261.2,549.7,263.4,549.5,265.6L549.5,265.6z"/>
<path class="st6" d="M555.9,265.6c-0.2-2.2-0.2-4.4,0-6.6C556.1,261.2,556.1,263.4,555.9,265.6L555.9,265.6z"/>
<path class="st6" d="M553.9,265.6c-0.2-2.2-0.2-4.4,0-6.6C554.1,261.2,554.1,263.4,553.9,265.6L553.9,265.6z"/>
<path class="st6" d="M560.3,265.6c-0.2-2.2-0.2-4.4,0-6.6C560.5,261.2,560.5,263.4,560.3,265.6L560.3,265.6z"/>
<path class="st6" d="M558.2,265.6c-0.2-2.2-0.2-4.4,0-6.6C558.5,261.2,558.5,263.4,558.2,265.6L558.2,265.6z"/>
<path class="st6" d="M564.6,265.6c-0.2-2.2-0.2-4.4,0-6.6C564.8,261.2,564.8,263.4,564.6,265.6L564.6,265.6z"/>
<path class="st6" d="M562.6,265.6c-0.2-2.2-0.2-4.4,0-6.6C562.8,261.2,562.8,263.4,562.6,265.6L562.6,265.6z"/>
<path class="st6" d="M569,265.6c-0.2-2.2-0.2-4.4,0-6.6C569.2,261.2,569.2,263.4,569,265.6L569,265.6z"/>
<path class="st6" d="M567,265.6c-0.2-2.2-0.2-4.4,0-6.6C567.2,261.2,567.2,263.4,567,265.6L567,265.6z"/>
<path class="st6" d="M571.2,259c0,0.1-8.2,0.2-18.3,0.2c-10.1,0-18.3-0.1-18.3-0.2c0-0.1,8.2-0.2,18.3-0.2
	C563,258.8,571.2,258.9,571.2,259z"/>
<path class="st1" d="M574.2,265.6h-36.4v6.6h36.4V265.6z"/>
<path class="st6" d="M541.3,272.3c-0.2-2.2-0.2-4.4,0-6.6C541.5,267.9,541.5,270.1,541.3,272.3L541.3,272.3z"/>
<path class="st6" d="M539.3,272.3c-0.2-2.2-0.2-4.4,0-6.6C539.5,267.9,539.5,270.1,539.3,272.3L539.3,272.3z"/>
<path class="st6" d="M545.7,272.3c-0.2-2.2-0.2-4.4,0-6.6C545.9,267.9,545.9,270.1,545.7,272.3L545.7,272.3z"/>
<path class="st6" d="M543.7,272.3c-0.2-2.2-0.2-4.4,0-6.6C543.9,267.9,543.9,270.1,543.7,272.3L543.7,272.3z"/>
<path class="st6" d="M550.1,272.3c-0.2-2.2-0.2-4.4,0-6.6C550.3,267.9,550.3,270.1,550.1,272.3L550.1,272.3z"/>
<path class="st6" d="M548.1,272.3c-0.2-2.2-0.2-4.4,0-6.6C548.3,267.9,548.3,270.1,548.1,272.3L548.1,272.3z"/>
<path class="st6" d="M554.5,272.3c-0.2-2.2-0.2-4.4,0-6.6C554.7,267.9,554.7,270.1,554.5,272.3z"/>
<path class="st6" d="M552.5,272.3c-0.2-2.2-0.2-4.4,0-6.6C552.7,267.9,552.7,270.1,552.5,272.3L552.5,272.3z"/>
<path class="st6" d="M558.9,272.3c-0.2-2.2-0.2-4.4,0-6.6C559.1,267.9,559.1,270.1,558.9,272.3L558.9,272.3z"/>
<path class="st6" d="M556.9,272.3c-0.2-2.2-0.2-4.4,0-6.6C557.1,267.9,557.1,270.1,556.9,272.3L556.9,272.3z"/>
<path class="st6" d="M563.2,272.3c-0.2-2.2-0.2-4.4,0-6.6C563.4,267.9,563.4,270.1,563.2,272.3L563.2,272.3z"/>
<path class="st6" d="M561.2,272.3c-0.2-2.2-0.2-4.4,0-6.6C561.4,267.9,561.4,270.1,561.2,272.3L561.2,272.3z"/>
<path class="st6" d="M567.6,272.3c-0.2-2.2-0.2-4.4,0-6.6C567.8,267.9,567.8,270.1,567.6,272.3L567.6,272.3z"/>
<path class="st6" d="M565.6,272.3c-0.2-2.2-0.2-4.4,0-6.6C565.8,267.9,565.8,270.1,565.6,272.3L565.6,272.3z"/>
<path class="st6" d="M572,272.3c-0.2-2.2-0.2-4.4,0-6.6C572.2,267.9,572.2,270.1,572,272.3z"/>
<path class="st6" d="M570,272.3c-0.2-2.2-0.2-4.4,0-6.6C570.2,267.9,570.2,270.1,570,272.3L570,272.3z"/>
<path class="st6" d="M574.2,265.6c0,0.1-8.2,0.2-18.3,0.2c-10.1,0-18.4-0.1-18.4-0.2c0-0.1,8.2-0.2,18.4-0.2
	S574.2,265.5,574.2,265.6z"/>
<path class="st1" d="M571.3,272.2h-36.4v6.6h36.4V272.2z"/>
<path class="st6" d="M538.5,278.8c-0.2-2.2-0.2-4.4,0-6.6C538.7,274.5,538.7,276.7,538.5,278.8L538.5,278.8z"/>
<path class="st6" d="M536.5,278.8c-0.2-2.2-0.2-4.4,0-6.6C536.7,274.5,536.7,276.7,536.5,278.8L536.5,278.8z"/>
<path class="st6" d="M542.9,278.8c-0.2-2.2-0.2-4.4,0-6.6C543.1,274.5,543.1,276.7,542.9,278.8L542.9,278.8z"/>
<path class="st6" d="M540.9,278.8c-0.2-2.2-0.2-4.4,0-6.6C541.1,274.5,541.1,276.7,540.9,278.8z"/>
<path class="st6" d="M547.2,278.8c-0.2-2.2-0.2-4.4,0-6.6C547.4,274.5,547.4,276.7,547.2,278.8L547.2,278.8z"/>
<path class="st6" d="M545.2,278.8c-0.2-2.2-0.2-4.4,0-6.6C545.5,274.5,545.5,276.7,545.2,278.8L545.2,278.8z"/>
<path class="st6" d="M551.6,278.8c-0.2-2.2-0.2-4.4,0-6.6C551.8,274.5,551.8,276.7,551.6,278.8L551.6,278.8z"/>
<path class="st6" d="M549.6,278.8c-0.2-2.2-0.2-4.4,0-6.6C549.8,274.5,549.8,276.7,549.6,278.8L549.6,278.8z"/>
<path class="st6" d="M556,278.8c-0.2-2.2-0.2-4.4,0-6.6C556.2,274.5,556.2,276.7,556,278.8L556,278.8z"/>
<path class="st6" d="M554,278.8c-0.2-2.2-0.2-4.4,0-6.6C554.2,274.5,554.2,276.7,554,278.8L554,278.8z"/>
<path class="st6" d="M560.4,278.8c-0.2-2.2-0.2-4.4,0-6.6C560.6,274.5,560.6,276.7,560.4,278.8L560.4,278.8z"/>
<path class="st6" d="M558.4,278.8c-0.2-2.2-0.2-4.4,0-6.6C558.6,274.5,558.6,276.7,558.4,278.8L558.4,278.8z"/>
<path class="st6" d="M564.7,278.8c-0.2-2.2-0.2-4.4,0-6.6C564.9,274.5,564.9,276.7,564.7,278.8L564.7,278.8z"/>
<path class="st6" d="M562.8,278.8c-0.2-2.2-0.2-4.4,0-6.6C563,274.5,563,276.7,562.8,278.8L562.8,278.8z"/>
<path class="st6" d="M569.1,278.8c-0.2-2.2-0.2-4.4,0-6.6C569.3,274.5,569.3,276.7,569.1,278.8L569.1,278.8z"/>
<path class="st6" d="M567.1,278.8c-0.2-2.2-0.2-4.4,0-6.6C567.3,274.5,567.3,276.7,567.1,278.8L567.1,278.8z"/>
<path class="st6" d="M571.4,272.2c0,0.1-8.2,0.2-18.3,0.2c-10.1,0-18.3-0.1-18.3-0.2s8.2-0.2,18.3-0.2
	C563.2,272,571.4,272.1,571.4,272.2z"/>
<path class="st1" d="M575,278.9h-36.4v6.6H575V278.9z"/>
<path class="st6" d="M542.1,285.6c-0.2-2.2-0.2-4.4,0-6.6C542.3,281.2,542.3,283.4,542.1,285.6L542.1,285.6z"/>
<path class="st6" d="M540.1,285.6c-0.2-2.2-0.2-4.4,0-6.6C540.3,281.2,540.3,283.4,540.1,285.6L540.1,285.6z"/>
<path class="st6" d="M546.5,285.6c-0.2-2.2-0.2-4.4,0-6.6C546.7,281.2,546.7,283.4,546.5,285.6L546.5,285.6z"/>
<path class="st6" d="M544.5,285.6c-0.2-2.2-0.2-4.4,0-6.6C544.7,281.2,544.7,283.4,544.5,285.6L544.5,285.6z"/>
<path class="st6" d="M550.9,285.6c-0.2-2.2-0.2-4.4,0-6.6C551.1,281.2,551.1,283.4,550.9,285.6L550.9,285.6z"/>
<path class="st6" d="M548.9,285.6c-0.2-2.2-0.2-4.4,0-6.6C549.1,281.2,549.1,283.4,548.9,285.6L548.9,285.6z"/>
<path class="st6" d="M555.3,285.6c-0.2-2.2-0.2-4.4,0-6.6C555.5,281.2,555.5,283.4,555.3,285.6L555.3,285.6z"/>
<path class="st6" d="M553.3,285.6c-0.2-2.2-0.2-4.4,0-6.6C553.5,281.2,553.5,283.4,553.3,285.6L553.3,285.6z"/>
<path class="st6" d="M559.6,285.6c-0.2-2.2-0.2-4.4,0-6.6C559.8,281.2,559.8,283.4,559.6,285.6L559.6,285.6z"/>
<path class="st6" d="M557.7,285.6c-0.2-2.2-0.2-4.4,0-6.6C557.9,281.2,557.9,283.4,557.7,285.6L557.7,285.6z"/>
<path class="st6" d="M564,285.6c-0.2-2.2-0.2-4.4,0-6.6C564.2,281.2,564.2,283.4,564,285.6L564,285.6z"/>
<path class="st6" d="M562,285.6c-0.2-2.2-0.2-4.4,0-6.6C562.2,281.2,562.2,283.4,562,285.6L562,285.6z"/>
<path class="st6" d="M568.4,285.6c-0.2-2.2-0.2-4.4,0-6.6C568.6,281.2,568.6,283.4,568.4,285.6L568.4,285.6z"/>
<path class="st6" d="M566.4,285.6c-0.2-2.2-0.2-4.4,0-6.6C566.6,281.2,566.6,283.4,566.4,285.6L566.4,285.6z"/>
<path class="st6" d="M572.8,285.6c-0.2-2.2-0.2-4.4,0-6.6C573,281.2,573,283.4,572.8,285.6L572.8,285.6z"/>
<path class="st6" d="M570.8,285.6c-0.2-2.2-0.2-4.4,0-6.6C571,281.2,571,283.4,570.8,285.6L570.8,285.6z"/>
<path class="st6" d="M575,278.9c0,0.1-8.2,0.2-18.3,0.2c-10.1,0-18.3-0.1-18.3-0.2c0-0.1,8.2-0.2,18.3-0.2
	C566.8,278.7,575,278.8,575,278.9z"/>
<g class="st2">
	<path class="st7" d="M537.8,265.6c5.5,1.3,11.2,1.7,16.8,1.2c5.6-0.4,11.2-1.2,16.8-1.1L537.8,265.6z"/>
</g>
<g class="st2">
	<path class="st7" d="M538.1,259c5.5,1.3,11.2,1.7,16.8,1.2c5.6-0.4,11.2-1.2,16.8-1.1L538.1,259z"/>
</g>
<g class="st2">
	<path class="st7" d="M539.9,272.2c5.5,1.3,11.2,1.7,16.8,1.2c5.6-0.4,11.2-1.2,16.8-1.1L539.9,272.2z"/>
</g>
<g class="st2">
	<path class="st7" d="M538.4,278.9c5.5,1.3,11.2,1.7,16.8,1.2c5.6-0.4,11.2-1.2,16.8-1.1L538.4,278.9z"/>
</g>
<path class="st10" d="M537.8,256.8c-0.2-1.2-0.2-2.4,0-3.6C538,254.3,538,255.6,537.8,256.8L537.8,256.8z"/>
<path class="st10" d="M535.6,263.8c-0.2-1.3-0.2-2.6,0-3.9C535.8,261.2,535.8,262.5,535.6,263.8z"/>
<path class="st10" d="M538.8,270.6c-0.2-1.1-0.2-2.3,0-3.4C539,268.3,539,269.5,538.8,270.6L538.8,270.6z"/>
<path class="st10" d="M535.5,276.9c-0.2-1-0.2-2.1,0-3.1C535.7,274.8,535.7,275.9,535.5,276.9L535.5,276.9z"/>
<path class="st10" d="M548.8,259.5c0,0.1-2.7,0.2-6,0.2s-6-0.1-6-0.2c2-0.2,4-0.2,6-0.2C544.8,259.3,546.8,259.3,548.8,259.5
	L548.8,259.5z"/>
<path class="st10" d="M552.7,253.1c-2,0.2-4,0.2-6.1,0.2c-2,0.1-4,0-6.1-0.2c0-0.1,2.7-0.2,6.1-0.2C550,253,552.7,253.1,552.7,253.1
	z"/>
<path class="st10" d="M558.5,253.2c-1.3,0.2-2.7,0.2-4,0C555.9,253,557.2,253,558.5,253.2z"/>
<path class="st1" d="M409.6,253.3l14.6,32.2h7l1-2.5l1.3,2.5h4.6l-0.5-18.8l-0.2-11.1L409.6,253.3z"/>
<path class="st7" d="M409.6,253.3l14.6,32.2h7l1-2.5l1.3,2.5h4.6l-0.5-18.8l-0.2-11.1L409.6,253.3z"/>
<path class="st1" d="M473.4,256.8l14.2,28.8h7l1-2.2l1.2,2.2h4.6l-0.5-17.2l-0.2-10.2L473.4,256.8z"/>
<path class="st7" d="M473.4,256.8l14.2,28.8h7l1-2.2l1.2,2.2h4.6l-0.5-17.2l-0.2-10.2L473.4,256.8z"/>
<path class="st1" d="M554.4,172l0.1,0l0.4,0.2c0.5,0.2,0.9,0.5,1.3,0.9c0.7,0.6,1.4,1.4,1.8,2.3c0.4,0.9,0.7,1.8,0.8,2.8
	c0.1,1.4-0.3,2.7-1,3.9c-0.8,1.3-2.1,2.4-3.5,3c-0.8,0.4-1.7,0.5-2.5,0.5c-0.9,0-1.7-0.2-2.5-0.5c-0.9-0.4-1.5-1.1-1.9-2
	c-0.2-0.4-0.3-0.9-0.2-1.4c0-0.5,0.2-1,0.5-1.4c0.3-0.4,0.7-0.7,1.1-0.9c0.4-0.2,0.9-0.4,1.4-0.4c0.9,0,1.9,0.3,2.6,0.9
	c0.7,0.5,1.2,1.2,1.6,2c0.4,0.8,0.5,1.7,0.5,2.5c0,1.6-0.6,3.1-1.6,4.3c-0.4,0.6-1,1-1.6,1.4c-0.6,0.3-1.2,0.6-1.8,0.8
	c-1.1,0.3-2.2,0.4-3.3,0.2c-0.8-0.1-1.7-0.3-2.4-0.7c-0.5-0.2-1-0.5-1.4-0.8l-0.3-0.2c-0.1-0.1-0.1-0.1-0.1-0.1
	c0.6,0.4,1.2,0.7,1.9,1c0.8,0.3,1.6,0.5,2.4,0.6c1.1,0.1,2.2,0,3.2-0.3c0.6-0.2,1.2-0.5,1.7-0.8c0.6-0.4,1.1-0.8,1.5-1.4
	c1-1.2,1.5-2.7,1.5-4.2c0-0.8-0.1-1.7-0.5-2.4c-0.3-0.8-0.9-1.4-1.5-1.9c-0.7-0.6-1.5-0.8-2.4-0.8c-0.4,0-0.9,0.1-1.3,0.4
	c-0.4,0.2-0.7,0.5-1,0.9c-0.2,0.4-0.4,0.8-0.4,1.2c0,0.4,0,0.9,0.2,1.3c0.3,0.8,0.9,1.5,1.7,1.8c0.8,0.3,1.6,0.5,2.4,0.5
	c0.8,0,1.7-0.2,2.4-0.5c1.4-0.6,2.6-1.6,3.4-2.9c0.7-1.1,1.1-2.4,1-3.8c-0.1-1.1-0.4-2.2-0.9-3.1c-0.4-0.7-0.9-1.4-1.5-1.9
	C555.6,172.7,555,172.3,554.4,172L554.4,172z"/>
<path class="st1" d="M547.4,201.2c2.1,47.8-38,71.6-83.3,71.6s-82.1-31.1-82.1-69.4s36.8-69.4,82.1-69.4S545.7,162.9,547.4,201.2z"
	/>
<path class="st7" d="M458.4,151.2c0,0,5.4-1.7,10.5,4c5.1,5.8,12.2,15.6,12.2,15.6c-0.6,3.2-2.5,5.7-6.1,7.2L458.4,151.2z"/>
<path class="st1" d="M410.1,253.2c15.5,0,28.1-9.6,28.1-21.6c0-11.9-12.6-21.6-28.1-21.6s-28.1,9.6-28.1,21.6
	C382,243.5,394.5,253.2,410.1,253.2z"/>
<path class="st1" d="M436.3,174c0,0,16.5-25.6,24-22.8C467.9,154,475,178,475,178"/>
<path class="st1" d="M417.7,168.1l-0.8-6.9c0,0-10.3-4.3-19.6-6.4c-9.2-2.1-11.1,0-11.1,0l14.6,20.5L417.7,168.1z"/>
<path class="st7" d="M439.7,143.6l5.5,3.2c0,0,26.5-7,46.8,0l-7.5-6.4C484.5,140.5,459.8,135.2,439.7,143.6z"/>
<path class="st7" d="M410.1,253.2c15.5,0,28.1-9.6,28.1-21.6c0-11.9-12.6-21.6-28.1-21.6s-28.1,9.6-28.1,21.6
	C382,243.5,394.5,253.2,410.1,253.2z"/>
<path class="st1" d="M402.9,253.2c14.5,0,26.3-9.6,26.3-21.6c0-11.9-11.8-21.6-26.3-21.6c-14.5,0-26.3,9.6-26.3,21.6
	C376.6,243.5,388.4,253.2,402.9,253.2z"/>
<path class="st7" d="M393.8,221.5h-2c-1,0-1.8,0.8-1.8,1.8v16.6c0,1,0.8,1.8,1.8,1.8h2c1,0,1.8-0.8,1.8-1.8v-16.6
	C395.6,222.3,394.8,221.5,393.8,221.5z"/>
<path class="st7" d="M409,221.5h-2c-1,0-1.8,0.8-1.8,1.8v16.6c0,1,0.8,1.8,1.8,1.8h2c1,0,1.8-0.8,1.8-1.8v-16.6
	C410.8,222.3,410,221.5,409,221.5z"/>
<path class="st7" d="M416.1,168.8c2.4-1.3,3.6-3.3,2.8-6.6c0,0-12.2-5.3-21.5-7.4c-9.2-2.1-11.1,0-11.1,0l14.6,20.5L416.1,168.8z"/>
<path class="st1" d="M416.9,169.4c0,0-0.7-0.5-1.8-1.2c-5.5-3.6-21.4-14-25.4-14.2c-5.5-0.2-5.6,4.6-5.5,8.3
	c0,2.6,2.2,25.4,2.2,25.4"/>
<path class="st6" d="M475,178c0,0,0-0.1-0.1-0.2c0-0.1-0.1-0.3-0.2-0.5l-0.6-1.8c-0.5-1.6-1.3-3.8-2.4-6.6c-1.2-3.2-2.7-6.4-4.3-9.4
	c-1-1.8-2.1-3.5-3.3-5.1c-0.7-0.8-1.4-1.6-2.3-2.2c-0.8-0.7-1.9-1.1-3-1c-1.1,0.1-2.1,0.5-3.1,1.1c-0.9,0.5-1.8,1.1-2.7,1.8
	c-1.6,1.3-3.1,2.7-4.5,4.2c-2.4,2.5-4.6,5.2-6.7,8c-1.8,2.4-3.2,4.3-4.1,5.7l-1.1,1.6l-0.3,0.4c0,0.1-0.1,0.1-0.1,0.1l0.1-0.2
	l0.3-0.4c0.2-0.4,0.6-0.9,1-1.6c0.9-1.4,2.3-3.4,4.1-5.7c2.1-2.8,4.3-5.5,6.6-8c1.4-1.5,2.9-2.9,4.5-4.2c0.8-0.7,1.8-1.3,2.7-1.9
	c1-0.6,2.1-0.9,3.2-1.1c0.6-0.1,1.2,0,1.7,0.2c0.5,0.2,1,0.5,1.5,0.8c0.9,0.7,1.7,1.4,2.3,2.3c1.3,1.6,2.4,3.3,3.4,5.2
	c1.6,3.1,3.1,6.2,4.3,9.5c1.1,2.8,1.8,5,2.3,6.6c0.3,0.8,0.4,1.4,0.5,1.8c0.1,0.2,0.1,0.4,0.1,0.5C474.9,177.9,475,178,475,178z"/>
<path class="st6" d="M484.5,140.5l0.1,0.1l0.4,0.3l1.4,1.2l5.3,4.5l0.4,0.3l-0.4-0.1c-7.1-2-14.4-3-21.7-3.1
	c-8.3-0.1-16.6,1-24.6,3.3h0h0l-4.2-2.4l-1.1-0.7l-0.3-0.2c0,0-0.1,0-0.1-0.1l0.1,0l0.3,0.2l1.1,0.6l4.2,2.4h-0.1
	c3.4-1,6.9-1.8,10.5-2.4c2.1-0.3,4.3-0.6,6.7-0.8c2.4-0.2,4.9-0.3,7.4-0.2c4,0,8.1,0.4,12.1,1c3.3,0.5,6.5,1.2,9.7,2.2l-0.1,0.2
	l-5.2-4.5L485,141l-0.4-0.3C484.6,140.6,484.5,140.5,484.5,140.5L484.5,140.5z"/>
<g class="st11">
	<path class="st12" d="M454,211.5c-0.1,0.8-0.9,1.4-2,1.7c-1.4,0.4-2.8,0.6-4.2,0.6c-1.4,0-2.9-0.1-4.2-0.5
		c-1.1-0.4-1.9-0.9-2.1-1.7c-0.1-0.8,0.4-1.6,1.6-2.3c1.4-0.7,3-1.1,4.7-1.2c1.6,0,3.2,0.3,4.7,1.1
		C453.6,209.9,454.2,210.8,454,211.5z"/>
</g>
<path class="st6" d="M418.6,214.3c-0.1,0-0.1-0.1-0.2-0.1l-0.4-0.3l-0.7-0.5c-0.3-0.2-0.6-0.4-1-0.6c-2.2-1.1-4.5-1.9-7-2.4
	c-1.7-0.3-3.4-0.4-5.1-0.5c-2,0-3.9,0.1-5.8,0.4c-4.4,0.7-8.7,2.3-12.4,4.8c-1,0.7-1.9,1.4-2.7,2.2c-0.8,0.8-1.6,1.6-2.3,2.5
	c-1.3,1.7-2.4,3.6-3.2,5.6c-1.2,3.4-1.5,7.2-0.7,10.7c0.3,1.4,0.8,2.7,1.4,3.9c0.5,0.9,1.1,1.8,1.7,2.7l0.8,0.9l0.6,0.6l0.4,0.4
	c0.1,0.1,0.1,0.1,0.1,0.1c0,0-0.1-0.1-0.1-0.1l-0.4-0.4l-0.6-0.6l-0.8-0.9c-0.7-0.8-1.3-1.7-1.8-2.7c-0.6-1.3-1.1-2.6-1.5-4
	c-0.8-3.6-0.6-7.4,0.6-10.9c0.4-1,0.8-2,1.4-2.9c0.5-1,1.1-1.9,1.8-2.8c0.7-0.9,1.5-1.8,2.3-2.6c0.9-0.8,1.8-1.6,2.8-2.2
	c3.7-2.5,8-4.2,12.5-4.8c1.9-0.3,3.9-0.4,5.9-0.4c1.7,0,3.4,0.2,5.1,0.5c2.4,0.5,4.8,1.3,7,2.5c0.4,0.2,0.7,0.4,1,0.6l0.7,0.5
	l0.4,0.3C418.6,214.3,418.6,214.3,418.6,214.3z"/>
<path class="st6" d="M395.5,223.4c0,0.3,0.1,0.6,0.1,0.9c0,0.6,0.1,1.4,0.1,2.4c0.1,2,0.2,4.7,0.3,7.7c0,0.8,0,1.5,0,2.2
	c0,0.7,0,1.4-0.2,2.1c-0.1,0.6-0.3,1.2-0.6,1.7c-0.3,0.5-0.8,0.9-1.3,1.2c-0.4,0.2-0.8,0.3-1.2,0.2c-0.4,0-0.8-0.1-1.1-0.4
	c-0.2-0.1-0.3-0.3-0.5-0.5c0-0.1-0.1-0.1-0.1-0.2c0.2,0.2,0.4,0.4,0.6,0.6c0.3,0.2,0.7,0.3,1.1,0.3c0.4,0,0.8-0.1,1.1-0.3
	c0.5-0.3,0.9-0.7,1.2-1.2c0.3-0.5,0.5-1,0.6-1.6c0.1-0.7,0.1-1.3,0.1-2c0-0.7,0-1.5,0-2.2c-0.1-3-0.2-5.8-0.2-7.7c0-1,0-1.8,0-2.4
	C395.4,224,395.4,223.7,395.5,223.4z"/>
<path class="st6" d="M410.4,223.4c0,0.3,0.1,0.6,0.1,0.9c0,0.6,0.1,1.4,0.1,2.4c0.1,2,0.2,4.7,0.3,7.7c0,0.8,0,1.5,0,2.2
	c0,0.7,0,1.4-0.2,2.1c-0.1,0.6-0.3,1.2-0.6,1.7c-0.3,0.5-0.8,0.9-1.3,1.2c-0.4,0.2-0.8,0.3-1.2,0.2c-0.4,0-0.8-0.1-1.1-0.4
	c-0.2-0.1-0.3-0.3-0.5-0.5c-0.1-0.1-0.1-0.2-0.1-0.2c0.2,0.2,0.4,0.4,0.6,0.6c0.3,0.2,0.7,0.3,1.1,0.3c0.4,0,0.8-0.1,1.1-0.3
	c0.5-0.3,0.9-0.7,1.2-1.2c0.3-0.5,0.5-1,0.6-1.6c0.1-0.7,0.1-1.3,0.1-2c0-0.7,0-1.5,0-2.2c-0.1-3-0.2-5.8-0.2-7.7c0-1,0-1.8,0-2.4
	C410.3,224,410.4,223.7,410.4,223.4L410.4,223.4z"/>
<path class="st6" d="M429,236.3c0,0.1-0.1,0.3-0.1,0.4c-0.1,0.2-0.2,0.6-0.4,1c-0.5,1.3-1.2,2.5-2,3.6c-1.2,1.7-2.5,3.2-4,4.6
	c-0.9,0.8-1.8,1.6-2.8,2.2c-1.1,0.7-2.2,1.4-3.3,2c-2.2,1.1-4.6,2-7,2.5c-2,0.4-4,0.6-6.1,0.6c-1.7,0-3.1-0.1-4.1-0.2L398,253
	c-0.1,0-0.3,0-0.4,0c0.1,0,0.3,0,0.4,0l1.1,0c1,0,2.4,0.1,4.1,0.1c2,0,4-0.2,6-0.7c2.4-0.6,4.7-1.4,6.9-2.5c1.1-0.6,2.2-1.2,3.3-1.9
	c1-0.7,1.9-1.4,2.8-2.2c1.5-1.3,2.9-2.9,4-4.5c0.8-1.1,1.5-2.3,2.1-3.5c0.2-0.4,0.3-0.8,0.4-1C428.8,236.5,428.9,236.4,429,236.3
	L429,236.3z"/>
<path class="st10" d="M395.1,222.8c-0.1-0.2-0.2-0.4-0.4-0.5c-0.2-0.2-0.4-0.4-0.7-0.5c-0.3-0.1-0.6-0.2-0.8-0.2
	c-0.4,0-0.9,0.1-1.2,0.3c-0.4,0.2-0.7,0.4-1,0.8c-0.3,0.4-0.6,0.8-0.7,1.3c-0.1,0.5-0.2,1.1-0.2,1.6c0,2.3,0,4.4,0,5.9
	c0,0.7,0,1.3,0,1.8c0,0.2,0,0.4,0,0.7c0-0.2-0.1-0.4-0.1-0.7c0-0.5,0-1.1-0.1-1.8c0-1.5-0.1-3.6-0.1-5.9c0-0.6,0-1.2,0.2-1.7
	c0.1-0.5,0.4-1,0.8-1.4c0.3-0.3,0.7-0.6,1.1-0.8c0.4-0.2,0.9-0.3,1.4-0.2c0.3,0,0.6,0.1,0.9,0.2c0.3,0.1,0.5,0.3,0.7,0.6
	c0.1,0.1,0.2,0.3,0.2,0.4C395.1,222.7,395.2,222.8,395.1,222.8z"/>
<path class="st10" d="M405,224c0.1,0,0.1,2.8,0.1,6.4c0,3.5-0.1,6.4-0.1,6.4s-0.1-2.8-0.1-6.4C404.9,226.9,405,224,405,224z"/>
<path class="st10" d="M400.5,211.8c-0.1,0-0.2,0-0.3,0c-0.2,0-0.5,0-1,0c-1.2,0-2.3,0.2-3.5,0.4c-4.4,0.8-8.4,2.9-11.6,5.9
	s-5.5,7-6.5,11.3c-0.1,0.4-0.2,0.7-0.2,0.9c0,0.1,0,0.2-0.1,0.3c0-0.1,0-0.2,0-0.3c0-0.2,0.1-0.5,0.2-0.9c0.2-1.1,0.6-2.3,1-3.4
	c1.4-3.6,3.7-6.8,6.7-9.3c3-2.5,6.6-4.1,10.5-4.7c1.2-0.2,2.3-0.3,3.5-0.3c0.4,0,0.7,0,1,0C400.3,211.7,400.4,211.7,400.5,211.8
	L400.5,211.8z"/>
<path class="st10" d="M386.4,184.2c0,0.1,0,0.2-0.1,0.3l-0.3,0.9c-0.2,0.4-0.3,0.8-0.5,1.4c-0.2,0.5-0.4,1.1-0.6,1.8
	c-0.2,0.7-0.5,1.4-0.7,2.2c-0.2,0.8-0.4,1.7-0.7,2.6c-0.9,4-1.3,8.1-1.3,12.1c0,0.9,0,1.8,0.1,2.7c0.1,0.8,0.1,1.6,0.2,2.3
	c0.1,0.7,0.2,1.3,0.2,1.9c0.1,0.6,0.2,1,0.2,1.4c0.1,0.4,0.1,0.7,0.2,0.9c0,0.1,0,0.2,0,0.3c0-0.1-0.1-0.2-0.1-0.3l-0.2-0.9
	c-0.1-0.4-0.2-0.9-0.3-1.4c-0.1-0.6-0.2-1.2-0.3-1.9c-0.1-0.7-0.2-1.5-0.2-2.3c-0.1-0.8-0.1-1.7-0.1-2.7c-0.1-4.1,0.4-8.2,1.3-12.2
	c0.2-0.9,0.4-1.8,0.7-2.6c0.3-0.8,0.5-1.6,0.7-2.2c0.2-0.7,0.5-1.3,0.7-1.8c0.2-0.5,0.4-1,0.5-1.3c0.1-0.4,0.3-0.6,0.4-0.8
	C386.2,184.4,386.3,184.3,386.4,184.2L386.4,184.2z"/>
<path class="st10" d="M387.2,156.1c0,0-0.2,0.3-0.5,0.9c-0.4,0.8-0.7,1.7-0.9,2.6c-0.2,1.4-0.3,2.7-0.3,4.1c0,1.6,0,3.2,0,5
	c0.1,3.6,0.4,6.8,0.6,9.1c0.1,1.1,0.3,2.1,0.3,2.8l0.1,0.8c0,0.1,0,0.2,0,0.3c0-0.1-0.1-0.2-0.1-0.3c0-0.2-0.1-0.4-0.2-0.7
	c-0.1-0.6-0.3-1.6-0.4-2.8c-0.4-3-0.7-6.1-0.7-9.2c0-1.8,0-3.5,0-5.1c0-1.4,0.1-2.8,0.4-4.1c0.2-0.9,0.5-1.8,1-2.6
	c0.1-0.2,0.3-0.4,0.5-0.6C387.1,156.2,387.2,156.1,387.2,156.1z"/>
<path class="st10" d="M439.8,139.2c-0.1,0.1-0.2,0.1-0.3,0.1l-1,0.4l-3.7,1.3c-4.1,1.4-8.1,2.9-12,4.7c-3.9,1.8-7.6,4-11,6.7
	c-1.3,1-2.3,1.9-3,2.6c-0.3,0.3-0.6,0.6-0.8,0.7c-0.1,0.1-0.2,0.2-0.3,0.2c0.1-0.1,0.1-0.2,0.2-0.3c0.2-0.2,0.4-0.5,0.7-0.8
	c0.9-0.9,1.9-1.8,2.9-2.6c3.4-2.7,7.1-5,11-6.8c3.9-1.8,8-3.3,12.1-4.7c1.6-0.5,2.8-0.9,3.7-1.2l1-0.3
	C439.5,139.3,439.7,139.2,439.8,139.2L439.8,139.2z"/>
<path class="st10" d="M458.6,152.6c0,0-0.1,0.1-0.2,0.2l-0.7,0.5c-0.6,0.4-1.5,1.1-2.6,1.9c-1.1,0.8-2.4,1.8-3.7,3
	c-1.4,1.2-2.8,2.6-4.3,4c-1.4,1.5-2.7,3-3.9,4.4c-1.1,1.4-2.1,2.7-2.9,3.8c-0.8,1.1-1.4,2-1.8,2.7l-0.5,0.7
	c-0.1,0.1-0.1,0.2-0.2,0.2c0-0.1,0.1-0.2,0.1-0.3c0.1-0.2,0.3-0.5,0.4-0.8c0.4-0.7,1-1.6,1.7-2.7c0.8-1.1,1.7-2.5,2.8-3.9
	c1.1-1.4,2.4-2.9,3.9-4.4c1.4-1.5,2.9-2.9,4.3-4c1.4-1.2,2.7-2.2,3.8-3c1.1-0.8,2-1.4,2.7-1.8l0.8-0.5
	C458.4,152.7,458.5,152.7,458.6,152.6L458.6,152.6z"/>
<path class="st10" d="M541.9,190.2c0.3,0.4,0.5,0.9,0.6,1.4c0.9,2.3,1.5,4.6,1.8,7c0.1,0.5,0.1,1,0.1,1.5c-0.1-0.5-0.2-1-0.3-1.5
	c-0.2-0.9-0.4-2.2-0.7-3.5c-0.3-1.4-0.7-2.6-1-3.5C542.1,191.2,542,190.7,541.9,190.2z"/>
<path class="st6" d="M528.9,252.1c0,0-0.1,0.1-0.3,0.2l-0.8,0.5l-1.3,0.9l-0.8,0.6l-1,0.6c-3.8,2.5-7.8,4.8-12,6.8
	c-1.3,0.6-2.7,1.3-4.1,1.9l-2.2,1l-1.1,0.5l-1.2,0.5l-2.4,0.9l-2.6,0.9c-0.9,0.3-1.7,0.6-2.6,0.9c-0.9,0.3-1.8,0.6-2.7,0.8
	c-3.9,1.1-7.8,2-11.8,2.7c-4.3,0.7-8.6,1.2-12.9,1.4c-4.3,0.2-8.7,0.1-13-0.4l-1.6-0.2c-0.5-0.1-1-0.1-1.5-0.2l-3-0.4l-2.9-0.5
	l-1.4-0.3l-1.4-0.3c-6.7-1.5-13.2-3.6-19.5-6.3c-4.2-1.8-8.3-4-12.2-6.5c-1.4-0.9-2.4-1.6-3.1-2.1l-0.8-0.6
	c-0.2-0.1-0.3-0.2-0.3-0.2l0.3,0.2l0.8,0.5c0.7,0.5,1.7,1.2,3.1,2.1c3.9,2.5,7.9,4.6,12.2,6.4c6.3,2.7,12.8,4.8,19.4,6.2l1.4,0.3
	l1.4,0.3l2.9,0.5l3,0.4c0.5,0.1,1,0.2,1.5,0.2l1.6,0.2c4.3,0.5,8.6,0.6,12.9,0.4c4.3-0.2,8.6-0.6,12.9-1.4c4-0.7,7.9-1.5,11.8-2.6
	c0.9-0.2,1.8-0.5,2.7-0.8c0.9-0.3,1.8-0.5,2.6-0.8l2.6-0.9l2.4-0.9l1.2-0.5l1.2-0.5l2.2-0.9c1.4-0.7,2.8-1.3,4.1-1.9
	c4.1-2,8.2-4.2,12-6.7c0.3-0.2,0.7-0.4,1-0.6l0.8-0.6l1.3-0.9l0.8-0.5L528.9,252.1z"/>
<path class="st1" d="M505.7,257.9l10.9,27.8h7.4l1.6-2.4l1.9,2.4h2.6l1-44L505.7,257.9z"/>
<path class="st1" d="M437.4,261.8l9.2,23.9h8.4l1.7-2.8l1.7,2.8h2.1c0,0,0.9-26.9,0-27.7C459.6,257.3,437.4,261.8,437.4,261.8z"/>
<path class="st10" d="M544.7,208.5c0,0.1,0,0.1,0,0.2c0,0.1,0,0.3,0,0.5c0,0.4-0.1,1-0.2,1.8c0,0.4-0.1,0.8-0.1,1.3
	c0,0.5-0.2,1-0.2,1.5c-0.2,1.1-0.4,2.3-0.7,3.7c-0.2,0.7-0.3,1.4-0.5,2.1c-0.2,0.7-0.4,1.5-0.7,2.3c-0.4,1.6-1.1,3.2-1.7,4.9
	c-2.9,7.4-7.2,14.3-12.7,20.1c-1.3,1.3-2.5,2.6-3.7,3.7c-0.6,0.5-1.2,1.1-1.8,1.6l-1.7,1.4c-1.1,0.9-2.1,1.6-3,2.2
	c-0.5,0.3-0.9,0.6-1.3,0.9l-1.1,0.7l-1.5,0.9l-0.4,0.2l-0.1,0.1c0,0,0,0,0.1-0.1l0.4-0.3l1.5-1l1.1-0.7c0.4-0.3,0.8-0.6,1.2-0.9
	c0.9-0.7,1.9-1.4,3-2.3l1.7-1.4c0.6-0.5,1.1-1,1.7-1.6c1.2-1.1,2.4-2.4,3.7-3.7c5.4-5.9,9.7-12.7,12.6-20.1c0.6-1.7,1.3-3.3,1.7-4.9
	c0.2-0.8,0.5-1.5,0.7-2.3c0.2-0.7,0.4-1.4,0.5-2.1c0.4-1.3,0.5-2.6,0.7-3.7c0.1-0.5,0.2-1,0.3-1.5c0.1-0.5,0.1-0.9,0.2-1.3
	c0.1-0.8,0.2-1.4,0.2-1.8c0-0.2,0-0.3,0.1-0.5C544.7,208.6,544.7,208.5,544.7,208.5L544.7,208.5z"/>
<g class="st11">
	<path class="st12" d="M532.9,185.1c-2.5-6.1-7.8-11.9-14.1-14.4c-1.2-0.5-2.5-0.6-3.7-0.5c-1.3,0.1-2.5,0.5-3.6,1.2s-2,1.6-2.6,2.7
		c-0.6,1.1-1,2.3-1.1,3.6c0,0,0,0.1,0,0.1c-0.2,3.9,1.3,7.7,3.2,11.1c1.9,3.4,4.1,6.7,5.6,10.3c2.4,6.1,2.5,12.8,0.2,18.9
		c-1.4,3.8-3.8,7.9-1.7,11.8c1.4,2.5,4.3,3.8,7.2,3.5c5.5-0.5,8.4-5.5,11-10c2.1-3.6,3.8-9.3,3.9-13.6
		C537.7,201.4,536.2,192.9,532.9,185.1z"/>
</g>
<path class="st6" d="M449.3,202.3c-0.2,0.1-0.5-0.8-1-1.9c-0.3-0.6-0.7-1.2-1.2-1.8c-0.5-0.6-1.2-0.9-2-1c-0.8,0-1.6,0.3-2.2,0.8
	c-0.5,0.5-1,1-1.3,1.6c-0.5,1.1-0.8,1.9-1,1.9c-0.2,0-0.3-0.9,0.1-2.3c0.2-0.8,0.7-1.6,1.3-2.2c0.4-0.4,0.9-0.7,1.4-0.9
	c0.5-0.2,1.1-0.3,1.7-0.3c0.6,0,1.2,0.2,1.7,0.5c0.5,0.3,0.9,0.6,1.2,1c0.5,0.7,0.9,1.5,1.1,2.3
	C449.5,201.5,449.5,202.3,449.3,202.3z"/>
<path class="st6" d="M408.3,199c0,0.8-0.2,1.5-0.7,2.2c-0.4,0.6-1,1.1-1.7,1.4c-0.7,0.3-1.5,0.4-2.2,0.2c-0.8-0.1-1.4-0.5-2-1.1
	c-0.5-0.5-0.9-1.2-1.1-2c-0.2-0.8-0.1-1.5,0.2-2.2c0.3-0.7,0.8-1.3,1.4-1.7c0.6-0.4,1.4-0.7,2.2-0.7c1,0,2,0.4,2.7,1.1
	C407.8,197,408.3,198,408.3,199L408.3,199z"/>
<path class="st10" d="M531.7,166.5c-0.1-0.1-0.2-0.2-0.3-0.3l-0.7-0.9c-0.3-0.4-0.7-0.8-1.2-1.4c-0.5-0.5-1-1.1-1.6-1.8
	c-0.6-0.6-1.2-1.4-2-2.1c-0.7-0.7-1.5-1.5-2.3-2.3c-1.7-1.6-3.6-3.2-5.8-4.9c-2.1-1.7-4.2-3.1-6.2-4.3c-1-0.6-1.9-1.2-2.8-1.7
	c-0.9-0.5-1.7-1-2.5-1.4c-0.8-0.4-1.5-0.8-2.1-1.1c-0.6-0.3-1.2-0.6-1.6-0.8l-1-0.5c-0.1,0-0.2-0.1-0.4-0.2c0.1,0,0.3,0.1,0.4,0.1
	l1,0.4c0.5,0.2,1,0.4,1.6,0.7c0.6,0.3,1.4,0.6,2.2,1c0.8,0.4,1.6,0.8,2.5,1.4s1.9,1.1,2.9,1.7c2,1.2,4.1,2.7,6.2,4.3
	c2.1,1.6,4.1,3.3,5.8,4.9c0.8,0.8,1.6,1.6,2.3,2.3c0.7,0.8,1.4,1.5,2,2.1c0.6,0.7,1.1,1.3,1.5,1.8c0.5,0.5,0.8,1,1.1,1.4l0.7,0.9
	C531.5,166.3,531.6,166.4,531.7,166.5L531.7,166.5z"/>
<path class="st10" d="M490.8,149.1c-0.1,0-0.3-0.1-0.4-0.1l-1.2-0.4c-0.5-0.2-1.1-0.4-1.9-0.6c-0.7-0.2-1.6-0.5-2.5-0.7l-1.5-0.4
	c-0.5-0.1-1.1-0.2-1.6-0.4c-1.1-0.3-2.3-0.5-3.6-0.7c-2.8-0.4-5.5-0.7-8.3-0.8c-2.8-0.1-5.6,0-8.4,0.3c-1.3,0.2-2.5,0.3-3.6,0.5
	c-0.5,0.1-1.1,0.2-1.6,0.3l-1.5,0.3c-1,0.2-1.8,0.4-2.6,0.6c-0.8,0.2-1.4,0.4-1.9,0.5l-1.2,0.3c-0.1,0-0.3,0.1-0.4,0.1
	c0.1-0.1,0.3-0.1,0.4-0.2l1.2-0.4c0.5-0.2,1.2-0.4,1.9-0.5c0.8-0.2,1.6-0.4,2.6-0.6l1.5-0.3c0.5-0.1,1.1-0.2,1.6-0.3
	c1.1-0.2,2.4-0.4,3.6-0.5c5.6-0.6,11.2-0.4,16.8,0.5c1.3,0.2,2.5,0.4,3.6,0.7c0.5,0.1,1.1,0.2,1.6,0.4l1.5,0.4
	c0.9,0.2,1.8,0.5,2.5,0.8c0.7,0.2,1.4,0.5,1.9,0.7l1.2,0.5C490.5,149,490.7,149,490.8,149.1L490.8,149.1z"/>
<path class="st6" d="M101.3,268.4L101.3,268.4c2.3-0.4,7.7-1.9,10.7-6.4c2-3.1,2.1-7.1,2.3-10.4c0.5-12.6,1.3-44.1,1.5-53.5
	c0.1-1.1,0.5-2,1.3-2.8c0.8-0.7,1.8-1.1,2.8-1.1c1.1,0,2.1,0.4,2.8,1.2c0.7,0.7,1.2,1.7,1.2,2.8v5.7h1.1v-5.7c0-1.3-0.6-2.6-1.5-3.6
	c-1-1-2.2-1.5-3.6-1.5c-1.3,0-2.6,0.5-3.6,1.4c-1,0.9-1.6,2.2-1.6,3.5c-0.2,9.4-1.1,40.9-1.5,53.5c-0.1,3.1-0.3,7-2.1,9.8
	c-1.9,2.9-5.6,5.1-9.8,5.9L71.5,267c-3.8-0.8-6.8-2-9.4-5.5c-1.4-1.9-2.4-4.3-3.2-7.8c-1.6-7.2-1.6-14.9-1.5-22.3
	c0.1-5.3,0-10.6-0.5-15.9c-0.3-2.5-0.7-5.1-2-7.2c-1.2-2-3.7-3.8-6.3-2.8l0.4,1.1c1.8-0.7,3.9,0.7,4.9,2.4c1.2,1.9,1.6,4.4,1.8,6.7
	c0.4,5.2,0.6,10.5,0.5,15.8c0,7.5-0.1,15.2,1.5,22.6c0.8,3.6,1.9,6.2,3.4,8.2c2.9,3.8,6,5.1,10.1,6h0.1L101.3,268.4z"/>
<path class="st1" d="M0.6,284.8l34.1,0.4v-85.7H0.6V284.8z"/>
<path class="st7" d="M0.6,284.8l34.1,0.4v-85.7H0.6V284.8z"/>
<path class="st1" d="M15.9,284.9l34.1,0.2v-85.7H15.9V284.9z"/>
<path class="st6" d="M50.8,192.2v1H14.6L0,172.1l0.4-1.4L50.8,192.2z"/>
<path class="st6" d="M38.6,193h1.2v6.5h-1.2V193z"/>
<path class="st6" d="M12,188.3v11.1h-1.4v-12.3L12,188.3z"/>
<path class="st0" d="M36,170.7l14.8,21.6H15.2L0.4,170.7H36z"/>
<path class="st13" d="M38.6,192.2c0.1,0-3.3-4.9-7.4-10.9c-4.2-6-7.6-10.7-7.7-10.7c-0.1,0.1,3.3,4.9,7.4,10.9
	S38.6,192.3,38.6,192.2z"/>
<path class="st13" d="M26.7,192.2c0.1,0-3.3-4.9-7.4-10.9c-4.2-6-7.6-10.7-7.7-10.7c-0.1,0.1,3.3,4.9,7.4,10.9
	C23.2,187.5,26.6,192.3,26.7,192.2z"/>
<path class="st13" d="M43,181.4c0-0.1-7.9-0.1-17.7-0.1s-17.7,0.1-17.7,0.1s7.9,0.1,17.7,0.1C35.1,181.6,43,181.5,43,181.4z"/>
<path class="st13" d="M22.8,208.6h19.5v22H22.8V208.6z"/>
<path class="st6" d="M37.5,236.8c0,0.5,0.2,1,0.6,1.4c0.4,0.4,0.9,0.6,1.4,0.6c0.5,0,1.8-0.1,1.8-0.1c0.3-0.2,0.6-0.6,0.7-0.9
	c0.2-0.4,0.3-0.7,0.3-1.1c0-0.4-0.1-0.8-0.3-1.1c-0.2-0.3-0.5-0.6-0.9-0.8c0,0-1.2,0-1.6,0c-0.5,0-1,0.2-1.4,0.6
	C37.7,235.8,37.5,236.3,37.5,236.8L37.5,236.8z"/>
<path class="st0" d="M40.8,238.8c-1.1,0-2-0.9-2-2c0-1.1,0.9-2,2-2c1.1,0,2,0.9,2,2C42.8,237.9,41.9,238.8,40.8,238.8z"/>
<path class="st6" d="M30.2,236.8c0,0.5,0.2,1,0.6,1.4c0.4,0.4,0.9,0.6,1.4,0.6c0.5,0,1.8-0.1,1.8-0.1c0.3-0.2,0.6-0.6,0.7-0.9
	c0.2-0.4,0.3-0.7,0.3-1.1c0-0.4-0.1-0.8-0.3-1.1c-0.2-0.3-0.5-0.6-0.9-0.8c0,0-1.2,0-1.6,0c-0.5,0-1,0.2-1.4,0.6
	C30.5,235.8,30.2,236.3,30.2,236.8L30.2,236.8z"/>
<path class="st0" d="M33.6,238.8c-1.1,0-2-0.9-2-2c0-1.1,0.9-2,2-2c1.1,0,2,0.9,2,2C35.6,237.9,34.7,238.8,33.6,238.8z"/>
<path class="st6" d="M23,236.8c0,0.5,0.2,1,0.6,1.4c0.4,0.4,0.9,0.6,1.4,0.6c0.5,0,1.8-0.1,1.8-0.1c0.3-0.2,0.6-0.6,0.7-0.9
	c0.2-0.4,0.3-0.7,0.3-1.1c0-0.4-0.1-0.8-0.3-1.1s-0.5-0.6-0.9-0.7c0,0-1.2,0-1.6,0c-0.5,0-1,0.2-1.4,0.6
	C23.3,235.8,23,236.3,23,236.8L23,236.8z"/>
<path class="st0" d="M24.4,236.8c0,0.4,0.1,0.8,0.3,1.1c0.2,0.3,0.5,0.6,0.9,0.7c0.4,0.2,0.8,0.2,1.2,0.1c0.4-0.1,0.7-0.3,1-0.5
	c0.3-0.3,0.5-0.6,0.5-1c0.1-0.4,0-0.8-0.1-1.2c-0.2-0.4-0.4-0.7-0.7-0.9c-0.3-0.2-0.7-0.3-1.1-0.3c-0.3,0-0.5,0.1-0.8,0.2
	c-0.2,0.1-0.5,0.2-0.6,0.4c-0.2,0.2-0.3,0.4-0.4,0.6C24.4,236.3,24.4,236.6,24.4,236.8z"/>
<path class="st1" d="M32.1,213.2l4.4,0.1l-4.1,6.3l3.1,0l-4.4,8.7l1.5-6.4l-4.1-0.1L32.1,213.2z"/>
<path class="st6" d="M21,280.7c0,0,0-0.1,0-0.2s0-0.3,0-0.5c0-0.4,0-1.1,0-1.9c0-1.7,0-4.1,0-7.1c0-6.1,0-14.7,0.1-24.9l-0.1,0.1
	h23.2c0,0-0.3-0.3-0.1-0.1v9.5c0,3.1,0,6.1,0,9c0,5.8,0,11.2,0,16l0.1-0.1l-16.9,0.1l-4.7,0h-1.2L21,280.7c-0.1,0,0.1,0,0.3,0h1.2
	h4.6l16.9,0.1h0.1v-0.1c0-4.8,0-10.1,0-16c0-2.9,0-5.9,0-9v-9.4c0.1,0.1-0.2-0.2-0.1-0.2H20.9h-0.1v0.1c0,10.2,0.1,18.9,0.1,25
	c0,3,0,5.4,0,7.1c0,0.8,0,1.4,0,1.9c0,0.2,0,0.4,0,0.5C20.9,280.6,21,280.7,21,280.7L21,280.7z"/>
<path class="st6" d="M24.2,263.3c0,0,0.1,0.2,0.1,0.5c0,0.1,0,0.2-0.1,0.2c0,0.1-0.1,0.1-0.2,0.2c-0.1,0-0.2,0.1-0.3,0
	c-0.1,0-0.2,0-0.3-0.1c-0.1-0.1-0.1-0.1-0.2-0.2c0-0.1-0.1-0.2-0.1-0.3c0-0.1,0.1-0.2,0.1-0.2c0.1-0.1,0.1-0.1,0.2-0.2
	c0.3-0.2,0.5-0.1,0.5-0.1c0,0-0.2-0.2-0.6-0.1c-0.1,0-0.2,0.1-0.3,0.2c-0.1,0.1-0.2,0.2-0.2,0.3c0,0.2,0,0.3,0,0.5
	c0.1,0.1,0.2,0.3,0.3,0.4c0.1,0.1,0.3,0.2,0.4,0.2c0.2,0,0.3,0,0.5-0.1c0.1-0.1,0.2-0.2,0.2-0.3c0.1-0.1,0.1-0.2,0.1-0.4
	C24.5,263.5,24.2,263.3,24.2,263.3z"/>
</svg>
