<svg width="590" height="138" viewBox="0 0 590 138" fill="none" xmlns="http://www.w3.org/2000/svg">
<path d="M410.507 104.027L113.598 104.494L113.529 60.5513L410.438 60.0849L410.507 104.027Z" fill="#455A64"/>
<path d="M98.0725 28.1814C98.0725 28.1814 105.498 29.0116 106.817 28.1814C109.803 26.2598 174.789 0.0604872 230.629 0.000228088C275.415 -0.060031 315.742 11.8177 354.964 38.0036C354.964 38.0036 402.729 43.2663 421.382 57.2464C425.741 59.7773 434.639 69.7535 431.245 92.4109C429.082 106.86 418.323 107.469 403.626 107.141C403.626 107.141 409.096 63.2522 369.981 66.6067C336.745 69.4522 343.106 110.027 343.106 110.027L176.57 110.288C176.57 110.288 175.84 92.2636 175.13 87.8982C173.718 79.1539 162.851 64.8257 142.564 66.9548C120.308 69.2915 112.903 89.5989 114.329 106.739C114.329 106.739 90.8481 111.814 87.6744 92.9265L82.0703 91.1857C82.0703 91.1857 79.9144 52.0039 99.4785 35.533L95.2805 32.741L98.0725 28.1814Z" fill="#92E3A9"/>
<path d="M109.147 26.9293C109.147 26.9293 110.533 30.7055 115.307 30.277C119.197 29.9355 141.419 21.5126 149.521 18.406C150.677 17.9823 151.718 17.2925 152.559 16.3923C153.4 15.492 154.018 14.4066 154.361 13.2237C154.531 12.7261 154.568 12.1931 154.469 11.677C154.469 11.677 119.92 19.9794 109.147 26.9293Z" fill="#455A64"/>
<path d="M299.906 10.5188C299.913 12.1075 300.367 13.6621 301.218 15.004C302.068 16.3459 303.28 17.4207 304.714 18.1047L352.251 40.7555L354.97 37.8296C354.97 37.8296 350.002 34.2542 343.507 30.3909C337.481 26.8222 330.116 23.0259 325.717 20.8834C317.374 16.8128 308.748 13.349 299.906 10.5188Z" fill="#455A64"/>
<g opacity="0.3">
<path opacity="0.3" d="M142.081 30.2837C141.76 30.5584 141.503 30.8993 141.326 31.283C141.149 31.6667 141.058 32.0842 141.058 32.5066C141.058 32.929 141.149 33.3464 141.326 33.7302C141.503 34.1139 141.76 34.4548 142.081 34.7295C144.438 37.1331 155.666 45.4824 160.882 45.9912C166.098 46.5001 324.492 57.0722 333.866 54.3873C343.239 51.7025 348.73 46.9487 346.373 44.2169L342.121 42.8109L267.454 44.3375L142.081 30.2837Z" fill="white"/>
</g>
<g opacity="0.7">
<path opacity="0.7" d="M84.4673 63.9619C84.4673 63.9619 93.6869 66.6937 97.6238 59.4224C101.561 52.1511 105.899 44.4648 105.899 42.8043C105.899 40.722 104.406 34.0265 99.4785 35.3857C99.4785 35.3857 85.7729 46.306 84.4673 63.9619Z" fill="white"/>
</g>
<g opacity="0.7">
<path opacity="0.7" d="M425.441 71.4207C425.441 71.4207 389.74 57.1393 395.519 52.2717C398.565 49.7007 427.918 63.8415 425.441 71.4207Z" fill="white"/>
</g>
<path d="M410.864 107.014C410.864 107.014 410.864 106.893 410.864 106.659C410.864 106.425 410.904 106.07 410.911 105.601C410.911 104.677 410.951 103.318 410.911 101.584C410.713 96.6188 409.949 91.6925 408.635 86.9007C407.724 83.5818 406.451 80.3732 404.838 77.3328C402.999 73.83 400.551 70.683 397.607 68.0395L396.422 67.0018L395.143 66.0577C394.268 65.4223 393.361 64.8323 392.425 64.2901C391.963 64.0022 391.454 63.7879 390.965 63.5335C390.477 63.2791 389.988 63.0179 389.466 62.8104L387.905 62.1944L387.115 61.8864L386.305 61.6387C385.207 61.2824 384.089 60.9896 382.958 60.7616L381.257 60.4067C380.681 60.3197 380.099 60.2594 379.523 60.1791C378.947 60.0987 378.358 60.0251 377.769 59.9648L376.001 59.8778C374.81 59.7805 373.613 59.7537 372.419 59.7974C367.725 59.7864 363.071 60.6492 358.693 62.3417C354.627 63.9601 350.969 66.4567 347.981 69.6531C345.317 72.5724 343.142 75.9028 341.539 79.5156C340.136 82.6501 339.052 85.9185 338.306 89.2709C337.232 94.1087 336.666 99.0455 336.618 104.001C336.618 105.762 336.665 107.128 336.719 108.052C336.719 108.507 336.779 108.862 336.806 109.096C336.833 109.33 336.859 109.451 336.859 109.451C336.859 109.451 336.859 109.33 336.859 109.096C336.859 108.862 336.859 108.494 336.812 108.045C336.772 107.121 336.746 105.762 336.812 104.028C336.903 99.0694 337.502 94.1335 338.6 89.2976C339.36 85.968 340.45 82.7225 341.854 79.6093C343.453 76.0313 345.619 72.7348 348.268 69.8473C351.236 66.6872 354.867 64.2244 358.901 62.6363C363.24 60.9604 367.854 60.1067 372.506 60.1188C377.153 59.9995 381.79 60.6141 386.245 61.94L387.055 62.181L387.832 62.489L389.378 63.0916C389.894 63.2992 390.369 63.5737 390.858 63.808C391.347 64.0424 391.849 64.27 392.304 64.5579C393.227 65.0877 394.121 65.6666 394.983 66.292L396.255 67.2294L397.426 68.2538C400.348 70.8685 402.783 73.9811 404.617 77.4467C406.24 80.4521 407.526 83.627 408.454 86.914C409.788 91.6849 410.588 96.5893 410.837 101.537C410.924 103.291 410.938 104.65 410.931 105.554V106.605C410.864 106.893 410.864 107.014 410.864 107.014Z" fill="#263238"/>
<path d="M182.18 110.134C182.18 110.134 182.18 110.013 182.227 109.779C182.274 109.545 182.274 109.203 182.301 108.748C182.361 107.837 182.415 106.485 182.401 104.731C182.381 99.8241 181.84 94.9336 180.788 90.1412C180.065 86.8278 179.01 83.5955 177.641 80.493C176.065 76.9207 173.909 73.6335 171.26 70.7645C168.309 67.6004 164.685 65.1405 160.654 63.5669C156.314 61.9117 151.708 61.0609 147.063 61.0561C142.436 60.8707 137.81 61.4106 133.35 62.6563C133.083 62.7367 132.808 62.7969 132.547 62.884L131.764 63.1719L130.204 63.7544C129.186 64.1561 128.195 64.6783 127.244 65.1336C126.327 65.696 125.383 66.2049 124.519 66.8142L123.254 67.7449C123.046 67.8989 122.825 68.0461 122.631 68.2135L122.048 68.7291C119.104 71.2977 116.645 74.3753 114.791 77.8148C113.192 80.8095 111.947 83.9799 111.081 87.2621C109.819 92.0046 109.145 96.8842 109.073 101.791C109.039 103.525 109.073 104.878 109.146 105.809C109.146 106.264 109.2 106.612 109.227 106.846C109.253 107.081 109.28 107.194 109.28 107.194C109.292 107.077 109.292 106.958 109.28 106.84C109.28 106.592 109.28 106.25 109.227 105.802C109.227 104.891 109.166 103.545 109.227 101.818C109.35 96.9269 110.053 92.0677 111.322 87.3425C112.206 84.0865 113.457 80.9417 115.052 77.9688C116.907 74.5663 119.358 71.525 122.289 68.9902L122.865 68.4813C123.066 68.3207 123.28 68.1801 123.481 68.0194L124.74 67.1021C125.59 66.5062 126.528 66.004 127.418 65.4483C128.389 64.9997 129.34 64.4842 130.351 64.1092L131.891 63.5401L132.667 63.2589C132.929 63.1652 133.203 63.1049 133.471 63.0313C137.889 61.7853 142.475 61.2385 147.063 61.4109C151.658 61.4208 156.213 62.2647 160.507 63.9017C164.501 65.4494 168.096 67.8749 171.026 70.9988C173.658 73.8378 175.804 77.0907 177.38 80.6269C178.744 83.7118 179.803 86.9232 180.54 90.2148C181.603 94.9894 182.177 99.8598 182.254 104.751C182.287 106.485 182.254 107.831 182.22 108.768C182.22 109.217 182.22 109.558 182.174 109.806C182.127 110.053 182.18 110.134 182.18 110.134Z" fill="#263238"/>
<path d="M143.649 30.2771C143.649 30.2771 157.495 42.3289 163.494 42.3289C169.493 42.3289 327.606 51.9169 334.643 49.0713C338.35 47.6464 341.934 45.9175 345.356 43.9024C345.356 43.9024 293.761 6.74259 233.636 8.52358C189.499 9.8292 143.649 30.2771 143.649 30.2771Z" fill="#455A64"/>
<path d="M313.417 26.1593L323.862 49.5934L329.165 49.5867L320.534 29.5271L313.417 26.1593Z" fill="#263238"/>
<g opacity="0.3">
<path opacity="0.3" d="M181.61 60.4421L200.357 60.4127L200.351 56.6699C200.351 56.4444 200.261 56.2283 200.101 56.069C199.942 55.9098 199.725 55.8206 199.5 55.821L182.453 55.8477C182.227 55.8481 182.011 55.938 181.852 56.0977C181.693 56.2574 181.604 56.4739 181.604 56.6994L181.61 60.4087L181.61 60.4421Z" fill="#252525"/>
</g>
<g opacity="0.3">
<path opacity="0.3" d="M254.679 60.3296L273.426 60.3001L273.42 56.5908C273.42 56.3653 273.33 56.1492 273.17 55.99C273.01 55.8307 272.794 55.7415 272.568 55.7419L255.515 55.7687C255.29 55.769 255.073 55.8589 254.914 56.0186C254.755 56.1784 254.666 56.3948 254.666 56.6203L254.672 60.3296L254.679 60.3296Z" fill="#252525"/>
</g>
<path d="M189.781 14.9646L173.41 42.7842L188.663 43.601L186.694 30.2168L196.71 13.3577L189.781 14.9646Z" fill="#263238"/>
<path d="M249.462 8.91849L252.013 46.9219L246.449 46.6474L244.046 8.57703L249.462 8.91849Z" fill="#263238"/>
<path d="M320.717 55.3382L318.341 52.8809L322.123 48.0669L325.377 51.1803C325.862 51.5927 326.163 52.1801 326.214 52.814C326.67 55.8068 322.82 57.5075 320.717 55.3382Z" fill="#263238"/>
<path d="M311.101 54.4343C305.323 54.6285 300.777 48.7365 303.181 43.4739C303.43 42.8327 303.84 42.2664 304.371 41.8291C304.902 41.3918 305.537 41.0982 306.214 40.9764C312.24 39.9253 320.04 39.5369 322.142 48.0669C322.758 50.5911 321.345 52.1512 319.035 53.0952C316.839 53.9924 313.873 54.3339 311.101 54.4343Z" fill="#92E3A9"/>
<path d="M347.868 99.9325C346.857 85.3353 357.871 72.6827 372.469 71.6722C387.066 70.6617 399.718 81.6759 400.729 96.2732C401.739 110.87 390.725 123.523 376.128 124.534C361.531 125.544 348.878 114.53 347.868 99.9325Z" fill="#263238"/>
<path d="M374.274 80.4462C377.765 80.437 381.18 81.4634 384.088 83.3956C386.996 85.3278 389.266 88.079 390.61 91.3012C391.954 94.5233 392.312 98.0718 391.639 101.498C390.966 104.923 389.292 108.073 386.829 110.547C384.366 113.021 381.224 114.709 377.801 115.398C374.379 116.087 370.829 115.745 367.601 114.415C364.372 113.086 361.611 110.829 359.665 107.93C357.72 105.031 356.678 101.62 356.671 98.1289C356.666 95.8121 357.117 93.5169 357.999 91.3744C358.881 89.2319 360.176 87.284 361.81 85.642C363.445 84 365.387 82.696 367.525 81.8045C369.664 80.9131 371.957 80.4515 374.274 80.4462ZM388.435 98.0821C388.431 95.2866 387.598 92.5551 386.041 90.233C384.485 87.9109 382.275 86.1024 379.691 85.0363C377.107 83.9702 374.264 83.6943 371.523 84.2436C368.782 84.7928 366.266 86.1426 364.292 88.1221C362.318 90.1016 360.976 92.6219 360.434 95.3644C359.893 98.107 360.177 100.948 361.25 103.53C362.323 106.111 364.138 108.316 366.465 109.865C368.791 111.415 371.525 112.24 374.321 112.236C378.067 112.224 381.656 110.727 384.301 108.074C386.947 105.422 388.433 101.829 388.435 98.0821Z" fill="#E0E0E0"/>
<path d="M374.28 83.9412C377.078 83.9346 379.815 84.7579 382.146 86.3069C384.476 87.8559 386.294 90.0612 387.371 92.6438C388.448 95.2263 388.735 98.0703 388.196 100.816C387.656 103.562 386.315 106.086 384.341 108.069C382.367 110.052 379.849 111.405 377.106 111.958C374.363 112.51 371.518 112.237 368.93 111.172C366.343 110.107 364.129 108.299 362.569 105.976C361.009 103.654 360.173 100.92 360.166 98.1222C360.161 94.3711 361.644 90.7712 364.29 88.1125C366.936 85.4538 370.529 83.9536 374.28 83.9412Z" fill="#F5F5F5"/>
<path d="M378.479 98.1422C378.48 98.9686 378.236 99.7767 377.778 100.464C377.32 101.152 376.668 101.689 375.906 102.006C375.143 102.324 374.303 102.408 373.492 102.248C372.681 102.088 371.936 101.691 371.351 101.108C370.766 100.525 370.367 99.7807 370.204 98.9706C370.042 98.1604 370.123 97.3202 370.438 96.5563C370.753 95.7923 371.288 95.139 371.974 94.6788C372.66 94.2186 373.468 93.9723 374.294 93.971C374.843 93.9701 375.386 94.0773 375.893 94.2864C376.4 94.4956 376.861 94.8026 377.25 95.1899C377.639 95.5773 377.947 96.0373 378.158 96.5439C378.369 97.0504 378.478 97.5936 378.479 98.1422Z" fill="#263238"/>
<path d="M127.609 117.776C117.262 107.429 117.262 90.6541 127.609 80.3076C137.955 69.9611 154.73 69.9611 165.077 80.3076C175.424 90.6541 175.424 107.429 165.077 117.776C154.731 128.122 137.955 128.122 127.609 117.776Z" fill="#263238"/>
<path d="M146.32 81.3902C149.811 81.3809 153.226 82.4072 156.133 84.3391C159.041 86.271 161.311 89.0218 162.655 92.2436C163.999 95.4654 164.358 99.0135 163.685 102.439C163.013 105.865 161.339 109.014 158.877 111.488C156.415 113.963 153.274 115.652 149.851 116.341C146.429 117.03 142.879 116.689 139.651 115.361C136.423 114.033 133.661 111.777 131.714 108.879C129.768 105.981 128.725 102.571 128.717 99.0796C128.707 94.3999 130.555 89.9075 133.856 86.5903C137.157 83.2731 141.64 81.4026 146.32 81.3902ZM160.454 99.0327C160.451 96.2347 159.618 93.5004 158.06 91.1763C156.502 88.8522 154.289 87.0427 151.702 85.9772C149.115 84.9117 146.27 84.638 143.527 85.1909C140.784 85.7438 138.267 87.0983 136.294 89.0829C134.322 91.0675 132.983 93.5928 132.447 96.339C131.911 99.0853 132.202 101.929 133.284 104.509C134.365 107.09 136.188 109.291 138.522 110.835C140.856 112.379 143.595 113.195 146.393 113.18C150.13 113.155 153.705 111.654 156.339 109.004C158.973 106.354 160.452 102.769 160.454 99.0327Z" fill="#E0E0E0"/>
<path d="M146.327 84.8919C149.125 84.884 151.863 85.7061 154.194 87.2543C156.525 88.8026 158.345 91.0074 159.422 93.5898C160.5 96.1723 160.788 99.0164 160.25 101.762C159.711 104.509 158.37 107.033 156.396 109.017C154.423 111.001 151.905 112.355 149.162 112.908C146.419 113.461 143.573 113.188 140.985 112.123C138.397 111.059 136.183 109.251 134.623 106.928C133.062 104.605 132.226 101.871 132.219 99.0729C132.212 95.3224 133.694 91.7225 136.339 89.0636C138.984 86.4047 142.576 84.9043 146.327 84.8919Z" fill="#F5F5F5"/>
<path d="M150.525 99.1199C150.527 99.9465 150.283 100.755 149.825 101.443C149.366 102.131 148.714 102.667 147.951 102.985C147.188 103.302 146.347 103.386 145.536 103.225C144.726 103.065 143.98 102.667 143.396 102.083C142.811 101.499 142.412 100.755 142.25 99.9441C142.088 99.1335 142.171 98.2931 142.487 97.5293C142.803 96.7655 143.338 96.1126 144.026 95.6532C144.713 95.1938 145.521 94.9486 146.347 94.9486C147.454 94.9486 148.516 95.3879 149.299 96.1699C150.083 96.952 150.524 98.013 150.525 99.1199Z" fill="#263238"/>
<path d="M133.8 49.2655C133.811 50.0801 134.063 50.8732 134.524 51.5445C134.986 52.2157 135.636 52.735 136.393 53.0366C137.15 53.3382 137.979 53.4085 138.776 53.2387C139.573 53.0689 140.301 52.6665 140.869 52.0826C141.437 51.4986 141.819 50.7593 141.967 49.9581C142.115 49.157 142.021 48.33 141.699 47.5819C141.377 46.8337 140.839 46.198 140.156 45.7552C139.472 45.3124 138.672 45.0823 137.858 45.0942C136.767 45.1101 135.727 45.5583 134.966 46.3403C134.205 47.1224 133.786 48.1745 133.8 49.2655Z" fill="#263238"/>
<path d="M182.282 100.794H182.677H183.849L188.348 100.881L204.886 101.149L259.46 101.818C280.779 102.039 300.082 102.18 314.048 102.2C321.032 102.2 326.689 102.2 330.593 102.133C334.496 102.066 336.672 101.979 336.619 101.852C336.105 101.934 335.585 101.968 335.065 101.952C334.041 101.952 332.521 101.992 330.573 101.999C326.669 101.999 321.012 101.999 314.028 101.959L259.447 101.463L204.872 100.887L188.328 100.733H183.828H182.657L182.282 100.794Z" fill="#263238"/>
<path d="M249.831 110.007C249.931 110.007 249.831 95.9462 249.556 78.6317C249.282 61.3173 249.02 47.2501 248.927 47.2568C248.833 47.2635 248.927 61.3173 249.208 78.6317C249.489 95.9462 249.737 110.007 249.831 110.007Z" fill="#263238"/>
<path d="M213.094 19.6112C213.034 19.6849 217.352 23.6285 222.742 28.4224C228.132 33.2164 232.551 37.0395 232.618 36.9659C232.685 36.8922 228.36 32.9486 222.97 28.1613C217.58 23.3741 213.161 19.5443 213.094 19.6112Z" fill="#F5F5F5"/>
<path d="M215.216 27.2039C215.423 27.4432 215.647 27.667 215.886 27.8734C216.328 28.2952 216.977 28.8911 217.794 29.6142C219.421 31.0738 221.698 33.0423 224.269 35.1581C226.84 37.2738 229.217 39.1352 230.964 40.4542C231.834 41.1237 232.544 41.6326 233.04 41.9874C233.288 42.1861 233.555 42.3609 233.836 42.5097C233.619 42.2788 233.382 42.0682 233.127 41.8803L231.118 40.26C229.417 38.9209 227.101 37.006 224.496 34.9036C221.892 32.8013 219.629 30.8462 217.962 29.4401L215.953 27.7864C215.729 27.5664 215.482 27.3711 215.216 27.2039Z" fill="#F5F5F5"/>
<path d="M269.69 20.4481C269.637 20.5285 275.937 24.9207 283.751 30.2637C291.564 35.6067 297.965 39.8717 298.019 39.7913C298.072 39.711 291.779 35.3188 283.958 29.9758C276.138 24.6328 269.744 20.3678 269.69 20.4481Z" fill="#F5F5F5"/>
<path d="M263.826 20.1803C264.075 20.4271 264.346 20.6512 264.636 20.8498L266.912 22.6041L274.431 28.3755L281.883 34.2341L284.14 36.0151C284.406 36.2457 284.693 36.4518 284.997 36.631C284.76 36.3691 284.503 36.1272 284.227 35.9079C283.718 35.4593 282.968 34.8233 282.037 34.0399C280.176 32.4865 277.571 30.3708 274.672 28.101C271.773 25.8313 269.055 23.8226 267.086 22.4032C266.102 21.6935 265.299 21.1311 264.736 20.7494C264.451 20.5324 264.146 20.3419 263.826 20.1803Z" fill="#F5F5F5"/>
<path d="M358.358 39.4432C358.419 39.4655 358.482 39.479 358.546 39.4834L359.081 39.5637L361.157 39.8449C362.958 40.0927 365.563 40.4609 368.763 41.0099C377.111 42.4418 385.359 44.4076 393.456 46.8952C398.196 48.3549 402.649 49.9283 406.653 51.4883C410.22 52.8051 413.696 54.3574 417.057 56.135C419.314 57.3476 421.407 58.8439 423.284 60.5875C423.626 60.8888 423.9 61.1833 424.141 61.4311C424.382 61.6788 424.59 61.8998 424.744 62.1006L425.112 62.5024C425.151 62.5499 425.194 62.5946 425.239 62.6363C425.239 62.6363 425.239 62.576 425.139 62.4823L424.797 62.0538C424.65 61.8663 424.463 61.6387 424.222 61.3842C423.981 61.1298 423.713 60.8218 423.378 60.5071C421.524 58.7159 419.439 57.1803 417.178 55.9408C413.821 54.126 410.342 52.5465 406.767 51.2138C402.749 49.6337 398.303 48.0402 393.556 46.5873C385.452 44.0912 377.186 42.1539 368.817 40.789C365.603 40.2734 362.992 39.9387 361.184 39.7311L359.102 39.5169L358.559 39.47C358.494 39.4492 358.426 39.4402 358.358 39.4432Z" fill="#F5F5F5"/>
<path d="M191.601 4.5731H191.875L192.686 4.43919L195.779 3.90356C198.457 3.44826 202.367 2.83229 207.208 2.24979C219.818 0.683321 232.552 0.360384 245.225 1.28564C260.069 2.45065 273.272 5.41004 282.719 7.72667C287.453 8.90507 291.263 9.92947 293.894 10.6526L296.927 11.4761L297.717 11.6837C297.806 11.7133 297.898 11.7335 297.992 11.7439C297.906 11.7033 297.816 11.6719 297.724 11.6502L296.947 11.4092L293.934 10.5187C291.31 9.7554 287.507 8.69081 282.78 7.48563C273.326 5.10874 260.116 2.12926 245.238 0.937471C232.545 0.00470728 219.789 0.361388 207.168 2.00205C202.32 2.61803 198.424 3.27418 195.739 3.76965C194.4 4.01068 193.362 4.23163 192.659 4.36554L191.855 4.53293C191.769 4.53749 191.684 4.55095 191.601 4.5731Z" fill="#F5F5F5"/>
<path d="M303.997 42.8778C304.292 42.8737 304.585 42.8445 304.874 42.7908C305.43 42.7238 306.213 42.6234 307.238 42.5765C309.846 42.4205 312.461 42.6989 314.978 43.4001C316.349 43.8008 317.637 44.4449 318.781 45.3016C319.705 46.0097 320.479 46.8951 321.057 47.9061C321.577 48.8522 321.913 49.8882 322.048 50.9593C322.048 50.9593 322.048 50.8789 322.048 50.7316C322.052 50.5077 322.039 50.2839 322.008 50.0621C321.892 49.2611 321.639 48.4863 321.258 47.7722C320.69 46.7104 319.908 45.7779 318.962 45.0338C317.796 44.1282 316.473 43.4471 315.058 43.0251C312.505 42.3114 309.845 42.0619 307.204 42.2886C306.406 42.3497 305.612 42.4592 304.827 42.6167C304.542 42.6737 304.264 42.7613 303.997 42.8778Z" fill="#F5F5F5"/>
<path d="M254.913 51.9636C254.913 52.0641 264.648 52.7202 276.667 53.4366C288.685 54.153 298.434 54.6552 298.44 54.5615C298.447 54.4677 288.712 53.8049 276.687 53.0885C264.662 52.3721 254.92 51.8699 254.913 51.9636Z" fill="#F5F5F5"/>
<path d="M364.451 60.0518C364.509 60.0582 364.567 60.0582 364.625 60.0518L365.114 59.9447C365.542 59.8643 366.158 59.6702 366.982 59.543C369.29 59.114 371.631 58.89 373.978 58.8734C377.457 58.8091 380.932 59.1552 384.33 59.9045C388.506 60.7569 392.49 62.373 396.08 64.6717C399.601 67.0737 402.636 70.1201 405.025 73.6503C406.983 76.527 408.516 79.6704 409.578 82.9838C410.296 85.218 410.783 87.5199 411.031 89.8533C411.158 90.6768 411.152 91.3263 411.198 91.7615L411.239 92.257C411.232 92.3148 411.232 92.3732 411.239 92.4311C411.249 92.3735 411.249 92.3146 411.239 92.257V91.7615C411.239 91.3196 411.239 90.6702 411.138 89.8399C410.942 87.4886 410.493 85.1653 409.799 82.9101C408.761 79.5595 407.239 76.3789 405.28 73.4695C402.892 69.8641 399.832 66.7521 396.268 64.3034C392.647 61.9789 388.623 60.3529 384.403 59.5095C380.977 58.7733 377.475 58.4496 373.972 58.5453C371.613 58.5943 369.263 58.8655 366.955 59.3555C366.131 59.5028 365.522 59.7237 365.094 59.8242L364.611 59.9648L364.451 60.0518Z" fill="#F5F5F5"/>
<path d="M489.209 93.8261L489.17 91.4584L494.177 84L499.904 91.4436V93.8261H489.209Z" fill="#FF725E"/>
<g opacity="0.3">
<path opacity="0.3" d="M489.209 93.8261L489.17 91.4584L494.177 84L499.904 91.4436V93.8261H489.209Z" fill="#252525"/>
</g>
<path d="M469.404 84.8483C469.523 84.7842 494.655 84.8483 494.655 84.8483V86.9497H471.131L469.404 84.8483Z" fill="#FF725E"/>
<g opacity="0.3">
<path opacity="0.3" d="M469.404 84.8483C469.523 84.7842 494.655 84.8483 494.655 84.8483V86.9497H471.131L469.404 84.8483Z" fill="#252525"/>
</g>
<path d="M468.072 84L462 91.6557V110.302H473.735V91.2413L468.072 84Z" fill="#FF725E"/>
<path d="M502 110.302V91.1673L496.751 84H494.162L499.903 91.4436V93.8261H475.812V90.8171L469.873 84H468.072L473.735 91.2413V110.302H502Z" fill="#FF725E"/>
<path d="M501.882 95.3651C501.882 95.4341 495.538 95.4933 487.72 95.4933C479.901 95.4933 473.553 95.4341 473.553 95.3651C473.553 95.296 479.891 95.2368 487.72 95.2368C495.548 95.2368 501.882 95.296 501.882 95.3651Z" fill="#263238"/>
<path d="M501.793 109.241C501.793 109.315 495.449 109.369 487.626 109.369C479.802 109.369 473.464 109.315 473.464 109.241C473.464 109.167 479.802 109.113 487.626 109.113C495.449 109.113 501.793 109.172 501.793 109.241Z" fill="#263238"/>
<g opacity="0.1">
<path opacity="0.1" d="M468.072 84L462 91.6557V110.302H473.735V91.2413L468.072 84Z" fill="white"/>
</g>
<path d="M426.515 44.4243C425.05 44.2775 423.813 43.2637 422.889 42.1164C421.966 40.9692 421.269 39.6519 420.305 38.5413C419.584 37.7142 419.471 36.0334 418.407 35.7632C417.073 35.4297 416.426 33.5221 416.513 32.4282C416.606 31.241 417.57 30.0437 417.54 29.6869C417.46 28.7531 416.389 28.0827 416.373 27.1456C416.333 24.9411 418.04 24.6377 418.04 24.6377C418.464 23.4937 419.041 21.9696 420.512 20.9925C422.099 19.9286 424.557 18.6947 426.431 19.0682C428.305 19.4417 429.659 19.6518 430.767 21.2093" fill="#263238"/>
<path d="M442.379 43.6672L440.915 51.2244L437.627 58.0311L433.241 54.9929L431.794 50.8942L430.58 47.4591C430.58 47.4591 425.791 48.4229 424.067 43.914C423.233 41.7396 421.885 37.1173 420.711 32.9085C420.106 30.7324 420.34 28.4081 421.368 26.3967C422.396 24.3853 424.143 22.8337 426.261 22.0497L426.698 21.8896C431.51 20.4289 435.442 23.6972 436.77 28.5596L442.379 43.6672Z" fill="#FFBE9D"/>
<path d="M423.22 35.8233C423.281 35.9927 423.406 36.1315 423.568 36.2106C423.73 36.2896 423.916 36.3026 424.087 36.2469C424.171 36.222 424.25 36.1808 424.318 36.1256C424.386 36.0703 424.443 36.0022 424.485 35.9251C424.526 35.8479 424.553 35.7633 424.562 35.676C424.571 35.5887 424.562 35.5005 424.537 35.4164C424.477 35.2474 424.353 35.1088 424.191 35.0303C424.03 34.9518 423.844 34.9395 423.674 34.9962C423.59 35.0208 423.511 35.0616 423.443 35.1164C423.374 35.1713 423.318 35.239 423.276 35.3158C423.233 35.3926 423.207 35.477 423.197 35.564C423.188 35.6511 423.196 35.7392 423.22 35.8233Z" fill="#263238"/>
<path d="M422.346 34.5626C422.456 34.616 422.813 34.0724 423.51 33.8189C424.207 33.5654 424.844 33.7255 424.887 33.6121C424.911 33.5588 424.774 33.4387 424.49 33.3587C424.113 33.2611 423.715 33.282 423.35 33.4187C422.987 33.5504 422.676 33.7947 422.463 34.1157C422.309 34.3592 422.293 34.5393 422.346 34.5626Z" fill="#263238"/>
<path d="M429.742 33.372C429.803 33.5411 429.927 33.6799 430.088 33.759C430.25 33.8381 430.435 33.8512 430.606 33.7955C430.691 33.771 430.769 33.7301 430.838 33.675C430.907 33.6199 430.964 33.5518 431.006 33.4747C431.048 33.3975 431.074 33.3127 431.084 33.2253C431.093 33.1378 431.085 33.0494 431.06 32.9651C430.998 32.7965 430.874 32.6582 430.713 32.5793C430.552 32.5003 430.367 32.4868 430.196 32.5416C430.112 32.5661 430.033 32.607 429.964 32.6621C429.896 32.7172 429.839 32.7852 429.796 32.8624C429.754 32.9396 429.728 33.0243 429.719 33.1118C429.709 33.1992 429.717 33.2877 429.742 33.372Z" fill="#263238"/>
<path d="M429.223 31.8112C429.33 31.8779 429.743 31.3744 430.464 31.1976C431.184 31.0208 431.798 31.2476 431.854 31.1409C431.884 31.0942 431.761 30.9575 431.488 30.8474C431.123 30.709 430.725 30.6869 430.347 30.7841C429.972 30.8765 429.635 31.0855 429.386 31.381C429.193 31.6045 429.156 31.7812 429.223 31.8112Z" fill="#263238"/>
<path d="M428.765 38.4746C428.356 38.4949 427.95 38.5666 427.558 38.6881C427.375 38.7347 427.191 38.7614 427.118 38.6514C427.034 38.4737 427.007 38.2745 427.041 38.0811C427.041 37.5908 427.061 37.0806 427.071 36.5336C427.091 34.3392 427.034 32.5616 426.944 32.5616C426.854 32.5616 426.768 34.3392 426.751 36.5336C426.751 37.0739 426.751 37.5908 426.751 38.0811C426.719 38.3372 426.776 38.5966 426.914 38.8148C426.964 38.868 427.024 38.9092 427.092 38.9352C427.16 38.9612 427.232 38.9714 427.305 38.9649C427.413 38.9551 427.519 38.9315 427.621 38.8948C428.019 38.8038 428.403 38.6626 428.765 38.4746Z" fill="#263238"/>
<path d="M430.991 38.2011C430.874 38.2378 431.151 38.9915 430.704 39.7686C430.257 40.5456 429.42 40.7691 429.453 40.8625C429.453 40.9125 429.687 40.9425 430.027 40.8291C430.472 40.6722 430.848 40.3626 431.087 39.9553C431.318 39.5658 431.388 39.1014 431.281 38.6614C431.194 38.3345 431.041 38.1778 430.991 38.2011Z" fill="#263238"/>
<path d="M428.449 29.4868C428.572 29.6635 429.259 29.3734 430.116 29.2433C430.973 29.1132 431.724 29.1566 431.784 28.9498C431.811 28.8531 431.644 28.703 431.317 28.5896C430.889 28.4593 430.436 28.4285 429.994 28.4996C429.552 28.5707 429.132 28.7418 428.766 28.9998C428.506 29.2099 428.392 29.4034 428.449 29.4868Z" fill="#263238"/>
<path d="M422.012 32.665C422.196 32.7784 422.613 32.4383 423.186 32.2181C423.76 31.998 424.29 31.9313 424.343 31.7246C424.36 31.6278 424.227 31.4978 423.957 31.4277C423.604 31.3542 423.238 31.3869 422.904 31.5217C422.571 31.6565 422.285 31.8872 422.082 32.1848C421.939 32.4216 421.932 32.6083 422.012 32.665Z" fill="#263238"/>
<path d="M430.313 21.0026C430.491 21.5092 430.555 22.0486 430.502 22.5827C430.448 23.1169 430.278 23.6327 430.003 24.0939C429.728 24.555 429.355 24.9503 428.911 25.2517C428.467 25.5531 427.962 25.7534 427.432 25.8383C426.612 25.9651 425.631 25.8717 425.098 26.5053C424.564 27.139 424.887 28.2462 424.454 29.0032C423.834 30.0871 422.169 29.857 421.156 30.584C420.375 31.1477 420.122 32.1715 419.788 33.072C419.455 33.9724 418.821 34.9462 417.857 34.9896C417.609 34.1951 417.453 33.375 417.39 32.545C417.337 31.707 417.572 30.8759 418.057 30.1905C418.334 29.8303 418.704 29.5402 418.944 29.1533C419.465 28.3162 419.278 27.2424 419.438 26.2685C419.549 25.6416 419.807 25.0501 420.192 24.5431C420.578 24.0362 421.078 23.6284 421.652 23.3537C422.61 22.9069 423.734 22.8468 424.617 22.2665C425.268 21.8363 425.731 21.1526 426.405 20.7624C427.722 20.0021 429.386 20.5557 430.76 21.206" fill="#263238"/>
<path d="M426.498 24.5843C427.069 24.1841 428.219 23.3237 428.366 22.6567C428.699 21.2093 429.7 19.942 431.054 19.5518C431.759 19.3657 432.506 19.413 433.182 19.6865C433.858 19.96 434.428 20.4451 434.806 21.0692C435.64 20.8111 436.529 20.7826 437.378 20.9869C438.227 21.1911 439.006 21.6205 439.632 22.2298C440.282 22.872 440.767 23.6632 441.043 24.5349C441.319 25.4066 441.378 26.3325 441.216 27.2323C441.126 27.6959 440.976 28.1761 441.126 28.633C441.312 29.1966 441.883 29.4968 442.34 29.857C443.58 30.8575 444.127 32.6017 443.99 34.1925C443.854 35.7833 443.587 36.4236 442.806 37.0072C441.272 38.1478 444.564 40.8525 441.703 41.853L437.174 31.958C437.104 32.0321 437.026 32.0971 436.94 32.1514C435.379 33.1253 434.002 29.8936 434.049 28.8164C433.224 28.5176 432.439 28.1165 431.714 27.6225C431.004 27.0956 429.937 25.3547 429.74 24.4709C429.15 24.711 426.251 24.7611 426.498 24.5843Z" fill="#263238"/>
<path d="M436.96 32.1014C437.023 32.0381 439.731 30.0337 440.772 33.1653C441.812 36.2969 438.454 36.7004 438.421 36.6104C438.387 36.5203 436.96 32.1014 436.96 32.1014Z" fill="#FFBE9D"/>
<path d="M438.98 35.1062C438.98 35.1062 439.047 35.1262 439.154 35.1362C439.227 35.1435 439.301 35.136 439.372 35.1143C439.442 35.0925 439.507 35.0569 439.564 35.0095C439.857 34.7794 439.961 34.1591 439.787 33.5921C439.707 33.3204 439.566 33.0706 439.374 32.8618C439.312 32.7736 439.229 32.7017 439.134 32.6523C439.038 32.603 438.931 32.5776 438.824 32.5783C438.756 32.5826 438.691 32.6106 438.642 32.6576C438.592 32.7045 438.561 32.7674 438.553 32.8351C438.553 32.9351 438.58 32.9918 438.553 33.0018C438.527 33.0118 438.467 32.9718 438.45 32.8351C438.442 32.752 438.462 32.6686 438.507 32.5983C438.572 32.5049 438.672 32.4404 438.784 32.4182C438.921 32.4011 439.06 32.4194 439.187 32.4714C439.315 32.5233 439.428 32.6072 439.514 32.715C439.738 32.9417 439.903 33.22 439.994 33.5254C440.184 34.1624 440.058 34.8594 439.661 35.1429C439.584 35.1947 439.498 35.229 439.407 35.2434C439.315 35.2579 439.222 35.252 439.134 35.2263C439.01 35.1763 438.974 35.1162 438.98 35.1062Z" fill="#F5B898"/>
<path d="M430.573 47.4591C432.679 46.7269 434.519 45.3849 435.859 43.6039C435.859 43.6039 435.666 47.3791 430.997 48.6364L430.573 47.4591Z" fill="#F5B898"/>
<path d="M429.783 24.5043C431.438 24.8404 433.131 24.9526 434.816 24.8378C437.6 24.6477 437.984 23.1069 438.884 21.6428C439.469 21.9875 439.972 22.4539 440.361 23.0104C440.749 23.5668 441.013 24.2003 441.136 24.8678C441.136 24.8678 439.561 29.3467 434.049 28.8098C434.049 28.8098 430.03 27.6959 429.783 24.5043Z" fill="#E0E0E0"/>
<path d="M441.012 28.4429C441.095 28.5163 440.888 28.9432 440.311 29.4267C439.537 30.0515 438.588 30.4194 437.595 30.4791C436.602 30.5389 435.615 30.2876 434.772 29.7602C434.142 29.35 433.888 28.9498 433.962 28.8664C434.035 28.7831 434.425 28.9832 435.052 29.1999C435.843 29.5157 436.694 29.6535 437.544 29.6033C438.394 29.5532 439.223 29.3164 439.971 28.9098C440.561 28.613 440.918 28.3529 441.012 28.4429Z" fill="#E0E0E0"/>
<path d="M433.501 30.7641C433.548 30.7641 433.424 31.1709 433.037 31.4744C432.932 31.575 432.806 31.6523 432.669 31.7011C432.532 31.75 432.386 31.7693 432.24 31.7579C432.24 31.7079 432.574 31.6112 432.931 31.3377C433.287 31.0642 433.458 30.7441 433.501 30.7641Z" fill="#F5B898"/>
<path d="M434.085 31.6312C433.863 31.7732 433.612 31.8632 433.351 31.8947C433.103 31.9829 432.839 32.016 432.577 31.9914C433.047 31.7616 433.562 31.6386 434.085 31.6312Z" fill="#F5B898"/>
<path d="M427.585 30.3173C427.585 30.3439 427.478 30.3906 427.311 30.4874C427.144 30.5841 426.918 30.7341 426.644 30.8909C426.418 31.0339 426.167 31.1323 425.904 31.181C425.697 31.2111 425.57 31.181 425.57 31.1544C425.57 31.1277 425.694 31.1177 425.877 31.061C426.112 30.9766 426.336 30.8646 426.544 30.7275C426.765 30.5867 426.997 30.4651 427.238 30.364C427.448 30.3039 427.578 30.2973 427.585 30.3173Z" fill="#F5B898"/>
<path d="M428.589 28.4529C428.589 28.4796 428.382 28.5429 428.092 28.743C427.728 29.0195 427.393 29.3324 427.092 29.6768C426.777 30.034 426.398 30.3293 425.974 30.5473C425.799 30.6467 425.598 30.6897 425.397 30.6707C425.397 30.6406 425.614 30.6073 425.918 30.4372C426.308 30.1952 426.662 29.8987 426.968 29.5568C427.278 29.1992 427.64 28.8901 428.042 28.6396C428.202 28.5249 428.392 28.46 428.589 28.4529Z" fill="#F5B898"/>
<path d="M423.08 35.8433C423.104 35.8833 422.87 36.0367 422.537 36.0501C422.203 36.0634 421.96 35.9333 421.976 35.8933C421.993 35.8533 422.237 35.8933 422.53 35.8766C422.823 35.86 423.06 35.7866 423.08 35.8433Z" fill="#F5B898"/>
<path d="M422.866 36.2068C422.883 36.2502 422.733 36.3536 422.603 36.5403C422.473 36.7271 422.412 36.8738 422.362 36.8738C422.312 36.8738 422.302 36.6437 422.466 36.4303C422.629 36.2168 422.853 36.1768 422.866 36.2068Z" fill="#F5B898"/>
<path d="M432.01 38.2311C431.967 38.2511 431.834 38.031 431.557 37.9143C431.28 37.7976 431.03 37.8476 431.013 37.8009C430.997 37.7542 431.063 37.7309 431.177 37.7075C431.327 37.6753 431.483 37.6916 431.624 37.7542C431.762 37.8162 431.878 37.9185 431.957 38.0477C432.027 38.1478 432.03 38.2245 432.01 38.2311Z" fill="#F5B898"/>
<path d="M432.654 38.3045C432.604 38.3212 432.491 38.0744 432.251 37.8643C432.011 37.6542 431.754 37.5575 431.767 37.5108C431.78 37.4641 432.101 37.4808 432.364 37.7342C432.628 37.9877 432.698 38.2978 432.654 38.3045Z" fill="#F5B898"/>
<path d="M432.441 33.2554C432.368 33.5904 432.173 33.8863 431.894 34.0858C431.653 34.3316 431.327 34.475 430.983 34.486C430.983 34.4394 431.384 34.2959 431.78 33.9524C432.177 33.6089 432.394 33.2321 432.441 33.2554Z" fill="#F5B898"/>
<path d="M426.527 113.792L426.981 125.272C426.981 125.272 415.462 129.587 415.342 131.715L437.63 131.641L437.66 113.726L426.527 113.792Z" fill="#455A64"/>
<path d="M433.869 124.284C434.084 124.347 434.268 124.488 434.385 124.679C434.502 124.87 434.544 125.098 434.503 125.318C434.446 125.535 434.309 125.722 434.119 125.84C433.929 125.959 433.701 126 433.482 125.955C433.254 125.887 433.06 125.736 432.937 125.533C432.814 125.33 432.77 125.088 432.815 124.855C432.962 124.431 433.559 124.101 433.952 124.311" fill="#E0E0E0"/>
<g opacity="0.6">
<path opacity="0.6" d="M437.631 131.641L437.564 129.834L416.22 130.581C416.22 130.581 415.219 131.018 415.346 131.715L437.631 131.641Z" fill="white"/>
</g>
<path d="M426.618 125.158C426.618 125.268 427.168 125.315 427.705 125.665C428.242 126.015 428.525 126.469 428.625 126.425C428.726 126.382 428.562 125.758 427.905 125.345C427.248 124.931 426.594 125.061 426.618 125.158Z" fill="#263238"/>
<path d="M424.283 126.135C424.26 126.239 424.73 126.422 425.103 126.882C425.477 127.343 425.584 127.829 425.69 127.823C425.797 127.816 425.867 127.202 425.394 126.639C424.92 126.075 424.286 126.032 424.283 126.135Z" fill="#263238"/>
<path d="M422.967 128.937C423.067 128.96 423.214 128.416 422.934 127.819C422.653 127.222 422.143 126.989 422.096 127.079C422.05 127.169 422.367 127.489 422.59 127.983C422.813 128.476 422.857 128.927 422.967 128.937Z" fill="#263238"/>
<path d="M426.805 122.533C426.851 122.63 427.352 122.48 427.965 122.533C428.579 122.587 429.062 122.764 429.119 122.67C429.176 122.577 428.712 122.19 427.985 122.153C427.258 122.117 426.751 122.447 426.805 122.533Z" fill="#263238"/>
<path d="M486.768 128.803L498.131 127.102C498.131 127.102 503.673 138.081 505.801 137.971L503.293 115.823L485.484 117.748L486.768 128.803Z" fill="#455A64"/>
<path d="M496.396 120.362C496.437 120.142 496.557 119.945 496.734 119.808C496.912 119.671 497.133 119.605 497.357 119.622C497.578 119.655 497.778 119.772 497.917 119.948C498.055 120.124 498.121 120.346 498.1 120.569C498.057 120.802 497.928 121.011 497.74 121.155C497.551 121.299 497.316 121.368 497.08 121.35C496.643 121.249 496.249 120.682 496.413 120.279" fill="#E0E0E0"/>
<g opacity="0.6">
<path opacity="0.6" d="M503.3 115.823L501.509 116.087L504.594 137.228C504.594 137.228 505.134 138.165 505.818 137.975L503.3 115.823Z" fill="white"/>
</g>
<path d="M498.057 127.476C498.164 127.459 498.154 126.912 498.441 126.342C498.727 125.772 499.151 125.435 499.108 125.341C499.064 125.248 498.441 125.478 498.107 126.175C497.774 126.872 497.96 127.509 498.057 127.476Z" fill="#263238"/>
<path d="M499.281 129.69C499.388 129.69 499.522 129.213 499.948 128.793C500.375 128.373 500.836 128.213 500.819 128.106C500.802 128 500.185 128 499.678 128.53C499.171 129.06 499.178 129.697 499.281 129.69Z" fill="#263238"/>
<path d="M502.21 130.694C502.21 130.594 501.666 130.504 501.106 130.848C500.546 131.191 500.366 131.725 500.462 131.761C500.559 131.798 500.839 131.448 501.303 131.171C501.766 130.894 502.213 130.804 502.21 130.694Z" fill="#263238"/>
<path d="M495.426 127.576C495.519 127.519 495.312 127.039 495.286 126.422C495.259 125.805 495.396 125.308 495.286 125.265C495.176 125.221 494.852 125.718 494.896 126.445C494.939 127.172 495.346 127.639 495.426 127.576Z" fill="#263238"/>
<path d="M414.829 66.9423L430.823 70.7909L425.924 80.6992L411.667 72.6184L414.829 66.9423Z" fill="#FFBE9D"/>
<path d="M409.426 64.5043L406.692 63.9807L402.94 65.7483L401.349 69.2834C401.247 69.5107 401.215 69.7634 401.258 70.0089C401.301 70.2544 401.416 70.4814 401.589 70.6607C402.256 71.3678 403.373 72.4383 403.947 72.5283C403.947 72.5283 404.03 73.769 405.197 73.829C405.197 73.829 404.864 74.4026 406.215 74.6194C407.565 74.8362 411.831 74.0458 411.831 74.0458C411.831 74.0458 412.081 73.3021 410.917 72.3783L412.308 71.2577C412.308 71.2577 412.224 70.3706 410.924 70.1471L412.318 67.8593L409.426 64.5043Z" fill="#263238"/>
<path d="M410.683 72.6719L415.369 75.5166L419.191 67.8028L413.315 65.655L409.776 72.5085L410.683 72.6719Z" fill="#263238"/>
<path d="M403.39 66.2453L403.079 67.0757L393.311 63.3972L392.101 63.0837L391.554 62.6168L391.947 61.8698L392.594 61.9498L393.648 62.6235L403.39 66.2453Z" fill="#E0E0E0"/>
<path d="M410.916 72.3916C410.664 72.5486 410.393 72.673 410.109 72.7618C409.441 73.0193 408.757 73.2353 408.062 73.4088C407.367 73.5823 406.662 73.7137 405.951 73.8023C405.658 73.8521 405.36 73.87 405.063 73.8557C405.348 73.7727 405.639 73.7135 405.934 73.6789C406.471 73.5855 407.211 73.4421 408.018 73.2387C408.825 73.0353 409.546 72.8151 410.066 72.6484C410.342 72.5401 410.626 72.4542 410.916 72.3916Z" fill="#263238"/>
<path d="M404.247 72.3783C406.173 72.131 408.067 71.6839 409.9 71.0443C410.135 70.9722 410.36 70.8678 410.567 70.7341C410.782 70.5911 410.936 70.3719 410.997 70.1205" fill="#263238"/>
<path d="M411.006 70.1239C411.01 70.225 410.983 70.3248 410.93 70.4107C410.795 70.648 410.586 70.8352 410.336 70.9443C409.536 71.2715 408.715 71.5444 407.878 71.7613C407.04 71.9824 406.191 72.1571 405.334 72.2849C404.979 72.3494 404.62 72.3806 404.26 72.3783C404.606 72.2832 404.958 72.2108 405.314 72.1615C405.981 72.0381 406.858 71.8514 407.832 71.5913C408.805 71.3311 409.689 71.0643 410.296 70.8342C410.533 70.7403 410.738 70.5806 410.886 70.374C410.97 70.2239 410.99 70.1205 411.006 70.1239Z" fill="#263238"/>
<path d="M411.491 71.1043L402.847 67.8894L403.744 65.4749L412.388 68.6898C412.548 68.7487 412.694 68.8388 412.819 68.9548C412.944 69.0708 413.044 69.2103 413.115 69.3654C413.185 69.5206 413.224 69.6881 413.229 69.8583C413.235 70.0286 413.206 70.1982 413.145 70.3573C413.025 70.6756 412.783 70.9331 412.473 71.0732C412.163 71.2133 411.809 71.2245 411.491 71.1043Z" fill="#455A64"/>
<path d="M403.229 69.5835C405.395 69.1427 407.596 68.9005 409.806 68.8598C410.069 68.8301 410.334 68.8776 410.57 68.9965C410.684 69.0791 410.779 69.1864 410.846 69.3106C410.913 69.4348 410.951 69.5726 410.957 69.7136C410.96 69.9569 410.891 70.1958 410.759 70.4C410.626 70.6042 410.437 70.7645 410.213 70.8608H410.193" fill="#263238"/>
<path d="M410.186 70.8809C410.186 70.8809 410.303 70.8108 410.486 70.6508C410.616 70.5454 410.72 70.4127 410.791 70.2621C410.863 70.1116 410.9 69.947 410.9 69.7803C410.893 69.5537 410.807 69.3367 410.657 69.1667C410.561 69.0815 410.449 69.0173 410.327 68.9782C410.205 68.9392 410.077 68.9261 409.95 68.9399C409.373 68.9399 408.729 68.9766 408.062 69.0233C406.728 69.1133 405.514 69.2601 404.644 69.3901L403.613 69.5435C403.487 69.5726 403.358 69.5861 403.229 69.5836C403.349 69.5359 403.473 69.5002 403.6 69.4768C403.84 69.4201 404.19 69.3468 404.624 69.2667C405.757 69.0691 406.9 68.9333 408.049 68.8599C408.716 68.8132 409.363 68.7932 409.95 68.7932C410.098 68.7806 410.247 68.7997 410.387 68.8492C410.527 68.8986 410.656 68.9773 410.763 69.08C410.931 69.2774 411.023 69.528 411.023 69.787C411.024 69.9974 410.962 70.2033 410.843 70.3773C410.758 70.5064 410.651 70.6194 410.526 70.7108C410.326 70.8609 410.186 70.8942 410.186 70.8809Z" fill="#263238"/>
<path d="M415.058 67.1457C415.058 67.1457 412.307 64.7011 411.216 64.0975C410.413 63.6079 409.456 63.4355 408.532 63.6139C407.921 63.764 403.386 67.0423 403.386 67.0423C403.386 67.0423 403.829 68.1062 405.333 67.9527C406.209 67.8774 407.033 67.5043 407.668 66.8955C407.668 66.8955 407.951 68.3863 409.812 68.8632C411.95 69.4135 415.058 67.1457 415.058 67.1457Z" fill="#263238"/>
<path d="M407.625 64.1609C407.532 64.2523 407.429 64.3339 407.319 64.4043L406.435 65.0447L403.34 67.2124L403.357 67.0957C403.595 67.3854 403.904 67.6084 404.254 67.7427C404.631 67.8769 405.036 67.9148 405.431 67.8527C406.234 67.7106 406.985 67.3598 407.609 66.8356L407.702 66.7589L407.739 66.8723C407.932 67.4534 408.298 67.9617 408.788 68.3289C409.278 68.6961 409.868 68.9047 410.48 68.9266C410.834 68.9391 411.188 68.8929 411.527 68.7899C411.647 68.7432 411.77 68.7031 411.894 68.6698C411.868 68.6908 411.838 68.7088 411.808 68.7232C411.723 68.7684 411.635 68.8074 411.544 68.8399C411.203 68.9669 410.841 69.0302 410.477 69.0267C409.915 69.0248 409.365 68.8654 408.889 68.5664C408.279 68.1836 407.818 67.6034 407.582 66.9223L407.712 66.959C407.07 67.5119 406.29 67.8797 405.454 68.0228C405.031 68.091 404.597 68.0497 404.194 67.9028C403.814 67.7591 403.48 67.5161 403.227 67.1991L403.17 67.129L403.247 67.079C404.497 66.2286 405.581 65.4982 406.378 64.9579L407.289 64.3577C407.394 64.2805 407.507 64.2145 407.625 64.1609Z" fill="#263238"/>
<path d="M411.647 74.1491C411.77 74.0046 411.835 73.8195 411.83 73.6298C411.824 73.4401 411.748 73.2591 411.617 73.122C411.346 72.8557 411.012 72.6619 410.647 72.5583C410.882 72.4868 411.094 72.3532 411.26 72.1715C411.383 72.0491 411.461 71.8896 411.484 71.7179C411.483 71.5778 411.442 71.4409 411.367 71.3229C411.291 71.2049 411.184 71.1106 411.057 71.0509C410.823 70.9624 410.573 70.9238 410.323 70.9375" fill="#263238"/>
<path d="M410.323 70.9376C410.389 70.9205 410.456 70.9137 410.523 70.9176C410.713 70.8928 410.905 70.9193 411.08 70.9943C411.218 71.0545 411.335 71.1515 411.421 71.2745C411.506 71.3975 411.556 71.5418 411.564 71.6913C411.556 71.8697 411.488 72.0401 411.371 72.1749C411.253 72.3108 411.112 72.4239 410.954 72.5084C410.865 72.5596 410.771 72.5999 410.674 72.6285V72.4651C410.965 72.558 411.24 72.6976 411.487 72.8786C411.699 73.0352 411.84 73.2688 411.881 73.5289C411.911 73.6983 411.878 73.8728 411.787 74.0192C411.721 74.1192 411.661 74.1492 411.654 74.1426C411.712 74.0564 411.752 73.9594 411.771 73.8573C411.791 73.7553 411.79 73.6504 411.767 73.5489C411.716 73.3295 411.586 73.137 411.401 73.0087C411.162 72.8462 410.9 72.7203 410.624 72.6351L410.383 72.5484L410.627 72.4717C410.712 72.4439 410.795 72.4082 410.874 72.365C411.009 72.3032 411.128 72.2107 411.221 72.0949C411.314 71.9791 411.379 71.8432 411.411 71.698C411.403 71.5761 411.364 71.4582 411.298 71.3559C411.231 71.2535 411.139 71.1703 411.03 71.1144C410.873 71.0379 410.701 70.9969 410.527 70.9943C410.39 70.971 410.32 70.951 410.323 70.9376Z" fill="#263238"/>
<path d="M416.839 66.9423L413.114 74.1492L414.485 74.9796L417.987 67.3625L416.839 66.9423Z" fill="#E0E0E0"/>
<path d="M433.735 47.5592C433.735 47.5592 435.233 42.8902 438.038 42.5167C440.842 42.1432 444.171 42.2632 446.445 43.0937C450.547 44.5944 467.699 62.7302 467.699 62.7302C467.699 62.7302 472.912 69.777 471.184 72.5284L456.747 77.9945H444.564C444.564 77.9945 435.713 66.3987 435.893 66.1085C436.073 65.8184 433.735 47.5592 433.735 47.5592Z" fill="#E0E0E0"/>
<path d="M451.771 94.9862C451.771 94.9862 452.194 124.047 453.181 126.445C454.168 128.843 455.439 130.677 459.671 131.525C463.903 132.372 495.646 130.114 495.646 130.114L494.095 115.883L471.477 113.809C471.477 113.809 471.38 107.419 471.52 104.454C471.661 101.489 474.972 95.9434 475.392 89.32C475.813 82.6967 451.771 94.9862 451.771 94.9862Z" fill="#263238"/>
<path d="M472.03 113.549C472.03 113.576 471.62 113.762 470.979 114.123C470.148 114.6 469.366 115.159 468.645 115.79C467.923 116.424 467.266 117.129 466.684 117.894C466.24 118.481 466.017 118.872 465.974 118.858C466.007 118.754 466.054 118.656 466.114 118.565C466.259 118.309 466.417 118.061 466.587 117.821C467.144 117.025 467.796 116.299 468.528 115.66C469.261 115.021 470.068 114.472 470.933 114.026C471.193 113.89 471.46 113.767 471.733 113.659C471.827 113.61 471.927 113.574 472.03 113.549Z" fill="#263238"/>
<path d="M468.065 121.973C468.068 121.853 468.085 121.733 468.115 121.616C468.155 121.393 468.229 121.066 468.336 120.669C468.615 119.633 468.979 118.622 469.423 117.644C469.869 116.668 470.394 115.73 470.994 114.84C471.224 114.506 471.42 114.233 471.564 114.053C471.631 113.953 471.711 113.862 471.801 113.782C471.821 113.799 471.527 114.213 471.094 114.91C470.527 115.812 470.021 116.75 469.576 117.718C469.137 118.688 468.759 119.685 468.446 120.703C468.216 121.486 468.092 121.98 468.065 121.973Z" fill="#263238"/>
<g opacity="0.3">
<path opacity="0.3" d="M451.917 101.156L451.9 101.276C454.337 103.153 457.363 104.099 460.435 103.944C463.688 103.669 466.755 102.311 469.146 100.089C463.743 101.626 457.52 101.563 451.917 101.156Z" fill="#252525"/>
</g>
<path d="M485.917 115.116L486.754 130.701L491.677 130.384L490.743 115.56L485.917 115.116Z" fill="#E0E0E0"/>
<path d="M439.301 68.6631L457.127 77.2207L471.534 70.5707C471.534 70.5707 474.229 73.7556 474.756 75.0796C475.282 76.4036 475.459 80.9226 475.459 80.9226L456.923 83.3305H440.932L438.037 78.418L439.301 68.6631Z" fill="#263238"/>
<path d="M475.262 78.0011C473.568 76.0268 450.643 80.1722 450.643 80.1722C450.643 80.1722 427.928 81.1727 424.543 81.7263C421.158 82.2799 417.986 88.1762 417.986 91.7013C417.986 95.2264 421.021 121.973 421.021 121.973L440.227 120.019C440.087 117.481 438.096 99.2184 438.096 99.2184C438.096 99.2184 455.729 102.323 460.244 101.756C464.76 101.189 472.25 96.1135 473.918 93.7156C475.585 91.3178 476.953 79.9754 475.262 78.0011Z" fill="#263238"/>
<path d="M439.381 80.6991C439.381 80.6991 467.275 77.0873 476.01 83.7006C476.01 83.7006 477.64 79.9354 475.263 78.0111C472.885 76.0868 438.397 79.0449 438.397 79.0449L439.381 80.6991Z" fill="#455A64"/>
<path d="M431.12 92.7019C431.256 92.7108 431.39 92.7343 431.52 92.7719C431.676 92.8028 431.83 92.8441 431.981 92.8953C432.184 92.9527 432.384 93.0206 432.581 93.0988C433.093 93.2973 433.586 93.5406 434.055 93.8258C435.211 94.5277 436.208 95.4624 436.983 96.5705C437.298 97.0206 437.572 97.4983 437.8 97.9979C437.907 98.208 437.974 98.4081 438.044 98.5815C438.103 98.7283 438.153 98.8786 438.194 99.0318C438.242 99.1594 438.273 99.2928 438.287 99.4286C438.254 99.4286 438.1 98.8817 437.69 98.0513C437.448 97.5669 437.167 97.103 436.85 96.6639C436.46 96.1274 436.022 95.6273 435.542 95.1698C435.056 94.7218 434.53 94.3177 433.972 93.9625C433.513 93.6754 433.032 93.4245 432.534 93.2122C431.68 92.872 431.114 92.7353 431.12 92.7019Z" fill="#263238"/>
<path d="M431.487 95.6667C431.586 95.666 431.685 95.6783 431.781 95.7033C432.043 95.747 432.302 95.8038 432.558 95.8734C433.409 96.1177 434.234 96.4473 435.019 96.8573C435.805 97.2663 436.546 97.7558 437.23 98.318C437.49 98.5348 437.694 98.7182 437.827 98.8549C437.961 98.9917 438.034 99.065 438.024 99.075C438.014 99.085 437.69 98.8216 437.154 98.408C436.454 97.8815 435.714 97.4119 434.939 97.004C434.162 96.5998 433.354 96.2596 432.521 95.9868C431.891 95.7967 431.481 95.6933 431.487 95.6667Z" fill="#263238"/>
<path d="M469.533 100.129L469.453 100.152L469.219 100.206L468.315 100.396C467.922 100.479 467.442 100.576 466.878 100.663C466.314 100.749 465.677 100.869 464.964 100.949L463.846 101.086C463.46 101.133 463.053 101.159 462.632 101.2C461.792 101.29 460.892 101.326 459.944 101.38C458.05 101.453 455.962 101.456 453.775 101.353C450.043 101.149 446.326 100.728 442.642 100.092C441.228 99.8522 440.088 99.6421 439.307 99.482L438.404 99.2952L438.167 99.2419C438.113 99.2419 438.087 99.2218 438.09 99.2185H438.17L438.407 99.2552L439.317 99.4086C440.108 99.5487 441.252 99.7421 442.652 99.9655C446.335 100.564 450.046 100.967 453.771 101.173C455.956 101.276 458.037 101.276 459.928 101.213C460.872 101.166 461.772 101.133 462.596 101.049C463.016 101.013 463.419 100.989 463.81 100.946L464.927 100.819C465.637 100.749 466.261 100.639 466.841 100.559C467.422 100.479 467.885 100.396 468.279 100.322L469.189 100.166L469.426 100.129H469.533Z" fill="#263238"/>
<path d="M446.951 95.3531C446.879 95.3874 446.805 95.4153 446.728 95.4365L446.077 95.6399L443.686 96.3536L443.623 96.3736L443.603 96.3069C443.149 94.6394 442.716 92.385 442.269 89.9204C441.935 88.0461 441.572 86.2986 441.205 84.8512L441.182 84.7611H441.272C442.427 84.7263 443.582 84.8112 444.72 85.0146C445.13 85.088 445.447 85.1614 445.664 85.2147C445.778 85.2371 445.89 85.2706 445.997 85.3148C445.885 85.3045 445.774 85.2866 445.664 85.2614C445.447 85.218 445.127 85.158 444.717 85.098C443.582 84.9299 442.435 84.8662 441.288 84.9079L441.358 84.8145C441.742 86.2652 442.099 88.0128 442.449 89.8871C442.906 92.355 443.323 94.6094 443.75 96.2736L443.67 96.2269L446.077 95.5599L446.744 95.3898C446.812 95.3711 446.881 95.3588 446.951 95.3531Z" fill="#263238"/>
<path d="M447.462 95.1097C447.435 94.9837 447.423 94.8549 447.428 94.7261C447.428 94.4427 447.405 94.0958 447.388 93.6823C447.286 91.3862 446.938 89.1077 446.351 86.8855L446.081 85.885C446.038 85.7631 446.009 85.6367 445.994 85.5082C446.06 85.6198 446.111 85.7398 446.144 85.865C446.231 86.0951 446.344 86.4386 446.478 86.8655C447.13 89.084 447.48 91.3803 447.518 93.6923C447.518 94.1358 447.518 94.4927 447.518 94.7395C447.512 94.8645 447.493 94.9885 447.462 95.1097Z" fill="#263238"/>
<g opacity="0.3">
<path opacity="0.3" d="M443.717 96.337C442.943 92.9419 442.419 89.8137 441.645 86.4186L441.605 86.382C442.032 90.2739 442.383 94.1659 442.813 98.0545C444.286 97.4431 445.618 96.5349 446.725 95.3865L443.717 96.337Z" fill="#252525"/>
</g>
<path d="M434.849 101.116C434.876 101.191 434.894 101.27 434.903 101.349C434.929 101.523 434.966 101.746 435.009 102.016C435.096 102.623 435.219 103.461 435.37 104.484V104.551H435.303C433.589 104.758 431.301 104.861 428.79 104.958C426.885 105.035 425.121 105.125 423.62 105.291H423.53V105.201C423.662 104.053 423.914 102.922 424.281 101.826C424.411 101.43 424.531 101.126 424.614 100.919C424.653 100.813 424.701 100.71 424.758 100.612C424.732 100.726 424.697 100.838 424.654 100.946C424.584 101.156 424.477 101.466 424.357 101.863C424.035 102.957 423.813 104.077 423.694 105.211L423.614 105.131C425.101 104.961 426.882 104.861 428.79 104.798C431.298 104.701 433.585 104.614 435.296 104.434L435.239 104.508C435.113 103.481 435.009 102.64 434.936 102.03C434.906 101.753 434.883 101.53 434.863 101.363C434.852 101.281 434.848 101.198 434.849 101.116Z" fill="#263238"/>
<path d="M434.685 100.576C434.557 100.584 434.428 100.575 434.302 100.549L433.261 100.439C430.974 100.211 428.669 100.226 426.385 100.482L425.347 100.606C425.221 100.629 425.092 100.639 424.964 100.636C425.082 100.587 425.207 100.555 425.334 100.539C425.578 100.486 425.931 100.422 426.368 100.359C427.512 100.198 428.665 100.114 429.82 100.106C430.975 100.098 432.129 100.169 433.275 100.319C433.715 100.376 434.068 100.436 434.312 100.482C434.439 100.501 434.564 100.532 434.685 100.576Z" fill="#263238"/>
<g opacity="0.3">
<path opacity="0.3" d="M435.356 104.458C431.888 104.731 427.092 104.945 423.62 105.218L424.954 106.105C428.866 106.245 436.387 105.645 436.387 105.645L434.852 101.346C435.026 102.382 435.194 103.419 435.356 104.458Z" fill="#252525"/>
</g>
<path d="M462.323 68.3096C462.246 68.428 462.159 68.5396 462.063 68.6431C461.886 68.8632 461.623 69.1733 461.289 69.5502C460.622 70.3006 459.668 71.3111 458.541 72.3516C457.414 73.3921 456.33 74.2626 455.539 74.8662C455.136 75.1663 454.806 75.4065 454.572 75.5632C454.457 75.6527 454.333 75.7299 454.202 75.7933C454.304 75.6877 454.416 75.5917 454.536 75.5065L455.466 74.7695C456.25 74.1425 457.314 73.2587 458.438 72.2215C459.562 71.1843 460.529 70.1972 461.216 69.4668L462.026 68.5997C462.114 68.4922 462.213 68.3949 462.323 68.3096Z" fill="#263238"/>
<path d="M454.328 68.0627C454.308 68.4102 454.257 68.7551 454.175 69.0933C454.051 69.7236 453.858 70.5873 453.595 71.5345C453.331 72.4816 453.051 73.3221 452.831 73.9224C452.726 74.2537 452.592 74.5751 452.431 74.8828C452.498 74.5423 452.593 74.2077 452.714 73.8823C452.904 73.2687 453.164 72.4249 453.428 71.4845C453.691 70.544 453.901 69.6836 454.055 69.0632C454.122 68.7236 454.213 68.3893 454.328 68.0627Z" fill="#263238"/>
<path d="M461.709 79.3951L461.155 94.306C461.111 95.514 461.548 96.6904 462.369 97.5774C463.19 98.4644 464.33 98.9897 465.538 99.0383L472.224 99.3051C473.406 99.3535 474.56 98.9414 475.443 98.1556C476.326 97.3699 476.87 96.2719 476.96 95.093C477.327 90.3173 477.654 82.8902 476.553 79.3951H461.709Z" fill="#455A64"/>
<path d="M476.696 80.6758C476.511 80.7243 476.321 80.7567 476.129 80.7725C475.766 80.8259 475.236 80.8859 474.579 80.9426C471.15 81.2333 467.698 81.0955 464.304 80.5324C463.637 80.4223 463.13 80.3189 462.769 80.2356C462.581 80.2026 462.396 80.1547 462.216 80.0922C462.407 80.102 462.596 80.1276 462.783 80.1689C463.146 80.2322 463.673 80.3156 464.324 80.4123C466.019 80.6501 467.725 80.8015 469.436 80.8659C471.147 80.9351 472.86 80.9162 474.569 80.8092C475.236 80.7692 475.756 80.7291 476.123 80.6958C476.313 80.6756 476.505 80.6689 476.696 80.6758Z" fill="#263238"/>
<path d="M476.76 86.572C476.6 86.6614 476.431 86.734 476.256 86.7888C476.093 86.8555 475.89 86.9322 475.649 87.0056C475.409 87.0789 475.139 87.179 474.832 87.2557C474.118 87.4556 473.392 87.6126 472.658 87.7259C471.758 87.8608 470.85 87.9354 469.94 87.9494C469.03 87.9539 468.121 87.8993 467.219 87.786C466.483 87.6888 465.753 87.5485 465.034 87.3658C464.727 87.2957 464.454 87.2057 464.214 87.1323C463.974 87.0589 463.767 86.9922 463.6 86.9289C463.425 86.8739 463.255 86.8059 463.09 86.7254C463.27 86.7562 463.448 86.8031 463.62 86.8655C463.79 86.9189 463.997 86.9789 464.24 87.0389C464.484 87.099 464.754 87.1823 465.064 87.2457C465.782 87.411 466.508 87.539 467.239 87.6292C469.032 87.845 470.846 87.8248 472.635 87.5692C473.363 87.4641 474.086 87.3205 474.799 87.139C475.109 87.0689 475.379 86.9822 475.619 86.9155C475.86 86.8488 476.066 86.7821 476.233 86.7254C476.405 86.6626 476.581 86.6113 476.76 86.572Z" fill="#263238"/>
<path d="M451.713 76.0535C451.597 76.1435 451.473 76.2227 451.343 76.2902C451.1 76.437 450.74 76.6238 450.283 76.8439C449.092 77.4056 447.846 77.8393 446.564 78.1378C445.279 78.4337 443.967 78.5936 442.649 78.6147C442.142 78.6147 441.732 78.6148 441.452 78.5847C441.304 78.5824 441.158 78.5645 441.015 78.5314C441.161 78.5125 441.308 78.5069 441.455 78.5147C441.735 78.5147 442.142 78.5147 442.645 78.4914C443.951 78.4361 445.25 78.2619 446.524 77.9711C447.795 77.6697 449.036 77.2556 450.233 76.7338C450.693 76.5304 451.06 76.357 451.31 76.2302C451.438 76.1577 451.573 76.0985 451.713 76.0535Z" fill="#263238"/>
<path d="M420.805 120.019C420.785 119.842 420.281 115.286 420.281 115.286L439.608 113.549L440.045 117.884L420.805 120.019Z" fill="#E0E0E0"/>
<path d="M470.48 90.304L468.402 93.4856H469.753L468.839 96.2703L471.451 92.6585H470.057L470.48 90.304Z" fill="#E0E0E0"/>
<path d="M431.714 59.4185C431.714 59.4185 427.832 65.9351 427.825 70.0271L409.439 78.9816L411.397 84.3576C411.397 84.3576 433.235 81.7563 434.719 80.9626C436.203 80.1689 440.095 76.9606 441.192 74.4827C442.289 72.0048 444.033 64.541 444.033 64.541L431.714 59.4185Z" fill="#FFBE9D"/>
<path d="M432.662 70.8375C432.645 70.8609 432.412 70.6941 431.995 70.504C431.46 70.242 430.889 70.0632 430.3 69.9738C429.713 69.8819 429.114 69.8819 428.526 69.9738C428.076 70.0505 427.803 70.1405 427.796 70.1139C428.013 69.9837 428.253 69.8955 428.503 69.8537C429.102 69.7193 429.72 69.6967 430.327 69.787C430.934 69.8761 431.519 70.0786 432.051 70.384C432.282 70.4941 432.49 70.6482 432.662 70.8375Z" fill="#F5B898"/>
<path d="M395.709 76.7838L391 82.0031L405.311 85.038L405.064 78.5914L395.709 76.7838Z" fill="#455A64"/>
<path d="M409.759 78.5914C409.759 78.5914 407.011 77.9244 405.687 78.0512C404.363 78.1779 398.37 79.5052 398.37 79.5052C398.37 79.5052 397.91 80.5858 399.408 81.046C400.905 81.5062 402.923 81.046 402.923 81.046C402.923 81.046 399.234 83.9842 399.177 84.2143C399.121 84.4444 398.661 84.9646 399.234 85.3682C399.808 85.7717 401.539 85.3682 401.539 85.3682C401.539 85.3682 401.539 86.6355 402.059 86.979C402.579 87.3225 403.036 87.6126 403.036 87.6126C403.036 87.6126 403.96 88.5931 404.534 88.7666C405.107 88.94 406.264 89.1701 406.264 89.1701H407.992L412.661 85.2248L416.683 84.3577L414.122 76.5704L409.759 78.5914Z" fill="#263238"/>
<path d="M404.36 84.5077C403.956 84.7888 403.504 84.9945 403.026 85.1147C402.563 85.293 402.072 85.3878 401.575 85.3948C402.031 85.2181 402.498 85.0699 402.973 84.9512C403.426 84.7771 403.889 84.6291 404.36 84.5077Z" fill="#263238"/>
<path d="M412.458 81.176C412.526 81.8775 412.549 82.5827 412.525 83.2871C412.559 83.9907 412.549 84.6958 412.495 85.3981C412.316 83.9972 412.303 82.5799 412.458 81.176Z" fill="#263238"/>
<path d="M411.83 77.6309L414.295 84.8712L415.972 84.5077L413.114 77.0339L411.83 77.6309Z" fill="#E0E0E0"/>
<path d="M440.301 43.8473C440.301 43.8473 434.722 45.308 433.631 47.7793C432.541 50.2505 429.103 62.3532 429.103 62.3532L444.04 67.6259C444.04 67.6259 445.961 59.0282 446.785 55.7366C447.608 52.4449 450.183 46.1318 440.301 43.8473Z" fill="#E0E0E0"/>
<path d="M429.096 62.3532C429.123 62.3492 429.151 62.3492 429.179 62.3532L429.413 62.4266L430.303 62.72L433.575 63.8273L444.383 67.5525L444.27 67.6192C444.27 67.5325 444.3 67.4357 444.317 67.339C445.05 62.8668 445.714 58.8181 446.201 55.8699C446.448 54.4159 446.648 53.232 446.791 52.3982C446.861 52.0013 446.918 51.6845 446.961 51.4544L447.008 51.2109C447.013 51.1824 447.021 51.1545 447.031 51.1276C447.035 51.1563 447.035 51.1855 447.031 51.2143C447.031 51.281 447.015 51.361 447.001 51.4611C446.968 51.6912 446.921 52.008 446.865 52.4082C446.735 53.2453 446.551 54.4326 446.328 55.89C445.857 58.8414 445.207 62.8935 444.493 67.369C444.493 67.4624 444.463 67.5591 444.447 67.6458L444.43 67.7492L444.333 67.7159L433.535 63.9573L430.28 62.8001L429.399 62.4666L429.172 62.3765L429.096 62.3532Z" fill="#263238"/>
<path d="M447.898 52.9052C447.905 53.0055 447.9 53.1063 447.882 53.2053C447.862 53.3954 447.818 53.6689 447.758 54.009C447.427 55.7687 446.852 57.4737 446.051 59.0749C445.897 59.3817 445.764 59.6252 445.664 59.7886C445.564 59.952 445.507 60.0421 445.497 60.0354C445.627 59.694 445.775 59.36 445.941 59.0349C446.221 58.4146 446.584 57.5441 446.914 56.557C447.245 55.5698 447.485 54.6594 447.638 53.9957C447.704 53.6275 447.791 53.2633 447.898 52.9052Z" fill="#263238"/>
<path d="M430.036 62.7034C430.024 62.7511 430.006 62.7971 429.982 62.8401L429.802 63.227C429.645 63.5605 429.415 64.0541 429.158 64.6844C428.462 66.3856 428.04 68.1867 427.908 70.0204V70.0671L427.865 70.0871L424.489 71.7179C421.645 73.1119 419.077 74.3859 417.206 75.273C416.272 75.7232 415.508 76.0767 414.981 76.3169L414.371 76.5903C414.302 76.6261 414.229 76.6541 414.154 76.6737C414.217 76.6266 414.285 76.5873 414.358 76.557L414.955 76.2568L417.152 75.163L424.413 71.5645C425.6 70.9842 426.747 70.4339 427.794 69.9403L427.748 70.007C427.89 68.1533 428.341 66.3364 429.082 64.631C429.352 64.004 429.599 63.5171 429.769 63.1869L429.972 62.8134C429.99 62.7748 430.011 62.738 430.036 62.7034Z" fill="#F5B898"/>
<path d="M438.617 55.0496L436.539 58.2278H437.89L436.976 61.0126L439.587 57.4007H438.193L438.617 55.0496Z" fill="#263238"/>
<path d="M439.507 62.9135C438.569 62.6785 437.644 62.389 436.739 62.0464C435.817 61.7563 434.912 61.411 434.031 61.0126C434.969 61.2479 435.892 61.5375 436.796 61.8797C437.72 62.1695 438.625 62.5147 439.507 62.9135Z" fill="#263238"/>
<path d="M540 126.36V125.209C540 123.937 540.505 122.717 541.405 121.818C542.304 120.918 543.524 120.413 544.796 120.413H585.204C585.834 120.413 586.458 120.537 587.04 120.778C587.621 121.019 588.15 121.372 588.595 121.818C589.041 122.263 589.394 122.792 589.635 123.374C589.876 123.955 590 124.579 590 125.209V126.36H540Z" fill="#FF725E"/>
<path d="M563.432 75.0992L548.814 120.425H580.035L566.466 75.1338C566.368 74.8091 566.17 74.524 565.9 74.32C565.629 74.1161 565.3 74.004 564.961 74.0001C564.622 73.9962 564.291 74.1008 564.016 74.2986C563.741 74.4963 563.536 74.7769 563.432 75.0992Z" fill="#FF725E"/>
<g opacity="0.5">
<path opacity="0.5" d="M558.67 89.8661H570.881L576.16 107.488H552.982L558.67 89.8661Z" fill="white"/>
</g>
<g opacity="0.3">
<path opacity="0.3" d="M548.809 120.425H580.035L578.906 116.654L549.419 118.542L548.809 120.425Z" fill="#252525"/>
</g>
<g opacity="0.2">
<path opacity="0.2" d="M547.184 122.042C547.184 122.088 546.799 122.008 546.188 122.042C545.398 122.051 544.622 122.253 543.927 122.629C543.232 123.005 542.639 123.545 542.199 124.201C541.853 124.708 541.709 125.065 541.669 125.047C541.699 124.704 541.818 124.375 542.014 124.092C542.431 123.363 543.043 122.765 543.782 122.365C544.52 121.965 545.356 121.78 546.194 121.829C546.537 121.812 546.878 121.886 547.184 122.042Z" fill="white"/>
</g>
<g opacity="0.2">
<path opacity="0.2" d="M554.283 108.72C553.935 110.094 553.491 111.44 552.953 112.75C552.508 114.096 551.971 115.41 551.347 116.682C551.69 115.309 552.132 113.962 552.671 112.653C553.116 111.306 553.655 109.992 554.283 108.72Z" fill="white"/>
</g>
<g opacity="0.2">
<path opacity="0.2" d="M564.496 75.4562C564.348 76.1075 564.155 76.748 563.92 77.3733C563.517 78.6226 563.005 80.2 562.435 81.9444C561.865 83.6888 561.37 85.2662 560.973 86.5212C560.795 87.163 560.574 87.792 560.311 88.4038C560.41 87.7436 560.564 87.0927 560.771 86.4579C561.093 85.272 561.577 83.637 562.153 81.8523C562.729 80.0676 563.304 78.4556 563.719 77.2984C563.928 76.6644 564.188 76.0483 564.496 75.4562Z" fill="white"/>
</g>
<path d="M0 126.36V125.209C0 123.937 0.505228 122.717 1.40458 121.818C2.30394 120.918 3.52372 120.413 4.7956 120.413H45.2044C45.8341 120.413 46.4578 120.537 47.0396 120.778C47.6214 121.019 48.1501 121.372 48.5954 121.818C49.0407 122.263 49.3939 122.792 49.6349 123.374C49.876 123.955 50 124.579 50 125.209V126.36H0Z" fill="#FF725E"/>
<path d="M23.4311 75.0992L8.81396 120.425H40.0345L26.4651 75.1338C26.368 74.8091 26.1697 74.524 25.899 74.32C25.6284 74.1161 25.2997 74.004 24.9608 74.0001C24.6219 73.9962 24.2907 74.1008 24.0155 74.2986C23.7403 74.4963 23.5356 74.7769 23.4311 75.0992Z" fill="#FF725E"/>
<g opacity="0.5">
<path opacity="0.5" d="M18.6704 89.8661H30.8811L36.1603 107.488H12.9824L18.6704 89.8661Z" fill="white"/>
</g>
<g opacity="0.3">
<path opacity="0.3" d="M8.80859 120.425H40.0348L38.9065 116.654L9.41884 118.542L8.80859 120.425Z" fill="#252525"/>
</g>
<g opacity="0.2">
<path opacity="0.2" d="M7.1847 122.042C7.1847 122.088 6.79899 122.008 6.18874 122.042C5.39848 122.051 4.62229 122.253 3.92721 122.629C3.23213 123.005 2.63905 123.545 2.19911 124.201C1.85368 124.708 1.70973 125.065 1.66943 125.047C1.6995 124.704 1.81858 124.375 2.01488 124.092C2.43167 123.363 3.04378 122.765 3.78226 122.365C4.52074 121.965 5.35624 121.78 6.1945 121.829C6.53753 121.812 6.87894 121.886 7.1847 122.042Z" fill="white"/>
</g>
<g opacity="0.2">
<path opacity="0.2" d="M14.2833 108.72C13.9359 110.094 13.4915 111.44 12.9534 112.75C12.5081 114.096 11.9714 115.41 11.3472 116.682C11.6901 115.309 12.1327 113.962 12.6713 112.653C13.1166 111.306 13.6552 109.992 14.2833 108.72Z" fill="white"/>
</g>
<g opacity="0.2">
<path opacity="0.2" d="M24.4959 75.4562C24.3475 76.1075 24.1552 76.748 23.9202 77.3733C23.5172 78.6226 23.0048 80.2 22.4349 81.9444C21.865 83.6888 21.3699 85.2662 20.9726 86.5212C20.7948 87.163 20.5736 87.792 20.3105 88.4038C20.4101 87.7436 20.5641 87.0927 20.7711 86.4579C21.0935 85.272 21.5771 83.637 22.1528 81.8523C22.7285 80.0676 23.3042 78.4556 23.7187 77.2984C23.9276 76.6644 24.1875 76.0483 24.4959 75.4562Z" fill="white"/>
</g>
</svg>
