<svg width="1366" height="768" viewBox="0 0 1366 768" fill="none" xmlns="http://www.w3.org/2000/svg">
<g opacity="0.3">
<path d="M34.7595 520.405H129.247V767.729H34.7595V520.405Z" fill="#A5C08B"/>
<path d="M34.7598 520.405H82.0098V767.729H34.7598V520.405Z" fill="#D1E8BA"/>
<path d="M85.0979 491H118.466V520.393H85.0979V491Z" fill="#A5C08B"/>
<path d="M85.0972 491H93.0471V520.393H85.0972V491Z" fill="#D1E8BA"/>
<path d="M32.0002 518.691H137.125V520.405H32.0002V518.691Z" fill="#D1E8BA"/>
<path d="M102.602 533.218H110.601V550.078H102.602V533.218Z" fill="#FFE3DF"/>
<path d="M82.0096 556.703C82.0096 556.885 92.5852 557.031 105.629 557.031C118.672 557.031 129.247 556.885 129.247 556.703C129.247 556.52 118.672 556.387 105.629 556.387C92.5852 556.387 82.0096 556.545 82.0096 556.703Z" fill="#D1E8BA"/>
<path d="M54.9386 533.218H62.9373V550.078H54.9386V533.218Z" fill="#E6FBE1"/>
<path d="M34.3469 556.703C34.3469 556.885 44.9225 557.031 57.9658 557.031C71.0091 557.031 81.5969 556.885 81.5969 556.703C81.5969 556.52 71.0213 556.387 57.9658 556.387C44.9104 556.387 34.3469 556.545 34.3469 556.703Z" fill="#A5C08B"/>
<path d="M54.9386 566.707H62.9373V583.567H54.9386V566.707Z" fill="#E6FBE1"/>
<path d="M34.3469 590.192C34.3469 590.362 44.9225 590.508 57.9658 590.508C71.0091 590.508 81.5969 590.362 81.5969 590.192C81.5969 590.022 71.0213 589.864 57.9658 589.864C44.9104 589.864 34.3469 590.01 34.3469 590.192Z" fill="#A5C08B"/>
<path d="M54.9386 601.193H62.9373V618.054H54.9386V601.193Z" fill="#E6FBE1"/>
<path d="M34.3469 624.679C34.3469 624.861 44.9225 625.007 57.9658 625.007C71.0091 625.007 81.5969 624.861 81.5969 624.679C81.5969 624.496 71.0213 624.363 57.9658 624.363C44.9104 624.363 34.3469 624.508 34.3469 624.679Z" fill="#A5C08B"/>
<path d="M54.9386 635.692H62.9373V652.552H54.9386V635.692Z" fill="#E6FBE1"/>
<path d="M34.3469 659.177C34.3469 659.359 44.9225 659.493 57.9658 659.493C71.0091 659.493 81.5969 659.359 81.5969 659.177C81.5969 658.995 71.0213 658.849 57.9658 658.849C44.9104 658.849 34.3469 658.995 34.3469 659.177Z" fill="#A5C08B"/>
<path d="M54.9386 669.193H62.9373V686.054H54.9386V669.193Z" fill="#E6FBE1"/>
<path d="M34.3469 692.691C34.3469 692.873 44.9225 693.019 57.9658 693.019C71.0091 693.019 81.5969 692.873 81.5969 692.691C81.5969 692.508 71.0213 692.375 57.9658 692.375C44.9104 692.375 34.3469 692.508 34.3469 692.691Z" fill="#A5C08B"/>
<path d="M54.9386 702.841H62.9373V719.701H54.9386V702.841Z" fill="#E6FBE1"/>
<path d="M54.9386 736.926H62.9373V753.787H54.9386V736.926Z" fill="#E6FBE1"/>
<path d="M34.3469 726.326C34.3469 726.497 44.9225 726.642 57.9658 726.642C71.0091 726.642 81.5969 726.497 81.5969 726.326C81.5969 726.156 71.0213 725.998 57.9658 725.998C44.9104 725.998 34.3469 726.144 34.3469 726.326Z" fill="#A5C08B"/>
<path d="M102.602 567.218H110.601V584.078H102.602V567.218Z" fill="#FFE3DF"/>
<path d="M82.0096 590.703C82.0096 590.873 92.5852 591.019 105.629 591.019C118.672 591.019 129.247 590.873 129.247 590.703C129.247 590.533 118.672 590.375 105.629 590.375C92.5852 590.375 82.0096 590.581 82.0096 590.703Z" fill="#D1E8BA"/>
<path d="M102.602 601.205H110.601V618.066H102.602V601.205Z" fill="#FFE3DF"/>
<path d="M82.0096 624.691C82.0096 624.873 92.5852 625.019 105.629 625.019C118.672 625.019 129.247 624.873 129.247 624.691C129.247 624.508 118.672 624.375 105.629 624.375C92.5852 624.375 82.0096 624.521 82.0096 624.691Z" fill="#D1E8BA"/>
<path d="M102.602 635.206H110.601V652.066H102.602V635.206Z" fill="#FFE3DF"/>
<path d="M82.0096 658.654C82.0096 658.825 92.5852 658.97 105.629 658.97C118.672 658.97 129.247 658.825 129.247 658.654C129.247 658.484 118.672 658.326 105.629 658.326C92.5852 658.326 82.0096 658.508 82.0096 658.654Z" fill="#D1E8BA"/>
<path d="M102.602 669.193H110.601V686.054H102.602V669.193Z" fill="#FFE3DF"/>
<path d="M82.0096 692.691C82.0096 692.873 92.5852 693.019 105.629 693.019C118.672 693.019 129.247 692.873 129.247 692.691C129.247 692.508 118.672 692.375 105.629 692.375C92.5852 692.375 82.0096 692.508 82.0096 692.691Z" fill="#D1E8BA"/>
<path d="M102.602 703.194H110.601V720.054H102.602V703.194Z" fill="#FFE3DF"/>
<path d="M82.0096 726.727C82.0096 726.898 92.5852 727.043 105.629 727.043C118.672 727.043 129.247 726.898 129.247 726.727C129.247 726.557 118.672 726.399 105.629 726.399C92.5852 726.399 82.0096 726.496 82.0096 726.727Z" fill="#D1E8BA"/>
<path d="M102.602 737.182H110.601V754.042H102.602V737.182Z" fill="#FFE3DF"/>
<path d="M119.939 767.513H277.747L278.44 518.098H120.619L119.939 767.513Z" fill="#A5C08B"/>
<path d="M120.632 518.11H199.536V767.513H120.632V518.11Z" fill="#D1E8BA"/>
<path d="M204.69 469H260.413V518.098H204.69V469Z" fill="#A5C08B"/>
<path d="M204.69 469H217.976V518.098H204.69V469Z" fill="#D1E8BA"/>
<path d="M116.001 515.241H291.581V518.11H116.001V515.241Z" fill="#D1E8BA"/>
<path d="M233.925 539.516H247.284V567.682H233.925V539.516Z" fill="#E6FBE1"/>
<path d="M199.524 578.744C199.524 579.035 217.186 579.279 238.97 579.279C260.753 579.279 278.428 579.035 278.428 578.744C278.428 578.452 260.765 578.197 238.97 578.197C217.174 578.197 199.524 578.44 199.524 578.744Z" fill="#D1E8BA"/>
<path d="M154.328 539.516H167.688V567.682H154.328V539.516Z" fill="#E6FBE1"/>
<path d="M119.939 578.744C119.939 579.035 137.602 579.279 159.385 579.279C181.169 579.279 198.843 579.035 198.843 578.744C198.843 578.452 181.181 578.197 159.385 578.197C137.59 578.197 119.939 578.44 119.939 578.744Z" fill="#A5C08B"/>
<path d="M154.328 595.434H167.688V623.599H154.328V595.434Z" fill="#E6FBE1"/>
<path d="M119.939 634.661C119.939 634.953 137.602 635.196 159.385 635.196C181.169 635.196 198.843 634.953 198.843 634.661C198.843 634.369 181.181 634.126 159.385 634.126C137.59 634.126 119.939 634.357 119.939 634.661Z" fill="#A5C08B"/>
<path d="M154.328 653.053H167.688V681.218H154.328V653.053Z" fill="#E6FBE1"/>
<path d="M119.939 692.268C119.939 692.559 137.602 692.803 159.385 692.803C181.169 692.803 198.843 692.559 198.843 692.268C198.843 691.976 181.181 691.733 159.385 691.733C137.59 691.733 119.939 691.976 119.939 692.268Z" fill="#A5C08B"/>
<path d="M154.328 710.66H167.688V738.825H154.328V710.66Z" fill="#E6FBE1"/>
<path d="M119.939 749.875C119.939 750.178 137.602 750.409 159.385 750.409C181.169 750.409 198.843 750.178 198.843 749.875C198.843 749.571 181.181 749.315 159.41 749.315C137.638 749.315 119.939 749.583 119.939 749.875Z" fill="#A5C08B"/>
<path d="M233.925 596.297H247.284V624.462H233.925V596.297Z" fill="#E6FBE1"/>
<path d="M199.524 635.512C199.524 635.816 217.186 636.047 238.97 636.047C260.753 636.047 278.428 635.816 278.428 635.512C278.428 635.208 260.765 634.977 238.97 634.977C217.174 634.977 199.524 635.22 199.524 635.512Z" fill="#D1E8BA"/>
<path d="M233.925 653.065H247.284V681.23H233.925V653.065Z" fill="#E6FBE1"/>
<path d="M199.524 692.292C199.524 692.584 217.186 692.827 238.97 692.827C260.753 692.827 278.428 692.584 278.428 692.292C278.428 692 260.765 691.745 238.97 691.745C217.174 691.745 199.524 691.988 199.524 692.292Z" fill="#D1E8BA"/>
<path d="M233.925 709.845H247.284V738.01H233.925V709.845Z" fill="#E6FBE1"/>
<path d="M199.524 749.06C199.524 749.364 217.186 749.595 238.97 749.595C260.753 749.595 278.428 749.364 278.428 749.06C278.428 748.756 260.765 748.525 238.97 748.525C217.174 748.525 199.524 748.769 199.524 749.06Z" fill="#D1E8BA"/>
<path d="M1218.14 428.368H1325.38V768.247H1218.14V428.368Z" fill="#D3E9C7"/>
<path d="M1218.14 428.368H1271.76V767.311H1218.14V428.368Z" fill="#A5C08B"/>
<path d="M1275.27 395H1313.13V428.368H1275.27V395Z" fill="#E6FBE1"/>
<path d="M1275.26 395H1284.29V428.368H1275.26V395Z" fill="#A5C08B"/>
<path d="M1334.32 428.368V426.423H1215V428.368" fill="#D1E8BA"/>
<path d="M1295.13 442.919H1304.21V462.064H1295.13V442.919Z" fill="#A5C08B"/>
<path d="M1271.76 469.564C1271.76 469.771 1283.77 469.929 1298.57 469.929C1313.38 469.929 1325.38 469.771 1325.38 469.564C1325.38 469.358 1313.38 469.2 1298.57 469.2C1283.77 469.2 1271.76 469.37 1271.76 469.564Z" fill="#D1E8BA"/>
<path d="M1241.04 442.919H1250.12V462.064H1241.04V442.919Z" fill="#D1E8BA"/>
<path d="M1217.68 469.564C1217.68 469.771 1229.67 469.929 1244.42 469.929C1259.16 469.929 1271.23 469.771 1271.23 469.564C1271.23 469.358 1259.22 469.2 1244.42 469.2C1229.61 469.2 1217.68 469.37 1217.68 469.564Z" fill="#D1E8BA"/>
<path d="M1241.04 480.918H1250.12V500.064H1241.04V480.918Z" fill="#D1E8BA"/>
<path d="M1217.68 507.576C1217.68 507.77 1229.67 507.941 1244.42 507.941C1259.16 507.941 1271.23 507.77 1271.23 507.576C1271.23 507.381 1259.22 507.211 1244.42 507.211C1229.61 507.211 1217.68 507.369 1217.68 507.576Z" fill="#D1E8BA"/>
<path d="M1241.04 520.072H1250.12V539.218H1241.04V520.072Z" fill="#D1E8BA"/>
<path d="M1217.68 546.718C1217.68 546.924 1229.67 547.082 1244.42 547.082C1259.16 547.082 1271.23 546.924 1271.23 546.718C1271.23 546.511 1259.22 546.353 1244.42 546.353C1229.61 546.353 1217.68 546.523 1217.68 546.718Z" fill="#D1E8BA"/>
<path d="M1241.04 559.214H1250.12V578.36H1241.04V559.214Z" fill="#D1E8BA"/>
<path d="M1217.68 585.872C1217.68 586.067 1229.67 586.237 1244.42 586.237C1259.16 586.237 1271.23 586.067 1271.23 585.872C1271.23 585.678 1259.22 585.507 1244.42 585.507C1229.61 585.507 1217.68 585.665 1217.68 585.872Z" fill="#D1E8BA"/>
<path d="M1241.04 597.25H1250.12V616.396H1241.04V597.25Z" fill="#D1E8BA"/>
<path d="M1217.68 623.896C1217.68 624.102 1229.67 624.26 1244.42 624.26C1259.16 624.26 1271.23 624.102 1271.23 623.896C1271.23 623.689 1259.22 623.531 1244.42 623.531C1229.61 623.531 1217.68 623.701 1217.68 623.896Z" fill="#D1E8BA"/>
<path d="M1241.04 635.432H1250.12V654.577H1241.04V635.432Z" fill="#D1E8BA"/>
<path d="M1241.04 674.112H1250.12V693.257H1241.04V674.112Z" fill="#D1E8BA"/>
<path d="M1217.68 662.078C1217.68 662.284 1229.67 662.442 1244.42 662.442C1259.16 662.442 1271.23 662.284 1271.23 662.078C1271.23 661.871 1259.22 661.713 1244.42 661.713C1229.61 661.713 1217.68 661.883 1217.68 662.078Z" fill="#D1E8BA"/>
<path d="M1295.13 481.501H1304.21V500.647H1295.13V481.501Z" fill="#A5C08B"/>
<path d="M1271.76 508.147C1271.76 508.354 1283.77 508.512 1298.57 508.512C1313.38 508.512 1325.38 508.354 1325.38 508.147C1325.38 507.941 1313.38 507.782 1298.57 507.782C1283.77 507.782 1271.76 507.953 1271.76 508.147Z" fill="#D1E8BA"/>
<path d="M1295.13 520.084H1304.21V539.23H1295.13V520.084Z" fill="#A5C08B"/>
<path d="M1271.76 546.73C1271.76 546.937 1283.77 547.095 1298.57 547.095C1313.38 547.095 1325.38 546.937 1325.38 546.73C1325.38 546.523 1313.38 546.365 1298.57 546.365C1283.77 546.365 1271.76 546.536 1271.76 546.73Z" fill="#D1E8BA"/>
<path d="M1295.13 558.667H1304.21V577.813H1295.13V558.667Z" fill="#A5C08B"/>
<path d="M1271.76 585.313C1271.76 585.52 1283.77 585.678 1298.57 585.678C1313.38 585.678 1325.38 585.52 1325.38 585.313C1325.38 585.106 1313.38 584.948 1298.57 584.948C1283.77 584.948 1271.76 585.118 1271.76 585.313Z" fill="#D1E8BA"/>
<path d="M1295.13 597.25H1304.21V616.396H1295.13V597.25Z" fill="#A5C08B"/>
<path d="M1271.76 623.896C1271.76 624.102 1283.77 624.26 1298.57 624.26C1313.38 624.26 1325.38 624.102 1325.38 623.896C1325.38 623.689 1313.38 623.531 1298.57 623.531C1283.77 623.531 1271.76 623.701 1271.76 623.896Z" fill="#D1E8BA"/>
<path d="M1295.13 635.833H1304.21V654.979H1295.13V635.833Z" fill="#A5C08B"/>
<path d="M1271.76 662.454C1271.76 662.661 1283.77 662.819 1298.57 662.819C1313.38 662.819 1325.38 662.661 1325.38 662.454C1325.38 662.248 1313.38 662.09 1298.57 662.09C1283.77 662.09 1271.76 662.272 1271.76 662.454Z" fill="#D1E8BA"/>
<path d="M1295.13 674.404H1304.21V693.549H1295.13V674.404Z" fill="#A5C08B"/>
<path d="M318.137 428.368H425.376V768.247H318.137V428.368Z" fill="#D3E9C7"/>
<path d="M318.137 428.368H371.757V767.311H318.137V428.368Z" fill="#A5C08B"/>
<path d="M375.269 395H413.135V428.368H375.269V395Z" fill="#E6FBE1"/>
<path d="M375.257 395H384.289V428.368H375.257V395Z" fill="#A5C08B"/>
<path d="M434.323 428.368V426.423H315V428.368" fill="#D1E8BA"/>
<path d="M395.132 442.919H404.213V462.064H395.132V442.919Z" fill="#A5C08B"/>
<path d="M371.756 469.564C371.756 469.771 383.766 469.929 398.572 469.929C413.378 469.929 425.376 469.771 425.376 469.564C425.376 469.358 413.378 469.2 398.572 469.2C383.766 469.2 371.756 469.37 371.756 469.564Z" fill="#D1E8BA"/>
<path d="M341.039 442.919H350.119V462.064H341.039V442.919Z" fill="#D1E8BA"/>
<path d="M317.675 469.564C317.675 469.771 329.673 469.929 344.418 469.929C359.163 469.929 371.234 469.771 371.234 469.564C371.234 469.358 359.224 469.2 344.418 469.2C329.612 469.2 317.675 469.37 317.675 469.564Z" fill="#D1E8BA"/>
<path d="M341.039 480.918H350.119V500.064H341.039V480.918Z" fill="#D1E8BA"/>
<path d="M317.675 507.576C317.675 507.77 329.673 507.941 344.418 507.941C359.163 507.941 371.234 507.77 371.234 507.576C371.234 507.381 359.224 507.211 344.418 507.211C329.612 507.211 317.675 507.369 317.675 507.576Z" fill="#D1E8BA"/>
<path d="M341.039 520.072H350.119V539.218H341.039V520.072Z" fill="#D1E8BA"/>
<path d="M317.675 546.718C317.675 546.924 329.673 547.082 344.418 547.082C359.163 547.082 371.234 546.924 371.234 546.718C371.234 546.511 359.224 546.353 344.418 546.353C329.612 546.353 317.675 546.523 317.675 546.718Z" fill="#D1E8BA"/>
<path d="M341.039 559.214H350.119V578.36H341.039V559.214Z" fill="#D1E8BA"/>
<path d="M317.675 585.872C317.675 586.067 329.673 586.237 344.418 586.237C359.163 586.237 371.234 586.067 371.234 585.872C371.234 585.678 359.224 585.507 344.418 585.507C329.612 585.507 317.675 585.665 317.675 585.872Z" fill="#D1E8BA"/>
<path d="M341.039 597.25H350.119V616.396H341.039V597.25Z" fill="#D1E8BA"/>
<path d="M317.675 623.896C317.675 624.102 329.673 624.26 344.418 624.26C359.163 624.26 371.234 624.102 371.234 623.896C371.234 623.689 359.224 623.531 344.418 623.531C329.612 623.531 317.675 623.701 317.675 623.896Z" fill="#D1E8BA"/>
<path d="M341.039 635.432H350.119V654.577H341.039V635.432Z" fill="#D1E8BA"/>
<path d="M341.039 674.112H350.119V693.257H341.039V674.112Z" fill="#D1E8BA"/>
<path d="M317.675 662.078C317.675 662.284 329.673 662.442 344.418 662.442C359.163 662.442 371.234 662.284 371.234 662.078C371.234 661.871 359.224 661.713 344.418 661.713C329.612 661.713 317.675 661.883 317.675 662.078Z" fill="#D1E8BA"/>
<path d="M395.132 481.501H404.213V500.647H395.132V481.501Z" fill="#A5C08B"/>
<path d="M371.756 508.147C371.756 508.354 383.766 508.512 398.572 508.512C413.378 508.512 425.376 508.354 425.376 508.147C425.376 507.941 413.378 507.782 398.572 507.782C383.766 507.782 371.756 507.953 371.756 508.147Z" fill="#D1E8BA"/>
<path d="M395.132 520.084H404.213V539.23H395.132V520.084Z" fill="#A5C08B"/>
<path d="M371.756 546.73C371.756 546.937 383.766 547.095 398.572 547.095C413.378 547.095 425.376 546.937 425.376 546.73C425.376 546.523 413.378 546.365 398.572 546.365C383.766 546.365 371.756 546.536 371.756 546.73Z" fill="#D1E8BA"/>
<path d="M395.132 558.667H404.213V577.813H395.132V558.667Z" fill="#A5C08B"/>
<path d="M371.756 585.313C371.756 585.52 383.766 585.678 398.572 585.678C413.378 585.678 425.376 585.52 425.376 585.313C425.376 585.106 413.378 584.948 398.572 584.948C383.766 584.948 371.756 585.118 371.756 585.313Z" fill="#D1E8BA"/>
<path d="M395.132 597.25H404.213V616.396H395.132V597.25Z" fill="#A5C08B"/>
<path d="M371.756 623.896C371.756 624.102 383.766 624.26 398.572 624.26C413.378 624.26 425.376 624.102 425.376 623.896C425.376 623.689 413.378 623.531 398.572 623.531C383.766 623.531 371.756 623.701 371.756 623.896Z" fill="#D1E8BA"/>
<path d="M395.132 635.833H404.213V654.979H395.132V635.833Z" fill="#A5C08B"/>
<path d="M371.756 662.454C371.756 662.661 383.766 662.819 398.572 662.819C413.378 662.819 425.376 662.661 425.376 662.454C425.376 662.248 413.378 662.09 398.572 662.09C383.766 662.09 371.756 662.272 371.756 662.454Z" fill="#D1E8BA"/>
<path d="M395.132 674.404H404.213V693.549H395.132V674.404Z" fill="#A5C08B"/>
<path d="M1082.77 561.418H1239.32V767.923H1082.77V561.418Z" fill="#A5C08B"/>
<path d="M1082.77 561.418H1156.18V767.923H1082.77V561.418Z" fill="#D1E8BA"/>
<path d="M1192.43 589.365H1206.5V623.559H1192.43V589.365Z" fill="#E6FBE1"/>
<path d="M1192.43 723.226H1206.5V757.432H1192.43V723.226Z" fill="#E6FBE1"/>
<path d="M1156.18 636.992C1156.18 637.381 1174.79 637.685 1197.75 637.685C1220.71 637.685 1239.32 637.381 1239.32 636.992C1239.32 636.603 1220.71 636.299 1197.75 636.299C1174.79 636.299 1156.18 636.615 1156.18 636.992Z" fill="#E6FBE1"/>
<path d="M1192.43 656.806H1206.5V691H1192.43V656.806Z" fill="#E6FBE1"/>
<path d="M1156.18 704.433C1156.18 704.81 1174.79 705.126 1197.75 705.126C1220.71 705.126 1239.32 704.81 1239.32 704.433C1239.32 704.056 1220.71 703.728 1197.75 703.728C1174.79 703.728 1156.18 704.044 1156.18 704.433Z" fill="#E6FBE1"/>
<path d="M1126.5 589.365H1140.58V623.559H1126.5V589.365Z" fill="#E6FBE1"/>
<path d="M1095.97 589.365H1110.04V623.559H1095.97V589.365Z" fill="#E6FBE1"/>
<path d="M1126.5 654.265H1140.58V688.46H1126.5V654.265Z" fill="#E6FBE1"/>
<path d="M1095.97 654.265H1110.04V688.46H1095.97V654.265Z" fill="#E6FBE1"/>
<path d="M1126.5 719.166H1140.58V753.36H1126.5V719.166Z" fill="#E6FBE1"/>
<path d="M1095.97 719.166H1110.04V753.36H1095.97V719.166Z" fill="#E6FBE1"/>
<path d="M1071 554.222H1251.1V561.674H1071V554.222Z" fill="#D1E8BA"/>
<path d="M1081.67 562.367C1081.67 562.756 1116.67 563.072 1159.82 563.072C1202.98 563.072 1237.97 562.756 1237.97 562.367C1237.97 561.978 1202.99 561.674 1159.82 561.674C1116.66 561.674 1081.67 561.99 1081.67 562.367Z" fill="#A5C08B"/>
<path d="M802.767 561.196H959.323V767.701H802.767V561.196Z" fill="#A5C08B"/>
<path d="M802.766 561.196H876.176V767.701H802.766V561.196Z" fill="#D1E8BA"/>
<path d="M912.425 589.143H926.502V623.337H912.425V589.143Z" fill="#E6FBE1"/>
<path d="M912.425 723.004H926.502V757.21H912.425V723.004Z" fill="#E6FBE1"/>
<path d="M876.176 636.77C876.176 637.159 894.787 637.463 917.749 637.463C940.712 637.463 959.323 637.159 959.323 636.77C959.323 636.381 940.712 636.077 917.749 636.077C894.787 636.077 876.176 636.393 876.176 636.77Z" fill="#E6FBE1"/>
<path d="M912.425 656.584H926.502V690.778H912.425V656.584Z" fill="#E6FBE1"/>
<path d="M876.176 704.211C876.176 704.588 894.787 704.904 917.749 704.904C940.712 704.904 959.323 704.588 959.323 704.211C959.323 703.834 940.712 703.506 917.749 703.506C894.787 703.506 876.176 703.822 876.176 704.211Z" fill="#E6FBE1"/>
<path d="M846.503 589.143H860.58V623.337H846.503V589.143Z" fill="#E6FBE1"/>
<path d="M815.968 589.143H830.044V623.337H815.968V589.143Z" fill="#E6FBE1"/>
<path d="M846.503 654.043H860.58V688.238H846.503V654.043Z" fill="#E6FBE1"/>
<path d="M815.968 654.043H830.044V688.238H815.968V654.043Z" fill="#E6FBE1"/>
<path d="M846.503 718.944H860.58V753.138H846.503V718.944Z" fill="#E6FBE1"/>
<path d="M815.968 718.944H830.044V753.138H815.968V718.944Z" fill="#E6FBE1"/>
<path d="M791 554H971.102V561.452H791V554Z" fill="#D1E8BA"/>
<path d="M801.672 562.145C801.672 562.534 836.669 562.85 879.822 562.85C922.976 562.85 957.973 562.534 957.973 562.145C957.973 561.756 922.988 561.452 879.822 561.452C836.657 561.452 801.672 561.768 801.672 562.145Z" fill="#A5C08B"/>
<path d="M900.76 520.405H995.247V767.729H900.76V520.405Z" fill="#A5C08B"/>
<path d="M900.76 520.405H948.01V767.729H900.76V520.405Z" fill="#D1E8BA"/>
<path d="M951.098 491H984.466V520.393H951.098V491Z" fill="#A5C08B"/>
<path d="M951.097 491H959.047V520.393H951.097V491Z" fill="#D1E8BA"/>
<path d="M898 518.691H1003.12V520.405H898V518.691Z" fill="#D1E8BA"/>
<path d="M968.602 533.218H976.601V550.078H968.602V533.218Z" fill="#FFE3DF"/>
<path d="M948.01 556.703C948.01 556.885 958.585 557.031 971.629 557.031C984.672 557.031 995.247 556.885 995.247 556.703C995.247 556.52 984.672 556.387 971.629 556.387C958.585 556.387 948.01 556.545 948.01 556.703Z" fill="#D1E8BA"/>
<path d="M920.939 533.218H928.937V550.078H920.939V533.218Z" fill="#E6FBE1"/>
<path d="M900.347 556.703C900.347 556.885 910.923 557.031 923.966 557.031C937.009 557.031 947.597 556.885 947.597 556.703C947.597 556.52 937.021 556.387 923.966 556.387C910.91 556.387 900.347 556.545 900.347 556.703Z" fill="#A5C08B"/>
<path d="M920.939 566.707H928.937V583.567H920.939V566.707Z" fill="#E6FBE1"/>
<path d="M900.347 590.192C900.347 590.362 910.923 590.508 923.966 590.508C937.009 590.508 947.597 590.362 947.597 590.192C947.597 590.022 937.021 589.864 923.966 589.864C910.91 589.864 900.347 590.01 900.347 590.192Z" fill="#A5C08B"/>
<path d="M920.939 601.193H928.937V618.054H920.939V601.193Z" fill="#E6FBE1"/>
<path d="M900.347 624.679C900.347 624.861 910.923 625.007 923.966 625.007C937.009 625.007 947.597 624.861 947.597 624.679C947.597 624.496 937.021 624.363 923.966 624.363C910.91 624.363 900.347 624.508 900.347 624.679Z" fill="#A5C08B"/>
<path d="M920.939 635.692H928.937V652.552H920.939V635.692Z" fill="#E6FBE1"/>
<path d="M900.347 659.177C900.347 659.359 910.923 659.493 923.966 659.493C937.009 659.493 947.597 659.359 947.597 659.177C947.597 658.995 937.021 658.849 923.966 658.849C910.91 658.849 900.347 658.995 900.347 659.177Z" fill="#A5C08B"/>
<path d="M920.939 669.193H928.937V686.054H920.939V669.193Z" fill="#E6FBE1"/>
<path d="M900.347 692.691C900.347 692.873 910.923 693.019 923.966 693.019C937.009 693.019 947.597 692.873 947.597 692.691C947.597 692.508 937.021 692.375 923.966 692.375C910.91 692.375 900.347 692.508 900.347 692.691Z" fill="#A5C08B"/>
<path d="M920.939 702.841H928.937V719.701H920.939V702.841Z" fill="#E6FBE1"/>
<path d="M920.939 736.926H928.937V753.787H920.939V736.926Z" fill="#E6FBE1"/>
<path d="M900.347 726.326C900.347 726.497 910.923 726.642 923.966 726.642C937.009 726.642 947.597 726.497 947.597 726.326C947.597 726.156 937.021 725.998 923.966 725.998C910.91 725.998 900.347 726.144 900.347 726.326Z" fill="#A5C08B"/>
<path d="M968.602 567.218H976.601V584.078H968.602V567.218Z" fill="#FFE3DF"/>
<path d="M948.01 590.703C948.01 590.873 958.585 591.019 971.629 591.019C984.672 591.019 995.247 590.873 995.247 590.703C995.247 590.533 984.672 590.375 971.629 590.375C958.585 590.375 948.01 590.581 948.01 590.703Z" fill="#D1E8BA"/>
<path d="M968.602 601.205H976.601V618.066H968.602V601.205Z" fill="#FFE3DF"/>
<path d="M948.01 624.691C948.01 624.873 958.585 625.019 971.629 625.019C984.672 625.019 995.247 624.873 995.247 624.691C995.247 624.508 984.672 624.375 971.629 624.375C958.585 624.375 948.01 624.521 948.01 624.691Z" fill="#D1E8BA"/>
<path d="M968.602 635.206H976.601V652.066H968.602V635.206Z" fill="#FFE3DF"/>
<path d="M948.01 658.654C948.01 658.825 958.585 658.97 971.629 658.97C984.672 658.97 995.247 658.825 995.247 658.654C995.247 658.484 984.672 658.326 971.629 658.326C958.585 658.326 948.01 658.508 948.01 658.654Z" fill="#D1E8BA"/>
<path d="M968.602 669.193H976.601V686.054H968.602V669.193Z" fill="#FFE3DF"/>
<path d="M948.01 692.691C948.01 692.873 958.585 693.019 971.629 693.019C984.672 693.019 995.247 692.873 995.247 692.691C995.247 692.508 984.672 692.375 971.629 692.375C958.585 692.375 948.01 692.508 948.01 692.691Z" fill="#D1E8BA"/>
<path d="M968.602 703.194H976.601V720.054H968.602V703.194Z" fill="#FFE3DF"/>
<path d="M948.01 726.727C948.01 726.898 958.585 727.043 971.629 727.043C984.672 727.043 995.247 726.898 995.247 726.727C995.247 726.557 984.672 726.399 971.629 726.399C958.585 726.399 948.01 726.496 948.01 726.727Z" fill="#D1E8BA"/>
<path d="M968.602 737.182H976.601V754.042H968.602V737.182Z" fill="#FFE3DF"/>
<path d="M494.306 561.378H650.862V767.882H494.306V561.378Z" fill="#A5C08B"/>
<path d="M494.305 561.378H567.715V767.882H494.305V561.378Z" fill="#D1E8BA"/>
<path d="M603.964 589.324H618.041V623.519H603.964V589.324Z" fill="#E6FBE1"/>
<path d="M603.964 723.185H618.041V757.392H603.964V723.185Z" fill="#E6FBE1"/>
<path d="M567.715 636.951C567.715 637.34 586.326 637.644 609.288 637.644C632.251 637.644 650.862 637.34 650.862 636.951C650.862 636.562 632.251 636.258 609.288 636.258C586.326 636.258 567.715 636.574 567.715 636.951Z" fill="#E6FBE1"/>
<path d="M603.964 656.765H618.041V690.96H603.964V656.765Z" fill="#E6FBE1"/>
<path d="M567.715 704.392C567.715 704.769 586.326 705.085 609.288 705.085C632.251 705.085 650.862 704.769 650.862 704.392C650.862 704.015 632.251 703.687 609.288 703.687C586.326 703.687 567.715 704.003 567.715 704.392Z" fill="#E6FBE1"/>
<path d="M538.042 589.324H552.119V623.519H538.042V589.324Z" fill="#E6FBE1"/>
<path d="M507.507 589.324H521.583V623.519H507.507V589.324Z" fill="#E6FBE1"/>
<path d="M538.042 654.224H552.119V688.419H538.042V654.224Z" fill="#E6FBE1"/>
<path d="M507.507 654.224H521.583V688.419H507.507V654.224Z" fill="#E6FBE1"/>
<path d="M538.042 719.125H552.119V753.319H538.042V719.125Z" fill="#E6FBE1"/>
<path d="M507.507 719.125H521.583V753.319H507.507V719.125Z" fill="#E6FBE1"/>
<path d="M482.54 554.181H662.642V561.633H482.54V554.181Z" fill="#D1E8BA"/>
<path d="M493.212 562.326C493.212 562.715 528.209 563.031 571.362 563.031C614.516 563.031 649.513 562.715 649.513 562.326C649.513 561.937 614.528 561.633 571.362 561.633C528.197 561.633 493.212 561.949 493.212 562.326Z" fill="#A5C08B"/>
<path d="M635.939 767.513H793.747L794.44 518.098H636.619L635.939 767.513Z" fill="#A5C08B"/>
<path d="M636.632 518.11H715.536V767.513H636.632V518.11Z" fill="#D1E8BA"/>
<path d="M720.69 469H776.413V518.098H720.69V469Z" fill="#A5C08B"/>
<path d="M720.69 469H733.976V518.098H720.69V469Z" fill="#D1E8BA"/>
<path d="M632.001 515.241H807.581V518.11H632.001V515.241Z" fill="#D1E8BA"/>
<path d="M749.925 539.516H763.284V567.682H749.925V539.516Z" fill="#E6FBE1"/>
<path d="M715.524 578.744C715.524 579.035 733.186 579.279 754.97 579.279C776.753 579.279 794.428 579.035 794.428 578.744C794.428 578.452 776.765 578.197 754.97 578.197C733.174 578.197 715.524 578.44 715.524 578.744Z" fill="#D1E8BA"/>
<path d="M670.328 539.516H683.688V567.682H670.328V539.516Z" fill="#E6FBE1"/>
<path d="M635.939 578.744C635.939 579.035 653.602 579.279 675.385 579.279C697.169 579.279 714.843 579.035 714.843 578.744C714.843 578.452 697.181 578.197 675.385 578.197C653.59 578.197 635.939 578.44 635.939 578.744Z" fill="#A5C08B"/>
<path d="M670.328 595.434H683.688V623.599H670.328V595.434Z" fill="#E6FBE1"/>
<path d="M635.939 634.661C635.939 634.953 653.602 635.196 675.385 635.196C697.169 635.196 714.843 634.953 714.843 634.661C714.843 634.369 697.181 634.126 675.385 634.126C653.59 634.126 635.939 634.357 635.939 634.661Z" fill="#A5C08B"/>
<path d="M670.328 653.053H683.688V681.218H670.328V653.053Z" fill="#E6FBE1"/>
<path d="M635.939 692.268C635.939 692.559 653.602 692.803 675.385 692.803C697.169 692.803 714.843 692.559 714.843 692.268C714.843 691.976 697.181 691.733 675.385 691.733C653.59 691.733 635.939 691.976 635.939 692.268Z" fill="#A5C08B"/>
<path d="M670.328 710.66H683.688V738.825H670.328V710.66Z" fill="#E6FBE1"/>
<path d="M635.939 749.874C635.939 750.178 653.602 750.409 675.385 750.409C697.169 750.409 714.843 750.178 714.843 749.874C714.843 749.571 697.181 749.315 675.41 749.315C653.638 749.315 635.939 749.583 635.939 749.874Z" fill="#A5C08B"/>
<path d="M749.925 596.297H763.284V624.462H749.925V596.297Z" fill="#E6FBE1"/>
<path d="M715.524 635.512C715.524 635.816 733.186 636.047 754.97 636.047C776.753 636.047 794.428 635.816 794.428 635.512C794.428 635.208 776.765 634.977 754.97 634.977C733.174 634.977 715.524 635.22 715.524 635.512Z" fill="#D1E8BA"/>
<path d="M749.925 653.065H763.284V681.23H749.925V653.065Z" fill="#E6FBE1"/>
<path d="M715.524 692.292C715.524 692.584 733.186 692.827 754.97 692.827C776.753 692.827 794.428 692.584 794.428 692.292C794.428 692 776.765 691.745 754.97 691.745C733.174 691.745 715.524 691.988 715.524 692.292Z" fill="#D1E8BA"/>
<path d="M749.925 709.845H763.284V738.01H749.925V709.845Z" fill="#E6FBE1"/>
<path d="M364.759 520.405H459.247V767.729H364.759V520.405Z" fill="#A5C08B"/>
<path d="M364.76 520.405H412.01V767.729H364.76V520.405Z" fill="#D1E8BA"/>
<path d="M415.098 491H448.466V520.393H415.098V491Z" fill="#A5C08B"/>
<path d="M415.097 491H423.047V520.393H415.097V491Z" fill="#D1E8BA"/>
<path d="M362 518.691H467.124V520.405H362V518.691Z" fill="#D1E8BA"/>
<path d="M432.602 533.218H440.601V550.078H432.602V533.218Z" fill="#E6FBE1"/>
<path d="M412.01 556.703C412.01 556.885 422.585 557.031 435.628 557.031C448.672 557.031 459.247 556.885 459.247 556.703C459.247 556.52 448.672 556.387 435.628 556.387C422.585 556.387 412.01 556.545 412.01 556.703Z" fill="#D1E8BA"/>
<path d="M384.939 533.218H392.937V550.078H384.939V533.218Z" fill="#E6FBE1"/>
<path d="M364.347 556.703C364.347 556.885 374.922 557.031 387.966 557.031C401.009 557.031 411.597 556.885 411.597 556.703C411.597 556.52 401.021 556.387 387.966 556.387C374.91 556.387 364.347 556.545 364.347 556.703Z" fill="#A5C08B"/>
<path d="M384.939 566.707H392.937V583.567H384.939V566.707Z" fill="#E6FBE1"/>
<path d="M364.347 590.192C364.347 590.362 374.922 590.508 387.966 590.508C401.009 590.508 411.597 590.362 411.597 590.192C411.597 590.022 401.021 589.864 387.966 589.864C374.91 589.864 364.347 590.01 364.347 590.192Z" fill="#A5C08B"/>
<path d="M384.939 601.193H392.937V618.054H384.939V601.193Z" fill="#E6FBE1"/>
<path d="M364.347 624.679C364.347 624.861 374.922 625.007 387.966 625.007C401.009 625.007 411.597 624.861 411.597 624.679C411.597 624.496 401.021 624.363 387.966 624.363C374.91 624.363 364.347 624.508 364.347 624.679Z" fill="#A5C08B"/>
<path d="M384.939 635.692H392.937V652.552H384.939V635.692Z" fill="#E6FBE1"/>
<path d="M364.347 659.177C364.347 659.359 374.922 659.493 387.966 659.493C401.009 659.493 411.597 659.359 411.597 659.177C411.597 658.995 401.021 658.849 387.966 658.849C374.91 658.849 364.347 658.995 364.347 659.177Z" fill="#A5C08B"/>
<path d="M384.939 669.193H392.937V686.054H384.939V669.193Z" fill="#E6FBE1"/>
<path d="M364.347 692.691C364.347 692.873 374.922 693.019 387.966 693.019C401.009 693.019 411.597 692.873 411.597 692.691C411.597 692.508 401.021 692.375 387.966 692.375C374.91 692.375 364.347 692.508 364.347 692.691Z" fill="#A5C08B"/>
<path d="M384.939 702.841H392.937V719.701H384.939V702.841Z" fill="#E6FBE1"/>
<path d="M384.939 736.926H392.937V753.787H384.939V736.926Z" fill="#E6FBE1"/>
<path d="M364.347 726.326C364.347 726.496 374.922 726.642 387.966 726.642C401.009 726.642 411.597 726.496 411.597 726.326C411.597 726.156 401.021 725.998 387.966 725.998C374.91 725.998 364.347 726.144 364.347 726.326Z" fill="#A5C08B"/>
<path d="M432.602 567.218H440.601V584.078H432.602V567.218Z" fill="#E6FBE1"/>
<path d="M412.01 590.703C412.01 590.873 422.585 591.019 435.628 591.019C448.672 591.019 459.247 590.873 459.247 590.703C459.247 590.533 448.672 590.375 435.628 590.375C422.585 590.375 412.01 590.581 412.01 590.703Z" fill="#D1E8BA"/>
<path d="M432.602 601.205H440.601V618.066H432.602V601.205Z" fill="#E6FBE1"/>
<path d="M412.01 624.691C412.01 624.873 422.585 625.019 435.628 625.019C448.672 625.019 459.247 624.873 459.247 624.691C459.247 624.508 448.672 624.375 435.628 624.375C422.585 624.375 412.01 624.521 412.01 624.691Z" fill="#D1E8BA"/>
<path d="M432.602 635.206H440.601V652.066H432.602V635.206Z" fill="#E6FBE1"/>
<path d="M412.01 658.654C412.01 658.825 422.585 658.97 435.628 658.97C448.672 658.97 459.247 658.825 459.247 658.654C459.247 658.484 448.672 658.326 435.628 658.326C422.585 658.326 412.01 658.508 412.01 658.654Z" fill="#D1E8BA"/>
<path d="M432.602 669.193H440.601V686.054H432.602V669.193Z" fill="#E6FBE1"/>
<path d="M412.01 692.691C412.01 692.873 422.585 693.019 435.628 693.019C448.672 693.019 459.247 692.873 459.247 692.691C459.247 692.508 448.672 692.375 435.628 692.375C422.585 692.375 412.01 692.508 412.01 692.691Z" fill="#D1E8BA"/>
<path d="M432.602 703.194H440.601V720.054H432.602V703.194Z" fill="#E6FBE1"/>
<path d="M412.01 726.727C412.01 726.898 422.585 727.043 435.628 727.043C448.672 727.043 459.247 726.898 459.247 726.727C459.247 726.557 448.672 726.399 435.628 726.399C422.585 726.399 412.01 726.496 412.01 726.727Z" fill="#D1E8BA"/>
<path d="M432.602 737.181H440.601V754.042H432.602V737.181Z" fill="#E6FBE1"/>
<path d="M1092.65 359.54C1092.08 355.359 1097.96 351.931 1102.37 351.578C1104.49 351.408 1106.68 351.724 1108.68 351.031C1113.01 349.524 1114.76 343.92 1118.97 342.145C1122.13 340.808 1125.76 341.999 1128.83 343.543C1131.89 345.087 1134.9 347.02 1138.33 347.19C1141.31 347.384 1144.54 346.278 1147.14 347.725C1149.09 348.819 1150.11 351.055 1151.9 352.368C1153.76 353.518 1155.91 354.101 1158.1 354.046C1160.27 353.997 1162.44 354.351 1164.49 355.091C1166.47 356.003 1168.14 358.094 1167.69 360.221L1092.65 359.54Z" fill="#A5C08B"/>
<path d="M1066.17 481.634C1065.6 477.465 1071.5 474.037 1075.9 473.672C1078 473.502 1080.19 473.83 1082.19 473.137C1086.52 471.618 1088.27 466.026 1092.48 464.251C1095.64 462.914 1099.27 464.093 1102.34 465.637C1105.4 467.181 1108.42 469.126 1111.86 469.284C1114.82 469.466 1118.05 468.372 1120.66 469.819C1122.6 470.901 1123.62 473.137 1125.41 474.462C1127.27 475.606 1129.42 476.188 1131.61 476.14C1133.79 476.09 1135.95 476.444 1138 477.185C1139.98 478.097 1141.65 480.188 1141.21 482.315L1066.17 481.634Z" fill="#A5C08B"/>
<path d="M623.857 370.432C623.273 366.263 629.169 362.835 633.581 362.47C635.684 362.312 637.885 362.628 639.878 361.935C644.206 360.428 645.956 354.824 650.162 353.049C653.323 351.712 656.957 352.903 660.021 354.435C663.084 355.966 666.099 357.924 669.539 358.082C672.517 358.276 675.738 357.17 678.352 358.616C680.285 359.698 681.306 361.935 683.092 363.26C684.953 364.409 687.107 364.992 689.292 364.938C691.47 364.888 693.638 365.242 695.686 365.983C697.667 366.895 699.333 368.985 698.895 371.113L623.857 370.432Z" fill="#A5C08B"/>
<path d="M965.388 429.862C964.33 422.241 975.113 415.968 983.172 415.275C987.025 414.959 991.025 415.555 994.684 414.278C1002.58 411.519 1005.75 401.296 1013.46 398.05C1019.24 395.619 1025.88 397.783 1031.48 400.591C1037.08 403.399 1042.6 406.948 1048.85 407.35C1054.28 407.702 1060.19 405.684 1064.94 408.346C1068.48 410.316 1070.34 414.424 1073.61 416.855C1076.88 419.287 1080.98 419.712 1084.94 419.919C1088.9 420.125 1093.01 420.174 1096.62 421.827C1100.23 423.48 1103.22 427.297 1102.47 431.199L965.388 429.862Z" fill="#C2DBAA"/>
<path d="M897.607 339.823C898.017 339.755 898.423 339.661 898.823 339.544C899.961 339.298 901.133 339.253 902.287 339.41C903.96 339.646 905.536 340.335 906.845 341.404C908.442 342.716 909.569 344.512 910.055 346.521V346.521L910.249 347.275L910.541 346.558C911.323 344.647 912.666 343.02 914.394 341.89C915.802 340.97 917.421 340.422 919.099 340.298C920.661 340.213 922.226 340.41 923.718 340.881C923.342 340.648 922.932 340.475 922.502 340.37C921.383 340.017 920.21 339.868 919.038 339.933C917.283 340.008 915.579 340.549 914.102 341.501C912.275 342.662 910.852 344.36 910.03 346.363H910.516C910 344.284 908.818 342.431 907.149 341.088C905.982 340.18 904.621 339.556 903.171 339.265C901.722 338.974 900.225 339.024 898.798 339.41C898.381 339.482 897.979 339.621 897.607 339.823V339.823Z" fill="#A5C08B"/>
<path d="M850.576 392.325C850.576 392.325 851.463 392.009 853.092 391.656C855.399 391.147 857.778 391.053 860.118 391.377C863.59 391.842 866.867 393.255 869.588 395.461C872.913 398.175 875.261 401.902 876.274 406.073V406.195L876.468 406.948L876.76 406.268C878.377 402.289 881.167 398.897 884.758 396.543C887.67 394.647 891.017 393.526 894.483 393.285C896.829 393.115 899.186 393.333 901.461 393.929C903.077 394.355 903.892 394.732 903.892 394.683C903.704 394.554 903.5 394.452 903.284 394.379C902.688 394.131 902.08 393.916 901.461 393.735C898.614 392.91 895.624 392.7 892.69 393.119C889.756 393.539 886.944 394.577 884.442 396.166C880.757 398.532 877.889 401.974 876.225 406.025H876.711V405.903C875.686 401.621 873.265 397.802 869.831 395.048C867.495 393.19 864.762 391.894 861.845 391.262C858.927 390.629 855.903 390.677 853.007 391.401C852.374 391.552 851.753 391.747 851.147 391.984C850.943 392.072 850.75 392.186 850.576 392.325V392.325Z" fill="#A5C08B"/>
<path d="M756.306 362.057C756.306 362.057 756.805 361.911 757.704 361.728C758.969 361.471 760.268 361.434 761.546 361.619C763.438 361.878 765.222 362.657 766.7 363.868C768.511 365.345 769.791 367.372 770.347 369.642V369.642L770.541 370.408L770.821 369.691C771.714 367.538 773.229 365.702 775.172 364.415C776.767 363.376 778.599 362.757 780.497 362.616C781.782 362.517 783.074 362.624 784.326 362.932C785.201 363.151 785.675 363.345 785.699 363.309C785.724 363.272 785.59 363.224 785.371 363.126C785.048 362.975 784.715 362.845 784.374 362.737C783.112 362.349 781.791 362.188 780.472 362.263C778.498 362.352 776.582 362.96 774.917 364.026C772.869 365.334 771.276 367.245 770.359 369.496H770.833C770.268 367.101 768.921 364.962 767.004 363.418C765.697 362.394 764.169 361.69 762.541 361.362C760.914 361.035 759.232 361.094 757.631 361.534C757.282 361.622 756.94 361.74 756.61 361.886C756.416 361.984 756.294 362.032 756.306 362.057Z" fill="#A5C08B"/>
<path d="M826.265 338C826.265 338 826.751 338.559 827.614 339.532C828.833 340.921 829.935 342.409 830.908 343.981C834.128 349.181 835.814 355.186 835.771 361.303V361.522H836.281C836.775 358.232 837.845 355.055 839.442 352.137C841.626 348.134 844.709 344.693 848.449 342.084C849.519 341.343 850.139 340.966 850.115 340.93C849.947 340.985 849.787 341.063 849.641 341.161C849.194 341.388 848.76 341.64 848.34 341.914C846.782 342.912 845.332 344.069 844.012 345.366C839.607 349.701 836.717 355.341 835.771 361.449H836.281V361.291C836.327 355.078 834.552 348.989 831.176 343.774C830.178 342.214 829.034 340.753 827.76 339.41C827.322 338.924 826.921 338.596 826.678 338.353C826.555 338.219 826.416 338.1 826.265 338V338Z" fill="#A5C08B"/>
</g>
</svg>
