<svg width="65" height="72" viewBox="0 0 65 72" fill="none" xmlns="http://www.w3.org/2000/svg">
<circle cx="32.5" cy="34.5" r="32.5" fill="#84C374"/>
<path d="M24.1782 19.736V21.5513L21.4029 22.0924C21.112 22.1505 20.8851 22.2727 20.7222 22.4589C20.5709 22.6451 20.4953 22.8895 20.4953 23.192V43.6138C20.4953 43.9164 20.5709 44.1607 20.7222 44.3469C20.8735 44.5331 21.1004 44.6553 21.4029 44.7135L24.1782 45.2196V47H12.9025V45.2196L15.6953 44.7135C15.9978 44.6553 16.2247 44.5331 16.376 44.3469C16.5273 44.1607 16.6029 43.9164 16.6029 43.6138V23.192C16.6029 22.9011 16.5215 22.6625 16.3585 22.4764C16.2073 22.2785 15.9862 22.1505 15.6953 22.0924L12.9025 21.5513V19.736H24.1782ZM41.5934 47.0873H38.0501L28.9737 23.0175C28.8807 22.7615 28.7468 22.5636 28.5723 22.424C28.4094 22.2844 28.1999 22.1738 27.9439 22.0924L25.9367 21.5513V19.736H36.4443V21.5513L32.8487 22.2495L40.4763 43.16L47.2836 22.2495L43.7054 21.5513V19.736H52.9039V21.5513L50.7919 22.0924C50.5359 22.1738 50.3148 22.2844 50.1287 22.424C49.9541 22.5636 49.8261 22.7615 49.7447 23.0175L41.5934 47.0873Z" fill="black"/>
</svg>
