<svg width="65" height="72" viewBox="0 0 65 72" fill="none" xmlns="http://www.w3.org/2000/svg">
<circle cx="32.5" cy="34.5" r="32.5" fill="#84C374"/>
<path d="M30.1782 19.736V21.5513L27.4029 22.0924C27.112 22.1505 26.8851 22.2727 26.7222 22.4589C26.5709 22.6451 26.4953 22.8895 26.4953 23.192V43.6138C26.4953 43.9164 26.5709 44.1607 26.7222 44.3469C26.8735 44.5331 27.1004 44.6553 27.4029 44.7135L30.1782 45.2196V47H18.9025V45.2196L21.6953 44.7135C21.9978 44.6553 22.2247 44.5331 22.376 44.3469C22.5273 44.1607 22.6029 43.9164 22.6029 43.6138V23.192C22.6029 22.9011 22.5215 22.6625 22.3585 22.4764C22.2073 22.2785 21.9862 22.1505 21.6953 22.0924L18.9025 21.5513V19.736H30.1782ZM45.2719 19.736V21.5513L42.4967 22.0924C42.2057 22.1505 41.9788 22.2727 41.8159 22.4589C41.6647 22.6451 41.589 22.8895 41.589 23.192V43.6138C41.589 43.9164 41.6647 44.1607 41.8159 44.3469C41.9672 44.5331 42.1941 44.6553 42.4967 44.7135L45.2719 45.2196V47H33.9963V45.2196L36.789 44.7135C37.0916 44.6553 37.3185 44.5331 37.4697 44.3469C37.621 44.1607 37.6967 43.9164 37.6967 43.6138V23.192C37.6967 22.9011 37.6152 22.6625 37.4523 22.4764C37.301 22.2785 37.0799 22.1505 36.789 22.0924L33.9963 21.5513V19.736H45.2719Z" fill="black"/>
</svg>
