<svg width="566" height="292" viewBox="0 0 566 292" fill="none" xmlns="http://www.w3.org/2000/svg">
<path d="M394.507 259.027L97.5977 259.494L97.5286 215.551L394.438 215.085L394.507 259.027Z" fill="#455A64"/>
<path d="M82.0725 183.181C82.0725 183.181 89.4977 184.012 90.8167 183.181C93.8029 181.26 158.789 155.06 214.629 155C259.415 154.94 299.742 166.818 338.964 193.004C338.964 193.004 386.729 198.266 405.382 212.246C409.741 214.777 418.639 224.754 415.245 247.411C413.082 261.86 402.323 262.469 387.626 262.141C387.626 262.141 393.096 218.252 353.981 221.607C320.745 224.452 327.106 265.027 327.106 265.027L160.57 265.288C160.57 265.288 159.84 247.264 159.13 242.898C157.718 234.154 146.851 219.826 126.564 221.955C104.308 224.292 96.9029 244.599 98.329 261.739C98.329 261.739 74.8481 266.814 71.6744 247.926L66.0703 246.186C66.0703 246.186 63.9144 207.004 83.4785 190.533L79.2805 187.741L82.0725 183.181Z" fill="#92E3A9"/>
<path d="M93.1466 181.929C93.1466 181.929 94.5325 185.705 99.3064 185.277C103.196 184.936 125.419 176.513 133.52 173.406C134.677 172.982 135.718 172.293 136.559 171.392C137.4 170.492 138.017 169.407 138.361 168.224C138.53 167.726 138.567 167.193 138.468 166.677C138.468 166.677 103.92 174.979 93.1466 181.929Z" fill="#455A64"/>
<path d="M283.906 165.519C283.913 167.107 284.367 168.662 285.218 170.004C286.068 171.346 287.28 172.421 288.714 173.105L336.251 195.755L338.97 192.83C338.97 192.83 334.002 189.254 327.507 185.391C321.481 181.822 314.116 178.026 309.717 175.883C301.374 171.813 292.748 168.349 283.906 165.519Z" fill="#455A64"/>
<g opacity="0.3">
<path opacity="0.3" d="M126.081 185.284C125.76 185.558 125.503 185.899 125.326 186.283C125.149 186.667 125.058 187.084 125.058 187.507C125.058 187.929 125.149 188.346 125.326 188.73C125.503 189.114 125.76 189.455 126.081 189.729C128.438 192.133 139.666 200.482 144.882 200.991C150.098 201.5 308.492 212.072 317.866 209.387C327.239 206.702 332.73 201.949 330.373 199.217L326.121 197.811L251.454 199.337L126.081 185.284Z" fill="white"/>
</g>
<g opacity="0.7">
<path opacity="0.7" d="M68.4673 218.962C68.4673 218.962 77.6869 221.694 81.6238 214.422C85.5607 207.151 89.8994 199.465 89.8994 197.804C89.8994 195.722 88.4063 189.027 83.4785 190.386C83.4785 190.386 69.7729 201.306 68.4673 218.962Z" fill="white"/>
</g>
<g opacity="0.7">
<path opacity="0.7" d="M409.441 226.421C409.441 226.421 373.74 212.139 379.519 207.272C382.565 204.701 411.918 218.841 409.441 226.421Z" fill="white"/>
</g>
<path d="M394.864 262.014C394.864 262.014 394.864 261.893 394.864 261.659C394.864 261.425 394.904 261.07 394.911 260.601C394.911 259.677 394.951 258.318 394.911 256.584C394.713 251.619 393.949 246.693 392.635 241.901C391.724 238.582 390.451 235.373 388.838 232.333C386.999 228.83 384.551 225.683 381.607 223.04L380.422 222.002L379.143 221.058C378.268 220.422 377.361 219.832 376.425 219.29C375.963 219.002 375.454 218.788 374.965 218.534C374.477 218.279 373.988 218.018 373.466 217.81L371.905 217.194L371.115 216.886L370.305 216.639C369.207 216.282 368.089 215.99 366.958 215.762L365.257 215.407C364.681 215.32 364.099 215.259 363.523 215.179C362.947 215.099 362.358 215.025 361.769 214.965L360.001 214.878C358.81 214.781 357.613 214.754 356.419 214.797C351.725 214.786 347.071 215.649 342.693 217.342C338.627 218.96 334.969 221.457 331.981 224.653C329.317 227.572 327.142 230.903 325.539 234.516C324.136 237.65 323.052 240.918 322.306 244.271C321.232 249.109 320.666 254.046 320.618 259.001C320.618 260.762 320.665 262.128 320.719 263.052C320.719 263.507 320.779 263.862 320.806 264.096C320.833 264.33 320.859 264.451 320.859 264.451C320.859 264.451 320.859 264.33 320.859 264.096C320.859 263.862 320.859 263.494 320.812 263.045C320.772 262.121 320.746 260.762 320.812 259.028C320.903 254.069 321.502 249.133 322.6 244.298C323.36 240.968 324.45 237.723 325.854 234.609C327.453 231.031 329.619 227.735 332.268 224.847C335.236 221.687 338.867 219.224 342.901 217.636C347.24 215.96 351.854 215.107 356.506 215.119C361.153 214.999 365.79 215.614 370.245 216.94L371.055 217.181L371.832 217.489L373.378 218.092C373.894 218.299 374.369 218.574 374.858 218.808C375.347 219.042 375.849 219.27 376.304 219.558C377.227 220.088 378.121 220.667 378.983 221.292L380.255 222.229L381.426 223.254C384.348 225.868 386.783 228.981 388.617 232.447C390.24 235.452 391.526 238.627 392.454 241.914C393.788 246.685 394.588 251.589 394.837 256.537C394.924 258.291 394.938 259.65 394.931 260.554V261.605C394.864 261.893 394.864 262.014 394.864 262.014Z" fill="#263238"/>
<path d="M166.18 265.134C166.18 265.134 166.18 265.013 166.227 264.779C166.274 264.545 166.274 264.203 166.301 263.748C166.361 262.837 166.415 261.485 166.401 259.731C166.381 254.824 165.84 249.934 164.788 245.141C164.065 241.828 163.01 238.595 161.641 235.493C160.065 231.921 157.909 228.634 155.26 225.765C152.309 222.6 148.685 220.141 144.654 218.567C140.314 216.912 135.708 216.061 131.063 216.056C126.436 215.871 121.81 216.411 117.35 217.656C117.083 217.737 116.808 217.797 116.547 217.884L115.764 218.172L114.204 218.754C113.186 219.156 112.195 219.678 111.244 220.134C110.327 220.696 109.383 221.205 108.519 221.814L107.254 222.745C107.046 222.899 106.825 223.046 106.631 223.214L106.048 223.729C103.104 226.298 100.645 229.375 98.7906 232.815C97.1921 235.809 95.9474 238.98 95.0813 242.262C93.8192 247.005 93.1446 251.884 93.0727 256.791C93.0392 258.525 93.0727 259.878 93.1463 260.809C93.1463 261.264 93.1999 261.612 93.2266 261.846C93.2534 262.081 93.2802 262.194 93.2802 262.194C93.2921 262.077 93.2921 261.958 93.2802 261.84C93.2802 261.592 93.2802 261.25 93.2266 260.802C93.2266 259.891 93.1664 258.545 93.2266 256.818C93.3496 251.927 94.0531 247.068 95.3223 242.342C96.2057 239.087 97.4569 235.942 99.0517 232.969C100.907 229.566 103.358 226.525 106.289 223.99L106.865 223.481C107.066 223.321 107.28 223.18 107.481 223.019L108.74 222.102C109.59 221.506 110.528 221.004 111.418 220.448C112.389 220 113.34 219.484 114.351 219.109L115.891 218.54L116.667 218.259C116.929 218.165 117.203 218.105 117.471 218.031C121.889 216.785 126.475 216.239 131.063 216.411C135.658 216.421 140.213 217.265 144.507 218.902C148.501 220.449 152.096 222.875 155.026 225.999C157.658 228.838 159.804 232.091 161.38 235.627C162.744 238.712 163.803 241.923 164.54 245.215C165.603 249.989 166.177 254.86 166.254 259.751C166.287 261.485 166.254 262.831 166.22 263.768C166.22 264.217 166.22 264.558 166.174 264.806C166.127 265.053 166.18 265.134 166.18 265.134Z" fill="#263238"/>
<path d="M127.648 185.277C127.648 185.277 141.494 197.329 147.494 197.329C153.493 197.329 311.606 206.917 318.643 204.071C322.35 202.646 325.933 200.918 329.355 198.902C329.355 198.902 277.76 161.743 217.635 163.524C173.499 164.829 127.648 185.277 127.648 185.277Z" fill="#455A64"/>
<path d="M297.417 181.159L307.862 204.593L313.165 204.587L304.535 184.527L297.417 181.159Z" fill="#263238"/>
<g opacity="0.3">
<path opacity="0.3" d="M165.61 215.442L184.358 215.413L184.352 211.67C184.351 211.444 184.261 211.228 184.102 211.069C183.942 210.91 183.726 210.821 183.5 210.821L166.453 210.848C166.228 210.848 166.012 210.938 165.853 211.098C165.693 211.257 165.604 211.474 165.604 211.699L165.61 215.409L165.61 215.442Z" fill="#252525"/>
</g>
<g opacity="0.3">
<path opacity="0.3" d="M238.679 215.33L257.426 215.3L257.42 211.591C257.42 211.365 257.33 211.149 257.17 210.99C257.01 210.831 256.794 210.742 256.568 210.742L239.515 210.769C239.29 210.769 239.073 210.859 238.914 211.019C238.755 211.178 238.666 211.395 238.666 211.62L238.672 215.33L238.679 215.33Z" fill="#252525"/>
</g>
<path d="M173.781 169.965L157.411 197.784L172.663 198.601L170.695 185.217L180.711 168.358L173.781 169.965Z" fill="#263238"/>
<path d="M233.463 163.918L236.014 201.922L230.45 201.647L228.046 163.577L233.463 163.918Z" fill="#263238"/>
<path d="M304.718 210.338L302.341 207.881L306.124 203.067L309.378 206.18C309.862 206.593 310.163 207.18 310.215 207.814C310.67 210.807 306.82 212.507 304.718 210.338Z" fill="#263238"/>
<path d="M295.102 209.434C289.324 209.628 284.777 203.736 287.181 198.474C287.43 197.833 287.84 197.266 288.371 196.829C288.903 196.392 289.537 196.098 290.214 195.976C296.24 194.925 304.04 194.537 306.143 203.067C306.759 205.591 305.346 207.151 303.036 208.095C300.84 208.992 297.874 209.334 295.102 209.434Z" fill="#92E3A9"/>
<path d="M331.868 254.933C330.857 240.335 341.871 227.683 356.469 226.672C371.066 225.662 383.718 236.676 384.729 251.273C385.739 265.87 374.725 278.523 360.128 279.534C345.531 280.544 332.878 269.53 331.868 254.933Z" fill="#263238"/>
<path d="M358.274 235.446C361.765 235.437 365.18 236.463 368.088 238.396C370.996 240.328 373.266 243.079 374.61 246.301C375.954 249.523 376.312 253.072 375.639 256.498C374.966 259.923 373.292 263.073 370.829 265.547C368.366 268.021 365.224 269.709 361.801 270.398C358.379 271.087 354.829 270.745 351.601 269.415C348.372 268.086 345.611 265.829 343.665 262.93C341.72 260.031 340.678 256.62 340.671 253.129C340.666 250.812 341.117 248.517 341.999 246.374C342.881 244.232 344.176 242.284 345.81 240.642C347.445 239 349.387 237.696 351.525 236.805C353.664 235.913 355.957 235.451 358.274 235.446ZM372.435 253.082C372.431 250.287 371.598 247.555 370.041 245.233C368.485 242.911 366.275 241.102 363.691 240.036C361.107 238.97 358.264 238.694 355.523 239.244C352.782 239.793 350.266 241.143 348.292 243.122C346.318 245.102 344.976 247.622 344.434 250.364C343.893 253.107 344.177 255.948 345.25 258.53C346.323 261.111 348.138 263.316 350.465 264.865C352.791 266.415 355.525 267.24 358.321 267.236C362.067 267.224 365.656 265.727 368.301 263.074C370.947 260.422 372.433 256.829 372.435 253.082Z" fill="#E0E0E0"/>
<path d="M358.28 238.941C361.078 238.935 363.815 239.758 366.146 241.307C368.476 242.856 370.294 245.061 371.371 247.644C372.448 250.226 372.735 253.07 372.196 255.816C371.656 258.562 370.315 261.086 368.341 263.069C366.367 265.052 363.849 266.405 361.106 266.958C358.363 267.51 355.518 267.237 352.93 266.172C350.343 265.107 348.129 263.299 346.569 260.976C345.009 258.654 344.173 255.92 344.166 253.122C344.161 249.371 345.644 245.771 348.29 243.112C350.936 240.454 354.529 238.954 358.28 238.941Z" fill="#F5F5F5"/>
<path d="M362.479 253.142C362.48 253.969 362.236 254.777 361.778 255.464C361.32 256.152 360.668 256.689 359.906 257.006C359.143 257.324 358.303 257.408 357.492 257.248C356.681 257.088 355.936 256.691 355.351 256.108C354.766 255.525 354.367 254.781 354.204 253.971C354.042 253.16 354.123 252.32 354.438 251.556C354.753 250.792 355.288 250.139 355.974 249.679C356.66 249.219 357.468 248.972 358.294 248.971C358.843 248.97 359.386 249.077 359.893 249.286C360.4 249.496 360.861 249.803 361.25 250.19C361.639 250.577 361.947 251.037 362.158 251.544C362.369 252.05 362.478 252.594 362.479 253.142Z" fill="#263238"/>
<path d="M111.608 272.776C101.262 262.429 101.262 245.654 111.608 235.308C121.955 224.961 138.73 224.961 149.077 235.308C159.423 245.654 159.423 262.429 149.077 272.776C138.73 283.122 121.955 283.122 111.608 272.776Z" fill="#263238"/>
<path d="M130.32 236.39C133.811 236.381 137.226 237.407 140.133 239.339C143.041 241.271 145.311 244.022 146.655 247.244C147.999 250.465 148.358 254.013 147.685 257.439C147.013 260.865 145.339 264.014 142.877 266.488C140.415 268.963 137.274 270.652 133.851 271.341C130.429 272.03 126.879 271.689 123.651 270.361C120.423 269.033 117.661 266.777 115.714 263.879C113.768 260.981 112.725 257.571 112.717 254.08C112.707 249.4 114.555 244.908 117.856 241.59C121.157 238.273 125.64 236.403 130.32 236.39ZM144.454 254.033C144.451 251.235 143.618 248.5 142.06 246.176C140.502 243.852 138.289 242.043 135.702 240.977C133.115 239.912 130.27 239.638 127.527 240.191C124.784 240.744 122.267 242.098 120.294 244.083C118.322 246.067 116.983 248.593 116.447 251.339C115.911 254.085 116.202 256.929 117.284 259.509C118.365 262.09 120.188 264.291 122.522 265.835C124.856 267.379 127.595 268.195 130.393 268.18C134.13 268.155 137.705 266.654 140.339 264.004C142.973 261.354 144.452 257.769 144.454 254.033Z" fill="#E0E0E0"/>
<path d="M130.326 239.892C133.124 239.884 135.862 240.706 138.193 242.254C140.524 243.803 142.344 246.007 143.422 248.59C144.5 251.172 144.788 254.016 144.249 256.762C143.71 259.509 142.37 262.033 140.396 264.017C138.422 266.001 135.905 267.355 133.162 267.908C130.418 268.461 127.573 268.188 124.985 267.123C122.397 266.059 120.182 264.251 118.622 261.928C117.062 259.605 116.225 256.871 116.219 254.073C116.212 250.322 117.693 246.722 120.338 244.064C122.983 241.405 126.576 239.904 130.326 239.892Z" fill="#F5F5F5"/>
<path d="M134.525 254.12C134.527 254.946 134.283 255.755 133.825 256.443C133.366 257.131 132.714 257.667 131.951 257.985C131.188 258.302 130.347 258.386 129.536 258.225C128.726 258.065 127.98 257.667 127.396 257.083C126.811 256.499 126.412 255.755 126.25 254.944C126.088 254.134 126.171 253.293 126.487 252.529C126.803 251.765 127.338 251.113 128.026 250.653C128.713 250.194 129.521 249.949 130.347 249.949C131.454 249.949 132.516 250.388 133.299 251.17C134.083 251.952 134.524 253.013 134.525 254.12Z" fill="#263238"/>
<path d="M117.8 204.265C117.811 205.08 118.063 205.873 118.524 206.544C118.986 207.216 119.636 207.735 120.393 208.037C121.15 208.338 121.979 208.409 122.776 208.239C123.573 208.069 124.301 207.667 124.869 207.083C125.437 206.499 125.819 205.759 125.967 204.958C126.115 204.157 126.021 203.33 125.699 202.582C125.377 201.834 124.839 201.198 124.156 200.755C123.472 200.312 122.672 200.082 121.858 200.094C120.767 200.11 119.727 200.558 118.966 201.34C118.205 202.122 117.786 203.174 117.8 204.265Z" fill="#263238"/>
<path d="M166.281 255.794H166.676H167.848L172.347 255.881L188.885 256.149L243.46 256.818C264.778 257.039 284.081 257.18 298.048 257.2C305.031 257.2 310.689 257.2 314.592 257.133C318.496 257.066 320.672 256.979 320.618 256.852C320.105 256.934 319.585 256.968 319.065 256.952C318.04 256.952 316.521 256.992 314.572 256.999C310.669 256.999 305.011 256.999 298.028 256.959L243.446 256.463L188.872 255.887L172.327 255.733H167.828H166.656L166.281 255.794Z" fill="#263238"/>
<path d="M233.831 265.007C233.931 265.007 233.831 250.946 233.557 233.632C233.282 216.317 233.021 202.25 232.927 202.257C232.833 202.264 232.927 216.317 233.208 233.632C233.49 250.946 233.737 265.007 233.831 265.007Z" fill="#263238"/>
<path d="M197.093 174.611C197.033 174.685 201.352 178.628 206.742 183.422C212.131 188.216 216.55 192.04 216.617 191.966C216.684 191.892 212.359 187.949 206.969 183.161C201.579 178.374 197.16 174.544 197.093 174.611Z" fill="#F5F5F5"/>
<path d="M199.216 182.204C199.422 182.443 199.646 182.667 199.885 182.873C200.327 183.295 200.977 183.891 201.794 184.614C203.421 186.074 205.697 188.042 208.268 190.158C210.839 192.274 213.216 194.135 214.964 195.454C215.834 196.124 216.544 196.633 217.039 196.987C217.288 197.186 217.555 197.361 217.836 197.51C217.619 197.279 217.381 197.068 217.126 196.88L215.118 195.26C213.417 193.921 211.1 192.006 208.496 189.904C205.891 187.801 203.628 185.846 201.961 184.44L199.952 182.786C199.728 182.566 199.482 182.371 199.216 182.204Z" fill="#F5F5F5"/>
<path d="M253.691 175.448C253.637 175.528 259.938 179.921 267.751 185.264C275.565 190.607 281.966 194.872 282.019 194.791C282.073 194.711 275.779 190.319 267.959 184.976C260.138 179.633 253.744 175.368 253.691 175.448Z" fill="#F5F5F5"/>
<path d="M247.825 175.18C248.075 175.427 248.346 175.651 248.635 175.85L250.912 177.604L258.431 183.376L265.883 189.234L268.139 191.015C268.406 191.246 268.693 191.452 268.996 191.631C268.76 191.369 268.502 191.127 268.226 190.908C267.717 190.459 266.967 189.823 266.037 189.04C264.175 187.487 261.571 185.371 258.672 183.101C255.773 180.831 253.054 178.823 251.086 177.403C250.102 176.693 249.298 176.131 248.736 175.749C248.45 175.532 248.145 175.342 247.825 175.18Z" fill="#F5F5F5"/>
<path d="M342.358 194.443C342.419 194.466 342.482 194.479 342.546 194.483L343.081 194.564L345.157 194.845C346.958 195.093 349.563 195.461 352.763 196.01C361.111 197.442 369.359 199.408 377.456 201.895C382.196 203.355 386.649 204.928 390.653 206.488C394.22 207.805 397.696 209.357 401.057 211.135C403.314 212.348 405.407 213.844 407.284 215.587C407.626 215.889 407.9 216.183 408.141 216.431C408.382 216.679 408.59 216.9 408.744 217.101L409.112 217.502C409.151 217.55 409.194 217.595 409.239 217.636C409.239 217.636 409.239 217.576 409.139 217.482L408.797 217.054C408.65 216.866 408.463 216.639 408.222 216.384C407.981 216.13 407.713 215.822 407.378 215.507C405.524 213.716 403.439 212.18 401.178 210.941C397.821 209.126 394.342 207.546 390.767 206.214C386.749 204.634 382.303 203.04 377.556 201.587C369.452 199.091 361.186 197.154 352.817 195.789C349.603 195.273 346.992 194.939 345.184 194.731L343.102 194.517L342.559 194.47C342.494 194.449 342.426 194.44 342.358 194.443Z" fill="#F5F5F5"/>
<path d="M175.601 159.573H175.876L176.686 159.439L179.779 158.904C182.458 158.448 186.368 157.832 191.209 157.25C203.819 155.683 216.552 155.36 229.225 156.286C244.069 157.451 257.273 160.41 266.72 162.727C271.454 163.905 275.263 164.929 277.895 165.653L280.928 166.476L281.718 166.684C281.807 166.713 281.899 166.734 281.992 166.744C281.906 166.703 281.817 166.672 281.724 166.65L280.948 166.409L277.935 165.519C275.31 164.755 271.507 163.691 266.78 162.486C257.326 160.109 244.116 157.129 229.239 155.937C216.545 155.005 203.79 155.361 191.168 157.002C186.321 157.618 182.424 158.274 179.739 158.77C178.4 159.011 177.362 159.232 176.659 159.366L175.856 159.533C175.77 159.537 175.685 159.551 175.601 159.573Z" fill="#F5F5F5"/>
<path d="M287.997 197.878C288.292 197.874 288.585 197.845 288.874 197.791C289.43 197.724 290.213 197.623 291.238 197.577C293.846 197.421 296.461 197.699 298.978 198.4C300.349 198.801 301.637 199.445 302.781 200.302C303.705 201.01 304.479 201.895 305.057 202.906C305.577 203.852 305.913 204.888 306.048 205.959C306.048 205.959 306.048 205.879 306.048 205.732C306.052 205.508 306.039 205.284 306.008 205.062C305.892 204.261 305.639 203.486 305.258 202.772C304.69 201.71 303.908 200.778 302.962 200.034C301.796 199.128 300.473 198.447 299.058 198.025C296.505 197.311 293.845 197.062 291.204 197.289C290.406 197.35 289.612 197.459 288.827 197.617C288.542 197.674 288.264 197.761 287.997 197.878Z" fill="#F5F5F5"/>
<path d="M238.913 206.964C238.913 207.064 248.648 207.72 260.667 208.437C272.685 209.153 282.434 209.655 282.44 209.561C282.447 209.468 272.712 208.805 260.687 208.088C248.662 207.372 238.92 206.87 238.913 206.964Z" fill="#F5F5F5"/>
<path d="M348.451 215.052C348.509 215.058 348.567 215.058 348.625 215.052L349.114 214.945C349.542 214.864 350.158 214.67 350.982 214.543C353.29 214.114 355.631 213.89 357.978 213.873C361.457 213.809 364.932 214.155 368.33 214.905C372.506 215.757 376.49 217.373 380.08 219.672C383.601 222.074 386.636 225.12 389.025 228.65C390.983 231.527 392.516 234.67 393.578 237.984C394.296 240.218 394.783 242.52 395.031 244.853C395.158 245.677 395.152 246.326 395.198 246.762L395.239 247.257C395.232 247.315 395.232 247.373 395.239 247.431C395.249 247.373 395.249 247.315 395.239 247.257V246.762C395.239 246.32 395.239 245.67 395.138 244.84C394.942 242.489 394.493 240.165 393.799 237.91C392.761 234.56 391.239 231.379 389.28 228.47C386.892 224.864 383.832 221.752 380.268 219.303C376.647 216.979 372.623 215.353 368.403 214.509C364.977 213.773 361.475 213.45 357.972 213.545C355.613 213.594 353.263 213.866 350.955 214.355C350.131 214.503 349.522 214.724 349.094 214.824L348.611 214.965L348.451 215.052Z" fill="#F5F5F5"/>
<path d="M379.266 262.888H345.926V268.942H379.266V262.888Z" fill="#92E3A9"/>
<path d="M349.191 268.984C349.007 266.987 349.007 264.976 349.191 262.979C349.375 264.976 349.375 266.987 349.191 268.984Z" fill="#263238"/>
<path d="M347.382 268.984C347.198 266.987 347.198 264.976 347.382 262.979C347.567 264.976 347.567 266.987 347.382 268.984Z" fill="#263238"/>
<path d="M353.197 268.984C353.012 266.987 353.012 264.976 353.197 262.979C353.381 264.976 353.381 266.987 353.197 268.984Z" fill="#263238"/>
<path d="M351.378 268.984C351.187 266.987 351.187 264.976 351.378 262.979C351.562 264.976 351.562 266.987 351.378 268.984Z" fill="#263238"/>
<path d="M357.206 268.984C357.015 266.987 357.015 264.976 357.206 262.979C357.391 264.976 357.391 266.987 357.206 268.984Z" fill="#263238"/>
<path d="M355.363 268.984C355.179 266.987 355.179 264.976 355.363 262.979C355.547 264.976 355.547 266.987 355.363 268.984Z" fill="#263238"/>
<path d="M361.213 268.984C361.028 266.987 361.028 264.976 361.213 262.979C361.397 264.976 361.397 266.987 361.213 268.984Z" fill="#263238"/>
<path d="M359.388 268.984C359.204 266.987 359.204 264.976 359.388 262.979C359.573 264.976 359.573 266.987 359.388 268.984Z" fill="#263238"/>
<path d="M365.216 268.984C365.032 266.987 365.032 264.976 365.216 262.979C365.401 264.976 365.401 266.987 365.216 268.984Z" fill="#263238"/>
<path d="M363.394 268.984C363.21 266.987 363.21 264.976 363.394 262.979C363.579 264.976 363.579 266.987 363.394 268.984Z" fill="#263238"/>
<path d="M369.223 268.984C369.039 266.987 369.039 264.976 369.223 262.979C369.408 264.976 369.408 266.987 369.223 268.984Z" fill="#263238"/>
<path d="M367.4 268.984C367.216 266.987 367.216 264.976 367.4 262.979C367.584 264.976 367.584 266.987 367.4 268.984Z" fill="#263238"/>
<path d="M373.229 268.984C373.045 266.987 373.045 264.976 373.229 262.979C373.414 264.976 373.414 266.987 373.229 268.984Z" fill="#263238"/>
<path d="M371.404 268.984C371.22 266.987 371.22 264.976 371.404 262.979C371.588 264.976 371.588 266.987 371.404 268.984Z" fill="#263238"/>
<path d="M377.233 268.984C377.049 266.987 377.049 264.976 377.233 262.979C377.417 264.976 377.417 266.987 377.233 268.984Z" fill="#263238"/>
<path d="M375.411 268.984C375.226 266.987 375.226 264.976 375.411 262.979C375.602 264.976 375.602 266.987 375.411 268.984Z" fill="#263238"/>
<path d="M379.266 262.888C379.266 262.963 371.75 263.027 362.479 263.027C353.207 263.027 345.691 262.963 345.691 262.888C345.691 262.814 353.207 262.75 362.479 262.75C371.75 262.75 379.266 262.809 379.266 262.888Z" fill="#263238"/>
<path d="M376.654 268.894H343.313V274.947H376.654V268.894Z" fill="#92E3A9"/>
<path d="M346.579 274.989C346.394 272.992 346.394 270.982 346.579 268.984C346.763 270.982 346.763 272.992 346.579 274.989Z" fill="#263238"/>
<path d="M344.755 274.989C344.571 272.992 344.571 270.982 344.755 268.984C344.94 270.982 344.94 272.992 344.755 274.989Z" fill="#263238"/>
<path d="M350.574 274.989C350.389 272.992 350.389 270.982 350.574 268.984C350.758 270.982 350.758 272.992 350.574 274.989Z" fill="#263238"/>
<path d="M348.762 274.989C348.578 272.992 348.578 270.982 348.762 268.984C348.947 270.982 348.947 272.992 348.762 274.989Z" fill="#263238"/>
<path d="M354.59 274.989C354.406 272.992 354.406 270.982 354.59 268.984C354.775 270.982 354.775 272.992 354.59 274.989Z" fill="#263238"/>
<path d="M352.766 274.989C352.582 272.992 352.582 270.982 352.766 268.984C352.951 270.982 352.951 272.992 352.766 274.989Z" fill="#263238"/>
<path d="M358.595 274.989C358.411 272.992 358.411 270.982 358.595 268.984C358.78 270.982 358.78 272.992 358.595 274.989Z" fill="#263238"/>
<path d="M356.77 274.989C356.586 272.992 356.586 270.982 356.77 268.984C356.962 270.981 356.962 272.992 356.77 274.989Z" fill="#263238"/>
<path d="M362.606 274.989C362.415 272.992 362.415 270.981 362.606 268.984C362.791 270.982 362.791 272.992 362.606 274.989Z" fill="#263238"/>
<path d="M360.782 274.989C360.597 272.992 360.597 270.982 360.782 268.984C360.966 270.982 360.966 272.992 360.782 274.989Z" fill="#263238"/>
<path d="M366.611 274.989C366.427 272.992 366.427 270.982 366.611 268.984C366.795 270.982 366.795 272.992 366.611 274.989Z" fill="#263238"/>
<path d="M364.788 274.989C364.603 272.992 364.603 270.982 364.788 268.984C364.972 270.982 364.972 272.992 364.788 274.989Z" fill="#263238"/>
<path d="M370.617 274.989C370.432 272.992 370.432 270.982 370.617 268.984C370.801 270.982 370.801 272.992 370.617 274.989Z" fill="#263238"/>
<path d="M368.794 274.989C368.609 272.992 368.609 270.982 368.794 268.984C368.978 270.982 368.978 272.992 368.794 274.989Z" fill="#263238"/>
<path d="M374.623 274.989C374.438 272.992 374.438 270.982 374.623 268.984C374.807 270.982 374.807 272.992 374.623 274.989Z" fill="#263238"/>
<path d="M372.797 274.989C372.612 272.992 372.612 270.982 372.797 268.984C372.981 270.982 372.981 272.992 372.797 274.989Z" fill="#263238"/>
<path d="M376.637 268.894C376.637 268.968 369.137 269.032 359.887 269.032C350.637 269.032 343.143 268.968 343.143 268.894C343.143 268.819 350.637 268.755 359.887 268.755C369.137 268.755 376.637 268.819 376.637 268.894Z" fill="#263238"/>
<path d="M374.511 274.99H341.171V281.043H374.511V274.99Z" fill="#92E3A9"/>
<path d="M344.436 281.085C344.252 279.088 344.252 277.077 344.436 275.08C344.621 277.077 344.621 279.088 344.436 281.085Z" fill="#263238"/>
<path d="M342.597 281.085C342.413 279.088 342.413 277.077 342.597 275.08C342.782 277.077 342.782 279.088 342.597 281.085Z" fill="#263238"/>
<path d="M348.446 281.085C348.262 279.088 348.262 277.077 348.446 275.08C348.63 277.077 348.63 279.088 348.446 281.085Z" fill="#263238"/>
<path d="M346.618 281.085C346.433 279.088 346.433 277.077 346.618 275.08C346.809 277.077 346.809 279.088 346.618 281.085Z" fill="#263238"/>
<path d="M352.448 281.085C352.263 279.088 352.263 277.077 352.448 275.08C352.639 277.077 352.639 279.088 352.448 281.085Z" fill="#263238"/>
<path d="M350.629 281.085C350.444 279.088 350.444 277.077 350.629 275.08C350.813 277.077 350.813 279.088 350.629 281.085Z" fill="#263238"/>
<path d="M356.458 281.085C356.273 279.088 356.273 277.077 356.458 275.08C356.642 277.077 356.642 279.088 356.458 281.085Z" fill="#263238"/>
<path d="M354.633 281.085C354.449 279.088 354.449 277.077 354.633 275.08C354.818 277.077 354.818 279.088 354.633 281.085Z" fill="#263238"/>
<path d="M360.462 281.085C360.277 279.088 360.277 277.077 360.462 275.08C360.646 277.077 360.646 279.088 360.462 281.085Z" fill="#263238"/>
<path d="M358.637 281.085C358.453 279.088 358.453 277.077 358.637 275.08C358.822 277.077 358.822 279.088 358.637 281.085Z" fill="#263238"/>
<path d="M364.468 281.085C364.284 279.088 364.284 277.077 364.468 275.08C364.653 277.077 364.653 279.088 364.468 281.085Z" fill="#263238"/>
<path d="M362.643 281.085C362.459 279.088 362.459 277.077 362.643 275.08C362.828 277.077 362.828 279.088 362.643 281.085Z" fill="#263238"/>
<path d="M368.474 281.085C368.29 279.088 368.29 277.077 368.474 275.08C368.659 277.077 368.659 279.088 368.474 281.085Z" fill="#263238"/>
<path d="M366.648 281.085C366.464 279.088 366.464 277.077 366.648 275.08C366.832 277.077 366.832 279.088 366.648 281.085Z" fill="#263238"/>
<path d="M372.48 281.085C372.296 279.088 372.296 277.077 372.48 275.08C372.664 277.077 372.664 279.088 372.48 281.085Z" fill="#263238"/>
<path d="M370.654 281.085C370.47 279.088 370.47 277.077 370.654 275.08C370.838 277.077 370.838 279.088 370.654 281.085Z" fill="#263238"/>
<path d="M374.511 274.989C374.511 275.069 367.011 275.128 357.766 275.128C348.521 275.128 341 275.069 341 274.989C341 274.91 348.495 274.851 357.75 274.851C367.005 274.851 374.511 274.904 374.511 274.989Z" fill="#263238"/>
<g opacity="0.3">
<path opacity="0.3" d="M347.842 268.952C352.897 270.109 358.098 270.488 363.267 270.075C368.379 269.734 373.549 268.984 378.693 269.043L347.842 268.952Z" fill="#252525"/>
</g>
<g opacity="0.3">
<path opacity="0.3" d="M341.58 275.069C346.635 276.225 351.837 276.602 357.006 276.186C362.123 275.846 367.288 275.096 372.431 275.16L341.58 275.069Z" fill="#252525"/>
</g>
<path d="M347.078 263.25C347.078 263.325 346.892 263.388 346.663 263.388C346.435 263.388 346.243 263.325 346.243 263.25C346.243 263.176 346.429 263.107 346.663 263.107C346.897 263.107 347.078 263.17 347.078 263.25Z" fill="white"/>
<path d="M351.712 263.266C351.083 263.402 350.438 263.449 349.797 263.404C349.155 263.449 348.51 263.402 347.882 263.266C348.51 263.127 349.155 263.08 349.797 263.128C350.438 263.08 351.083 263.127 351.712 263.266Z" fill="white"/>
<path d="M357.001 263.266C356.373 263.402 355.728 263.449 355.086 263.404C354.446 263.448 353.804 263.402 353.177 263.266C353.803 263.127 354.446 263.08 355.086 263.128C355.728 263.08 356.373 263.127 357.001 263.266Z" fill="white"/>
<path d="M564.633 248.282H528.766V254.798H564.633V248.282Z" fill="#92E3A9"/>
<path d="M532.281 254.84C532.082 252.693 532.082 250.531 532.281 248.383C532.479 250.531 532.479 252.693 532.281 254.84Z" fill="#263238"/>
<path d="M530.32 254.84C530.121 252.693 530.121 250.531 530.32 248.383C530.518 250.531 530.518 252.693 530.32 254.84Z" fill="#263238"/>
<path d="M536.589 254.84C536.391 252.693 536.391 250.531 536.589 248.383C536.788 250.531 536.788 252.693 536.589 254.84Z" fill="#263238"/>
<path d="M534.618 254.84C534.419 252.693 534.419 250.531 534.618 248.383C534.823 250.531 534.823 252.693 534.618 254.84Z" fill="#263238"/>
<path d="M540.905 254.84C540.7 252.693 540.7 250.531 540.905 248.383C541.104 250.531 541.104 252.693 540.905 254.84Z" fill="#263238"/>
<path d="M538.942 254.84C538.743 252.693 538.743 250.531 538.942 248.383C539.141 250.531 539.141 252.693 538.942 254.84Z" fill="#263238"/>
<path d="M545.213 254.84C545.015 252.693 545.015 250.531 545.213 248.383C545.412 250.531 545.412 252.693 545.213 254.84Z" fill="#263238"/>
<path d="M543.25 254.84C543.051 252.693 543.051 250.531 543.25 248.383C543.448 250.531 543.448 252.693 543.25 254.84Z" fill="#263238"/>
<path d="M549.511 254.84C549.313 252.693 549.313 250.531 549.511 248.383C549.71 250.531 549.71 252.693 549.511 254.84Z" fill="#263238"/>
<path d="M547.558 254.84C547.36 252.693 547.36 250.531 547.558 248.383C547.757 250.531 547.757 252.693 547.558 254.84Z" fill="#263238"/>
<path d="M553.831 254.84C553.632 252.693 553.632 250.531 553.831 248.383C554.029 250.531 554.029 252.693 553.831 254.84Z" fill="#263238"/>
<path d="M551.867 254.84C551.668 252.693 551.668 250.531 551.867 248.383C552.072 250.531 552.072 252.693 551.867 254.84Z" fill="#263238"/>
<path d="M558.144 254.84C557.945 252.693 557.945 250.531 558.144 248.383C558.343 250.531 558.343 252.693 558.144 254.84Z" fill="#263238"/>
<path d="M556.182 254.84C555.984 252.693 555.984 250.531 556.182 248.383C556.381 250.531 556.381 252.693 556.182 254.84Z" fill="#263238"/>
<path d="M562.453 254.84C562.254 252.693 562.254 250.531 562.453 248.383C562.651 250.531 562.651 252.693 562.453 254.84Z" fill="#263238"/>
<path d="M560.491 254.84C560.292 252.693 560.292 250.531 560.491 248.383C560.689 250.531 560.689 252.693 560.491 254.84Z" fill="#263238"/>
<path d="M564.638 248.309C564.638 248.394 556.569 248.458 546.617 248.458C536.664 248.458 528.601 248.394 528.601 248.309C528.601 248.223 536.664 248.16 546.617 248.16C556.569 248.16 564.638 248.202 564.638 248.309Z" fill="#263238"/>
<path d="M562.286 254.899H526.419V261.415H562.286V254.899Z" fill="#92E3A9"/>
<path d="M529.936 261.457C529.737 259.308 529.737 257.144 529.936 254.995C530.135 257.144 530.135 259.308 529.936 261.457Z" fill="#263238"/>
<path d="M527.973 261.457C527.775 259.308 527.775 257.144 527.973 254.995C528.172 257.144 528.172 259.308 527.973 261.457Z" fill="#263238"/>
<path d="M534.245 261.457C534.046 259.308 534.046 257.144 534.245 254.995C534.443 257.144 534.443 259.308 534.245 261.457Z" fill="#263238"/>
<path d="M532.281 261.457C532.082 259.308 532.082 257.144 532.281 254.995C532.48 257.144 532.48 259.308 532.281 261.457Z" fill="#263238"/>
<path d="M538.553 261.457C538.355 259.308 538.355 257.144 538.553 254.995C538.752 257.144 538.752 259.308 538.553 261.457Z" fill="#263238"/>
<path d="M536.589 261.457C536.391 259.308 536.391 257.144 536.589 254.995C536.788 257.144 536.788 259.308 536.589 261.457Z" fill="#263238"/>
<path d="M542.862 261.457C542.663 259.308 542.663 257.144 542.862 254.995C543.061 257.144 543.061 259.308 542.862 261.457Z" fill="#263238"/>
<path d="M540.905 261.457C540.7 259.308 540.7 257.144 540.905 254.995C541.104 257.144 541.104 259.308 540.905 261.457Z" fill="#263238"/>
<path d="M547.175 261.457C546.977 259.308 546.977 257.144 547.175 254.995C547.374 257.144 547.374 259.308 547.175 261.457Z" fill="#263238"/>
<path d="M545.213 261.457C545.015 259.308 545.015 257.144 545.213 254.995C545.412 257.144 545.412 259.308 545.213 261.457Z" fill="#263238"/>
<path d="M551.484 261.457C551.285 259.308 551.285 257.144 551.484 254.995C551.683 257.144 551.683 259.308 551.484 261.457Z" fill="#263238"/>
<path d="M549.511 261.457C549.313 259.308 549.313 257.144 549.511 254.995C549.71 257.144 549.71 259.308 549.511 261.457Z" fill="#263238"/>
<path d="M555.792 261.457C555.593 259.308 555.593 257.144 555.792 254.995C555.99 257.144 555.99 259.308 555.792 261.457Z" fill="#263238"/>
<path d="M553.831 261.457C553.632 259.308 553.632 257.144 553.831 254.995C554.029 257.144 554.029 259.308 553.831 261.457Z" fill="#263238"/>
<path d="M560.1 261.457C559.901 259.308 559.901 257.144 560.1 254.995C560.299 257.144 560.299 259.308 560.1 261.457Z" fill="#263238"/>
<path d="M558.144 261.457C557.945 259.308 557.945 257.144 558.144 254.995C558.343 257.144 558.343 259.308 558.144 261.457Z" fill="#263238"/>
<path d="M562.277 254.899C562.277 254.984 554.213 255.048 544.261 255.048C534.309 255.048 526.245 254.984 526.245 254.899C526.245 254.814 534.309 254.75 544.261 254.75C554.213 254.75 562.277 254.819 562.277 254.899Z" fill="#263238"/>
<path d="M565.219 261.458H529.352V267.973H565.219V261.458Z" fill="#92E3A9"/>
<path d="M532.867 268.016C532.668 265.866 532.668 263.703 532.867 261.553C533.066 263.703 533.066 265.866 532.867 268.016Z" fill="#263238"/>
<path d="M530.894 268.016C530.695 265.866 530.695 263.703 530.894 261.553C531.093 263.703 531.093 265.866 530.894 268.016Z" fill="#263238"/>
<path d="M537.176 268.016C536.978 265.866 536.978 263.703 537.176 261.553C537.375 263.703 537.375 265.866 537.176 268.016Z" fill="#263238"/>
<path d="M535.212 268.016C535.013 265.866 535.013 263.703 535.212 261.553C535.41 263.703 535.41 265.866 535.212 268.016Z" fill="#263238"/>
<path d="M541.485 268.016C541.286 265.866 541.286 263.703 541.485 261.553C541.684 263.703 541.684 265.866 541.485 268.016Z" fill="#263238"/>
<path d="M539.522 268.016C539.323 265.866 539.323 263.703 539.522 261.553C539.721 263.703 539.721 265.866 539.522 268.016Z" fill="#263238"/>
<path d="M545.787 268.016C545.588 265.866 545.588 263.703 545.787 261.553C545.992 263.703 545.992 265.867 545.787 268.016Z" fill="#263238"/>
<path d="M543.836 268.016C543.637 265.866 543.637 263.703 543.836 261.553C544.034 263.703 544.034 265.866 543.836 268.016Z" fill="#263238"/>
<path d="M550.105 268.016C549.906 265.866 549.906 263.703 550.105 261.553C550.304 263.703 550.304 265.866 550.105 268.016Z" fill="#263238"/>
<path d="M548.144 268.016C547.945 265.866 547.945 263.703 548.144 261.553C548.343 263.703 548.343 265.866 548.144 268.016Z" fill="#263238"/>
<path d="M554.414 268.016C554.215 265.866 554.215 263.703 554.414 261.553C554.612 263.703 554.612 265.866 554.414 268.016Z" fill="#263238"/>
<path d="M552.452 268.016C552.253 265.866 552.253 263.703 552.452 261.553C552.65 263.703 552.65 265.866 552.452 268.016Z" fill="#263238"/>
<path d="M558.722 268.016C558.524 265.866 558.524 263.703 558.722 261.553C558.921 263.703 558.921 265.866 558.722 268.016Z" fill="#263238"/>
<path d="M556.76 268.016C556.562 265.866 556.562 263.703 556.76 261.553C556.959 263.703 556.959 265.866 556.76 268.016Z" fill="#263238"/>
<path d="M563.031 268.016C562.832 265.866 562.832 263.703 563.031 261.553C563.237 263.703 563.237 265.867 563.031 268.016Z" fill="#263238"/>
<path d="M561.074 268.016C560.875 265.866 560.875 263.703 561.074 261.553C561.273 263.703 561.273 265.866 561.074 268.016Z" fill="#263238"/>
<path d="M565.219 261.458C565.219 261.543 557.134 261.606 547.16 261.606C537.187 261.606 529.075 261.543 529.075 261.458C529.075 261.372 537.16 261.309 547.16 261.309C557.16 261.309 565.219 261.378 565.219 261.458Z" fill="#263238"/>
<path d="M562.404 267.92H526.537V274.436H562.404V267.92Z" fill="#92E3A9"/>
<path d="M530.052 274.479C529.854 272.329 529.854 270.166 530.052 268.016C530.251 270.166 530.251 272.329 530.052 274.479Z" fill="#263238"/>
<path d="M528.09 274.479C527.892 272.329 527.892 270.166 528.09 268.016C528.289 270.166 528.289 272.329 528.09 274.479Z" fill="#263238"/>
<path d="M534.363 274.479C534.164 272.329 534.164 270.166 534.363 268.016C534.562 270.166 534.562 272.329 534.363 274.479Z" fill="#263238"/>
<path d="M532.399 274.479C532.2 272.329 532.2 270.166 532.399 268.016C532.605 270.165 532.605 272.329 532.399 274.479Z" fill="#263238"/>
<path d="M538.676 274.479C538.478 272.329 538.478 270.166 538.676 268.016C538.875 270.166 538.875 272.329 538.676 274.479Z" fill="#263238"/>
<path d="M536.713 274.479C536.514 272.329 536.514 270.166 536.713 268.016C536.911 270.166 536.911 272.329 536.713 274.479Z" fill="#263238"/>
<path d="M542.985 274.479C542.786 272.329 542.786 270.166 542.985 268.016C543.184 270.166 543.184 272.329 542.985 274.479Z" fill="#263238"/>
<path d="M541 274.479C540.801 272.329 540.801 270.166 541 268.016C541.198 270.166 541.198 272.329 541 274.479Z" fill="#263238"/>
<path d="M547.293 274.479C547.094 272.329 547.094 270.166 547.293 268.016C547.491 270.166 547.491 272.329 547.293 274.479Z" fill="#263238"/>
<path d="M545.332 274.479C545.133 272.329 545.133 270.166 545.332 268.016C545.53 270.166 545.53 272.329 545.332 274.479Z" fill="#263238"/>
<path d="M551.601 274.479C551.402 272.329 551.402 270.166 551.601 268.016C551.8 270.166 551.8 272.329 551.601 274.479Z" fill="#263238"/>
<path d="M549.644 274.479C549.439 272.329 549.439 270.165 549.644 268.016C549.843 270.166 549.843 272.329 549.644 274.479Z" fill="#263238"/>
<path d="M555.894 274.479C555.695 272.329 555.695 270.166 555.894 268.016C556.093 270.166 556.093 272.329 555.894 274.479Z" fill="#263238"/>
<path d="M553.952 274.479C553.753 272.329 553.753 270.166 553.952 268.016C554.15 270.166 554.15 272.329 553.952 274.479Z" fill="#263238"/>
<path d="M560.223 274.479C560.025 272.329 560.025 270.166 560.223 268.016C560.422 270.166 560.422 272.329 560.223 274.479Z" fill="#263238"/>
<path d="M558.26 274.479C558.062 272.329 558.062 270.166 558.26 268.016C558.459 270.166 558.459 272.329 558.26 274.479Z" fill="#263238"/>
<path d="M562.409 267.92C562.409 268.005 554.34 268.069 544.388 268.069C534.436 268.069 526.372 268.005 526.372 267.92C526.372 267.835 534.436 267.771 544.388 267.771C554.34 267.771 562.409 267.841 562.409 267.92Z" fill="#263238"/>
<path d="M565.999 274.527H530.132V281.043H565.999V274.527Z" fill="#92E3A9"/>
<path d="M533.649 281.085C533.45 278.936 533.45 276.772 533.649 274.622C533.848 276.772 533.848 278.936 533.649 281.085Z" fill="#263238"/>
<path d="M531.685 281.085C531.486 278.936 531.486 276.772 531.685 274.622C531.884 276.772 531.884 278.936 531.685 281.085Z" fill="#263238"/>
<path d="M537.958 281.085C537.759 278.936 537.759 276.772 537.958 274.622C538.156 276.772 538.156 278.936 537.958 281.085Z" fill="#263238"/>
<path d="M535.994 281.085C535.795 278.936 535.795 276.772 535.994 274.622C536.192 276.772 536.192 278.936 535.994 281.085Z" fill="#263238"/>
<path d="M542.267 281.085C542.068 278.936 542.068 276.772 542.267 274.622C542.466 276.772 542.466 278.936 542.267 281.085Z" fill="#263238"/>
<path d="M540.308 281.085C540.102 278.936 540.102 276.772 540.308 274.622C540.506 276.772 540.506 278.936 540.308 281.085Z" fill="#263238"/>
<path d="M546.58 281.085C546.381 278.936 546.381 276.772 546.58 274.622C546.778 276.772 546.778 278.936 546.58 281.085Z" fill="#263238"/>
<path d="M544.618 281.085C544.419 278.936 544.419 276.772 544.618 274.622C544.816 276.772 544.816 278.936 544.618 281.085Z" fill="#263238"/>
<path d="M550.887 281.085C550.689 278.936 550.689 276.772 550.887 274.622C551.086 276.772 551.086 278.936 550.887 281.085Z" fill="#263238"/>
<path d="M548.926 281.085C548.728 278.936 548.728 276.772 548.926 274.622C549.125 276.772 549.125 278.936 548.926 281.085Z" fill="#263238"/>
<path d="M555.196 281.085C554.997 278.936 554.997 276.772 555.196 274.622C555.395 276.772 555.395 278.936 555.196 281.085Z" fill="#263238"/>
<path d="M553.234 281.085C553.035 278.936 553.035 276.772 553.234 274.622C553.433 276.772 553.433 278.936 553.234 281.085Z" fill="#263238"/>
<path d="M559.505 281.085C559.306 278.936 559.306 276.772 559.505 274.622C559.703 276.772 559.703 278.936 559.505 281.085Z" fill="#263238"/>
<path d="M557.548 281.085C557.35 278.936 557.35 276.772 557.548 274.622C557.747 276.772 557.747 278.936 557.548 281.085Z" fill="#263238"/>
<path d="M563.82 281.085C563.621 278.936 563.621 276.772 563.82 274.622C564.019 276.772 564.019 278.936 563.82 281.085Z" fill="#263238"/>
<path d="M561.856 281.085C561.657 278.936 561.657 276.772 561.856 274.622C562.055 276.772 562.055 278.936 561.856 281.085Z" fill="#263238"/>
<path d="M566.001 274.527C566.001 274.612 557.937 274.676 547.985 274.676C538.033 274.676 529.969 274.612 529.969 274.527C529.969 274.442 538.033 274.378 547.985 274.378C557.937 274.378 566.001 274.447 566.001 274.527Z" fill="#263238"/>
<g opacity="0.3">
<path opacity="0.3" d="M529.352 261.458C534.781 262.704 540.368 263.112 545.921 262.67C551.426 262.303 556.985 261.495 562.501 261.559L529.352 261.458Z" fill="#252525"/>
</g>
<g opacity="0.3">
<path opacity="0.3" d="M529.677 254.974C535.106 256.218 540.694 256.625 546.246 256.181C551.751 255.814 557.31 255.005 562.826 255.069L529.677 254.974Z" fill="#252525"/>
</g>
<g opacity="0.3">
<path opacity="0.3" d="M531.426 267.989C536.855 269.234 542.443 269.641 547.995 269.197C553.5 268.83 559.059 268.021 564.575 268.09L531.426 267.989Z" fill="#252525"/>
</g>
<g opacity="0.3">
<path opacity="0.3" d="M530.005 274.49C535.435 275.729 541.022 276.135 546.574 275.692C552.079 275.33 557.638 274.516 563.154 274.585L530.005 274.49Z" fill="#252525"/>
</g>
<path d="M529.424 252.739C529.226 251.558 529.226 250.352 529.424 249.17C529.623 250.352 529.623 251.558 529.424 252.739Z" fill="white"/>
<path d="M527.169 259.697C526.971 258.43 526.971 257.14 527.169 255.872C527.368 257.14 527.368 258.43 527.169 259.697Z" fill="white"/>
<path d="M530.362 266.394C530.163 265.271 530.163 264.122 530.362 263C530.56 264.122 530.56 265.271 530.362 266.394Z" fill="white"/>
<path d="M527.075 272.575C526.876 271.57 526.876 270.536 527.075 269.532C527.273 270.536 527.273 271.57 527.075 272.575Z" fill="white"/>
<path d="M540.215 255.436C540.215 255.516 537.555 255.585 534.3 255.585C531.044 255.585 528.385 255.516 528.385 255.436C530.353 255.286 532.327 255.236 534.3 255.287C536.273 255.236 538.247 255.286 540.215 255.436Z" fill="white"/>
<path d="M544.042 249.17C542.059 249.321 540.068 249.37 538.08 249.319C536.092 249.371 534.104 249.321 532.122 249.17C532.122 249.091 534.782 249.021 538.08 249.021C541.377 249.021 544.042 249.091 544.042 249.17Z" fill="white"/>
<path d="M549.781 249.261C548.484 249.459 547.164 249.459 545.866 249.261C547.164 249.062 548.484 249.062 549.781 249.261Z" fill="white"/>
<path d="M403.174 249.378L417.536 281.085H424.466L425.456 278.665L426.69 281.085H431.238L430.706 262.58L430.482 251.644L403.174 249.378Z" fill="#92E3A9"/>
<path opacity="0.3" d="M403.174 249.378L417.536 281.085H424.466L425.456 278.665L426.69 281.085H431.238L430.706 262.58L430.482 251.644L403.174 249.378Z" fill="#252525"/>
<path d="M466.02 252.777L480.025 281.085H486.956L487.95 278.872L489.179 281.085H493.727L493.2 264.144L492.972 254.133L466.02 252.777Z" fill="#92E3A9"/>
<path opacity="0.3" d="M466.02 252.777L480.025 281.085H486.956L487.95 278.872L489.179 281.085H493.727L493.2 264.144L492.972 254.133L466.02 252.777Z" fill="#252525"/>
<path d="M545.674 169.346L545.807 169.388L546.179 169.553C546.647 169.786 547.083 170.077 547.477 170.42C548.211 171.052 548.812 171.824 549.245 172.691C549.678 173.558 549.934 174.502 549.999 175.468C550.081 176.817 549.741 178.157 549.025 179.303C548.209 180.624 547 181.656 545.568 182.255C544.784 182.604 543.936 182.784 543.078 182.784C542.221 182.784 541.373 182.604 540.589 182.255C539.747 181.86 539.086 181.161 538.738 180.298C538.547 179.857 538.471 179.374 538.516 178.896C538.56 178.417 538.724 177.957 538.993 177.559C539.28 177.176 539.647 176.861 540.069 176.636C540.491 176.41 540.957 176.281 541.435 176.255C542.362 176.219 543.271 176.519 543.993 177.101C544.663 177.642 545.198 178.332 545.554 179.116C545.911 179.9 546.079 180.757 546.046 181.617C545.999 183.173 545.438 184.669 544.451 185.872C544.012 186.418 543.49 186.89 542.903 187.271C542.355 187.607 541.767 187.871 541.153 188.059C540.091 188.365 538.977 188.448 537.882 188.303C537.058 188.2 536.254 187.98 535.493 187.649C535.014 187.44 534.557 187.185 534.126 186.888L533.802 186.644C533.733 186.591 533.695 186.559 533.701 186.553C534.279 186.944 534.893 187.277 535.536 187.548C536.291 187.859 537.086 188.062 537.898 188.149C538.969 188.274 540.055 188.179 541.089 187.872C541.684 187.685 542.252 187.422 542.78 187.091C543.345 186.719 543.846 186.26 544.265 185.729C545.212 184.56 545.747 183.111 545.786 181.606C545.816 180.787 545.655 179.973 545.314 179.227C544.973 178.482 544.463 177.827 543.823 177.314C543.153 176.771 542.307 176.491 541.445 176.527C541.009 176.551 540.584 176.669 540.198 176.874C539.812 177.079 539.475 177.365 539.211 177.713C538.971 178.075 538.825 178.491 538.786 178.924C538.747 179.357 538.816 179.792 538.988 180.192C539.31 180.99 539.922 181.638 540.701 182.005C541.454 182.34 542.27 182.513 543.094 182.513C543.919 182.513 544.734 182.34 545.488 182.005C546.875 181.431 548.048 180.438 548.844 179.165C549.552 178.057 549.893 176.754 549.818 175.442C549.761 174.365 549.459 173.315 548.935 172.372C548.541 171.656 548.031 171.01 547.424 170.463C546.892 170.015 546.304 169.64 545.674 169.346Z" fill="#92E3A9"/>
<path d="M538.817 198.032C540.903 245.08 501.461 268.553 456.812 268.553C412.163 268.553 375.961 237.984 375.961 200.277C375.961 162.569 412.158 132 456.812 132C501.466 132 537.147 160.362 538.817 198.032Z" fill="#92E3A9"/>
<path opacity="0.3" d="M451.178 148.84C451.178 148.84 456.539 147.138 461.555 152.808C466.571 158.479 473.55 168.138 473.55 168.138C472.922 171.282 471.087 173.734 467.529 175.191L451.178 148.84Z" fill="#252525"/>
<path d="M403.657 249.192C418.945 249.192 431.338 239.694 431.338 227.979C431.338 216.263 418.945 206.766 403.657 206.766C388.37 206.766 375.977 216.263 375.977 227.979C375.977 239.694 388.37 249.192 403.657 249.192Z" fill="#92E3A9"/>
<path d="M429.473 171.271C429.473 171.271 445.696 146.101 453.127 148.83C460.558 151.559 467.531 175.213 467.531 175.213" fill="#92E3A9"/>
<path d="M411.126 165.5L410.371 158.686C410.371 158.686 400.212 154.431 391.116 152.362C382.02 150.292 380.228 152.362 380.228 152.362L394.616 172.527L411.126 165.5Z" fill="#92E3A9"/>
<path opacity="0.3" d="M432.78 141.362L438.163 144.553C438.163 144.553 464.227 137.638 484.259 144.553L476.913 138.298C476.913 138.298 452.631 133.085 432.78 141.362Z" fill="#252525"/>
<path opacity="0.3" d="M403.657 249.192C418.945 249.192 431.338 239.694 431.338 227.979C431.338 216.263 418.945 206.766 403.657 206.766C388.37 206.766 375.977 216.263 375.977 227.979C375.977 239.694 388.37 249.192 403.657 249.192Z" fill="#252525"/>
<path d="M396.62 249.192C410.942 249.192 422.551 239.694 422.551 227.979C422.551 216.263 410.942 206.766 396.62 206.766C382.299 206.766 370.689 216.263 370.689 227.979C370.689 239.694 382.299 249.192 396.62 249.192Z" fill="#92E3A9"/>
<path opacity="0.3" d="M387.658 218.032H385.663C384.682 218.032 383.887 218.827 383.887 219.809V236.16C383.887 237.141 384.682 237.936 385.663 237.936H387.658C388.639 237.936 389.435 237.141 389.435 236.16V219.809C389.435 218.827 388.639 218.032 387.658 218.032Z" fill="#252525"/>
<path opacity="0.3" d="M402.555 218.032H400.561C399.58 218.032 398.784 218.827 398.784 219.809V236.16C398.784 237.141 399.58 237.936 400.561 237.936H402.555C403.537 237.936 404.332 237.141 404.332 236.16V219.809C404.332 218.827 403.537 218.032 402.555 218.032Z" fill="#252525"/>
<path opacity="0.3" d="M409.552 166.17C411.887 164.851 413.142 162.883 412.259 159.638C412.259 159.638 400.212 154.442 391.116 152.362C382.02 150.282 380.228 152.362 380.228 152.362L394.616 172.527L409.552 166.17Z" fill="#252525"/>
<path d="M410.37 166.723C410.37 166.723 409.695 166.261 408.556 165.5C403.184 161.92 387.503 151.67 383.556 151.559C378.099 151.404 378.094 156.106 378.099 159.75C378.099 162.33 380.227 184.75 380.227 184.75" fill="#92E3A9"/>
<path d="M467.529 175.213C467.503 175.164 467.483 175.112 467.47 175.058C467.428 174.941 467.375 174.787 467.311 174.596L466.715 172.814C466.183 171.271 465.412 169.042 464.343 166.33C463.117 163.146 461.695 160.041 460.087 157.032C459.149 155.254 458.047 153.567 456.795 151.995C456.144 151.162 455.388 150.418 454.545 149.782C453.72 149.087 452.664 148.728 451.587 148.776C450.513 148.912 449.479 149.274 448.555 149.84C447.636 150.368 446.761 150.969 445.938 151.638C444.386 152.918 442.922 154.3 441.555 155.776C439.236 158.279 437.046 160.898 434.992 163.622C433.22 165.941 431.859 167.877 430.922 169.202L429.859 170.745L429.582 171.143C429.552 171.192 429.516 171.237 429.476 171.276L429.555 171.127L429.816 170.713C430.045 170.351 430.39 169.819 430.843 169.143C431.752 167.787 433.093 165.84 434.843 163.505C436.882 160.758 439.064 158.119 441.38 155.601C442.748 154.11 444.217 152.717 445.779 151.431C446.614 150.748 447.504 150.135 448.438 149.596C449.401 149.023 450.474 148.66 451.587 148.532C452.16 148.477 452.738 148.559 453.273 148.771C453.79 148.982 454.278 149.258 454.726 149.59C455.586 150.243 456.36 151.003 457.029 151.851C458.285 153.442 459.391 155.146 460.332 156.941C461.933 159.966 463.34 163.089 464.545 166.292C465.609 169.016 466.337 171.255 466.832 172.814C467.082 173.59 467.263 174.197 467.364 174.612C467.417 174.803 467.46 174.963 467.497 175.08C467.512 175.123 467.523 175.167 467.529 175.213Z" fill="#263238"/>
<path d="M476.912 138.303L477.045 138.399L477.417 138.702L478.832 139.883L484.002 144.271L484.348 144.564L483.912 144.441C476.958 142.481 469.775 141.456 462.55 141.394C454.379 141.31 446.239 142.404 438.38 144.644H438.348H438.316L434.22 142.245L433.157 141.596L432.885 141.425C432.853 141.408 432.823 141.386 432.795 141.362L432.896 141.404L433.183 141.558L434.284 142.165L438.417 144.5H438.348C441.735 143.497 445.184 142.716 448.673 142.159C450.736 141.819 452.928 141.569 455.284 141.367C457.641 141.165 460.072 141.085 462.566 141.133C466.548 141.172 470.522 141.504 474.455 142.128C477.671 142.64 480.852 143.351 483.981 144.255L483.891 144.425L478.763 139.968L477.38 138.745L477.029 138.42C476.985 138.386 476.946 138.347 476.912 138.303Z" fill="#263238"/>
<g opacity="0.2">
<path opacity="0.2" d="M446.927 208.208C446.805 208.968 446.023 209.537 444.912 209.92C443.57 210.338 442.173 210.544 440.768 210.532C439.362 210.569 437.959 210.39 436.608 210C435.491 209.644 434.699 209.091 434.56 208.335C434.422 207.58 434.991 206.771 436.103 206.117C437.528 205.386 439.104 204.996 440.705 204.979C442.307 204.961 443.891 205.316 445.332 206.016C446.459 206.654 447.05 207.458 446.927 208.208Z" fill="white"/>
</g>
<path d="M412.089 210.952C412.034 210.929 411.982 210.898 411.934 210.862L411.509 210.574L410.812 210.106C410.53 209.936 410.195 209.761 409.817 209.548C407.671 208.42 405.361 207.636 402.972 207.223C401.322 206.943 399.655 206.787 397.982 206.755C396.061 206.744 394.142 206.884 392.243 207.176C387.879 207.818 383.717 209.438 380.067 211.915C379.131 212.579 378.242 213.307 377.408 214.096C376.594 214.865 375.84 215.696 375.152 216.58C373.853 218.253 372.806 220.108 372.046 222.085C370.832 225.478 370.596 229.144 371.365 232.665C371.682 234.007 372.151 235.308 372.764 236.543C373.248 237.466 373.816 238.342 374.461 239.16L375.2 240.032L375.796 240.617L376.158 240.979C376.238 241.064 376.28 241.106 376.275 241.112C376.226 241.08 376.181 241.043 376.142 241L375.754 240.654L375.137 240.085L374.381 239.229C373.715 238.416 373.127 237.541 372.626 236.617C371.994 235.376 371.508 234.066 371.179 232.713C370.368 229.153 370.586 225.436 371.807 221.995C372.178 221.014 372.622 220.063 373.137 219.149C373.666 218.192 374.269 217.278 374.94 216.415C375.635 215.519 376.396 214.677 377.216 213.894C378.068 213.095 378.974 212.358 379.929 211.686C383.613 209.184 387.819 207.556 392.227 206.926C394.138 206.636 396.07 206.502 398.004 206.527C399.687 206.568 401.366 206.735 403.025 207.027C405.423 207.472 407.735 208.3 409.871 209.479C410.243 209.702 410.578 209.888 410.86 210.064L411.541 210.559L411.956 210.867C412.046 210.91 412.094 210.947 412.089 210.952Z" fill="#263238"/>
<path d="M389.274 219.894C389.322 220.173 389.343 220.456 389.338 220.739C389.338 221.335 389.396 222.112 389.434 223.053C389.519 225 389.678 227.697 389.747 230.675C389.747 231.425 389.747 232.154 389.747 232.856C389.761 233.54 389.711 234.224 389.598 234.899C389.523 235.485 389.314 236.046 388.987 236.538C388.661 237.03 388.226 237.441 387.715 237.739C387.357 237.921 386.957 238.006 386.556 237.985C386.155 237.965 385.766 237.84 385.428 237.622C385.249 237.504 385.095 237.35 384.976 237.17C384.931 237.111 384.897 237.044 384.875 236.973C385.048 237.19 385.255 237.379 385.487 237.532C385.81 237.715 386.174 237.814 386.546 237.821C386.917 237.827 387.285 237.741 387.614 237.569C388.087 237.274 388.487 236.876 388.785 236.406C389.083 235.935 389.272 235.404 389.338 234.851C389.438 234.191 389.481 233.524 389.465 232.856C389.465 232.154 389.465 231.425 389.439 230.686C389.37 227.707 389.237 225.011 389.205 223.058C389.205 222.08 389.205 221.287 389.205 220.739C389.208 220.456 389.231 220.173 389.274 219.894Z" fill="#263238"/>
<path d="M403.982 219.894C404.023 220.174 404.042 220.456 404.041 220.739C404.041 221.335 404.099 222.112 404.136 223.053C404.222 225 404.381 227.697 404.456 230.675C404.456 231.425 404.456 232.154 404.456 232.856C404.465 233.54 404.413 234.224 404.301 234.899C404.226 235.485 404.018 236.046 403.691 236.539C403.365 237.031 402.929 237.442 402.418 237.739C402.06 237.92 401.66 238.005 401.259 237.984C400.858 237.964 400.469 237.839 400.131 237.622C399.953 237.501 399.8 237.348 399.679 237.17C399.599 237.048 399.573 236.973 399.583 236.973C399.754 237.191 399.959 237.38 400.19 237.532C400.513 237.715 400.877 237.814 401.249 237.821C401.62 237.827 401.988 237.741 402.317 237.569C402.79 237.274 403.19 236.876 403.488 236.406C403.786 235.935 403.975 235.404 404.041 234.851C404.143 234.191 404.188 233.524 404.174 232.856C404.174 232.154 404.174 231.425 404.147 230.686C404.073 227.707 403.945 225.011 403.913 223.058C403.913 222.08 403.913 221.287 403.913 220.739C403.909 220.456 403.932 220.173 403.982 219.894Z" fill="#263238"/>
<path d="M422.242 232.601C422.213 232.726 422.174 232.849 422.125 232.968C422.035 233.202 421.934 233.559 421.732 233.989C421.206 235.233 420.555 236.42 419.79 237.532C418.658 239.185 417.335 240.699 415.849 242.043C414.969 242.834 414.042 243.571 413.072 244.25C412.025 244.967 410.93 245.612 409.796 246.181C407.605 247.303 405.282 248.143 402.881 248.681C400.921 249.096 398.921 249.298 396.918 249.282C395.216 249.282 393.838 249.176 392.891 249.112L391.796 249.021C391.668 249.019 391.542 249.003 391.418 248.974C391.545 248.961 391.674 248.961 391.801 248.974L392.897 249.005C393.844 249.043 395.221 249.107 396.918 249.091C398.905 249.081 400.886 248.862 402.828 248.436C405.196 247.888 407.488 247.05 409.652 245.942C410.777 245.379 411.863 244.741 412.902 244.032C413.862 243.361 414.784 242.637 415.663 241.862C417.143 240.537 418.469 239.049 419.615 237.426C420.391 236.329 421.068 235.165 421.636 233.947C421.849 233.527 421.966 233.176 422.078 232.947C422.118 232.825 422.174 232.709 422.242 232.601Z" fill="#263238"/>
<path d="M388.956 219.303C388.847 219.117 388.725 218.939 388.589 218.771C388.395 218.559 388.16 218.389 387.899 218.27C387.637 218.151 387.355 218.086 387.067 218.08C386.644 218.077 386.225 218.165 385.838 218.338C385.452 218.512 385.107 218.766 384.828 219.085C384.493 219.456 384.258 219.906 384.147 220.394C384.028 220.926 383.975 221.471 383.988 222.016C383.988 224.303 384.014 226.383 383.988 227.867C383.988 228.569 383.988 229.165 383.988 229.644C383.995 229.861 383.981 230.078 383.945 230.293C383.897 230.08 383.876 229.862 383.881 229.644C383.881 229.165 383.844 228.58 383.817 227.867C383.78 226.367 383.738 224.293 383.722 222.016C383.708 221.447 383.765 220.879 383.892 220.325C384.023 219.798 384.282 219.312 384.647 218.91C384.955 218.57 385.333 218.302 385.756 218.125C386.179 217.949 386.636 217.868 387.094 217.888C387.402 217.904 387.704 217.985 387.979 218.125C388.254 218.265 388.496 218.462 388.69 218.702C388.79 218.832 388.873 218.975 388.934 219.128C388.95 219.239 388.966 219.298 388.956 219.303Z" fill="white"/>
<path d="M398.7 220.527C398.774 220.527 398.838 223.33 398.838 226.787C398.838 230.245 398.774 233.053 398.7 233.053C398.625 233.053 398.562 230.25 398.562 226.787C398.562 223.324 398.625 220.527 398.7 220.527Z" fill="white"/>
<path d="M394.237 208.452C394.13 208.476 394.021 208.485 393.912 208.479C393.694 208.479 393.38 208.479 392.976 208.479C391.83 208.521 390.689 208.646 389.561 208.851C385.269 209.65 381.299 211.675 378.132 214.682C374.965 217.688 372.737 221.547 371.716 225.793C371.609 226.181 371.561 226.495 371.508 226.702C371.49 226.81 371.459 226.915 371.418 227.016C371.414 226.907 371.425 226.798 371.45 226.691C371.487 226.479 371.519 226.16 371.609 225.766C371.841 224.636 372.169 223.527 372.588 222.452C373.955 218.87 376.24 215.71 379.213 213.289C382.187 210.869 385.744 209.272 389.529 208.66C390.666 208.467 391.818 208.371 392.971 208.372C393.38 208.372 393.7 208.399 393.912 208.404C394.022 208.41 394.13 208.426 394.237 208.452Z" fill="white"/>
<path d="M380.329 181.356C380.312 181.462 380.28 181.564 380.233 181.66L379.904 182.5C379.755 182.862 379.579 183.309 379.372 183.835C379.164 184.362 378.952 184.952 378.749 185.622C378.547 186.293 378.292 187.016 378.079 187.814C377.866 188.612 377.648 189.463 377.43 190.362C376.541 194.282 376.124 198.295 376.186 202.314C376.217 203.239 376.228 204.122 376.297 204.942C376.366 205.761 376.42 206.537 376.499 207.223C376.579 207.91 376.664 208.548 376.739 209.101C376.813 209.654 376.893 210.128 376.962 210.511C377.031 210.894 377.074 211.17 377.111 211.404C377.136 211.507 377.147 211.613 377.143 211.718C377.103 211.621 377.074 211.519 377.058 211.415L376.856 210.532C376.771 210.149 376.67 209.676 376.585 209.128C376.499 208.58 376.377 207.947 376.303 207.25C376.228 206.553 376.122 205.787 376.069 204.958C376.015 204.128 375.967 203.25 375.93 202.298C375.851 198.271 376.28 194.25 377.207 190.33C377.436 189.426 377.638 188.569 377.888 187.777C378.138 186.984 378.356 186.25 378.59 185.585C378.824 184.92 379.053 184.33 379.249 183.809C379.446 183.287 379.643 182.84 379.781 182.484C379.92 182.128 380.058 181.878 380.159 181.665C380.202 181.555 380.259 181.452 380.329 181.356Z" fill="white"/>
<path d="M381.125 153.697C381.125 153.697 380.907 153.984 380.593 154.542C380.156 155.338 379.856 156.201 379.705 157.096C379.486 158.427 379.375 159.773 379.375 161.122C379.332 162.649 379.327 164.314 379.375 166.09C379.46 169.617 379.742 172.803 380.008 175.096C380.152 176.213 380.263 177.128 380.348 177.814L380.444 178.553C380.451 178.64 380.451 178.727 380.444 178.814C380.407 178.735 380.383 178.65 380.375 178.564C380.332 178.362 380.285 178.122 380.226 177.83C380.109 177.197 379.96 176.271 379.8 175.122C379.393 172.124 379.154 169.105 379.082 166.08C379.04 164.314 379.082 162.628 379.082 161.096C379.092 159.734 379.223 158.375 379.476 157.037C379.648 156.129 379.981 155.259 380.46 154.468C380.593 154.256 380.742 154.055 380.907 153.867C381.05 153.755 381.114 153.691 381.125 153.697Z" fill="white"/>
<path d="M432.902 137.032C432.791 137.084 432.678 137.13 432.562 137.17L431.572 137.521L427.929 138.771C423.91 140.113 419.965 141.664 416.11 143.42C412.257 145.184 408.622 147.386 405.275 149.984C404.003 150.995 403.024 151.872 402.365 152.5C402.03 152.803 401.785 153.058 401.61 153.223C401.527 153.313 401.434 153.394 401.333 153.463C401.403 153.364 401.481 153.271 401.567 153.186C401.732 153.01 401.966 152.739 402.29 152.42C403.199 151.508 404.154 150.643 405.152 149.83C408.481 147.174 412.123 144.937 415.998 143.17C419.861 141.407 423.825 139.876 427.87 138.585C429.418 138.08 430.673 137.681 431.546 137.415L432.551 137.117C432.665 137.076 432.782 137.047 432.902 137.032Z" fill="white"/>
<path d="M451.413 150.218C451.413 150.218 451.339 150.293 451.174 150.41L450.466 150.91C449.849 151.335 448.966 151.973 447.892 152.782C446.817 153.59 445.573 154.596 444.232 155.755C442.892 156.915 441.472 158.266 440.046 159.734C438.621 161.202 437.344 162.692 436.222 164.069C435.099 165.447 434.152 166.729 433.386 167.84C432.621 168.952 432.014 169.846 431.615 170.5L431.142 171.223C431.09 171.311 431.029 171.393 430.961 171.468C430.992 171.372 431.036 171.28 431.094 171.197C431.206 170.995 431.349 170.745 431.525 170.442C431.897 169.787 432.477 168.846 433.227 167.745C433.977 166.644 434.918 165.325 436.025 163.926C437.131 162.527 438.424 161.048 439.844 159.559C441.264 158.069 442.716 156.745 444.062 155.58C445.408 154.415 446.684 153.452 447.785 152.638C448.886 151.825 449.78 151.234 450.418 150.835L451.158 150.378C451.237 150.316 451.323 150.263 451.413 150.218Z" fill="white"/>
<path d="M533.391 187.223C533.651 187.647 533.863 188.098 534.024 188.569C534.897 190.791 535.487 193.114 535.779 195.484C535.862 195.972 535.89 196.468 535.864 196.963C535.731 196.487 535.637 196.001 535.582 195.511C535.428 194.617 535.194 193.383 534.853 192.037C534.513 190.691 534.13 189.489 533.837 188.628C533.653 188.171 533.504 187.702 533.391 187.223Z" fill="white"/>
<path d="M520.668 248.197C520.668 248.197 520.578 248.271 520.402 248.399L519.62 248.931L518.344 249.83L517.53 250.436L516.578 251.053C512.795 253.547 508.856 255.797 504.785 257.787C503.498 258.415 502.126 259.043 500.705 259.692L498.498 260.628L497.381 261.075L496.211 261.521L493.807 262.442L491.296 263.309C490.45 263.617 489.578 263.878 488.689 264.149C487.801 264.42 486.918 264.718 485.998 264.952C482.179 266.032 478.305 266.904 474.392 267.564C470.192 268.296 465.949 268.753 461.689 268.931C457.43 269.116 453.163 268.982 448.924 268.532L447.386 268.383C446.881 268.33 446.376 268.245 445.876 268.176L442.892 267.755L439.993 267.224L438.572 266.952L437.173 266.633C430.601 265.193 424.187 263.109 418.025 260.41C413.867 258.618 409.865 256.483 406.062 254.027C404.689 253.186 403.716 252.431 403.019 251.931L402.248 251.362C402.072 251.234 401.987 251.16 401.987 251.16L402.264 251.341L403.056 251.872C403.759 252.341 404.743 253.101 406.12 253.926C409.939 256.351 413.946 258.464 418.104 260.245C424.258 262.906 430.655 264.966 437.205 266.394L438.599 266.708L440.019 266.974L442.913 267.505L445.886 267.92C446.386 267.989 446.892 268.075 447.397 268.122L448.929 268.271C453.158 268.72 457.414 268.852 461.663 268.665C465.91 268.49 470.14 268.037 474.328 267.309C478.232 266.65 482.1 265.785 485.913 264.718C486.833 264.484 487.716 264.186 488.604 263.92C489.493 263.654 490.354 263.388 491.2 263.091L493.711 262.229L496.11 261.319L497.28 260.872L498.413 260.399L500.62 259.473C502.041 258.83 503.413 258.213 504.7 257.591C508.774 255.625 512.725 253.414 516.53 250.968C516.863 250.748 517.182 250.546 517.487 250.362L518.312 249.798L519.599 248.926L520.397 248.394L520.668 248.197Z" fill="#263238"/>
<path d="M497.753 253.894L508.444 281.229H515.753L517.343 278.851L519.221 281.229H521.801L522.764 237.904L497.753 253.894Z" fill="#92E3A9"/>
<path d="M430.6 257.74L439.642 281.229H447.951L449.647 278.511L451.286 281.229H453.344C453.344 281.229 454.249 254.729 453.344 253.979C452.44 253.229 430.6 257.74 430.6 257.74Z" fill="#92E3A9"/>
<path d="M536.153 205.223C536.16 205.276 536.16 205.33 536.153 205.383C536.153 205.5 536.153 205.649 536.116 205.84C536.073 206.261 536.02 206.846 535.951 207.59C535.914 207.973 535.871 208.399 535.823 208.856C535.775 209.314 535.669 209.819 535.584 210.356C535.392 211.42 535.238 212.654 534.892 213.979C534.738 214.649 534.573 215.346 534.403 216.074C534.233 216.803 533.978 217.537 533.754 218.309C533.329 219.862 532.69 221.468 532.073 223.165C529.184 230.492 524.952 237.216 519.595 242.989C518.329 244.287 517.158 245.548 515.935 246.601C515.339 247.133 514.781 247.665 514.201 248.154L512.531 249.505C511.467 250.388 510.44 251.059 509.557 251.691C509.111 252.005 508.701 252.303 508.313 252.559L507.222 253.218L505.717 254.122L505.318 254.351L505.18 254.426C505.18 254.426 505.217 254.388 505.302 254.33L505.685 254.074L507.169 253.128L508.233 252.447C508.621 252.186 509.02 251.883 509.462 251.569C510.334 250.92 511.366 250.239 512.403 249.351L514.057 247.995C514.632 247.521 515.18 246.973 515.775 246.436C516.983 245.372 518.148 244.117 519.398 242.819C524.712 237.049 528.927 230.355 531.834 223.069C532.462 221.383 533.095 219.787 533.525 218.239C533.754 217.473 534.009 216.739 534.19 216.016C534.371 215.293 534.536 214.601 534.722 213.936C535.084 212.617 535.254 211.394 535.451 210.33C535.547 209.798 535.648 209.298 535.717 208.84C535.786 208.383 535.818 207.963 535.866 207.58C535.956 206.835 536.031 206.25 536.079 205.835C536.105 205.649 536.127 205.5 536.142 205.378C536.14 205.326 536.143 205.274 536.153 205.223Z" fill="white"/>
<g opacity="0.2">
<path opacity="0.2" d="M524.589 182.181C522.163 176.165 516.871 170.479 510.759 168.005C509.594 167.544 508.337 167.366 507.09 167.486C505.843 167.607 504.642 168.021 503.587 168.697C502.532 169.372 501.652 170.289 501.021 171.371C500.39 172.453 500.025 173.669 499.956 174.92C499.958 174.959 499.958 174.998 499.956 175.037C499.764 178.888 501.28 182.622 503.147 186.005C505.014 189.388 507.222 192.59 508.663 196.165C511.039 202.13 511.115 208.764 508.876 214.782C507.45 218.569 505.089 222.606 507.227 226.378C508.631 228.856 511.456 230.075 514.291 229.819C519.722 229.325 522.541 224.42 525.115 219.963C527.185 216.378 528.892 210.803 528.988 206.596C529.275 198.237 527.775 189.914 524.589 182.181Z" fill="white"/>
</g>
<path d="M442.265 199.17C442.068 199.223 441.733 198.431 441.233 197.282C440.946 196.643 440.556 196.055 440.079 195.543C439.567 194.968 438.851 194.617 438.084 194.564C437.302 194.574 436.548 194.86 435.956 195.372C435.439 195.818 435.012 196.36 434.701 196.968C434.169 198.069 433.93 198.883 433.722 198.846C433.515 198.808 433.403 197.973 433.791 196.601C434.035 195.773 434.483 195.019 435.095 194.41C435.49 194.013 435.96 193.698 436.478 193.484C436.996 193.269 437.55 193.159 438.111 193.16C438.713 193.177 439.302 193.345 439.823 193.649C440.281 193.915 440.688 194.261 441.026 194.67C441.56 195.333 441.943 196.105 442.148 196.931C442.478 198.308 442.435 199.122 442.265 199.17Z" fill="#263238"/>
<path d="M401.865 195.92C401.865 196.677 401.64 197.416 401.22 198.045C400.8 198.674 400.203 199.164 399.504 199.454C398.805 199.743 398.036 199.819 397.294 199.671C396.552 199.524 395.871 199.159 395.336 198.625C394.801 198.09 394.437 197.408 394.289 196.666C394.142 195.925 394.217 195.156 394.507 194.457C394.796 193.758 395.287 193.161 395.916 192.74C396.544 192.32 397.284 192.096 398.04 192.096C399.055 192.096 400.027 192.499 400.745 193.216C401.462 193.933 401.865 194.906 401.865 195.92Z" fill="#263238"/>
<path d="M523.334 163.931C523.237 163.845 523.149 163.749 523.073 163.644L522.382 162.787C522.073 162.409 521.701 161.952 521.243 161.441C520.786 160.931 520.291 160.319 519.696 159.691C519.1 159.064 518.472 158.351 517.754 157.633C517.036 156.915 516.259 156.149 515.44 155.356C513.765 153.798 511.866 152.165 509.781 150.532C507.696 148.899 505.61 147.505 503.68 146.276C502.701 145.681 501.781 145.101 500.892 144.612C500.004 144.122 499.174 143.654 498.408 143.255C497.642 142.856 496.94 142.511 496.323 142.191C495.706 141.872 495.174 141.633 494.727 141.436L493.717 140.963C493.595 140.913 493.479 140.851 493.371 140.776C493.497 140.811 493.619 140.856 493.738 140.909L494.77 141.335C495.217 141.521 495.765 141.755 496.366 142.053C496.967 142.351 497.706 142.665 498.493 143.069C499.281 143.473 500.089 143.894 500.999 144.404C501.908 144.915 502.823 145.468 503.807 146.048C505.754 147.266 507.845 148.681 509.946 150.303C512.047 151.925 513.94 153.585 515.61 155.159C516.43 155.963 517.206 156.718 517.914 157.463C518.621 158.207 519.265 158.899 519.839 159.548C520.414 160.197 520.903 160.803 521.355 161.33C521.807 161.856 522.169 162.324 522.456 162.713L523.132 163.601C523.212 163.703 523.279 163.813 523.334 163.931Z" fill="white"/>
<path d="M483.119 146.745C482.977 146.718 482.838 146.677 482.704 146.622L481.539 146.223C481.007 146.037 480.417 145.824 479.683 145.612C478.949 145.399 478.135 145.112 477.204 144.883L475.752 144.5C475.247 144.367 474.688 144.266 474.156 144.138C473.061 143.878 471.874 143.686 470.63 143.463C467.917 143.044 465.182 142.786 462.438 142.691C459.694 142.625 456.947 142.727 454.215 142.995C452.96 143.144 451.757 143.266 450.651 143.463C450.119 143.559 449.555 143.628 449.055 143.734L447.582 144.032C446.64 144.207 445.805 144.436 445.066 144.617C444.327 144.798 443.694 144.963 443.178 145.117L441.991 145.452C441.854 145.495 441.713 145.529 441.571 145.553C441.7 145.487 441.836 145.435 441.976 145.399L443.146 145.016C443.678 144.846 444.284 144.649 445.023 144.484C445.763 144.319 446.619 144.048 447.539 143.862L449.013 143.543C449.545 143.436 450.077 143.356 450.609 143.261C451.72 143.048 452.922 142.915 454.183 142.761C459.675 142.169 465.223 142.328 470.672 143.234C471.922 143.463 473.114 143.665 474.215 143.936C474.747 144.069 475.279 144.176 475.811 144.314L477.263 144.718C478.194 144.957 479.013 145.25 479.736 145.484C480.46 145.718 481.082 145.941 481.582 146.144L482.731 146.596C482.864 146.635 482.994 146.685 483.119 146.745Z" fill="white"/>
<path d="M458.116 116.521C467.952 116.521 475.926 108.547 475.926 98.7106C475.926 88.8744 467.952 80.9006 458.116 80.9006C448.279 80.9006 440.306 88.8744 440.306 98.7106C440.306 108.547 448.279 116.521 458.116 116.521Z" fill="#92E3A9" stroke="#263238" stroke-linejoin="round"/>
<path d="M456.02 116.521C465.856 116.521 473.83 108.547 473.83 98.7106C473.83 88.8744 465.856 80.9006 456.02 80.9006C446.184 80.9006 438.21 88.8744 438.21 98.7106C438.21 108.547 446.184 116.521 456.02 116.521Z" fill="#92E3A9" stroke="#263238" stroke-linejoin="round"/>
<path d="M456.018 113.025C463.924 113.025 470.333 106.616 470.333 98.7106C470.333 90.805 463.924 84.3962 456.018 84.3962C448.113 84.3962 441.704 90.805 441.704 98.7106C441.704 106.616 448.113 113.025 456.018 113.025Z" fill="#92E3A9" stroke="#263238" stroke-linejoin="round"/>
<path d="M442.933 98.7105C442.93 95.0171 444.353 91.4652 446.907 88.7967C449.46 86.1281 452.946 84.5491 456.636 84.3896H456.017C452.219 84.3896 448.576 85.8984 445.891 88.5841C443.205 91.2698 441.696 94.9124 441.696 98.7105C441.696 102.509 443.205 106.151 445.891 108.837C448.576 111.523 452.219 113.031 456.017 113.031C456.225 113.031 456.427 113.031 456.636 113.031C452.946 112.872 449.46 111.293 446.907 108.624C444.353 105.956 442.93 102.404 442.933 98.7105Z" fill="#92E3A9" stroke="#263238" stroke-linejoin="round"/>
<path d="M469.291 84.9756H467.931" stroke="#263238" stroke-linejoin="round"/>
<path d="M471.023 86.5835H470.033" stroke="#263238" stroke-linejoin="round"/>
<path d="M473.242 89.0571H472.136" stroke="#263238" stroke-linejoin="round"/>
<path d="M474.48 92.149H472.996" stroke="#263238" stroke-linejoin="round"/>
<path d="M475.592 95.4885H474.231" stroke="#263238" stroke-linejoin="round"/>
<path d="M475.593 102.538H474.108" stroke="#263238" stroke-linejoin="round"/>
<path d="M469.787 110.948H471.024" stroke="#263238" stroke-linejoin="round"/>
<path d="M467.684 112.556H469.044" stroke="#263238" stroke-linejoin="round"/>
<path d="M465.458 114.288H466.818" stroke="#263238" stroke-linejoin="round"/>
<path d="M466.94 83.2506H464.838" stroke="#263238" stroke-linejoin="round"/>
<path d="M455.282 93.8352C455.282 92.5333 455.797 92.0646 456.695 92.0646C457.593 92.0646 458.108 92.5528 458.108 93.8352V94.5708H460.757V94.0109C460.757 91.5699 459.728 90.0271 457.73 89.617V88.2826H455.419V89.617C453.466 90.0532 452.444 91.5699 452.444 94.0109C452.444 99.1404 457.958 99.3227 457.958 103.02C457.958 104.322 457.398 104.765 456.5 104.765C455.601 104.765 455.035 104.302 455.035 103.02V101.608H452.366V102.838C452.366 105.279 453.388 106.841 455.419 107.251V108.553H457.73V107.251C459.728 106.841 460.783 105.298 460.783 102.838C460.803 97.7083 455.282 97.5326 455.282 93.8352Z" fill="#263238"/>
<path d="M503.722 69.6034C508.846 61.2078 506.195 50.2473 497.799 45.1226C489.403 39.9978 478.443 42.6494 473.318 51.0451C468.193 59.4408 470.845 70.4012 479.241 75.526C487.636 80.6507 498.597 77.9991 503.722 69.6034Z" fill="#92E3A9" stroke="#263238" stroke-linejoin="round"/>
<path d="M493.301 76.757C502.376 72.9612 506.655 62.528 502.859 53.4537C499.063 44.3795 488.63 40.1005 479.555 43.8963C470.481 47.6921 466.202 58.1254 469.998 67.1997C473.794 76.2739 484.227 80.5529 493.301 76.757Z" fill="#92E3A9" stroke="#263238" stroke-linejoin="round"/>
<path d="M499.698 65.7536C502.684 58.4335 499.17 50.079 491.85 47.0932C484.53 44.1074 476.175 47.621 473.189 54.9411C470.204 62.2612 473.717 70.6158 481.037 73.6015C488.357 76.5873 496.712 73.0737 499.698 65.7536Z" fill="#92E3A9" stroke="#263238" stroke-linejoin="round"/>
<path d="M473.354 60.3308C473.351 56.6428 474.77 53.0955 477.316 50.4278C479.863 47.76 483.34 46.1775 487.024 46.0099H486.406C482.608 46.0099 478.965 47.5187 476.279 50.2044C473.594 52.8901 472.085 56.5326 472.085 60.3308C472.085 64.1289 473.594 67.7715 476.279 70.4571C478.965 73.1428 482.608 74.6516 486.406 74.6516H487.024C483.34 74.484 479.863 72.9015 477.316 70.2338C474.77 67.5661 473.351 64.0188 473.354 60.3308Z" fill="#92E3A9" stroke="#263238" stroke-linejoin="round"/>
<path d="M499.704 46.5958H498.344" stroke="#263238" stroke-linejoin="round"/>
<path d="M501.437 48.2034H500.447" stroke="#263238" stroke-linejoin="round"/>
<path d="M503.663 50.6771H502.55" stroke="#263238" stroke-linejoin="round"/>
<path d="M504.898 53.769H503.414" stroke="#263238" stroke-linejoin="round"/>
<path d="M506.012 57.1085H504.651" stroke="#263238" stroke-linejoin="round"/>
<path d="M506.012 64.1517H504.528" stroke="#263238" stroke-linejoin="round"/>
<path d="M500.199 72.5621H501.436" stroke="#263238" stroke-linejoin="round"/>
<path d="M498.096 74.1699H499.456" stroke="#263238" stroke-linejoin="round"/>
<path d="M495.87 75.9015H497.231" stroke="#263238" stroke-linejoin="round"/>
<path d="M497.355 44.8641H495.252" stroke="#263238" stroke-linejoin="round"/>
<path d="M490.734 57.0563C491.918 56.5551 492.563 56.8415 492.914 57.6682C493.266 58.4949 493.012 59.1589 491.834 59.6536L491.144 59.9466L492.185 62.4071L492.706 62.1858C494.952 61.2354 495.961 59.6927 495.57 57.6878L496.801 57.167L495.909 55.0384L494.679 55.5592C493.507 53.9058 491.697 53.6063 489.471 54.5241C484.739 56.5161 486.717 61.6846 483.313 63.1102C482.135 63.6114 481.484 63.2664 481.139 62.4592C480.794 61.652 480.996 60.936 482.18 60.4348L483.482 59.888L482.447 57.4274L481.315 57.9026C479.062 58.853 478.021 60.4087 478.431 62.4592L477.227 62.9735L478.125 65.1021L479.329 64.5878C480.488 66.2738 482.337 66.6383 484.582 65.6879C489.308 63.6439 487.329 58.4884 490.734 57.0563Z" fill="#263238"/>
<path d="M470.995 37.7807C477.951 30.8255 477.951 19.5488 470.995 12.5936C464.04 5.63838 452.764 5.63837 445.808 12.5936C438.853 19.5488 438.853 30.8255 445.808 37.7807C452.764 44.7359 464.04 44.7359 470.995 37.7807Z" fill="#92E3A9" stroke="#263238" stroke-linejoin="round"/>
<path d="M463.176 41.6132C472.251 37.8174 476.53 27.3842 472.734 18.3099C468.938 9.23568 458.505 4.95668 449.43 8.75252C440.356 12.5484 436.077 22.9816 439.873 32.0559C443.669 41.1301 454.102 45.4091 463.176 41.6132Z" fill="#92E3A9" stroke="#263238" stroke-linejoin="round"/>
<path d="M461.822 38.3949C469.117 35.3491 472.562 26.966 469.517 19.6707C466.471 12.3753 458.088 8.93034 450.792 11.9761C443.497 15.0218 440.052 23.4049 443.098 30.7002C446.144 37.9956 454.527 41.4406 461.822 38.3949Z" fill="#92E3A9" stroke="#263238" stroke-linejoin="round"/>
<path d="M443.229 25.186C443.226 21.498 444.645 17.9507 447.191 15.283C449.738 12.6152 453.215 11.0327 456.899 10.8651C456.697 10.8651 456.489 10.8651 456.281 10.8651C452.483 10.8651 448.84 12.3739 446.154 15.0596C443.469 17.7453 441.96 21.3879 441.96 25.186C441.96 28.9841 443.469 32.6267 446.154 35.3124C448.84 37.9981 452.483 39.5069 456.281 39.5069H456.899C453.215 39.3392 449.738 37.7567 447.191 35.089C444.645 32.4213 443.226 28.874 443.229 25.186Z" fill="#92E3A9" stroke="#263238" stroke-linejoin="round"/>
<path d="M469.577 11.4509H468.217" stroke="#263238" stroke-linejoin="round"/>
<path d="M471.31 13.0586H470.32" stroke="#263238" stroke-linejoin="round"/>
<path d="M473.536 15.5325H472.423" stroke="#263238" stroke-linejoin="round"/>
<path d="M474.773 18.6244H473.289" stroke="#263238" stroke-linejoin="round"/>
<path d="M475.887 21.9574H474.526" stroke="#263238" stroke-linejoin="round"/>
<path d="M475.886 29.0071H474.401" stroke="#263238" stroke-linejoin="round"/>
<path d="M470.073 37.4175H471.31" stroke="#263238" stroke-linejoin="round"/>
<path d="M467.971 39.025H469.331" stroke="#263238" stroke-linejoin="round"/>
<path d="M465.743 40.7566H467.104" stroke="#263238" stroke-linejoin="round"/>
<path d="M467.228 9.71924H465.125" stroke="#263238" stroke-linejoin="round"/>
<path d="M453.286 21.7621C452.583 20.688 452.752 19.998 453.501 19.5098C454.249 19.0216 454.952 19.1453 455.649 20.2258L456.059 20.8442L458.298 19.3926L457.986 18.9174C456.684 16.8735 454.959 16.1444 453.058 16.8865L452.329 15.7668L450.376 17.0297L451.105 18.1493C449.686 19.5879 449.686 21.4041 451.001 23.448C453.8 27.7573 458.526 24.8997 460.537 28.0047C461.234 29.0787 461.012 29.7753 460.264 30.2635C459.515 30.7517 458.786 30.6736 458.083 29.6125L457.315 28.4278L455.076 29.8859L455.727 30.9144C457.029 32.9584 458.773 33.7135 460.694 32.9519L461.41 34.052L463.362 32.7957L462.653 31.6956C464.104 30.2635 464.137 28.3757 462.809 26.3317C460.023 22.0029 455.297 24.8606 453.286 21.7621Z" fill="#263238"/>
<path d="M99.7077 264.151H99.7631C101.925 263.746 107.27 262.316 110.209 257.803C112.166 254.792 112.31 250.789 112.427 247.579C112.87 235.148 113.68 204.121 113.913 194.906C113.962 193.873 114.411 192.899 115.165 192.19C115.919 191.481 116.918 191.093 117.953 191.106C118.987 191.12 119.976 191.535 120.711 192.263C121.446 192.992 121.869 193.977 121.891 195.011V200.65H123V195.017C122.978 193.691 122.441 192.425 121.502 191.489C120.562 190.552 119.295 190.019 117.969 190C116.643 189.982 115.362 190.482 114.398 191.392C113.433 192.303 112.862 193.553 112.804 194.878C112.571 204.093 111.761 235.12 111.323 247.551C111.212 250.628 111.074 254.454 109.283 257.209C107.414 260.081 103.805 262.266 99.6134 263.064L70.4273 262.787C66.6405 262.005 63.774 260.819 61.1847 257.365C59.8208 255.54 58.8339 253.101 58.0743 249.697C56.4775 242.561 56.5274 235.009 56.5717 227.707C56.6985 222.489 56.543 217.268 56.106 212.066C55.8565 209.621 55.4462 207.076 54.1543 204.986C52.929 203.012 50.4839 201.288 48 202.214L48.3826 203.256C50.1901 202.596 52.1861 203.927 53.2118 205.59C54.3817 207.475 54.7643 209.882 55.0027 212.199C55.4358 217.362 55.5894 222.544 55.4628 227.724C55.4185 235.087 55.3686 242.694 56.9876 249.963C57.786 253.528 58.8339 256.095 60.3142 258.047C63.1197 261.806 66.2025 263.075 70.2943 263.907H70.3996L99.7077 264.151Z" fill="#263238"/>
<path d="M0.561893 280.324L34.1016 280.69V196.329H0.561893V280.324Z" fill="#92E3A9"/>
<path opacity="0.3" d="M0.561893 280.324L34.1016 280.69V196.329H0.561893V280.324Z" fill="#252525"/>
<path d="M15.6781 280.487L49.2178 280.69V196.329H15.6781V280.487Z" fill="#92E3A9"/>
<path d="M50 189.216V190.217H14.4007L0 169.401L0.354534 168L50 189.216Z" fill="#263238"/>
<path d="M37.9965 189.975H39.1445V196.329H37.9965V189.975Z" fill="#263238"/>
<path d="M11.8574 185.378V196.329H10.4674V184.201L11.8574 185.378Z" fill="#263238"/>
<path d="M35.4305 168L50 189.216H14.924L0.35453 168H35.4305Z" fill="#455A64"/>
<path d="M38.0185 189.215C38.086 189.17 34.7996 184.381 30.7028 178.523C26.606 172.665 23.1958 167.955 23.1339 168.006C23.072 168.056 26.3471 172.834 30.4496 178.698C34.552 184.562 37.951 189.26 38.0185 189.215Z" fill="#EBEBEB"/>
<path d="M26.2804 189.215C26.3423 189.17 23.0615 184.381 18.9647 178.523C14.8679 172.665 11.4576 167.955 11.3901 168.006C11.3226 168.056 14.609 172.834 18.7058 178.698C22.8026 184.562 26.2129 189.26 26.2804 189.215Z" fill="#EBEBEB"/>
<path d="M42.3525 178.608C42.3525 178.529 34.5641 178.461 24.958 178.461C15.3519 178.461 7.55792 178.529 7.55792 178.608C7.55792 178.687 15.3463 178.754 24.958 178.754C34.5697 178.754 42.3525 178.692 42.3525 178.608Z" fill="#EBEBEB"/>
<path d="M22.4768 205.333H41.7002V227.01H22.4768V205.333Z" fill="#EBEBEB"/>
<path d="M36.9209 233.132C36.9209 233.653 37.1278 234.153 37.4961 234.521C37.8644 234.889 38.364 235.096 38.8848 235.096C39.3744 235.096 40.6237 235.046 40.6237 235.046C40.9314 234.802 41.183 234.495 41.3616 234.145C41.5403 233.796 41.6417 233.412 41.6592 233.02C41.6512 232.633 41.5346 232.256 41.3226 231.933C41.1106 231.61 40.8119 231.352 40.4605 231.191C40.4605 231.191 39.29 231.191 38.8848 231.191C38.3678 231.191 37.8717 231.395 37.504 231.758C37.1363 232.122 36.9268 232.615 36.9209 233.132Z" fill="#263238"/>
<path d="M40.1962 235.096C39.1115 235.096 38.2322 234.217 38.2322 233.132C38.2322 232.048 39.1115 231.168 40.1962 231.168C41.2809 231.168 42.1602 232.048 42.1602 233.132C42.1602 234.217 41.2809 235.096 40.1962 235.096Z" fill="#455A64"/>
<path d="M29.7636 233.132C29.7636 233.653 29.9705 234.153 30.3389 234.521C30.7072 234.889 31.2067 235.096 31.7276 235.096C32.2172 235.096 33.4665 235.046 33.4665 235.046C33.7741 234.802 34.0257 234.495 34.2044 234.145C34.383 233.796 34.4845 233.412 34.502 233.02C34.494 232.633 34.3774 232.256 34.1654 231.933C33.9534 231.61 33.6546 231.352 33.3033 231.191C33.3033 231.191 32.1328 231.191 31.7276 231.191C31.2106 231.191 30.7144 231.395 30.3468 231.758C29.9791 232.122 29.7696 232.615 29.7636 233.132Z" fill="#263238"/>
<path d="M33.0389 235.096C31.9542 235.096 31.0749 234.217 31.0749 233.132C31.0749 232.048 31.9542 231.168 33.0389 231.168C34.1236 231.168 35.0029 232.048 35.0029 233.132C35.0029 234.217 34.1236 235.096 33.0389 235.096Z" fill="#455A64"/>
<path d="M22.6787 233.132C22.6787 233.653 22.8856 234.153 23.2539 234.521C23.6222 234.889 24.1218 235.096 24.6427 235.096C25.1322 235.096 26.3816 235.046 26.3816 235.046C26.6892 234.802 26.9408 234.495 27.1194 234.145C27.2981 233.796 27.3995 233.412 27.417 233.02C27.407 232.635 27.2894 232.261 27.0775 231.94C26.8656 231.618 26.568 231.363 26.2183 231.202C26.2183 231.202 25.0478 231.202 24.6427 231.202C24.1276 231.202 23.6331 231.404 23.2657 231.765C22.8983 232.126 22.6875 232.617 22.6787 233.132Z" fill="#263238"/>
<path d="M23.99 233.132C23.99 233.521 24.1052 233.9 24.321 234.223C24.5368 234.546 24.8435 234.798 25.2024 234.947C25.5613 235.095 25.9562 235.134 26.3371 235.058C26.7181 234.983 27.0681 234.796 27.3427 234.521C27.6174 234.246 27.8045 233.896 27.8802 233.515C27.956 233.134 27.9171 232.739 27.7685 232.381C27.6198 232.022 27.3681 231.715 27.0451 231.499C26.7222 231.283 26.3424 231.168 25.954 231.168C25.6961 231.168 25.4407 231.219 25.2024 231.318C24.9641 231.416 24.7476 231.561 24.5652 231.743C24.3829 231.926 24.2382 232.142 24.1395 232.381C24.0408 232.619 23.99 232.874 23.99 233.132Z" fill="#455A64"/>
<path d="M31.6255 209.902L35.998 209.964L31.9632 216.171L35.0189 216.21L30.7364 224.742L32.2108 218.4L28.1815 218.349L31.6255 209.902Z" fill="#92E3A9"/>
<path d="M20.6748 276.317C20.6748 276.317 20.6748 276.261 20.6748 276.149C20.6748 276.036 20.6748 275.873 20.6748 275.665C20.6748 275.226 20.6748 274.601 20.6748 273.796C20.6748 272.153 20.6749 269.784 20.7142 266.784C20.7142 260.786 20.7536 252.305 20.7818 242.305L20.6467 242.44H43.4773C43.5111 242.474 43.2016 242.17 43.331 242.305V251.692C43.331 254.747 43.331 257.719 43.331 260.583C43.331 266.312 43.331 271.613 43.331 276.3L43.4492 276.188L26.8482 276.25L22.2505 276.278H21.0406H20.6186C20.6186 276.278 20.748 276.278 21.0125 276.278H22.2055H26.775L43.4492 276.34H43.5674V276.222C43.5674 271.534 43.5674 266.233 43.5674 260.504C43.5674 257.64 43.5674 254.668 43.5674 251.613V242.322C43.6968 242.446 43.3929 242.131 43.421 242.164H20.5904H20.4554V242.294C20.4554 252.327 20.506 260.864 20.5229 266.863C20.5229 269.846 20.5229 272.209 20.5567 273.841C20.5567 274.635 20.5567 275.254 20.5567 275.687C20.5567 275.884 20.5567 276.036 20.5567 276.154C20.5873 276.214 20.6272 276.269 20.6748 276.317Z" fill="#263238"/>
<path d="M23.8382 259.193C23.8044 259.227 23.9676 259.396 23.9057 259.711C23.8929 259.795 23.8621 259.876 23.8155 259.948C23.769 260.02 23.7076 260.081 23.6356 260.127C23.5465 260.165 23.449 260.18 23.3526 260.169C23.2563 260.159 23.1644 260.123 23.0857 260.067C23.007 260.01 22.9443 259.934 22.9036 259.846C22.8629 259.758 22.8456 259.661 22.8534 259.564C22.8757 259.481 22.9153 259.404 22.9696 259.337C23.0239 259.27 23.0917 259.215 23.1685 259.176C23.4499 259.024 23.6637 259.125 23.6806 259.086C23.6975 259.047 23.4837 258.85 23.0841 258.985C22.9684 259.026 22.8639 259.094 22.779 259.183C22.694 259.272 22.6309 259.379 22.5945 259.497C22.5557 259.649 22.5652 259.809 22.6217 259.955C22.6782 260.101 22.7788 260.227 22.9096 260.313C23.0325 260.409 23.1819 260.466 23.3378 260.475C23.4938 260.484 23.6487 260.445 23.7819 260.364C23.8812 260.292 23.9627 260.198 24.0202 260.09C24.0778 259.981 24.1098 259.861 24.1139 259.739C24.1252 259.339 23.8494 259.159 23.8382 259.193Z" fill="#263238"/>
</svg>
