<svg width="491" height="231" viewBox="0 0 491 231" fill="none" xmlns="http://www.w3.org/2000/svg">
<path d="M326.613 0.0485479L290.215 6.28536C289.515 6.40318 288.865 6.72666 288.349 7.21466C287.834 7.70265 287.475 8.33309 287.318 9.02574C287.162 9.71838 287.215 10.4419 287.471 11.1043C287.727 11.7666 288.174 12.3378 288.756 12.7452L295.466 17.4949L254.318 75.6617C254.051 76.0399 253.711 76.3616 253.319 76.6084C252.927 76.8552 252.49 77.0223 252.033 77.1C251.577 77.1777 251.109 77.1645 250.658 77.0613C250.206 76.958 249.779 76.7667 249.401 76.4982L188.92 33.7422C188.154 33.2029 187.206 32.9891 186.282 33.1477C185.359 33.3062 184.536 33.8241 183.994 34.588L62.0742 206.914H105.89L192.545 84.4174C192.813 84.0392 193.152 83.7175 193.544 83.4707C193.937 83.2239 194.373 83.0569 194.83 82.9792C195.287 82.9015 195.754 82.9146 196.206 83.0178C196.658 83.1211 197.085 83.3124 197.462 83.5809L257.943 126.337C258.322 126.605 258.75 126.796 259.203 126.899C259.656 127.001 260.124 127.014 260.582 126.935C261.039 126.857 261.477 126.689 261.87 126.441C262.262 126.193 262.602 125.87 262.87 125.491L324.671 38.12L331.391 42.8697C331.97 43.2688 332.654 43.4889 333.357 43.5026C334.06 43.5163 334.752 43.3229 335.346 42.9465C335.941 42.5701 336.411 42.0274 336.699 41.3858C336.988 40.7441 337.081 40.0319 336.968 39.3377L330.722 2.93923C330.554 2.0144 330.029 1.19277 329.26 0.651881C328.491 0.110989 327.541 -0.105734 326.613 0.0485479V0.0485479Z" fill="#92E3A9"/>
<path opacity="0.2" d="M326.613 0.0485479L290.215 6.28536C289.515 6.40318 288.865 6.72666 288.349 7.21466C287.834 7.70265 287.475 8.33309 287.318 9.02574C287.162 9.71838 287.215 10.4419 287.471 11.1043C287.727 11.7666 288.174 12.3378 288.756 12.7452L295.466 17.4949L254.318 75.6617C254.051 76.0399 253.711 76.3616 253.319 76.6084C252.927 76.8552 252.49 77.0223 252.033 77.1C251.577 77.1777 251.109 77.1645 250.658 77.0613C250.206 76.958 249.779 76.7667 249.401 76.4982L188.92 33.7422C188.154 33.2029 187.206 32.9891 186.282 33.1477C185.359 33.3062 184.536 33.8241 183.994 34.588L62.0742 206.914H105.89L192.545 84.4174C192.813 84.0392 193.152 83.7175 193.544 83.4707C193.937 83.2239 194.373 83.0569 194.83 82.9792C195.287 82.9015 195.754 82.9146 196.206 83.0178C196.658 83.1211 197.085 83.3124 197.462 83.5809L257.943 126.337C258.322 126.605 258.75 126.796 259.203 126.899C259.656 127.001 260.124 127.014 260.582 126.935C261.039 126.857 261.477 126.689 261.87 126.441C262.262 126.193 262.602 125.87 262.87 125.491L324.671 38.12L331.391 42.8697C331.97 43.2688 332.654 43.4889 333.357 43.5026C334.06 43.5163 334.752 43.3229 335.346 42.9465C335.941 42.5701 336.411 42.0274 336.699 41.3858C336.988 40.7441 337.081 40.0319 336.968 39.3377L330.722 2.93923C330.554 2.0144 330.029 1.19277 329.26 0.651881C328.491 0.110989 327.541 -0.105734 326.613 0.0485479V0.0485479Z" fill="#252525"/>
<path opacity="0.2" d="M103.149 201.848H72.3092C72.2666 201.846 72.2253 201.833 72.1894 201.81C72.1535 201.787 72.1243 201.755 72.1047 201.718C72.0825 201.681 72.0708 201.639 72.0708 201.597C72.0708 201.554 72.0825 201.512 72.1047 201.476L185.055 41.7914C185.338 41.3849 185.699 41.0382 186.116 40.7713C186.534 40.5045 187 40.3227 187.488 40.2363C187.976 40.1499 188.476 40.1608 188.96 40.2681C189.443 40.3755 189.901 40.5773 190.307 40.862L250.779 83.618C251.134 83.8757 251.537 84.0598 251.965 84.1597C252.392 84.2595 252.835 84.2731 253.268 84.1995C253.701 84.1259 254.115 83.9667 254.485 83.7312C254.856 83.4957 255.176 83.1886 255.426 82.828L302.56 16.2029L295.124 10.9141C295.084 10.8895 295.054 10.8526 295.037 10.809C295.02 10.7653 295.018 10.7173 295.031 10.6724C295.041 10.628 295.064 10.5876 295.097 10.5562C295.131 10.5248 295.172 10.5038 295.217 10.4959L325.89 5.24429C325.919 5.23898 325.949 5.23961 325.978 5.24613C326.007 5.25266 326.035 5.26495 326.059 5.28228C326.083 5.29961 326.104 5.32162 326.12 5.34703C326.135 5.37243 326.146 5.4007 326.15 5.43018L331.402 36.103C331.409 36.1488 331.403 36.1956 331.385 36.2383C331.367 36.2809 331.337 36.3178 331.299 36.3447C331.261 36.3695 331.215 36.3827 331.169 36.3827C331.123 36.3827 331.078 36.3695 331.039 36.3447L323.603 31.0559L261.932 118.241C261.649 118.646 261.289 118.992 260.872 119.258C260.456 119.524 259.99 119.705 259.504 119.792C259.017 119.878 258.518 119.868 258.035 119.761C257.552 119.654 257.095 119.454 256.69 119.171L196.209 76.4146C195.855 76.1642 195.455 75.986 195.032 75.8902C194.609 75.7944 194.172 75.7828 193.745 75.8562C193.317 75.9295 192.909 76.0864 192.542 76.3178C192.175 76.5491 191.858 76.8505 191.608 77.2046L103.344 201.746C103.322 201.777 103.293 201.802 103.259 201.82C103.225 201.838 103.188 201.847 103.149 201.848V201.848ZM72.7553 201.383H103.028L191.087 76.8979C191.661 76.0788 192.536 75.5208 193.521 75.3465C194.505 75.1723 195.519 75.3959 196.339 75.9684L256.82 118.724C257.174 118.975 257.574 119.153 257.997 119.249C258.419 119.345 258.857 119.356 259.284 119.283C259.712 119.209 260.12 119.053 260.487 118.821C260.854 118.59 261.171 118.289 261.421 117.934L323.222 30.5633C323.238 30.5373 323.26 30.5153 323.286 30.4992C323.311 30.4831 323.341 30.4732 323.371 30.4704C323.398 30.4572 323.429 30.4503 323.459 30.4503C323.49 30.4503 323.52 30.4572 323.547 30.4704L330.751 35.5639L325.63 5.81127L295.784 10.9234L302.987 16.017C303.035 16.0537 303.068 16.1065 303.08 16.1657C303.104 16.2222 303.104 16.2857 303.08 16.3423L255.816 83.1626C255.533 83.5672 255.171 83.9113 254.753 84.1746C254.335 84.4379 253.869 84.6152 253.381 84.6962C252.405 84.8584 251.404 84.6315 250.593 84.0642L190.121 41.3081C189.765 41.0504 189.362 40.8663 188.934 40.7664C188.507 40.6666 188.064 40.653 187.631 40.7266C187.198 40.8002 186.784 40.9594 186.414 41.1949C186.043 41.4304 185.724 41.7375 185.473 42.0982L72.7553 201.383Z" fill="white"/>
<path d="M378.658 203.626L132.919 204.012L132.862 167.643L378.601 167.257L378.658 203.626Z" fill="#455A64"/>
<path d="M120.07 140.851C120.07 140.851 126.215 141.538 127.307 140.851C129.779 139.261 183.564 117.577 229.781 117.527C266.848 117.477 300.225 127.308 332.687 148.981C332.687 148.981 372.22 153.336 387.659 164.907C391.266 167.002 398.631 175.259 395.821 194.011C394.031 205.97 385.126 206.474 372.963 206.203C372.963 206.203 377.49 169.878 345.116 172.654C317.608 175.009 322.873 208.591 322.873 208.591L185.039 208.807C185.039 208.807 184.435 193.889 183.847 190.276C182.678 183.039 173.684 171.18 156.893 172.942C138.473 174.876 132.344 191.684 133.525 205.87C133.525 205.87 114.09 210.07 111.464 194.438L106.826 192.997C106.826 192.997 105.041 160.568 121.233 146.936L117.759 144.625L120.07 140.851Z" fill="#92E3A9"/>
<path d="M129.236 139.815C129.236 139.815 130.383 142.94 134.334 142.586C137.554 142.303 155.946 135.332 162.651 132.761C163.609 132.41 164.47 131.839 165.166 131.094C165.862 130.349 166.373 129.451 166.658 128.471C166.798 128.06 166.829 127.619 166.746 127.191C166.746 127.191 138.152 134.063 129.236 139.815Z" fill="#455A64"/>
<path d="M287.118 126.232C287.124 127.547 287.5 128.834 288.204 129.945C288.908 131.055 289.911 131.945 291.097 132.511L330.442 151.258L332.692 148.836C332.692 148.836 328.58 145.877 323.205 142.68C318.217 139.726 312.122 136.584 308.481 134.811C301.576 131.442 294.436 128.575 287.118 126.232V126.232Z" fill="#455A64"/>
<g opacity="0.3">
<path opacity="0.3" d="M156.494 142.591C156.228 142.819 156.015 143.101 155.869 143.418C155.723 143.736 155.647 144.081 155.647 144.431C155.647 144.781 155.723 145.126 155.869 145.444C156.015 145.761 156.228 146.044 156.494 146.271C158.444 148.26 167.738 155.171 172.054 155.592C176.371 156.013 307.467 164.763 315.225 162.541C322.983 160.319 327.527 156.384 325.577 154.123L322.058 152.959L260.259 154.223L156.494 142.591Z" fill="white"/>
</g>
<g opacity="0.7">
<path opacity="0.7" d="M108.809 170.465C108.809 170.465 116.44 172.726 119.699 166.708C122.957 160.69 126.548 154.328 126.548 152.954C126.548 151.231 125.312 145.689 121.234 146.814C121.234 146.814 109.89 155.852 108.809 170.465Z" fill="white"/>
</g>
<g opacity="0.7">
<path opacity="0.7" d="M391.017 176.639C391.017 176.639 361.47 164.818 366.252 160.79C368.774 158.662 393.068 170.366 391.017 176.639" fill="white"/>
</g>
<path d="M378.953 206.097C378.953 206.097 378.953 205.997 378.953 205.803C378.953 205.609 378.986 205.316 378.992 204.928C378.992 204.163 379.025 203.038 378.992 201.603C378.828 197.494 378.196 193.416 377.108 189.45C376.354 186.703 375.3 184.048 373.966 181.532C372.444 178.632 370.417 176.028 367.981 173.84L367 172.981L365.942 172.2C365.217 171.674 364.466 171.185 363.692 170.737C363.309 170.498 362.888 170.321 362.484 170.11C362.079 169.9 361.675 169.684 361.242 169.512L359.951 169.002L359.297 168.747L358.627 168.542C357.718 168.247 356.793 168.005 355.856 167.816L354.449 167.523C353.972 167.451 353.49 167.401 353.013 167.334C352.537 167.268 352.049 167.207 351.561 167.157L350.098 167.085C349.112 167.004 348.122 166.982 347.134 167.018C343.249 167.009 339.397 167.723 335.774 169.124C332.409 170.464 329.381 172.53 326.907 175.175C324.702 177.592 322.902 180.348 321.576 183.338C320.414 185.932 319.518 188.637 318.9 191.412C318.011 195.416 317.543 199.502 317.503 203.603C317.503 205.061 317.542 206.191 317.586 206.956C317.586 207.333 317.636 207.627 317.658 207.821C317.681 208.014 317.703 208.114 317.703 208.114C317.703 208.114 317.703 208.014 317.703 207.821C317.703 207.627 317.703 207.322 317.664 206.951C317.631 206.186 317.609 205.061 317.664 203.626C317.738 199.522 318.234 195.437 319.144 191.434C319.772 188.679 320.675 185.992 321.837 183.416C323.16 180.454 324.953 177.726 327.145 175.336C329.601 172.721 332.607 170.682 335.945 169.368C339.537 167.981 343.356 167.274 347.206 167.284C351.052 167.186 354.889 167.694 358.577 168.792L359.247 168.991L359.89 169.246L361.17 169.745C361.597 169.917 361.991 170.144 362.395 170.338C362.8 170.532 363.215 170.72 363.592 170.958C364.356 171.397 365.096 171.876 365.809 172.394L366.862 173.169L367.831 174.017C370.25 176.181 372.265 178.757 373.783 181.626C375.126 184.113 376.191 186.741 376.958 189.461C378.063 193.41 378.724 197.469 378.931 201.564C379.003 203.016 379.014 204.141 379.009 204.889V205.759C378.953 205.997 378.953 206.097 378.953 206.097Z" fill="#263238"/>
<path d="M189.682 208.68C189.682 208.68 189.682 208.58 189.721 208.386C189.76 208.192 189.76 207.909 189.782 207.532C189.832 206.779 189.876 205.659 189.865 204.208C189.848 200.147 189.4 196.099 188.529 192.133C187.931 189.39 187.059 186.715 185.925 184.147C184.62 181.191 182.836 178.47 180.644 176.095C178.202 173.477 175.202 171.441 171.866 170.138C168.274 168.768 164.462 168.064 160.617 168.06C156.788 167.907 152.959 168.354 149.268 169.385C149.046 169.451 148.819 169.501 148.603 169.573L147.954 169.811L146.663 170.293C145.821 170.626 145.001 171.058 144.214 171.435C143.455 171.9 142.673 172.322 141.959 172.826L140.911 173.596C140.739 173.724 140.557 173.846 140.396 173.984L139.914 174.411C137.476 176.537 135.442 179.084 133.907 181.931C132.584 184.409 131.554 187.033 130.837 189.75C129.792 193.675 129.234 197.714 129.174 201.775C129.147 203.21 129.174 204.329 129.235 205.1C129.235 205.477 129.28 205.765 129.302 205.959C129.324 206.153 129.346 206.247 129.346 206.247C129.356 206.149 129.356 206.051 129.346 205.953C129.346 205.748 129.346 205.466 129.302 205.094C129.302 204.341 129.252 203.227 129.302 201.797C129.403 197.749 129.986 193.727 131.036 189.816C131.767 187.121 132.803 184.519 134.123 182.058C135.658 179.242 137.687 176.725 140.113 174.627L140.59 174.206C140.756 174.073 140.933 173.956 141.1 173.823L142.141 173.064C142.845 172.571 143.621 172.155 144.358 171.695C145.162 171.324 145.948 170.897 146.785 170.587L148.06 170.116L148.703 169.883C148.919 169.806 149.146 169.756 149.368 169.695C153.024 168.664 156.82 168.211 160.617 168.354C164.42 168.362 168.19 169.061 171.744 170.415C175.05 171.696 178.025 173.704 180.45 176.289C182.628 178.639 184.405 181.331 185.709 184.258C186.838 186.811 187.714 189.469 188.324 192.194C189.204 196.145 189.679 200.176 189.743 204.224C189.771 205.659 189.743 206.773 189.715 207.549C189.715 207.92 189.715 208.203 189.677 208.408C189.638 208.613 189.682 208.68 189.682 208.68Z" fill="#263238"/>
<path d="M157.791 142.586C157.791 142.586 169.251 152.56 174.216 152.56C179.181 152.56 310.044 160.496 315.868 158.141C318.937 156.961 321.902 155.53 324.735 153.863C324.735 153.863 282.032 123.107 232.269 124.581C195.739 125.662 157.791 142.586 157.791 142.586Z" fill="#455A64"/>
<path d="M298.301 139.178L306.946 158.573L311.334 158.568L304.191 141.965L298.301 139.178Z" fill="#263238"/>
<g opacity="0.3">
<path opacity="0.3" d="M189.21 167.552L204.726 167.527L204.721 164.43C204.721 164.243 204.647 164.064 204.514 163.932C204.382 163.801 204.203 163.727 204.016 163.727L189.908 163.749C189.721 163.749 189.542 163.824 189.41 163.956C189.279 164.088 189.205 164.267 189.205 164.454L189.21 167.524L189.21 167.552Z" fill="#252525"/>
</g>
<g opacity="0.3">
<path opacity="0.3" d="M249.685 167.458L265.201 167.434L265.197 164.364C265.196 164.177 265.122 163.999 264.99 163.867C264.858 163.735 264.678 163.661 264.492 163.661L250.378 163.684C250.191 163.684 250.012 163.758 249.88 163.891C249.748 164.023 249.675 164.202 249.675 164.388L249.68 167.458L249.685 167.458Z" fill="#252525"/>
</g>
<path d="M195.973 129.912L182.424 152.937L195.047 153.613L193.418 142.536L201.708 128.582L195.973 129.912Z" fill="#263238"/>
<path d="M245.368 124.909L247.479 156.362L242.874 156.135L240.885 124.626L245.368 124.909Z" fill="#263238"/>
<path d="M304.343 163.328L302.376 161.294L305.507 157.31L308.2 159.886C308.601 160.228 308.85 160.714 308.893 161.239C309.269 163.716 306.083 165.123 304.343 163.328Z" fill="#263238"/>
<path d="M296.384 162.58C291.602 162.74 287.839 157.864 289.828 153.508C290.035 152.978 290.374 152.509 290.814 152.147C291.253 151.785 291.778 151.542 292.339 151.441C297.326 150.571 303.782 150.25 305.522 157.31C306.032 159.399 304.863 160.69 302.951 161.471C301.133 162.214 298.678 162.497 296.384 162.58Z" fill="#92E3A9"/>
<path d="M326.814 200.236C325.978 188.155 335.094 177.683 347.175 176.846C359.257 176.01 369.729 185.126 370.565 197.208C371.402 209.289 362.286 219.761 350.204 220.597C338.123 221.434 327.651 212.318 326.814 200.236Z" fill="#263238"/>
<path d="M348.669 184.108C351.558 184.101 354.385 184.95 356.792 186.549C359.199 188.149 361.077 190.426 362.189 193.093C363.302 195.759 363.598 198.696 363.041 201.532C362.484 204.367 361.099 206.973 359.06 209.021C357.021 211.069 354.421 212.466 351.589 213.036C348.756 213.606 345.818 213.323 343.146 212.223C340.474 211.123 338.188 209.255 336.578 206.856C334.968 204.456 334.106 201.633 334.1 198.744C334.096 196.826 334.469 194.926 335.199 193.153C335.929 191.38 337.001 189.768 338.353 188.409C339.706 187.05 341.313 185.971 343.083 185.233C344.853 184.495 346.751 184.113 348.669 184.108V184.108ZM360.389 198.705C360.386 196.391 359.696 194.13 358.408 192.208C357.12 190.287 355.291 188.79 353.152 187.907C351.013 187.025 348.661 186.797 346.392 187.251C344.124 187.706 342.041 188.823 340.407 190.461C338.774 192.1 337.662 194.186 337.214 196.456C336.766 198.725 337.001 201.077 337.89 203.214C338.778 205.35 340.28 207.175 342.206 208.457C344.131 209.74 346.394 210.423 348.708 210.42C351.808 210.409 354.779 209.171 356.968 206.975C359.157 204.779 360.388 201.806 360.389 198.705V198.705Z" fill="#E0E0E0"/>
<path d="M348.674 187.001C350.99 186.996 353.255 187.677 355.184 188.959C357.112 190.242 358.617 192.067 359.509 194.204C360.4 196.342 360.637 198.695 360.191 200.968C359.745 203.24 358.634 205.329 357.001 206.971C355.367 208.612 353.283 209.732 351.013 210.19C348.743 210.647 346.388 210.42 344.246 209.539C342.104 208.658 340.272 207.162 338.981 205.239C337.69 203.317 336.998 201.054 336.992 198.738C336.988 195.634 338.215 192.654 340.405 190.454C342.595 188.253 345.569 187.012 348.674 187.001V187.001Z" fill="#F5F5F5"/>
<path d="M352.149 198.755C352.15 199.439 351.948 200.107 351.569 200.677C351.19 201.246 350.651 201.69 350.019 201.953C349.388 202.215 348.693 202.285 348.022 202.153C347.351 202.02 346.734 201.692 346.25 201.209C345.765 200.726 345.435 200.111 345.301 199.44C345.166 198.77 345.234 198.074 345.494 197.442C345.755 196.81 346.197 196.269 346.765 195.888C347.333 195.507 348.002 195.303 348.685 195.302C349.14 195.302 349.589 195.39 350.009 195.563C350.429 195.736 350.811 195.991 351.132 196.311C351.454 196.632 351.709 197.012 351.884 197.432C352.058 197.851 352.148 198.301 352.149 198.755V198.755Z" fill="#263238"/>
<path d="M144.516 215.004C135.953 206.441 135.953 192.557 144.516 183.994C153.079 175.43 166.963 175.43 175.526 183.994C184.09 192.557 184.09 206.441 175.526 215.004C166.963 223.568 153.079 223.568 144.516 215.004Z" fill="#263238"/>
<path d="M160.002 184.89C162.891 184.882 165.718 185.731 168.124 187.33C170.531 188.929 172.409 191.206 173.522 193.873C174.634 196.539 174.931 199.476 174.374 202.311C173.818 205.146 172.433 207.753 170.395 209.801C168.357 211.849 165.757 213.246 162.925 213.817C160.093 214.387 157.155 214.105 154.483 213.006C151.811 211.907 149.525 210.039 147.914 207.641C146.303 205.242 145.44 202.42 145.433 199.53C145.424 195.657 146.954 191.939 149.686 189.194C152.418 186.448 156.129 184.9 160.002 184.89ZM171.7 199.492C171.698 197.176 171.008 194.913 169.719 192.989C168.429 191.066 166.598 189.568 164.457 188.686C162.315 187.804 159.96 187.578 157.69 188.035C155.42 188.493 153.337 189.614 151.704 191.257C150.072 192.899 148.964 194.989 148.52 197.262C148.077 199.535 148.318 201.889 149.213 204.024C150.108 206.16 151.617 207.982 153.548 209.26C155.48 210.537 157.747 211.213 160.063 211.201C163.155 211.18 166.114 209.938 168.294 207.744C170.474 205.551 171.699 202.584 171.7 199.492V199.492Z" fill="#E0E0E0"/>
<path d="M160.008 187.788C162.324 187.782 164.59 188.462 166.519 189.743C168.448 191.025 169.954 192.85 170.846 194.987C171.739 197.124 171.977 199.478 171.531 201.751C171.085 204.024 169.975 206.113 168.342 207.755C166.709 209.397 164.625 210.518 162.354 210.976C160.084 211.433 157.729 211.207 155.587 210.326C153.445 209.445 151.612 207.949 150.321 206.026C149.029 204.104 148.337 201.841 148.332 199.525C148.326 196.421 149.552 193.441 151.741 191.241C153.93 189.04 156.903 187.798 160.008 187.788V187.788Z" fill="#F5F5F5"/>
<path d="M163.483 199.564C163.484 200.248 163.282 200.917 162.903 201.487C162.524 202.056 161.984 202.5 161.352 202.763C160.72 203.025 160.025 203.095 159.354 202.962C158.683 202.829 158.066 202.5 157.582 202.017C157.098 201.533 156.768 200.917 156.634 200.246C156.5 199.575 156.568 198.88 156.83 198.248C157.091 197.616 157.535 197.075 158.103 196.695C158.672 196.315 159.341 196.112 160.025 196.112C160.941 196.112 161.82 196.475 162.468 197.123C163.116 197.77 163.481 198.648 163.483 199.564V199.564Z" fill="#263238"/>
<path d="M149.64 158.302C149.649 158.976 149.857 159.632 150.239 160.188C150.621 160.744 151.16 161.173 151.786 161.423C152.412 161.673 153.099 161.731 153.758 161.59C154.417 161.45 155.02 161.117 155.49 160.633C155.961 160.15 156.277 159.538 156.399 158.875C156.521 158.212 156.444 157.528 156.177 156.908C155.91 156.289 155.466 155.763 154.9 155.397C154.334 155.03 153.672 154.84 152.998 154.849C152.095 154.863 151.234 155.234 150.605 155.881C149.975 156.528 149.628 157.399 149.64 158.302V158.302Z" fill="#263238"/>
<path d="M189.766 200.949H190.093H191.063L194.787 201.021L208.474 201.243L253.643 201.797C271.287 201.98 287.264 202.096 298.823 202.113C304.603 202.113 309.286 202.113 312.516 202.058C315.747 202.002 317.548 201.93 317.504 201.825C317.079 201.893 316.648 201.921 316.218 201.908C315.37 201.908 314.112 201.941 312.5 201.947C309.269 201.947 304.586 201.947 298.807 201.914L253.632 201.503L208.463 201.027L194.77 200.899H191.046H190.076L189.766 200.949Z" fill="#263238"/>
<path d="M245.673 208.574C245.756 208.574 245.673 196.937 245.446 182.607C245.219 168.276 245.003 156.634 244.925 156.639C244.847 156.645 244.925 168.276 245.158 182.607C245.39 196.937 245.595 208.574 245.673 208.574Z" fill="#263238"/>
<path d="M215.268 133.758C215.218 133.819 218.792 137.083 223.253 141.051C227.714 145.018 231.372 148.183 231.427 148.122C231.483 148.061 227.903 144.797 223.442 140.835C218.981 136.872 215.323 133.703 215.268 133.758Z" fill="#F5F5F5"/>
<path d="M217.025 140.042C217.195 140.24 217.381 140.425 217.579 140.596C217.944 140.945 218.482 141.438 219.158 142.037C220.505 143.245 222.389 144.874 224.517 146.625C226.645 148.376 228.612 149.917 230.058 151.009C230.779 151.563 231.366 151.984 231.776 152.278C231.982 152.442 232.203 152.587 232.436 152.71C232.256 152.519 232.059 152.345 231.848 152.189L230.186 150.848C228.778 149.74 226.861 148.155 224.705 146.415C222.549 144.675 220.676 143.057 219.297 141.893L217.634 140.524C217.449 140.342 217.244 140.18 217.025 140.042V140.042Z" fill="#F5F5F5"/>
<path d="M262.11 134.451C262.066 134.517 267.28 138.152 273.747 142.575C280.214 146.997 285.512 150.527 285.556 150.46C285.601 150.394 280.392 146.758 273.919 142.336C267.447 137.914 262.155 134.384 262.11 134.451Z" fill="#F5F5F5"/>
<path d="M257.256 134.229C257.463 134.433 257.687 134.619 257.927 134.783L259.811 136.235L266.034 141.012L272.202 145.861L274.069 147.335C274.29 147.526 274.527 147.696 274.778 147.845C274.583 147.628 274.37 147.428 274.141 147.246C273.72 146.875 273.099 146.348 272.329 145.7C270.788 144.414 268.633 142.663 266.233 140.785C263.834 138.906 261.584 137.244 259.955 136.069C259.14 135.481 258.475 135.016 258.01 134.7C257.773 134.52 257.521 134.363 257.256 134.229V134.229Z" fill="#F5F5F5"/>
<path d="M335.496 150.172C335.546 150.191 335.598 150.202 335.651 150.206L336.095 150.272L337.812 150.505C339.303 150.71 341.459 151.015 344.108 151.469C351.017 152.654 357.844 154.281 364.545 156.34C368.468 157.548 372.153 158.85 375.467 160.142C378.42 161.231 381.296 162.516 384.079 163.987C385.947 164.991 387.678 166.229 389.232 167.672C389.515 167.922 389.742 168.166 389.942 168.371C390.141 168.576 390.313 168.759 390.44 168.925L390.745 169.257C390.778 169.297 390.813 169.334 390.85 169.368C390.85 169.368 390.85 169.318 390.767 169.241L390.485 168.886C390.363 168.731 390.208 168.543 390.008 168.332C389.809 168.121 389.587 167.866 389.31 167.606C387.775 166.123 386.049 164.853 384.178 163.827C381.4 162.325 378.521 161.017 375.561 159.914C372.236 158.607 368.557 157.288 364.628 156.085C357.92 154.019 351.079 152.416 344.152 151.286C341.492 150.859 339.331 150.582 337.835 150.411L336.111 150.233L335.662 150.195C335.609 150.177 335.552 150.17 335.496 150.172Z" fill="#F5F5F5"/>
<path d="M197.479 121.312H197.706L198.377 121.201L200.937 120.758C203.153 120.381 206.39 119.871 210.396 119.389C220.833 118.092 231.372 117.825 241.861 118.591C254.147 119.555 265.074 122.005 272.893 123.922C276.811 124.897 279.964 125.745 282.142 126.344L284.653 127.025L285.306 127.197C285.38 127.222 285.456 127.238 285.534 127.247C285.463 127.213 285.388 127.187 285.312 127.169L284.669 126.97L282.176 126.233C280.003 125.601 276.856 124.72 272.943 123.722C265.119 121.755 254.185 119.289 241.872 118.303C231.366 117.531 220.809 117.826 210.363 119.184C206.351 119.694 203.126 120.237 200.904 120.647C199.795 120.846 198.936 121.029 198.355 121.14L197.69 121.279C197.618 121.282 197.548 121.294 197.479 121.312Z" fill="#F5F5F5"/>
<path d="M290.504 153.015C290.748 153.011 290.991 152.987 291.23 152.943C291.69 152.887 292.339 152.804 293.186 152.765C295.345 152.636 297.51 152.867 299.592 153.447C300.728 153.779 301.794 154.312 302.74 155.021C303.505 155.607 304.146 156.34 304.624 157.176C305.054 157.959 305.333 158.817 305.444 159.703C305.444 159.703 305.444 159.637 305.444 159.515C305.447 159.33 305.436 159.144 305.411 158.961C305.315 158.298 305.105 157.657 304.79 157.066C304.32 156.187 303.673 155.415 302.89 154.799C301.925 154.05 300.83 153.486 299.659 153.137C297.546 152.546 295.345 152.339 293.159 152.527C292.498 152.578 291.841 152.668 291.192 152.799C290.955 152.846 290.725 152.918 290.504 153.015V153.015Z" fill="#F5F5F5"/>
<path d="M249.88 160.535C249.88 160.618 257.937 161.161 267.884 161.754C277.831 162.347 285.9 162.763 285.905 162.685C285.911 162.608 277.853 162.059 267.901 161.466C257.948 160.873 249.885 160.458 249.88 160.535Z" fill="#F5F5F5"/>
<path d="M340.539 167.229C340.587 167.234 340.635 167.234 340.683 167.229L341.088 167.14C341.442 167.074 341.952 166.913 342.634 166.808C344.544 166.453 346.482 166.267 348.425 166.253C351.304 166.2 354.179 166.487 356.992 167.107C360.449 167.812 363.746 169.15 366.717 171.052C369.631 173.04 372.143 175.562 374.121 178.484C375.741 180.864 377.01 183.466 377.889 186.208C378.483 188.058 378.886 189.963 379.091 191.894C379.197 192.576 379.191 193.113 379.23 193.473L379.263 193.883C379.257 193.931 379.257 193.98 379.263 194.028C379.271 193.98 379.271 193.931 379.263 193.883V193.473C379.263 193.108 379.263 192.57 379.18 191.883C379.018 189.937 378.646 188.014 378.072 186.147C377.213 183.374 375.953 180.742 374.331 178.334C372.355 175.35 369.822 172.774 366.872 170.748C363.875 168.824 360.545 167.478 357.053 166.78C354.217 166.17 351.318 165.903 348.419 165.982C346.466 166.022 344.522 166.247 342.611 166.652C341.93 166.774 341.426 166.957 341.071 167.04L340.672 167.157L340.539 167.229Z" fill="#F5F5F5"/>
<path d="M134.666 207.866H134.712C136.501 207.531 140.925 206.347 143.357 202.612C144.977 200.12 145.096 196.807 145.193 194.15C145.56 183.861 146.23 158.182 146.423 150.555C146.464 149.7 146.835 148.894 147.459 148.307C148.083 147.72 148.91 147.399 149.766 147.41C150.623 147.422 151.441 147.765 152.049 148.368C152.657 148.971 153.008 149.786 153.026 150.642V155.309H153.944V150.647C153.926 149.549 153.481 148.502 152.704 147.727C151.926 146.952 150.878 146.51 149.78 146.495C148.682 146.48 147.622 146.893 146.824 147.647C146.026 148.401 145.553 149.436 145.505 150.532C145.312 158.159 144.642 183.839 144.28 194.127C144.188 196.674 144.073 199.84 142.591 202.121C141.044 204.498 138.057 206.306 134.588 206.967L110.432 206.737C107.298 206.09 104.925 205.108 102.782 202.249C101.653 200.739 100.836 198.72 100.208 195.903C98.8862 189.997 98.9275 183.747 98.9642 177.703C99.0691 173.384 98.9404 169.063 98.5788 164.758C98.3723 162.734 98.0327 160.628 96.9635 158.898C95.9493 157.264 93.9256 155.837 91.8698 156.603L92.1864 157.466C93.6824 156.92 95.3344 158.021 96.1833 159.398C97.1516 160.958 97.4682 162.95 97.6656 164.868C98.0241 169.141 98.1512 173.43 98.0464 177.717C98.0097 183.811 97.9684 190.107 99.3084 196.123C99.9692 199.074 100.836 201.198 102.062 202.814C104.384 205.925 106.935 206.976 110.322 207.664H110.409L134.666 207.866Z" fill="#263238"/>
<path d="M52.6075 217.941L80.3667 218.244V148.422H52.6075V217.941Z" fill="#92E3A9"/>
<path opacity="0.3" d="M52.6075 217.941L80.3667 218.244V148.422H52.6075V217.941Z" fill="#252525"/>
<path d="M65.1182 218.076L92.8774 218.244V148.422H65.1182V218.076Z" fill="#92E3A9"/>
<path d="M93.5249 142.535V143.364H64.061L52.1422 126.135L52.4356 124.976L93.5249 142.535Z" fill="#263238"/>
<path d="M83.5904 143.164H84.5405V148.422H83.5904V143.164Z" fill="#263238"/>
<path d="M61.9561 139.359V148.422H60.8056V138.385L61.9561 139.359Z" fill="#263238"/>
<path d="M81.4664 124.976L93.5249 142.535H64.4941L52.4356 124.976H81.4664Z" fill="#455A64"/>
<path d="M83.6085 142.535C83.6644 142.498 80.9444 138.534 77.5537 133.685C74.1629 128.837 71.3404 124.938 71.2892 124.98C71.238 125.022 73.9487 128.977 77.3441 133.83C80.7394 138.683 83.5526 142.572 83.6085 142.535Z" fill="#EBEBEB"/>
<path d="M73.8928 142.535C73.9441 142.498 71.2287 138.534 67.838 133.685C64.4472 128.837 61.6247 124.938 61.5688 124.98C61.5129 125.022 64.233 128.977 67.6237 133.83C71.0144 138.683 73.837 142.572 73.8928 142.535Z" fill="#EBEBEB"/>
<path d="M87.1958 133.755C87.1958 133.69 80.7497 133.634 72.7992 133.634C64.8487 133.634 58.3979 133.69 58.3979 133.755C58.3979 133.821 64.844 133.876 72.7992 133.876C80.7543 133.876 87.1958 133.825 87.1958 133.755Z" fill="#EBEBEB"/>
<path d="M70.7454 155.874H86.6558V173.815H70.7454V155.874Z" fill="#EBEBEB"/>
<path d="M82.6999 178.883C82.6999 179.314 82.8712 179.727 83.176 180.032C83.4808 180.337 83.8943 180.508 84.3254 180.508C84.7306 180.508 85.7646 180.466 85.7646 180.466C86.0192 180.265 86.2275 180.01 86.3753 179.721C86.5232 179.432 86.6071 179.114 86.6216 178.79C86.615 178.47 86.5185 178.158 86.343 177.89C86.1676 177.623 85.9203 177.41 85.6295 177.276C85.6295 177.276 84.6607 177.276 84.3254 177.276C83.8975 177.276 83.4869 177.445 83.1825 177.745C82.8782 178.046 82.7048 178.455 82.6999 178.883V178.883Z" fill="#263238"/>
<path d="M85.4106 180.508C84.5129 180.508 83.7851 179.781 83.7851 178.883C83.7851 177.985 84.5129 177.257 85.4106 177.257C86.3084 177.257 87.0361 177.985 87.0361 178.883C87.0361 179.781 86.3084 180.508 85.4106 180.508Z" fill="#455A64"/>
<path d="M76.7761 178.883C76.7761 179.314 76.9473 179.727 77.2521 180.032C77.557 180.337 77.9705 180.508 78.4016 180.508C78.8068 180.508 79.8407 180.466 79.8407 180.466C80.0953 180.265 80.3036 180.01 80.4515 179.721C80.5993 179.432 80.6833 179.114 80.6978 178.79C80.6912 178.47 80.5946 178.158 80.4192 177.89C80.2437 177.623 79.9965 177.41 79.7057 177.276C79.7057 177.276 78.7369 177.276 78.4016 177.276C77.9737 177.276 77.563 177.445 77.2587 177.745C76.9544 178.046 76.781 178.455 76.7761 178.883V178.883Z" fill="#263238"/>
<path d="M79.4868 180.508C78.589 180.508 77.8613 179.781 77.8613 178.883C77.8613 177.985 78.589 177.257 79.4868 177.257C80.3845 177.257 81.1123 177.985 81.1123 178.883C81.1123 179.781 80.3845 180.508 79.4868 180.508Z" fill="#455A64"/>
<path d="M70.9123 178.883C70.9123 179.314 71.0836 179.727 71.3884 180.032C71.6932 180.337 72.1067 180.508 72.5378 180.508C72.943 180.508 73.977 180.466 73.977 180.466C74.2316 180.264 74.4399 180.01 74.5877 179.721C74.7356 179.432 74.8195 179.114 74.834 178.79C74.8257 178.471 74.7284 178.161 74.553 177.896C74.3777 177.63 74.1313 177.418 73.8419 177.285C73.8419 177.285 72.8731 177.285 72.5378 177.285C72.1115 177.285 71.7022 177.453 71.3982 177.751C71.0941 178.05 70.9196 178.456 70.9123 178.883V178.883Z" fill="#263238"/>
<path d="M71.9976 178.883C71.9976 179.204 72.0929 179.519 72.2715 179.786C72.4501 180.053 72.704 180.262 73.001 180.385C73.298 180.508 73.6248 180.54 73.9402 180.477C74.2555 180.414 74.5451 180.26 74.7724 180.032C74.9998 179.805 75.1546 179.515 75.2173 179.2C75.28 178.885 75.2478 178.558 75.1248 178.261C75.0018 177.964 74.7935 177.71 74.5261 177.531C74.2588 177.353 73.9445 177.257 73.623 177.257C73.4096 177.257 73.1982 177.299 73.001 177.381C72.8038 177.463 72.6246 177.582 72.4736 177.733C72.3227 177.884 72.203 178.064 72.1213 178.261C72.0396 178.458 71.9976 178.669 71.9976 178.883Z" fill="#455A64"/>
<path d="M78.3176 159.656L81.9365 159.707L78.597 164.845L81.1261 164.877L77.5817 171.938L78.802 166.689L75.4671 166.647L78.3176 159.656Z" fill="#92E3A9"/>
<path d="M69.2538 214.625C69.2538 214.625 69.2538 214.578 69.2538 214.485C69.2538 214.392 69.2538 214.257 69.2538 214.085C69.2538 213.721 69.2538 213.204 69.2538 212.538C69.2538 211.178 69.2538 209.218 69.2864 206.735C69.2864 201.77 69.319 194.751 69.3423 186.475L69.2305 186.586H88.1263C88.1543 186.614 87.8981 186.363 88.0052 186.475V194.243C88.0052 196.772 88.0052 199.232 88.0052 201.602C88.0052 206.344 88.0052 210.731 88.0052 214.611L88.103 214.518L74.3631 214.569L70.5579 214.592H69.5565H69.2072C69.2072 214.592 69.3143 214.592 69.5332 214.592H70.5206H74.3026L88.103 214.644H88.2009V214.546C88.2009 210.666 88.2009 206.279 88.2009 201.537C88.2009 199.166 88.2009 196.707 88.2009 194.178V186.488C88.308 186.591 88.0565 186.33 88.0797 186.358H69.1839H69.0721V186.465C69.0721 194.77 69.114 201.835 69.128 206.8C69.128 209.269 69.128 211.225 69.1559 212.576C69.1559 213.232 69.1559 213.745 69.1559 214.103C69.1559 214.266 69.1559 214.392 69.1559 214.49C69.1813 214.54 69.2143 214.585 69.2538 214.625V214.625Z" fill="#263238"/>
<path d="M71.8721 200.452C71.8441 200.48 71.9792 200.62 71.928 200.881C71.9174 200.951 71.8919 201.018 71.8534 201.077C71.8148 201.137 71.764 201.187 71.7044 201.225C71.6307 201.257 71.55 201.269 71.4702 201.26C71.3905 201.251 71.3144 201.222 71.2493 201.175C71.1841 201.128 71.1322 201.065 71.0985 200.993C71.0649 200.92 71.0505 200.84 71.057 200.76C71.0755 200.691 71.1082 200.626 71.1532 200.571C71.1981 200.516 71.2542 200.47 71.3178 200.438C71.5507 200.312 71.7277 200.396 71.7417 200.364C71.7557 200.331 71.5787 200.168 71.248 200.28C71.1522 200.314 71.0658 200.37 70.9954 200.444C70.9251 200.518 70.8728 200.606 70.8428 200.704C70.8106 200.829 70.8185 200.962 70.8652 201.083C70.912 201.204 70.9953 201.308 71.1036 201.379C71.2053 201.459 71.3289 201.506 71.458 201.513C71.587 201.521 71.7153 201.488 71.8255 201.421C71.9077 201.361 71.9751 201.284 72.0228 201.194C72.0704 201.105 72.0969 201.005 72.1003 200.904C72.1096 200.573 71.8814 200.424 71.8721 200.452Z" fill="#263238"/>
<path d="M395.701 200.507H453.666V211.417H395.701V200.507Z" fill="#7AB089"/>
<path opacity="0.2" d="M395.701 200.507H453.666V201.747H395.701V200.507Z" fill="#252525"/>
<path opacity="0.2" d="M447.137 200.507H449.422V211.417H447.137V200.507Z" fill="#252525"/>
<path opacity="0.2" d="M441.895 200.507H444.18V211.417H441.895V200.507Z" fill="#252525"/>
<path opacity="0.2" d="M436.648 200.507H438.932V211.417H436.648V200.507Z" fill="#252525"/>
<path opacity="0.2" d="M431.406 200.507H433.691V211.417H431.406V200.507Z" fill="#252525"/>
<path opacity="0.2" d="M426.163 200.507H428.448V211.417H426.163V200.507Z" fill="#252525"/>
<path opacity="0.2" d="M420.916 200.507H423.2V211.417H420.916V200.507Z" fill="#252525"/>
<path opacity="0.2" d="M415.674 200.507H417.958V211.417H415.674V200.507Z" fill="#252525"/>
<path opacity="0.2" d="M410.431 200.507H412.715V211.417H410.431V200.507Z" fill="#252525"/>
<path opacity="0.2" d="M405.182 200.507H407.467V211.417H405.182V200.507Z" fill="#252525"/>
<path opacity="0.2" d="M399.94 200.507H402.225V211.417H399.94V200.507Z" fill="#252525"/>
<path d="M398.057 189.598H456.022V200.507H398.057V189.598Z" fill="#7AB089"/>
<path opacity="0.2" d="M398.057 189.598H456.022V190.838H398.057V189.598Z" fill="#252525"/>
<path opacity="0.2" d="M449.5 189.598H451.785V200.507H449.5V189.598Z" fill="#252525"/>
<path opacity="0.2" d="M444.251 189.598H446.536V200.507H444.251V189.598Z" fill="#252525"/>
<path opacity="0.2" d="M439.008 189.598H441.293V200.507H439.008V189.598Z" fill="#252525"/>
<path opacity="0.2" d="M433.767 189.598H436.051V200.507H433.767V189.598Z" fill="#252525"/>
<path opacity="0.2" d="M428.518 189.598H430.802V200.507H428.518V189.598Z" fill="#252525"/>
<path opacity="0.2" d="M423.276 189.598H425.561V200.507H423.276V189.598Z" fill="#252525"/>
<path opacity="0.2" d="M418.034 189.598H420.319V200.507H418.034V189.598Z" fill="#252525"/>
<path opacity="0.2" d="M412.787 189.598H415.071V200.507H412.787V189.598Z" fill="#252525"/>
<path opacity="0.2" d="M407.544 189.598H409.828V200.507H407.544V189.598Z" fill="#252525"/>
<path opacity="0.2" d="M402.302 189.598H404.587V200.507H402.302V189.598Z" fill="#252525"/>
<path d="M399.728 178.688H457.693V189.598H399.728V178.688Z" fill="#7AB089"/>
<path opacity="0.2" d="M399.728 178.688H457.693V179.928H399.728V178.688Z" fill="#252525"/>
<path opacity="0.2" d="M451.163 178.688H453.448V189.598H451.163V178.688Z" fill="#252525"/>
<path opacity="0.2" d="M445.922 178.688H448.207V189.598H445.922V178.688Z" fill="#252525"/>
<path opacity="0.2" d="M440.674 178.688H442.958V189.598H440.674V178.688Z" fill="#252525"/>
<path opacity="0.2" d="M435.432 178.688H437.716V189.598H435.432V178.688Z" fill="#252525"/>
<path opacity="0.2" d="M430.189 178.688H432.473V189.598H430.189V178.688Z" fill="#252525"/>
<path opacity="0.2" d="M424.94 178.688H427.225V189.598H424.94V178.688Z" fill="#252525"/>
<path opacity="0.2" d="M419.7 178.688H421.984V189.598H419.7V178.688Z" fill="#252525"/>
<path opacity="0.2" d="M414.457 178.688H416.741V189.598H414.457V178.688Z" fill="#252525"/>
<path opacity="0.2" d="M409.209 178.688H411.494V189.598H409.209V178.688Z" fill="#252525"/>
<path opacity="0.2" d="M403.966 178.688H406.25V189.598H403.966V178.688Z" fill="#252525"/>
<path d="M397.101 167.785H455.066V178.694H397.101V167.785Z" fill="#7AB089"/>
<path opacity="0.2" d="M397.101 167.785H455.066V169.025H397.101V167.785Z" fill="#252525"/>
<path opacity="0.2" d="M448.542 167.785H450.826V178.694H448.542V167.785Z" fill="#252525"/>
<path opacity="0.2" d="M443.295 167.785H445.58V178.694H443.295V167.785Z" fill="#252525"/>
<path opacity="0.2" d="M438.052 167.785H440.337V178.694H438.052V167.785Z" fill="#252525"/>
<path opacity="0.2" d="M432.81 167.785H435.095V178.694H432.81V167.785Z" fill="#252525"/>
<path opacity="0.2" d="M427.563 167.785H429.847V178.694H427.563V167.785Z" fill="#252525"/>
<path opacity="0.2" d="M422.32 167.785H424.604V178.694H422.32V167.785Z" fill="#252525"/>
<path opacity="0.2" d="M417.077 167.785H419.362V178.694H417.077V167.785Z" fill="#252525"/>
<path opacity="0.2" d="M411.831 167.785H414.115V178.694H411.831V167.785Z" fill="#252525"/>
<path opacity="0.2" d="M406.589 167.785H408.873V178.694H406.589V167.785Z" fill="#252525"/>
<path opacity="0.2" d="M401.346 167.785H403.63V178.694H401.346V167.785Z" fill="#252525"/>
<path d="M457.61 167.779H399.645V156.87H457.61V167.779Z" fill="#7AB089"/>
<path opacity="0.2" d="M457.61 158.109H399.645V156.87H457.61V158.109Z" fill="#252525"/>
<path opacity="0.2" d="M406.175 167.779H403.89V156.87H406.175V167.779Z" fill="#252525"/>
<path opacity="0.2" d="M411.422 167.779H409.138V156.87H411.422V167.779Z" fill="#252525"/>
<path opacity="0.2" d="M416.665 167.779H414.381V156.87H416.665V167.779Z" fill="#252525"/>
<path opacity="0.2" d="M421.907 167.779H419.623V156.87H421.907V167.779Z" fill="#252525"/>
<path opacity="0.2" d="M427.155 167.779H424.87V156.87H427.155V167.779Z" fill="#252525"/>
<path opacity="0.2" d="M432.398 167.779H430.113V156.87H432.398V167.779Z" fill="#252525"/>
<path opacity="0.2" d="M437.64 167.779H435.355V156.87H437.64V167.779Z" fill="#252525"/>
<path opacity="0.2" d="M442.887 167.779H440.603V156.87H442.887V167.779Z" fill="#252525"/>
<path opacity="0.2" d="M448.129 167.779H445.844V156.87H448.129V167.779Z" fill="#252525"/>
<path opacity="0.2" d="M453.372 167.779H451.087V156.87H453.372V167.779Z" fill="#252525"/>
<path d="M455.254 156.876H397.289V145.967H455.254V156.876Z" fill="#7AB089"/>
<path opacity="0.2" d="M455.254 147.206H397.289V145.966H455.254V147.206Z" fill="#252525"/>
<path opacity="0.2" d="M403.82 156.876H401.535V145.967H403.82V156.876Z" fill="#252525"/>
<path opacity="0.2" d="M409.055 156.876H406.77V145.967H409.055V156.876Z" fill="#252525"/>
<path opacity="0.2" d="M414.302 156.876H412.018V145.967H414.302V156.876Z" fill="#252525"/>
<path opacity="0.2" d="M419.551 156.876H417.267V145.967H419.551V156.876Z" fill="#252525"/>
<path opacity="0.2" d="M424.787 156.876H422.503V145.967H424.787V156.876Z" fill="#252525"/>
<path opacity="0.2" d="M430.036 156.876H427.751V145.967H430.036V156.876Z" fill="#252525"/>
<path opacity="0.2" d="M435.285 156.876H433V145.967H435.285V156.876Z" fill="#252525"/>
<path opacity="0.2" d="M440.521 156.876H438.236V145.967H440.521V156.876Z" fill="#252525"/>
<path opacity="0.2" d="M445.767 156.876H443.482V145.967H445.767V156.876Z" fill="#252525"/>
<path opacity="0.2" d="M451.016 156.876H448.731V145.967H451.016V156.876Z" fill="#252525"/>
<path d="M453.584 145.967H395.619V135.057H453.584V145.967Z" fill="#7AB089"/>
<path opacity="0.2" d="M453.584 136.297H395.619V135.057H453.584V136.297Z" fill="#252525"/>
<path opacity="0.2" d="M402.149 145.967H399.864V135.057H402.149V145.967Z" fill="#252525"/>
<path opacity="0.2" d="M407.397 145.967H405.112V135.057H407.397V145.967Z" fill="#252525"/>
<path opacity="0.2" d="M412.64 145.967H410.355V135.057H412.64V145.967Z" fill="#252525"/>
<path opacity="0.2" d="M417.88 145.967H415.596V135.057H417.88V145.967Z" fill="#252525"/>
<path opacity="0.2" d="M423.128 145.967H420.843V135.057H423.128V145.967Z" fill="#252525"/>
<path opacity="0.2" d="M428.371 145.967H426.086V135.057H428.371V145.967Z" fill="#252525"/>
<path opacity="0.2" d="M433.614 145.967H431.329V135.057H433.614V145.967Z" fill="#252525"/>
<path opacity="0.2" d="M438.861 145.967H436.577V135.057H438.861V145.967Z" fill="#252525"/>
<path opacity="0.2" d="M444.103 145.967H441.819V135.057H444.103V145.967Z" fill="#252525"/>
<path opacity="0.2" d="M449.345 145.967H447.06V135.057H449.345V145.967Z" fill="#252525"/>
<path d="M456.211 135.057H398.246V124.148H456.211V135.057Z" fill="#7AB089"/>
<path opacity="0.2" d="M456.211 125.388H398.246V124.148H456.211V125.388Z" fill="#252525"/>
<path opacity="0.2" d="M404.776 135.057H402.492V124.148H404.776V135.057Z" fill="#252525"/>
<path opacity="0.2" d="M410.012 135.057H407.728V124.148H410.012V135.057Z" fill="#252525"/>
<path opacity="0.2" d="M415.26 135.057H412.975V124.148H415.26V135.057Z" fill="#252525"/>
<path opacity="0.2" d="M420.507 135.057H418.223V124.148H420.507V135.057Z" fill="#252525"/>
<path opacity="0.2" d="M425.743 135.057H423.459V124.148H425.743V135.057Z" fill="#252525"/>
<path opacity="0.2" d="M430.992 135.057H428.708V124.148H430.992V135.057Z" fill="#252525"/>
<path opacity="0.2" d="M436.24 135.057H433.955V124.148H436.24V135.057Z" fill="#252525"/>
<path opacity="0.2" d="M441.476 135.057H439.191V124.148H441.476V135.057Z" fill="#252525"/>
<path opacity="0.2" d="M446.726 135.057H444.441V124.148H446.726V135.057Z" fill="#252525"/>
<path opacity="0.2" d="M451.972 135.057H449.688V124.148H451.972V135.057Z" fill="#252525"/>
<path d="M395.701 113.604H453.666V124.513H395.701V113.604Z" fill="#7AB089"/>
<path opacity="0.2" d="M395.701 113.604H453.666V114.843H395.701V113.604Z" fill="#252525"/>
<path opacity="0.2" d="M447.137 113.604H449.422V124.513H447.137V113.604Z" fill="#252525"/>
<path opacity="0.2" d="M441.895 113.604H444.18V124.513H441.895V113.604Z" fill="#252525"/>
<path opacity="0.2" d="M436.648 113.604H438.932V124.513H436.648V113.604Z" fill="#252525"/>
<path opacity="0.2" d="M431.406 113.604H433.691V124.513H431.406V113.604Z" fill="#252525"/>
<path opacity="0.2" d="M426.163 113.604H428.448V124.513H426.163V113.604Z" fill="#252525"/>
<path opacity="0.2" d="M420.916 113.604H423.2V124.513H420.916V113.604Z" fill="#252525"/>
<path opacity="0.2" d="M415.674 113.604H417.958V124.513H415.674V113.604Z" fill="#252525"/>
<path opacity="0.2" d="M410.431 113.604H412.715V124.513H410.431V113.604Z" fill="#252525"/>
<path opacity="0.2" d="M405.182 113.604H407.467V124.513H405.182V113.604Z" fill="#252525"/>
<path opacity="0.2" d="M399.94 113.604H402.225V124.513H399.94V113.604Z" fill="#252525"/>
<path d="M398.057 102.694H456.022V113.604H398.057V102.694Z" fill="#7AB089"/>
<path opacity="0.2" d="M398.057 102.694H456.022V103.934H398.057V102.694Z" fill="#252525"/>
<path opacity="0.2" d="M449.5 102.694H451.785V113.604H449.5V102.694Z" fill="#252525"/>
<path opacity="0.2" d="M444.251 102.694H446.536V113.604H444.251V102.694Z" fill="#252525"/>
<path opacity="0.2" d="M439.008 102.694H441.293V113.604H439.008V102.694Z" fill="#252525"/>
<path opacity="0.2" d="M433.767 102.694H436.051V113.604H433.767V102.694Z" fill="#252525"/>
<path opacity="0.2" d="M428.518 102.694H430.802V113.604H428.518V102.694Z" fill="#252525"/>
<path opacity="0.2" d="M423.276 102.694H425.561V113.604H423.276V102.694Z" fill="#252525"/>
<path opacity="0.2" d="M418.034 102.694H420.319V113.604H418.034V102.694Z" fill="#252525"/>
<path opacity="0.2" d="M412.787 102.694H415.071V113.604H412.787V102.694Z" fill="#252525"/>
<path opacity="0.2" d="M407.544 102.694H409.828V113.604H407.544V102.694Z" fill="#252525"/>
<path opacity="0.2" d="M402.302 102.694H404.587V113.604H402.302V102.694Z" fill="#252525"/>
<path d="M399.728 91.7847H457.693V102.694H399.728V91.7847Z" fill="#7AB089"/>
<path opacity="0.2" d="M399.728 91.7847H457.693V93.0244H399.728V91.7847Z" fill="#252525"/>
<path opacity="0.2" d="M451.163 91.7847H453.448V102.694H451.163V91.7847Z" fill="#252525"/>
<path opacity="0.2" d="M445.922 91.7847H448.207V102.694H445.922V91.7847Z" fill="#252525"/>
<path opacity="0.2" d="M440.674 91.7847H442.958V102.694H440.674V91.7847Z" fill="#252525"/>
<path opacity="0.2" d="M435.432 91.7847H437.716V102.694H435.432V91.7847Z" fill="#252525"/>
<path opacity="0.2" d="M430.189 91.7847H432.473V102.694H430.189V91.7847Z" fill="#252525"/>
<path opacity="0.2" d="M424.94 91.7847H427.225V102.694H424.94V91.7847Z" fill="#252525"/>
<path opacity="0.2" d="M419.7 91.7847H421.984V102.694H419.7V91.7847Z" fill="#252525"/>
<path opacity="0.2" d="M414.457 91.7847H416.741V102.694H414.457V91.7847Z" fill="#252525"/>
<path opacity="0.2" d="M409.209 91.7847H411.494V102.694H409.209V91.7847Z" fill="#252525"/>
<path opacity="0.2" d="M403.966 91.7847H406.25V102.694H403.966V91.7847Z" fill="#252525"/>
<path d="M397.101 80.8813H455.066V91.7907H397.101V80.8813Z" fill="#7AB089"/>
<path opacity="0.2" d="M397.101 80.8813H455.066V82.121H397.101V80.8813Z" fill="#252525"/>
<path opacity="0.2" d="M448.542 80.8813H450.826V91.7907H448.542V80.8813Z" fill="#252525"/>
<path opacity="0.2" d="M443.295 80.8813H445.58V91.7907H443.295V80.8813Z" fill="#252525"/>
<path opacity="0.2" d="M438.052 80.8813H440.337V91.7907H438.052V80.8813Z" fill="#252525"/>
<path opacity="0.2" d="M432.81 80.8813H435.095V91.7907H432.81V80.8813Z" fill="#252525"/>
<path opacity="0.2" d="M427.563 80.8813H429.847V91.7907H427.563V80.8813Z" fill="#252525"/>
<path opacity="0.2" d="M422.32 80.8813H424.604V91.7907H422.32V80.8813Z" fill="#252525"/>
<path opacity="0.2" d="M417.077 80.8813H419.362V91.7907H417.077V80.8813Z" fill="#252525"/>
<path opacity="0.2" d="M411.831 80.8813H414.115V91.7907H411.831V80.8813Z" fill="#252525"/>
<path opacity="0.2" d="M406.589 80.8813H408.873V91.7907H406.589V80.8813Z" fill="#252525"/>
<path opacity="0.2" d="M401.346 80.8813H403.63V91.7907H401.346V80.8813Z" fill="#252525"/>
<path d="M457.61 80.8755H399.645V69.9661H457.61V80.8755Z" fill="#7AB089"/>
<path opacity="0.2" d="M457.61 71.2056H399.645V69.9659H457.61V71.2056Z" fill="#252525"/>
<path opacity="0.2" d="M406.175 80.8755H403.89V69.9661H406.175V80.8755Z" fill="#252525"/>
<path opacity="0.2" d="M411.422 80.8755H409.138V69.9661H411.422V80.8755Z" fill="#252525"/>
<path opacity="0.2" d="M416.665 80.8755H414.381V69.9661H416.665V80.8755Z" fill="#252525"/>
<path opacity="0.2" d="M421.907 80.8755H419.623V69.9661H421.907V80.8755Z" fill="#252525"/>
<path opacity="0.2" d="M427.155 80.8755H424.87V69.9661H427.155V80.8755Z" fill="#252525"/>
<path opacity="0.2" d="M432.398 80.8755H430.113V69.9661H432.398V80.8755Z" fill="#252525"/>
<path opacity="0.2" d="M437.64 80.8755H435.355V69.9661H437.64V80.8755Z" fill="#252525"/>
<path opacity="0.2" d="M442.887 80.8755H440.603V69.9661H442.887V80.8755Z" fill="#252525"/>
<path opacity="0.2" d="M448.129 80.8755H445.844V69.9661H448.129V80.8755Z" fill="#252525"/>
<path opacity="0.2" d="M453.372 80.8755H451.087V69.9661H453.372V80.8755Z" fill="#252525"/>
<path d="M455.254 69.9722H397.289V59.0628L455.254 59.0628V69.9722Z" fill="#7AB089"/>
<path opacity="0.2" d="M455.254 60.3022L397.289 60.3022V59.0625L455.254 59.0625V60.3022Z" fill="#252525"/>
<path opacity="0.2" d="M403.82 69.9722H401.535V59.0628H403.82V69.9722Z" fill="#252525"/>
<path opacity="0.2" d="M409.055 69.9722H406.77V59.0628H409.055V69.9722Z" fill="#252525"/>
<path opacity="0.2" d="M414.302 69.9722H412.018V59.0628H414.302V69.9722Z" fill="#252525"/>
<path opacity="0.2" d="M419.551 69.9722H417.267V59.0628H419.551V69.9722Z" fill="#252525"/>
<path opacity="0.2" d="M424.787 69.9722H422.503V59.0628H424.787V69.9722Z" fill="#252525"/>
<path opacity="0.2" d="M430.036 69.9722H427.751V59.0628H430.036V69.9722Z" fill="#252525"/>
<path opacity="0.2" d="M435.285 69.9722H433V59.0628H435.285V69.9722Z" fill="#252525"/>
<path opacity="0.2" d="M440.521 69.9722H438.236V59.0628H440.521V69.9722Z" fill="#252525"/>
<path opacity="0.2" d="M445.767 69.9722H443.482V59.0628H445.767V69.9722Z" fill="#252525"/>
<path opacity="0.2" d="M451.016 69.9722H448.731V59.0628H451.016V69.9722Z" fill="#252525"/>
<path d="M453.584 59.063L395.619 59.063V48.1536L453.584 48.1536V59.063Z" fill="#7AB089"/>
<path opacity="0.2" d="M453.584 49.3931L395.619 49.3931V48.1534L453.584 48.1534V49.3931Z" fill="#252525"/>
<path opacity="0.2" d="M402.149 59.063H399.864V48.1536H402.149V59.063Z" fill="#252525"/>
<path opacity="0.2" d="M407.397 59.063H405.112V48.1536H407.397V59.063Z" fill="#252525"/>
<path opacity="0.2" d="M412.64 59.063H410.355V48.1536H412.64V59.063Z" fill="#252525"/>
<path opacity="0.2" d="M417.88 59.063H415.596V48.1536H417.88V59.063Z" fill="#252525"/>
<path opacity="0.2" d="M423.128 59.063H420.843V48.1536H423.128V59.063Z" fill="#252525"/>
<path opacity="0.2" d="M428.371 59.063H426.086V48.1536H428.371V59.063Z" fill="#252525"/>
<path opacity="0.2" d="M433.614 59.063H431.329V48.1536H433.614V59.063Z" fill="#252525"/>
<path opacity="0.2" d="M438.861 59.063H436.577V48.1536H438.861V59.063Z" fill="#252525"/>
<path opacity="0.2" d="M444.103 59.063H441.819V48.1536H444.103V59.063Z" fill="#252525"/>
<path opacity="0.2" d="M449.345 59.063H447.06V48.1536H449.345V59.063Z" fill="#252525"/>
<path d="M456.211 48.1533L398.246 48.1533V37.244L456.211 37.244V48.1533Z" fill="#7AB089"/>
<path opacity="0.2" d="M456.211 38.4839L398.246 38.4839V37.2442L456.211 37.2442V38.4839Z" fill="#252525"/>
<path opacity="0.2" d="M404.776 48.1533H402.492V37.244H404.776V48.1533Z" fill="#252525"/>
<path opacity="0.2" d="M410.012 48.1533H407.728V37.244H410.012V48.1533Z" fill="#252525"/>
<path opacity="0.2" d="M415.26 48.1533H412.975V37.244H415.26V48.1533Z" fill="#252525"/>
<path opacity="0.2" d="M420.507 48.1533H418.223V37.244H420.507V48.1533Z" fill="#252525"/>
<path opacity="0.2" d="M425.743 48.1533H423.459V37.244H425.743V48.1533Z" fill="#252525"/>
<path opacity="0.2" d="M430.992 48.1533H428.708V37.244H430.992V48.1533Z" fill="#252525"/>
<path opacity="0.2" d="M436.24 48.1533H433.955V37.244H436.24V48.1533Z" fill="#252525"/>
<path opacity="0.2" d="M441.476 48.1533H439.191V37.244H441.476V48.1533Z" fill="#252525"/>
<path opacity="0.2" d="M446.726 48.1533H444.441V37.244H446.726V48.1533Z" fill="#252525"/>
<path opacity="0.2" d="M451.972 48.1533H449.688V37.244H451.972V48.1533Z" fill="#252525"/>
<path d="M422.021 209.611H364.057V220.521H422.021V209.611Z" fill="#92E3A9"/>
<path opacity="0.2" d="M422.021 209.611H364.057V210.851H422.021V209.611Z" fill="#252525"/>
<path opacity="0.2" d="M370.585 209.611H368.301V220.521H370.585V209.611Z" fill="#252525"/>
<path opacity="0.2" d="M375.827 209.611H373.542V220.521H375.827V209.611Z" fill="#252525"/>
<path opacity="0.2" d="M381.075 209.611H378.79V220.521H381.075V209.611Z" fill="#252525"/>
<path opacity="0.2" d="M386.317 209.611H384.032V220.521H386.317V209.611Z" fill="#252525"/>
<path opacity="0.2" d="M391.559 209.611H389.275V220.521H391.559V209.611Z" fill="#252525"/>
<path opacity="0.2" d="M396.807 209.611H394.522V220.521H396.807V209.611Z" fill="#252525"/>
<path opacity="0.2" d="M402.049 209.611H399.764V220.521H402.049V209.611Z" fill="#252525"/>
<path opacity="0.2" d="M407.292 209.611H405.007V220.521H407.292V209.611Z" fill="#252525"/>
<path opacity="0.2" d="M412.541 209.611H410.256V220.521H412.541V209.611Z" fill="#252525"/>
<path opacity="0.2" d="M417.782 209.611H415.498V220.521H417.782V209.611Z" fill="#252525"/>
<path d="M419.665 198.702H361.701V209.611H419.665V198.702Z" fill="#92E3A9"/>
<path opacity="0.2" d="M419.665 198.702H361.701V199.942H419.665V198.702Z" fill="#252525"/>
<path opacity="0.2" d="M368.223 198.702H365.938V209.611H368.223V198.702Z" fill="#252525"/>
<path opacity="0.2" d="M373.471 198.702H371.187V209.611H373.471V198.702Z" fill="#252525"/>
<path opacity="0.2" d="M378.714 198.702H376.43V209.611H378.714V198.702Z" fill="#252525"/>
<path opacity="0.2" d="M383.956 198.702H381.671V209.611H383.956V198.702Z" fill="#252525"/>
<path opacity="0.2" d="M389.205 198.702H386.92V209.611H389.205V198.702Z" fill="#252525"/>
<path opacity="0.2" d="M394.447 198.702H392.162V209.611H394.447V198.702Z" fill="#252525"/>
<path opacity="0.2" d="M399.688 198.702H397.404V209.611H399.688V198.702Z" fill="#252525"/>
<path opacity="0.2" d="M404.936 198.702H402.651V209.611H404.936V198.702Z" fill="#252525"/>
<path opacity="0.2" d="M410.179 198.702H407.894V209.611H410.179V198.702Z" fill="#252525"/>
<path opacity="0.2" d="M415.421 198.702H413.136V209.611H415.421V198.702Z" fill="#252525"/>
<path d="M417.994 187.792H360.03V198.702H417.994V187.792Z" fill="#92E3A9"/>
<path opacity="0.2" d="M417.994 187.792H360.03V189.032H417.994V187.792Z" fill="#252525"/>
<path opacity="0.2" d="M366.559 187.792H364.275V198.702H366.559V187.792Z" fill="#252525"/>
<path opacity="0.2" d="M371.8 187.792H369.516V198.702H371.8V187.792Z" fill="#252525"/>
<path opacity="0.2" d="M377.049 187.792H374.764V198.702H377.049V187.792Z" fill="#252525"/>
<path opacity="0.2" d="M382.291 187.792H380.006V198.702H382.291V187.792Z" fill="#252525"/>
<path opacity="0.2" d="M387.534 187.792H385.249V198.702H387.534V187.792Z" fill="#252525"/>
<path opacity="0.2" d="M392.782 187.792H390.498V198.702H392.782V187.792Z" fill="#252525"/>
<path opacity="0.2" d="M398.023 187.792H395.739V198.702H398.023V187.792Z" fill="#252525"/>
<path opacity="0.2" d="M403.266 187.792H400.981V198.702H403.266V187.792Z" fill="#252525"/>
<path opacity="0.2" d="M408.514 187.792H406.229V198.702H408.514V187.792Z" fill="#252525"/>
<path opacity="0.2" d="M413.757 187.792H411.472V198.702H413.757V187.792Z" fill="#252525"/>
<path d="M420.622 176.889H362.657V187.799H420.622V176.889Z" fill="#92E3A9"/>
<path opacity="0.2" d="M420.622 176.889H362.657V178.129H420.622V176.889Z" fill="#252525"/>
<path opacity="0.2" d="M369.181 176.889H366.896V187.799H369.181V176.889Z" fill="#252525"/>
<path opacity="0.2" d="M374.428 176.889H372.143V187.799H374.428V176.889Z" fill="#252525"/>
<path opacity="0.2" d="M379.671 176.889H377.386V187.799H379.671V176.889Z" fill="#252525"/>
<path opacity="0.2" d="M384.912 176.889H382.628V187.799H384.912V176.889Z" fill="#252525"/>
<path opacity="0.2" d="M390.16 176.889H387.875V187.799H390.16V176.889Z" fill="#252525"/>
<path opacity="0.2" d="M395.403 176.889H393.118V187.799H395.403V176.889Z" fill="#252525"/>
<path opacity="0.2" d="M400.646 176.889H398.361V187.799H400.646V176.889Z" fill="#252525"/>
<path opacity="0.2" d="M405.892 176.889H403.607V187.799H405.892V176.889Z" fill="#252525"/>
<path opacity="0.2" d="M411.134 176.889H408.849V187.799H411.134V176.889Z" fill="#252525"/>
<path opacity="0.2" d="M416.377 176.889H414.093V187.799H416.377V176.889Z" fill="#252525"/>
<path d="M360.113 176.883H418.078V165.974H360.113V176.883Z" fill="#92E3A9"/>
<path opacity="0.2" d="M360.113 167.213H418.078V165.974H360.113V167.213Z" fill="#252525"/>
<path opacity="0.2" d="M411.548 176.883H413.833V165.974H411.548V176.883Z" fill="#252525"/>
<path opacity="0.2" d="M406.3 176.883H408.585V165.974H406.3V176.883Z" fill="#252525"/>
<path opacity="0.2" d="M401.057 176.883H403.342V165.974H401.057V176.883Z" fill="#252525"/>
<path opacity="0.2" d="M395.816 176.883H398.1V165.974H395.816V176.883Z" fill="#252525"/>
<path opacity="0.2" d="M390.568 176.883H392.853V165.974H390.568V176.883Z" fill="#252525"/>
<path opacity="0.2" d="M385.325 176.883H387.61V165.974H385.325V176.883Z" fill="#252525"/>
<path opacity="0.2" d="M380.083 176.883H382.368V165.974H380.083V176.883Z" fill="#252525"/>
<path opacity="0.2" d="M374.836 176.883H377.12V165.974H374.836V176.883Z" fill="#252525"/>
<path opacity="0.2" d="M369.594 176.883H371.878V165.974H369.594V176.883Z" fill="#252525"/>
<path opacity="0.2" d="M364.351 176.883H366.635V165.974H364.351V176.883Z" fill="#252525"/>
<path d="M362.469 165.98H420.434V155.071H362.469V165.98Z" fill="#92E3A9"/>
<path opacity="0.2" d="M362.469 156.31H420.434V155.07H362.469V156.31Z" fill="#252525"/>
<path opacity="0.2" d="M413.903 165.98H416.187V155.071H413.903V165.98Z" fill="#252525"/>
<path opacity="0.2" d="M408.668 165.98H410.952V155.071H408.668V165.98Z" fill="#252525"/>
<path opacity="0.2" d="M403.42 165.98H405.705V155.071H403.42V165.98Z" fill="#252525"/>
<path opacity="0.2" d="M398.171 165.98H400.456V155.071H398.171V165.98Z" fill="#252525"/>
<path opacity="0.2" d="M392.935 165.98H395.22V155.071H392.935V165.98Z" fill="#252525"/>
<path opacity="0.2" d="M387.687 165.98H389.971V155.071H387.687V165.98Z" fill="#252525"/>
<path opacity="0.2" d="M382.438 165.98H384.723V155.071H382.438V165.98Z" fill="#252525"/>
<path opacity="0.2" d="M377.202 165.98H379.487V155.071H377.202V165.98Z" fill="#252525"/>
<path opacity="0.2" d="M371.956 165.98H374.24V155.071H371.956V165.98Z" fill="#252525"/>
<path opacity="0.2" d="M366.707 165.98H368.991V155.071H366.707V165.98Z" fill="#252525"/>
<path d="M364.139 155.071H422.104V144.161H364.139V155.071Z" fill="#92E3A9"/>
<path opacity="0.2" d="M364.139 145.401H422.104V144.161H364.139V145.401Z" fill="#252525"/>
<path opacity="0.2" d="M415.574 155.071H417.858V144.161H415.574V155.071Z" fill="#252525"/>
<path opacity="0.2" d="M410.326 155.071H412.611V144.161H410.326V155.071Z" fill="#252525"/>
<path opacity="0.2" d="M405.083 155.071H407.368V144.161H405.083V155.071Z" fill="#252525"/>
<path opacity="0.2" d="M399.842 155.071H402.127V144.161H399.842V155.071Z" fill="#252525"/>
<path opacity="0.2" d="M394.595 155.071H396.879V144.161H394.595V155.071Z" fill="#252525"/>
<path opacity="0.2" d="M389.352 155.071H391.636V144.161H389.352V155.071Z" fill="#252525"/>
<path opacity="0.2" d="M384.109 155.071H386.394V144.161H384.109V155.071Z" fill="#252525"/>
<path opacity="0.2" d="M378.861 155.071H381.146V144.161H378.861V155.071Z" fill="#252525"/>
<path opacity="0.2" d="M373.619 155.071H375.904V144.161H373.619V155.071Z" fill="#252525"/>
<path opacity="0.2" d="M368.378 155.071H370.663V144.161H368.378V155.071Z" fill="#252525"/>
<path d="M361.512 144.161H419.476V133.252H361.512V144.161Z" fill="#92E3A9"/>
<path opacity="0.2" d="M361.512 134.492H419.476V133.252H361.512V134.492Z" fill="#252525"/>
<path opacity="0.2" d="M412.946 144.161H415.231V133.252H412.946V144.161Z" fill="#252525"/>
<path opacity="0.2" d="M407.71 144.161H409.995V133.252H407.71V144.161Z" fill="#252525"/>
<path opacity="0.2" d="M402.463 144.161H404.747V133.252H402.463V144.161Z" fill="#252525"/>
<path opacity="0.2" d="M397.215 144.161H399.5V133.252H397.215V144.161Z" fill="#252525"/>
<path opacity="0.2" d="M391.979 144.161H394.264V133.252H391.979V144.161Z" fill="#252525"/>
<path opacity="0.2" d="M386.731 144.161H389.015V133.252H386.731V144.161Z" fill="#252525"/>
<path opacity="0.2" d="M381.483 144.161H383.767V133.252H381.483V144.161Z" fill="#252525"/>
<path opacity="0.2" d="M376.247 144.161H378.531V133.252H376.247V144.161Z" fill="#252525"/>
<path opacity="0.2" d="M370.997 144.161H373.282V133.252H370.997V144.161Z" fill="#252525"/>
<path opacity="0.2" d="M365.751 144.161H368.035V133.252H365.751V144.161Z" fill="#252525"/>
<path d="M61.9916 209.611H4.02686V220.521H61.9916V209.611Z" fill="#92E3A9"/>
<path opacity="0.2" d="M61.9916 209.611H4.02686V210.851H61.9916V209.611Z" fill="#252525"/>
<path opacity="0.2" d="M10.5556 209.611H8.271V220.521H10.5556V209.611Z" fill="#252525"/>
<path opacity="0.2" d="M15.7973 209.611H13.5127V220.521H15.7973V209.611Z" fill="#252525"/>
<path opacity="0.2" d="M21.0448 209.611H18.7603V220.521H21.0448V209.611Z" fill="#252525"/>
<path opacity="0.2" d="M26.2865 209.611H24.002V220.521H26.2865V209.611Z" fill="#252525"/>
<path opacity="0.2" d="M31.5297 209.611H29.2451V220.521H31.5297V209.611Z" fill="#252525"/>
<path opacity="0.2" d="M36.7773 209.611H34.4927V220.521H36.7773V209.611Z" fill="#252525"/>
<path opacity="0.2" d="M42.0194 209.611H39.7349V220.521H42.0194V209.611Z" fill="#252525"/>
<path opacity="0.2" d="M47.2621 209.611H44.9775V220.521H47.2621V209.611Z" fill="#252525"/>
<path opacity="0.2" d="M52.5107 209.611H50.2261V220.521H52.5107V209.611Z" fill="#252525"/>
<path opacity="0.2" d="M57.7529 209.611H55.4683V220.521H57.7529V209.611Z" fill="#252525"/>
<path d="M59.6356 198.702H1.6709V209.611H59.6356V198.702Z" fill="#92E3A9"/>
<path opacity="0.2" d="M59.6356 198.702H1.6709V199.942H59.6356V198.702Z" fill="#252525"/>
<path opacity="0.2" d="M8.1923 198.702H5.90771V209.611H8.1923V198.702Z" fill="#252525"/>
<path opacity="0.2" d="M13.4413 198.702H11.1567V209.611H13.4413V198.702Z" fill="#252525"/>
<path opacity="0.2" d="M18.6845 198.702H16.3999V209.611H18.6845V198.702Z" fill="#252525"/>
<path opacity="0.2" d="M23.9262 198.702H21.6416V209.611H23.9262V198.702Z" fill="#252525"/>
<path opacity="0.2" d="M29.1747 198.702H26.8901V209.611H29.1747V198.702Z" fill="#252525"/>
<path opacity="0.2" d="M34.4169 198.702H32.1323V209.611H34.4169V198.702Z" fill="#252525"/>
<path opacity="0.2" d="M39.6586 198.702H37.374V209.611H39.6586V198.702Z" fill="#252525"/>
<path opacity="0.2" d="M44.9062 198.702H42.6216V209.611H44.9062V198.702Z" fill="#252525"/>
<path opacity="0.2" d="M50.1493 198.702H47.8647V209.611H50.1493V198.702Z" fill="#252525"/>
<path opacity="0.2" d="M55.391 198.702H53.1064V209.611H55.391V198.702Z" fill="#252525"/>
<path d="M57.9647 187.792H0V198.702H57.9647V187.792Z" fill="#92E3A9"/>
<path opacity="0.2" d="M57.9647 187.792H0V189.032H57.9647V187.792Z" fill="#252525"/>
<path opacity="0.2" d="M6.53019 187.792H4.24561V198.702H6.53019V187.792Z" fill="#252525"/>
<path opacity="0.2" d="M11.7704 187.792H9.48584V198.702H11.7704V187.792Z" fill="#252525"/>
<path opacity="0.2" d="M17.019 187.792H14.7344V198.702H17.019V187.792Z" fill="#252525"/>
<path opacity="0.2" d="M22.2611 187.792H19.9766V198.702H22.2611V187.792Z" fill="#252525"/>
<path opacity="0.2" d="M27.5038 187.792H25.2192V198.702H27.5038V187.792Z" fill="#252525"/>
<path opacity="0.2" d="M32.7524 187.792H30.4678V198.702H32.7524V187.792Z" fill="#252525"/>
<path opacity="0.2" d="M37.9936 187.792H35.709V198.702H37.9936V187.792Z" fill="#252525"/>
<path opacity="0.2" d="M43.2363 187.792H40.9517V198.702H43.2363V187.792Z" fill="#252525"/>
<path opacity="0.2" d="M48.4838 187.792H46.1992V198.702H48.4838V187.792Z" fill="#252525"/>
<path opacity="0.2" d="M53.727 187.792H51.4424V198.702H53.727V187.792Z" fill="#252525"/>
<path d="M60.5922 176.889H2.62744V187.799H60.5922V176.889Z" fill="#92E3A9"/>
<path opacity="0.2" d="M60.5922 176.889H2.62744V178.129H60.5922V176.889Z" fill="#252525"/>
<path opacity="0.2" d="M9.15129 176.889H6.8667V187.799H9.15129V176.889Z" fill="#252525"/>
<path opacity="0.2" d="M14.3974 176.889H12.1128V187.799H14.3974V176.889Z" fill="#252525"/>
<path opacity="0.2" d="M19.6405 176.889H17.356V187.799H19.6405V176.889Z" fill="#252525"/>
<path opacity="0.2" d="M24.8827 176.889H22.5981V187.799H24.8827V176.889Z" fill="#252525"/>
<path opacity="0.2" d="M30.1303 176.889H27.8457V187.799H30.1303V176.889Z" fill="#252525"/>
<path opacity="0.2" d="M35.373 176.889H33.0884V187.799H35.373V176.889Z" fill="#252525"/>
<path opacity="0.2" d="M40.6161 176.889H38.3315V187.799H40.6161V176.889Z" fill="#252525"/>
<path opacity="0.2" d="M45.8627 176.889H43.5781V187.799H45.8627V176.889Z" fill="#252525"/>
<path opacity="0.2" d="M51.1039 176.889H48.8193V187.799H51.1039V176.889Z" fill="#252525"/>
<path opacity="0.2" d="M56.3471 176.889H54.0625V187.799H56.3471V176.889Z" fill="#252525"/>
<path d="M0.0831451 176.883H58.0479V165.974H0.0831451V176.883Z" fill="#92E3A9"/>
<path opacity="0.2" d="M0.0831451 167.213H58.0479V165.974H0.0831451V167.213Z" fill="#252525"/>
<path opacity="0.2" d="M51.5182 176.883H53.8027V165.974H51.5182V176.883Z" fill="#252525"/>
<path opacity="0.2" d="M46.2706 176.883H48.5552V165.974H46.2706V176.883Z" fill="#252525"/>
<path opacity="0.2" d="M41.0274 176.883H43.312V165.974H41.0274V176.883Z" fill="#252525"/>
<path opacity="0.2" d="M35.7857 176.883H38.0703V165.974H35.7857V176.883Z" fill="#252525"/>
<path opacity="0.2" d="M30.5382 176.883H32.8228V165.974H30.5382V176.883Z" fill="#252525"/>
<path opacity="0.2" d="M25.295 176.883H27.5796V165.974H25.295V176.883Z" fill="#252525"/>
<path opacity="0.2" d="M20.0538 176.883H22.3384V165.974H20.0538V176.883Z" fill="#252525"/>
<path opacity="0.2" d="M14.8057 176.883H17.0903V165.974H14.8057L14.8057 176.883Z" fill="#252525"/>
<path opacity="0.2" d="M9.56405 176.883H11.8486L11.8486 165.974H9.56405L9.56405 176.883Z" fill="#252525"/>
<path opacity="0.2" d="M4.32089 176.883H6.60547L6.60547 165.974H4.32089L4.32089 176.883Z" fill="#252525"/>
<path d="M2.4391 165.979H60.4038V155.07H2.4391V165.979Z" fill="#92E3A9"/>
<path opacity="0.2" d="M2.4391 156.31H60.4038V155.07H2.4391V156.31Z" fill="#252525"/>
<path opacity="0.2" d="M53.8726 165.979H56.1572V155.07H53.8726V165.979Z" fill="#252525"/>
<path opacity="0.2" d="M48.6378 165.979H50.9224V155.07H48.6378V165.979Z" fill="#252525"/>
<path opacity="0.2" d="M43.3902 165.979H45.6748V155.07H43.3902V165.979Z" fill="#252525"/>
<path opacity="0.2" d="M38.1417 165.979H40.4263V155.07H38.1417V165.979Z" fill="#252525"/>
<path opacity="0.2" d="M32.9058 165.979H35.1904V155.07H32.9058V165.979Z" fill="#252525"/>
<path opacity="0.2" d="M27.6568 165.979H29.9414V155.07H27.6568V165.979Z" fill="#252525"/>
<path opacity="0.2" d="M22.4078 165.979H24.6924V155.07H22.4078V165.979Z" fill="#252525"/>
<path opacity="0.2" d="M17.172 165.979H19.4565V155.07H17.172V165.979Z" fill="#252525"/>
<path opacity="0.2" d="M11.9259 165.979H14.2104L14.2104 155.07H11.9259L11.9259 165.979Z" fill="#252525"/>
<path opacity="0.2" d="M6.67684 165.979H8.96143L8.96143 155.07H6.67684L6.67684 165.979Z" fill="#252525"/>
<path d="M4.10902 155.071H62.0737V144.161H4.10902V155.071Z" fill="#92E3A9"/>
<path opacity="0.2" d="M4.10902 145.401H62.0737V144.161H4.10902V145.401Z" fill="#252525"/>
<path opacity="0.2" d="M55.5435 155.071H57.8281V144.161H55.5435V155.071Z" fill="#252525"/>
<path opacity="0.2" d="M50.296 155.071H52.5806V144.161H50.296V155.071Z" fill="#252525"/>
<path opacity="0.2" d="M45.0533 155.071H47.3379V144.161H45.0533V155.071Z" fill="#252525"/>
<path opacity="0.2" d="M39.8126 155.071H42.0972V144.161H39.8126V155.071Z" fill="#252525"/>
<path opacity="0.2" d="M34.565 155.071H36.8496V144.161H34.565V155.071Z" fill="#252525"/>
<path opacity="0.2" d="M29.3224 155.071H31.6069V144.161H29.3224V155.071Z" fill="#252525"/>
<path opacity="0.2" d="M24.0792 155.071H26.3638V144.161H24.0792V155.071Z" fill="#252525"/>
<path opacity="0.2" d="M18.8316 155.071H21.1162V144.161H18.8316V155.071Z" fill="#252525"/>
<path opacity="0.2" d="M13.5899 155.071H15.8745L15.8745 144.161H13.5899L13.5899 155.071Z" fill="#252525"/>
<path opacity="0.2" d="M8.34823 155.071H10.6328L10.6328 144.161H8.34823L8.34823 155.071Z" fill="#252525"/>
<path d="M1.48158 144.161H59.4463V133.252H1.48158V144.161Z" fill="#92E3A9"/>
<path opacity="0.2" d="M1.48158 134.492H59.4463V133.252H1.48158V134.492Z" fill="#252525"/>
<path opacity="0.2" d="M52.9166 144.161H55.2012V133.252H52.9166V144.161Z" fill="#252525"/>
<path opacity="0.2" d="M47.6807 144.161H49.9653V133.252H47.6807V144.161Z" fill="#252525"/>
<path opacity="0.2" d="M42.4332 144.161H44.7178V133.252H42.4332V144.161Z" fill="#252525"/>
<path opacity="0.2" d="M37.1851 144.161H39.4697V133.252H37.1851V144.161Z" fill="#252525"/>
<path opacity="0.2" d="M31.9493 144.161H34.2339V133.252H31.9493V144.161Z" fill="#252525"/>
<path opacity="0.2" d="M26.7008 144.161H28.9854V133.252H26.7008V144.161Z" fill="#252525"/>
<path opacity="0.2" d="M21.4532 144.161H23.7378V133.252H21.4532V144.161Z" fill="#252525"/>
<path opacity="0.2" d="M16.2174 144.161H18.502V133.252H16.2174V144.161Z" fill="#252525"/>
<path opacity="0.2" d="M10.9674 144.161H13.252L13.252 133.252H10.9674L10.9674 144.161Z" fill="#252525"/>
<path opacity="0.2" d="M5.72078 144.161H8.00537L8.00537 133.252H5.72078L5.72078 144.161Z" fill="#252525"/>
<path d="M428.807 209.611H486.772V220.521H428.807V209.611Z" fill="#92E3A9"/>
<path opacity="0.2" d="M428.807 209.611H486.772V210.851H428.807V209.611Z" fill="#252525"/>
<path opacity="0.2" d="M480.243 209.611H482.528V220.521H480.243V209.611Z" fill="#252525"/>
<path opacity="0.2" d="M475.002 209.611H477.286V220.521H475.002V209.611Z" fill="#252525"/>
<path opacity="0.2" d="M469.754 209.611H472.039V220.521H469.754V209.611Z" fill="#252525"/>
<path opacity="0.2" d="M464.512 209.611H466.797V220.521H464.512V209.611Z" fill="#252525"/>
<path opacity="0.2" d="M459.269 209.611H461.554V220.521H459.269V209.611Z" fill="#252525"/>
<path opacity="0.2" d="M454.022 209.611H456.306V220.521H454.022V209.611Z" fill="#252525"/>
<path opacity="0.2" d="M448.78 209.611H451.064V220.521H448.78V209.611Z" fill="#252525"/>
<path opacity="0.2" d="M443.537 209.611H445.822V220.521H443.537V209.611Z" fill="#252525"/>
<path opacity="0.2" d="M438.288 209.611H440.573V220.521H438.288V209.611Z" fill="#252525"/>
<path opacity="0.2" d="M433.046 209.611H435.331V220.521H433.046V209.611Z" fill="#252525"/>
<path d="M431.163 198.702H489.128V209.611H431.163V198.702Z" fill="#92E3A9"/>
<path opacity="0.2" d="M431.163 198.702H489.128V199.942H431.163V198.702Z" fill="#252525"/>
<path opacity="0.2" d="M482.606 198.702H484.891V209.611H482.606V198.702Z" fill="#252525"/>
<path opacity="0.2" d="M477.357 198.702H479.642V209.611H477.357V198.702Z" fill="#252525"/>
<path opacity="0.2" d="M472.114 198.702H474.399V209.611H472.114V198.702Z" fill="#252525"/>
<path opacity="0.2" d="M466.873 198.702H469.157V209.611H466.873V198.702Z" fill="#252525"/>
<path opacity="0.2" d="M461.624 198.702H463.908V209.611H461.624V198.702Z" fill="#252525"/>
<path opacity="0.2" d="M456.382 198.702H458.667V209.611H456.382V198.702Z" fill="#252525"/>
<path opacity="0.2" d="M451.14 198.702H453.425V209.611H451.14V198.702Z" fill="#252525"/>
<path opacity="0.2" d="M445.893 198.702H448.177V209.611H445.893V198.702Z" fill="#252525"/>
<path opacity="0.2" d="M440.65 198.702H442.934V209.611H440.65V198.702Z" fill="#252525"/>
<path opacity="0.2" d="M435.408 198.702H437.693V209.611H435.408V198.702Z" fill="#252525"/>
<path d="M432.834 187.792H490.799V198.702H432.834V187.792Z" fill="#92E3A9"/>
<path opacity="0.2" d="M432.834 187.792H490.799V189.032H432.834V187.792Z" fill="#252525"/>
<path opacity="0.2" d="M484.269 187.792H486.554V198.702H484.269V187.792Z" fill="#252525"/>
<path opacity="0.2" d="M479.028 187.792H481.313V198.702H479.028V187.792Z" fill="#252525"/>
<path opacity="0.2" d="M473.78 187.792H476.064V198.702H473.78V187.792Z" fill="#252525"/>
<path opacity="0.2" d="M468.538 187.792H470.823V198.702H468.538V187.792Z" fill="#252525"/>
<path opacity="0.2" d="M463.295 187.792H465.58V198.702H463.295V187.792Z" fill="#252525"/>
<path opacity="0.2" d="M458.046 187.792H460.331V198.702H458.046V187.792Z" fill="#252525"/>
<path opacity="0.2" d="M452.806 187.792H455.09V198.702H452.806V187.792Z" fill="#252525"/>
<path opacity="0.2" d="M447.563 187.792H449.847V198.702H447.563V187.792Z" fill="#252525"/>
<path opacity="0.2" d="M442.315 187.792H444.6V198.702H442.315V187.792Z" fill="#252525"/>
<path opacity="0.2" d="M437.072 187.792H439.357V198.702H437.072V187.792Z" fill="#252525"/>
<path d="M430.207 176.889H488.172V187.799H430.207V176.889Z" fill="#92E3A9"/>
<path opacity="0.2" d="M430.207 176.889H488.172V178.129H430.207V176.889Z" fill="#252525"/>
<path opacity="0.2" d="M481.648 176.889H483.932V187.799H481.648V176.889Z" fill="#252525"/>
<path opacity="0.2" d="M476.401 176.889H478.686V187.799H476.401V176.889Z" fill="#252525"/>
<path opacity="0.2" d="M471.158 176.889H473.443V187.799H471.158V176.889Z" fill="#252525"/>
<path opacity="0.2" d="M465.917 176.889H468.201V187.799H465.917V176.889Z" fill="#252525"/>
<path opacity="0.2" d="M460.669 176.889H462.953V187.799H460.669V176.889Z" fill="#252525"/>
<path opacity="0.2" d="M455.426 176.889H457.71V187.799H455.426V176.889Z" fill="#252525"/>
<path opacity="0.2" d="M450.183 176.889H452.468V187.799H450.183V176.889Z" fill="#252525"/>
<path opacity="0.2" d="M444.937 176.889H447.221V187.799H444.937V176.889Z" fill="#252525"/>
<path opacity="0.2" d="M439.695 176.889H441.979V187.799H439.695V176.889Z" fill="#252525"/>
<path opacity="0.2" d="M434.452 176.889H436.736V187.799H434.452V176.889Z" fill="#252525"/>
<path d="M490.716 176.883H432.751V165.974H490.716V176.883Z" fill="#92E3A9"/>
<path opacity="0.2" d="M490.716 167.213H432.751V165.974H490.716V167.213Z" fill="#252525"/>
<path opacity="0.2" d="M439.281 176.883H436.996V165.974H439.281V176.883Z" fill="#252525"/>
<path opacity="0.2" d="M444.528 176.883H442.244V165.974H444.528V176.883Z" fill="#252525"/>
<path opacity="0.2" d="M449.771 176.883H447.487V165.974H449.771V176.883Z" fill="#252525"/>
<path opacity="0.2" d="M455.013 176.883H452.729V165.974H455.013V176.883Z" fill="#252525"/>
<path opacity="0.2" d="M460.261 176.883H457.976V165.974H460.261V176.883Z" fill="#252525"/>
<path opacity="0.2" d="M465.504 176.883H463.219V165.974H465.504V176.883Z" fill="#252525"/>
<path opacity="0.2" d="M470.746 176.883H468.461V165.974H470.746V176.883Z" fill="#252525"/>
<path opacity="0.2" d="M475.993 176.883H473.708V165.974H475.993V176.883Z" fill="#252525"/>
<path opacity="0.2" d="M481.235 176.883H478.95V165.974H481.235V176.883Z" fill="#252525"/>
<path opacity="0.2" d="M486.478 176.883H484.193V165.974H486.478V176.883Z" fill="#252525"/>
<path d="M488.36 165.979H430.395V155.07H488.36V165.979Z" fill="#92E3A9"/>
<path opacity="0.2" d="M488.36 156.31H430.395V155.07H488.36V156.31Z" fill="#252525"/>
<path opacity="0.2" d="M436.926 165.979H434.641V155.07H436.926V165.979Z" fill="#252525"/>
<path opacity="0.2" d="M442.161 165.979H439.876V155.07H442.161V165.979Z" fill="#252525"/>
<path opacity="0.2" d="M447.409 165.979H445.124V155.07H447.409V165.979Z" fill="#252525"/>
<path opacity="0.2" d="M452.657 165.979H450.373V155.07H452.657V165.979Z" fill="#252525"/>
<path opacity="0.2" d="M457.893 165.979H455.609V155.07H457.893V165.979Z" fill="#252525"/>
<path opacity="0.2" d="M463.142 165.979H460.857V155.07H463.142V165.979Z" fill="#252525"/>
<path opacity="0.2" d="M468.391 165.979H466.106V155.07H468.391V165.979Z" fill="#252525"/>
<path opacity="0.2" d="M473.627 165.979H471.342V155.07H473.627V165.979Z" fill="#252525"/>
<path opacity="0.2" d="M478.873 165.979H476.589V155.07H478.873V165.979Z" fill="#252525"/>
<path opacity="0.2" d="M484.122 165.979H481.837V155.07H484.122V165.979Z" fill="#252525"/>
<path d="M486.69 155.071H428.725V144.161H486.69V155.071Z" fill="#92E3A9"/>
<path opacity="0.2" d="M486.69 145.401H428.725V144.161H486.69V145.401Z" fill="#252525"/>
<path opacity="0.2" d="M435.255 155.071H432.97V144.161H435.255V155.071Z" fill="#252525"/>
<path opacity="0.2" d="M440.503 155.071H438.218V144.161H440.503V155.071Z" fill="#252525"/>
<path opacity="0.2" d="M445.746 155.071H443.461V144.161H445.746V155.071Z" fill="#252525"/>
<path opacity="0.2" d="M450.986 155.071H448.702V144.161H450.986V155.071Z" fill="#252525"/>
<path opacity="0.2" d="M456.234 155.071H453.949V144.161H456.234V155.071Z" fill="#252525"/>
<path opacity="0.2" d="M461.477 155.071H459.192V144.161H461.477V155.071Z" fill="#252525"/>
<path opacity="0.2" d="M466.72 155.071H464.435V144.161H466.72V155.071Z" fill="#252525"/>
<path opacity="0.2" d="M471.967 155.071H469.683V144.161H471.967V155.071Z" fill="#252525"/>
<path opacity="0.2" d="M477.209 155.071H474.925V144.161H477.209V155.071Z" fill="#252525"/>
<path opacity="0.2" d="M482.451 155.071H480.166V144.161H482.451V155.071Z" fill="#252525"/>
<path d="M489.317 144.161H431.353V133.252H489.317V144.161Z" fill="#92E3A9"/>
<path opacity="0.2" d="M489.317 134.492H431.353V133.252H489.317V134.492Z" fill="#252525"/>
<path opacity="0.2" d="M437.882 144.161H435.598V133.252H437.882V144.161Z" fill="#252525"/>
<path opacity="0.2" d="M443.118 144.161H440.834V133.252H443.118V144.161Z" fill="#252525"/>
<path opacity="0.2" d="M448.366 144.161H446.081V133.252H448.366V144.161Z" fill="#252525"/>
<path opacity="0.2" d="M453.613 144.161H451.329V133.252H453.613V144.161Z" fill="#252525"/>
<path opacity="0.2" d="M458.849 144.161H456.565V133.252H458.849V144.161Z" fill="#252525"/>
<path opacity="0.2" d="M464.098 144.161H461.814V133.252H464.098V144.161Z" fill="#252525"/>
<path opacity="0.2" d="M469.346 144.161H467.061V133.252H469.346V144.161Z" fill="#252525"/>
<path opacity="0.2" d="M474.582 144.161H472.297V133.252H474.582V144.161Z" fill="#252525"/>
<path opacity="0.2" d="M479.832 144.161H477.547V133.252H479.832V144.161Z" fill="#252525"/>
<path opacity="0.2" d="M485.078 144.161H482.793V133.252H485.078V144.161Z" fill="#252525"/>
</svg>
