<svg width="381" height="138" viewBox="0 0 381 138" fill="none" xmlns="http://www.w3.org/2000/svg">
<g opacity="0.5">
<path d="M190.398 107.412C295.552 107.412 380.796 114.077 380.796 122.299C380.796 130.522 295.552 137.187 190.398 137.187C85.2441 137.187 0 130.522 0 122.299C0 114.077 85.2441 107.412 190.398 107.412Z" fill="#C2DBAA"/>
</g>
<g opacity="0.5">
<path d="M338.432 102.16L51.291 102.618L51.2243 59.4644L338.366 59.0063L338.432 102.16Z" fill="black"/>
<path d="M36.2762 27.6756C36.2762 27.6756 43.4572 28.4909 44.7328 27.6756C47.6207 25.7885 110.469 0.0594015 164.472 0.000223994C207.784 -0.0589536 246.784 11.6056 284.716 37.3215C284.716 37.3215 330.91 42.4897 348.95 56.2189C353.165 58.7043 361.77 68.5015 358.487 90.7523C356.396 104.942 345.99 105.54 331.777 105.218C331.777 105.218 337.068 62.1169 299.24 65.4111C267.097 68.2056 273.248 108.052 273.248 108.052L112.191 108.308C112.191 108.308 111.485 90.6076 110.799 86.3205C109.433 77.7332 98.9235 63.6621 79.3037 65.7531C57.7802 68.0478 50.6187 87.9907 51.9979 104.823C51.9979 104.823 29.2895 109.807 26.2202 91.2586L20.8005 89.549C20.8005 89.549 18.7155 51.0704 37.636 34.8952L33.576 32.1533L36.2762 27.6756Z" fill="black"/>
<path d="M46.9861 26.446C46.9861 26.446 48.3265 30.1545 52.9433 29.7337C56.7053 29.3983 78.1964 21.1266 86.0314 18.0757C87.1501 17.6597 88.1568 16.9822 88.97 16.0982C89.7833 15.2141 90.3803 14.1481 90.7129 12.9864C90.8768 12.4978 90.9125 11.9744 90.8165 11.4675C90.8165 11.4675 57.4046 19.6209 46.9861 26.446Z" fill="black"/>
<path d="M231.471 10.3302C231.477 11.8903 231.917 13.4171 232.739 14.7349C233.561 16.0527 234.733 17.1082 236.12 17.78L282.094 40.0241L284.723 37.1507C284.723 37.1507 279.918 33.6396 273.637 29.8456C267.809 26.341 260.687 22.6128 256.433 20.5087C248.364 16.5112 240.021 13.1096 231.471 10.3302Z" fill="black"/>
<g opacity="0.3">
<path opacity="0.3" d="M78.8378 29.7401C78.5274 30.0099 78.2782 30.3447 78.1074 30.7215C77.9366 31.0983 77.8481 31.5083 77.8481 31.9231C77.8481 32.338 77.9366 32.7479 78.1074 33.1247C78.2782 33.5015 78.5274 33.8363 78.8378 34.1061C81.117 36.4666 91.9759 44.666 97.0201 45.1657C102.064 45.6655 255.247 56.0478 264.313 53.4111C273.378 50.7745 278.688 46.106 276.408 43.4233L272.297 42.0425L200.085 43.5416L78.8378 29.7401Z" fill="black"/>
</g>
<g opacity="0.7">
<path opacity="0.7" d="M23.1187 62.8137C23.1187 62.8137 32.0349 65.4964 35.8424 58.3557C39.6498 51.2149 43.8457 43.6665 43.8457 42.0358C43.8457 39.9909 42.4017 33.4156 37.636 34.7504C37.636 34.7504 24.3813 45.4747 23.1187 62.8137Z" fill="black"/>
</g>
<g opacity="0.7">
<path opacity="0.7" d="M352.874 70.1385C352.874 70.1385 318.349 56.1134 323.937 51.3332C326.883 48.8083 355.27 62.6953 352.874 70.1385Z" fill="black"/>
</g>
<path d="M338.778 105.093C338.778 105.093 338.778 104.975 338.778 104.745C338.778 104.514 338.816 104.166 338.823 103.706C338.823 102.798 338.862 101.464 338.823 99.7605C338.631 94.8846 337.893 90.0468 336.621 85.3409C335.741 82.0816 334.509 78.9306 332.95 75.9449C331.171 72.5049 328.803 69.4144 325.957 66.8184L324.811 65.7992L323.574 64.8721C322.727 64.2481 321.85 63.6687 320.945 63.1362C320.498 62.8535 320.006 62.6431 319.533 62.3932C319.061 62.1433 318.588 61.8869 318.083 61.6831L316.574 61.0782L315.81 60.7757L315.027 60.5324C313.965 60.1825 312.884 59.8949 311.789 59.671L310.144 59.3225C309.587 59.2371 309.024 59.1779 308.467 59.099C307.91 59.0201 307.341 58.9477 306.771 58.8886L305.061 58.8031C303.909 58.7076 302.752 58.6812 301.597 58.7242C297.058 58.7134 292.557 59.5607 288.323 61.2228C284.391 62.8121 280.853 65.264 277.963 68.403C275.386 71.2699 273.283 74.5405 271.734 78.0884C270.376 81.1667 269.328 84.3764 268.606 87.6686C267.568 92.4196 267.021 97.2678 266.974 102.134C266.974 103.864 267.02 105.205 267.071 106.112C267.071 106.559 267.13 106.908 267.156 107.138C267.181 107.368 267.207 107.486 267.207 107.486C267.207 107.486 267.207 107.368 267.207 107.138C267.207 106.908 267.207 106.546 267.162 106.106C267.123 105.198 267.097 103.863 267.162 102.16C267.249 97.2912 267.828 92.4439 268.891 87.6949C269.626 84.4251 270.68 81.2378 272.038 78.1804C273.584 74.6666 275.679 71.4294 278.241 68.5937C281.111 65.4903 284.623 63.0717 288.524 61.5121C292.721 59.8663 297.182 59.0279 301.681 59.0398C306.175 58.9226 310.659 59.5262 314.968 60.8283L315.752 61.065L316.503 61.3675L317.999 61.9592C318.497 62.1631 318.957 62.4327 319.43 62.6628C319.902 62.8929 320.388 63.1165 320.828 63.3992C321.721 63.9195 322.586 64.488 323.418 65.1022L324.649 66.0228L325.782 67.0288C328.608 69.5965 330.962 72.6532 332.736 76.0566C334.305 79.0081 335.549 82.1261 336.446 85.3541C337.737 90.0393 338.51 94.8557 338.752 99.7145C338.836 101.437 338.849 102.772 338.842 103.66V104.692C338.778 104.975 338.778 105.093 338.778 105.093Z" fill="black"/>
<path d="M117.618 108.157C117.618 108.157 117.618 108.038 117.664 107.808C117.709 107.578 117.709 107.243 117.735 106.796C117.793 105.901 117.845 104.573 117.832 102.851C117.812 98.0321 117.289 93.2294 116.271 88.523C115.572 85.2691 114.553 82.0948 113.228 79.048C111.704 75.5398 109.619 72.3117 107.057 69.4941C104.204 66.3869 100.698 63.9711 96.8006 62.4257C92.6028 60.8002 88.1486 59.9647 83.656 59.96C79.182 59.7779 74.7074 60.3082 70.3949 61.5315C70.1359 61.6104 69.8704 61.6696 69.6179 61.755L68.8602 62.0378L67.3515 62.6098C66.3673 63.0043 65.409 63.5172 64.4895 63.9643C63.6024 64.5167 62.6894 65.0164 61.8541 65.6147L60.6303 66.5287C60.4296 66.6799 60.2159 66.8246 60.0281 66.989L59.4648 67.4953C56.6169 70.0178 54.2393 73.0402 52.4457 76.4179C50.8998 79.3588 49.696 82.4723 48.8585 85.6956C47.6379 90.353 46.9855 95.145 46.9159 99.964C46.8835 101.667 46.9159 102.995 46.9871 103.909C46.9871 104.356 47.0389 104.698 47.0648 104.928C47.0907 105.158 47.1166 105.27 47.1166 105.27C47.1281 105.154 47.1281 105.038 47.1166 104.922C47.1166 104.678 47.1166 104.343 47.0648 103.903C47.0648 103.008 47.0065 101.687 47.0648 99.9903C47.1837 95.1869 47.8641 90.4149 49.0916 85.7745C49.9459 82.577 51.1559 79.4887 52.6982 76.5692C54.4921 73.2277 56.863 70.241 59.6979 67.7517L60.2547 67.252C60.449 67.0942 60.6562 66.9561 60.8505 66.7983L62.0678 65.8975C62.8901 65.3123 63.7967 64.8191 64.6579 64.2734C65.5968 63.8328 66.5162 63.3265 67.494 62.9583L68.9833 62.3994L69.7344 62.1233C69.9869 62.0312 70.2524 61.972 70.5114 61.8997C74.7844 60.6761 79.2196 60.1392 83.656 60.3085C88.1001 60.3181 92.5056 61.1469 96.6582 62.7545C100.52 64.2745 103.997 66.6564 106.831 69.7243C109.376 72.5123 111.452 75.7068 112.976 79.1795C114.295 82.2091 115.319 85.3628 116.032 88.5954C117.06 93.2843 117.615 98.0672 117.69 102.87C117.722 104.573 117.69 105.895 117.657 106.815C117.657 107.256 117.657 107.591 117.612 107.835C117.566 108.078 117.618 108.157 117.618 108.157Z" fill="black"/>
<path d="M80.3527 29.7338C80.3527 29.7338 93.7434 41.5693 99.5452 41.5693C105.347 41.5693 258.258 50.9851 265.064 48.1906C268.649 46.7913 272.114 45.0935 275.424 43.1145C275.424 43.1145 225.526 6.62171 167.379 8.37073C124.695 9.65291 80.3527 29.7338 80.3527 29.7338Z" fill="black"/>
<path d="M244.538 25.6897L254.639 48.7032L259.768 48.6966L251.421 28.9971L244.538 25.6897Z" fill="black"/>
<g opacity="0.3">
<path opacity="0.3" d="M117.066 59.3571L135.197 59.3281L135.191 55.6526C135.191 55.4311 135.104 55.2188 134.949 55.0625C134.795 54.9061 134.586 54.8185 134.368 54.8188L117.882 54.8451C117.664 54.8455 117.455 54.9338 117.301 55.0906C117.147 55.2475 117.06 55.46 117.061 55.6815L117.066 59.3242L117.066 59.3571Z" fill="black"/>
</g>
<g opacity="0.3">
<path opacity="0.3" d="M187.73 59.2464L205.861 59.2175L205.855 55.5748C205.855 55.3533 205.768 55.1411 205.613 54.9847C205.459 54.8284 205.249 54.7407 205.031 54.7411L188.539 54.7674C188.321 54.7677 188.112 54.856 187.958 55.0129C187.804 55.1697 187.718 55.3823 187.718 55.6037L187.724 59.2465L187.73 59.2464Z" fill="black"/>
</g>
<path d="M124.967 14.6959L109.135 42.0161L123.886 42.8183L121.982 29.6743L131.669 13.1178L124.967 14.6959Z" fill="black"/>
<path d="M182.687 8.75831L185.154 46.0796L179.773 45.81L177.449 8.42297L182.687 8.75831Z" fill="black"/>
<path d="M251.595 54.3449L249.297 51.9317L252.955 47.2041L256.102 50.2616C256.57 50.6666 256.861 51.2435 256.911 51.866C257.352 54.8051 253.629 56.4752 251.595 54.3449Z" fill="black"/>
<path d="M242.298 53.4572C236.71 53.6479 232.313 47.8617 234.638 42.6935C234.879 42.0639 235.275 41.5077 235.789 41.0782C236.303 40.6488 236.916 40.3605 237.571 40.2409C243.399 39.2086 250.942 38.8272 252.975 47.2041C253.571 49.683 252.205 51.2151 249.971 52.1422C247.847 53.0233 244.979 53.3586 242.298 53.4572Z" fill="black"/>
<path d="M277.852 98.1386C276.875 83.8033 287.527 71.3779 301.644 70.3855C315.761 69.3931 327.997 80.2097 328.975 94.5449C329.952 108.88 319.3 121.306 305.183 122.298C291.066 123.29 278.83 112.474 277.852 98.1386Z" fill="black"/>
<path d="M303.39 79.0024C306.766 78.9933 310.07 80.0013 312.882 81.8988C315.694 83.7963 317.889 86.4981 319.188 89.6625C320.488 92.8268 320.835 96.3116 320.184 99.6758C319.533 103.04 317.914 106.133 315.532 108.563C313.15 110.993 310.112 112.651 306.802 113.327C303.492 114.003 300.059 113.667 296.936 112.362C293.814 111.056 291.144 108.84 289.262 105.993C287.381 103.146 286.373 99.7963 286.367 96.3677C286.362 94.0924 286.798 91.8384 287.651 89.7344C288.503 87.6303 289.756 85.7174 291.337 84.1049C292.917 82.4924 294.796 81.2118 296.864 80.3363C298.932 79.4608 301.149 79.0076 303.39 79.0024ZM317.085 96.3217C317.081 93.5764 316.276 90.8939 314.771 88.6135C313.265 86.333 311.128 84.557 308.629 83.51C306.13 82.4631 303.381 82.1922 300.73 82.7316C298.079 83.271 295.646 84.5965 293.737 86.5404C291.828 88.4844 290.529 90.9595 290.006 93.6528C289.482 96.3461 289.757 99.1366 290.795 101.671C291.833 104.206 293.588 106.372 295.838 107.893C298.088 109.415 300.732 110.226 303.435 110.222C307.059 110.21 310.529 108.74 313.088 106.135C315.646 103.529 317.083 100.001 317.085 96.3217Z" fill="black"/>
<path d="M303.397 82.4347C306.103 82.4282 308.75 83.2367 311.004 84.758C313.257 86.2792 315.016 88.4449 316.057 90.9811C317.099 93.5173 317.376 96.3102 316.855 99.0065C316.333 101.703 315.036 104.182 313.127 106.129C311.218 108.077 308.783 109.406 306.13 109.948C303.477 110.491 300.726 110.222 298.223 109.177C295.721 108.131 293.58 106.356 292.071 104.074C290.562 101.793 289.754 99.1091 289.747 96.3612C289.742 92.6774 291.176 89.1421 293.735 86.5311C296.295 83.9202 299.769 82.4469 303.397 82.4347Z" fill="black"/>
<path d="M307.457 96.3806C307.458 97.1921 307.223 97.9857 306.78 98.6612C306.337 99.3366 305.707 99.8636 304.969 100.175C304.231 100.487 303.419 100.57 302.635 100.413C301.851 100.256 301.13 99.8659 300.564 99.293C299.998 98.7202 299.612 97.9897 299.455 97.1941C299.298 96.3984 299.376 95.5733 299.681 94.8231C299.986 94.0729 300.503 93.4312 301.166 92.9793C301.83 92.5274 302.611 92.2855 303.41 92.2842C303.941 92.2833 304.466 92.3886 304.957 92.594C305.447 92.7994 305.893 93.1009 306.269 93.4813C306.645 93.8617 306.943 94.3135 307.147 94.8109C307.351 95.3084 307.456 95.8418 307.457 96.3806Z" fill="black"/>
<path d="M64.8413 115.662C54.8352 105.501 54.8352 89.0269 64.8413 78.8661C74.8474 68.7053 91.0705 68.7053 101.077 78.8661C111.083 89.0269 111.083 105.501 101.077 115.662C91.0705 125.823 74.8474 125.823 64.8413 115.662Z" fill="black"/>
<path d="M82.9369 79.9291C86.313 79.92 89.6159 80.9279 92.428 82.8251C95.24 84.7223 97.4348 87.4237 98.7347 90.5877C100.035 93.7517 100.381 97.2361 99.7311 100.6C99.0808 103.964 97.4626 107.057 95.0812 109.487C92.6999 111.917 89.6622 113.576 86.3526 114.253C83.043 114.93 79.61 114.595 76.4878 113.29C73.3656 111.986 70.6945 109.77 68.8123 106.924C66.9301 104.078 65.9214 100.729 65.9137 97.301C65.9034 92.7053 67.6909 88.2936 70.8832 85.0359C74.0755 81.7782 78.4112 79.9413 82.9369 79.9291ZM96.606 97.255C96.6034 94.5072 95.7977 91.822 94.291 89.5396C92.7843 87.2572 90.6444 85.4802 88.1423 84.4338C85.6402 83.3874 82.8886 83.1187 80.236 83.6616C77.5834 84.2046 75.1491 85.5348 73.2416 87.4837C71.3341 89.4327 70.0392 91.9127 69.5209 94.6097C69.0026 97.3066 69.2842 100.099 70.3301 102.633C71.376 105.168 73.1391 107.33 75.396 108.845C77.653 110.361 80.3022 111.163 83.0082 111.149C86.6217 111.124 90.0792 109.65 92.6266 107.047C95.1739 104.445 96.6044 100.925 96.606 97.255Z" fill="black"/>
<path d="M82.9432 83.3682C85.6495 83.3604 88.2973 84.1678 90.5517 85.6882C92.8061 87.2087 94.5658 89.3739 95.6083 91.91C96.6507 94.4461 96.9291 97.2391 96.4082 99.9359C95.8873 102.633 94.5905 105.112 92.6818 107.06C90.7732 109.009 88.3384 110.338 85.6854 110.881C83.0324 111.424 80.2805 111.156 77.7776 110.111C75.2747 109.065 73.1333 107.29 71.6243 105.009C70.1153 102.727 69.3064 100.043 69.3 97.2946C69.2931 93.6115 70.7261 90.0762 73.2841 87.465C75.8421 84.8539 79.3162 83.3804 82.9432 83.3682Z" fill="black"/>
<path d="M87.0039 97.3407C87.0052 98.1524 86.7693 98.9463 86.3261 99.6219C85.8829 100.298 85.2523 100.824 84.5141 101.136C83.7759 101.448 82.9633 101.53 82.1791 101.372C81.3949 101.215 80.6743 100.824 80.1086 100.251C79.5429 99.6772 79.1574 98.9462 79.001 98.1501C78.8445 97.354 78.9242 96.5287 79.2298 95.7786C79.5354 95.0285 80.0533 94.3873 80.7179 93.9362C81.3825 93.4851 82.164 93.2443 82.9634 93.2443C84.0339 93.2443 85.0606 93.6756 85.8182 94.4437C86.5757 95.2117 87.0022 96.2536 87.0039 97.3407Z" fill="black"/>
<path d="M70.8288 48.3812C70.8392 49.1811 71.0829 49.96 71.5293 50.6192C71.9757 51.2785 72.6046 51.7884 73.3365 52.0846C74.0684 52.3808 74.8703 52.4499 75.6409 52.2831C76.4114 52.1163 77.1159 51.7212 77.6653 51.1477C78.2146 50.5742 78.5841 49.8482 78.7269 49.0614C78.8698 48.2746 78.7796 47.4625 78.4678 46.7278C78.156 45.993 77.6366 45.3687 76.9753 44.9339C76.314 44.499 75.5406 44.2731 74.7528 44.2847C73.6977 44.3003 72.6919 44.7405 71.9562 45.5085C71.2205 46.2766 70.815 47.3098 70.8288 48.3812Z" fill="black"/>
<path d="M117.714 98.9843H118.096H119.23L123.581 99.0698L139.575 99.3328L192.354 99.9903C212.971 100.207 231.639 100.345 245.146 100.365C251.899 100.365 257.371 100.365 261.146 100.299C264.921 100.234 267.025 100.148 266.974 100.023C266.477 100.104 265.974 100.138 265.471 100.122C264.481 100.122 263.011 100.161 261.127 100.168C257.352 100.168 251.88 100.168 245.126 100.128L192.341 99.6419L139.562 99.0764L123.561 98.9252H119.21H118.077L117.714 98.9843Z" fill="black"/>
<path d="M183.043 108.032C183.14 108.032 183.043 94.2241 182.778 77.2204C182.512 60.2168 182.26 46.4021 182.169 46.4087C182.078 46.4153 182.169 60.2168 182.441 77.2204C182.713 94.2241 182.953 108.032 183.043 108.032Z" fill="black"/>
<path d="M147.513 19.2593C147.455 19.3316 151.631 23.2045 156.844 27.9124C162.056 32.6203 166.33 36.3748 166.395 36.3025C166.46 36.2301 162.277 32.3573 157.064 27.6559C151.852 22.9546 147.578 19.1935 147.513 19.2593Z" fill="black"/>
<path d="M149.566 26.7153C149.765 26.9504 149.982 27.1702 150.213 27.3729C150.641 27.7871 151.269 28.3723 152.059 29.0824C153.632 30.5159 155.834 32.449 158.32 34.5268C160.807 36.6046 163.105 38.4325 164.795 39.7278C165.637 40.3854 166.324 40.8851 166.803 41.2336C167.043 41.4286 167.301 41.6003 167.573 41.7465C167.363 41.5197 167.134 41.3129 166.887 41.1284L164.944 39.5372C163.3 38.2221 161.059 36.3416 158.54 34.2769C156.022 32.2123 153.833 30.2923 152.221 28.9115L150.278 27.2874C150.061 27.0714 149.823 26.8796 149.566 26.7153Z" fill="black"/>
<path d="M202.248 20.0811C202.196 20.16 208.289 24.4733 215.846 29.7204C223.402 34.9675 229.592 39.156 229.644 39.0771C229.696 38.9982 223.609 34.6848 216.046 29.4377C208.483 24.1906 202.3 20.0021 202.248 20.0811Z" fill="black"/>
<path d="M196.575 19.8181C196.817 20.0605 197.079 20.2805 197.359 20.4756L199.56 22.1984L206.832 27.8662L214.039 33.6196L216.221 35.3686C216.479 35.5951 216.756 35.7976 217.05 35.9736C216.821 35.7163 216.572 35.4788 216.305 35.2634C215.813 34.8229 215.088 34.1982 214.188 33.4289C212.388 31.9035 209.869 29.8257 207.065 27.5967C204.261 25.3676 201.632 23.3951 199.729 22.0011C198.777 21.3041 198 20.7518 197.456 20.377C197.18 20.1639 196.885 19.9768 196.575 19.8181Z" fill="black"/>
<path d="M287.999 38.7351C288.057 38.757 288.118 38.7703 288.18 38.7745L288.698 38.8534L290.706 39.1296C292.448 39.3729 294.966 39.7345 298.062 40.2737C306.135 41.6799 314.112 43.6104 321.942 46.0534C326.526 47.4868 330.832 49.0319 334.705 50.564C338.155 51.8571 341.516 53.3816 344.767 55.1272C346.95 56.3181 348.973 57.7876 350.789 59.4998C351.119 59.7957 351.385 60.085 351.618 60.3283C351.851 60.5716 352.052 60.7886 352.201 60.9858L352.557 61.3803C352.595 61.427 352.636 61.4709 352.68 61.5119C352.68 61.5119 352.68 61.4527 352.583 61.3606L352.252 60.9398C352.11 60.7557 351.929 60.5321 351.695 60.2823C351.462 60.0324 351.203 59.7299 350.88 59.4209C349.086 57.6619 347.07 56.1538 344.884 54.9366C341.637 53.1543 338.273 51.6032 334.815 50.2944C330.93 48.7427 326.63 47.1777 322.039 45.7509C314.201 43.2996 306.207 41.3971 298.113 40.0567C295.005 39.5504 292.48 39.2216 290.732 39.0178L288.718 38.8074L288.193 38.7614C288.131 38.741 288.065 38.7321 287.999 38.7351Z" fill="black"/>
<path d="M126.728 4.49118H126.993L127.777 4.35968L130.768 3.83366C133.358 3.38654 137.14 2.78162 141.821 2.20957C154.016 0.671226 166.331 0.354086 178.587 1.26273C192.943 2.40683 205.712 5.3131 214.848 7.58814C219.426 8.74539 223.111 9.75141 225.655 10.4615L228.589 11.2703L229.353 11.4741C229.439 11.5033 229.528 11.5231 229.618 11.5333C229.535 11.4934 229.448 11.4625 229.359 11.4412L228.608 11.2045L225.694 10.33C223.156 9.58046 219.478 8.53498 214.907 7.35143C205.764 5.01721 192.988 2.09121 178.6 0.920815C166.324 0.00479361 153.989 0.355072 141.782 1.96628C137.094 2.57121 133.326 3.21558 130.729 3.70215C129.434 3.93886 128.431 4.15585 127.751 4.28735L126.974 4.45173C126.891 4.45621 126.808 4.46943 126.728 4.49118Z" fill="black"/>
<path d="M235.427 42.108C235.712 42.1039 235.996 42.0753 236.275 42.0225C236.813 41.9568 237.57 41.8581 238.561 41.8121C241.083 41.6589 243.613 41.9322 246.046 42.6209C247.373 43.0144 248.618 43.647 249.724 44.4883C250.618 45.1836 251.367 46.0532 251.926 47.046C252.429 47.9752 252.754 48.9925 252.884 50.0444C252.884 50.0444 252.884 49.9655 252.884 49.8208C252.888 49.601 252.875 49.3811 252.845 49.1633C252.734 48.3767 252.488 47.6158 252.12 46.9145C251.571 45.8718 250.815 44.956 249.899 44.2252C248.772 43.3359 247.492 42.667 246.124 42.2527C243.655 41.5517 241.083 41.3067 238.529 41.5294C237.757 41.5893 236.989 41.6969 236.23 41.8516C235.954 41.9075 235.685 41.9935 235.427 42.108Z" fill="black"/>
<path d="M187.958 51.0308C187.958 51.1295 197.373 51.7738 208.995 52.4774C220.618 53.1809 230.046 53.6741 230.053 53.582C230.059 53.49 220.644 52.839 209.015 52.1355C197.385 51.4319 187.964 50.9388 187.958 51.0308Z" fill="black"/>
<path d="M293.891 58.9739C293.947 58.9802 294.003 58.9802 294.059 58.9739L294.532 58.8687C294.946 58.7898 295.542 58.5992 296.338 58.4742C298.57 58.053 300.835 57.833 303.105 57.8167C306.469 57.7536 309.829 58.0934 313.116 58.8293C317.155 59.6664 321.007 61.2535 324.479 63.5109C327.885 65.8698 330.82 68.8616 333.13 72.3283C335.023 75.1534 336.506 78.2404 337.533 81.4943C338.227 83.6884 338.698 85.949 338.939 88.2406C339.062 89.0493 339.055 89.6871 339.1 90.1145L339.139 90.6011C339.133 90.6579 339.133 90.7153 339.139 90.772C339.149 90.7155 339.149 90.6576 339.139 90.6011V90.1145C339.139 89.6805 339.139 89.0427 339.042 88.2274C338.852 85.9183 338.418 83.6367 337.747 81.422C336.744 78.1315 335.271 75.008 333.376 72.1508C331.067 68.6101 328.108 65.554 324.661 63.1493C321.159 60.8665 317.267 59.2696 313.187 58.4413C309.873 57.7184 306.486 57.4005 303.098 57.4945C300.817 57.5426 298.545 57.809 296.312 58.2901C295.516 58.4348 294.927 58.6518 294.512 58.7504L294.046 58.8885L293.891 58.9739Z" fill="black"/>
</g>
</svg>
