<svg width="477" height="138" viewBox="0 0 477 138" fill="none" xmlns="http://www.w3.org/2000/svg">
<g opacity="0.5">
<path d="M238.5 100.7C370.22 100.7 477 108.922 477 119.065C477 129.207 370.22 137.429 238.5 137.429C106.78 137.429 0 129.207 0 119.065C0 108.922 106.78 100.7 238.5 100.7Z" fill="#FFC1B8"/>
</g>
<g opacity="0.5">
<path d="M160.783 6.9169C160.846 6.92784 160.912 6.92784 160.976 6.9169H161.533L163.677 6.8526L171.616 6.53818L183.392 6.03084L190.345 5.72358C191.552 5.63068 192.774 5.72358 194.025 5.72358H197.812C208.066 5.72358 217.334 5.26624 224.037 4.97326L231.976 4.59454L234.12 4.47307L234.684 4.43018C234.748 4.44234 234.813 4.44234 234.877 4.43018H234.12L231.976 4.4802L224.03 4.74459C217.32 4.97325 208.052 5.352 197.812 5.38773H194.025C192.774 5.38773 191.545 5.32341 190.337 5.38773L183.385 5.71642L171.608 6.30238L163.67 6.73111L161.526 6.86688L160.961 6.90975L160.783 6.9169Z" fill="black"/>
<path d="M387.173 42.9167H46.1778V92.7298H418.657V74.3938C418.655 66.0449 415.337 58.0386 409.433 52.1357C403.529 46.2328 395.522 42.9167 387.173 42.9167Z" fill="black"/>
<g opacity="0.4">
<path opacity="0.4" d="M387.173 42.9167H46.1778V92.7298H418.657V74.3938C418.655 66.0449 415.337 58.0386 409.433 52.1357C403.529 46.2328 395.522 42.9167 387.173 42.9167Z" fill="black"/>
</g>
<path d="M450.491 91.0151C450.491 91.0151 437.279 105.485 412.983 102.541C412.983 102.541 422.701 48.6122 371.781 45.6467C371.781 45.6467 348.443 43.6102 336.424 62.7965C332.962 68.4211 331.074 74.872 330.957 81.4755C330.757 89.05 330.521 101.841 331.129 105.056C331.129 105.056 162.86 98.0608 133.406 101.412C133.406 101.412 146.811 59.6881 109.875 46.3041C103.572 44.0175 96.2978 43.7674 89.6594 44.7035C80.6057 45.9754 70.9018 50.12 64.6493 59.7096C61.9553 63.8327 58.6254 69.8137 57.6822 74.6442C56.0744 82.9261 57.1677 90.7293 57.6822 94.788L43.755 93.4375L33.7081 60.1454L35.1373 40.316L45.4772 20.7652L69.9871 23.6807C69.9871 23.6807 115.334 10.8183 142.016 5.45189C168.699 0.0854269 210.844 -0.979289 221.048 0.785712C231.252 2.55071 235.14 4.43718 240.199 6.62378C245.258 8.81038 291.913 31.1194 291.913 31.1194L363.213 31.6982C363.213 31.6982 411.918 30.6835 442.681 67.2769L438.601 83.755L450.491 91.0151Z" fill="black"/>
<path d="M291.898 31.1195C291.898 31.1195 247.959 32.9916 236.397 32.5486C224.836 32.1056 162.282 24.7669 162.282 24.7669L161.381 6.80247C161.381 6.80247 182.133 5.44479 195.752 5.44479C207.086 5.44479 234.918 4.38721 234.918 4.38721C235.804 4.75879 236.776 5.14466 237.684 5.53053C253.847 12.4262 272.012 21.5156 291.898 31.1195Z" fill="black"/>
<path d="M432.277 56.7798C432.277 56.7798 425.768 57.8231 417.629 54.1716C409.49 50.5201 386.33 38.0365 386.33 38.0365L387.859 34.8638C387.859 34.8638 392.011 35.6998 396.792 37.2147C401.965 38.8885 407.001 40.9598 411.855 43.4101C415.663 45.3214 419.365 47.4373 422.945 49.7484C426.189 51.9097 429.305 54.2575 432.277 56.7798Z" fill="black"/>
<path d="M419.701 67.1697C419.701 67.2697 424.231 67.4841 429.833 67.6484C435.435 67.8128 439.98 67.8628 439.987 67.7556C439.994 67.6485 435.45 67.4412 429.847 67.2769C424.245 67.1125 419.701 67.0697 419.701 67.1697Z" fill="black"/>
<g opacity="0.4">
<path opacity="0.4" d="M438.587 83.7549L422.631 91.1936C422.631 91.1936 438.28 94.2949 450.499 91.0364L438.587 83.7549Z" fill="black"/>
</g>
<path d="M411.148 63.3254C411.148 63.3254 416.279 70.8428 417.015 76.8309C417.751 82.819 417.865 90.3292 417.865 90.3292H415.543C415.543 90.3292 417.472 72.0575 407.847 63.3254H411.148Z" fill="black"/>
<g opacity="0.3">
<path opacity="0.3" d="M329.921 49.2195L335.495 43.9245L288.247 42.2524L321.004 46.4327L329.921 49.2195Z" fill="black"/>
</g>
<path d="M326.299 91.501C326.308 91.4322 326.308 91.3625 326.299 91.2938C326.299 91.1294 326.299 90.9293 326.335 90.6792C326.335 90.1433 326.378 89.3501 326.449 88.3354C326.598 85.4639 326.894 82.6019 327.335 79.7605C327.985 75.5368 329.151 71.409 330.808 67.4698C332.858 62.6572 335.824 58.2888 339.54 54.6075C343.249 50.9368 347.611 47.9921 352.402 45.9254L353.217 45.561L354.046 45.2537L355.668 44.6392C356.761 44.3176 357.812 43.9246 358.841 43.6888C359.87 43.4529 360.877 43.1671 361.863 43.0099L363.293 42.7384L364.679 42.5526C367.522 42.1932 370.392 42.0951 373.254 42.2596C374.276 42.3025 375.054 42.4168 375.59 42.4526L376.205 42.5026H376.412C376.346 42.4781 376.276 42.4636 376.205 42.4597L375.605 42.3739C375.069 42.3168 374.283 42.1739 373.268 42.1096C370.384 41.8866 367.486 41.9488 364.614 42.2953L363.185 42.4668L361.756 42.7241C360.77 42.8813 359.763 43.1314 358.712 43.3886C357.662 43.6459 356.611 44.0103 355.511 44.3319L353.874 44.9393L353.038 45.2465L352.217 45.611C347.366 47.6767 342.949 50.6392 339.197 54.3431C335.449 58.0529 332.466 62.4617 330.415 67.3198C328.774 71.2849 327.639 75.4406 327.035 79.6891C326.631 82.5549 326.395 85.442 326.328 88.3354C326.278 89.3573 326.328 90.1504 326.285 90.6864V91.3009C326.279 91.3679 326.284 91.4354 326.299 91.501Z" fill="black"/>
<g opacity="0.4">
<path opacity="0.4" d="M318.359 88.9501L290.098 76.8667L151.456 79.5321L318.359 88.9501Z" fill="black"/>
</g>
<path d="M291.793 77.5952L330.837 48.3548L321.004 46.4326L280.652 77.045L291.793 77.5952Z" fill="black"/>
<path d="M279.358 103.106C279.397 103.019 279.423 102.928 279.436 102.834C279.494 102.627 279.558 102.362 279.644 102.027C279.822 101.312 280.065 100.24 280.358 98.9182C280.987 96.2028 281.873 92.3583 282.945 87.6993V87.6636V87.6207C281.973 84.3908 280.866 80.7465 279.672 76.8163V76.9021C280.137 73.615 280.63 70.0707 281.144 66.3978C281.859 61.2315 282.502 56.3152 282.895 51.8062L282.959 50.963C282.981 50.6776 282.981 50.3909 282.959 50.1055C282.892 49.5577 282.774 49.0172 282.609 48.4906C282.295 47.494 281.908 46.522 281.452 45.5823C280.63 43.9054 279.719 42.2738 278.722 40.6946C276.9 37.7934 275.27 35.5639 274.127 34.0276C273.556 33.263 273.098 32.677 272.784 32.2912C272.641 32.1054 272.519 31.9625 272.426 31.8481C272.334 31.7338 272.298 31.6981 272.291 31.7052C272.317 31.7638 272.351 31.819 272.391 31.8696L272.727 32.334L274.013 34.1133C275.12 35.6711 276.714 37.9292 278.493 40.8303C279.471 42.4094 280.365 44.0385 281.173 45.7109C281.614 46.6361 281.988 47.5913 282.295 48.5692C282.633 49.598 282.733 50.6902 282.588 51.7633C282.18 56.2509 281.502 61.1671 280.816 66.3335C280.301 70.0064 279.815 73.5507 279.386 76.8378V76.9021L282.709 87.6993V87.6207C281.687 92.2869 280.844 96.1456 280.251 98.8681L279.594 101.991C279.522 102.327 279.472 102.598 279.429 102.813C279.391 102.906 279.367 103.005 279.358 103.106Z" fill="black"/>
<path d="M278.308 31.6552L223.728 4.96582L209.58 5.45175C209.58 5.45175 244.844 13.8551 251.49 32.4841L278.308 31.6552Z" fill="black"/>
<path d="M118.1 15.3917L123.474 21.387L162.282 24.7884L161.382 6.82397C161.382 6.82397 124.102 12.4405 118.1 15.3917Z" fill="black"/>
<path d="M278.351 94.7666L277.879 94.7237L276.486 94.638L271.126 94.3522L251.411 93.3803L186.385 90.2934L176.988 89.8432C173.964 89.6081 171.026 88.7285 168.37 87.2636C163.125 84.4053 159.081 80.0821 155.78 75.716C152.627 71.5717 150.005 67.049 147.976 62.2535C146.208 58.0734 145.122 53.6366 144.761 49.1124C144.625 47.1437 144.651 45.1672 144.839 43.2029C145.025 41.4513 145.335 39.7152 145.768 38.0079C146.484 35.2741 147.576 32.6528 149.012 30.2191C149.936 28.692 151.004 27.2564 152.2 25.9316C152.614 25.4814 152.95 25.1599 153.171 24.9312L153.493 24.5811C153.493 24.5811 153.371 24.6811 153.143 24.9026C152.914 25.1241 152.571 25.4385 152.142 25.8744C150.92 27.1929 149.831 28.629 148.891 30.1619C147.429 32.6 146.311 35.2283 145.568 37.9722C145.123 39.6883 144.801 41.4339 144.604 43.1957C144.402 45.1758 144.366 47.1693 144.496 49.1553C144.842 53.7097 145.921 58.1784 147.691 62.3892C149.712 67.2257 152.336 71.7875 155.501 75.9662C158.788 80.3251 162.882 84.6625 168.17 87.6209C170.872 89.1118 173.862 90.0084 176.938 90.2505L186.356 90.7007L251.383 93.6733L271.098 94.538L276.464 94.7523L277.858 94.7952L278.351 94.7666Z" fill="black"/>
<path d="M120.281 37.658C120.346 37.0091 120.473 36.3678 120.659 35.7429C121.254 34.0623 122.433 32.6519 123.982 31.7699C125.116 31.1167 126.37 30.6996 127.67 30.5436C128.969 30.3877 130.286 30.4961 131.542 30.8624C133.026 31.2859 134.369 32.1004 135.43 33.2205C136.594 34.4057 137.246 36.0004 137.246 37.6616C137.246 39.3227 136.594 40.9174 135.43 42.1026C134.371 43.2246 133.028 44.0373 131.542 44.4536C130.287 44.8236 128.969 44.934 127.669 44.778C126.369 44.6219 125.115 44.2028 123.982 43.5461C122.43 42.6676 121.25 41.2559 120.659 39.5731C120.473 38.9481 120.346 38.3069 120.281 37.658C120.264 37.829 120.264 38.0014 120.281 38.1725C120.281 38.379 120.303 38.5849 120.345 38.787C120.375 39.0695 120.438 39.3476 120.531 39.6159C121.086 41.3653 122.27 42.8469 123.854 43.7748C125.014 44.4657 126.304 44.9116 127.644 45.0848C128.983 45.2581 130.344 45.1552 131.642 44.7823C133.195 44.3561 134.601 43.5134 135.708 42.3456C136.936 41.094 137.623 39.4109 137.623 37.658C137.623 35.905 136.936 34.222 135.708 32.9704C134.599 31.8051 133.193 30.9629 131.642 30.5337C130.344 30.1602 128.982 30.0575 127.643 30.232C126.303 30.4066 125.013 30.8546 123.854 31.5484C122.269 32.4719 121.085 33.9517 120.531 35.7C120.438 35.9686 120.376 36.2466 120.345 36.529C120.302 36.7334 120.281 36.9418 120.281 37.1506C120.263 37.3193 120.263 37.4893 120.281 37.658Z" fill="black"/>
<path d="M69.2737 23.6021H69.4594H70.0168L72.1605 23.645L80.0208 23.7951C86.6664 23.9237 95.8487 24.1238 105.981 24.5096C116.114 24.8955 125.275 25.3457 131.92 25.8388C135.229 26.1032 137.916 26.3032 139.781 26.5033L141.925 26.7034L142.482 26.7463C142.546 26.7557 142.611 26.7557 142.675 26.7463C142.613 26.7364 142.551 26.7364 142.489 26.7463L141.939 26.6677L139.795 26.3961C137.951 26.1532 135.272 25.9102 131.935 25.6101C125.303 25.0456 116.128 24.5311 105.989 24.1809C95.8487 23.8308 86.695 23.6593 80.0208 23.595C76.6981 23.595 74.0041 23.5593 72.1605 23.595H70.0168H69.4594C69.3975 23.5884 69.3349 23.5908 69.2737 23.6021Z" fill="black"/>
<path d="M65.9355 23.2021L42.426 26.5249L45.4773 20.7654L65.9355 23.2021Z" fill="black"/>
<path d="M47.6347 25.4526C47.6659 25.5756 47.709 25.6953 47.7634 25.8099L48.1921 26.8032C48.5709 27.6678 49.1568 28.904 49.9071 30.3761C51.8703 34.2998 54.0409 38.1162 56.4098 41.8093C58.7809 45.5027 61.345 49.0686 64.0914 52.4922C65.149 53.807 66.0208 54.8503 66.6496 55.5505L67.3642 56.358C67.4434 56.4571 67.5346 56.5459 67.6357 56.6224C67.6357 56.6224 67.5714 56.5081 67.4213 56.308L66.7568 55.4576C66.1637 54.7431 65.3277 53.6569 64.2915 52.3278C62.2264 49.6767 59.4824 45.8966 56.717 41.6092C53.9516 37.3217 51.715 33.2272 50.1287 30.2474C49.3498 28.7611 48.6995 27.5463 48.3208 26.6746L47.8277 25.7099C47.7736 25.6169 47.7089 25.5306 47.6347 25.4526Z" fill="black"/>
<path d="M52.2805 89.3073C52.2913 89.2314 52.2913 89.1545 52.2805 89.0786V88.364C52.2805 87.7709 52.2805 86.9349 52.2805 85.7773C52.436 82.6046 52.9149 79.4561 53.7097 76.3806C54.9016 71.8273 56.5661 67.4111 58.676 63.2038C59.8713 60.6967 61.2271 58.2693 62.7348 55.9366C64.3321 53.4263 66.3365 51.1997 68.6658 49.3482C71.0553 47.5695 73.7071 46.1736 76.5261 45.2108C79.1444 44.2913 81.8296 43.5747 84.5579 43.0671C89.1761 42.208 93.8817 41.9152 98.5707 42.1953C101.74 42.3754 104.89 42.8127 107.989 43.503L109.418 43.8389L110.476 44.1104L111.133 44.2747C111.205 44.2986 111.279 44.3131 111.354 44.3176C111.286 44.2842 111.214 44.2579 111.14 44.239L110.497 44.0389L109.447 43.7317L108.017 43.3601C104.918 42.6111 101.76 42.1329 98.5779 41.9309C93.8551 41.6164 89.1114 41.8948 84.4579 42.7598C81.7079 43.2644 79.0011 43.9811 76.3617 44.9036C73.5088 45.8768 70.8254 47.2896 68.4085 49.091C66.0505 50.9713 64.0199 53.2289 62.3989 55.7723C60.8903 58.1205 59.5323 60.5621 58.333 63.0824C56.2323 67.3197 54.5868 71.7678 53.4239 76.352C52.6635 79.4492 52.2323 82.6181 52.1376 85.8058C52.1376 86.9349 52.1377 87.8138 52.1877 88.4069C52.1877 88.6856 52.1877 88.9071 52.2305 89.0786C52.2378 89.1566 52.2546 89.2334 52.2805 89.3073Z" fill="black"/>
<path d="M33.6443 56.5083C33.9514 56.6421 34.2693 56.7497 34.5946 56.8299C35.202 57.0228 36.1024 57.2658 37.2171 57.5444C43.0355 58.9583 48.9944 59.7133 54.9815 59.7954C56.1319 59.7954 57.0609 59.7954 57.704 59.7954C58.0367 59.7975 58.369 59.7713 58.6973 59.7168C58.3695 59.6596 58.0364 59.6381 57.704 59.6524L54.9886 59.5596C52.702 59.4738 49.5435 59.2666 46.0778 58.845C42.6122 58.4234 39.5038 57.8088 37.2672 57.3301L34.6232 56.737C34.3044 56.6315 33.9768 56.555 33.6443 56.5083Z" fill="black"/>
<path d="M303.117 57.3371C303.117 57.3371 302.96 57.3371 302.66 57.2799L301.324 57.1585L296.172 56.7369L277.214 55.2505C261.222 54.0286 239.12 52.3922 214.681 50.8773C202.462 50.127 190.815 49.4982 180.217 49.0051C169.62 48.5121 160.052 48.2906 152.035 48.8051C145.702 49.1242 139.406 49.9679 133.213 51.3275C131.026 51.8634 129.34 52.285 128.211 52.6423L126.924 53.0282L126.489 53.1711C126.489 53.1711 126.646 53.1711 126.939 53.0639L128.232 52.7209C129.368 52.3851 131.09 52.0064 133.234 51.4704C139.435 50.1567 145.732 49.3418 152.063 49.0337C160.066 48.5764 169.627 48.7908 180.217 49.3196C190.807 49.8483 202.455 50.47 214.674 51.2203C239.106 52.7138 261.207 54.3287 277.207 55.5078L296.164 56.8941L301.316 57.2513L302.653 57.3371H303.117Z" fill="black"/>
<path d="M95.8215 118.953C76.3791 118.678 60.8407 102.694 61.1156 83.2519C61.3905 63.8095 77.3745 48.2711 96.8169 48.546C116.259 48.8209 131.798 64.8049 131.523 84.2473C131.248 103.69 115.264 119.228 95.8215 118.953Z" fill="black"/>
<path d="M131.528 83.1621C131.528 83.1621 131.528 83.2193 131.528 83.2479C131.595 87.8708 130.751 92.4618 129.043 96.7586C127.336 101.055 124.799 104.974 121.578 108.29C118.356 111.607 114.513 114.256 110.268 116.087C106.022 117.918 101.458 118.895 96.8349 118.962C87.4984 119.098 78.4904 115.519 71.7926 109.013C65.0949 102.507 61.256 93.6063 61.1205 84.2697V84.1768L131.528 83.1621Z" fill="black"/>
<path d="M121.043 83.4049C121.112 88.2925 119.73 93.0907 117.072 97.1929C114.414 101.295 110.6 104.517 106.111 106.452C101.622 108.386 96.6597 108.946 91.8525 108.061C87.0452 107.176 82.6084 104.885 79.1029 101.478C75.5974 98.0718 73.1807 93.7023 72.1583 88.9223C71.1359 84.1424 71.5537 79.1666 73.359 74.6241C75.1642 70.0816 78.2757 66.1763 82.3002 63.402C86.3247 60.6277 91.0814 59.109 95.969 59.0379C99.2158 58.9897 102.44 59.5819 105.458 60.7807C108.476 61.9795 111.228 63.7613 113.557 66.0244C115.885 68.2874 117.745 70.9872 119.03 73.9695C120.314 76.9518 120.999 80.158 121.043 83.4049Z" fill="black"/>
<path d="M95.9695 59.0379C99.2157 58.9897 102.44 59.5817 105.457 60.78C108.474 61.9784 111.226 63.7596 113.555 66.0218C115.883 68.2841 117.743 70.9831 119.028 73.9646C120.313 76.946 120.998 80.1515 121.044 83.3977L71.6096 84.1123C71.5624 80.8663 72.155 77.6428 73.3537 74.6259C74.5524 71.609 76.3336 68.8577 78.5957 66.5293C80.8578 64.2008 83.5564 62.3408 86.5374 61.0554C89.5185 59.77 92.7235 59.0845 95.9695 59.0379Z" fill="black"/>
<path d="M111.383 83.5406C111.427 86.5183 110.586 89.4419 108.968 91.9419C107.35 94.4419 105.027 96.4058 102.292 97.5853C99.5576 98.7648 96.5348 99.1069 93.606 98.5684C90.6771 98.0299 87.9737 96.6349 85.8377 94.5598C83.7016 92.4848 82.2289 89.8229 81.6058 86.9108C80.9827 83.9988 81.2372 80.9673 82.3371 78.1999C83.4369 75.4325 85.3328 73.0533 87.7848 71.3634C90.2369 69.6735 93.135 68.7487 96.1127 68.706C98.0896 68.6767 100.053 69.0372 101.89 69.767C103.728 70.4968 105.404 71.5815 106.822 72.9591C108.24 74.3368 109.373 75.9804 110.155 77.796C110.938 79.6116 111.355 81.5637 111.383 83.5406Z" fill="black"/>
<path d="M371.421 118.962C351.977 118.833 336.32 102.966 336.449 83.5223C336.578 64.0784 352.444 48.4205 371.888 48.5495C391.332 48.6784 406.99 64.5454 406.861 83.9893C406.732 103.433 390.865 119.091 371.421 118.962Z" fill="black"/>
<path d="M406.875 83.1621V83.2479C406.942 87.8708 406.098 92.4618 404.391 96.7586C402.684 101.055 400.147 104.974 396.926 108.29C393.704 111.607 389.861 114.256 385.615 116.087C381.37 117.918 376.806 118.895 372.183 118.962C362.846 119.098 353.838 115.519 347.14 109.013C340.443 102.507 336.604 93.6063 336.468 84.2697C336.468 84.234 336.468 84.2054 336.468 84.1768L406.875 83.1621Z" fill="black"/>
<path d="M396.39 83.4048C396.459 88.2924 395.077 93.0906 392.419 97.1928C389.761 101.295 385.946 104.517 381.457 106.452C376.968 108.386 372.006 108.946 367.199 108.061C362.392 107.176 357.955 104.885 354.45 101.478C350.944 98.0716 348.527 93.7022 347.505 88.9222C346.483 84.1423 346.9 79.1665 348.706 74.624C350.511 70.0815 353.622 66.1762 357.647 63.4019C361.671 60.6276 366.428 59.1089 371.316 59.0378C374.562 58.9905 377.786 59.5834 380.804 60.7825C383.821 61.9816 386.573 63.7635 388.901 66.0264C391.23 68.2892 393.09 70.9887 394.375 73.9705C395.66 76.9524 396.344 80.1582 396.39 83.4048Z" fill="black"/>
<path d="M371.316 59.0378C374.562 58.9905 377.786 59.5832 380.803 60.7818C383.82 61.9805 386.571 63.7618 388.899 66.0239C391.228 68.2859 393.088 70.9846 394.373 73.9656C395.658 76.9466 396.344 80.1516 396.391 83.3976L346.956 84.1122C346.908 80.866 347.5 77.6421 348.698 74.6247C349.897 71.6074 351.678 68.8557 353.94 66.5271C356.203 64.1985 358.902 62.3385 361.883 61.0534C364.864 59.7683 368.07 59.0834 371.316 59.0378Z" fill="black"/>
<path d="M386.73 83.5406C386.773 86.5179 385.933 89.4413 384.315 91.9411C382.697 94.4409 380.374 96.4048 377.64 97.5845C374.906 98.7642 371.884 99.1067 368.955 98.5688C366.027 98.0308 363.323 96.6365 361.187 94.5622C359.051 92.4879 357.577 89.8266 356.953 86.9151C356.33 84.0035 356.583 80.9723 357.682 78.2047C358.781 75.4372 360.675 73.0576 363.126 71.3669C365.577 69.6761 368.475 68.7501 371.452 68.706C373.429 68.6767 375.393 69.0372 377.231 69.7669C379.069 70.4966 380.745 71.5812 382.164 72.9587C383.583 74.3363 384.716 75.9798 385.499 77.7955C386.283 79.6111 386.701 81.5633 386.73 83.5406Z" fill="black"/>
<path d="M140.195 22.8519C140.701 22.8304 141.208 22.8519 141.71 22.9162C142.71 22.9876 144.182 23.1163 146.076 23.2949C149.863 23.6593 155.365 24.2096 162.111 24.9241L185.878 27.4966L199.905 29.0973L207.315 30.0048C209.816 30.3478 212.367 30.7193 214.947 30.948C220.12 31.4839 225.179 31.877 230.06 32.2271L237.256 32.6987L239.014 32.7988H244.173C253.176 32.7988 261.28 32.6201 268.083 32.3343C274.885 32.0485 280.38 31.7055 284.182 31.4482L288.555 31.1338L289.691 31.0409L290.077 30.998C290.077 30.998 289.941 30.998 289.684 30.998L288.548 31.0552L284.175 31.2981C280.373 31.5125 274.885 31.8198 268.075 32.0627C261.265 32.3057 253.176 32.4558 244.173 32.4486H239.028L237.277 32.3486L230.053 31.8841C225.172 31.534 220.113 31.1338 214.954 30.5979C212.367 30.3406 209.838 30.0048 207.329 29.6546C204.821 29.3045 202.327 29.0401 199.912 28.7543L185.878 27.1822C176.938 26.2032 168.878 25.36 162.104 24.6812C155.33 24.0023 149.849 23.4878 146.055 23.1734C142.26 22.859 140.181 22.7304 140.195 22.8519Z" fill="black"/>
<path d="M253.461 36.4644C253.461 36.4644 247.609 25.1455 243.457 23.1947C243.457 23.1947 232.402 22.0228 230.716 22.4158C229.03 22.8088 228.501 25.4099 228.501 27.0963C228.501 28.7827 228.244 31.7839 229.544 32.8129C230.845 33.8419 229.801 33.7275 232.274 34.3778C234.746 35.0281 240.056 34.0277 240.056 34.0277L239.927 38.8368C239.927 38.8368 245.779 41.8308 249.552 40.9233C250.6 40.7057 251.548 40.1528 252.253 39.3483C252.958 38.5437 253.382 37.5314 253.461 36.4644Z" fill="black"/>
<path d="M239.879 38.808C239.906 38.703 239.92 38.595 239.922 38.4865C239.922 38.2435 239.922 37.9291 239.972 37.5432C240.007 36.6857 240.057 35.4924 240.114 33.9704V33.8417H239.986C238.525 34.103 237.051 34.2796 235.57 34.3705C234.691 34.4293 233.809 34.4102 232.933 34.3133C232.468 34.2472 232.009 34.142 231.561 33.9989C231.111 33.8417 230.589 33.7703 230.339 33.3987C230.174 33.191 229.99 32.9995 229.789 32.827C229.591 32.6791 229.415 32.5034 229.267 32.3054C228.984 31.875 228.801 31.3866 228.731 30.8762C228.587 29.7845 228.544 28.6817 228.603 27.5821C228.55 26.4337 228.72 25.2861 229.103 24.2021C229.289 23.6614 229.624 23.1837 230.068 22.823C230.564 22.5276 231.144 22.4022 231.718 22.4657C233.79 22.4657 235.827 22.6443 237.778 22.7944C239.729 22.9445 241.601 23.1231 243.366 23.3017H243.316C244.338 23.8751 245.252 24.6223 246.017 25.5098C246.743 26.3015 247.423 27.1342 248.053 28.0036C249.268 29.6329 250.197 31.1406 251.005 32.3983C251.812 33.6559 252.369 34.6635 252.77 35.3566L253.227 36.1498C253.274 36.244 253.332 36.3327 253.398 36.4142C253.37 36.3121 253.329 36.2137 253.277 36.1212L252.863 35.3066C252.498 34.592 251.934 33.5702 251.183 32.2911C250.433 31.012 249.483 29.49 248.282 27.8321C247.651 26.9495 246.971 26.1026 246.246 25.2954C245.46 24.3692 244.517 23.59 243.459 22.9945H243.402C241.637 22.8087 239.764 22.6229 237.814 22.4585C235.863 22.2942 233.819 22.1298 231.711 22.1227C231.393 22.1208 231.076 22.1399 230.761 22.1799C230.429 22.2242 230.114 22.352 229.846 22.5514C229.344 22.9518 228.967 23.4874 228.76 24.0949C228.364 25.2203 228.189 26.4117 228.245 27.6035C228.184 28.7276 228.234 29.855 228.395 30.9691C228.477 31.5243 228.682 32.0542 228.996 32.5198C229.161 32.7364 229.356 32.9289 229.574 33.0914C229.76 33.2516 229.929 33.4286 230.082 33.6202C231.904 34.8564 233.912 34.7349 235.584 34.6563C237.074 34.5511 238.556 34.353 240.022 34.0632L239.9 33.956C239.9 35.4495 239.864 36.6429 239.85 37.5289C239.85 37.9148 239.85 38.2435 239.85 38.465C239.848 38.58 239.857 38.695 239.879 38.808Z" fill="black"/>
<path d="M315.087 52.3708C316.508 52.5646 317.943 52.6292 319.375 52.5638C320.807 52.6288 322.242 52.5643 323.662 52.3708C322.241 52.1864 320.806 52.1243 319.375 52.185C317.943 52.124 316.508 52.1862 315.087 52.3708Z" fill="black"/>
<path d="M308.942 56.8941C310.363 57.0828 311.797 57.145 313.229 57.0799C314.661 57.1446 316.096 57.0824 317.517 56.8941C316.095 56.71 314.661 56.6478 313.229 56.7083C311.797 56.6476 310.363 56.7097 308.942 56.8941Z" fill="black"/>
<path d="M302.831 61.3457C304.253 61.5301 305.687 61.5922 307.119 61.5315C308.551 61.5925 309.985 61.5303 311.406 61.3457C309.985 61.161 308.551 61.0989 307.119 61.1599C305.687 61.0991 304.253 61.1613 302.831 61.3457Z" fill="black"/>
<path d="M296.722 65.8336C298.143 66.018 299.578 66.0801 301.009 66.0193C302.441 66.0801 303.876 66.018 305.297 65.8336C303.876 65.6449 302.441 65.5827 301.009 65.6478C299.578 65.5827 298.143 65.6449 296.722 65.8336Z" fill="black"/>
<path d="M290.614 70.3209C292.035 70.5056 293.469 70.5677 294.901 70.5067C296.333 70.5675 297.767 70.5053 299.188 70.3209C297.768 70.1275 296.333 70.0629 294.901 70.128C293.469 70.0625 292.034 70.1271 290.614 70.3209Z" fill="black"/>
<path d="M284.496 74.8015C285.917 74.9902 287.352 75.0524 288.784 74.9873C290.216 75.0527 291.65 74.9906 293.071 74.8015C291.65 74.6168 290.216 74.5547 288.784 74.6157C287.352 74.5549 285.918 74.6171 284.496 74.8015Z" fill="black"/>
<path d="M232.195 23.9808C233.944 24.1646 235.704 24.2267 237.462 24.1665C239.222 24.2268 240.984 24.1647 242.735 23.9808C240.984 23.7925 239.222 23.7304 237.462 23.795C235.704 23.7305 233.944 23.7926 232.195 23.9808Z" fill="black"/>
<path d="M357.148 42.2025C357.511 42.1678 357.87 42.0984 358.219 41.9953C358.898 41.8381 359.892 41.6309 361.128 41.4094C362.364 41.1878 363.843 40.9949 365.487 40.8449C369.059 40.5418 372.654 40.6377 376.205 41.1307C377.842 41.3594 379.307 41.638 380.528 41.9239C381.75 42.2097 382.729 42.4669 383.387 42.6384C383.731 42.7559 384.085 42.8443 384.444 42.9028C384.12 42.7355 383.781 42.6014 383.43 42.5027C382.772 42.2597 381.793 41.9596 380.571 41.638C379.141 41.2716 377.694 40.9782 376.234 40.7591C372.653 40.2165 369.019 40.1205 365.415 40.4733C363.757 40.6448 362.271 40.8663 361.035 41.1235C359.799 41.3808 358.813 41.6237 358.141 41.8381C357.801 41.9329 357.468 42.0547 357.148 42.2025Z" fill="black"/>
<path d="M151.449 79.5317C151.449 79.6318 188.735 81.7755 234.733 84.3194C280.73 86.8633 318.038 88.8427 318.045 88.7355C318.052 88.6283 280.766 86.4917 234.754 83.9478C188.743 81.4039 151.449 79.4246 151.449 79.5317Z" fill="black"/>
<path d="M79.7486 41.888C80.1551 41.8196 80.5545 41.7144 80.9419 41.5736C81.3207 41.4593 81.7851 41.3235 82.3282 41.1877C82.8713 41.0519 83.4858 40.8733 84.1789 40.7304C85.5509 40.4017 87.2087 40.1016 89.0595 39.8515C91.0677 39.6022 93.0884 39.4662 95.1119 39.4442C97.1339 39.4421 99.1545 39.5518 101.164 39.7729C103.022 40.0015 104.68 40.2802 106.059 40.5875C106.774 40.7232 107.367 40.8948 107.91 41.0234C108.453 41.152 108.925 41.2806 109.303 41.395C109.696 41.5242 110.097 41.6245 110.504 41.6951C110.131 41.5179 109.744 41.3721 109.346 41.2592C108.975 41.1234 108.51 40.9734 107.967 40.8233C107.424 40.6732 106.81 40.4803 106.116 40.3302C104.498 39.9411 102.859 39.6429 101.207 39.437C99.1825 39.1899 97.1446 39.0658 95.1048 39.0654C93.0659 39.094 91.0305 39.2444 89.0095 39.5156C87.3615 39.7443 85.7274 40.064 84.1147 40.4731C83.4001 40.6304 82.8141 40.8304 82.271 40.9876C81.728 41.1448 81.2706 41.3021 80.8991 41.4378C80.5058 41.5615 80.1214 41.7119 79.7486 41.888Z" fill="black"/>
<path d="M131.577 29.7902C131.577 29.8474 132.106 29.926 132.921 30.1904C135.054 30.8921 136.87 32.3277 138.044 34.242C138.262 34.6588 138.5 35.0643 138.759 35.4568C138.695 34.9803 138.532 34.5226 138.28 34.1134C137.738 33.0888 136.989 32.1884 136.08 31.4699C135.171 30.7513 134.121 30.2303 132.999 29.9403C132.541 29.7898 132.057 29.7387 131.577 29.7902Z" fill="black"/>
<path d="M102.385 22.9732C103.101 23.1713 103.833 23.3028 104.572 23.3662C105.937 23.5448 107.831 23.7306 109.924 23.8235C112.018 23.9164 113.919 23.895 115.291 23.8235C116.034 23.8311 116.776 23.7641 117.506 23.6234C116.768 23.5496 116.025 23.5281 115.284 23.5591C113.919 23.5591 112.025 23.5591 109.939 23.4376C107.852 23.3162 105.965 23.2018 104.601 23.0875C103.866 22.9908 103.126 22.9526 102.385 22.9732Z" fill="black"/>
<path d="M180.818 29.2402C180.818 29.3402 187.835 30.4407 196.539 31.6983C205.242 32.956 212.259 33.8921 212.309 33.792C212.359 33.692 205.285 32.5844 196.589 31.3339C187.892 30.0834 180.832 29.1401 180.818 29.2402Z" fill="black"/>
<path d="M187.986 13.6338C187.943 13.7267 191.294 15.2702 195.468 17.0781C199.641 18.8859 203.056 20.2722 203.099 20.1793C203.142 20.0864 199.791 18.5429 195.618 16.7351C191.444 14.9272 188.029 13.5409 187.986 13.6338Z" fill="black"/>
<path d="M191.973 11.6687C192.274 11.8888 192.594 12.0802 192.931 12.2404C193.56 12.5834 194.474 13.0693 195.618 13.6695C197.897 14.8271 201.091 16.3635 204.671 17.957C208.251 19.5505 211.538 20.8153 213.961 21.7228C215.161 22.173 216.14 22.5159 216.819 22.7446C217.165 22.8798 217.521 22.9874 217.884 23.0662C217.562 22.8799 217.222 22.7267 216.869 22.6088L214.061 21.4798C211.681 20.5223 208.416 19.186 204.843 17.614C201.27 16.0419 198.061 14.5556 195.753 13.4551L193.017 12.1546C192.683 11.964 192.334 11.8014 191.973 11.6687Z" fill="black"/>
</g>
</svg>
