<svg width="65" height="67" viewBox="0 0 65 67" fill="none" xmlns="http://www.w3.org/2000/svg">
<circle cx="32.5" cy="34.5" r="32.5" fill="#84C474"/>
<path d="M37.1782 19.736V21.5513L34.4029 22.0924C34.112 22.1505 33.8851 22.2727 33.7222 22.4589C33.5709 22.6451 33.4953 22.8895 33.4953 23.192V43.6138C33.4953 43.9164 33.5709 44.1607 33.7222 44.3469C33.8735 44.5331 34.1004 44.6553 34.4029 44.7135L37.1782 45.2196V47H25.9025V45.2196L28.6953 44.7135C28.9978 44.6553 29.2247 44.5331 29.376 44.3469C29.5273 44.1607 29.6029 43.9164 29.6029 43.6138V23.192C29.6029 22.9011 29.5215 22.6625 29.3585 22.4764C29.2073 22.2785 28.9862 22.1505 28.6953 22.0924L25.9025 21.5513V19.736H37.1782Z" fill="black"/>
</svg>
