<svg width="65" height="72" viewBox="0 0 65 72" fill="none" xmlns="http://www.w3.org/2000/svg">
<circle cx="32.5" cy="34.5" r="32.5" fill="#84C374"/>
<path d="M22.1782 19.736V21.5513L19.4029 22.0924C19.112 22.1505 18.8851 22.2727 18.7222 22.4589C18.5709 22.6451 18.4953 22.8895 18.4953 23.192V43.6138C18.4953 43.9164 18.5709 44.1607 18.7222 44.3469C18.8735 44.5331 19.1004 44.6553 19.4029 44.7135L22.1782 45.2196V47H10.9025V45.2196L13.6953 44.7135C13.9978 44.6553 14.2247 44.5331 14.376 44.3469C14.5273 44.1607 14.6029 43.9164 14.6029 43.6138V23.192C14.6029 22.9011 14.5215 22.6625 14.3585 22.4764C14.2073 22.2785 13.9862 22.1505 13.6953 22.0924L10.9025 21.5513V19.736H22.1782ZM37.2719 19.736V21.5513L34.4967 22.0924C34.2057 22.1505 33.9788 22.2727 33.8159 22.4589C33.6647 22.6451 33.589 22.8895 33.589 23.192V43.6138C33.589 43.9164 33.6647 44.1607 33.8159 44.3469C33.9672 44.5331 34.1941 44.6553 34.4967 44.7135L37.2719 45.2196V47H25.9963V45.2196L28.789 44.7135C29.0916 44.6553 29.3185 44.5331 29.4697 44.3469C29.621 44.1607 29.6967 43.9164 29.6967 43.6138V23.192C29.6967 22.9011 29.6152 22.6625 29.4523 22.4764C29.301 22.2785 29.0799 22.1505 28.789 22.0924L25.9963 21.5513V19.736H37.2719ZM52.3657 19.736V21.5513L49.5904 22.0924C49.2995 22.1505 49.0726 22.2727 48.9097 22.4589C48.7584 22.6451 48.6828 22.8895 48.6828 23.192V43.6138C48.6828 43.9164 48.7584 44.1607 48.9097 44.3469C49.061 44.5331 49.2879 44.6553 49.5904 44.7135L52.3657 45.2196V47H41.09V45.2196L43.8828 44.7135C44.1853 44.6553 44.4122 44.5331 44.5635 44.3469C44.7148 44.1607 44.7904 43.9164 44.7904 43.6138V23.192C44.7904 22.9011 44.709 22.6625 44.546 22.4764C44.3948 22.2785 44.1737 22.1505 43.8828 22.0924L41.09 21.5513V19.736H52.3657Z" fill="black"/>
</svg>
